<svg xmlns="http://www.w3.org/2000/svg" xmlns:xlink="http://www.w3.org/1999/xlink" width="113" height="113" viewBox="0 0 113 113">
  <defs>
    <filter id="Trazado_896985" x="0" y="0" width="113" height="113" filterUnits="userSpaceOnUse">
      <feOffset dy="3" input="SourceAlpha"/>
      <feGaussianBlur stdDeviation="3" result="blur"/>
      <feFlood flood-opacity="0.161"/>
      <feComposite operator="in" in2="blur"/>
      <feComposite in="SourceGraphic"/>
    </filter>
  </defs>
  <g id="Grupo_1111349" data-name="Grupo 1111349" transform="translate(9 6)">
    <g id="Grupo_1111318" data-name="Grupo 1111318" transform="translate(0)">
      <g id="Grupo_1109826" data-name="Grupo 1109826" transform="translate(0)">
        <g id="Grupo_1098742" data-name="Grupo 1098742" transform="translate(0 0)">
          <g transform="matrix(1, 0, 0, 1, -9, -6)" filter="url(#Trazado_896985)">
            <g id="Trazado_896985-2" data-name="Trazado 896985" transform="translate(9 6)" fill="#fd9826" opacity="0.859">
              <path d="M 47.49993515014648 93.5 C 41.28932189941406 93.5 35.26528167724609 92.28397369384766 29.59514808654785 89.88571929931641 C 24.1176815032959 87.56894683837891 19.1981086730957 84.25197601318359 14.97306823730469 80.02693176269531 C 10.74802875518799 75.80189514160156 7.431055068969727 70.88231658935547 5.11428165435791 65.40485382080078 C 2.716028451919556 59.73471832275391 1.500001788139343 53.71067810058594 1.500001788139343 47.50006484985352 C 1.500001788139343 41.28932189941406 2.716028451919556 35.26528167724609 5.11428165435791 29.59514617919922 C 7.431055068969727 24.11767959594727 10.74802875518799 19.19810676574707 14.97306823730469 14.97306632995605 C 19.1981086730957 10.74802684783936 24.1176815032959 7.431053161621094 29.59514808654785 5.114280223846436 C 35.26528167724609 2.716026782989502 41.28932189941406 1.5 47.49993515014648 1.5 C 53.71054840087891 1.5 59.73458862304688 2.716026782989502 65.40472412109375 5.114280223846436 C 70.88218688964844 7.431053161621094 75.80176544189453 10.74802684783936 80.02680206298828 14.97306632995605 C 84.25183868408203 19.19810676574707 87.56881713867188 24.11767959594727 89.88558959960938 29.59514617919922 C 92.28384399414062 35.26528167724609 93.49987030029297 41.28932189941406 93.49987030029297 47.49993515014648 C 93.49987030029297 53.71067810058594 92.28384399414062 59.73471832275391 89.88558959960938 65.40485382080078 C 87.56881713867188 70.88231658935547 84.25183868408203 75.80189514160156 80.02680206298828 80.02693176269531 C 75.80176544189453 84.25197601318359 70.88218688964844 87.56894683837891 65.40472412109375 89.88571929931641 C 59.73458862304688 92.28397369384766 53.71054840087891 93.5 47.49993515014648 93.5 Z" stroke="none"/>
              <path d="M 47.49993515014648 3 C 41.49116516113281 3 35.66371917724609 4.176155090332031 30.17947387695312 6.495796203613281 C 24.88081359863281 8.7369384765625 20.12149047851562 11.94596862792969 16.03372192382812 16.03372192382812 C 11.94596862792969 20.12149047851562 8.7369384765625 24.88081359863281 6.495796203613281 30.17947387695312 C 4.1761474609375 35.66372299194336 3 41.49116897583008 3 47.50006103515625 C 3 53.50883102416992 4.1761474609375 59.33627700805664 6.495796203613281 64.82052612304688 C 8.7369384765625 70.11918640136719 11.94596862792969 74.87850952148438 16.03372192382812 78.96627807617188 C 20.12149047851562 83.05403137207031 24.88081359863281 86.2630615234375 30.17947387695312 88.50419616699219 C 35.66371917724609 90.82384490966797 41.49116516113281 92 47.49993515014648 92 C 53.50870513916016 92 59.33615112304688 90.82384490966797 64.82039642333984 88.50419616699219 C 70.11905670166016 86.2630615234375 74.87837982177734 83.05403137207031 78.96614837646484 78.96627807617188 C 83.05390167236328 74.87850952148438 86.26293182373047 70.11918640136719 88.50407409667969 64.82052612304688 C 90.82372283935547 59.33627700805664 91.99987030029297 53.50883102416992 91.99987030029297 47.49993896484375 C 91.99987030029297 41.49116897583008 90.82372283935547 35.66372299194336 88.50407409667969 30.17947387695312 C 86.26293182373047 24.88081359863281 83.05390167236328 20.12149047851562 78.96614837646484 16.03372192382812 C 74.87837982177734 11.94596862792969 70.11905670166016 8.7369384765625 64.82039642333984 6.495796203613281 C 59.33615112304688 4.176155090332031 53.50870513916016 3 47.49993515014648 3 M 47.49993515014648 0 C 73.73342895507812 0 94.99987030029297 21.26644897460938 94.99987030029297 47.49993896484375 L 94.99987030029297 47.50006103515625 C 94.99987030029297 73.73355102539062 73.73342895507812 95 47.49993515014648 95 C 21.26644134521484 95 0 73.73355102539062 0 47.50006103515625 L 0 47.49993896484375 C 0 21.26644897460938 21.26644134521484 0 47.49993515014648 0 Z" stroke="none" fill="#fff"/>
            </g>
          </g>
          <g id="Rectángulo_400907" data-name="Rectángulo 400907" transform="translate(0)" fill="none" stroke="#fff" stroke-width="3">
            <rect width="95" height="95" rx="47.5" stroke="none"/>
            <rect x="1.5" y="1.5" width="92" height="92" rx="46" fill="none"/>
          </g>
        </g>
      </g>
    </g>
    <g id="budget_781760" transform="translate(19.628 19.567)">
      <path id="Trazado_900240" data-name="Trazado 900240" d="M138.963,17.5V50.468c0,.066,0,.132,0,.2a4.256,4.256,0,0,1-4.252,4.058H110.779a4.256,4.256,0,0,1-4.256-4.255V12.3a4.25,4.25,0,0,1,4.256-4.256h19.006a4.242,4.242,0,0,1,1.848.423c1.15.553,1.474,1.253,3.54,3.366,2.377,2.581,2.945,2.846,3.429,3.963A4.209,4.209,0,0,1,138.963,17.5Z" transform="translate(-94.96 -7.166)" fill="#ffc477"/>
      <path id="Trazado_900241" data-name="Trazado 900241" d="M165.834,17.5V50.467c0,.066,0,.132,0,.2a4.269,4.269,0,0,1-.961.109H140.941a4.256,4.256,0,0,1-4.256-4.255V8.35c0-.067,0-.133,0-.2a4.275,4.275,0,0,1,.961-.109h19.006a4.263,4.263,0,0,1,3.11,1.352l2.278,2.438,2.609,2.729a4.283,4.283,0,0,1,1.18,2.94Z" transform="translate(-121.831 -7.165)" fill="#ffdaaa"/>
      <path id="Trazado_900242" data-name="Trazado 900242" d="M278.073,180.911v23.93a6.015,6.015,0,0,1-6.015,6.015h-15.63a6.015,6.015,0,0,1-6.015-6.015v-23.93a6.012,6.012,0,0,1,6.015-6.015h15.63A6.014,6.014,0,0,1,278.073,180.911Z" transform="translate(-223.151 -155.813)" fill="#4cba68"/>
      <path id="Trazado_900243" data-name="Trazado 900243" d="M298.378,180.911v23.93a3.087,3.087,0,0,1-3.528,4.04h-15.63a6.015,6.015,0,0,1-6.015-6.015v-23.93a5.983,5.983,0,0,1,1.165-3.557,5.99,5.99,0,0,1,2.363-.483h15.63A6.014,6.014,0,0,1,298.378,180.911Z" transform="translate(-243.456 -155.813)" fill="#7ccc92"/>
      <path id="Trazado_900244" data-name="Trazado 900244" d="M360.648,366.868v2.811a.9.9,0,0,1-.9.9h-2.812a.9.9,0,0,1-.9-.9v-2.811a.9.9,0,0,1,.9-.9h2.812A.9.9,0,0,1,360.648,366.868Z" transform="translate(-317.251 -326.038)" fill="#2c733f"/>
      <path id="Trazado_900245" data-name="Trazado 900245" d="M307.689,209.017v3.011a1.939,1.939,0,0,1-1.939,1.939H290.236a1.94,1.94,0,0,1-1.939-1.939v-3.011a1.94,1.94,0,0,1,1.939-1.939H305.75A1.939,1.939,0,0,1,307.689,209.017Z" transform="translate(-256.9 -184.483)" fill="#1e81ce"/>
      <path id="Trazado_900246" data-name="Trazado 900246" d="M334.56,209.017v3.011a1.939,1.939,0,0,1-1.939,1.939H320.4a1.94,1.94,0,0,1-1.939-1.939v-3.011a1.94,1.94,0,0,1,1.939-1.939H332.62A1.939,1.939,0,0,1,334.56,209.017Z" transform="translate(-283.77 -184.483)" fill="#3d9ae2"/>
      <g id="Grupo_1111308" data-name="Grupo 1111308" transform="translate(31.397 32.582)">
        <path id="Trazado_900247" data-name="Trazado 900247" d="M292.908,366.868v2.811a.9.9,0,0,1-.9.9H289.2a.9.9,0,0,1-.9-.9v-2.811a.9.9,0,0,1,.9-.9h2.812A.9.9,0,0,1,292.908,366.868Z" transform="translate(-288.297 -358.619)" fill="#2c733f"/>
        <path id="Trazado_900248" data-name="Trazado 900248" d="M360.648,299.508v2.811a.9.9,0,0,1-.9.9h-2.812a.9.9,0,0,1-.9-.9v-2.811a.9.9,0,0,1,.9-.9h2.812A.9.9,0,0,1,360.648,299.508Z" transform="translate(-348.648 -298.608)" fill="#2c733f"/>
      </g>
      <path id="Trazado_900249" data-name="Trazado 900249" d="M429.206,299.508v2.811a.9.9,0,0,1-.9.9H425.5a.9.9,0,0,1-.9-.9v-2.811a.9.9,0,0,1,.9-.9h2.81A.9.9,0,0,1,429.206,299.508Z" transform="translate(-378.328 -266.027)" fill="#ee8700"/>
      <g id="Grupo_1111309" data-name="Grupo 1111309" transform="translate(31.397 32.582)">
        <path id="Trazado_900250" data-name="Trazado 900250" d="M292.908,299.508v2.811a.9.9,0,0,1-.9.9H289.2a.9.9,0,0,1-.9-.9v-2.811a.9.9,0,0,1,.9-.9h2.812A.9.9,0,0,1,292.908,299.508Z" transform="translate(-288.297 -298.608)" fill="#2c733f"/>
        <path id="Trazado_900251" data-name="Trazado 900251" d="M360.648,430.929v2.812a.9.9,0,0,1-.9.9h-2.812a.9.9,0,0,1-.9-.9v-2.812a.9.9,0,0,1,.9-.9h2.812A.9.9,0,0,1,360.648,430.929Z" transform="translate(-348.648 -415.691)" fill="#2c733f"/>
        <path id="Trazado_900252" data-name="Trazado 900252" d="M292.908,430.929v2.812a.9.9,0,0,1-.9.9H289.2a.9.9,0,0,1-.9-.9v-2.812a.9.9,0,0,1,.9-.9h2.812A.9.9,0,0,1,292.908,430.929Z" transform="translate(-288.297 -415.691)" fill="#2c733f"/>
      </g>
      <path id="Trazado_900253" data-name="Trazado 900253" d="M429.206,367.3v8.729a1.534,1.534,0,0,1-1.534,1.535H426.13a1.534,1.534,0,0,1-1.534-1.535V367.3a1.336,1.336,0,0,1,1.336-1.336h1.937A1.336,1.336,0,0,1,429.206,367.3Z" transform="translate(-378.328 -326.037)" fill="#ee8700"/>
      <g id="Grupo_1111310" data-name="Grupo 1111310" transform="translate(31.397 32.582)">
        <path id="Trazado_900254" data-name="Trazado 900254" d="M360.648,366.868v.836a.9.9,0,0,1-.9.9h-2.812a.9.9,0,0,1-.9-.9v-.836a.9.9,0,0,1,.9-.9h2.812A.9.9,0,0,1,360.648,366.868Z" transform="translate(-348.648 -358.619)" fill="#317f46"/>
        <path id="Trazado_900255" data-name="Trazado 900255" d="M292.908,366.868v.836a.9.9,0,0,1-.9.9H289.2a.9.9,0,0,1-.9-.9v-.836a.9.9,0,0,1,.9-.9h2.812A.9.9,0,0,1,292.908,366.868Z" transform="translate(-288.297 -358.619)" fill="#317f46"/>
        <path id="Trazado_900256" data-name="Trazado 900256" d="M360.648,299.508v.836a.9.9,0,0,1-.9.9h-2.812a.9.9,0,0,1-.9-.9v-.836a.9.9,0,0,1,.9-.9h2.812A.9.9,0,0,1,360.648,299.508Z" transform="translate(-348.648 -298.608)" fill="#317f46"/>
      </g>
      <path id="Trazado_900257" data-name="Trazado 900257" d="M429.206,299.508v.836a.9.9,0,0,1-.9.9H425.5a.9.9,0,0,1-.9-.9v-.836a.9.9,0,0,1,.9-.9h2.81A.9.9,0,0,1,429.206,299.508Z" transform="translate(-378.328 -266.027)" fill="#ff9811"/>
      <g id="Grupo_1111311" data-name="Grupo 1111311" transform="translate(31.397 32.582)">
        <path id="Trazado_900258" data-name="Trazado 900258" d="M292.908,299.508v.836a.9.9,0,0,1-.9.9H289.2a.9.9,0,0,1-.9-.9v-.836a.9.9,0,0,1,.9-.9h2.812A.9.9,0,0,1,292.908,299.508Z" transform="translate(-288.297 -298.608)" fill="#317f46"/>
        <path id="Trazado_900259" data-name="Trazado 900259" d="M360.648,430.929v.837a.9.9,0,0,1-.9.9h-2.812a.9.9,0,0,1-.9-.9v-.837a.9.9,0,0,1,.9-.9h2.812A.9.9,0,0,1,360.648,430.929Z" transform="translate(-348.648 -415.691)" fill="#317f46"/>
        <path id="Trazado_900260" data-name="Trazado 900260" d="M292.908,430.929v.837a.9.9,0,0,1-.9.9H289.2a.9.9,0,0,1-.9-.9v-.837a.9.9,0,0,1,.9-.9h2.812A.9.9,0,0,1,292.908,430.929Z" transform="translate(-288.297 -415.691)" fill="#317f46"/>
      </g>
      <path id="Trazado_900261" data-name="Trazado 900261" d="M429.206,367.3v6.754a1.534,1.534,0,0,1-1.534,1.535H426.13a1.534,1.534,0,0,1-1.534-1.535V367.3a1.336,1.336,0,0,1,1.336-1.336h1.937A1.336,1.336,0,0,1,429.206,367.3Z" transform="translate(-378.328 -326.037)" fill="#ff9811"/>
      <path id="Trazado_900262" data-name="Trazado 900262" d="M343.631,19.253H338.3a1.636,1.636,0,0,1-1.636-1.636V11.924a4.25,4.25,0,0,1,1.262.927l2.279,2.438,2.608,2.73A4.214,4.214,0,0,1,343.631,19.253Z" transform="translate(-299.987 -10.623)" fill="#ffb655"/>
      <path id="Trazado_900263" data-name="Trazado 900263" d="M86.393,463.735a2.09,2.09,0,0,1-2.084,2.084H71.54a2.084,2.084,0,0,1,0-4.168H84.309A2.09,2.09,0,0,1,86.393,463.735Z" transform="translate(-61.937 -411.28)" fill="#aa6100"/>
      <path id="Trazado_900264" data-name="Trazado 900264" d="M86.393,425.53a2.09,2.09,0,0,1-2.084,2.084H71.54a2.084,2.084,0,0,1,0-4.169H84.309A2.09,2.09,0,0,1,86.393,425.53Z" transform="translate(-61.937 -377.243)" fill="#cc7400"/>
      <path id="Trazado_900265" data-name="Trazado 900265" d="M86.393,387.326a2.09,2.09,0,0,1-2.084,2.084H71.54a2.084,2.084,0,0,1,0-4.168H84.309A2.09,2.09,0,0,1,86.393,387.326Z" transform="translate(-61.937 -343.208)" fill="#ee8700"/>
      <path id="Trazado_900266" data-name="Trazado 900266" d="M86.393,349.12a2.09,2.09,0,0,1-2.084,2.084H71.54a2.09,2.09,0,0,1-2.084-2.084,2.09,2.09,0,0,1,2.084-2.084H84.309A2.091,2.091,0,0,1,86.393,349.12Z" transform="translate(-61.937 -309.17)" fill="#ff9811"/>
      <path id="Trazado_900267" data-name="Trazado 900267" d="M84.309,313H71.54a2.09,2.09,0,0,1-2.084-2.084h0a2.09,2.09,0,0,1,2.084-2.084H84.309a2.09,2.09,0,0,1,2.084,2.084h0A2.09,2.09,0,0,1,84.309,313Z" transform="translate(-61.937 -275.137)" fill="#ffa733"/>
      <path id="Trazado_900268" data-name="Trazado 900268" d="M24.865,384.119a6.782,6.782,0,0,0-7.068-6.494H15.14a6.791,6.791,0,0,0,.581,13.569H17.8v0c.19.008.381.009.573,0a6.9,6.9,0,0,0,1.262-.172,6.791,6.791,0,0,0,5.234-6.366v-.008C24.873,384.472,24.873,384.3,24.865,384.119Z" transform="translate(-7.742 -336.416)" fill="#cc7400"/>
      <path id="Trazado_900269" data-name="Trazado 900269" d="M72.027,386.1v.008a6.791,6.791,0,0,1-5.234,6.366,6.794,6.794,0,0,1-5.227-6.321c0-.015,0-.03,0-.045V386.1a6.793,6.793,0,0,1,5.233-6.85,6.793,6.793,0,0,1,5.229,6.322C72.034,385.755,72.034,385.93,72.027,386.1Z" transform="translate(-54.903 -337.874)" fill="#ee8700"/>
      <path id="Trazado_900270" data-name="Trazado 900270" d="M49.457,18.26H45.43V10.336a5.147,5.147,0,0,0-1.423-3.547L41.4,4.066C39.2,1.791,38.918,1.149,37.6.51A5.146,5.146,0,0,0,35.375,0H16.369a5.14,5.14,0,0,0-5.134,5.134V32.82H10.152a2.96,2.96,0,0,0-2.1,5.046,2.951,2.951,0,0,0-.86,2.084,3.038,3.038,0,0,0,.058.586A7.466,7.466,0,0,0,8.315,55.423l14.605-.005a2.96,2.96,0,0,0,2.1-5.046,2.946,2.946,0,0,0,.856-1.937h1.111v.593a6.845,6.845,0,0,0,6.837,6.837h15.63a6.845,6.845,0,0,0,6.837-6.837V25.1A6.845,6.845,0,0,0,49.457,18.26ZM38.1,3.1,42.47,7.723s0,0,0,0h0l0,.005h0a.019.019,0,0,0,.007.007l0,0s0,0,0,0,0,0,0,0,0,0,0,0H38.1V3.1ZM10.152,34.575H22.921a1.207,1.207,0,1,1,0,2.413H10.152a1.207,1.207,0,1,1,0-2.413Zm0,4.168H22.921a1.207,1.207,0,1,1,0,2.413H14.1a7.147,7.147,0,0,0-1.111-.4,7.4,7.4,0,0,0-1.755-.258c-.172,0-.344,0-.517,0H9.08a1.186,1.186,0,0,1-.135-.552A1.209,1.209,0,0,1,10.152,38.743Zm13.976,5.375a1.208,1.208,0,0,1-1.207,1.207H18.01a7.382,7.382,0,0,0-1.49-2.413h6.4A1.209,1.209,0,0,1,24.127,44.119ZM5.882,42.543A7.572,7.572,0,0,0,4.5,44.316H3.478A5.8,5.8,0,0,1,5.882,42.543ZM2.544,45.961H3.822a7.576,7.576,0,0,0-.239,1.315H2.233A5.767,5.767,0,0,1,2.544,45.961Zm.142,4.35a5.757,5.757,0,0,1-.412-1.389H3.614a6.622,6.622,0,0,0,.314,1.389Zm1.095,1.645c.539,0,.851,0,.925,0a7.411,7.411,0,0,0,1.18,1.428A5.8,5.8,0,0,1,3.781,51.956Zm7.488,1.822a5.821,5.821,0,1,1,3.688-10.1A5.817,5.817,0,0,1,11.269,53.779Zm11.652-.116H15.838a7.518,7.518,0,0,0,1.886-2.413h5.2a1.207,1.207,0,0,1,0,2.413Zm1.2-5.228a1.207,1.207,0,0,1-1.2,1.06H18.329a7.54,7.54,0,0,0,.106-2.413h4.486A1.208,1.208,0,0,1,24.118,48.434Zm2.872-1.755H25.405a2.912,2.912,0,0,0-.383-.476,2.955,2.955,0,0,0,0-4.168,2.956,2.956,0,0,0,0-4.168,2.964,2.964,0,0,0-2.1-5.046H12.99V5.134a3.383,3.383,0,0,1,3.379-3.379H36.346V8.63a.877.877,0,0,0,.878.878H43.57c.183.711.07.476.1,8.753H33.827A6.845,6.845,0,0,0,26.989,25.1V46.679Zm27.659,2.349a5.2,5.2,0,0,1-5.192,5.192H33.827a5.2,5.2,0,0,1-5.192-5.192V25.1a5.2,5.2,0,0,1,5.192-5.192h15.63A5.2,5.2,0,0,1,54.649,25.1v23.93Z" transform="translate(-0.549)"/>
      <path id="Trazado_900271" data-name="Trazado 900271" d="M286.5,206.428h-2.985a1.12,1.12,0,0,1-1.117-1.117V202.3a1.12,1.12,0,0,1,1.117-1.117h15.514a1.118,1.118,0,0,1,1.117,1.117v3.011a1.118,1.118,0,0,1-1.117,1.117h-8.981a.823.823,0,1,0,0,1.645h8.981a2.765,2.765,0,0,0,2.762-2.762V202.3a2.765,2.765,0,0,0-2.762-2.762H283.519a2.762,2.762,0,0,0-2.762,2.762v3.011a2.762,2.762,0,0,0,2.762,2.762H286.5a.823.823,0,1,0,0-1.645Z" transform="translate(-250.183 -177.766)"/>
      <path id="Trazado_900272" data-name="Trazado 900272" d="M282.479,364.684h2.812a1.724,1.724,0,0,0,1.722-1.722v-2.81a1.724,1.724,0,0,0-1.722-1.722h-2.812a1.724,1.724,0,0,0-1.722,1.722v2.81A1.724,1.724,0,0,0,282.479,364.684Zm-.077-4.533a.077.077,0,0,1,.077-.077h2.812a.077.077,0,0,1,.077.077v2.81a.077.077,0,0,1-.077.077h-2.812a.077.077,0,0,1-.077-.077Z" transform="translate(-250.183 -319.32)"/>
      <path id="Trazado_900273" data-name="Trazado 900273" d="M421.589,291.068h-2.81a1.724,1.724,0,0,0-1.722,1.722V295.6a1.724,1.724,0,0,0,1.722,1.722h2.81a1.724,1.724,0,0,0,1.722-1.722V292.79A1.724,1.724,0,0,0,421.589,291.068Zm.077,4.533a.076.076,0,0,1-.077.077h-2.81a.077.077,0,0,1-.077-.077c.034-2.781-.071-2.887.077-2.887h2.81a.076.076,0,0,1,.077.077Z" transform="translate(-371.61 -259.309)"/>
      <path id="Trazado_900274" data-name="Trazado 900274" d="M282.479,297.323h2.812a1.724,1.724,0,0,0,1.722-1.722v-2.81a1.724,1.724,0,0,0-1.722-1.722h-2.812a1.724,1.724,0,0,0-1.722,1.722v2.81A1.724,1.724,0,0,0,282.479,297.323Zm-.077-4.533a.077.077,0,0,1,.077-.077h2.812a.077.077,0,0,1,.077.077v2.81a.077.077,0,0,1-.077.077h-2.812a.077.077,0,0,1-.077-.077Z" transform="translate(-250.183 -259.309)"/>
      <path id="Trazado_900275" data-name="Trazado 900275" d="M286.556,423.071a1.721,1.721,0,0,0-1.289-.58h-2.812a1.717,1.717,0,0,0-1.288.58,2.353,2.353,0,0,0-.434,1.755v2.2a1.724,1.724,0,0,0,1.722,1.722h2.812a1.724,1.724,0,0,0,1.722-1.722v-2.2A2.373,2.373,0,0,0,286.556,423.071Zm-1.289,4.029c-2.778-.034-2.888.071-2.888-.077,0-2.976-.033-2.887.077-2.887h2.812c.135,0,.052.188.077.69A11.7,11.7,0,0,1,285.267,427.1Z" transform="translate(-250.159 -376.392)"/>
      <path id="Trazado_900276" data-name="Trazado 900276" d="M421.151,358.428h-1.937a2.162,2.162,0,0,0-2.159,2.159v8.729a2.36,2.36,0,0,0,2.356,2.357h1.542a2.359,2.359,0,0,0,2.356-2.357v-8.729A2.161,2.161,0,0,0,421.151,358.428Zm.513,10.888a.712.712,0,0,1-.711.712h-1.542a.712.712,0,0,1-.711-.712v-8.729a.514.514,0,0,1,.513-.513h1.937a.514.514,0,0,1,.513.513v8.729Z" transform="translate(-371.609 -319.319)"/>
      <path id="Trazado_900277" data-name="Trazado 900277" d="M166.192,172.933h0c-1-.369-1.728-.635-1.728-1.564,0-.847.563-1.277,1.672-1.277,1.178,0,1.495.518,1.91.518a.79.79,0,0,0,.7-.81c0-.685-1.118-1.025-2.118-1.115v-.618a.78.78,0,0,0-1.559,0v.717a2.55,2.55,0,0,0-2.118,2.667c0,1.915,1.41,2.445,2.543,2.87,1.109.417,1.986.746,1.986,2.013,0,1.046-.581,1.576-1.727,1.576-1.677,0-1.693-1.132-2.332-1.132a.823.823,0,0,0-.715.81c0,.648.966,1.5,2.363,1.722v.6a.78.78,0,1,0,1.559,0v-.613a2.816,2.816,0,0,0,2.363-3.042C168.992,173.962,167.44,173.392,166.192,172.933Z" transform="translate(-145.014 -149.035)"/>
      <path id="Trazado_900278" data-name="Trazado 900278" d="M353.011,422.491H350.2a1.721,1.721,0,0,0-1.289.58,2.363,2.363,0,0,0-.433,1.755v2.2a1.724,1.724,0,0,0,1.722,1.722h2.812a1.724,1.724,0,0,0,1.721-1.722v-2.812a1.724,1.724,0,0,0-1.721-1.721Zm0,4.609c-2.778-.034-2.888.071-2.888-.077v-2.812a.077.077,0,0,1,.077-.076h2.812a.076.076,0,0,1,.076.076C353.053,427,353.156,427.1,353.011,427.1Z" transform="translate(-310.511 -376.392)"/>
      <path id="Trazado_900279" data-name="Trazado 900279" d="M353.033,291.068h-2.812a1.724,1.724,0,0,0-1.722,1.722V295.6a1.724,1.724,0,0,0,1.722,1.722h2.812a1.7,1.7,0,0,0,.626-.119,1.724,1.724,0,0,0,1.095-1.6V292.79A1.724,1.724,0,0,0,353.033,291.068Zm.076,4.533a.076.076,0,0,1-.076.077h-2.812a.077.077,0,0,1-.077-.077V292.79c0-.148.1-.044,2.888-.077a.076.076,0,0,1,.076.077V295.6Z" transform="translate(-310.534 -259.309)"/>
      <path id="Trazado_900280" data-name="Trazado 900280" d="M353.659,358.547a1.7,1.7,0,0,0-.626-.119h-2.812a1.724,1.724,0,0,0-1.722,1.722v2.81a1.724,1.724,0,0,0,1.722,1.722h2.812a1.724,1.724,0,0,0,1.721-1.722v-2.81A1.724,1.724,0,0,0,353.659,358.547Zm-.551,4.414a.076.076,0,0,1-.076.077h-2.812a.077.077,0,0,1-.077-.077v-2.81a.077.077,0,0,1,.077-.077h2.812a.076.076,0,0,1,.076.077Z" transform="translate(-310.534 -319.319)"/>
      <path id="Trazado_900281" data-name="Trazado 900281" d="M320.87,104.687h2.067a.823.823,0,0,0,0-1.645H320.87a.823.823,0,1,0,0,1.645Z" transform="translate(-285.186 -91.799)"/>
      <path id="Trazado_900282" data-name="Trazado 900282" d="M156.993,104.687h14.59a.823.823,0,0,0,0-1.645h-14.59a.823.823,0,1,0,0,1.645Z" transform="translate(-139.19 -91.799)"/>
      <path id="Trazado_900283" data-name="Trazado 900283" d="M159.608,142.117a.823.823,0,0,0,0-1.645h-2.615a.823.823,0,1,0,0,1.645Z" transform="translate(-139.19 -125.145)"/>
      <path id="Trazado_900284" data-name="Trazado 900284" d="M225.986,141.295a.823.823,0,0,0-.823-.823H211.122a.823.823,0,1,0,0,1.645h14.041A.823.823,0,0,0,225.986,141.295Z" transform="translate(-187.413 -125.145)"/>
      <path id="Trazado_900285" data-name="Trazado 900285" d="M79.155,401.158c0-.207.076-.266.147-.306a1.414,1.414,0,0,1,1.193.081.94.94,0,0,0,.445.135c.811,0,1.453-1.508-.485-1.841v-.052a.834.834,0,1,0-1.667,0v.158a1.871,1.871,0,0,0-1.272,1.874c0,1.4,1.019,1.786,1.764,2.066.71.267.955.384.955.866,0,.3-.081.581-.671.581-.86,0-.757-.68-1.4-.68a.86.86,0,0,0-.795.852c0,.57.593,1.111,1.419,1.33v.062a.834.834,0,1,0,1.667,0V406.2a2.061,2.061,0,0,0,1.419-2.111C81.875,401.591,79.155,401.966,79.155,401.158Z" transform="translate(-68.987 -354.878)"/>
    </g>
  </g>
</svg>
