<svg xmlns="http://www.w3.org/2000/svg" width="1153.555" height="476" viewBox="0 0 1153.555 476">
  <g id="Grupo_1181006" data-name="Grupo 1181006" transform="translate(7037.464 9389.708)">
    <g id="Grupo_1178829" data-name="Grupo 1178829" transform="translate(-6132.981 -9370.162)">
      <text id="_1001" data-name="1001" transform="translate(140 60)" fill="#12263f" font-size="16" font-family="Roboto-Regular, Roboto"><tspan x="0" y="0">1001</tspan></text>
    </g>
    <g id="Grupo_1178830" data-name="Grupo 1178830" transform="translate(-6480.981 -9375.162)">
      <text id="ORDEN_DE_PRODUCCIÓN_N_" data-name="ORDEN DE PRODUCCIÓN N °" transform="translate(0 50)" fill="#12263f" font-size="16" font-family="Roboto-Bold, Roboto" font-weight="700"><tspan x="-102.625" y="17">ORDEN DE PRODUCCIÓN N °</tspan></text>
    </g>
    <g id="Grupo_1178862" data-name="Grupo 1178862" transform="translate(-6480.981 -9329.642)">
      <text id="UNIDADES_TERMINADAS" data-name="UNIDADES TERMINADAS" transform="translate(0 50)" fill="#12263f" font-size="16" font-family="Roboto-Bold, Roboto" font-weight="700"><tspan x="0" y="17">UNIDADES TERMINADAS</tspan></text>
    </g>
    <path id="Trazado_1034071" data-name="Trazado 1034071" d="M0-48.724V40.36" transform="translate(-6074.023 -9290.484)" fill="none" stroke="#d6d6d6" stroke-linecap="round" stroke-width="1"/>
    <g id="Trazado_1034073" data-name="Trazado 1034073" transform="translate(-7036.982 -9339.161)" fill="#fff">
      <path d="M 1152.385375976562 424.0294799804688 L 488.2402038574219 424.0294799804688 L 0.5000555515289307 424.0294799804688 L 0.5000555515289307 0.5000562071800232 L 1152.385375976562 0.5000562071800232 L 1152.385375976562 424.0294799804688 Z" stroke="none"/>
      <path d="M 0.9998779296875 1.00006103515625 L 0.9998779296875 423.5294799804688 L 1151.88525390625 423.5294799804688 L 1151.88525390625 1.00006103515625 L 0.9998779296875 1.00006103515625 M -0.0001220703125 6.103515625e-05 L 1152.88525390625 6.103515625e-05 L 1152.88525390625 424.5294799804688 L -0.0001220703125 424.5294799804688 L -0.0001220703125 6.103515625e-05 Z" stroke="none" fill="#d6d6d6"/>
    </g>
    <path id="Trazado_1034053" data-name="Trazado 1034053" d="M0,0H311.885V50H0Z" transform="translate(-6195.982 -9389.161)" fill="#fd9826"/>
    <path id="Trazado_1034074" data-name="Trazado 1034074" d="M0,0H170.432V88.332H0Z" transform="translate(-7037.415 -9337.898)" fill="#e8e8e8"/>
    <path id="Trazado_1034069" data-name="Trazado 1034069" d="M-149.369-10636H1003.567" transform="translate(-6887.614 1481.479)" fill="none" stroke="#d6d6d6" stroke-width="1"/>
    <path id="Trazado_1034056" data-name="Trazado 1034056" d="M-149.369-10636H1003.516" transform="translate(-6887.614 1543.761)" fill="none" stroke="#d6d6d6" stroke-width="1"/>
    <path id="Trazado_1034070" data-name="Trazado 1034070" d="M-63.3-10635.879H1089.588" transform="translate(-6973.686 1587.64)" fill="none" stroke="#d6d6d6" stroke-width="1"/>
    <path id="Trazado_1034106" data-name="Trazado 1034106" d="M-63.3-10635.879h1151" transform="translate(-6972.686 1631.64)" fill="none" stroke="#d6d6d6" stroke-width="1"/>
    <path id="Trazado_1034107" data-name="Trazado 1034107" d="M-63.3-10635.879H1088.776" transform="translate(-6972.686 1675.64)" fill="none" stroke="#d6d6d6" stroke-width="1"/>
    <path id="Trazado_1054867" data-name="Trazado 1054867" d="M0,0V423" transform="translate(-6364.982 -9338.208)" fill="none" stroke="#d6d6d6" stroke-linecap="round" stroke-width="1"/>
    <path id="Trazado_1054871" data-name="Trazado 1054871" d="M0,0V381" transform="translate(-6195.982 -9296.208)" fill="none" stroke="#d6d6d6" stroke-linecap="round" stroke-width="1"/>
    <path id="Trazado_1054870" data-name="Trazado 1054870" d="M0,0V475" transform="translate(-6034.982 -9389.208)" fill="none" stroke="#d6d6d6" stroke-linecap="round" stroke-width="1"/>
    <path id="Trazado_1054866" data-name="Trazado 1054866" d="M5.227-4.164H3.359V0H1.016V-11.375H5.242a4.778,4.778,0,0,1,3.109.9A3.1,3.1,0,0,1,9.445-7.937,3.5,3.5,0,0,1,8.941-6,3.437,3.437,0,0,1,7.414-4.758L9.875-.109V0H7.359Zm-1.867-1.9H5.25a1.936,1.936,0,0,0,1.367-.449A1.606,1.606,0,0,0,7.1-7.75a1.719,1.719,0,0,0-.457-1.266,1.9,1.9,0,0,0-1.4-.461H3.359ZM18.07-4.93h-4.5v3.047h5.281V0H11.227V-11.375h7.609v1.9H13.57v2.711h4.5Zm11.484-.5a6.853,6.853,0,0,1-.516,2.77,4.754,4.754,0,0,1-1.43,1.887L29.5.711l-1.492,1.32L25.586.086a5.126,5.126,0,0,1-.859.07A4.732,4.732,0,0,1,22.2-.523a4.515,4.515,0,0,1-1.719-1.941,6.67,6.67,0,0,1-.617-2.9V-5.93a6.831,6.831,0,0,1,.605-2.957,4.508,4.508,0,0,1,1.711-1.961,4.706,4.706,0,0,1,2.527-.684,4.706,4.706,0,0,1,2.527.684,4.508,4.508,0,0,1,1.711,1.961,6.811,6.811,0,0,1,.605,2.949ZM27.18-5.945a4.787,4.787,0,0,0-.641-2.719,2.088,2.088,0,0,0-1.828-.93,2.088,2.088,0,0,0-1.82.918,4.732,4.732,0,0,0-.648,2.691v.555a4.847,4.847,0,0,0,.641,2.7,2.082,2.082,0,0,0,1.844.961,2.064,2.064,0,0,0,1.813-.926,4.819,4.819,0,0,0,.641-2.7Zm12.7-5.43v7.492A3.836,3.836,0,0,1,38.715-.93,4.5,4.5,0,0,1,35.523.156,4.553,4.553,0,0,1,32.359-.9a3.77,3.77,0,0,1-1.2-2.9v-7.578h2.344v7.508a2.167,2.167,0,0,0,.535,1.629,2.054,2.054,0,0,0,1.48.512q1.977,0,2.008-2.078v-7.57ZM44.3,0H41.953V-11.375H44.3Zm8.07-2.984A1.2,1.2,0,0,0,51.9-4a6.148,6.148,0,0,0-1.687-.75,11.962,11.962,0,0,1-1.93-.777,3.153,3.153,0,0,1-1.937-2.82A2.747,2.747,0,0,1,46.863-10a3.389,3.389,0,0,1,1.492-1.129,5.616,5.616,0,0,1,2.184-.406,5.112,5.112,0,0,1,2.172.441,3.458,3.458,0,0,1,1.48,1.246,3.261,3.261,0,0,1,.527,1.828H52.375a1.534,1.534,0,0,0-.492-1.215A2.023,2.023,0,0,0,50.5-9.664a2.162,2.162,0,0,0-1.336.363,1.146,1.146,0,0,0-.477.957,1.1,1.1,0,0,0,.559.93,6.311,6.311,0,0,0,1.645.7A7.106,7.106,0,0,1,53.8-5.219,2.972,2.972,0,0,1,54.719-3,2.737,2.737,0,0,1,53.6-.684a4.891,4.891,0,0,1-3.008.84A5.808,5.808,0,0,1,48.2-.324a3.783,3.783,0,0,1-1.645-1.316,3.371,3.371,0,0,1-.566-1.937h2.352q0,1.883,2.25,1.883a2.189,2.189,0,0,0,1.3-.34A1.106,1.106,0,0,0,52.367-2.984ZM58.8,0H56.453V-11.375H58.8ZM69.9-3.789A4.025,4.025,0,0,1,68.543-.9,4.76,4.76,0,0,1,65.32.156a4.28,4.28,0,0,1-3.441-1.473,6.038,6.038,0,0,1-1.254-4.043v-.7A6.819,6.819,0,0,1,61.2-8.945a4.332,4.332,0,0,1,1.652-1.918,4.629,4.629,0,0,1,2.5-.668,4.637,4.637,0,0,1,3.172,1.055,4.326,4.326,0,0,1,1.391,2.961H67.57a2.376,2.376,0,0,0-.613-1.6,2.271,2.271,0,0,0-1.605-.5,1.991,1.991,0,0,0-1.754.84A4.707,4.707,0,0,0,63-6.164V-5.3a5.038,5.038,0,0,0,.559,2.7,1.954,1.954,0,0,0,1.762.852,2.314,2.314,0,0,0,1.621-.5,2.241,2.241,0,0,0,.613-1.535ZM73.93,0H71.586V-11.375H73.93ZM85.445-5.43a6.867,6.867,0,0,1-.594,2.945,4.472,4.472,0,0,1-1.7,1.953,4.7,4.7,0,0,1-2.535.688,4.732,4.732,0,0,1-2.523-.68,4.515,4.515,0,0,1-1.719-1.941,6.67,6.67,0,0,1-.617-2.9V-5.93a6.831,6.831,0,0,1,.605-2.957,4.508,4.508,0,0,1,1.711-1.961,4.706,4.706,0,0,1,2.527-.684,4.706,4.706,0,0,1,2.527.684A4.508,4.508,0,0,1,84.84-8.887a6.811,6.811,0,0,1,.605,2.949ZM83.07-5.945a4.787,4.787,0,0,0-.641-2.719,2.088,2.088,0,0,0-1.828-.93,2.088,2.088,0,0,0-1.82.918,4.732,4.732,0,0,0-.648,2.691v.555a4.847,4.847,0,0,0,.641,2.7,2.082,2.082,0,0,0,1.844.961,2.064,2.064,0,0,0,1.813-.926,4.819,4.819,0,0,0,.641-2.7Zm-2.016-8.477h2.461L81.352-12H79.516ZM96.4,0H94.055L89.492-7.484V0H87.148V-11.375h2.344l4.57,7.5v-7.5H96.4ZM111.68,0h-2.344l-4.562-7.484V0H102.43V-11.375h2.344l4.57,7.5v-7.5h2.336ZM113.7-9.375a2.077,2.077,0,0,1,.633-1.523,2.041,2.041,0,0,1,1.492-.633,2,2,0,0,1,1.473.629,2.093,2.093,0,0,1,.621,1.527,2.041,2.041,0,0,1-.621,1.512,2.025,2.025,0,0,1-1.473.613,2.082,2.082,0,0,1-1.484-.613A2.01,2.01,0,0,1,113.7-9.375Zm2.125.969a.913.913,0,0,0,.684-.277.953.953,0,0,0,.27-.691,1.011,1.011,0,0,0-.27-.7.883.883,0,0,0-.684-.3.92.92,0,0,0-.7.3.988.988,0,0,0-.281.7.929.929,0,0,0,.285.688A.948.948,0,0,0,115.82-8.406Z" transform="translate(-6181.982 -9358.708)" fill="#12263f"/>
    <path id="Trazado_1054873" data-name="Trazado 1054873" d="M8.57,0H.773V-1.547l3.68-3.922A9.078,9.078,0,0,0,5.574-6.914a2.322,2.322,0,0,0,.363-1.172,1.738,1.738,0,0,0-.383-1.191,1.382,1.382,0,0,0-1.094-.434,1.49,1.49,0,0,0-1.207.527A2.089,2.089,0,0,0,2.813-7.8H.547a3.729,3.729,0,0,1,.5-1.9,3.5,3.5,0,0,1,1.4-1.348A4.262,4.262,0,0,1,4.5-11.531a4.036,4.036,0,0,1,2.73.844A2.985,2.985,0,0,1,8.2-8.3a3.825,3.825,0,0,1-.437,1.719,9.551,9.551,0,0,1-1.5,2.039L3.68-1.82H8.57Zm9.18,0h-7.8V-1.547l3.68-3.922a9.078,9.078,0,0,0,1.121-1.445,2.322,2.322,0,0,0,.363-1.172,1.738,1.738,0,0,0-.383-1.191,1.382,1.382,0,0,0-1.094-.434,1.49,1.49,0,0,0-1.207.527A2.089,2.089,0,0,0,11.992-7.8H9.727a3.729,3.729,0,0,1,.5-1.9,3.5,3.5,0,0,1,1.4-1.348,4.262,4.262,0,0,1,2.055-.488,4.036,4.036,0,0,1,2.73.844A2.985,2.985,0,0,1,17.383-8.3a3.825,3.825,0,0,1-.437,1.719,9.551,9.551,0,0,1-1.5,2.039L12.859-1.82H17.75Zm3.68-6.687h1.2a1.7,1.7,0,0,0,1.273-.43,1.574,1.574,0,0,0,.414-1.141,1.392,1.392,0,0,0-.41-1.07,1.59,1.59,0,0,0-1.129-.383,1.666,1.666,0,0,0-1.086.355,1.137,1.137,0,0,0-.437.926H19a2.777,2.777,0,0,1,.48-1.6,3.2,3.2,0,0,1,1.344-1.105,4.485,4.485,0,0,1,1.9-.4,4.253,4.253,0,0,1,2.828.863,2.945,2.945,0,0,1,1.023,2.379A2.394,2.394,0,0,1,26.1-6.852a3.1,3.1,0,0,1-1.25,1.008,2.826,2.826,0,0,1,1.434,1.031,2.8,2.8,0,0,1,.473,1.625,2.994,2.994,0,0,1-1.105,2.43,4.445,4.445,0,0,1-2.926.914,4.214,4.214,0,0,1-2.785-.9,2.934,2.934,0,0,1-1.082-2.375h2.258A1.308,1.308,0,0,0,21.6-2.07a1.771,1.771,0,0,0,1.184.406,1.779,1.779,0,0,0,1.262-.426A1.47,1.47,0,0,0,24.5-3.219q0-1.7-1.875-1.7h-1.2Zm9.18,0h1.2a1.7,1.7,0,0,0,1.273-.43A1.574,1.574,0,0,0,33.5-8.258a1.392,1.392,0,0,0-.41-1.07,1.59,1.59,0,0,0-1.129-.383,1.666,1.666,0,0,0-1.086.355,1.137,1.137,0,0,0-.437.926H28.18a2.777,2.777,0,0,1,.48-1.6A3.2,3.2,0,0,1,30-11.133a4.485,4.485,0,0,1,1.9-.4,4.253,4.253,0,0,1,2.828.863,2.945,2.945,0,0,1,1.023,2.379,2.394,2.394,0,0,1-.477,1.438,3.1,3.1,0,0,1-1.25,1.008,2.826,2.826,0,0,1,1.434,1.031,2.8,2.8,0,0,1,.473,1.625,2.994,2.994,0,0,1-1.105,2.43,4.445,4.445,0,0,1-2.926.914,4.214,4.214,0,0,1-2.785-.9,2.934,2.934,0,0,1-1.082-2.375H30.3a1.308,1.308,0,0,0,.48,1.047,1.771,1.771,0,0,0,1.184.406,1.779,1.779,0,0,0,1.262-.426,1.47,1.47,0,0,0,.457-1.129q0-1.7-1.875-1.7h-1.2Z" transform="translate(-5941.982 -9358.708)" fill="#12263f"/>
    <path id="Trazado_1054874" data-name="Trazado 1054874" d="M21.031-5.594l.656-5.781h6.375v1.883H23.539l-.281,2.445a3.58,3.58,0,0,1,1.711-.43,3.279,3.279,0,0,1,2.547,1.008,4.026,4.026,0,0,1,.922,2.82,4.124,4.124,0,0,1-.465,1.973A3.281,3.281,0,0,1,26.641-.324a4.158,4.158,0,0,1-2.047.48A4.416,4.416,0,0,1,22.68-.262a3.4,3.4,0,0,1-1.395-1.176,3.2,3.2,0,0,1-.543-1.727h2.234a1.669,1.669,0,0,0,.5,1.105,1.573,1.573,0,0,0,1.113.395,1.388,1.388,0,0,0,1.18-.551,2.551,2.551,0,0,0,.414-1.559A2.11,2.11,0,0,0,25.7-5.258a1.749,1.749,0,0,0-1.352-.516,1.954,1.954,0,0,0-1.3.422l-.219.2Zm16.5.891a5.762,5.762,0,0,1-.977,3.609A3.409,3.409,0,0,1,33.7.156,3.433,3.433,0,0,1,30.852-1.07a5.594,5.594,0,0,1-1.008-3.516V-6.68a5.687,5.687,0,0,1,.988-3.617,3.434,3.434,0,0,1,2.848-1.234,3.437,3.437,0,0,1,2.844,1.223A5.576,5.576,0,0,1,37.531-6.8Zm-2.258-2.3a4.165,4.165,0,0,0-.387-2.061,1.307,1.307,0,0,0-1.207-.645A1.284,1.284,0,0,0,32.5-9.1a3.9,3.9,0,0,0-.4,1.92v2.768a4.372,4.372,0,0,0,.379,2.068,1.29,1.29,0,0,0,1.215.676,1.268,1.268,0,0,0,1.2-.649A4.268,4.268,0,0,0,35.273-4.3Z" transform="translate(-5941.982 -9310.708)" fill="#12263f"/>
    <path id="Trazado_1054876" data-name="Trazado 1054876" d="M9.578-9.477H6.094V0H3.75V-9.477H.313v-1.9H9.578ZM20.039-5.43a6.867,6.867,0,0,1-.594,2.945,4.472,4.472,0,0,1-1.7,1.953,4.7,4.7,0,0,1-2.535.688,4.732,4.732,0,0,1-2.523-.68,4.515,4.515,0,0,1-1.719-1.941,6.67,6.67,0,0,1-.617-2.9V-5.93a6.831,6.831,0,0,1,.605-2.957,4.508,4.508,0,0,1,1.711-1.961,4.706,4.706,0,0,1,2.527-.684,4.706,4.706,0,0,1,2.527.684,4.508,4.508,0,0,1,1.711,1.961,6.811,6.811,0,0,1,.605,2.949Zm-2.375-.516a4.787,4.787,0,0,0-.641-2.719,2.088,2.088,0,0,0-1.828-.93,2.088,2.088,0,0,0-1.82.918,4.732,4.732,0,0,0-.648,2.691v.555a4.847,4.847,0,0,0,.641,2.7,2.082,2.082,0,0,0,1.844.961,2.064,2.064,0,0,0,1.813-.926,4.819,4.819,0,0,0,.641-2.7ZM29.641-9.477H26.156V0H23.813V-9.477H20.375v-1.9h9.266Zm6.82,7.133H32.352L31.57,0H29.078l4.234-11.375h2.172L39.742,0H37.25Zm-3.477-1.9h2.844L34.4-8.5ZM43.148-1.883h4.977V0H40.8V-11.375h2.344Z" transform="translate(-6176.982 -8975.708)" fill="#12263f"/>
    <path id="Trazado_1054877" data-name="Trazado 1054877" d="M5.227-4.164H3.359V0H1.016V-11.375H5.242a4.778,4.778,0,0,1,3.109.9A3.1,3.1,0,0,1,9.445-7.937,3.5,3.5,0,0,1,8.941-6,3.437,3.437,0,0,1,7.414-4.758L9.875-.109V0H7.359Zm-1.867-1.9H5.25a1.936,1.936,0,0,0,1.367-.449A1.606,1.606,0,0,0,7.1-7.75a1.719,1.719,0,0,0-.457-1.266,1.9,1.9,0,0,0-1.4-.461H3.359ZM18.07-4.93h-4.5v3.047h5.281V0H11.227V-11.375h7.609v1.9H13.57v2.711h4.5ZM29.156-3.789A4.025,4.025,0,0,1,27.8-.9,4.76,4.76,0,0,1,24.578.156a4.28,4.28,0,0,1-3.441-1.473,6.038,6.038,0,0,1-1.254-4.043v-.7a6.819,6.819,0,0,1,.578-2.891,4.332,4.332,0,0,1,1.652-1.918,4.629,4.629,0,0,1,2.5-.668,4.637,4.637,0,0,1,3.172,1.055,4.326,4.326,0,0,1,1.391,2.961H26.828a2.376,2.376,0,0,0-.613-1.6,2.271,2.271,0,0,0-1.605-.5,1.991,1.991,0,0,0-1.754.84,4.707,4.707,0,0,0-.6,2.605V-5.3a5.038,5.038,0,0,0,.559,2.7,1.954,1.954,0,0,0,1.762.852,2.314,2.314,0,0,0,1.621-.5,2.241,2.241,0,0,0,.613-1.535ZM33.188,0H30.844V-11.375h2.344Zm2.172,0V-11.375h3.984a5.232,5.232,0,0,1,3.141.793,2.712,2.712,0,0,1,1.07,2.324,2.57,2.57,0,0,1-.43,1.473,2.482,2.482,0,0,1-1.2.934,2.4,2.4,0,0,1,1.379.883,2.61,2.61,0,0,1,.5,1.625A3,3,0,0,1,42.766-.859,4.713,4.713,0,0,1,39.781,0ZM37.7-4.953v3.07h2.008A1.938,1.938,0,0,0,41-2.277a1.353,1.353,0,0,0,.465-1.09,1.428,1.428,0,0,0-1.617-1.586Zm0-1.656h1.734q1.773-.031,1.773-1.414a1.307,1.307,0,0,0-.449-1.113,2.363,2.363,0,0,0-1.418-.34H37.7ZM48.063,0H45.719V-11.375h2.344Zm2.172,0V-11.375h3.5a5.315,5.315,0,0,1,2.684.676,4.712,4.712,0,0,1,1.848,1.922,5.928,5.928,0,0,1,.664,2.832v.523a5.945,5.945,0,0,1-.652,2.82,4.672,4.672,0,0,1-1.84,1.914A5.355,5.355,0,0,1,53.758,0Zm2.344-9.477v7.594h1.133a2.545,2.545,0,0,0,2.1-.9,4.06,4.06,0,0,0,.742-2.57v-.6a4.124,4.124,0,0,0-.719-2.629,2.537,2.537,0,0,0-2.1-.895Zm17.4,4.047a6.867,6.867,0,0,1-.594,2.945,4.472,4.472,0,0,1-1.7,1.953,4.7,4.7,0,0,1-2.535.688,4.732,4.732,0,0,1-2.523-.68,4.515,4.515,0,0,1-1.719-1.941,6.67,6.67,0,0,1-.617-2.9V-5.93a6.831,6.831,0,0,1,.605-2.957,4.508,4.508,0,0,1,1.711-1.961,4.706,4.706,0,0,1,2.527-.684,4.706,4.706,0,0,1,2.527.684,4.508,4.508,0,0,1,1.711,1.961,6.811,6.811,0,0,1,.605,2.949ZM67.6-5.945a4.787,4.787,0,0,0-.641-2.719,2.088,2.088,0,0,0-1.828-.93,2.088,2.088,0,0,0-1.82.918,4.732,4.732,0,0,0-.648,2.691v.555a4.847,4.847,0,0,0,.641,2.7,2.082,2.082,0,0,0,1.844.961,2.064,2.064,0,0,0,1.813-.926,4.819,4.819,0,0,0,.641-2.7Z" transform="translate(-6176.982 -8929.708)" fill="#12263f"/>
    <path id="Trazado_1054878" data-name="Trazado 1054878" d="M4.578-4.562,3.359-3.25V0H1.016V-11.375H3.359v5.156L4.391-7.633l2.9-3.742h2.883L6.133-6.32,10.289,0H7.5ZM17.594-2.344H13.484L12.7,0H10.211l4.234-11.375h2.172L20.875,0H18.383Zm-3.477-1.9h2.844L15.531-8.5Zm12.031.078H24.281V0H21.938V-11.375h4.227a4.778,4.778,0,0,1,3.109.9,3.1,3.1,0,0,1,1.094,2.539A3.5,3.5,0,0,1,29.863-6a3.437,3.437,0,0,1-1.527,1.238L30.8-.109V0H28.281Zm-1.867-1.9h1.891a1.936,1.936,0,0,0,1.367-.449,1.606,1.606,0,0,0,.484-1.238,1.719,1.719,0,0,0-.457-1.266,1.9,1.9,0,0,0-1.4-.461H24.281ZM32.148,0V-11.375h3.5a5.315,5.315,0,0,1,2.684.676A4.712,4.712,0,0,1,40.18-8.777a5.928,5.928,0,0,1,.664,2.832v.523a5.945,5.945,0,0,1-.652,2.82,4.672,4.672,0,0,1-1.84,1.914A5.355,5.355,0,0,1,35.672,0Zm2.344-9.477v7.594h1.133a2.545,2.545,0,0,0,2.1-.9,4.06,4.06,0,0,0,.742-2.57v-.6a4.124,4.124,0,0,0-.719-2.629,2.537,2.537,0,0,0-2.1-.895Zm14.9,4.547h-4.5v3.047h5.281V0H42.547V-11.375h7.609v1.9H44.891v2.711h4.5Zm6.227-2.523,2.133-3.922h2.7L57.133-5.734,60.531,0H57.8L55.617-3.984,53.43,0H50.7l3.4-5.734-3.312-5.641h2.7Z" transform="translate(-6345.982 -8928.708)" fill="#12263f"/>
    <path id="Trazado_1054879" data-name="Trazado 1054879" d="M7.859-4.93h-4.5v3.047H8.641V0H1.016V-11.375H8.625v1.9H3.359v2.711h4.5ZM19.266,0H16.922L12.359-7.484V0H10.016V-11.375h2.344l4.57,7.5v-7.5h2.336ZM29.875-9.477H26.391V0H24.047V-9.477H20.609v-1.9h9.266Zm5.547,5.313H33.555V0H31.211V-11.375h4.227a4.778,4.778,0,0,1,3.109.9,3.1,3.1,0,0,1,1.094,2.539A3.5,3.5,0,0,1,39.137-6a3.437,3.437,0,0,1-1.527,1.238L40.07-.109V0H37.555Zm-1.867-1.9h1.891a1.936,1.936,0,0,0,1.367-.449A1.606,1.606,0,0,0,37.3-7.75a1.719,1.719,0,0,0-.457-1.266,1.9,1.9,0,0,0-1.4-.461H33.555ZM48.266-4.93h-4.5v3.047h5.281V0H41.422V-11.375h7.609v1.9H43.766v2.711h4.5ZM59.422-1.437A4.068,4.068,0,0,1,57.633-.262,7.492,7.492,0,0,1,55.07.156a5.076,5.076,0,0,1-2.59-.645,4.3,4.3,0,0,1-1.719-1.871,6.585,6.585,0,0,1-.621-2.883v-.773a6.994,6.994,0,0,1,.574-2.949,4.248,4.248,0,0,1,1.656-1.906,4.771,4.771,0,0,1,2.535-.66,4.751,4.751,0,0,1,3.164.965,4.123,4.123,0,0,1,1.352,2.809H57.141a2.268,2.268,0,0,0-.691-1.43,2.208,2.208,0,0,0-1.473-.453,2.078,2.078,0,0,0-1.82.9,4.724,4.724,0,0,0-.633,2.672v.727a4.5,4.5,0,0,0,.68,2.7,2.327,2.327,0,0,0,1.992.914,2.6,2.6,0,0,0,1.883-.562V-4.25H54.945V-5.977h4.477Zm8.32-.906H63.633L62.852,0H60.359l4.234-11.375h2.172L71.023,0H68.531Zm-3.477-1.9h2.844L65.68-8.5ZM72.086,0V-11.375h3.5a5.315,5.315,0,0,1,2.684.676,4.712,4.712,0,0,1,1.848,1.922,5.928,5.928,0,0,1,.664,2.832v.523a5.945,5.945,0,0,1-.652,2.82,4.672,4.672,0,0,1-1.84,1.914A5.355,5.355,0,0,1,75.609,0ZM74.43-9.477v7.594h1.133a2.545,2.545,0,0,0,2.1-.9,4.06,4.06,0,0,0,.742-2.57v-.6a4.124,4.124,0,0,0-.719-2.629,2.537,2.537,0,0,0-2.1-.895Zm17.4,4.047a6.867,6.867,0,0,1-.594,2.945,4.472,4.472,0,0,1-1.7,1.953A4.7,4.7,0,0,1,87,.156a4.732,4.732,0,0,1-2.523-.68,4.515,4.515,0,0,1-1.719-1.941,6.67,6.67,0,0,1-.617-2.9V-5.93a6.831,6.831,0,0,1,.605-2.957,4.508,4.508,0,0,1,1.711-1.961,4.706,4.706,0,0,1,2.527-.684,4.706,4.706,0,0,1,2.527.684,4.508,4.508,0,0,1,1.711,1.961,6.811,6.811,0,0,1,.605,2.949Zm-2.375-.516a4.787,4.787,0,0,0-.641-2.719,2.088,2.088,0,0,0-1.828-.93,2.088,2.088,0,0,0-1.82.918,4.732,4.732,0,0,0-.648,2.691v.555a4.847,4.847,0,0,0,.641,2.7A2.082,2.082,0,0,0,87-1.766a2.064,2.064,0,0,0,1.813-.926,4.819,4.819,0,0,0,.641-2.7Z" transform="translate(-6505.982 -8928.708)" fill="#12263f"/>
    <path id="Trazado_1054880" data-name="Trazado 1054880" d="M6.914-2.984A1.2,1.2,0,0,0,6.445-4a6.148,6.148,0,0,0-1.687-.75,11.963,11.963,0,0,1-1.93-.777A3.153,3.153,0,0,1,.891-8.352,2.747,2.747,0,0,1,1.41-10,3.389,3.389,0,0,1,2.9-11.125a5.616,5.616,0,0,1,2.184-.406,5.112,5.112,0,0,1,2.172.441,3.458,3.458,0,0,1,1.48,1.246,3.261,3.261,0,0,1,.527,1.828H6.922A1.534,1.534,0,0,0,6.43-9.23a2.023,2.023,0,0,0-1.383-.434A2.162,2.162,0,0,0,3.711-9.3a1.146,1.146,0,0,0-.477.957,1.1,1.1,0,0,0,.559.93,6.311,6.311,0,0,0,1.645.7A7.106,7.106,0,0,1,8.352-5.219,2.972,2.972,0,0,1,9.266-3,2.737,2.737,0,0,1,8.148-.684a4.891,4.891,0,0,1-3.008.84A5.808,5.808,0,0,1,2.75-.324,3.783,3.783,0,0,1,1.105-1.641,3.371,3.371,0,0,1,.539-3.578H2.891q0,1.883,2.25,1.883a2.189,2.189,0,0,0,1.3-.34A1.106,1.106,0,0,0,6.914-2.984ZM20.2-5.43A6.867,6.867,0,0,1,19.6-2.484,4.472,4.472,0,0,1,17.9-.531a4.7,4.7,0,0,1-2.535.688,4.732,4.732,0,0,1-2.523-.68,4.515,4.515,0,0,1-1.719-1.941,6.67,6.67,0,0,1-.617-2.9V-5.93a6.831,6.831,0,0,1,.605-2.957,4.508,4.508,0,0,1,1.711-1.961,4.706,4.706,0,0,1,2.527-.684,4.706,4.706,0,0,1,2.527.684A4.508,4.508,0,0,1,19.59-8.887,6.811,6.811,0,0,1,20.2-5.937ZM17.82-5.945a4.787,4.787,0,0,0-.641-2.719,2.088,2.088,0,0,0-1.828-.93,2.088,2.088,0,0,0-1.82.918,4.732,4.732,0,0,0-.648,2.691v.555a4.847,4.847,0,0,0,.641,2.7,2.082,2.082,0,0,0,1.844.961,2.064,2.064,0,0,0,1.813-.926,4.819,4.819,0,0,0,.641-2.7Zm6.422,4.063h4.977V0H21.9V-11.375h2.344ZM33.055,0H30.711V-11.375h2.344Zm11.1-3.789A4.025,4.025,0,0,1,42.8-.9,4.76,4.76,0,0,1,39.578.156a4.28,4.28,0,0,1-3.441-1.473,6.038,6.038,0,0,1-1.254-4.043v-.7a6.819,6.819,0,0,1,.578-2.891,4.332,4.332,0,0,1,1.652-1.918,4.629,4.629,0,0,1,2.5-.668,4.637,4.637,0,0,1,3.172,1.055,4.326,4.326,0,0,1,1.391,2.961H41.828a2.376,2.376,0,0,0-.613-1.6,2.271,2.271,0,0,0-1.605-.5,1.991,1.991,0,0,0-1.754.84,4.707,4.707,0,0,0-.6,2.605V-5.3a5.038,5.038,0,0,0,.559,2.7,1.954,1.954,0,0,0,1.762.852,2.314,2.314,0,0,0,1.621-.5,2.241,2.241,0,0,0,.613-1.535ZM48.188,0H45.844V-11.375h2.344ZM58.922-9.477H55.438V0H53.094V-9.477H49.656v-1.9h9.266ZM69.383-5.43a6.867,6.867,0,0,1-.594,2.945,4.472,4.472,0,0,1-1.7,1.953,4.7,4.7,0,0,1-2.535.688,4.732,4.732,0,0,1-2.523-.68,4.515,4.515,0,0,1-1.719-1.941,6.67,6.67,0,0,1-.617-2.9V-5.93A6.831,6.831,0,0,1,60.3-8.887a4.508,4.508,0,0,1,1.711-1.961,4.706,4.706,0,0,1,2.527-.684,4.706,4.706,0,0,1,2.527.684,4.508,4.508,0,0,1,1.711,1.961,6.811,6.811,0,0,1,.605,2.949Zm-2.375-.516a4.787,4.787,0,0,0-.641-2.719,2.088,2.088,0,0,0-1.828-.93,2.088,2.088,0,0,0-1.82.918,4.732,4.732,0,0,0-.648,2.691v.555a4.847,4.847,0,0,0,.641,2.7,2.082,2.082,0,0,0,1.844.961,2.064,2.064,0,0,0,1.813-.926,4.819,4.819,0,0,0,.641-2.7Z" transform="translate(-7011.982 -8929.708)" fill="#12263f"/>
    <path id="Trazado_1034067" data-name="Trazado 1034067" d="M0,0V423.075" transform="translate(-6868.982 -9337.707)" fill="none" stroke="#d6d6d6" stroke-linecap="round" stroke-width="1"/>
    <g id="Grupo_1178870" data-name="Grupo 1178870" transform="translate(-7037.033 -9378.161)">
      <path id="Trazado_1034068" data-name="Trazado 1034068" d="M0,0H1153.368V68.858H0Z" transform="translate(-0.431 172.595)" fill="#e8e8e8"/>
      <text id="ORDEN_PRODUCIÓN" data-name="ORDEN 
PRODUCIÓN" transform="translate(84.051 201.453)" fill="#12263f" font-size="16" font-family="Roboto-Black, Roboto" font-weight="800"><tspan x="-28" y="0">ORDEN </tspan><tspan x="-45.242" y="24">PRODUCIÓN</tspan></text>
      <text id="CÓDIGO_MATERIA_PRIMA" data-name="CÓDIGO MATERIA
PRIMA" transform="translate(253.051 202.453)" fill="#12263f" font-size="16" font-family="Roboto-Black, Roboto" font-weight="800"><tspan x="-65.922" y="0">CÓDIGO MATERIA</tspan><tspan x="-25.301" y="24">PRIMA</tspan></text>
      <text id="DESCRIPCIÓN" transform="translate(422.051 213.453)" fill="#12263f" font-size="16" font-family="Roboto-Black, Roboto" font-weight="800"><tspan x="-51.551" y="0">DESCRIPCIÓN</tspan></text>
      <text id="UNIDAD_MEDIDA" data-name="UNIDAD MEDIDA" transform="translate(594.051 211.453)" fill="#12263f" font-size="16" font-family="Roboto-Black, Roboto" font-weight="800"><tspan x="-60.828" y="0">UNIDAD MEDIDA</tspan></text>
      <text id="CANTIDAD" transform="translate(757.051 212.954)" fill="#12263f" font-size="16" font-family="Roboto-Black, Roboto" font-weight="800"><tspan x="-39.566" y="0">CANTIDAD</tspan></text>
      <text id="VALOR_UNITARIO" data-name="VALOR 
UNITARIO" transform="translate(922.051 199.453)" fill="#12263f" font-size="16" font-family="Roboto-Black, Roboto" font-weight="800"><tspan x="-27.262" y="0">VALOR </tspan><tspan x="-36.527" y="24">UNITARIO</tspan></text>
      <text id="VALOR_TOTAL" data-name="VALOR TOTAL" transform="translate(1082.051 213.453)" fill="#12263f" font-size="16" font-family="Roboto-Black, Roboto" font-weight="800"><tspan x="-51.512" y="0">VALOR TOTAL</tspan></text>
    </g>
    <g id="Grupo_1178827" data-name="Grupo 1178827" transform="translate(-6992.981 -9372.898)">
      <text id="EMPRESA_FECHA" data-name="EMPRESA
FECHA" transform="translate(-19 62)" fill="#12263f" font-size="16" font-family="Roboto-Bold, Roboto" font-weight="700"><tspan x="0" y="0">EMPRESA</tspan><tspan x="0" y="46">FECHA</tspan></text>
    </g>
    <path id="Trazado_1034054" data-name="Trazado 1034054" d="M-149.369-10636H1003.567" transform="translate(-6887.665 1339.479)" fill="none" stroke="#d6d6d6" stroke-width="1"/>
    <path id="Trazado_1034075" data-name="Trazado 1034075" d="M-149.369-10636H1003.567" transform="translate(-6887.614 1386.435)" fill="none" stroke="#d6d6d6" stroke-width="1"/>
    <path id="Trazado_1034072" data-name="Trazado 1034072" d="M0,0V422.421" transform="translate(-6528.982 -9337.053)" fill="none" stroke="#d6d6d6" stroke-linecap="round" stroke-width="1"/>
    <g id="Trazado_1054872" data-name="Trazado 1054872" transform="translate(-6528.982 -9296.708)" fill="#e8e8e8">
      <path d="M 163.75 46.75 L 0.25 46.75 L 0.25 0.25 L 163.75 0.25 L 163.75 46.75 Z" stroke="none"/>
      <path d="M 0.5 0.5 L 0.5 46.5 L 163.5 46.5 L 163.5 0.5 L 0.5 0.5 M 0 0 L 164 0 L 164 47 L 0 47 L 0 0 Z" stroke="none" fill="#d6d6d6"/>
    </g>
    <g id="Trazado_1054868" data-name="Trazado 1054868" transform="translate(-6364.982 -9338.708)" fill="#e8e8e8">
      <path d="M 329.75 41.75 L 0.25 41.75 L 0.25 0.25 L 329.75 0.25 L 329.75 41.75 Z" stroke="none"/>
      <path d="M 0.5 0.5 L 0.5 41.5 L 329.5 41.5 L 329.5 0.5 L 0.5 0.5 M 0 0 L 330 0 L 330 42 L 0 42 L 0 0 Z" stroke="none" fill="#d6d6d6"/>
    </g>
    <path id="Trazado_1054875" data-name="Trazado 1054875" d="M1.016,0V-11.375h3.5A5.315,5.315,0,0,1,7.2-10.7,4.712,4.712,0,0,1,9.047-8.777a5.928,5.928,0,0,1,.664,2.832v.523A5.945,5.945,0,0,1,9.059-2.6,4.672,4.672,0,0,1,7.219-.687,5.355,5.355,0,0,1,4.539,0ZM3.359-9.477v7.594H4.492a2.545,2.545,0,0,0,2.1-.9,4.06,4.06,0,0,0,.742-2.57v-.6a4.124,4.124,0,0,0-.719-2.629,2.537,2.537,0,0,0-2.1-.895Zm14.9,4.547h-4.5v3.047h5.281V0H11.414V-11.375h7.609v1.9H13.758v2.711h4.5Zm4.5.922V0H20.414V-11.375h4.438a5.134,5.134,0,0,1,2.254.469,3.454,3.454,0,0,1,1.5,1.332,3.714,3.714,0,0,1,.523,1.965A3.266,3.266,0,0,1,27.98-4.973a4.767,4.767,0,0,1-3.168.965Zm0-1.9h2.094a2.059,2.059,0,0,0,1.418-.437,1.591,1.591,0,0,0,.488-1.25,1.876,1.876,0,0,0-.492-1.352,1.839,1.839,0,0,0-1.359-.531H22.758ZM35.766-2.344H31.656L30.875,0H28.383l4.234-11.375h2.172L39.047,0H36.555Zm-3.477-1.9h2.844L33.7-8.5Zm12.031.078H42.453V0H40.109V-11.375h4.227a4.778,4.778,0,0,1,3.109.9,3.1,3.1,0,0,1,1.094,2.539A3.5,3.5,0,0,1,48.035-6a3.437,3.437,0,0,1-1.527,1.238L48.969-.109V0H46.453Zm-1.867-1.9h1.891a1.936,1.936,0,0,0,1.367-.449A1.606,1.606,0,0,0,46.2-7.75a1.719,1.719,0,0,0-.457-1.266,1.9,1.9,0,0,0-1.4-.461H42.453ZM58.492-9.477H55.008V0H52.664V-9.477H49.227v-1.9h9.266Zm6.82,7.133H61.2L60.422,0H57.93l4.234-11.375h2.172L68.594,0H66.1Zm-3.477-1.9H64.68L63.25-8.5Zm10.883-7.133,2.922,8.25,2.906-8.25h3.078V0H79.273V-3.109l.234-5.367L76.438,0H74.828L71.766-8.469,72-3.109V0H69.656V-11.375Zm17.8,6.445h-4.5v3.047H91.3V0H83.672V-11.375h7.609v1.9H86.016v2.711h4.5ZM101.922,0H99.578L95.016-7.484V0H92.672V-11.375h2.344l4.57,7.5v-7.5h2.336Zm10.609-9.477h-3.484V0H106.7V-9.477h-3.437v-1.9h9.266ZM122.992-5.43a6.867,6.867,0,0,1-.594,2.945,4.472,4.472,0,0,1-1.7,1.953,4.7,4.7,0,0,1-2.535.688,4.732,4.732,0,0,1-2.523-.68,4.515,4.515,0,0,1-1.719-1.941,6.67,6.67,0,0,1-.617-2.9V-5.93a6.831,6.831,0,0,1,.605-2.957,4.508,4.508,0,0,1,1.711-1.961,4.706,4.706,0,0,1,2.527-.684,4.706,4.706,0,0,1,2.527.684,4.508,4.508,0,0,1,1.711,1.961,6.811,6.811,0,0,1,.605,2.949Zm-2.375-.516a4.787,4.787,0,0,0-.641-2.719,2.088,2.088,0,0,0-1.828-.93,2.088,2.088,0,0,0-1.82.918,4.732,4.732,0,0,0-.648,2.691v.555a4.847,4.847,0,0,0,.641,2.7,2.082,2.082,0,0,0,1.844.961,2.064,2.064,0,0,0,1.813-.926,4.819,4.819,0,0,0,.641-2.7Z" transform="translate(-6505.982 -9264.708)" fill="#12263f"/>
    <path id="Trazado_1054869" data-name="Trazado 1054869" d="M10.359-5.43a6.867,6.867,0,0,1-.594,2.945,4.472,4.472,0,0,1-1.7,1.953A4.7,4.7,0,0,1,5.531.156a4.732,4.732,0,0,1-2.523-.68A4.515,4.515,0,0,1,1.289-2.465a6.67,6.67,0,0,1-.617-2.9V-5.93a6.831,6.831,0,0,1,.605-2.957,4.508,4.508,0,0,1,1.711-1.961,4.706,4.706,0,0,1,2.527-.684,4.706,4.706,0,0,1,2.527.684A4.508,4.508,0,0,1,9.754-8.887a6.811,6.811,0,0,1,.605,2.949ZM7.984-5.945a4.787,4.787,0,0,0-.641-2.719,2.088,2.088,0,0,0-1.828-.93,2.088,2.088,0,0,0-1.82.918,4.732,4.732,0,0,0-.648,2.691v.555a4.847,4.847,0,0,0,.641,2.7,2.082,2.082,0,0,0,1.844.961,2.064,2.064,0,0,0,1.813-.926,4.819,4.819,0,0,0,.641-2.7Zm8.289,1.781H14.406V0H12.063V-11.375h4.227a4.778,4.778,0,0,1,3.109.9,3.1,3.1,0,0,1,1.094,2.539A3.5,3.5,0,0,1,19.988-6a3.437,3.437,0,0,1-1.527,1.238L20.922-.109V0H18.406Zm-1.867-1.9H16.3a1.936,1.936,0,0,0,1.367-.449,1.606,1.606,0,0,0,.484-1.238,1.719,1.719,0,0,0-.457-1.266,1.9,1.9,0,0,0-1.4-.461H14.406ZM22.273,0V-11.375h3.5a5.315,5.315,0,0,1,2.684.676A4.712,4.712,0,0,1,30.3-8.777a5.928,5.928,0,0,1,.664,2.832v.523a5.945,5.945,0,0,1-.652,2.82,4.672,4.672,0,0,1-1.84,1.914A5.355,5.355,0,0,1,25.8,0Zm2.344-9.477v7.594H25.75a2.545,2.545,0,0,0,2.1-.9,4.06,4.06,0,0,0,.742-2.57v-.6a4.124,4.124,0,0,0-.719-2.629,2.537,2.537,0,0,0-2.1-.895Zm14.9,4.547h-4.5v3.047H40.3V0H32.672V-11.375h7.609v1.9H35.016v2.711h4.5ZM45.656,0V-11.375h3.5a5.315,5.315,0,0,1,2.684.676,4.712,4.712,0,0,1,1.848,1.922,5.928,5.928,0,0,1,.664,2.832v.523A5.945,5.945,0,0,1,53.7-2.6a4.672,4.672,0,0,1-1.84,1.914A5.355,5.355,0,0,1,49.18,0ZM48-9.477v7.594h1.133a2.545,2.545,0,0,0,2.1-.9,4.06,4.06,0,0,0,.742-2.57v-.6a4.124,4.124,0,0,0-.719-2.629,2.537,2.537,0,0,0-2.1-.895ZM62.9-4.93H58.4v3.047H63.68V0H56.055V-11.375h7.609v1.9H58.4v2.711h4.5Zm8.484.922V0H69.039V-11.375h4.438a5.134,5.134,0,0,1,2.254.469,3.454,3.454,0,0,1,1.5,1.332,3.714,3.714,0,0,1,.523,1.965,3.266,3.266,0,0,1-1.145,2.637,4.767,4.767,0,0,1-3.168.965Zm0-1.9h2.094a2.059,2.059,0,0,0,1.418-.437,1.591,1.591,0,0,0,.488-1.25,1.876,1.876,0,0,0-.492-1.352,1.839,1.839,0,0,0-1.359-.531H71.383ZM83.57-4.164H81.7V0H79.359V-11.375h4.227a4.778,4.778,0,0,1,3.109.9,3.1,3.1,0,0,1,1.094,2.539A3.5,3.5,0,0,1,87.285-6a3.437,3.437,0,0,1-1.527,1.238L88.219-.109V0H85.7ZM81.7-6.062h1.891a1.936,1.936,0,0,0,1.367-.449,1.606,1.606,0,0,0,.484-1.238,1.719,1.719,0,0,0-.457-1.266,1.9,1.9,0,0,0-1.4-.461H81.7Zm17.211.633a6.867,6.867,0,0,1-.594,2.945,4.472,4.472,0,0,1-1.7,1.953,4.7,4.7,0,0,1-2.535.688,4.732,4.732,0,0,1-2.523-.68,4.515,4.515,0,0,1-1.719-1.941,6.67,6.67,0,0,1-.617-2.9V-5.93a6.831,6.831,0,0,1,.605-2.957,4.508,4.508,0,0,1,1.711-1.961,4.706,4.706,0,0,1,2.527-.684,4.706,4.706,0,0,1,2.527.684,4.508,4.508,0,0,1,1.711,1.961,6.811,6.811,0,0,1,.605,2.949Zm-2.375-.516A4.787,4.787,0,0,0,95.9-8.664a2.088,2.088,0,0,0-1.828-.93,2.088,2.088,0,0,0-1.82.918A4.732,4.732,0,0,0,91.6-5.984v.555a4.847,4.847,0,0,0,.641,2.7,2.082,2.082,0,0,0,1.844.961A2.064,2.064,0,0,0,95.9-2.691a4.819,4.819,0,0,0,.641-2.7ZM100.617,0V-11.375h3.5a5.315,5.315,0,0,1,2.684.676,4.712,4.712,0,0,1,1.848,1.922,5.928,5.928,0,0,1,.664,2.832v.523a5.945,5.945,0,0,1-.652,2.82,4.672,4.672,0,0,1-1.84,1.914,5.355,5.355,0,0,1-2.68.688Zm2.344-9.477v7.594h1.133a2.545,2.545,0,0,0,2.1-.9,4.06,4.06,0,0,0,.742-2.57v-.6a4.124,4.124,0,0,0-.719-2.629,2.537,2.537,0,0,0-2.1-.895Zm16.664-1.9v7.492A3.836,3.836,0,0,1,118.457-.93,4.5,4.5,0,0,1,115.266.156,4.553,4.553,0,0,1,112.1-.9a3.77,3.77,0,0,1-1.2-2.9v-7.578h2.344v7.508a2.167,2.167,0,0,0,.535,1.629,2.054,2.054,0,0,0,1.48.512q1.977,0,2.008-2.078v-7.57Zm10.852,7.586A4.025,4.025,0,0,1,129.121-.9,4.76,4.76,0,0,1,125.9.156a4.28,4.28,0,0,1-3.441-1.473A6.038,6.038,0,0,1,121.2-5.359v-.7a6.819,6.819,0,0,1,.578-2.891,4.332,4.332,0,0,1,1.652-1.918,4.629,4.629,0,0,1,2.5-.668,4.637,4.637,0,0,1,3.172,1.055,4.326,4.326,0,0,1,1.391,2.961h-2.344a2.376,2.376,0,0,0-.613-1.6,2.271,2.271,0,0,0-1.605-.5,1.991,1.991,0,0,0-1.754.84,4.707,4.707,0,0,0-.6,2.605V-5.3a5.038,5.038,0,0,0,.559,2.7,1.954,1.954,0,0,0,1.762.852,2.314,2.314,0,0,0,1.621-.5,2.241,2.241,0,0,0,.613-1.535Zm10.469,0A4.025,4.025,0,0,1,139.59-.9,4.76,4.76,0,0,1,136.367.156a4.281,4.281,0,0,1-3.441-1.473,6.038,6.038,0,0,1-1.254-4.043v-.7a6.819,6.819,0,0,1,.578-2.891,4.332,4.332,0,0,1,1.652-1.918,4.629,4.629,0,0,1,2.5-.668,4.637,4.637,0,0,1,3.172,1.055,4.326,4.326,0,0,1,1.391,2.961h-2.344a2.376,2.376,0,0,0-.613-1.6,2.271,2.271,0,0,0-1.605-.5,1.991,1.991,0,0,0-1.754.84,4.707,4.707,0,0,0-.6,2.605V-5.3a5.038,5.038,0,0,0,.559,2.7,1.954,1.954,0,0,0,1.762.852,2.314,2.314,0,0,0,1.621-.5,2.241,2.241,0,0,0,.613-1.535ZM144.977,0h-2.344V-11.375h2.344Zm11.516-5.43a6.867,6.867,0,0,1-.594,2.945,4.471,4.471,0,0,1-1.7,1.953,4.7,4.7,0,0,1-2.535.688,4.732,4.732,0,0,1-2.523-.68,4.515,4.515,0,0,1-1.719-1.941,6.67,6.67,0,0,1-.617-2.9V-5.93a6.831,6.831,0,0,1,.605-2.957,4.508,4.508,0,0,1,1.711-1.961,4.706,4.706,0,0,1,2.527-.684,4.706,4.706,0,0,1,2.527.684,4.508,4.508,0,0,1,1.711,1.961,6.811,6.811,0,0,1,.605,2.949Zm-2.375-.516a4.787,4.787,0,0,0-.641-2.719,2.088,2.088,0,0,0-1.828-.93,2.088,2.088,0,0,0-1.82.918,4.732,4.732,0,0,0-.648,2.691v.555a4.847,4.847,0,0,0,.641,2.7,2.082,2.082,0,0,0,1.844.961,2.064,2.064,0,0,0,1.813-.926,4.819,4.819,0,0,0,.641-2.7ZM152.1-14.422h2.461L152.4-12h-1.836ZM167.445,0H165.1l-4.562-7.484V0H158.2V-11.375h2.344l4.57,7.5v-7.5h2.336Z" transform="translate(-6280.982 -9310.708)" fill="#12263f"/>
    <path id="Trazado_1034108" data-name="Trazado 1034108" d="M0,0V420.69" transform="translate(-6698.982 -9337.898)" fill="none" stroke="#d6d6d6" stroke-linecap="round" stroke-width="1"/>
  </g>
</svg>
