<svg xmlns="http://www.w3.org/2000/svg" width="1153.012" height="438.954" viewBox="0 0 1153.012 438.954">
  <g id="Grupo_1181007" data-name="Grupo 1181007" transform="translate(7036.11 8538.846)">
    <path id="Trazado_1054903" data-name="Trazado 1054903" d="M5.7,0H4.242V-9.633L1.328-8.562V-9.875L5.469-11.43H5.7ZM17.063-4.852A6.61,6.61,0,0,1,16.2-1.078,3.084,3.084,0,0,1,13.484.156a3.107,3.107,0,0,1-2.7-1.207,6.274,6.274,0,0,1-.906-3.605v-1.93a6.463,6.463,0,0,1,.867-3.727,3.108,3.108,0,0,1,2.719-1.219,3.136,3.136,0,0,1,2.7,1.176,6.237,6.237,0,0,1,.891,3.629ZM15.617-6.828A5.3,5.3,0,0,0,15.1-9.5a1.775,1.775,0,0,0-1.633-.84,1.751,1.751,0,0,0-1.617.836,5.171,5.171,0,0,0-.523,2.57v2.313A5.381,5.381,0,0,0,11.863-1.9a1.771,1.771,0,0,0,1.621.879,1.747,1.747,0,0,0,1.59-.828,5.186,5.186,0,0,0,.543-2.609Zm10.43,1.977a6.61,6.61,0,0,1-.867,3.773A3.084,3.084,0,0,1,22.469.156a3.107,3.107,0,0,1-2.7-1.207,6.274,6.274,0,0,1-.906-3.605v-1.93a6.463,6.463,0,0,1,.867-3.727,3.108,3.108,0,0,1,2.719-1.219,3.136,3.136,0,0,1,2.7,1.176,6.237,6.237,0,0,1,.891,3.629ZM24.6-6.828A5.3,5.3,0,0,0,24.086-9.5a1.775,1.775,0,0,0-1.633-.84,1.751,1.751,0,0,0-1.617.836,5.171,5.171,0,0,0-.523,2.57v2.313A5.381,5.381,0,0,0,20.848-1.9a1.771,1.771,0,0,0,1.621.879,1.747,1.747,0,0,0,1.59-.828A5.186,5.186,0,0,0,24.6-4.461ZM32.648,0H31.2V-9.633l-2.914,1.07V-9.875l4.141-1.555h.227Z" transform="translate(-5992.981 -8466.846)" fill="#12263f"/>
    <path id="Trazado_1054895" data-name="Trazado 1054895" d="M11.734,11.57a6.867,6.867,0,0,1-.594,2.945,4.472,4.472,0,0,1-1.7,1.953,4.7,4.7,0,0,1-2.535.688,4.732,4.732,0,0,1-2.523-.68,4.515,4.515,0,0,1-1.719-1.941,6.67,6.67,0,0,1-.617-2.9V11.07a6.831,6.831,0,0,1,.605-2.957A4.508,4.508,0,0,1,4.363,6.152a4.706,4.706,0,0,1,2.527-.684,4.706,4.706,0,0,1,2.527.684,4.508,4.508,0,0,1,1.711,1.961,6.811,6.811,0,0,1,.605,2.949Zm-2.375-.516a4.787,4.787,0,0,0-.641-2.719,2.088,2.088,0,0,0-1.828-.93,2.088,2.088,0,0,0-1.82.918,4.732,4.732,0,0,0-.648,2.691v.555a4.847,4.847,0,0,0,.641,2.7,2.082,2.082,0,0,0,1.844.961,2.064,2.064,0,0,0,1.813-.926,4.819,4.819,0,0,0,.641-2.7Zm8.289,1.781H15.781V17H13.438V5.625h4.227a4.778,4.778,0,0,1,3.109.9,3.1,3.1,0,0,1,1.094,2.539,3.5,3.5,0,0,1-.5,1.941,3.437,3.437,0,0,1-1.527,1.238L22.3,16.891V17H19.781Zm-1.867-1.9h1.891a1.936,1.936,0,0,0,1.367-.449,1.606,1.606,0,0,0,.484-1.238,1.719,1.719,0,0,0-.457-1.266,1.9,1.9,0,0,0-1.4-.461H15.781ZM23.648,17V5.625h3.5a5.315,5.315,0,0,1,2.684.676A4.712,4.712,0,0,1,31.68,8.223a5.928,5.928,0,0,1,.664,2.832v.523a5.945,5.945,0,0,1-.652,2.82,4.672,4.672,0,0,1-1.84,1.914,5.355,5.355,0,0,1-2.68.688Zm2.344-9.477v7.594h1.133a2.545,2.545,0,0,0,2.1-.9,4.06,4.06,0,0,0,.742-2.57v-.6a4.124,4.124,0,0,0-.719-2.629,2.537,2.537,0,0,0-2.1-.895Zm14.9,4.547h-4.5v3.047h5.281V17H34.047V5.625h7.609v1.9H36.391v2.711h4.5ZM52.3,17H49.953L45.391,9.516V17H43.047V5.625h2.344l4.57,7.5v-7.5H52.3Zm6.031,0V5.625h3.5a5.315,5.315,0,0,1,2.684.676,4.712,4.712,0,0,1,1.848,1.922,5.928,5.928,0,0,1,.664,2.832v.523a5.945,5.945,0,0,1-.652,2.82,4.672,4.672,0,0,1-1.84,1.914,5.355,5.355,0,0,1-2.68.688Zm2.344-9.477v7.594H61.8a2.545,2.545,0,0,0,2.1-.9,4.06,4.06,0,0,0,.742-2.57v-.6a4.124,4.124,0,0,0-.719-2.629,2.537,2.537,0,0,0-2.1-.895Zm14.9,4.547h-4.5v3.047h5.281V17H68.727V5.625h7.609v1.9H71.07v2.711h4.5Zm8.484.922V17H81.711V5.625h4.438a5.134,5.134,0,0,1,2.254.469,3.454,3.454,0,0,1,1.5,1.332,3.714,3.714,0,0,1,.523,1.965,3.266,3.266,0,0,1-1.145,2.637,4.767,4.767,0,0,1-3.168.965Zm0-1.9h2.094a2.059,2.059,0,0,0,1.418-.437,1.591,1.591,0,0,0,.488-1.25,1.876,1.876,0,0,0-.492-1.352A1.839,1.839,0,0,0,86.2,7.523H84.055Zm12.188,1.742H94.375V17H92.031V5.625h4.227a4.778,4.778,0,0,1,3.109.9,3.1,3.1,0,0,1,1.094,2.539,3.5,3.5,0,0,1-.5,1.941,3.437,3.437,0,0,1-1.527,1.238l2.461,4.648V17H98.375Zm-1.867-1.9h1.891a1.936,1.936,0,0,0,1.367-.449,1.606,1.606,0,0,0,.484-1.238,1.719,1.719,0,0,0-.457-1.266,1.9,1.9,0,0,0-1.4-.461H94.375Zm17.211.633a6.867,6.867,0,0,1-.594,2.945,4.472,4.472,0,0,1-1.7,1.953,5.021,5.021,0,0,1-5.059.008,4.515,4.515,0,0,1-1.719-1.941,6.67,6.67,0,0,1-.617-2.9V11.07a6.831,6.831,0,0,1,.605-2.957,4.508,4.508,0,0,1,1.711-1.961,5.014,5.014,0,0,1,5.055,0,4.508,4.508,0,0,1,1.711,1.961,6.811,6.811,0,0,1,.605,2.949Zm-2.375-.516a4.787,4.787,0,0,0-.641-2.719,2.263,2.263,0,0,0-3.648-.012,4.732,4.732,0,0,0-.648,2.691v.555a4.847,4.847,0,0,0,.641,2.7,2.243,2.243,0,0,0,3.656.035,4.819,4.819,0,0,0,.641-2.7ZM113.289,17V5.625h3.5a5.315,5.315,0,0,1,2.684.676,4.712,4.712,0,0,1,1.848,1.922,5.928,5.928,0,0,1,.664,2.832v.523a5.945,5.945,0,0,1-.652,2.82,4.672,4.672,0,0,1-1.84,1.914,5.355,5.355,0,0,1-2.68.688Zm2.344-9.477v7.594h1.133a2.545,2.545,0,0,0,2.1-.9,4.06,4.06,0,0,0,.742-2.57v-.6a4.124,4.124,0,0,0-.719-2.629,2.537,2.537,0,0,0-2.1-.895Zm16.664-1.9v7.492a3.836,3.836,0,0,1-1.168,2.953,4.5,4.5,0,0,1-3.191,1.086,4.553,4.553,0,0,1-3.164-1.055,3.77,3.77,0,0,1-1.2-2.9V5.625h2.344v7.508a2.167,2.167,0,0,0,.535,1.629,2.054,2.054,0,0,0,1.48.512q1.977,0,2.008-2.078V5.625Zm10.852,7.586a4.025,4.025,0,0,1-1.355,2.891,4.76,4.76,0,0,1-3.223,1.055,4.281,4.281,0,0,1-3.441-1.473,6.038,6.038,0,0,1-1.254-4.043v-.7a6.819,6.819,0,0,1,.578-2.891,4.332,4.332,0,0,1,1.652-1.918,5.164,5.164,0,0,1,5.668.387,4.326,4.326,0,0,1,1.391,2.961H140.82a2.376,2.376,0,0,0-.613-1.6,2.271,2.271,0,0,0-1.605-.5,1.991,1.991,0,0,0-1.754.84,4.707,4.707,0,0,0-.6,2.605V11.7a5.038,5.038,0,0,0,.559,2.7,1.954,1.954,0,0,0,1.762.852,2.314,2.314,0,0,0,1.621-.5,2.241,2.241,0,0,0,.613-1.535Zm10.469,0a4.025,4.025,0,0,1-1.355,2.891,4.76,4.76,0,0,1-3.223,1.055,4.281,4.281,0,0,1-3.441-1.473,6.038,6.038,0,0,1-1.254-4.043v-.7a6.819,6.819,0,0,1,.578-2.891,4.332,4.332,0,0,1,1.652-1.918,5.164,5.164,0,0,1,5.668.387,4.326,4.326,0,0,1,1.391,2.961h-2.344a2.376,2.376,0,0,0-.613-1.6,2.271,2.271,0,0,0-1.605-.5,1.991,1.991,0,0,0-1.754.84,4.707,4.707,0,0,0-.6,2.605V11.7a5.038,5.038,0,0,0,.559,2.7,1.954,1.954,0,0,0,1.762.852,2.314,2.314,0,0,0,1.621-.5,2.241,2.241,0,0,0,.613-1.535ZM157.648,17H155.3V5.625h2.344Zm11.516-5.43a6.867,6.867,0,0,1-.594,2.945,4.471,4.471,0,0,1-1.7,1.953,5.021,5.021,0,0,1-5.059.008,4.515,4.515,0,0,1-1.719-1.941,6.67,6.67,0,0,1-.617-2.9V11.07a6.831,6.831,0,0,1,.605-2.957,4.508,4.508,0,0,1,1.711-1.961,5.014,5.014,0,0,1,5.055,0,4.508,4.508,0,0,1,1.711,1.961,6.811,6.811,0,0,1,.605,2.949Zm-2.375-.516a4.787,4.787,0,0,0-.641-2.719,2.263,2.263,0,0,0-3.648-.012,4.732,4.732,0,0,0-.648,2.691v.555a4.847,4.847,0,0,0,.641,2.7,2.243,2.243,0,0,0,3.656.035,4.819,4.819,0,0,0,.641-2.7Zm-2.016-8.477h2.461L165.07,5h-1.836ZM180.117,17h-2.344l-4.562-7.484V17h-2.344V5.625h2.344l4.57,7.5v-7.5h2.336ZM195.4,17h-2.344l-4.562-7.484V17h-2.344V5.625h2.344l4.57,7.5v-7.5H195.4Zm6-9.375a2.077,2.077,0,0,1,.633-1.523,2.041,2.041,0,0,1,1.492-.633A2,2,0,0,1,205,6.1a2.093,2.093,0,0,1,.621,1.527,2.107,2.107,0,0,1-2.094,2.125,2.082,2.082,0,0,1-1.484-.613A2.01,2.01,0,0,1,201.4,7.625Zm2.125.969a.913.913,0,0,0,.684-.277.953.953,0,0,0,.27-.691,1.011,1.011,0,0,0-.27-.7.883.883,0,0,0-.684-.3.92.92,0,0,0-.7.3.988.988,0,0,0-.281.7.929.929,0,0,0,.285.688A.948.948,0,0,0,203.523,8.594Z" transform="translate(-6480.981 -8481.846)" fill="#12263f"/>
    <path id="Trazado_1054896" data-name="Trazado 1054896" d="M9.625,5.625v7.492A3.836,3.836,0,0,1,8.457,16.07a4.5,4.5,0,0,1-3.191,1.086A4.553,4.553,0,0,1,2.1,16.1a3.77,3.77,0,0,1-1.2-2.9V5.625H3.25v7.508a2.167,2.167,0,0,0,.535,1.629,2.054,2.054,0,0,0,1.48.512q1.977,0,2.008-2.078V5.625ZM20.8,17H18.453L13.891,9.516V17H11.547V5.625h2.344l4.57,7.5v-7.5H20.8Zm4.539,0H22.992V5.625h2.344Zm2.172,0V5.625h3.5a5.315,5.315,0,0,1,2.684.676,4.712,4.712,0,0,1,1.848,1.922,5.928,5.928,0,0,1,.664,2.832v.523a5.945,5.945,0,0,1-.652,2.82,4.672,4.672,0,0,1-1.84,1.914,5.355,5.355,0,0,1-2.68.688Zm2.344-9.477v7.594h1.133a2.545,2.545,0,0,0,2.1-.9,4.06,4.06,0,0,0,.742-2.57v-.6a4.124,4.124,0,0,0-.719-2.629,2.537,2.537,0,0,0-2.1-.895Zm14.477,7.133H40.219L39.438,17H36.945L41.18,5.625h2.172L47.609,17H45.117Zm-3.477-1.9H43.7L42.266,8.5ZM48.672,17V5.625h3.5a5.315,5.315,0,0,1,2.684.676A4.712,4.712,0,0,1,56.7,8.223a5.928,5.928,0,0,1,.664,2.832v.523a5.945,5.945,0,0,1-.652,2.82,4.672,4.672,0,0,1-1.84,1.914A5.355,5.355,0,0,1,52.2,17Zm2.344-9.477v7.594h1.133a2.545,2.545,0,0,0,2.1-.9,4.06,4.06,0,0,0,.742-2.57v-.6a4.124,4.124,0,0,0-.719-2.629,2.537,2.537,0,0,0-2.1-.895Zm14.9,4.547h-4.5v3.047H66.7V17H59.07V5.625H66.68v1.9H61.414v2.711h4.5Zm8.055,1.945A1.2,1.2,0,0,0,73.5,13a6.148,6.148,0,0,0-1.687-.75,11.963,11.963,0,0,1-1.93-.777,3.153,3.153,0,0,1-1.937-2.82A2.747,2.747,0,0,1,68.465,7a3.389,3.389,0,0,1,1.492-1.129,5.616,5.616,0,0,1,2.184-.406,5.112,5.112,0,0,1,2.172.441,3.458,3.458,0,0,1,1.48,1.246,3.261,3.261,0,0,1,.527,1.828H73.977a1.534,1.534,0,0,0-.492-1.215A2.023,2.023,0,0,0,72.1,7.336a2.162,2.162,0,0,0-1.336.363,1.146,1.146,0,0,0-.477.957,1.1,1.1,0,0,0,.559.93,6.311,6.311,0,0,0,1.645.7,7.106,7.106,0,0,1,2.914,1.492A2.972,2.972,0,0,1,76.32,14,2.737,2.737,0,0,1,75.2,16.316a4.891,4.891,0,0,1-3.008.84,5.808,5.808,0,0,1-2.391-.48,3.783,3.783,0,0,1-1.645-1.316,3.371,3.371,0,0,1-.566-1.937h2.352q0,1.883,2.25,1.883a2.189,2.189,0,0,0,1.3-.34A1.106,1.106,0,0,0,73.969,14.016ZM89.984,7.523H86.5V17H84.156V7.523H80.719v-1.9h9.266Zm8.18,4.547h-4.5v3.047h5.281V17H91.32V5.625H98.93v1.9H93.664v2.711h4.5Zm6.367.766h-1.867V17H100.32V5.625h4.227a4.778,4.778,0,0,1,3.109.9,3.1,3.1,0,0,1,1.094,2.539,3.5,3.5,0,0,1-.5,1.941,3.437,3.437,0,0,1-1.527,1.238l2.461,4.648V17h-2.516Zm-1.867-1.9h1.891a1.936,1.936,0,0,0,1.367-.449,1.606,1.606,0,0,0,.484-1.238,1.719,1.719,0,0,0-.457-1.266,1.9,1.9,0,0,0-1.4-.461h-1.883Zm10.93-5.312,2.922,8.25,2.906-8.25H122.5V17h-2.352V13.891l.234-5.367L117.313,17H115.7l-3.062-8.469.234,5.359V17h-2.344V5.625ZM127.039,17H124.7V5.625h2.344Zm11.422,0h-2.344l-4.562-7.484V17h-2.344V5.625h2.344l4.57,7.5v-7.5h2.336Zm8.469-2.344H142.82L142.039,17h-2.492l4.234-11.375h2.172L150.211,17h-2.492Zm-3.477-1.9H146.3L144.867,8.5ZM151.273,17V5.625h3.5a5.315,5.315,0,0,1,2.684.676A4.712,4.712,0,0,1,159.3,8.223a5.928,5.928,0,0,1,.664,2.832v.523a5.945,5.945,0,0,1-.652,2.82,4.672,4.672,0,0,1-1.84,1.914A5.355,5.355,0,0,1,154.8,17Zm2.344-9.477v7.594h1.133a2.545,2.545,0,0,0,2.1-.9,4.06,4.06,0,0,0,.742-2.57v-.6a4.124,4.124,0,0,0-.719-2.629,2.537,2.537,0,0,0-2.1-.895Zm14.477,7.133h-4.109L163.2,17h-2.492l4.234-11.375h2.172L171.375,17h-2.492Zm-3.477-1.9h2.844L166.031,8.5Zm13.719,1.258a1.2,1.2,0,0,0-.469-1.02,6.148,6.148,0,0,0-1.687-.75,11.962,11.962,0,0,1-1.93-.777,3.153,3.153,0,0,1-1.937-2.82A2.747,2.747,0,0,1,172.832,7a3.389,3.389,0,0,1,1.492-1.129,5.616,5.616,0,0,1,2.184-.406,5.112,5.112,0,0,1,2.172.441,3.458,3.458,0,0,1,1.48,1.246,3.261,3.261,0,0,1,.527,1.828h-2.344a1.534,1.534,0,0,0-.492-1.215,2.023,2.023,0,0,0-1.383-.434,2.162,2.162,0,0,0-1.336.363,1.146,1.146,0,0,0-.477.957,1.1,1.1,0,0,0,.559.93,6.311,6.311,0,0,0,1.645.7,7.106,7.106,0,0,1,2.914,1.492A2.972,2.972,0,0,1,180.688,14a2.737,2.737,0,0,1-1.117,2.316,4.891,4.891,0,0,1-3.008.84,5.808,5.808,0,0,1-2.391-.48,3.783,3.783,0,0,1-1.645-1.316,3.371,3.371,0,0,1-.566-1.937h2.352q0,1.883,2.25,1.883a2.189,2.189,0,0,0,1.3-.34A1.106,1.106,0,0,0,178.336,14.016Z" transform="translate(-6480.981 -8436.326)" fill="#12263f"/>
    <g id="Trazado_1034073" data-name="Trazado 1034073" transform="translate(-7035.982 -8488.846)" fill="#fff">
      <path d="M 1151.57275390625 387.953125 L 487.8960876464844 387.953125 L 73.43752288818359 387.953125 L 0.4999483823776245 387.953125 L 0.4999483823776245 0.4999910593032837 L 1151.57275390625 0.4999910593032837 L 1151.57275390625 387.953125 Z" stroke="none"/>
      <path d="M 1 1 L 1 387.453125 L 1151.07275390625 387.453125 L 1151.07275390625 1 L 1 1 M 0 0 L 1152.07275390625 0 L 1152.07275390625 388.453125 L 0 388.453125 L 0 0 Z" stroke="none" fill="#d6d6d6"/>
    </g>
    <path id="Trazado_1034053" data-name="Trazado 1034053" d="M0,0H168.051V50H0Z" transform="translate(-7036.11 -8538.846)" fill="#fd9826"/>
    <g id="Trazado_1034074" data-name="Trazado 1034074" transform="translate(-7035.187 -8488.847)" fill="#e8e8e8">
      <path d="M 165.9541168212891 82.345703125 L 0.2500091195106506 82.345703125 L 0.2500091195106506 0.2499973922967911 L 165.9541168212891 0.2499973922967911 L 165.9541168212891 82.345703125 Z" stroke="none"/>
      <path d="M 0.4999847412109375 0.5 L 0.4999847412109375 82.095703125 L 165.7040863037109 82.095703125 L 165.7040863037109 0.5 L 0.4999847412109375 0.5 M -1.52587890625e-05 0 L 166.2040863037109 0 L 166.2040863037109 82.595703125 L -1.52587890625e-05 82.595703125 L -1.52587890625e-05 0 Z" stroke="none" fill="#d6d6d6"/>
    </g>
    <path id="Trazado_1034069" data-name="Trazado 1034069" d="M-149.369-10636H1002.567" transform="translate(-6886.614 2324.795)" fill="none" stroke="#d6d6d6" stroke-width="1"/>
    <path id="Trazado_1034056" data-name="Trazado 1034056" d="M-149.369-10636H1002.516" transform="translate(-6886.614 2372.076)" fill="none" stroke="#d6d6d6" stroke-width="1"/>
    <path id="Trazado_1034070" data-name="Trazado 1034070" d="M-63.3-10635.879H1089.588" transform="translate(-6972.686 2276.674)" fill="none" stroke="#d6d6d6" stroke-width="1"/>
    <path id="Trazado_1034107" data-name="Trazado 1034107" d="M-63.3-10635.879H1088.776" transform="translate(-6972.686 2489.299)" fill="none" stroke="#d6d6d6" stroke-width="1"/>
    <path id="Trazado_1054881" data-name="Trazado 1054881" d="M4.578-4.562,3.359-3.25V0H1.016V-11.375H3.359v5.156L4.391-7.633l2.9-3.742h2.883L6.133-6.32,10.289,0H7.5ZM17.594-2.344H13.484L12.7,0H10.211l4.234-11.375h2.172L20.875,0H18.383Zm-3.477-1.9h2.844L15.531-8.5Zm12.031.078H24.281V0H21.938V-11.375h4.227a4.778,4.778,0,0,1,3.109.9,3.1,3.1,0,0,1,1.094,2.539A3.5,3.5,0,0,1,29.863-6a3.437,3.437,0,0,1-1.527,1.238L30.8-.109V0H28.281Zm-1.867-1.9h1.891a1.936,1.936,0,0,0,1.367-.449,1.606,1.606,0,0,0,.484-1.238,1.719,1.719,0,0,0-.457-1.266,1.9,1.9,0,0,0-1.4-.461H24.281ZM32.148,0V-11.375h3.5a5.315,5.315,0,0,1,2.684.676A4.712,4.712,0,0,1,40.18-8.777a5.928,5.928,0,0,1,.664,2.832v.523a5.945,5.945,0,0,1-.652,2.82,4.672,4.672,0,0,1-1.84,1.914A5.355,5.355,0,0,1,35.672,0Zm2.344-9.477v7.594h1.133a2.545,2.545,0,0,0,2.1-.9,4.06,4.06,0,0,0,.742-2.57v-.6a4.124,4.124,0,0,0-.719-2.629,2.537,2.537,0,0,0-2.1-.895Zm14.9,4.547h-4.5v3.047h5.281V0H42.547V-11.375h7.609v1.9H44.891v2.711h4.5Zm6.227-2.523,2.133-3.922h2.7L57.133-5.734,60.531,0H57.8L55.617-3.984,53.43,0H50.7l3.4-5.734-3.312-5.641h2.7Z" transform="translate(-6987 -8508.346)" fill="#12263f"/>
    <path id="Trazado_1054883" data-name="Trazado 1054883" d="M6.9-11.492v1.859H6.68a3.836,3.836,0,0,0-2.465.8A3.238,3.238,0,0,0,3.094-6.687a3.075,3.075,0,0,1,2.289-.922A2.9,2.9,0,0,1,7.742-6.547a4.259,4.259,0,0,1,.875,2.8,4.19,4.19,0,0,1-.48,2.008,3.446,3.446,0,0,1-1.359,1.4,3.949,3.949,0,0,1-1.988.5,3.689,3.689,0,0,1-2.9-1.25A4.852,4.852,0,0,1,.781-4.43v-.812a7.3,7.3,0,0,1,.7-3.27,5.127,5.127,0,0,1,2.008-2.2,5.884,5.884,0,0,1,3.035-.785Zm-2.2,5.7A1.8,1.8,0,0,0,3.7-5.5a1.715,1.715,0,0,0-.656.753v.686A3.04,3.04,0,0,0,3.492-2.3a1.439,1.439,0,0,0,1.25.635,1.423,1.423,0,0,0,1.176-.573,2.337,2.337,0,0,0,.449-1.485,2.333,2.333,0,0,0-.453-1.5A1.477,1.477,0,0,0,4.7-5.789Zm11.383-5.7v1.859h-.219a3.836,3.836,0,0,0-2.465.8,3.238,3.238,0,0,0-1.121,2.148,3.075,3.075,0,0,1,2.289-.922,2.9,2.9,0,0,1,2.359,1.063,4.259,4.259,0,0,1,.875,2.8,4.19,4.19,0,0,1-.48,2.008,3.446,3.446,0,0,1-1.359,1.4,3.949,3.949,0,0,1-1.988.5,3.689,3.689,0,0,1-2.9-1.25A4.852,4.852,0,0,1,9.961-4.43v-.812a7.3,7.3,0,0,1,.7-3.27,5.127,5.127,0,0,1,2.008-2.2,5.884,5.884,0,0,1,3.035-.785Zm-2.2,5.7a1.8,1.8,0,0,0-.992.285,1.715,1.715,0,0,0-.656.753v.686A3.04,3.04,0,0,0,12.672-2.3a1.439,1.439,0,0,0,1.25.635A1.423,1.423,0,0,0,15.1-2.237a2.337,2.337,0,0,0,.449-1.485,2.333,2.333,0,0,0-.453-1.5A1.477,1.477,0,0,0,13.875-5.789Zm12.992-4.326L22.469,0H20.086l4.406-9.555H18.836v-1.82h8.031Zm9.18,0L31.648,0H29.266l4.406-9.555H28.016v-1.82h8.031Z" transform="translate(-6811 -8465)" fill="#12263f"/>
    <path id="Trazado_1054885" data-name="Trazado 1054885" d="M7.859-4.93h-4.5v3.047H8.641V0H1.016V-11.375H8.625v1.9H3.359v2.711h4.5Zm5.219-6.445L16-3.125l2.906-8.25h3.078V0H19.633V-3.109l.234-5.367L16.8,0H15.188L12.125-8.469l.234,5.359V0H10.016V-11.375Zm13.3,7.367V0H24.031V-11.375h4.438a5.134,5.134,0,0,1,2.254.469,3.454,3.454,0,0,1,1.5,1.332,3.714,3.714,0,0,1,.523,1.965A3.266,3.266,0,0,1,31.6-4.973a4.767,4.767,0,0,1-3.168.965Zm0-1.9h2.094a2.059,2.059,0,0,0,1.418-.437,1.591,1.591,0,0,0,.488-1.25,1.876,1.876,0,0,0-.492-1.352,1.839,1.839,0,0,0-1.359-.531H26.375ZM39.383-2.344H35.273L34.492,0H32l4.234-11.375h2.172L42.664,0H40.172Zm-3.477-1.9H38.75L37.32-8.5ZM52.977,0H50.633L46.07-7.484V0H43.727V-11.375H46.07l4.57,7.5v-7.5h2.336Zm8.469-2.344H57.336L56.555,0H54.063L58.3-11.375h2.172L64.727,0H62.234Zm-3.477-1.9h2.844L59.383-8.5ZM65.789,0V-11.375h3.5a5.315,5.315,0,0,1,2.684.676A4.712,4.712,0,0,1,73.82-8.777a5.928,5.928,0,0,1,.664,2.832v.523a5.945,5.945,0,0,1-.652,2.82,4.672,4.672,0,0,1-1.84,1.914A5.355,5.355,0,0,1,69.313,0Zm2.344-9.477v7.594h1.133a2.545,2.545,0,0,0,2.1-.9,4.06,4.06,0,0,0,.742-2.57v-.6a4.124,4.124,0,0,0-.719-2.629,2.537,2.537,0,0,0-2.1-.895ZM82.609-2.344H78.5L77.719,0H75.227l4.234-11.375h2.172L85.891,0H83.4Zm-3.477-1.9h2.844L80.547-8.5Z" transform="translate(-6691 -8465)" fill="#12263f"/>
    <path id="Trazado_1054884" data-name="Trazado 1054884" d="M-46.867-4.008V0h-2.344V-11.375h4.438a5.134,5.134,0,0,1,2.254.469,3.454,3.454,0,0,1,1.5,1.332A3.714,3.714,0,0,1-40.5-7.609a3.266,3.266,0,0,1-1.145,2.637,4.767,4.767,0,0,1-3.168.965Zm0-1.9h2.094a2.059,2.059,0,0,0,1.418-.437,1.591,1.591,0,0,0,.488-1.25,1.876,1.876,0,0,0-.492-1.352,1.839,1.839,0,0,0-1.359-.531h-2.148ZM-34.68-4.164h-1.867V0h-2.344V-11.375h4.227a4.778,4.778,0,0,1,3.109.9,3.1,3.1,0,0,1,1.094,2.539A3.5,3.5,0,0,1-30.965-6a3.437,3.437,0,0,1-1.527,1.238l2.461,4.648V0h-2.516Zm-1.867-1.9h1.891a1.936,1.936,0,0,0,1.367-.449A1.606,1.606,0,0,0-32.8-7.75a1.719,1.719,0,0,0-.457-1.266,1.9,1.9,0,0,0-1.4-.461h-1.883Zm17.211.633a6.867,6.867,0,0,1-.594,2.945,4.472,4.472,0,0,1-1.7,1.953,4.7,4.7,0,0,1-2.535.688,4.732,4.732,0,0,1-2.523-.68,4.515,4.515,0,0,1-1.719-1.941,6.67,6.67,0,0,1-.617-2.9V-5.93a6.831,6.831,0,0,1,.605-2.957,4.508,4.508,0,0,1,1.711-1.961,4.706,4.706,0,0,1,2.527-.684,4.706,4.706,0,0,1,2.527.684,4.508,4.508,0,0,1,1.711,1.961,6.811,6.811,0,0,1,.605,2.949Zm-2.375-.516a4.787,4.787,0,0,0-.641-2.719,2.088,2.088,0,0,0-1.828-.93A2.088,2.088,0,0,0-26-8.676a4.732,4.732,0,0,0-.648,2.691v.555a4.847,4.847,0,0,0,.641,2.7,2.082,2.082,0,0,0,1.844.961,2.064,2.064,0,0,0,1.813-.926,4.819,4.819,0,0,0,.641-2.7ZM-17.633,0V-11.375h3.5a5.315,5.315,0,0,1,2.684.676A4.712,4.712,0,0,1-9.6-8.777a5.928,5.928,0,0,1,.664,2.832v.523A5.945,5.945,0,0,1-9.59-2.6,4.672,4.672,0,0,1-11.43-.687,5.355,5.355,0,0,1-14.109,0Zm2.344-9.477v7.594h1.133a2.545,2.545,0,0,0,2.1-.9,4.06,4.06,0,0,0,.742-2.57v-.6a4.124,4.124,0,0,0-.719-2.629,2.537,2.537,0,0,0-2.1-.895Zm16.664-1.9v7.492A3.836,3.836,0,0,1,.207-.93,4.5,4.5,0,0,1-2.984.156,4.553,4.553,0,0,1-6.148-.9a3.77,3.77,0,0,1-1.2-2.9v-7.578H-5v7.508a2.167,2.167,0,0,0,.535,1.629,2.054,2.054,0,0,0,1.48.512q1.977,0,2.008-2.078v-7.57ZM12.227-3.789A4.025,4.025,0,0,1,10.871-.9,4.76,4.76,0,0,1,7.648.156,4.28,4.28,0,0,1,4.207-1.316,6.038,6.038,0,0,1,2.953-5.359v-.7a6.819,6.819,0,0,1,.578-2.891,4.332,4.332,0,0,1,1.652-1.918,4.629,4.629,0,0,1,2.5-.668,4.637,4.637,0,0,1,3.172,1.055,4.326,4.326,0,0,1,1.391,2.961H9.9a2.376,2.376,0,0,0-.613-1.6,2.271,2.271,0,0,0-1.605-.5,1.991,1.991,0,0,0-1.754.84,4.707,4.707,0,0,0-.6,2.605V-5.3a5.038,5.038,0,0,0,.559,2.7,1.954,1.954,0,0,0,1.762.852,2.314,2.314,0,0,0,1.621-.5,2.241,2.241,0,0,0,.613-1.535Zm10.469,0A4.025,4.025,0,0,1,21.34-.9,4.76,4.76,0,0,1,18.117.156a4.28,4.28,0,0,1-3.441-1.473,6.038,6.038,0,0,1-1.254-4.043v-.7A6.819,6.819,0,0,1,14-8.945a4.332,4.332,0,0,1,1.652-1.918,4.629,4.629,0,0,1,2.5-.668,4.637,4.637,0,0,1,3.172,1.055,4.326,4.326,0,0,1,1.391,2.961H20.367a2.376,2.376,0,0,0-.613-1.6,2.271,2.271,0,0,0-1.605-.5,1.991,1.991,0,0,0-1.754.84,4.707,4.707,0,0,0-.6,2.605V-5.3a5.038,5.038,0,0,0,.559,2.7,1.954,1.954,0,0,0,1.762.852,2.314,2.314,0,0,0,1.621-.5,2.241,2.241,0,0,0,.613-1.535ZM26.727,0H24.383V-11.375h2.344ZM38.242-5.43a6.867,6.867,0,0,1-.594,2.945,4.472,4.472,0,0,1-1.7,1.953,4.7,4.7,0,0,1-2.535.688,4.732,4.732,0,0,1-2.523-.68,4.515,4.515,0,0,1-1.719-1.941,6.67,6.67,0,0,1-.617-2.9V-5.93a6.831,6.831,0,0,1,.605-2.957,4.508,4.508,0,0,1,1.711-1.961,4.706,4.706,0,0,1,2.527-.684,4.706,4.706,0,0,1,2.527.684,4.508,4.508,0,0,1,1.711,1.961,6.811,6.811,0,0,1,.605,2.949Zm-2.375-.516a4.787,4.787,0,0,0-.641-2.719,2.088,2.088,0,0,0-1.828-.93,2.088,2.088,0,0,0-1.82.918,4.732,4.732,0,0,0-.648,2.691v.555a4.847,4.847,0,0,0,.641,2.7,2.082,2.082,0,0,0,1.844.961,2.064,2.064,0,0,0,1.813-.926,4.819,4.819,0,0,0,.641-2.7Zm-2.016-8.477h2.461L34.148-12H32.313ZM49.2,0H46.852L42.289-7.484V0H39.945V-11.375h2.344l4.57,7.5v-7.5H49.2ZM-30.059,20H-32.4V8.625h2.344Zm11.422,0H-20.98l-4.562-7.484V20h-2.344V8.625h2.344l4.57,7.5v-7.5h2.336Zm10.609-9.477h-3.484V20h-2.344V10.523h-3.437v-1.9h9.266ZM.152,15.07h-4.5v3.047H.934V20H-6.691V8.625H.918v1.9H-4.348v2.711h4.5Zm6.367.766H4.652V20H2.309V8.625H6.535a4.778,4.778,0,0,1,3.109.9,3.1,3.1,0,0,1,1.094,2.539,3.5,3.5,0,0,1-.5,1.941,3.437,3.437,0,0,1-1.527,1.238l2.461,4.648V20H8.652Zm-1.867-1.9H6.543a1.936,1.936,0,0,0,1.367-.449,1.606,1.606,0,0,0,.484-1.238,1.719,1.719,0,0,0-.457-1.266,1.9,1.9,0,0,0-1.4-.461H4.652ZM21.77,20H19.426l-4.562-7.484V20H12.52V8.625h2.344l4.57,7.5v-7.5H21.77Zm8.469-2.344H26.129L25.348,20H22.855L27.09,8.625h2.172L33.52,20H31.027Zm-3.477-1.9h2.844L28.176,11.5Z" transform="translate(-6793 -8434.582)" fill="#12263f"/>
    <path id="Trazado_1054904" data-name="Trazado 1054904" d="M-22.2-6.687H-21a1.7,1.7,0,0,0,1.273-.43,1.574,1.574,0,0,0,.414-1.141,1.392,1.392,0,0,0-.41-1.07,1.59,1.59,0,0,0-1.129-.383,1.666,1.666,0,0,0-1.086.355,1.137,1.137,0,0,0-.437.926h-2.258a2.777,2.777,0,0,1,.48-1.6,3.2,3.2,0,0,1,1.344-1.105,4.485,4.485,0,0,1,1.9-.4,4.253,4.253,0,0,1,2.828.863,2.945,2.945,0,0,1,1.023,2.379,2.394,2.394,0,0,1-.477,1.438,3.1,3.1,0,0,1-1.25,1.008,2.826,2.826,0,0,1,1.434,1.031,2.8,2.8,0,0,1,.473,1.625A2.994,2.994,0,0,1-17.98-.758a4.445,4.445,0,0,1-2.926.914,4.214,4.214,0,0,1-2.785-.9,2.934,2.934,0,0,1-1.082-2.375h2.258a1.308,1.308,0,0,0,.48,1.047,1.771,1.771,0,0,0,1.184.406A1.779,1.779,0,0,0-19.59-2.09a1.47,1.47,0,0,0,.457-1.129q0-1.7-1.875-1.7h-1.2ZM-7.664-4.7a5.762,5.762,0,0,1-.977,3.609A3.409,3.409,0,0,1-11.5.156,3.433,3.433,0,0,1-14.344-1.07a5.594,5.594,0,0,1-1.008-3.516V-6.68a5.687,5.687,0,0,1,.988-3.617,3.434,3.434,0,0,1,2.848-1.234,3.437,3.437,0,0,1,2.844,1.223A5.576,5.576,0,0,1-7.664-6.8Zm-2.258-2.3a4.165,4.165,0,0,0-.387-2.061,1.307,1.307,0,0,0-1.207-.645,1.284,1.284,0,0,0-1.176.614,3.9,3.9,0,0,0-.4,1.92v2.768a4.372,4.372,0,0,0,.379,2.068,1.29,1.29,0,0,0,1.215.676,1.268,1.268,0,0,0,1.2-.649A4.268,4.268,0,0,0-9.922-4.3Zm3.992,5.9a1.137,1.137,0,0,1,.363-.875,1.289,1.289,0,0,1,.91-.336,1.3,1.3,0,0,1,.918.336,1.137,1.137,0,0,1,.363.875,1.121,1.121,0,0,1-.359.863,1.305,1.305,0,0,1-.922.332A1.294,1.294,0,0,1-5.57-.246,1.121,1.121,0,0,1-5.93-1.109ZM6.164-4.7a5.762,5.762,0,0,1-.977,3.609A3.409,3.409,0,0,1,2.328.156,3.433,3.433,0,0,1-.516-1.07,5.594,5.594,0,0,1-1.523-4.586V-6.68A5.687,5.687,0,0,1-.535-10.3a3.434,3.434,0,0,1,2.848-1.234,3.437,3.437,0,0,1,2.844,1.223A5.576,5.576,0,0,1,6.164-6.8Zm-2.258-2.3A4.165,4.165,0,0,0,3.52-9.066a1.307,1.307,0,0,0-1.207-.645A1.284,1.284,0,0,0,1.137-9.1a3.9,3.9,0,0,0-.4,1.92v2.768a4.372,4.372,0,0,0,.379,2.068,1.29,1.29,0,0,0,1.215.676,1.268,1.268,0,0,0,1.2-.649A4.268,4.268,0,0,0,3.906-4.3ZM15.344-4.7a5.762,5.762,0,0,1-.977,3.609A3.409,3.409,0,0,1,11.508.156,3.433,3.433,0,0,1,8.664-1.07,5.594,5.594,0,0,1,7.656-4.586V-6.68A5.687,5.687,0,0,1,8.645-10.3a3.434,3.434,0,0,1,2.848-1.234,3.437,3.437,0,0,1,2.844,1.223A5.576,5.576,0,0,1,15.344-6.8Zm-2.258-2.3A4.165,4.165,0,0,0,12.7-9.066a1.307,1.307,0,0,0-1.207-.645,1.284,1.284,0,0,0-1.176.614,3.9,3.9,0,0,0-.4,1.92v2.768a4.372,4.372,0,0,0,.379,2.068,1.29,1.29,0,0,0,1.215.676,1.268,1.268,0,0,0,1.2-.649A4.268,4.268,0,0,0,13.086-4.3ZM24.523-4.7a5.763,5.763,0,0,1-.977,3.609A3.409,3.409,0,0,1,20.688.156,3.433,3.433,0,0,1,17.844-1.07a5.594,5.594,0,0,1-1.008-3.516V-6.68a5.687,5.687,0,0,1,.988-3.617,3.434,3.434,0,0,1,2.848-1.234,3.437,3.437,0,0,1,2.844,1.223A5.576,5.576,0,0,1,24.523-6.8Zm-2.258-2.3a4.165,4.165,0,0,0-.387-2.061,1.307,1.307,0,0,0-1.207-.645A1.284,1.284,0,0,0,19.5-9.1a3.9,3.9,0,0,0-.4,1.92v2.768a4.373,4.373,0,0,0,.379,2.068,1.29,1.29,0,0,0,1.215.676,1.268,1.268,0,0,0,1.2-.649A4.268,4.268,0,0,0,22.266-4.3Z" transform="translate(-5941 -8465)" fill="#12263f"/>
    <path id="Trazado_1054902" data-name="Trazado 1054902" d="M9.578-9.477H6.094V0H3.75V-9.477H.313v-1.9H9.578ZM20.039-5.43a6.867,6.867,0,0,1-.594,2.945,4.472,4.472,0,0,1-1.7,1.953,4.7,4.7,0,0,1-2.535.688,4.732,4.732,0,0,1-2.523-.68,4.515,4.515,0,0,1-1.719-1.941,6.67,6.67,0,0,1-.617-2.9V-5.93a6.831,6.831,0,0,1,.605-2.957,4.508,4.508,0,0,1,1.711-1.961,4.706,4.706,0,0,1,2.527-.684,4.706,4.706,0,0,1,2.527.684,4.508,4.508,0,0,1,1.711,1.961,6.811,6.811,0,0,1,.605,2.949Zm-2.375-.516a4.787,4.787,0,0,0-.641-2.719,2.088,2.088,0,0,0-1.828-.93,2.088,2.088,0,0,0-1.82.918,4.732,4.732,0,0,0-.648,2.691v.555a4.847,4.847,0,0,0,.641,2.7,2.082,2.082,0,0,0,1.844.961,2.064,2.064,0,0,0,1.813-.926,4.819,4.819,0,0,0,.641-2.7ZM29.641-9.477H26.156V0H23.813V-9.477H20.375v-1.9h9.266Zm6.82,7.133H32.352L31.57,0H29.078l4.234-11.375h2.172L39.742,0H37.25Zm-3.477-1.9h2.844L34.4-8.5ZM43.148-1.883h4.977V0H40.8V-11.375h2.344Z" transform="translate(-6817 -8121.203)" fill="#12263f"/>
    <path id="Trazado_1034068" data-name="Trazado 1034068" d="M0,0H1150.565V68.858H0Z" transform="translate(-7035.022 -8264.111)" fill="#e8e8e8"/>
    <path id="Trazado_1054888" data-name="Trazado 1054888" d="M-17.219-4.531h-4.422V0h-2.742V-11.375h7.609v2.117h-4.867v2.617h4.422Zm8.641-.3h-4.312v2.719H-7.8V0h-7.836V-11.375h7.852v2.117h-5.109v2.4h4.313Zm11.1.977a4.154,4.154,0,0,1-.641,2.1A3.866,3.866,0,0,1,.238-.344a5.6,5.6,0,0,1-2.418.5A4.467,4.467,0,0,1-5.711-1.3,6.032,6.032,0,0,1-7-5.43v-.562a6.885,6.885,0,0,1,.582-2.926,4.41,4.41,0,0,1,1.676-1.937,4.676,4.676,0,0,1,2.531-.684,4.9,4.9,0,0,1,3.328,1.09,4.306,4.306,0,0,1,1.43,3H-.187A2.037,2.037,0,0,0-.711-8.937a2.153,2.153,0,0,0-1.5-.453,1.638,1.638,0,0,0-1.5.766,4.921,4.921,0,0,0-.5,2.445v.8a5.445,5.445,0,0,0,.457,2.6,1.672,1.672,0,0,0,1.574.781A2.106,2.106,0,0,0-.734-2.437,1.89,1.89,0,0,0-.2-3.852ZM13.328,0H10.6V-4.75H6.563V0H3.82V-11.375H6.563v4.516H10.6v-4.516h2.727Zm8.336-2.125H17.906L17.25,0H14.32l4.172-11.375H21.07L25.273,0H22.328Zm-3.1-2.117h2.445L19.781-8.187Z" transform="translate(-6957 -8224.183)" fill="#12263f"/>
    <path id="Trazado_1054889" data-name="Trazado 1054889" d="M-50.691,0V-11.375h3.664a5.39,5.39,0,0,1,2.711.684,4.805,4.805,0,0,1,1.879,1.93,5.826,5.826,0,0,1,.684,2.793v.523a5.86,5.86,0,0,1-.66,2.8A4.826,4.826,0,0,1-44.273-.707,5.271,5.271,0,0,1-46.949,0Zm2.742-9.258v7.148H-47a2.133,2.133,0,0,0,1.813-.84,4.116,4.116,0,0,0,.633-2.5v-.492a4.082,4.082,0,0,0-.633-2.484,2.17,2.17,0,0,0-1.844-.836Zm14.656,4.43h-4.312v2.719h5.094V0h-7.836V-11.375H-32.5v2.117h-5.109v2.4h4.313Zm7.766,1.8a1.127,1.127,0,0,0-.426-.937,5.292,5.292,0,0,0-1.5-.7,14.353,14.353,0,0,1-1.75-.7A3.314,3.314,0,0,1-31.41-8.336,2.676,2.676,0,0,1-30.859-10,3.562,3.562,0,0,1-29.3-11.129a6.065,6.065,0,0,1,2.266-.4,5.305,5.305,0,0,1,2.2.438,3.482,3.482,0,0,1,1.512,1.246A3.254,3.254,0,0,1-22.785-8H-25.52a1.375,1.375,0,0,0-.426-1.078A1.66,1.66,0,0,0-27.1-9.461a1.872,1.872,0,0,0-1.16.324,1,1,0,0,0-.426.824,1,1,0,0,0,.469.793,5.911,5.911,0,0,0,1.648.734,10.1,10.1,0,0,1,1.938.816,3.256,3.256,0,0,1,1.844,2.93A2.778,2.778,0,0,1-23.91-.7,5,5,0,0,1-27,.156a6.122,6.122,0,0,1-2.5-.5A3.775,3.775,0,0,1-31.187-1.7a3.542,3.542,0,0,1-.566-1.988H-29a1.744,1.744,0,0,0,.473,1.348A2.234,2.234,0,0,0-27-1.906,1.765,1.765,0,0,0-25.922-2.2.967.967,0,0,0-25.527-3.023Zm13.352-.828a4.154,4.154,0,0,1-.641,2.1,3.866,3.866,0,0,1-1.645,1.41,5.6,5.6,0,0,1-2.418.5A4.467,4.467,0,0,1-20.41-1.3,6.032,6.032,0,0,1-21.7-5.43v-.562a6.885,6.885,0,0,1,.582-2.926,4.41,4.41,0,0,1,1.676-1.937,4.676,4.676,0,0,1,2.531-.684,4.9,4.9,0,0,1,3.328,1.09,4.306,4.306,0,0,1,1.43,3h-2.734a2.037,2.037,0,0,0-.523-1.492,2.153,2.153,0,0,0-1.5-.453,1.638,1.638,0,0,0-1.5.766,4.921,4.921,0,0,0-.5,2.445v.8a5.445,5.445,0,0,0,.457,2.6,1.672,1.672,0,0,0,1.574.781,2.106,2.106,0,0,0,1.445-.445A1.89,1.89,0,0,0-14.9-3.852Zm5.523-.172H-8.137V0h-2.742V-11.375H-6.4a5,5,0,0,1,3.164.9A3.041,3.041,0,0,1-2.1-7.941a3.693,3.693,0,0,1-.48,1.967,3.41,3.41,0,0,1-1.5,1.264L-1.707-.117V0H-4.645ZM-8.137-6.133H-6.4a1.557,1.557,0,0,0,1.176-.411,1.59,1.59,0,0,0,.395-1.147,1.608,1.608,0,0,0-.4-1.155A1.542,1.542,0,0,0-6.4-9.266H-8.137ZM2.48,0H-.254V-11.375H2.48ZM7.129-3.859V0H4.387V-11.375H8.926a5.287,5.287,0,0,1,2.309.48,3.621,3.621,0,0,1,1.555,1.367,3.734,3.734,0,0,1,.551,2.012,3.291,3.291,0,0,1-1.191,2.66,4.943,4.943,0,0,1-3.27,1Zm0-2.117h1.8a1.7,1.7,0,0,0,1.215-.4A1.48,1.48,0,0,0,10.559-7.5a1.83,1.83,0,0,0-.43-1.273,1.522,1.522,0,0,0-1.172-.484H7.129ZM24-3.852a4.154,4.154,0,0,1-.641,2.1,3.866,3.866,0,0,1-1.645,1.41,5.6,5.6,0,0,1-2.418.5A4.467,4.467,0,0,1,15.77-1.3,6.032,6.032,0,0,1,14.48-5.43v-.562a6.885,6.885,0,0,1,.582-2.926,4.41,4.41,0,0,1,1.676-1.937,4.676,4.676,0,0,1,2.531-.684,4.9,4.9,0,0,1,3.328,1.09,4.306,4.306,0,0,1,1.43,3H21.293a2.037,2.037,0,0,0-.523-1.492,2.153,2.153,0,0,0-1.5-.453,1.638,1.638,0,0,0-1.5.766,4.921,4.921,0,0,0-.5,2.445v.8a5.445,5.445,0,0,0,.457,2.6,1.672,1.672,0,0,0,1.574.781,2.106,2.106,0,0,0,1.445-.445,1.89,1.89,0,0,0,.531-1.414ZM28.223,0H25.488V-11.375h2.734ZM39.762-5.453a6.708,6.708,0,0,1-.617,2.945A4.561,4.561,0,0,1,37.391-.535,4.884,4.884,0,0,1,34.8.156a4.953,4.953,0,0,1-2.578-.668,4.554,4.554,0,0,1-1.754-1.91,6.515,6.515,0,0,1-.66-2.852v-.641a6.737,6.737,0,0,1,.613-2.949,4.55,4.55,0,0,1,1.758-1.973,4.918,4.918,0,0,1,2.605-.7,4.87,4.87,0,0,1,2.578.688,4.632,4.632,0,0,1,1.762,1.957,6.544,6.544,0,0,1,.637,2.91ZM36.973-5.93A4.783,4.783,0,0,0,36.406-8.5a1.817,1.817,0,0,0-1.621-.879q-2.062,0-2.18,3.094l-.008.836a4.92,4.92,0,0,0,.555,2.57,1.814,1.814,0,0,0,1.648.9,1.792,1.792,0,0,0,1.6-.883,4.785,4.785,0,0,0,.57-2.539Zm-1.867-8.492h2.781l-2.172,2.453-2.148,0ZM50.676,0H47.949L43.918-7.078V0H41.176V-11.375h2.742L47.941-4.3v-7.078h2.734Z" transform="translate(-6793 -8224.183)" fill="#12263f"/>
    <path id="Trazado_1054890" data-name="Trazado 1054890" d="M-20-3.094l2.266-8.281h3.063L-18.5,0h-3l-3.8-11.375h3.039Zm12.031.969h-3.758L-12.379,0h-2.93l4.172-11.375h2.578L-4.355,0H-7.3Zm-3.1-2.117h2.445L-9.848-8.187ZM-.785-2.109H3.988V0H-3.527V-11.375H-.785ZM14.277-5.453a6.708,6.708,0,0,1-.617,2.945A4.561,4.561,0,0,1,11.906-.535a4.884,4.884,0,0,1-2.59.691A4.953,4.953,0,0,1,6.738-.512a4.554,4.554,0,0,1-1.754-1.91,6.515,6.515,0,0,1-.66-2.852v-.641a6.737,6.737,0,0,1,.613-2.949A4.55,4.55,0,0,1,6.7-10.836a4.918,4.918,0,0,1,2.605-.7,4.87,4.87,0,0,1,2.578.688,4.632,4.632,0,0,1,1.762,1.957,6.544,6.544,0,0,1,.637,2.91ZM11.488-5.93A4.783,4.783,0,0,0,10.922-8.5,1.817,1.817,0,0,0,9.3-9.383q-2.062,0-2.18,3.094l-.008.836a4.92,4.92,0,0,0,.555,2.57,1.814,1.814,0,0,0,1.648.9,1.792,1.792,0,0,0,1.6-.883,4.785,4.785,0,0,0,.57-2.539Zm8.43,1.906H18.434V0H15.691V-11.375h4.477a5,5,0,0,1,3.164.9,3.041,3.041,0,0,1,1.141,2.536,3.693,3.693,0,0,1-.48,1.967,3.41,3.41,0,0,1-1.5,1.264L24.863-.117V0H21.926ZM18.434-6.133h1.734a1.557,1.557,0,0,0,1.176-.411,1.59,1.59,0,0,0,.395-1.147,1.608,1.608,0,0,0-.4-1.155,1.542,1.542,0,0,0-1.172-.419H18.434ZM-14.7,14.742h-3.414V24h-2.742V14.742H-24.2V12.625H-14.7Zm10.57,3.8a6.708,6.708,0,0,1-.617,2.945A4.561,4.561,0,0,1-6.5,23.465a4.884,4.884,0,0,1-2.59.691,4.953,4.953,0,0,1-2.578-.668,4.554,4.554,0,0,1-1.754-1.91,6.515,6.515,0,0,1-.66-2.852v-.641a6.737,6.737,0,0,1,.613-2.949,4.55,4.55,0,0,1,1.758-1.973,4.918,4.918,0,0,1,2.605-.7,4.87,4.87,0,0,1,2.578.688,4.632,4.632,0,0,1,1.762,1.957,6.544,6.544,0,0,1,.637,2.91Zm-2.789-.477A4.783,4.783,0,0,0-7.48,15.5,1.817,1.817,0,0,0-9.1,14.617q-2.062,0-2.18,3.094l-.008.836a4.92,4.92,0,0,0,.555,2.57,1.814,1.814,0,0,0,1.648.9,1.792,1.792,0,0,0,1.6-.883,4.785,4.785,0,0,0,.57-2.539ZM5.555,14.742H2.141V24H-.6V14.742H-3.953V12.625H5.555Zm6.68,7.133H8.477L7.82,24H4.891L9.063,12.625h2.578L15.844,24H12.9Zm-3.1-2.117h2.445l-1.227-3.945Zm10.281,2.133h4.773V24H16.672V12.625h2.742Z" transform="translate(-6526 -8236.183)" fill="#12263f"/>
    <path id="Trazado_1054891" data-name="Trazado 1054891" d="M-20-3.094l2.266-8.281h3.063L-18.5,0h-3l-3.8-11.375h3.039Zm12.031.969h-3.758L-12.379,0h-2.93l4.172-11.375h2.578L-4.355,0H-7.3Zm-3.1-2.117h2.445L-9.848-8.187ZM-.785-2.109H3.988V0H-3.527V-11.375H-.785ZM14.277-5.453a6.708,6.708,0,0,1-.617,2.945A4.561,4.561,0,0,1,11.906-.535a4.884,4.884,0,0,1-2.59.691A4.953,4.953,0,0,1,6.738-.512a4.554,4.554,0,0,1-1.754-1.91,6.515,6.515,0,0,1-.66-2.852v-.641a6.737,6.737,0,0,1,.613-2.949A4.55,4.55,0,0,1,6.7-10.836a4.918,4.918,0,0,1,2.605-.7,4.87,4.87,0,0,1,2.578.688,4.632,4.632,0,0,1,1.762,1.957,6.544,6.544,0,0,1,.637,2.91ZM11.488-5.93A4.783,4.783,0,0,0,10.922-8.5,1.817,1.817,0,0,0,9.3-9.383q-2.062,0-2.18,3.094l-.008.836a4.92,4.92,0,0,0,.555,2.57,1.814,1.814,0,0,0,1.648.9,1.792,1.792,0,0,0,1.6-.883,4.785,4.785,0,0,0,.57-2.539Zm8.43,1.906H18.434V0H15.691V-11.375h4.477a5,5,0,0,1,3.164.9,3.041,3.041,0,0,1,1.141,2.536,3.693,3.693,0,0,1-.48,1.967,3.41,3.41,0,0,1-1.5,1.264L24.863-.117V0H21.926ZM18.434-6.133h1.734a1.557,1.557,0,0,0,1.176-.411,1.59,1.59,0,0,0,.395-1.147,1.608,1.608,0,0,0-.4-1.155,1.542,1.542,0,0,0-1.172-.419H18.434ZM-14.7,14.742h-3.414V24h-2.742V14.742H-24.2V12.625H-14.7Zm10.57,3.8a6.708,6.708,0,0,1-.617,2.945A4.561,4.561,0,0,1-6.5,23.465a4.884,4.884,0,0,1-2.59.691,4.953,4.953,0,0,1-2.578-.668,4.554,4.554,0,0,1-1.754-1.91,6.515,6.515,0,0,1-.66-2.852v-.641a6.737,6.737,0,0,1,.613-2.949,4.55,4.55,0,0,1,1.758-1.973,4.918,4.918,0,0,1,2.605-.7,4.87,4.87,0,0,1,2.578.688,4.632,4.632,0,0,1,1.762,1.957,6.544,6.544,0,0,1,.637,2.91Zm-2.789-.477A4.783,4.783,0,0,0-7.48,15.5,1.817,1.817,0,0,0-9.1,14.617q-2.062,0-2.18,3.094l-.008.836a4.92,4.92,0,0,0,.555,2.57,1.814,1.814,0,0,0,1.648.9,1.792,1.792,0,0,0,1.6-.883,4.785,4.785,0,0,0,.57-2.539ZM5.555,14.742H2.141V24H-.6V14.742H-3.953V12.625H5.555Zm6.68,7.133H8.477L7.82,24H4.891L9.063,12.625h2.578L15.844,24H12.9Zm-3.1-2.117h2.445l-1.227-3.945Zm10.281,2.133h4.773V24H16.672V12.625h2.742Z" transform="translate(-6230 -8236.183)" fill="#12263f"/>
    <path id="Trazado_1054892" data-name="Trazado 1054892" d="M-29.5-3.852a4.154,4.154,0,0,1-.641,2.1,3.866,3.866,0,0,1-1.645,1.41,5.6,5.6,0,0,1-2.418.5A4.467,4.467,0,0,1-37.738-1.3,6.032,6.032,0,0,1-39.027-5.43v-.562a6.885,6.885,0,0,1,.582-2.926,4.41,4.41,0,0,1,1.676-1.937,4.676,4.676,0,0,1,2.531-.684,4.9,4.9,0,0,1,3.328,1.09,4.306,4.306,0,0,1,1.43,3h-2.734a2.037,2.037,0,0,0-.523-1.492,2.153,2.153,0,0,0-1.5-.453,1.638,1.638,0,0,0-1.5.766,4.921,4.921,0,0,0-.5,2.445v.8a5.445,5.445,0,0,0,.457,2.6,1.672,1.672,0,0,0,1.574.781,2.106,2.106,0,0,0,1.445-.445,1.89,1.89,0,0,0,.531-1.414Zm7.758,1.727H-25.5L-26.16,0h-2.93l4.172-11.375h2.578L-18.137,0h-2.945Zm-3.1-2.117H-22.4l-1.227-3.945ZM-7.809,0h-2.727l-4.031-7.078V0h-2.742V-11.375h2.742L-10.543-4.3v-7.078h2.734ZM2.855-9.258H-.559V0H-3.3V-9.258H-6.652v-2.117H2.855ZM6.934,0H4.2V-11.375H6.934ZM8.84,0V-11.375H12.5a5.39,5.39,0,0,1,2.711.684,4.805,4.805,0,0,1,1.879,1.93,5.826,5.826,0,0,1,.684,2.793v.523a5.86,5.86,0,0,1-.66,2.8A4.826,4.826,0,0,1,15.258-.707,5.271,5.271,0,0,1,12.582,0Zm2.742-9.258v7.148h.953a2.133,2.133,0,0,0,1.813-.84,4.116,4.116,0,0,0,.633-2.5v-.492a4.082,4.082,0,0,0-.633-2.484A2.17,2.17,0,0,0,12.5-9.258ZM25.645-2.125H21.887L21.23,0H18.3l4.172-11.375h2.578L29.254,0H26.309Zm-3.1-2.117h2.445L23.762-8.187ZM30.082,0V-11.375h3.664a5.39,5.39,0,0,1,2.711.684,4.805,4.805,0,0,1,1.879,1.93,5.826,5.826,0,0,1,.684,2.793v.523a5.86,5.86,0,0,1-.66,2.8A4.826,4.826,0,0,1,36.5-.707,5.271,5.271,0,0,1,33.824,0Zm2.742-9.258v7.148h.953a2.133,2.133,0,0,0,1.813-.84,4.116,4.116,0,0,0,.633-2.5v-.492a4.082,4.082,0,0,0-.633-2.484,2.17,2.17,0,0,0-1.844-.836Z" transform="translate(-6386 -8224.183)" fill="#12263f"/>
    <path id="Trazado_1054893" data-name="Trazado 1054893" d="M-58.516-3.094l2.266-8.281h3.063L-57.016,0h-3l-3.8-11.375h3.039Zm12.031.969h-3.758L-50.9,0h-2.93l4.172-11.375h2.578L-42.875,0H-45.82Zm-3.1-2.117h2.445l-1.227-3.945ZM-39.3-2.109h4.773V0h-7.516V-11.375H-39.3Zm15.063-3.344a6.708,6.708,0,0,1-.617,2.945A4.561,4.561,0,0,1-26.613-.535,4.884,4.884,0,0,1-29.2.156a4.953,4.953,0,0,1-2.578-.668,4.554,4.554,0,0,1-1.754-1.91,6.515,6.515,0,0,1-.66-2.852v-.641a6.737,6.737,0,0,1,.613-2.949,4.55,4.55,0,0,1,1.758-1.973,4.918,4.918,0,0,1,2.605-.7,4.87,4.87,0,0,1,2.578.688,4.632,4.632,0,0,1,1.762,1.957,6.544,6.544,0,0,1,.637,2.91Zm-2.789-.477A4.783,4.783,0,0,0-27.6-8.5a1.817,1.817,0,0,0-1.621-.879q-2.062,0-2.18,3.094l-.008.836a4.92,4.92,0,0,0,.555,2.57,1.814,1.814,0,0,0,1.648.9,1.792,1.792,0,0,0,1.6-.883,4.785,4.785,0,0,0,.57-2.539Zm8.43,1.906h-1.484V0h-2.742V-11.375h4.477a5,5,0,0,1,3.164.9,3.041,3.041,0,0,1,1.141,2.536,3.693,3.693,0,0,1-.48,1.967,3.41,3.41,0,0,1-1.5,1.264l2.375,4.593V0h-2.937Zm-1.484-2.109h1.734a1.557,1.557,0,0,0,1.176-.411,1.59,1.59,0,0,0,.395-1.147,1.608,1.608,0,0,0-.4-1.155,1.542,1.542,0,0,0-1.172-.419h-1.734Zm20.6-5.242V-3.93A4.279,4.279,0,0,1-.023-1.738,3.492,3.492,0,0,1-1.57-.328,5.449,5.449,0,0,1-3.953.156,4.708,4.708,0,0,1-7.227-.922,3.845,3.845,0,0,1-8.445-3.875v-7.5h2.758V-3.82q.047,1.867,1.734,1.867a1.679,1.679,0,0,0,1.289-.469,2.191,2.191,0,0,0,.438-1.523v-7.43ZM11.727,0H9L4.969-7.078V0H2.227V-11.375H4.969L8.992-4.3v-7.078h2.734Zm4.656,0H13.648V-11.375h2.734ZM27.219-9.258H23.8V0H21.063V-9.258H17.711v-2.117h9.508ZM33.9-2.125H30.141L29.484,0h-2.93l4.172-11.375H33.3L37.508,0H34.563ZM30.8-4.242h2.445L32.016-8.187Zm11.766.219H41.078V0H38.336V-11.375h4.477a5,5,0,0,1,3.164.9,3.041,3.041,0,0,1,1.141,2.536,3.693,3.693,0,0,1-.48,1.967,3.41,3.41,0,0,1-1.5,1.264L47.508-.117V0H44.57ZM41.078-6.133h1.734a1.557,1.557,0,0,0,1.176-.411,1.59,1.59,0,0,0,.395-1.147,1.608,1.608,0,0,0-.4-1.155,1.542,1.542,0,0,0-1.172-.419H41.078ZM51.7,0H48.961V-11.375H51.7ZM63.234-5.453a6.708,6.708,0,0,1-.617,2.945A4.561,4.561,0,0,1,60.863-.535a4.884,4.884,0,0,1-2.59.691A4.953,4.953,0,0,1,55.7-.512a4.554,4.554,0,0,1-1.754-1.91,6.515,6.515,0,0,1-.66-2.852v-.641a6.737,6.737,0,0,1,.613-2.949,4.55,4.55,0,0,1,1.758-1.973,4.918,4.918,0,0,1,2.605-.7,4.87,4.87,0,0,1,2.578.688A4.632,4.632,0,0,1,62.6-8.887a6.544,6.544,0,0,1,.637,2.91ZM60.445-5.93A4.783,4.783,0,0,0,59.879-8.5a1.817,1.817,0,0,0-1.621-.879q-2.062,0-2.18,3.094l-.008.836a4.92,4.92,0,0,0,.555,2.57,1.814,1.814,0,0,0,1.648.9,1.792,1.792,0,0,0,1.6-.883,4.785,4.785,0,0,0,.57-2.539Z" transform="translate(-6085 -8224.183)" fill="#12263f"/>
    <path id="Trazado_1054894" data-name="Trazado 1054894" d="M25.012,13.906l2.266-8.281H30.34L26.512,17h-3l-3.8-11.375h3.039Zm12.031.969H33.285L32.629,17H29.7L33.871,5.625h2.578L40.652,17H37.707Zm-3.1-2.117h2.445L35.16,8.813Zm10.281,2.133H49V17H41.48V5.625h2.742Zm15.063-3.344a6.708,6.708,0,0,1-.617,2.945,4.561,4.561,0,0,1-1.754,1.973,4.884,4.884,0,0,1-2.59.691,4.953,4.953,0,0,1-2.578-.668,4.554,4.554,0,0,1-1.754-1.91,6.515,6.515,0,0,1-.66-2.852v-.641a6.737,6.737,0,0,1,.613-2.949A4.55,4.55,0,0,1,51.7,6.164a5.2,5.2,0,0,1,5.184-.008,4.632,4.632,0,0,1,1.762,1.957,6.544,6.544,0,0,1,.637,2.91ZM56.5,11.07A4.783,4.783,0,0,0,55.93,8.5a1.817,1.817,0,0,0-1.621-.879q-2.062,0-2.18,3.094l-.008.836a4.92,4.92,0,0,0,.555,2.57,1.814,1.814,0,0,0,1.648.9,1.792,1.792,0,0,0,1.6-.883,4.785,4.785,0,0,0,.57-2.539Zm8.43,1.906H63.441V17H60.7V5.625h4.477a5,5,0,0,1,3.164.9A3.041,3.041,0,0,1,69.48,9.059,3.693,3.693,0,0,1,69,11.026a3.41,3.41,0,0,1-1.5,1.264l2.375,4.593V17H66.934Zm-1.484-2.109h1.734a1.557,1.557,0,0,0,1.176-.411,1.59,1.59,0,0,0,.395-1.147,1.608,1.608,0,0,0-.4-1.155,1.542,1.542,0,0,0-1.172-.419H63.441ZM32.3,31.742H28.891V41H26.148V31.742H22.8V29.625H32.3Zm10.57,3.8a6.708,6.708,0,0,1-.617,2.945A4.561,4.561,0,0,1,40.5,40.465a4.884,4.884,0,0,1-2.59.691,4.953,4.953,0,0,1-2.578-.668,4.554,4.554,0,0,1-1.754-1.91,6.515,6.515,0,0,1-.66-2.852v-.641a6.737,6.737,0,0,1,.613-2.949,4.55,4.55,0,0,1,1.758-1.973,5.2,5.2,0,0,1,5.184-.008,4.632,4.632,0,0,1,1.762,1.957,6.544,6.544,0,0,1,.637,2.91Zm-2.789-.477A4.783,4.783,0,0,0,39.52,32.5a1.817,1.817,0,0,0-1.621-.879q-2.062,0-2.18,3.094l-.008.836a4.92,4.92,0,0,0,.555,2.57,1.814,1.814,0,0,0,1.648.9,1.792,1.792,0,0,0,1.6-.883,4.785,4.785,0,0,0,.57-2.539Zm12.469-3.328H49.141V41H46.4V31.742H43.047V29.625h9.508Zm6.68,7.133H55.477L54.82,41h-2.93l4.172-11.375h2.578L62.844,41H59.9Zm-3.1-2.117h2.445l-1.227-3.945Zm10.281,2.133h4.773V41H63.672V29.625h2.742Z" transform="translate(-5988 -8251.184)" fill="#12263f"/>
    <path id="Trazado_1054882" data-name="Trazado 1054882" d="M5.227-4.164H3.359V0H1.016V-11.375H5.242a4.778,4.778,0,0,1,3.109.9A3.1,3.1,0,0,1,9.445-7.937,3.5,3.5,0,0,1,8.941-6,3.437,3.437,0,0,1,7.414-4.758L9.875-.109V0H7.359Zm-1.867-1.9H5.25a1.936,1.936,0,0,0,1.367-.449A1.606,1.606,0,0,0,7.1-7.75a1.719,1.719,0,0,0-.457-1.266,1.9,1.9,0,0,0-1.4-.461H3.359ZM18.07-4.93h-4.5v3.047h5.281V0H11.227V-11.375h7.609v1.9H13.57v2.711h4.5Zm9,.281h-4.5V0H20.227V-11.375h7.406v1.9H22.57v2.938h4.5Zm8.766-.281h-4.5v3.047h5.281V0H28.992V-11.375H36.6v1.9H31.336v2.711h4.5Zm6.367.766H40.336V0H37.992V-11.375h4.227a4.778,4.778,0,0,1,3.109.9,3.1,3.1,0,0,1,1.094,2.539A3.5,3.5,0,0,1,45.918-6a3.437,3.437,0,0,1-1.527,1.238L46.852-.109V0H44.336Zm-1.867-1.9h1.891a1.936,1.936,0,0,0,1.367-.449,1.606,1.606,0,0,0,.484-1.238,1.719,1.719,0,0,0-.457-1.266,1.9,1.9,0,0,0-1.4-.461H40.336ZM55.047-4.93h-4.5v3.047h5.281V0H48.2V-11.375h7.609v1.9H50.547v2.711h4.5ZM66.453,0H64.109L59.547-7.484V0H57.2V-11.375h2.344l4.57,7.5v-7.5h2.336ZM77.43-3.789A4.025,4.025,0,0,1,76.074-.9,4.76,4.76,0,0,1,72.852.156,4.28,4.28,0,0,1,69.41-1.316a6.038,6.038,0,0,1-1.254-4.043v-.7a6.819,6.819,0,0,1,.578-2.891,4.332,4.332,0,0,1,1.652-1.918,4.629,4.629,0,0,1,2.5-.668,4.637,4.637,0,0,1,3.172,1.055,4.326,4.326,0,0,1,1.391,2.961H75.1a2.376,2.376,0,0,0-.613-1.6,2.271,2.271,0,0,0-1.605-.5,1.991,1.991,0,0,0-1.754.84,4.707,4.707,0,0,0-.6,2.605V-5.3a5.038,5.038,0,0,0,.559,2.7,1.954,1.954,0,0,0,1.762.852,2.314,2.314,0,0,0,1.621-.5,2.241,2.241,0,0,0,.613-1.535ZM81.461,0H79.117V-11.375h2.344Zm8.594-2.344H85.945L85.164,0H82.672l4.234-11.375h2.172L93.336,0H90.844Zm-3.477-1.9h2.844L87.992-8.5ZM3.359,35.992V40H1.016V28.625H5.453a5.134,5.134,0,0,1,2.254.469,3.454,3.454,0,0,1,1.5,1.332,3.714,3.714,0,0,1,.523,1.965,3.266,3.266,0,0,1-1.145,2.637,4.767,4.767,0,0,1-3.168.965Zm0-1.9H5.453a2.059,2.059,0,0,0,1.418-.437,1.591,1.591,0,0,0,.488-1.25,1.876,1.876,0,0,0-.492-1.352,1.839,1.839,0,0,0-1.359-.531H3.359Zm12.188,1.742H13.68V40H11.336V28.625h4.227a4.778,4.778,0,0,1,3.109.9,3.1,3.1,0,0,1,1.094,2.539,3.5,3.5,0,0,1-.5,1.941,3.437,3.437,0,0,1-1.527,1.238L20.2,39.891V40H17.68Zm-1.867-1.9H15.57a1.936,1.936,0,0,0,1.367-.449,1.606,1.606,0,0,0,.484-1.238,1.719,1.719,0,0,0-.457-1.266,1.9,1.9,0,0,0-1.4-.461H13.68Zm17.211.633a6.867,6.867,0,0,1-.594,2.945,4.472,4.472,0,0,1-1.7,1.953,5.021,5.021,0,0,1-5.059.008,4.515,4.515,0,0,1-1.719-1.941,6.67,6.67,0,0,1-.617-2.9V34.07a6.831,6.831,0,0,1,.605-2.957,4.508,4.508,0,0,1,1.711-1.961,5.014,5.014,0,0,1,5.055,0,4.508,4.508,0,0,1,1.711,1.961,6.811,6.811,0,0,1,.605,2.949Zm-2.375-.516a4.787,4.787,0,0,0-.641-2.719,2.263,2.263,0,0,0-3.648-.012,4.732,4.732,0,0,0-.648,2.691v.555a4.847,4.847,0,0,0,.641,2.7,2.243,2.243,0,0,0,3.656.035,4.819,4.819,0,0,0,.641-2.7Zm8.109,3.125L39.2,28.625h2.609L37.852,40H35.406L31.461,28.625h2.6Zm13.1-2.109h-4.5v3.047h5.281V40H42.883V28.625h7.609v1.9H45.227v2.711h4.5Zm9,0h-4.5v3.047h5.281V40H51.883V28.625h7.609v1.9H54.227v2.711h4.5ZM60.883,40V28.625h3.5a5.315,5.315,0,0,1,2.684.676,4.712,4.712,0,0,1,1.848,1.922,5.928,5.928,0,0,1,.664,2.832v.523a5.945,5.945,0,0,1-.652,2.82,4.672,4.672,0,0,1-1.84,1.914,5.355,5.355,0,0,1-2.68.688Zm2.344-9.477v7.594h1.133a2.545,2.545,0,0,0,2.1-.9,4.06,4.06,0,0,0,.742-2.57v-.6a4.124,4.124,0,0,0-.719-2.629,2.537,2.537,0,0,0-2.1-.895Zm17.4,4.047a6.867,6.867,0,0,1-.594,2.945,4.472,4.472,0,0,1-1.7,1.953,5.021,5.021,0,0,1-5.059.008,4.515,4.515,0,0,1-1.719-1.941,6.67,6.67,0,0,1-.617-2.9V34.07a6.831,6.831,0,0,1,.605-2.957,4.508,4.508,0,0,1,1.711-1.961,5.014,5.014,0,0,1,5.055,0,4.508,4.508,0,0,1,1.711,1.961,6.811,6.811,0,0,1,.605,2.949Zm-2.375-.516a4.787,4.787,0,0,0-.641-2.719,2.263,2.263,0,0,0-3.648-.012,4.732,4.732,0,0,0-.648,2.691v.555a4.847,4.847,0,0,0,.641,2.7,2.243,2.243,0,0,0,3.656.035,4.819,4.819,0,0,0,.641-2.7Zm8.289,1.781H84.672V40H82.328V28.625h4.227a4.778,4.778,0,0,1,3.109.9,3.1,3.1,0,0,1,1.094,2.539,3.5,3.5,0,0,1-.5,1.941,3.437,3.437,0,0,1-1.527,1.238l2.461,4.648V40H88.672Zm-1.867-1.9h1.891a1.936,1.936,0,0,0,1.367-.449,1.606,1.606,0,0,0,.484-1.238,1.719,1.719,0,0,0-.457-1.266,1.9,1.9,0,0,0-1.4-.461H84.672ZM99.383,35.07h-4.5v3.047h5.281V40H92.539V28.625h7.609v1.9H94.883v2.711h4.5Zm8.055,1.945a1.2,1.2,0,0,0-.469-1.02,6.148,6.148,0,0,0-1.687-.75,11.963,11.963,0,0,1-1.93-.777,3.153,3.153,0,0,1-1.937-2.82,2.747,2.747,0,0,1,.52-1.645,3.389,3.389,0,0,1,1.492-1.129,5.616,5.616,0,0,1,2.184-.406,5.112,5.112,0,0,1,2.172.441,3.458,3.458,0,0,1,1.48,1.246,3.261,3.261,0,0,1,.527,1.828h-2.344a1.534,1.534,0,0,0-.492-1.215,2.023,2.023,0,0,0-1.383-.434,2.162,2.162,0,0,0-1.336.363,1.146,1.146,0,0,0-.477.957,1.1,1.1,0,0,0,.559.93,6.311,6.311,0,0,0,1.645.7,7.106,7.106,0,0,1,2.914,1.492A2.972,2.972,0,0,1,109.789,37a2.737,2.737,0,0,1-1.117,2.316,4.891,4.891,0,0,1-3.008.84,5.808,5.808,0,0,1-2.391-.48,3.783,3.783,0,0,1-1.645-1.316,3.371,3.371,0,0,1-.566-1.937h2.352q0,1.883,2.25,1.883a2.189,2.189,0,0,0,1.3-.34A1.106,1.106,0,0,0,107.438,37.016Z" transform="translate(-7012 -8464.582)" fill="#12263f"/>
    <path id="Trazado_1034054" data-name="Trazado 1034054" d="M-149.369-10636H1001.72" transform="translate(-6885.818 2182.795)" fill="none" stroke="#d6d6d6" stroke-width="1"/>
    <path id="Trazado_1034075" data-name="Trazado 1034075" d="M-149.369-10636H1002.567" transform="translate(-6886.614 2229.75)" fill="none" stroke="#d6d6d6" stroke-width="1"/>
    <path id="Trazado_1034072" data-name="Trazado 1034072" d="M0,0V388.453" transform="translate(-6577.022 -8488.846)" fill="none" stroke="#d6d6d6" stroke-linecap="round" stroke-width="1"/>
    <path id="Trazado_1054897" data-name="Trazado 1054897" d="M-61.086-3.789A4.025,4.025,0,0,1-62.441-.9,4.76,4.76,0,0,1-65.664.156a4.28,4.28,0,0,1-3.441-1.473,6.038,6.038,0,0,1-1.254-4.043v-.7a6.819,6.819,0,0,1,.578-2.891,4.332,4.332,0,0,1,1.652-1.918,4.629,4.629,0,0,1,2.5-.668,4.637,4.637,0,0,1,3.172,1.055A4.326,4.326,0,0,1-61.07-7.516h-2.344a2.376,2.376,0,0,0-.613-1.6,2.271,2.271,0,0,0-1.605-.5,1.991,1.991,0,0,0-1.754.84,4.707,4.707,0,0,0-.6,2.605V-5.3a5.038,5.038,0,0,0,.559,2.7,1.954,1.954,0,0,0,1.762.852,2.314,2.314,0,0,0,1.621-.5,2.241,2.241,0,0,0,.613-1.535Zm7.961,1.445h-4.109L-58.016,0h-2.492l4.234-11.375H-54.1L-49.844,0h-2.492Zm-3.477-1.9h2.844L-55.187-8.5ZM-39.531,0h-2.344l-4.562-7.484V0h-2.344V-11.375h2.344l4.57,7.5v-7.5h2.336Zm10.609-9.477h-3.484V0H-34.75V-9.477h-3.437v-1.9h9.266ZM-25.094,0h-2.344V-11.375h2.344Zm2.172,0V-11.375h3.5a5.315,5.315,0,0,1,2.684.676,4.712,4.712,0,0,1,1.848,1.922,5.928,5.928,0,0,1,.664,2.832v.523a5.945,5.945,0,0,1-.652,2.82,4.672,4.672,0,0,1-1.84,1.914A5.355,5.355,0,0,1-19.4,0Zm2.344-9.477v7.594h1.133a2.545,2.545,0,0,0,2.1-.9,4.06,4.06,0,0,0,.742-2.57v-.6a4.124,4.124,0,0,0-.719-2.629,2.537,2.537,0,0,0-2.1-.895ZM-6.1-2.344h-4.109L-10.992,0h-2.492L-9.25-11.375h2.172L-2.82,0H-5.312Zm-3.477-1.9h2.844L-8.164-8.5ZM-1.758,0V-11.375h3.5a5.315,5.315,0,0,1,2.684.676A4.712,4.712,0,0,1,6.273-8.777a5.928,5.928,0,0,1,.664,2.832v.523A5.945,5.945,0,0,1,6.285-2.6,4.672,4.672,0,0,1,4.445-.687,5.355,5.355,0,0,1,1.766,0ZM.586-9.477v7.594H1.719a2.545,2.545,0,0,0,2.1-.9,4.06,4.06,0,0,0,.742-2.57v-.6a4.124,4.124,0,0,0-.719-2.629,2.537,2.537,0,0,0-2.1-.895Zm15.1-1.9,2.922,8.25,2.906-8.25h3.078V0H22.242V-3.109l.234-5.367L19.406,0H17.8L14.734-8.469l.234,5.359V0H12.625V-11.375ZM29.133,0H26.789V-11.375h2.344Zm-.727-14.445h2.461L28.7-12.023H26.867ZM40.555,0H38.211L33.648-7.484V0H31.3V-11.375h2.344l4.57,7.5v-7.5h2.336Zm4.539,0H42.75V-11.375h2.344Zm5.234-11.375,2.922,8.25,2.906-8.25h3.078V0H56.883V-3.109l.234-5.367L54.047,0H52.438L49.375-8.469l.234,5.359V0H47.266V-11.375ZM67.7-2.344H63.594L62.813,0H60.32l4.234-11.375h2.172L70.984,0H68.492Zm-3.477-1.9H67.07L65.641-8.5Z" transform="translate(-6386 -8465)" fill="#12263f"/>
    <path id="Trazado_1054901" data-name="Trazado 1054901" d="M-63.57-3.789A4.025,4.025,0,0,1-64.926-.9,4.76,4.76,0,0,1-68.148.156,4.28,4.28,0,0,1-71.59-1.316a6.038,6.038,0,0,1-1.254-4.043v-.7a6.819,6.819,0,0,1,.578-2.891,4.332,4.332,0,0,1,1.652-1.918,4.629,4.629,0,0,1,2.5-.668,4.637,4.637,0,0,1,3.172,1.055,4.326,4.326,0,0,1,1.391,2.961H-65.9a2.376,2.376,0,0,0-.613-1.6,2.271,2.271,0,0,0-1.605-.5,1.991,1.991,0,0,0-1.754.84,4.707,4.707,0,0,0-.6,2.605V-5.3a5.038,5.038,0,0,0,.559,2.7,1.954,1.954,0,0,0,1.762.852,2.314,2.314,0,0,0,1.621-.5,2.241,2.241,0,0,0,.613-1.535Zm7.961,1.445h-4.109L-60.5,0h-2.492l4.234-11.375h2.172L-52.328,0H-54.82Zm-3.477-1.9h2.844L-57.672-8.5ZM-42.016,0h-2.344l-4.562-7.484V0h-2.344V-11.375h2.344l4.57,7.5v-7.5h2.336Zm10.609-9.477h-3.484V0h-2.344V-9.477h-3.437v-1.9h9.266ZM-27.578,0h-2.344V-11.375h2.344Zm2.172,0V-11.375h3.5a5.315,5.315,0,0,1,2.684.676,4.712,4.712,0,0,1,1.848,1.922,5.928,5.928,0,0,1,.664,2.832v.523a5.945,5.945,0,0,1-.652,2.82A4.672,4.672,0,0,1-19.2-.687,5.355,5.355,0,0,1-21.883,0Zm2.344-9.477v7.594h1.133a2.545,2.545,0,0,0,2.1-.9,4.06,4.06,0,0,0,.742-2.57v-.6A4.124,4.124,0,0,0-19.8-8.582a2.537,2.537,0,0,0-2.1-.895ZM-8.586-2.344H-12.7L-13.477,0h-2.492l4.234-11.375h2.172L-5.3,0H-7.8Zm-3.477-1.9h2.844L-10.648-8.5ZM-4.242,0V-11.375h3.5a5.315,5.315,0,0,1,2.684.676A4.712,4.712,0,0,1,3.789-8.777a5.928,5.928,0,0,1,.664,2.832v.523A5.945,5.945,0,0,1,3.8-2.6,4.672,4.672,0,0,1,1.961-.687,5.355,5.355,0,0,1-.719,0ZM-1.9-9.477v7.594H-.766a2.545,2.545,0,0,0,2.1-.9,4.06,4.06,0,0,0,.742-2.57v-.6a4.124,4.124,0,0,0-.719-2.629,2.537,2.537,0,0,0-2.1-.895Zm15.1-1.9,2.922,8.25,2.906-8.25h3.078V0H19.758V-3.109l.234-5.367L16.922,0H15.313L12.25-8.469l.234,5.359V0H10.141V-11.375ZM30.578-2.344H26.469L25.688,0H23.2L27.43-11.375H29.6L33.859,0H31.367ZM27.1-4.242h2.844L28.516-8.5ZM29-14.422h2.461L29.3-12H27.461Zm9.992,6.969,2.133-3.922h2.7L40.508-5.734,43.906,0H41.18L38.992-3.984,36.8,0H34.078l3.4-5.734-3.312-5.641h2.7ZM47.578,0H45.234V-11.375h2.344Zm5.234-11.375,2.922,8.25,2.906-8.25h3.078V0H59.367V-3.109L59.6-8.477,56.531,0H54.922L51.859-8.469l.234,5.359V0H49.75V-11.375ZM70.188-2.344H66.078L65.3,0H62.8l4.234-11.375h2.172L73.469,0H70.977Zm-3.477-1.9h2.844L68.125-8.5Z" transform="translate(-6085 -8465)" fill="#12263f"/>
    <path id="Trazado_1054900" data-name="Trazado 1054900" d="M7.453-4.281H8.742v1.82H7.453V0H5.2V-2.461H.531L.43-3.883l4.742-7.492H7.453Zm-4.773,0H5.2V-8.3l-.148.258Zm7.484,3.172a1.137,1.137,0,0,1,.363-.875,1.289,1.289,0,0,1,.91-.336,1.3,1.3,0,0,1,.918.336,1.137,1.137,0,0,1,.363.875,1.121,1.121,0,0,1-.359.863,1.305,1.305,0,0,1-.922.332,1.294,1.294,0,0,1-.914-.332A1.121,1.121,0,0,1,10.164-1.109ZM22.258-4.7a5.763,5.763,0,0,1-.977,3.609A3.409,3.409,0,0,1,18.422.156,3.433,3.433,0,0,1,15.578-1.07,5.594,5.594,0,0,1,14.57-4.586V-6.68a5.687,5.687,0,0,1,.988-3.617,3.434,3.434,0,0,1,2.848-1.234,3.437,3.437,0,0,1,2.844,1.223A5.576,5.576,0,0,1,22.258-6.8ZM20-7.005a4.165,4.165,0,0,0-.387-2.061,1.307,1.307,0,0,0-1.207-.645A1.284,1.284,0,0,0,17.23-9.1a3.9,3.9,0,0,0-.4,1.92v2.768a4.373,4.373,0,0,0,.379,2.068,1.29,1.29,0,0,0,1.215.676,1.268,1.268,0,0,0,1.2-.649A4.268,4.268,0,0,0,20-4.3ZM31.438-4.7a5.763,5.763,0,0,1-.977,3.609A3.409,3.409,0,0,1,27.6.156,3.433,3.433,0,0,1,24.758-1.07,5.594,5.594,0,0,1,23.75-4.586V-6.68a5.687,5.687,0,0,1,.988-3.617,3.434,3.434,0,0,1,2.848-1.234,3.437,3.437,0,0,1,2.844,1.223A5.576,5.576,0,0,1,31.438-6.8Zm-2.258-2.3a4.165,4.165,0,0,0-.387-2.061,1.307,1.307,0,0,0-1.207-.645A1.284,1.284,0,0,0,26.41-9.1a3.9,3.9,0,0,0-.4,1.92v2.768a4.373,4.373,0,0,0,.379,2.068,1.29,1.29,0,0,0,1.215.676,1.268,1.268,0,0,0,1.2-.649A4.268,4.268,0,0,0,29.18-4.3ZM40.617-4.7a5.762,5.762,0,0,1-.977,3.609A3.409,3.409,0,0,1,36.781.156,3.433,3.433,0,0,1,33.938-1.07,5.594,5.594,0,0,1,32.93-4.586V-6.68a5.687,5.687,0,0,1,.988-3.617,3.434,3.434,0,0,1,2.848-1.234,3.437,3.437,0,0,1,2.844,1.223A5.576,5.576,0,0,1,40.617-6.8Zm-2.258-2.3a4.165,4.165,0,0,0-.387-2.061,1.307,1.307,0,0,0-1.207-.645A1.284,1.284,0,0,0,35.59-9.1a3.9,3.9,0,0,0-.4,1.92v2.768a4.372,4.372,0,0,0,.379,2.068,1.29,1.29,0,0,0,1.215.676,1.268,1.268,0,0,0,1.2-.649A4.268,4.268,0,0,0,38.359-4.3Z" transform="translate(-6251 -8465)" fill="#12263f"/>
    <path id="Trazado_1034067" data-name="Trazado 1034067" d="M0,0V388.453" transform="translate(-6868.982 -8488.846)" fill="none" stroke="#d6d6d6" stroke-linecap="round" stroke-width="1"/>
    <path id="Trazado_1034112" data-name="Trazado 1034112" d="M0,0V388.454" transform="translate(-6719.982 -8488.846)" fill="none" stroke="#d6d6d6" stroke-linecap="round" stroke-width="1"/>
    <path id="Trazado_1054898" data-name="Trazado 1054898" d="M9.945-3.789A4.025,4.025,0,0,1,8.59-.9,4.76,4.76,0,0,1,5.367.156,4.28,4.28,0,0,1,1.926-1.316,6.038,6.038,0,0,1,.672-5.359v-.7A6.819,6.819,0,0,1,1.25-8.945,4.332,4.332,0,0,1,2.9-10.863a4.629,4.629,0,0,1,2.5-.668A4.637,4.637,0,0,1,8.57-10.477,4.326,4.326,0,0,1,9.961-7.516H7.617A2.376,2.376,0,0,0,7-9.113a2.271,2.271,0,0,0-1.605-.5,1.991,1.991,0,0,0-1.754.84,4.707,4.707,0,0,0-.6,2.605V-5.3a5.038,5.038,0,0,0,.559,2.7,1.954,1.954,0,0,0,1.762.852,2.314,2.314,0,0,0,1.621-.5A2.241,2.241,0,0,0,7.6-3.789Zm7.961,1.445H13.8L13.016,0H10.523l4.234-11.375H16.93L21.188,0H18.7Zm-3.477-1.9h2.844L15.844-8.5ZM31.5,0H29.156L24.594-7.484V0H22.25V-11.375h2.344l4.57,7.5v-7.5H31.5ZM42.109-9.477H38.625V0H36.281V-9.477H32.844v-1.9h9.266ZM45.938,0H43.594V-11.375h2.344Zm2.172,0V-11.375h3.5a5.315,5.315,0,0,1,2.684.676,4.712,4.712,0,0,1,1.848,1.922A5.928,5.928,0,0,1,56.8-5.945v.523a5.945,5.945,0,0,1-.652,2.82,4.672,4.672,0,0,1-1.84,1.914A5.355,5.355,0,0,1,51.633,0Zm2.344-9.477v7.594h1.133a2.545,2.545,0,0,0,2.1-.9,4.06,4.06,0,0,0,.742-2.57v-.6a4.124,4.124,0,0,0-.719-2.629,2.537,2.537,0,0,0-2.1-.895ZM64.93-2.344H60.82L60.039,0H57.547l4.234-11.375h2.172L68.211,0H65.719Zm-3.477-1.9H64.3L62.867-8.5ZM69.273,0V-11.375h3.5a5.315,5.315,0,0,1,2.684.676A4.712,4.712,0,0,1,77.3-8.777a5.928,5.928,0,0,1,.664,2.832v.523a5.945,5.945,0,0,1-.652,2.82,4.672,4.672,0,0,1-1.84,1.914A5.355,5.355,0,0,1,72.8,0Zm2.344-9.477v7.594H72.75a2.545,2.545,0,0,0,2.1-.9,4.06,4.06,0,0,0,.742-2.57v-.6a4.124,4.124,0,0,0-.719-2.629,2.537,2.537,0,0,0-2.1-.895Z" transform="translate(-6687 -8223.183)" fill="#12263f"/>
    <path id="Trazado_1054886" data-name="Trazado 1054886" d="M7.859-4.93h-4.5v3.047H8.641V0H1.016V-11.375H8.625v1.9H3.359v2.711h4.5ZM19.266,0H16.922L12.359-7.484V0H10.016V-11.375h2.344l4.57,7.5v-7.5h2.336ZM29.875-9.477H26.391V0H24.047V-9.477H20.609v-1.9h9.266Zm5.547,5.313H33.555V0H31.211V-11.375h4.227a4.778,4.778,0,0,1,3.109.9,3.1,3.1,0,0,1,1.094,2.539A3.5,3.5,0,0,1,39.137-6a3.437,3.437,0,0,1-1.527,1.238L40.07-.109V0H37.555Zm-1.867-1.9h1.891a1.936,1.936,0,0,0,1.367-.449A1.606,1.606,0,0,0,37.3-7.75a1.719,1.719,0,0,0-.457-1.266,1.9,1.9,0,0,0-1.4-.461H33.555ZM47.844-2.344H43.734L42.953,0H40.461L44.7-11.375h2.172L51.125,0H48.633Zm-3.477-1.9h2.844L45.781-8.5ZM52.188,0V-11.375h3.5a5.315,5.315,0,0,1,2.684.676,4.712,4.712,0,0,1,1.848,1.922,5.928,5.928,0,0,1,.664,2.832v.523A5.945,5.945,0,0,1,60.23-2.6a4.672,4.672,0,0,1-1.84,1.914A5.355,5.355,0,0,1,55.711,0Zm2.344-9.477v7.594h1.133a2.545,2.545,0,0,0,2.1-.9,4.06,4.06,0,0,0,.742-2.57v-.6a4.124,4.124,0,0,0-.719-2.629,2.537,2.537,0,0,0-2.1-.895ZM69.008-2.344H64.9L64.117,0H61.625l4.234-11.375h2.172L72.289,0H69.8Zm-3.477-1.9h2.844L66.945-8.5Z" transform="translate(-6684 -8280)" fill="#12263f"/>
    <path id="Trazado_1054887" data-name="Trazado 1054887" d="M6.914-2.984A1.2,1.2,0,0,0,6.445-4a6.148,6.148,0,0,0-1.687-.75,11.963,11.963,0,0,1-1.93-.777A3.153,3.153,0,0,1,.891-8.352,2.747,2.747,0,0,1,1.41-10,3.389,3.389,0,0,1,2.9-11.125a5.616,5.616,0,0,1,2.184-.406,5.112,5.112,0,0,1,2.172.441,3.458,3.458,0,0,1,1.48,1.246,3.261,3.261,0,0,1,.527,1.828H6.922A1.534,1.534,0,0,0,6.43-9.23a2.023,2.023,0,0,0-1.383-.434A2.162,2.162,0,0,0,3.711-9.3a1.146,1.146,0,0,0-.477.957,1.1,1.1,0,0,0,.559.93,6.311,6.311,0,0,0,1.645.7A7.106,7.106,0,0,1,8.352-5.219,2.972,2.972,0,0,1,9.266-3,2.737,2.737,0,0,1,8.148-.684a4.891,4.891,0,0,1-3.008.84A5.808,5.808,0,0,1,2.75-.324,3.783,3.783,0,0,1,1.105-1.641,3.371,3.371,0,0,1,.539-3.578H2.891q0,1.883,2.25,1.883a2.189,2.189,0,0,0,1.3-.34A1.106,1.106,0,0,0,6.914-2.984Zm10.359.641H13.164L12.383,0H9.891l4.234-11.375H16.3L20.555,0H18.063ZM13.8-4.242h2.844L15.211-8.5ZM23.961-1.883h4.977V0h-7.32V-11.375h2.344ZM32.773,0H30.43V-11.375h2.344Zm2.172,0V-11.375h3.5a5.315,5.315,0,0,1,2.684.676,4.712,4.712,0,0,1,1.848,1.922,5.928,5.928,0,0,1,.664,2.832v.523a5.945,5.945,0,0,1-.652,2.82,4.672,4.672,0,0,1-1.84,1.914A5.355,5.355,0,0,1,38.469,0Zm2.344-9.477v7.594h1.133a2.545,2.545,0,0,0,2.1-.9,4.06,4.06,0,0,0,.742-2.57v-.6a4.124,4.124,0,0,0-.719-2.629,2.537,2.537,0,0,0-2.1-.895ZM51.766-2.344H47.656L46.875,0H44.383l4.234-11.375h2.172L55.047,0H52.555Zm-3.477-1.9h2.844L49.7-8.5Z" transform="translate(-6554 -8280)" fill="#12263f"/>
    <path id="Trazado_1054899" data-name="Trazado 1054899" d="M6.914-2.984A1.2,1.2,0,0,0,6.445-4a6.148,6.148,0,0,0-1.687-.75,11.963,11.963,0,0,1-1.93-.777A3.153,3.153,0,0,1,.891-8.352,2.747,2.747,0,0,1,1.41-10,3.389,3.389,0,0,1,2.9-11.125a5.616,5.616,0,0,1,2.184-.406,5.112,5.112,0,0,1,2.172.441,3.458,3.458,0,0,1,1.48,1.246,3.261,3.261,0,0,1,.527,1.828H6.922A1.534,1.534,0,0,0,6.43-9.23a2.023,2.023,0,0,0-1.383-.434A2.162,2.162,0,0,0,3.711-9.3a1.146,1.146,0,0,0-.477.957,1.1,1.1,0,0,0,.559.93,6.311,6.311,0,0,0,1.645.7A7.106,7.106,0,0,1,8.352-5.219,2.972,2.972,0,0,1,9.266-3,2.737,2.737,0,0,1,8.148-.684a4.891,4.891,0,0,1-3.008.84A5.808,5.808,0,0,1,2.75-.324,3.783,3.783,0,0,1,1.105-1.641,3.371,3.371,0,0,1,.539-3.578H2.891q0,1.883,2.25,1.883a2.189,2.189,0,0,0,1.3-.34A1.106,1.106,0,0,0,6.914-2.984Zm10.359.641H13.164L12.383,0H9.891l4.234-11.375H16.3L20.555,0H18.063ZM13.8-4.242h2.844L15.211-8.5ZM23.961-1.883h4.977V0h-7.32V-11.375h2.344ZM32.773,0H30.43V-11.375h2.344Zm2.172,0V-11.375h3.5a5.315,5.315,0,0,1,2.684.676,4.712,4.712,0,0,1,1.848,1.922,5.928,5.928,0,0,1,.664,2.832v.523a5.945,5.945,0,0,1-.652,2.82,4.672,4.672,0,0,1-1.84,1.914A5.355,5.355,0,0,1,38.469,0Zm2.344-9.477v7.594h1.133a2.545,2.545,0,0,0,2.1-.9,4.06,4.06,0,0,0,.742-2.57v-.6a4.124,4.124,0,0,0-.719-2.629,2.537,2.537,0,0,0-2.1-.895ZM51.766-2.344H47.656L46.875,0H44.383l4.234-11.375h2.172L55.047,0H52.555Zm-3.477-1.9h2.844L49.7-8.5Z" transform="translate(-6414 -8280)" fill="#12263f"/>
    <path id="Trazado_1034109" data-name="Trazado 1034109" d="M0,0V388.453" transform="translate(-6478.982 -8488.846)" fill="none" stroke="#d6d6d6" stroke-linecap="round" stroke-width="1"/>
    <path id="Trazado_1034110" data-name="Trazado 1034110" d="M0,0V388.453" transform="translate(-6292.022 -8488.846)" fill="none" stroke="#d6d6d6" stroke-linecap="round" stroke-width="1"/>
    <path id="Trazado_1034111" data-name="Trazado 1034111" d="M0,0V388.453" transform="translate(-6172.982 -8488.846)" fill="none" stroke="#d6d6d6" stroke-linecap="round" stroke-width="1"/>
    <path id="Trazado_1054324" data-name="Trazado 1054324" d="M0,0V388.107" transform="translate(-5998.982 -8488.5)" fill="none" stroke="#d6d6d6" stroke-linecap="round" stroke-width="1"/>
  </g>
</svg>
