<svg xmlns="http://www.w3.org/2000/svg" width="191.191" height="212.198" viewBox="0 0 191.191 212.198">
  <g id="Grupo_1113728" data-name="Grupo 1113728" transform="translate(-1100.297 -9627.764)">
    <path id="Trazado_1034150" data-name="Trazado 1034150" d="M0,222.125v0Z" transform="translate(1125.794 9617.764)" fill="#412976"/>
    <g id="Grupo_1113434" data-name="Grupo 1113434" transform="translate(1121.488 9638.368)">
      <g id="Grupo_1113433" data-name="Grupo 1113433" transform="translate(0 0)">
        <path id="Trazado_901609" data-name="Trazado 901609" d="M257.749,105.533a72.665,72.665,0,0,1,1.309,33.641,64.845,64.845,0,0,1-14.6,30,68.315,68.315,0,0,1-26.607,18.5,65.427,65.427,0,0,1-33.206,3.706c-11.984-1.756-23.26-6.174-34.581-10.037-11.2-3.815-22.908-7.313-34.989-6.8-6.262.271-12.336,1.827-18.531,2.61-5.63.717-11.637.755-16.682-2.026-9.314-5.139-10.639-16.6-10.613-25.707a99.112,99.112,0,0,1,.54-10.065,80.02,80.02,0,0,1,5.742-28.72c4.479-11.489,11.113-22.162,18.633-32.146a131.822,131.822,0,0,1,23.413-24.53,79.143,79.143,0,0,1,30.393-15.209,79.793,79.793,0,0,1,36.232.356,103.747,103.747,0,0,1,33.389,14.46,105.687,105.687,0,0,1,24.87,22.551,83.928,83.928,0,0,1,15.291,29.413" transform="translate(-90.438 -19.417)" fill="#5b39a6"/>
        <path id="Trazado_901610" data-name="Trazado 901610" d="M399.674,42.069c0,7.527-7.033,13.633-15.711,13.633q-.686,0-1.356-.051a4.013,4.013,0,0,0-2.577.742,16.947,16.947,0,0,1-7.436,2.547c.033-.023.06-.046.093-.069a4.647,4.647,0,0,0,.158-7.176,12.733,12.733,0,0,1-4.592-9.626c0-7.532,7.033-13.633,15.711-13.633s15.711,6.1,15.711,13.633" transform="translate(-239.484 -27.406)" fill="#a0a8fb"/>
        <path id="Trazado_901611" data-name="Trazado 901611" d="M393.27,42.769A10.157,10.157,0,0,1,386.912,55.3a9.449,9.449,0,0,1-11.87-6.711A10.156,10.156,0,0,1,381.4,36.058a9.448,9.448,0,0,1,11.869,6.71" transform="translate(-243.16 -31.38)" fill="#e8a03f"/>
        <path id="Trazado_901612" data-name="Trazado 901612" d="M393.911,45.327a8.468,8.468,0,0,1-5.3,10.439,7.878,7.878,0,0,1-9.889-5.591,8.469,8.469,0,0,1,5.3-10.439,7.878,7.878,0,0,1,9.889,5.591" transform="translate(-245.322 -33.453)" fill="#ecb45e"/>
        <path id="Trazado_901613" data-name="Trazado 901613" d="M392.91,53.857l.486,1.7-2.042.652-.464-1.621a8.445,8.445,0,0,1-4.028.118l.348-2.98a6.892,6.892,0,0,0,3.625-.089c.97-.31,1.256-.635,1.151-1-.385-1.345-5.678,1.528-6.82-2.46-.495-1.727.276-3.559,2.55-4.668l-.478-1.666,2.041-.652.469,1.635a7.494,7.494,0,0,1,3.193-.051l-.28,2.941a6.2,6.2,0,0,0-3.051.106c-1,.319-1.23.727-1.125,1.094.367,1.283,5.664-1.574,6.794,2.368.473,1.65-.245,3.448-2.371,4.578" transform="translate(-249.147 -34.454)" fill="#e8a03f"/>
        <path id="Trazado_901614" data-name="Trazado 901614" d="M408.156,64.428l-5.445-5.747,2.528-2.669,2.917,3.079,7.648-8.072,2.528,2.668Z" transform="translate(-259.339 -39.888)" fill="#6455e7"/>
        <path id="Trazado_901615" data-name="Trazado 901615" d="M64.384,48.771c0,6.63,6.2,12.009,13.84,12.009q.6,0,1.195-.046a3.533,3.533,0,0,1,2.27.653,14.924,14.924,0,0,0,6.55,2.244c-.029-.021-.053-.041-.082-.061a4.094,4.094,0,0,1-.139-6.322,11.215,11.215,0,0,0,4.045-8.479c0-6.636-6.2-12.009-13.839-12.009s-13.84,5.374-13.84,12.009" transform="translate(-64.384 -32.008)" fill="#a0a8fb"/>
        <path id="Trazado_901616" data-name="Trazado 901616" d="M97.311,32.5l-2.094,8.248-1.868-1.972-7.872,8.3-3.393-3.588-5.545,5.853-2.753-2.906L70,50.426,68.169,48.5l5.617-5.922,2.753,2.906,5.545-5.846,3.393,3.582,6.043-6.372L89.5,34.708Z" transform="translate(-66.565 -29.652)" fill="#6455e7"/>
        <path id="Trazado_901617" data-name="Trazado 901617" d="M324.68,127.274c-.153,1.9-.415,4.209-.7,6.513-.03.255-.059.514-.1.769-.619,4.916-1.322,9.527-1.322,9.527s-.39.094-1.059.2a24.348,24.348,0,0,1-5.064.322l.152.523,4.911,16.349a48.129,48.129,0,0,1-7.132,4.621h-.009c-.4.21-.788.407-1.2.595-2.547,1.2-5.259,2.017-7.458,1.651a27.391,27.391,0,0,1-3.657-.935c-.4-.134-.8-.273-1.2-.416a77.675,77.675,0,0,1-8.128-3.525c-.318-.157-.61-.3-.869-.447-.831-.42-1.322-.684-1.322-.684l.064-.9.373-5.211.072-1.015v0l.517-7.3s-2.36-7.609-2.4-8.95a6.95,6.95,0,0,1,.466-2.031c.085-.259.174-.514.271-.765.436-1.163.907-2.183.907-2.183l-3.865-4.151s1.5-3.037,3.089-5.828c.127-.219.254-.434.386-.653a16.974,16.974,0,0,1,2.64-3.771,5.56,5.56,0,0,1,.852-.514,86.882,86.882,0,0,1,8.84-3.507l-.153,1.333s-1.343,2.72,0,4.392c.25.313.737.25,1.377-.063a6.547,6.547,0,0,0,.886-.505c2.962-1.955,7.56-6.942,7.56-6.942l-.1-1.664s3.492,1.15,4.547,3.681c0,0,.106.063.3.183a.279.279,0,0,1,.051.027l.038.027q.133.087.318.2c.085.054.178.116.28.179.081.054.165.112.254.17.2.134.42.282.653.443.136.094.271.192.415.291.64.456,1.356.989,2.051,1.566,1.742,1.44,3.386,3.171,3.572,4.634a22.56,22.56,0,0,1-.1,3.766" transform="translate(-192.621 -73.651)" fill="#e8a03f"/>
        <path id="Trazado_901618" data-name="Trazado 901618" d="M357.031,432.294l2.952,8.367-20.961,8.227s-2.17-2.119-2.458-3.039,5.5-3.623,11.086-10.345a20.219,20.219,0,0,0,4.251-.811,20.473,20.473,0,0,0,4.672-2.119Z" transform="translate(-221.217 -250.62)" fill="#222a40"/>
        <path id="Trazado_901619" data-name="Trazado 901619" d="M293.055,323.221c-.037-.008-.081-.023-.118-.031l-.731-.218s-.687-51.176-.687-56.084,1.646-43.541,1.646-43.541,9.159,4.994,15.182,6.006,15.795-6.863,15.795-6.863c6.908,6.209-1.026,49.758-1.026,49.758,9.013,8.015,8.074,44.024,8.074,44.024l-.111.062-.458.28a20.483,20.483,0,0,1-4.672,2.119,20.224,20.224,0,0,1-4.251.81c-.251.023-.509.039-.767.047l-12.37-52.508-3.085,10.923c3.178,8.537-2.125,45.356-2.125,45.356l-.576.132a19.837,19.837,0,0,1-9.72-.272" transform="translate(-195.268 -134.661)" fill="#7f85fa"/>
        <path id="Trazado_901620" data-name="Trazado 901620" d="M317.1,85.839a2.363,2.363,0,0,1-1.343-.5c-.864-.771-4.089-5.118-4.406-7.6a18.135,18.135,0,0,1-.052-2.493c.067-2.244.31-5.157.473-6.887a.051.051,0,0,1,.007-.031c.229-2.493,3.1-4.923,3.1-4.923s3.978-.335,5.845,2.96,7.233,4.035,7.233,4.035a2.2,2.2,0,0,1,.982.062,2.758,2.758,0,0,1,1.623,1.511,3.4,3.4,0,0,1,.3,1.146,4.244,4.244,0,0,1-.044,1.145,4.734,4.734,0,0,1-1.639,2.867,4.108,4.108,0,0,1-2.465.943,9.55,9.55,0,0,1-.672,2.111,10.148,10.148,0,0,1-6.3,5.36,8.645,8.645,0,0,1-2.65.288" transform="translate(-206.657 -46.732)" fill="#e48c59"/>
        <path id="Trazado_901621" data-name="Trazado 901621" d="M332.78,105.932l.1,1.667s-8.48,9.193-9.823,7.51,0-4.394,0-4.394l.155-1.332c7.012,1.067,9.277-8.445,9.277-8.445Z" transform="translate(-213.093 -67.479)" fill="#e48c59"/>
        <path id="Trazado_901622" data-name="Trazado 901622" d="M327.212,106.3a10.148,10.148,0,0,0,6.3-5.36s-2.266,9.512-9.277,8.445l.332-2.8a8.63,8.63,0,0,0,2.65-.288" transform="translate(-214.116 -67.479)" fill="#222a40"/>
        <path id="Trazado_901623" data-name="Trazado 901623" d="M287.263,447.83v9H264.9a14.823,14.823,0,0,1-1.3-3.755c.037-.95,6.112-1.355,13.366-5.383a19.841,19.841,0,0,0,9.72.273Z" transform="translate(-179.179 -259.13)" fill="#222a40"/>
        <path id="Trazado_901624" data-name="Trazado 901624" d="M309.048,131.348c-.081.327-.155.662-.236.989-.5,2-1.063,4.277-2.436,5.827a5.2,5.2,0,0,1-5.4,1.371c-2.746-.755-4.642-3.023-6.76-4.9.126-.218.251-.436.383-.654.5.428.982.88,1.462,1.332,1.491,1.4,3.07,2.883,5.041,3.451a4.476,4.476,0,0,0,5.129-1.636,10.433,10.433,0,0,0,1.226-2.742c.266-.834.5-1.683.7-2.532a6.626,6.626,0,0,0,.886-.506" transform="translate(-196.824 -84.286)" fill="#ecb45e"/>
        <path id="Trazado_901625" data-name="Trazado 901625" d="M358.971,138.6c-.03.257-.059.514-.1.771-1.1-.171-2.2-.335-3.3-.5-2.059-.312-4.214-.639-5.912-2.01a5.463,5.463,0,0,1-1.926-5.266c.362-2.321,1.587-4.5,2.539-6.6.635-1.4,1.27-2.789,1.919-4.184.163.1.376.242.635.405-.7,1.5-1.387,3.007-2.074,4.519-.9,1.979-2.1,4.074-2.34,6.295a4.752,4.752,0,0,0,2.627,4.83c1.845,1.021,4.06,1.161,6.089,1.464.613.093,1.225.187,1.838.273" transform="translate(-227.615 -78.462)" fill="#ecb45e"/>
        <path id="Trazado_901626" data-name="Trazado 901626" d="M327.789,177.207c-2.573-3.336-5.676-7.157-10.088-7.34a6.361,6.361,0,0,0-4.959,1.951c-1.442,1.582-1.953,3.876-2.582,5.9l-2.576,8.288a.371.371,0,1,0,.711.207l2.118-6.815c.352-1.133.7-2.267,1.057-3.4a13.093,13.093,0,0,1,1.089-2.66,5.464,5.464,0,0,1,4.51-2.692,8.382,8.382,0,0,1,5.313,1.835,25.871,25.871,0,0,1,4.885,5.273c.3.389.82-.166.522-.551" transform="translate(-204.513 -105.573)" fill="#ecb45e"/>
        <path id="Trazado_901627" data-name="Trazado 901627" d="M335.3,220.816c-.4.21-.79.405-1.2.592a7.408,7.408,0,0,1-3.713-1.995c-2.347-2.345-3.432-6.583-6.849-7.541-.465-.132-.266-.88.192-.755a7.672,7.672,0,0,1,3.964,3.21,41.025,41.025,0,0,0,3,4.308A6.934,6.934,0,0,0,335.1,220.8a1.909,1.909,0,0,0,.207.016" transform="translate(-213.565 -128.367)" fill="#ecb45e"/>
        <path id="Trazado_901628" data-name="Trazado 901628" d="M296.237,182.494c-.332,1.122-.694,2.2-1.048,3.249a.389.389,0,0,1-.583.2.33.33,0,0,1-.133-.413c.066-.2.14-.4.207-.6v-.008c.5-1.472.989-2.953,1.38-4.464a17.511,17.511,0,0,0,.221-9.154,9.346,9.346,0,0,0-3.018-4.659c.089-.257.177-.514.273-.764a9.1,9.1,0,0,1,1.86,1.917c3.129,4.332,2.3,9.785.842,14.693" transform="translate(-196.271 -103.375)" fill="#ecb45e"/>
        <path id="Trazado_901629" data-name="Trazado 901629" d="M308.722,229.523c-.4-.132-.8-.273-1.2-.413a10.416,10.416,0,0,0-3.351-3.062,5.8,5.8,0,0,0-4.775-.467c-.317-.156-.612-.3-.871-.444a6.279,6.279,0,0,1,5.617.031,11.779,11.779,0,0,1,4.583,4.355" transform="translate(-199.302 -135.766)" fill="#ecb45e"/>
        <path id="Trazado_901630" data-name="Trazado 901630" d="M319.888,82.971a7.21,7.21,0,0,1,.581,2.792c-.006,1.542-.982,2.535-1.537,2.464s-1.581-.73-1.5-1.531a3.357,3.357,0,0,1,.64-.982,31.28,31.28,0,0,0,1.814-2.743" transform="translate(-210.197 -57.548)" fill="#e07045"/>
        <path id="Trazado_901631" data-name="Trazado 901631" d="M319.3,87.809a.194.194,0,0,1-.055-.008,4.675,4.675,0,0,1-2.057-1.211,1,1,0,0,1-.016-1.356,21.208,21.208,0,0,0,2.5-3.754.207.207,0,0,1,.288-.089.23.23,0,0,1,.084.3,21.657,21.657,0,0,1-2.553,3.834.54.54,0,0,0-.008.74,4.251,4.251,0,0,0,1.873,1.1.225.225,0,0,1,.149.274.213.213,0,0,1-.2.166" transform="translate(-209.901 -56.66)" fill="#222a40"/>
        <path id="Trazado_901632" data-name="Trazado 901632" d="M330.981,80.384a1.233,1.233,0,0,0,1.029,1.379,1.217,1.217,0,0,0,1.152-1.266,1.233,1.233,0,0,0-1.028-1.38,1.217,1.217,0,0,0-1.152,1.266" transform="translate(-218.005 -55.418)" fill="#222a40"/>
        <path id="Trazado_901633" data-name="Trazado 901633" d="M314.79,79.587a1.233,1.233,0,0,0,1.028,1.379A1.217,1.217,0,0,0,316.97,79.7a1.233,1.233,0,0,0-1.029-1.38,1.217,1.217,0,0,0-1.152,1.266" transform="translate(-208.675 -54.977)" fill="#222a40"/>
        <path id="Trazado_901634" data-name="Trazado 901634" d="M332.564,73.33a6.03,6.03,0,0,1,2.126.72.613.613,0,0,1,.248.377.65.65,0,0,1-.08.464.58.58,0,0,1-.356.261.619.619,0,0,1-.44-.084l-.109-.058a5.318,5.318,0,0,0-1.282-.44c-.054-.009-.108-.019-.162-.026a.6.6,0,0,1-.4-.2.636.636,0,0,1-.148-.437c.027-.305.284-.622.6-.577" transform="translate(-218.57 -52.217)" fill="#222a40"/>
        <path id="Trazado_901635" data-name="Trazado 901635" d="M316.6,72.675a5.991,5.991,0,0,0-2.182.5.6.6,0,0,0-.281.349.65.65,0,0,0,.036.471.59.59,0,0,0,.331.3.62.62,0,0,0,.446-.038l.114-.047a5.253,5.253,0,0,1,1.317-.3c.054,0,.109-.008.163-.01a.6.6,0,0,0,.415-.157.632.632,0,0,0,.189-.42.6.6,0,0,0-.547-.636" transform="translate(-208.287 -51.857)" fill="#222a40"/>
        <path id="Trazado_901636" data-name="Trazado 901636" d="M318.412,99.071a3.094,3.094,0,0,0,3.285,1.988c1.818-.217,2.346-1.953,2.489-2.858a.4.4,0,0,0-.439-.479l-5.035.78a.406.406,0,0,0-.3.57" transform="translate(-210.742 -65.699)" fill="#fff"/>
        <path id="Trazado_901637" data-name="Trazado 901637" d="M348.437,88.439a.164.164,0,0,1-.03,0,.222.222,0,0,1-.181-.253,6.261,6.261,0,0,1,2.408-4.144.2.2,0,0,1,.295.055.232.232,0,0,1-.052.311,5.8,5.8,0,0,0-2.231,3.84.216.216,0,0,1-.209.192" transform="translate(-227.943 -58.117)" fill="#222a40"/>
        <path id="Trazado_901638" data-name="Trazado 901638" d="M334.694,87.333c-2.375,0-2.379,3.9,0,3.9s2.379-3.9,0-3.9" transform="translate(-219.119 -59.959)" fill="#e07045"/>
        <path id="Trazado_901639" data-name="Trazado 901639" d="M313.671,281.4a.214.214,0,0,1-.205-.167l-6.9-28.011-6.1-4.833a.231.231,0,0,1-.042-.313.2.2,0,0,1,.3-.045l6.156,4.88a.222.222,0,0,1,.078.122l6.918,28.087a.225.225,0,0,1-.152.273.2.2,0,0,1-.053.007" transform="translate(-200.376 -148.751)" fill="#222a40"/>
        <path id="Trazado_901640" data-name="Trazado 901640" d="M368.191,319.463a.217.217,0,0,1-.211-.211c-.017-.32-1.774-32.06-3.721-36.95a29.349,29.349,0,0,0-4.746-8.018.231.231,0,0,1-.057-.179c.032-.3,3.218-30.461,3.622-36.807a23.593,23.593,0,0,0-2.209-11.3.23.23,0,0,1,.082-.3.206.206,0,0,1,.288.086,24.078,24.078,0,0,1,2.262,11.548c-.392,6.171-3.408,34.783-3.613,36.725a30.221,30.221,0,0,1,4.761,8.076c1.975,4.959,3.681,35.787,3.753,37.1a.219.219,0,0,1-.2.236h-.012" transform="translate(-234.414 -136.416)" fill="#222a40"/>
        <path id="Trazado_901641" data-name="Trazado 901641" d="M291.85,158.975a.214.214,0,0,1-.207-.178c-.383-1.943,3.876-10.4,4.058-10.761a.208.208,0,0,1,.287-.092.23.23,0,0,1,.087.3c-1.216,2.407-4.309,8.978-4.017,10.46a.224.224,0,0,1-.164.265.2.2,0,0,1-.043,0" transform="translate(-195.325 -93.444)" fill="#222a40"/>
        <path id="Trazado_901642" data-name="Trazado 901642" d="M339.79,87.076a12.181,12.181,0,0,1-2.725,5.032,8.294,8.294,0,0,1-1.119.993,22.549,22.549,0,0,0,.1-3.766c-.186-1.463-1.831-3.194-3.572-4.634-.695-.577-1.411-1.109-2.051-1.566-.14-.1-.28-.2-.415-.291-.233-.161-.453-.309-.653-.443-.089-.058-.174-.116-.254-.17-.1-.063-.195-.125-.28-.179q-.184-.114-.318-.2l-.038-.027a.275.275,0,0,0-.051-.027c-.191-.121-.3-.183-.3-.183-1.055-2.532-4.547-3.681-4.547-3.681l-.292-5a9.889,9.889,0,0,0,.67-2.111,4.111,4.111,0,0,0,2.466-.944,4.713,4.713,0,0,0,1.636-2.867,4.136,4.136,0,0,0,.047-1.145,3.392,3.392,0,0,0-.305-1.145,2.73,2.73,0,0,0-1.623-1.507,2.138,2.138,0,0,0-.979-.063s-5.373-.743-7.234-4.039-5.848-2.957-5.848-2.957-2.869,2.429-3.1,4.92a.05.05,0,0,0-.008.031c-.131,1.391-.314,3.547-.411,5.506-.487-1.552-.975-2.863-.975-2.863-.186-1.6-1.42-3.6-1.081-6.817s7.03-6.177,7.03-6.177A21.829,21.829,0,0,1,317,50.308c2.644-.143,6.187.148,8.2,2.295,2.75,2.934,3.483,8.61,3.988,12.506a20.8,20.8,0,0,0,4.712,8.007c1.865,1.9,4.2,3.395,5.454,5.788a11.115,11.115,0,0,1,.445,8.172" transform="translate(-203.887 -39.478)" fill="#222a40"/>
        <path id="Trazado_901643" data-name="Trazado 901643" d="M306.177,63.31a.207.207,0,0,1-.155-.071A12.139,12.139,0,0,1,303.8,60.1a4.458,4.458,0,0,1,.015-3.917,5.969,5.969,0,0,1,2.577-2.11q2.684-1.431,5.378-2.841a.207.207,0,0,1,.284.1.229.229,0,0,1-.1.3q-2.692,1.409-5.375,2.84a5.64,5.64,0,0,0-2.406,1.94,3.994,3.994,0,0,0,.008,3.5,11.755,11.755,0,0,0,2.141,3.016.233.233,0,0,1-.011.316.206.206,0,0,1-.145.06" transform="translate(-202.091 -39.995)" fill="#222a40"/>
        <path id="Trazado_901644" data-name="Trazado 901644" d="M364.547,95.322a.206.206,0,0,1-.156-.072.232.232,0,0,1,.011-.316c1.771-1.728,3.387-3.463,3.71-5.677a7.7,7.7,0,0,0-1.966-5.806,24.961,24.961,0,0,0-3.211-3.077c-.469-.4-.956-.813-1.421-1.235a31.723,31.723,0,0,1-9.585-16.827.224.224,0,0,1,.161-.267.211.211,0,0,1,.253.169A31.275,31.275,0,0,0,361.789,78.8c.461.417.944.828,1.412,1.226a25.385,25.385,0,0,1,3.265,3.132,8.152,8.152,0,0,1,2.065,6.168c-.343,2.356-2.013,4.153-3.84,5.937a.207.207,0,0,1-.144.06" transform="translate(-230.074 -45.979)" fill="#222a40"/>
        <path id="Trazado_901645" data-name="Trazado 901645" d="M323.24,123.491a.778.778,0,0,1-.639-.287c-1.419-1.767-.083-4.524-.026-4.64a.207.207,0,0,1,.286-.095.23.23,0,0,1,.09.3c-.013.026-1.26,2.607-.026,4.145.2.256.725.075,1.126-.121a6.345,6.345,0,0,0,.862-.492c2.907-1.918,7.475-6.859,7.521-6.908a.2.2,0,0,1,.3,0,.232.232,0,0,1,0,.316c-.046.05-4.65,5.029-7.6,6.976a6.709,6.709,0,0,1-.914.521,2.4,2.4,0,0,1-.984.288" transform="translate(-212.802 -75.431)" fill="#222a40"/>
        <path id="Trazado_901646" data-name="Trazado 901646" d="M155.486,108.7l-1.292,1.683-.612.795L148,118.451l.125,2.4.576,10.985v.008l.059,1.021.989,18.876.1,1.8h-.008a92.921,92.921,0,0,1-20.614,3.256,19.223,19.223,0,0,1-14.747-6.762,11.59,11.59,0,0,1-.745-.935l.767-6.4,5.011-13.579V129.1c-6.229.25-9.875-1.628-11.824-3.233a8.109,8.109,0,0,1-1.919-2.142s1.373-6.489,2.731-12.48c.059-.257.118-.522.17-.779.849-3.755,1.661-7.183,2.089-8.546,1.129-3.607,11.971-6.871,11.971-6.871l.044-.047a5.767,5.767,0,0,1,.606-.623,4.965,4.965,0,0,1,2.554-1.348h.007l-.1,1.371s4.022,7.206,7.5,8.234a2.679,2.679,0,0,0,.325.078,2.552,2.552,0,0,0,.775,0c2.768-.444,4.252-5.671,4.252-5.671l-.531-1.994a8.219,8.219,0,0,1,4.664.553,6.8,6.8,0,0,1,.664.351,6.534,6.534,0,0,1,1.122.841c2.738,2.563,10.872,11.911,10.872,11.911" transform="translate(-88.232 -63.108)" fill="#7f85fa"/>
        <path id="Trazado_901647" data-name="Trazado 901647" d="M161.174,202.125c-3.636,2.559-7.242,5.176-10.915,7.676-1.6,1.089-3.429,2.144-5.4,1.842a7.027,7.027,0,0,1-4.32-2.845,21.174,21.174,0,0,1-2.864-6.276.371.371,0,1,0-.712.207c1.251,3.748,2.844,8.043,6.748,9.421a6.608,6.608,0,0,0,5.487-.776,67.061,67.061,0,0,0,5.66-3.868l6.691-4.709c.393-.277.024-.952-.372-.673" transform="translate(-106.192 -123.369)" fill="#a0a8fb"/>
        <path id="Trazado_901648" data-name="Trazado 901648" d="M271.233,68.391a8.862,8.862,0,1,1-8.849-9.341,9.107,9.107,0,0,1,8.849,9.341" transform="translate(-173.379 -44.327)" fill="#e8a03f"/>
        <path id="Trazado_901649" data-name="Trazado 901649" d="M271.765,70.316a7.384,7.384,0,1,1-7.373-7.783,7.593,7.593,0,0,1,7.373,7.783" transform="translate(-175.386 -46.252)" fill="#ecb45e"/>
        <path id="Trazado_901650" data-name="Trazado 901650" d="M269.545,76.642v1.647h-1.982V76.716a7.929,7.929,0,0,1-3.614-1.04l1.069-2.551a6.484,6.484,0,0,0,3.248.949c.942,0,1.28-.207,1.28-.564,0-1.306-5.441-.252-5.441-4.125,0-1.677,1.153-3.088,3.459-3.428V64.339h1.982v1.587a7.054,7.054,0,0,1,2.854.862l-1,2.538a5.819,5.819,0,0,0-2.742-.772c-.97,0-1.279.3-1.279.654,0,1.246,5.44.208,5.44,4.036,0,1.6-1.1,3-3.275,3.4" transform="translate(-179.38 -47.25)" fill="#e8a03f"/>
        <path id="Trazado_901651" data-name="Trazado 901651" d="M233.645,88.958v.008l-.007.039-4,2.813s-10.82,29.074-15.182,28.482-8.9-6.918-8.9-6.918l-.125-2.4,7.484-9.746,1.284,1.083,9.44-13.626s.819-6.053,1.078-7.245c.066-.327.553-.631,1.232-.888a18.08,18.08,0,0,1,5.381-1.028c.605.132.207,1.231-.384,1.893A15.588,15.588,0,0,1,228.3,83.24a5.038,5.038,0,0,1,.554,3.5,8.318,8.318,0,0,0,4.79,2.22" transform="translate(-145.659 -55.639)" fill="#e48c59"/>
        <path id="Trazado_901652" data-name="Trazado 901652" d="M198.351,452.765a14.763,14.763,0,0,1-1.306,3.755H174.688v-8.562a13.376,13.376,0,0,0,9.846-.826c7.454,4.261,13.78,4.659,13.816,5.632" transform="translate(-127.945 -258.822)" fill="#7f85fa"/>
        <path id="Trazado_901653" data-name="Trazado 901653" d="M124.991,324.1a14.631,14.631,0,0,1-8.525-.2c-.369-.125-.738-.257-1.1-.413,0,0,1.587-84.675,1.948-89.98.266-3.918,1.875-10.081,2.694-13.033a19.223,19.223,0,0,0,14.746,6.762,92.934,92.934,0,0,0,20.622-3.257l-5.026,97.88a13.372,13.372,0,0,1-9.846.826c-.221-.07-.435-.14-.65-.218l-.487-.171-2.974-55.764-9.639,56.956-.273.109a14.749,14.749,0,0,1-1.491.506" transform="translate(-93.762 -133.545)" fill="#222a40"/>
        <path id="Trazado_901654" data-name="Trazado 901654" d="M144.009,51.779a2.744,2.744,0,0,1,1.565-1.4,2.318,2.318,0,0,1,.982-.055,2.731,2.731,0,0,0,1.757-2.656,13.075,13.075,0,0,1,.5-3.95,2.258,2.258,0,0,1,.8-1.068s5.3,2.2,7.794-.475c0,0,3.735.117,5.019,3.225a9.451,9.451,0,0,1,.162,1.387h.008s.1,1,.229,2.407a59.3,59.3,0,0,1,.339,8.46c-.317,2.485-1.676,6.762-2.546,7.533a2.261,2.261,0,0,1-1,.4,11.19,11.19,0,0,1-4.849-.117c-.82-.4-5.1-1.761-6.628-6.216A9.936,9.936,0,0,1,147.8,58a4.224,4.224,0,0,1-2.472-.951,4.7,4.7,0,0,1-1.639-2.859,4.072,4.072,0,0,1,.258-2.3.519.519,0,0,1,.059-.109" transform="translate(-110.05 -34.999)" fill="#e48c59"/>
        <path id="Trazado_901655" data-name="Trazado 901655" d="M166.114,88.04l.531,1.994c-12.245.8-12.37-9.255-12.37-9.668v-.015c1.528,4.456,5.809,5.819,6.628,6.217a11.192,11.192,0,0,0,4.849.117Z" transform="translate(-116.183 -56.1)" fill="#222a40"/>
        <path id="Trazado_901656" data-name="Trazado 901656" d="M153.624,80.386c0,.413.125,10.47,12.37,9.668,0,0-1.882,6.622-5.351,5.594s-7.5-8.235-7.5-8.235l.1-1.371Z" transform="translate(-115.531 -56.119)" fill="#e48c59"/>
        <path id="Trazado_901657" data-name="Trazado 901657" d="M164.02,35.911a5.83,5.83,0,0,1-.377,1.95,20.082,20.082,0,0,0-.8,4.969l-.326-.009c-.127-1.409-.229-2.406-.229-2.406h-.008a9.3,9.3,0,0,0-.161-1.387,4.557,4.557,0,0,0-.716-1.185q-.153.188-.318.362a6.545,6.545,0,0,1-6.106,1.494,15.3,15.3,0,0,1-3.4-1.217,8.674,8.674,0,0,0-3.1-1.029,13.722,13.722,0,0,0-.466,3.842,2.724,2.724,0,0,1-1.759,2.652,2.338,2.338,0,0,0-.979.058,2.732,2.732,0,0,0-1.564,1.4,3.3,3.3,0,0,1,.538-4.066,8.367,8.367,0,0,1-1.14-4.137,3.621,3.621,0,0,1,.564-2.187,4.94,4.94,0,0,1,2.759-1.387,31.863,31.863,0,0,0,4.009-1.722,19.457,19.457,0,0,1,1.814-.747c2-.693,4.348-.827,6.026.5a11.27,11.27,0,0,0,1.2.989,16.191,16.191,0,0,0,2.64.787,2.968,2.968,0,0,1,1.9,2.478" transform="translate(-109.747 -28.628)" fill="#222a40"/>
        <path id="Trazado_901658" data-name="Trazado 901658" d="M125.133,459.619a5.157,5.157,0,0,1-.753,3.319H112.785s-.834-3.389-.406-4.363c.3-.686,1.572-4.62,2.3-6.879a14.632,14.632,0,0,0,8.525.2c.62,2.446,1.683,6.637,1.934,7.72" transform="translate(-91.97 -261.344)" fill="#7f85fa"/>
        <path id="Trazado_901659" data-name="Trazado 901659" d="M123.1,113.674a8.657,8.657,0,0,1-6.9.927,15.639,15.639,0,0,1-3.985-1.691c.059-.257.118-.522.17-.779a14.735,14.735,0,0,0,4.657,1.862,7.678,7.678,0,0,0,6.317-1.449,10.808,10.808,0,0,0,3.336-5.134c1.129-3.521.687-7.2-.207-10.743a5.805,5.805,0,0,1,.605-.623,30.716,30.716,0,0,1,.96,5.555c.31,4.511-1.115,9.582-4.953,12.075" transform="translate(-91.946 -64.773)" fill="#a0a8fb"/>
        <path id="Trazado_901660" data-name="Trazado 901660" d="M175.774,144.829a14.959,14.959,0,0,0-3.55-1.986c-3.727-1.465-7.749-1.823-11.484-3.272-3.27-1.27-6.384-3.552-7.639-7.129-1.329-3.81.472-7.533,2.643-10.525,1.675-2.306,3.8-4.549,4.937-7.237a2.587,2.587,0,0,0,.775,0c-1.225,3.1-3.675,5.578-5.543,8.3a13.762,13.762,0,0,0-2.435,5.375,7.966,7.966,0,0,0,1.018,5.337c2.03,3.521,5.779,5.11,9.4,6.077,3.8,1.021,7.809,1.55,11.248,3.662q.288.175.576.374v.008Z" transform="translate(-115.244 -75.074)" fill="#a0a8fb"/>
        <path id="Trazado_901661" data-name="Trazado 901661" d="M202.934,113.564l-.612.795c-.532,0-1.063-.016-1.595-.063-3.72-.312-7.277-2.01-9.159-5.555a10.821,10.821,0,0,1,0-9.964,6.711,6.711,0,0,1,.664.351,9.993,9.993,0,0,0-1.159,5,9.581,9.581,0,0,0,5.41,8.3,13.715,13.715,0,0,0,6.451,1.13" transform="translate(-136.971 -66.285)" fill="#a0a8fb"/>
        <path id="Trazado_901662" data-name="Trazado 901662" d="M177.616,61.242a10.55,10.55,0,0,0-.342,3.6c.168,1.944,1.333,3.064,1.929,2.9a2.218,2.218,0,0,0,1.47-2.131,4.192,4.192,0,0,0-.8-1.153,38.5,38.5,0,0,1-2.259-3.215" transform="translate(-129.416 -45.538)" fill="#e07045"/>
        <path id="Trazado_901663" data-name="Trazado 901663" d="M178.264,67.36a.212.212,0,0,1-.194-.133.229.229,0,0,1,.108-.295,4.858,4.858,0,0,0,1.932-1.649.858.858,0,0,0-.09-1.038,26.582,26.582,0,0,1-3.171-4.481.231.231,0,0,1,.074-.306.206.206,0,0,1,.291.078,26.147,26.147,0,0,0,3.118,4.406,1.325,1.325,0,0,1,.121,1.605,5.281,5.281,0,0,1-2.1,1.794.2.2,0,0,1-.085.019" transform="translate(-129.173 -44.534)" fill="#222a40"/>
        <path id="Trazado_901664" data-name="Trazado 901664" d="M168.8,61.249a1.112,1.112,0,1,1-1.092-1.324,1.225,1.225,0,0,1,1.092,1.324" transform="translate(-123.294 -44.811)" fill="#222a40"/>
        <path id="Trazado_901665" data-name="Trazado 901665" d="M185.012,61.249a1.112,1.112,0,1,1-1.092-1.324,1.225,1.225,0,0,1,1.092,1.324" transform="translate(-132.636 -44.811)" fill="#222a40"/>
        <path id="Trazado_901666" data-name="Trazado 901666" d="M166.2,53.675a7.5,7.5,0,0,0-2.7.761.761.761,0,0,0-.331.454.816.816,0,0,0,.072.586.735.735,0,0,0,.43.349.777.777,0,0,0,.554-.076c.046-.023.093-.044.139-.066a6.619,6.619,0,0,1,1.627-.466c.068-.008.136-.017.2-.023a.75.75,0,0,0,.509-.222.8.8,0,0,0,.211-.537c-.017-.383-.318-.8-.72-.76" transform="translate(-121.294 -41.355)" fill="#222a40"/>
        <path id="Trazado_901667" data-name="Trazado 901667" d="M184.63,55.476a.734.734,0,0,1-.43.349.776.776,0,0,1-.554-.076c-.046-.023-.093-.044-.139-.066a6.606,6.606,0,0,0-1.627-.465c-.068-.008-.135-.017-.2-.023a.751.751,0,0,1-.509-.223.794.794,0,0,1-.211-.537c.016-.383.318-.795.719-.76a7.517,7.517,0,0,1,2.7.761" transform="translate(-131.557 -41.355)" fill="#222a40"/>
        <path id="Trazado_901668" data-name="Trazado 901668" d="M149.088,68.875a.216.216,0,0,1-.211-.2,5.842,5.842,0,0,0-2.049-3.951.232.232,0,0,1-.038-.314.205.205,0,0,1,.3-.039,6.3,6.3,0,0,1,2.212,4.265.221.221,0,0,1-.192.243h-.019" transform="translate(-111.844 -47.24)" fill="#222a40"/>
        <path id="Trazado_901669" data-name="Trazado 901669" d="M173.371,77.786a3.338,3.338,0,0,1-1.918-.611,3.645,3.645,0,0,1-1.379-1.938.226.226,0,0,1,.138-.28.211.211,0,0,1,.266.146,3.2,3.2,0,0,0,1.21,1.7,2.918,2.918,0,0,0,1.953.523.217.217,0,0,1,.23.2.221.221,0,0,1-.192.243c-.1.01-.206.015-.308.015" transform="translate(-125.281 -53.113)" fill="#222a40"/>
        <path id="Trazado_901670" data-name="Trazado 901670" d="M164.7,278.331a.184.184,0,0,1-.054-.008.224.224,0,0,1-.151-.273l7.7-30.966a.224.224,0,0,1,.081-.126l7.284-5.5a.205.205,0,0,1,.3.052.232.232,0,0,1-.049.313l-7.222,5.449L164.9,278.164a.214.214,0,0,1-.2.167" transform="translate(-122.067 -145.125)" fill="#10141c"/>
        <path id="Trazado_901671" data-name="Trazado 901671" d="M185.04,255.372a.216.216,0,0,1-.209-.191.222.222,0,0,1,.179-.254l6.36-.975a.215.215,0,0,1,.24.189.222.222,0,0,1-.179.254l-6.361.975-.031,0" transform="translate(-133.788 -152.049)" fill="#10141c"/>
        <path id="Trazado_901672" data-name="Trazado 901672" d="M117.674,329.177h-.012a.218.218,0,0,1-.2-.235c.042-.808,4.183-80.8,4.234-85.077.051-4.3,1.693-13.964,1.71-14.061a.214.214,0,0,1,.246-.18.223.223,0,0,1,.171.26c-.017.1-1.653,9.724-1.7,13.987-.051,4.287-4.193,84.288-4.235,85.1a.217.217,0,0,1-.211.212" transform="translate(-94.97 -138.602)" fill="#10141c"/>
        <path id="Trazado_901673" data-name="Trazado 901673" d="M147.92,154.3a.2.2,0,0,1-.111-.034.23.23,0,0,1-.068-.308l3.009-5.126a.2.2,0,0,1,.292-.072.23.23,0,0,1,.068.308L148.1,154.19a.209.209,0,0,1-.18.106" transform="translate(-112.398 -93.889)" fill="#222a40"/>
        <path id="Trazado_901674" data-name="Trazado 901674" d="M203.339,142.419h0a.218.218,0,0,1-.209-.227c.091-6.721-1.812-16.023-1.832-16.117a.224.224,0,0,1,.162-.266.213.213,0,0,1,.252.171c.019.093,1.933,9.445,1.841,16.218a.218.218,0,0,1-.212.221" transform="translate(-143.274 -81.222)" fill="#222a40"/>
        <path id="Trazado_901675" data-name="Trazado 901675" d="M216.673,136.292a.2.2,0,0,1-.121-.04.232.232,0,0,1-.052-.312l3.881-5.851a.205.205,0,0,1,.295-.055.231.231,0,0,1,.052.312l-3.881,5.851a.208.208,0,0,1-.174.1" transform="translate(-152.016 -83.538)" fill="#222a40"/>
        <path id="Trazado_901676" data-name="Trazado 901676" d="M259.426,88.649a.2.2,0,0,1-.079-.017.228.228,0,0,1-.117-.291,6.635,6.635,0,0,0-.3-4.82.234.234,0,0,1-.011-.177.219.219,0,0,1,.114-.13c.9-.418,3.234-1.8,3.2-3.142a.219.219,0,0,1,.206-.23.224.224,0,0,1,.218.217c.048,1.675-2.5,3.088-3.249,3.467a7,7,0,0,1,.221,4.982.213.213,0,0,1-.2.14" transform="translate(-176.473 -55.819)" fill="#222a40"/>
        <path id="Trazado_901677" data-name="Trazado 901677" d="M143.733,39.529a.209.209,0,0,1-.175-.1,11.481,11.481,0,0,1-1.793-5.582,3.925,3.925,0,0,1,.661-2.78,4.382,4.382,0,0,1,2.727-1.224,40.945,40.945,0,0,0,9.616-3.136,3.188,3.188,0,0,1,2.723-.387,2.609,2.609,0,0,1,1.174,1.557,5.254,5.254,0,0,1-.266,3.9.206.206,0,0,1-.286.095.229.229,0,0,1-.09-.3,4.776,4.776,0,0,0,.242-3.544,2.189,2.189,0,0,0-.955-1.3,2.828,2.828,0,0,0-2.37.392,41.354,41.354,0,0,1-9.693,3.164,4.046,4.046,0,0,0-2.5,1.08,3.5,3.5,0,0,0-.559,2.462,11.025,11.025,0,0,0,1.72,5.356.232.232,0,0,1-.056.311.2.2,0,0,1-.119.038" transform="translate(-108.966 -26.135)" fill="#222a40"/>
        <path id="Trazado_901678" data-name="Trazado 901678" d="M243.256,171.118a17.167,17.167,0,0,1-6.37,9.037l-1.417-3.077a13.281,13.281,0,0,0-8.968,2.415l.177,3.677a23.627,23.627,0,0,1-5.712-.74c-.553-.132-1.122-.3-1.683-.475-.317-.109-.642-.21-.967-.327l-3.956-1.418-1.727-.623q.332-.152.62-.3a1.526,1.526,0,0,0,.34-.21,3.173,3.173,0,0,0,1-3.9l-.974-2.127-1.3-2.828a13.31,13.31,0,0,0-8.968,2.431l.162,3.327a23.179,23.179,0,0,1-5.092-3.685,18.2,18.2,0,0,1-5.24-8.788,17.888,17.888,0,0,1-.008-8.414c.141-.584.3-1.169.495-1.769A21.284,21.284,0,0,1,199.629,144a20.347,20.347,0,0,1,4.355-3.046,19.557,19.557,0,0,1,15.58-1.091l10.938,3.927a20.464,20.464,0,0,1,10.37,8.414,21.507,21.507,0,0,1,1.594,3.023,22.536,22.536,0,0,1,.79,15.892" transform="translate(-138.308 -88.361)" fill="#a0a8fb"/>
        <path id="Trazado_901679" data-name="Trazado 901679" d="M283.742,229.341a3.161,3.161,0,0,1-1.34,4.111,16.944,16.944,0,0,1-6.592,1.88,2.979,2.979,0,0,1-3.039-2.934l-.092-1.917-.173-3.674a13.3,13.3,0,0,1,8.965-2.42l1.416,3.084Z" transform="translate(-184.311 -135.674)" fill="#6455e7"/>
        <path id="Trazado_901680" data-name="Trazado 901680" d="M309.607,164.141a5.584,5.584,0,0,1-1.6,2.562,21.543,21.543,0,0,0-1.594-3.016,4.106,4.106,0,0,0,2.154-1.1,4.506,4.506,0,0,0,1.334-3.1,12.119,12.119,0,0,1-.3,4.65" transform="translate(-203.851 -99.842)" fill="#c1c9fc"/>
        <path id="Trazado_901681" data-name="Trazado 901681" d="M265.954,147.981l-.28.873-3-1.075-1.019-.374s0,.008-.007,0l-6.783-2.431-1.026-.374-4.428-1.589.28-.865,4.045,1.449.923.335,7.764,2.781.915.327Z" transform="translate(-171 -90.254)" fill="#222a40"/>
        <path id="Trazado_901682" data-name="Trazado 901682" d="M248.78,233.221c.559.176,1.123.337,1.68.471a3.4,3.4,0,0,1-4.329.348,16.622,16.622,0,0,1-2.275-2.569l3.955,1.419c.322.115.645.224.969.331" transform="translate(-167.802 -139.624)" fill="#6455e7"/>
        <path id="Trazado_901683" data-name="Trazado 901683" d="M257.583,149.669s-.639,4.4-1.8,5.591-4.521-.026-4.521-.026l-1.9-3.727s1.215-4.04,2.291-3.967a45.5,45.5,0,0,1,5.933,2.129" transform="translate(-170.973 -93.236)" fill="#6455e7"/>
        <path id="Trazado_901684" data-name="Trazado 901684" d="M229.109,214.008a3.181,3.181,0,0,1-.993,3.906,2.411,2.411,0,0,1-.34.207c-.2.1-.4.2-.62.3A16.535,16.535,0,0,1,221.177,220a2.969,2.969,0,0,1-3.034-2.924l-.106-2.26-.007,0-.159-3.332a13.292,13.292,0,0,1,8.967-2.427l1.3,2.826Z" transform="translate(-152.828 -127.198)" fill="#6455e7"/>
        <path id="Trazado_901685" data-name="Trazado 901685" d="M239.2,160.825a2.2,2.2,0,0,1,.909,2.819c-.4,1.231-1.444,1.967-2.346,1.643a2.186,2.186,0,0,1-.911-2.812c.4-1.232,1.447-1.974,2.348-1.651" transform="translate(-163.679 -100.537)" fill="#222a40"/>
        <path id="Trazado_901686" data-name="Trazado 901686" d="M211.139,172.311c-.036.16-.079.317-.124.482-1.214,3.769-4.984,3.494-9.247,1.965-4.137-1.484-7.212-3.6-6.3-7.157.028-.113.067-.231.1-.349.929-2.884,3.244-5.715,6.2-6.184a2.9,2.9,0,0,1,.383-.052,5.679,5.679,0,0,1,.684-.018,5.8,5.8,0,0,1,1.781.351c4.067,1.46,7.3,7.136,6.525,10.915a.106.106,0,0,1-.007.047m-5.625-.932c.671.241,1.539-.567,1.936-1.8s.172-2.423-.5-2.664-1.539.567-1.933,1.791-.175,2.431.5,2.671m-4.822-4.2c.4-1.232.182-2.428-.489-2.669s-1.539.567-1.936,1.8-.172,2.423.5,2.664,1.53-.562,1.926-1.794" transform="translate(-139.826 -100.672)" fill="#6455e7"/>
        <path id="Trazado_901687" data-name="Trazado 901687" d="M220.39,176.846c-.4,1.232-1.265,2.039-1.936,1.8s-.893-1.439-.5-2.671,1.262-2.032,1.933-1.791.893,1.439.5,2.664" transform="translate(-152.765 -107.938)" fill="#222a40"/>
        <path id="Trazado_901688" data-name="Trazado 901688" d="M191.58,202.9l-2.231,2.763a2.813,2.813,0,0,1-4.1.371,18.588,18.588,0,0,1-4.139-5.739,3.146,3.146,0,0,1,1.309-4.113l3.919-2.074a18.243,18.243,0,0,0,5.244,8.793" transform="translate(-131.467 -118.976)" fill="#6455e7"/>
        <path id="Trazado_901689" data-name="Trazado 901689" d="M215.328,131.592c.79.547.2,2.549.039,3.05a20.107,20.107,0,0,0-2.794,1.195,20.424,20.424,0,0,0-2.764,1.732l-.111-.164a3.306,3.306,0,0,1-2.1-2.351c-.226-1.694,1.8-5.591,1.8-5.591a45.514,45.514,0,0,1,5.933,2.129" transform="translate(-146.897 -83.244)" fill="#6455e7"/>
        <path id="Trazado_901690" data-name="Trazado 901690" d="M211.472,153.9a2.981,2.981,0,0,1-.387.791c-.9.5-1.578.808-1.578.808a2.843,2.843,0,0,0-.383.051,2.195,2.195,0,0,1-.908-2.819,2.809,2.809,0,0,1,.826-1.283,1.54,1.54,0,0,1,1.519-.36,2.186,2.186,0,0,1,.911,2.812" transform="translate(-147.177 -95.154)" fill="#222a40"/>
        <path id="Trazado_901691" data-name="Trazado 901691" d="M203.964,168.806c.671.241.886,1.437.489,2.669s-1.256,2.035-1.926,1.794-.9-1.432-.5-2.664,1.265-2.039,1.936-1.8" transform="translate(-143.586 -104.966)" fill="#222a40"/>
        <path id="Trazado_901692" data-name="Trazado 901692" d="M220.173,168.972a.192.192,0,0,1-.045,0,.224.224,0,0,1-.162-.266c.774-3.787-2.508-9.265-6.386-10.656a5.62,5.62,0,0,0-1.72-.34,5.43,5.43,0,0,0-.661.017.214.214,0,0,1-.223-.173.227.227,0,0,1,.129-.258c.037-.015,3.711-1.55,4.463-2.572a.2.2,0,0,1,.3-.039.232.232,0,0,1,.037.314,12.1,12.1,0,0,1-3.675,2.287,6.154,6.154,0,0,1,1.489.34c4.052,1.454,7.477,7.2,6.664,11.174a.215.215,0,0,1-.207.177" transform="translate(-148.852 -97.157)" fill="#222a40"/>
        <path id="Trazado_901693" data-name="Trazado 901693" d="M303.456,197.085a.207.207,0,0,1-.138-.054.232.232,0,0,1-.023-.315,16.226,16.226,0,0,0,3.465-8.492,16.52,16.52,0,0,0-1.69-9.072.23.23,0,0,1,.086-.3.206.206,0,0,1,.287.091,16.99,16.99,0,0,1,1.738,9.332,16.693,16.693,0,0,1-3.564,8.735.208.208,0,0,1-.161.078" transform="translate(-202.023 -110.525)" fill="#222a40"/>
        <path id="Trazado_901694" data-name="Trazado 901694" d="M252.458,154.969a.168.168,0,0,1-.03,0,.222.222,0,0,1-.18-.253,2.7,2.7,0,0,1,2.268-2.181,4.721,4.721,0,0,1,3.025.709.229.229,0,0,1,.09.3.206.206,0,0,1-.286.095,4.334,4.334,0,0,0-2.765-.662,2.258,2.258,0,0,0-1.911,1.8.216.216,0,0,1-.209.192" transform="translate(-172.636 -95.973)" fill="#222a40"/>
        <path id="Trazado_901695" data-name="Trazado 901695" d="M217.9,136.761a.218.218,0,0,1-.212-.223,3.012,3.012,0,0,0-.809-2.048,2.7,2.7,0,0,0-1.942-.849.218.218,0,0,1-.211-.224.224.224,0,0,1,.212-.223,3.12,3.12,0,0,1,2.24.98,3.478,3.478,0,0,1,.934,2.363.218.218,0,0,1-.211.225Z" transform="translate(-151.017 -85.306)" fill="#222a40"/>
        <path id="Trazado_901696" data-name="Trazado 901696" d="M154.961,191.513c-.081.405-.62.46-.62.46-.339.366-2.118.475-3.3.343a3.78,3.78,0,0,1-.723-.125,33.734,33.734,0,0,1-6.362-2.867,15.729,15.729,0,0,1-2.841-2.937s-13.13-1.192-20.378-2.088a30.584,30.584,0,0,1-4.945-1.021c-4.635-1.34-7.72-3.521-7.78-5.266-.066-2.306.967-11.568.967-11.568,1.948,1.6,5.595,3.482,11.824,3.233v.023l-.273,1.457,20.909,6.793c1.506-1.324,5.646-1.433,7.182-1.511.384-.023.945-.109,1.572-.218,1.889-.351,4.377-.943,4.48-.756a2.87,2.87,0,0,1-.458,2.189,40.851,40.851,0,0,1-3.816,2.392c-.539.319-.908.53-.908.53l1.078,2.8,2.155,5.57s2.31,2.166,2.236,2.571" transform="translate(-89.522 -103.684)" fill="#e48c59"/>
        <path id="Trazado_901697" data-name="Trazado 901697" d="M126.243,155.816a26.97,26.97,0,0,1-7.757-1.031.226.226,0,0,1-.142-.278.21.21,0,0,1,.264-.15,29.14,29.14,0,0,0,9.76.942l3.654-14a.21.21,0,0,1,.261-.156.225.225,0,0,1,.148.275l-3.693,14.149a.215.215,0,0,1-.186.163c-.022,0-.931.084-2.307.084" transform="translate(-95.473 -89.697)" fill="#222a40"/>
        <path id="Trazado_901698" data-name="Trazado 901698" d="M122.743,179.816a.206.206,0,0,1-.15-.066.233.233,0,0,1,0-.316,10.773,10.773,0,0,1,6.284-2.953.206.206,0,0,1,.083.008l6.606,2.146a.227.227,0,0,1,.14.28.208.208,0,0,1-.265.148l-6.565-2.133a10.55,10.55,0,0,0-5.984,2.82.205.205,0,0,1-.15.066" transform="translate(-97.89 -109.231)" fill="#222a40"/>
        <path id="Trazado_901699" data-name="Trazado 901699" d="M209.344,217.547a.2.2,0,0,1-.043,0,9.278,9.278,0,0,1-3.291-1.407,15.634,15.634,0,0,1-2.52-3.49.23.23,0,0,1,.078-.305.206.206,0,0,1,.289.082,15.586,15.586,0,0,0,2.415,3.361,9.046,9.046,0,0,0,3.115,1.32.224.224,0,0,1,.165.264.215.215,0,0,1-.207.178" transform="translate(-144.525 -129.035)" fill="#222a40"/>
        <path id="Trazado_901700" data-name="Trazado 901700" d="M202.561,219.763a.206.206,0,0,1-.088-.02,23.161,23.161,0,0,1-4.988-3.654.232.232,0,0,1-.013-.316.2.2,0,0,1,.3-.014,23.187,23.187,0,0,0,4.877,3.577.229.229,0,0,1,.105.3.212.212,0,0,1-.193.131" transform="translate(-141.042 -130.908)" fill="#222a40"/>
        <path id="Trazado_901701" data-name="Trazado 901701" d="M312.687,182.838v.008s-.694,6.684-2.244,10.494c-.546,1.34-1.2,2.321-1.963,2.54-2.937.834-22.836,1.324-22.836,1.324s-1.831,1.34-3.868,2.781c-2.354,1.659-5,3.459-5.388,3.459a9.08,9.08,0,0,1-1.948-.359,11.583,11.583,0,0,1-1.853-.327c-1.3-.3-.886-1.3-.886-1.3l4.34-1.986,3.713-2.945a12.468,12.468,0,0,1-2.65.6,1.573,1.573,0,0,1-1.638-.9l4.783-2.773a3.07,3.07,0,0,1,2.177-2.61,5.253,5.253,0,0,1,2.281-.171l16.5-2.742.31-6.068c4.229,1.838,9.071,1.34,11.174.981" transform="translate(-183.812 -112.203)" fill="#e48c59"/>
        <path id="Trazado_901702" data-name="Trazado 901702" d="M346.5,167.677c-1.107,0-1.918-.063-1.992-.069a23.173,23.173,0,0,1-7.768-1.867.225.225,0,0,1-.121-.221l.923-11.911a.212.212,0,1,1,.422.037l-.911,11.753a23.384,23.384,0,0,0,7.486,1.764,22.1,22.1,0,0,0,6.592-.467.21.21,0,0,1,.263.151.225.225,0,0,1-.144.278,17.293,17.293,0,0,1-4.751.553" transform="translate(-221.255 -96.477)" fill="#222a40"/>
        <path id="Trazado_901703" data-name="Trazado 901703" d="M277.961,224.468a.211.211,0,0,1-.2-.137.228.228,0,0,1,.113-.292,44.382,44.382,0,0,0,3.992-1.991,13.66,13.66,0,0,0,2.215-1.843.2.2,0,0,1,.3,0,.233.233,0,0,1,0,.316,13.8,13.8,0,0,1-2.3,1.91,43.447,43.447,0,0,1-4.046,2.02.2.2,0,0,1-.082.017" transform="translate(-187.333 -133.362)" fill="#222a40"/>
        <path id="Trazado_901704" data-name="Trazado 901704" d="M269.215,141.685a5.585,5.585,0,0,1-.664.74l-1.018-.374s0,.008-.008,0l-6.783-2.431-1.025-.374c-.008-.023-.008-.054-.015-.078a6.638,6.638,0,0,1-.089-.927,5.746,5.746,0,0,1,3.166-5.275,5.278,5.278,0,0,1,7.13,2.828,5.941,5.941,0,0,1-.694,5.89" transform="translate(-176.881 -84.9)" fill="#e8a03f"/>
        <path id="Trazado_901705" data-name="Trazado 901705" d="M269.529,142.528a4.472,4.472,0,0,1-.767.693s0,.008-.008,0l-6.783-2.431a4.65,4.65,0,0,1-.206-1.044A4.773,4.773,0,0,1,264.377,135a4.4,4.4,0,0,1,5.942,2.353,4.954,4.954,0,0,1-.79,5.173" transform="translate(-178.111 -86.071)" fill="#ecb45e"/>
        <path id="Trazado_901706" data-name="Trazado 901706" d="M260.149,108.421a5.347,5.347,0,0,1-3.489,6.533,5,5,0,0,1-6.189-3.683,5.347,5.347,0,0,1,3.489-6.533,5,5,0,0,1,6.189,3.683" transform="translate(-171.506 -69.47)" fill="#e8a03f"/>
        <path id="Trazado_901707" data-name="Trazado 901707" d="M260.482,109.752a4.458,4.458,0,0,1-2.907,5.444,4.167,4.167,0,0,1-5.157-3.069,4.458,4.458,0,0,1,2.907-5.444,4.167,4.167,0,0,1,5.157,3.069" transform="translate(-172.646 -70.564)" fill="#ecb45e"/>
        <path id="Trazado_901708" data-name="Trazado 901708" d="M291.351,112.461a3.992,3.992,0,0,1-2.6,4.877,3.731,3.731,0,0,1-4.621-2.75,3.992,3.992,0,0,1,2.6-4.877,3.731,3.731,0,0,1,4.621,2.75" transform="translate(-190.926 -72.247)" fill="#e8a03f"/>
        <path id="Trazado_901709" data-name="Trazado 901709" d="M291.6,113.455a3.329,3.329,0,0,1-2.171,4.064,3.111,3.111,0,0,1-3.849-2.291,3.328,3.328,0,0,1,2.17-4.064,3.111,3.111,0,0,1,3.85,2.291" transform="translate(-191.777 -73.063)" fill="#ecb45e"/>
        <path id="Trazado_901710" data-name="Trazado 901710" d="M380.292,235.161a1.479,1.479,0,1,1-1.4,1.477,1.439,1.439,0,0,1,1.4-1.477" transform="translate(-245.615 -141.665)" fill="#c1c9fc"/>
        <path id="Trazado_901711" data-name="Trazado 901711" d="M406.726,235.161a1.479,1.479,0,1,1-1.4,1.477,1.439,1.439,0,0,1,1.4-1.477" transform="translate(-260.847 -141.665)" fill="#c1c9fc"/>
        <path id="Trazado_901712" data-name="Trazado 901712" d="M380.292,208.727a1.479,1.479,0,1,1-1.4,1.477,1.439,1.439,0,0,1,1.4-1.477" transform="translate(-245.615 -127.054)" fill="#c1c9fc"/>
        <path id="Trazado_901713" data-name="Trazado 901713" d="M406.726,208.727a1.479,1.479,0,1,1-1.4,1.477,1.439,1.439,0,0,1,1.4-1.477" transform="translate(-260.847 -127.054)" fill="#c1c9fc"/>
        <path id="Trazado_901714" data-name="Trazado 901714" d="M380.292,182.293a1.479,1.479,0,1,1-1.4,1.477,1.439,1.439,0,0,1,1.4-1.477" transform="translate(-245.615 -112.444)" fill="#c1c9fc"/>
        <path id="Trazado_901715" data-name="Trazado 901715" d="M406.726,182.293a1.479,1.479,0,1,1-1.4,1.477,1.439,1.439,0,0,1,1.4-1.477" transform="translate(-260.847 -112.444)" fill="#c1c9fc"/>
        <path id="Trazado_901716" data-name="Trazado 901716" d="M433.91,235.161a1.479,1.479,0,1,1-1.4,1.477,1.439,1.439,0,0,1,1.4-1.477" transform="translate(-276.511 -141.665)" fill="#c1c9fc"/>
        <path id="Trazado_901717" data-name="Trazado 901717" d="M460.344,235.161a1.479,1.479,0,1,1-1.4,1.477,1.439,1.439,0,0,1,1.4-1.477" transform="translate(-291.743 -141.665)" fill="#c1c9fc"/>
        <path id="Trazado_901718" data-name="Trazado 901718" d="M433.91,208.727a1.479,1.479,0,1,1-1.4,1.477,1.439,1.439,0,0,1,1.4-1.477" transform="translate(-276.511 -127.054)" fill="#c1c9fc"/>
        <path id="Trazado_901719" data-name="Trazado 901719" d="M460.344,208.727a1.479,1.479,0,1,1-1.4,1.477,1.439,1.439,0,0,1,1.4-1.477" transform="translate(-291.743 -127.054)" fill="#c1c9fc"/>
        <path id="Trazado_901720" data-name="Trazado 901720" d="M433.91,182.293a1.479,1.479,0,1,1-1.4,1.477,1.439,1.439,0,0,1,1.4-1.477" transform="translate(-276.511 -112.444)" fill="#c1c9fc"/>
        <path id="Trazado_901721" data-name="Trazado 901721" d="M460.344,182.293a1.479,1.479,0,1,1-1.4,1.477,1.439,1.439,0,0,1,1.4-1.477" transform="translate(-291.743 -112.444)" fill="#c1c9fc"/>
      </g>
    </g>
  </g>
</svg>
