<svg xmlns="http://www.w3.org/2000/svg" xmlns:xlink="http://www.w3.org/1999/xlink" width="396" height="249.729" viewBox="0 0 396 249.729">
  <defs>
    <clipPath id="clip-path">
      <rect id="Rectángulo_404864" data-name="Rectángulo 404864" width="130.662" height="96.604" fill="none"/>
    </clipPath>
    <filter id="Trazado_901790" x="63.831" y="37.104" width="148.159" height="164.679" filterUnits="userSpaceOnUse">
      <feOffset dy="3" input="SourceAlpha"/>
      <feGaussianBlur stdDeviation="6.5" result="blur"/>
      <feFlood flood-opacity="0.333"/>
      <feComposite operator="in" in2="blur"/>
      <feComposite in="SourceGraphic"/>
    </filter>
    <clipPath id="clip-path-3">
      <rect id="Rectángulo_404862" data-name="Rectángulo 404862" width="242.001" height="237.279" fill="none"/>
    </clipPath>
  </defs>
  <g id="Grupo_1114590" data-name="Grupo 1114590" transform="translate(-919.051 -1542)">
    <path id="Trazado_1034155" data-name="Trazado 1034155" d="M8,0H375.4a8,8,0,0,1,8,8V218.594a8,8,0,0,1-8,8H8a8,8,0,0,1-8-8V8A8,8,0,0,1,8,0Z" transform="translate(931.651 1554.45)" fill="#cdb9f8"/>
    <g id="Grupo_1112145" data-name="Grupo 1112145" transform="translate(919.051 1542)">
      <g id="Grupo_1112142" data-name="Grupo 1112142">
        <g id="Grupo_1112141" data-name="Grupo 1112141" clip-path="url(#clip-path)">
          <path id="Trazado_901797" data-name="Trazado 901797" d="M122.567,100.277H4.048A4.048,4.048,0,0,1,0,96.229V10.15A4.048,4.048,0,0,1,4.048,6.1h118.52a4.048,4.048,0,0,1,4.048,4.048V96.229a4.048,4.048,0,0,1-4.048,4.048" transform="translate(0 -3.673)" fill="#1574dd"/>
          <path id="Trazado_901798" data-name="Trazado 901798" d="M132.737,94.175H14.218a4.048,4.048,0,0,1-4.048-4.048V4.048A4.048,4.048,0,0,1,14.218,0h118.52a4.048,4.048,0,0,1,4.048,4.048V90.127a4.048,4.048,0,0,1-4.048,4.048" transform="translate(-6.122)" fill="#fcfbff"/>
        </g>
      </g>
      <text id="_50_100" data-name="50 / 100" transform="translate(47.147 25.537)" fill="#7040bf" font-size="4" font-family="Poppins-SemiBold, Poppins" font-weight="600"><tspan x="0" y="0">50 / 100</tspan></text>
      <g id="Grupo_1112144" data-name="Grupo 1112144">
        <g id="Grupo_1112143" data-name="Grupo 1112143" clip-path="url(#clip-path)">
          <rect id="Rectángulo_404865" data-name="Rectángulo 404865" width="13.155" height="20.586" transform="translate(97.344 41.25)" fill="#7040bf"/>
          <rect id="Rectángulo_404866" data-name="Rectángulo 404866" width="13.155" height="30.522" transform="translate(48.039 31.314)" fill="#7040bf"/>
          <rect id="Rectángulo_404867" data-name="Rectángulo 404867" width="13.155" height="26.507" transform="translate(73.53 35.329)" fill="#1574dd"/>
          <line id="Línea_1123" data-name="Línea 1123" x1="71.496" transform="translate(43.404 61.836)" fill="none" stroke="#1574dd" stroke-miterlimit="10" stroke-width="0.75"/>
          <path id="Trazado_901799" data-name="Trazado 901799" d="M82.793,41.255A13.963,13.963,0,0,0,70.15,33.221V47.186Z" transform="translate(-42.23 -19.999)" fill="#1574dd"/>
          <path id="Trazado_901800" data-name="Trazado 901800" d="M48.8,61.073A14.114,14.114,0,1,1,62.916,46.96,14.13,14.13,0,0,1,48.8,61.073m0-27.929A13.815,13.815,0,1,0,62.618,46.96,13.831,13.831,0,0,0,48.8,33.145" transform="translate(-20.882 -19.773)" fill="#7040bf"/>
          <rect id="Rectángulo_404868" data-name="Rectángulo 404868" width="13.814" height="2.125" transform="translate(47.146 9.782)" fill="#1574dd"/>
          <rect id="Rectángulo_404869" data-name="Rectángulo 404869" width="21.909" height="2.125" transform="translate(47.147 14.032)" fill="#7040bf"/>
          <rect id="Rectángulo_404870" data-name="Rectángulo 404870" width="21.909" height="2.125" transform="translate(47.147 17.574)" fill="#7040bf"/>
          <rect id="Rectángulo_404871" data-name="Rectángulo 404871" width="13.814" height="2.125" transform="translate(47.806 66.525)" fill="#1574dd"/>
          <rect id="Rectángulo_404872" data-name="Rectángulo 404872" width="21.909" height="2.125" transform="translate(47.806 70.775)" fill="#7040bf"/>
          <rect id="Rectángulo_404873" data-name="Rectángulo 404873" width="13.814" height="2.125" transform="translate(47.806 74.316)" fill="#7040bf"/>
          <rect id="Rectángulo_404874" data-name="Rectángulo 404874" width="13.814" height="2.125" transform="translate(81.779 66.525)" fill="#1574dd"/>
          <rect id="Rectángulo_404875" data-name="Rectángulo 404875" width="21.909" height="2.125" transform="translate(81.779 70.775)" fill="#7040bf"/>
          <rect id="Rectángulo_404876" data-name="Rectángulo 404876" width="13.814" height="2.125" transform="translate(81.779 74.316)" fill="#7040bf"/>
          <rect id="Rectángulo_404877" data-name="Rectángulo 404877" width="7.911" height="2.125" transform="translate(13.956 44.87)" fill="#7040bf"/>
          <rect id="Rectángulo_404878" data-name="Rectángulo 404878" width="12.548" height="2.125" transform="translate(13.956 49.12)" fill="#7040bf"/>
          <rect id="Rectángulo_404879" data-name="Rectángulo 404879" width="7.911" height="2.125" transform="translate(13.956 55.461)" fill="#7040bf"/>
          <rect id="Rectángulo_404880" data-name="Rectángulo 404880" width="12.548" height="2.125" transform="translate(13.956 59.711)" fill="#7040bf"/>
          <rect id="Rectángulo_404881" data-name="Rectángulo 404881" width="7.911" height="2.125" transform="translate(13.956 66.053)" fill="#7040bf"/>
          <rect id="Rectángulo_404882" data-name="Rectángulo 404882" width="12.548" height="2.125" transform="translate(13.956 70.303)" fill="#7040bf"/>
        </g>
      </g>
    </g>
    <g id="Grupo_1112140" data-name="Grupo 1112140" transform="translate(1002.382 1595.605)">
      <g id="Grupo_1114589" data-name="Grupo 1114589" transform="translate(0 0)">
        <g transform="matrix(1, 0, 0, 1, -83.33, -53.6)" filter="url(#Trazado_901790)">
          <path id="Trazado_901790-2" data-name="Trazado 901790" d="M109.159,3.2V122.479a3.2,3.2,0,0,1-3.2,3.2H3.2a3.2,3.2,0,0,1-3.2-3.2V3.2A3.2,3.2,0,0,1,3.2,0H105.96a3.2,3.2,0,0,1,3.2,3.2" transform="translate(83.33 53.6)" fill="#412976"/>
        </g>
        <path id="Trazado_901791" data-name="Trazado 901791" d="M77.724,108.917H35.786a1.3,1.3,0,1,0,0,2.6H77.8a1.3,1.3,0,0,0,1.3-1.372,1.352,1.352,0,0,0-1.374-1.232" transform="translate(-1.559 -4.923)" fill="#fcfbff"/>
        <path id="Trazado_901792" data-name="Trazado 901792" d="M77.724,101.718H35.786a1.3,1.3,0,1,0,0,2.6H77.8a1.3,1.3,0,0,0,1.3-1.372,1.352,1.352,0,0,0-1.374-1.232" transform="translate(-1.559 -4.598)" fill="#fcfbff"/>
        <path id="Trazado_901793" data-name="Trazado 901793" d="M77.724,116.674H35.786a1.3,1.3,0,1,0,0,2.6H77.8a1.3,1.3,0,0,0,1.3-1.372,1.352,1.352,0,0,0-1.374-1.232" transform="translate(-1.559 -5.274)" fill="#fcfbff"/>
        <path id="Trazado_901794" data-name="Trazado 901794" d="M109.159,3.2V16.342H0V3.2A3.2,3.2,0,0,1,3.2,0H105.96a3.2,3.2,0,0,1,3.2,3.2" transform="translate(0 0)" fill="#fcfbff"/>
        <path id="Trazado_901795" data-name="Trazado 901795" d="M77.858,57.451a20.761,20.761,0,0,1-.747,5.513c4-.417,7.979-.964,11.952-1.572A32.281,32.281,0,0,0,57.03,25.177q-1.318,0-2.611.106c-.029,3.846-.108,7.692-.207,11.537A20.793,20.793,0,0,1,77.858,57.451" transform="translate(-2.45 -1.138)" fill="#fcfbff"/>
        <path id="Trazado_901796" data-name="Trazado 901796" d="M75.306,64.3A20.826,20.826,0,1,1,51.543,37.041c.1-3.873.181-7.745.211-11.618A32.274,32.274,0,1,0,87.48,62.715c-4.046.616-8.1,1.167-12.174,1.581" transform="translate(-1.056 -1.149)" fill="#1574dd"/>
      </g>
    </g>
    <g id="Grupo_1112137" data-name="Grupo 1112137" transform="translate(1039.056 1554.45)">
      <g id="Grupo_1112136" data-name="Grupo 1112136" clip-path="url(#clip-path-3)">
        <path id="Trazado_901722" data-name="Trazado 901722" d="M77.068,205.632c-10.294-52.914,31.484-101.5,85.374-100.2,19.064.459,40.6,4.19,55.022,16.425,31.372,26.615,35.007,102.9,1.476,110.413-48.1,10.777-101.61,2.506-117.757,1.189-5.55-.453-21.256-13.127-24.115-27.823" transform="translate(-0.577 -0.805)" fill="#ffac00"/>
        <path id="Trazado_901723" data-name="Trazado 901723" d="M220.285,124.94a107.081,107.081,0,0,1,10.825,42.817,111.759,111.759,0,0,1-6.985,44,104.465,104.465,0,0,1-11.653,22.359c-.3.436-1.018.023-.715-.419a106.256,106.256,0,0,0,16.706-40.531,110.884,110.884,0,0,0-.623-44.212,103.563,103.563,0,0,0-8.269-23.592c-.235-.476.479-.9.715-.418" transform="translate(-1.617 -0.952)" fill="#9e7035"/>
        <path id="Trazado_901724" data-name="Trazado 901724" d="M195.151,117.874s26.5,10.363,21.437,39.714c-3.022,17.508-32.435,12.9-57.267,11.37s-40.872-17.7-31.763-26.794,67.593-24.29,67.593-24.29" transform="translate(-0.955 -0.9)" fill="#9e7035"/>
        <path id="Trazado_901725" data-name="Trazado 901725" d="M153.468,19.878s-5.391-13.727,8.4-12.886c0,0,3.224-5.616,12.627-3.673s17.039,8.671,15.644,17.852-2.881,21.381,5.5,24.585,15.352,7.389,15.45,17.117-4.49,15.475,0,20.983S205.825,99.3,193.8,97.946s-14.241-39-26.774-37.467S153.5,53.818,156.191,46.21s-3.623-20.357-2.723-26.331" transform="translate(-1.164 -0.022)" fill="#00184c"/>
        <path id="Trazado_901726" data-name="Trazado 901726" d="M176.984,9.651S178.167-1.023,188.107.08s8.524,18,0,16.913-11.123-7.343-11.123-7.343" transform="translate(-1.352 0)" fill="#00184c"/>
        <path id="Trazado_901727" data-name="Trazado 901727" d="M165.821,50.424s-9,6.387-15.656,9.453c-6.485,2.986.165,11.175-1.565,13.872s-5.7,8.721-4.882,13.406,7.544,8.85,6.707,11.437-6.55,24.462-8.859,31.382c-2.182,6.543,6.555,13.281,18.8,13.347s14.128,1.639,27.412-1.2c12.389-2.653,18.374-7.324,15.44-12.673s-7.9-12.8-9.988-23.078,3.47-17.4,8.121-33.659c5.873-20.53-4.154-23.051-18.836-24.665a34.974,34.974,0,0,0-16.7,2.384" transform="translate(-1.079 -0.365)" fill="#1574dd"/>
        <path id="Trazado_901728" data-name="Trazado 901728" d="M147.9,61.841s-9.25,13.906-10.078,19.979,11.241,6.538,11.241,6.538S152.8,68.145,147.9,61.841" transform="translate(-1.052 -0.472)" fill="#1574dd"/>
        <path id="Trazado_901729" data-name="Trazado 901729" d="M147.4,121.5a69.421,69.421,0,0,0,41.733,12.638.427.427,0,0,0,0-.853,68.655,68.655,0,0,1-41.3-12.522c-.45-.318-.876.423-.431.737" transform="translate(-1.124 -0.921)" fill="#0559b5"/>
        <path id="Trazado_901730" data-name="Trazado 901730" d="M151.75,71.089c2.624,5.069,10.352,4.279,15.079,4.067a78.21,78.21,0,0,0,21.917-4.217c.525-.181.2-.981-.322-.8A77.445,77.445,0,0,1,168.9,74.169a58.28,58.28,0,0,1-9.4.085c-2.636-.235-5.635-.942-6.952-3.487-.253-.488-1.057-.173-.8.322" transform="translate(-1.159 -0.535)" fill="#0559b5"/>
        <path id="Trazado_901731" data-name="Trazado 901731" d="M152.562,98.413a92.96,92.96,0,0,1,29.816,1.913c.542.125.673-.728.134-.852a93.738,93.738,0,0,0-30.048-1.918.432.432,0,0,0,.1.857" transform="translate(-1.162 -0.741)" fill="#0559b5"/>
        <path id="Trazado_901732" data-name="Trazado 901732" d="M196.706,69.279c-.173,4.856-3.525,9.148-5.672,13.323a48.156,48.156,0,0,0-4.956,13.619,26.4,26.4,0,0,0,1.193,13.831c1.658,4.483,4.265,8.552,6.661,12.663,1.343,2.3,2.912,4.5,4.076,6.9a13.923,13.923,0,0,1,1.331,7.749c-.059.551.793.688.852.135.445-4.182-.876-7.622-3.024-11.137-2.579-4.221-5.258-8.433-7.454-12.87a27.116,27.116,0,0,1-3.068-15.1,42.8,42.8,0,0,1,4.7-14.49c2.273-4.548,6.031-9.222,6.217-14.487.02-.549-.833-.688-.852-.134" transform="translate(-1.418 -0.526)" fill="#0559b5"/>
        <path id="Trazado_901733" data-name="Trazado 901733" d="M188.006,48.739a14.255,14.255,0,0,1-4.307,6.329,33.108,33.108,0,0,1-10.206,5.923c-3.148,1.144-6.989,1.211-9.377-1.486a9.886,9.886,0,0,1-2.206-6.318c.276-.18.539-.355.791-.524a9.462,9.462,0,0,0,2.01,6.269c2.437,2.789,6.391,2.213,9.442.92,5.084-2.158,11.282-5.683,13.06-11.238.267.041.531.081.792.124" transform="translate(-1.237 -0.371)" fill="#0559b5"/>
        <path id="Trazado_901734" data-name="Trazado 901734" d="M41.391,202.016,31.6,216.188s2.409,6.289,8.581,7.19l14.908-16.716Z" transform="translate(-0.241 -1.542)" fill="#ffa189"/>
        <path id="Trazado_901735" data-name="Trazado 901735" d="M0,215.567l34.506,22.917a19.288,19.288,0,0,0,1.147-1.567c.161-.241.3-.489.464-.728,3.229-4.67,9.709-14.63,6.578-14.61-4.613,2.351-9.12-2.919-9.12-2.919s-.442-6.824-3.7-7.008-2.31,4.207-6.877,4.539c-3.5.251-5.71-2.7-9.561-4.315a12.647,12.647,0,0,0-4.065-.974,9.924,9.924,0,0,0-7.589,2.484A9,9,0,0,0,0,215.567" transform="translate(0 -1.61)" fill="#00184c"/>
        <path id="Trazado_901736" data-name="Trazado 901736" d="M41.251,227.781a17.945,17.945,0,0,0-13.815,3.534c-.423.325-.836-.395-.418-.715a18.752,18.752,0,0,1,14.453-3.617c.525.084.3.883-.22.8" transform="translate(-0.205 -1.731)" fill="#fff"/>
        <path id="Trazado_901737" data-name="Trazado 901737" d="M24.181,215.436a.547.547,0,0,0,.161.046,6.321,6.321,0,0,1,1.509,2.772c.131.506-.665.665-.795.161a5.477,5.477,0,0,0-1.3-2.382.371.371,0,0,1,.408-.6l.013.006" transform="translate(-0.181 -1.644)" fill="#fff"/>
        <path id="Trazado_901738" data-name="Trazado 901738" d="M22.5,215.293a.555.555,0,0,0,.161.046,6.32,6.32,0,0,1,1.509,2.772c.131.506-.665.665-.795.161a5.467,5.467,0,0,0-1.3-2.382.371.371,0,0,1,.408-.6l.013.006" transform="translate(-0.168 -1.643)" fill="#fff"/>
        <path id="Trazado_901739" data-name="Trazado 901739" d="M20.42,214.917a.584.584,0,0,0,.161.047,6.312,6.312,0,0,1,1.509,2.771c.131.506-.665.665-.795.161a5.477,5.477,0,0,0-1.3-2.382.371.371,0,0,1,.408-.6l.013.006" transform="translate(-0.152 -1.641)" fill="#fff"/>
        <path id="Trazado_901740" data-name="Trazado 901740" d="M18.251,213.94a.582.582,0,0,0,.161.047,6.311,6.311,0,0,1,1.509,2.771c.131.506-.665.665-.795.161a5.482,5.482,0,0,0-1.3-2.382.371.371,0,0,1,.408-.6l.013.006" transform="translate(-0.135 -1.633)" fill="#fff"/>
        <path id="Trazado_901741" data-name="Trazado 901741" d="M1.8,213.387l8.14,5.406a8.163,8.163,0,0,0,3.513-6.917,12.635,12.635,0,0,0-4.066-.974A9.917,9.917,0,0,0,1.8,213.387" transform="translate(-0.014 -1.61)" fill="#fff"/>
        <path id="Trazado_901742" data-name="Trazado 901742" d="M0,215.586,34.506,238.5a19.292,19.292,0,0,0,1.147-1.567l.478-.719L1.785,213.406A9,9,0,0,0,0,215.586" transform="translate(0 -1.629)" fill="#00184c"/>
        <path id="Trazado_901743" data-name="Trazado 901743" d="M169.584,130.923s-23.14-13.7-61.871-19.956c-14.7-2.373-71.544,91.259-71.544,91.259l17.172,12.55c13.528-18.44,41.206-35.97,49.832-58.332.74-1.919,20.325,4.771,43.629,10.108,60.6,9.078,27.178-19.137,22.782-35.629" transform="translate(-0.276 -0.847)" fill="#00184c"/>
        <path id="Trazado_901744" data-name="Trazado 901744" d="M106.769,151l-7.822-1.084.509-.29a62.822,62.822,0,0,1-12.192,25.1,74.25,74.25,0,0,1-10.3,10.166c-4.293,3.625-8.285,7.578-12.683,11.083s-8.014,7.767-11.76,11.917c-.357.4-.942-.192-.585-.587a119.033,119.033,0,0,1,10.039-10.487c1.967-1.7,4.047-3.269,6-4.993,2.052-1.81,4.048-3.685,6.091-5.507,3.678-3.279,7.5-6.279,10.773-9.99a61.679,61.679,0,0,0,13.82-26.927.425.425,0,0,1,.509-.289l7.822,1.084c.526.073.3.871-.22.8" transform="translate(-0.396 -1.138)" fill="#0d2f78"/>
        <path id="Trazado_901745" data-name="Trazado 901745" d="M182.4,47.927s-7.821,11.009-16.68,4.8l.608-5.174.665-5.647.464-3.953,11.482-7.543Z" transform="translate(-1.266 -0.232)" fill="#ffa189"/>
        <path id="Trazado_901746" data-name="Trazado 901746" d="M176.727,37.029c-4.461,9.964-8.787,10.7-10.4,10.576l.664-5.646Z" transform="translate(-1.27 -0.283)" fill="#00184c"/>
        <path id="Trazado_901747" data-name="Trazado 901747" d="M182.459,27.317c-.882,3.969-1.906,5.324-4.542,9.3a14.637,14.637,0,0,1-8.89,5.858c-8.139,1.175-12.156-1.9-11.853-13.058.189-6.93-1.961-10.653-.379-13.426h0c.11-.131.22-.257.331-.381a15.557,15.557,0,0,1,10.456-5.044c19.867-1.463,16.14,11.059,14.874,16.755" transform="translate(-1.193 -0.08)" fill="#ffa189"/>
        <path id="Trazado_901748" data-name="Trazado 901748" d="M162.489,35.593a5.217,5.217,0,0,0,5.021-2.093c.311-.431-.321-.968-.632-.535a4.4,4.4,0,0,1-4.246,1.812.414.414,0,0,0-.143.816" transform="translate(-1.239 -0.25)" fill="#00184c"/>
        <path id="Trazado_901749" data-name="Trazado 901749" d="M161.366,28.132c-.011.561-.361,1.008-.782,1a.917.917,0,0,1-.741-1.031c.011-.561.361-1.009.782-1s.752.47.741,1.031" transform="translate(-1.221 -0.207)" fill="#00184c"/>
        <path id="Trazado_901750" data-name="Trazado 901750" d="M167.759,27.424c-.011.561-.361,1.009-.782,1a.916.916,0,0,1-.741-1.031c.011-.561.361-1.009.782-1s.752.47.741,1.031" transform="translate(-1.27 -0.202)" fill="#00184c"/>
        <path id="Trazado_901751" data-name="Trazado 901751" d="M159.051,10.709c11.619-6.8,22.153.231,24.323,4.631s2.717,11.929.066,10.813-7.218,3.209-9.286.431c-1.146-1.541.6-7.023.6-7.023s-9.28,1.527-8.248-4.509c0,0-4.987-4-7.642.053s-2.278,6.99-2.278,6.99c-3.149.293-5.868-6.511,2.462-11.385" transform="translate(-1.172 -0.06)" fill="#00184c"/>
        <path id="Trazado_901752" data-name="Trazado 901752" d="M163.649,38.378a2.237,2.237,0,0,0,2.329-.43c.322-.325-.2-.808-.519-.483a1.567,1.567,0,0,1-1.646.223c-.439-.129-.6.562-.164.69" transform="translate(-1.248 -0.285)" fill="#e87e64"/>
        <path id="Trazado_901753" data-name="Trazado 901753" d="M172.427,29.16c.021.592-.883,1.106-2.02,1.147s-2.076-.407-2.1-1,.883-1.105,2.02-1.147,2.077.407,2.1,1" transform="translate(-1.285 -0.215)" fill="#e87e64"/>
        <path id="Trazado_901754" data-name="Trazado 901754" d="M160.585,30.2c.021.594-.885,1.106-2.019,1.148a3.3,3.3,0,0,1-1.4-.231c0-.5,0-1.021.015-1.558,0-.023,0-.045,0-.065a3.433,3.433,0,0,1,1.306-.292c1.136-.041,2.075.406,2.1,1" transform="translate(-1.2 -0.223)" fill="#e87e64"/>
        <path id="Trazado_901755" data-name="Trazado 901755" d="M167.016,23.335a1.66,1.66,0,0,1,2.252.652c.357.83,1.715.415,1.354-.426a3.043,3.043,0,0,0-4.031-1.58c-.833.353-.417,1.711.426,1.354" transform="translate(-1.269 -0.166)" fill="#00184c"/>
        <path id="Trazado_901756" data-name="Trazado 901756" d="M158.821,24.674c.52-.693,1.169-1.688,2.165-1.481.894.185,1.223-1.195.327-1.381-1.587-.328-2.653.727-3.532,1.9-.543.723.49,1.7,1.039.967" transform="translate(-1.204 -0.166)" fill="#00184c"/>
        <path id="Trazado_901757" data-name="Trazado 901757" d="M174.929,30.836a4.958,4.958,0,0,1,.453-4.306c1.014-1.682,2.907-4.284,4.823-4.093,2.816.281,3.244,2.76,3.066,5.307s-1.719,5.934-5.236,5.532a3.592,3.592,0,0,1-3.106-2.441" transform="translate(-1.334 -0.171)" fill="#ffa189"/>
        <path id="Trazado_901758" data-name="Trazado 901758" d="M178.157,35.116a3.576,3.576,0,1,1,3.728,3.417,3.581,3.581,0,0,1-3.728-3.417m.8-.035a2.772,2.772,0,1,0,2.649-2.891,2.776,2.776,0,0,0-2.649,2.891" transform="translate(-1.361 -0.24)" fill="#fff"/>
        <path id="Trazado_901759" data-name="Trazado 901759" d="M178.629,30.231a6.331,6.331,0,0,1-.009-3.127c.291-.91,1.2-2.261,2.367-1.957.39.1.616-.488.223-.59a2.562,2.562,0,0,0-2.719,1.344,5.97,5.97,0,0,0-.483,4.442.316.316,0,0,0,.621-.111" transform="translate(-1.358 -0.187)" fill="#00184c"/>
        <path id="Trazado_901760" data-name="Trazado 901760" d="M165.255,30.348a4.743,4.743,0,0,1,.147-6.01,3.481,3.481,0,0,1,2.68-1.206A4.034,4.034,0,0,1,171.7,27.5a4.6,4.6,0,0,1-1.148,2.979,3.477,3.477,0,0,1-2.68,1.2c-.092,0-.185-.008-.276-.018a3.511,3.511,0,0,1-2.342-1.316m5.8-2.865a3.4,3.4,0,0,0-2.992-3.707,2.842,2.842,0,0,0-2.187.993,4.1,4.1,0,0,0-.127,5.171,2.757,2.757,0,0,0,4.324.106A3.95,3.95,0,0,0,171.059,27.484Z" transform="translate(-1.255 -0.177)" fill="#fff"/>
        <path id="Trazado_901761" data-name="Trazado 901761" d="M162.751,29.073a.363.363,0,0,1,.316-.05,4.925,4.925,0,0,0,.043-.515,4.033,4.033,0,0,0-3.619-4.366,3.481,3.481,0,0,0-2.679,1.2,4.743,4.743,0,0,0-.148,6.011,3.513,3.513,0,0,0,2.342,1.316q.137.015.277.018a3.477,3.477,0,0,0,2.679-1.2,4.244,4.244,0,0,0,.575-.818,1.083,1.083,0,0,1,.215-1.6m-1.266,1.983a2.757,2.757,0,0,1-4.324-.106,4.1,4.1,0,0,1,.126-5.171,2.845,2.845,0,0,1,2.188-.993,3.4,3.4,0,0,1,2.992,3.707,3.955,3.955,0,0,1-.982,2.563" transform="translate(-1.189 -0.184)" fill="#fff"/>
        <path id="Trazado_901762" data-name="Trazado 901762" d="M163.57,31.315h-.006a1.379,1.379,0,0,1-.25-2.747l.376-1.2a.277.277,0,0,1,.529.165l-.425,1.359a.278.278,0,0,1-.222.191c-.04.006-.984.167-.941.92.04.7.926.76.964.763a.277.277,0,0,1-.025.553" transform="translate(-1.238 -0.207)" fill="#00184c"/>
        <path id="Trazado_901763" data-name="Trazado 901763" d="M162.721,27.234a1.612,1.612,0,0,1,1.758-.437.241.241,0,0,1-.177.449,1.112,1.112,0,0,0-1.195.275c-.209.224-.6-.06-.387-.287" transform="translate(-1.242 -0.204)" fill="#fff"/>
        <path id="Trazado_901764" data-name="Trazado 901764" d="M171.21,25.838a8.189,8.189,0,0,1,5.37-2.766c.308-.031.386.445.077.476a7.7,7.7,0,0,0-5.059,2.576c-.2.23-.594-.054-.388-.287" transform="translate(-1.307 -0.176)" fill="#fff"/>
        <path id="Trazado_901765" data-name="Trazado 901765" d="M123.792,206.22l2.5,17.042s6.048,2.959,11.179-.586l-.482-22.394Z" transform="translate(-0.946 -1.529)" fill="#ffa189"/>
        <path id="Trazado_901766" data-name="Trazado 901766" d="M100.634,238.949h41.423a19.156,19.156,0,0,0,.088-1.94c0-.29-.021-.574-.016-.863.106-5.677,0-17.56-2.6-15.809-2.542,4.509-9.212,2.613-9.212,2.613s-4.143-5.44-6.958-3.792.4,4.783-3.217,7.587c-2.776,2.144-6.25.911-10.352,1.695a12.642,12.642,0,0,0-3.925,1.439,9.915,9.915,0,0,0-4.947,6.267,8.991,8.991,0,0,0-.282,2.8" transform="translate(-0.768 -1.671)" fill="#00184c"/>
        <path id="Trazado_901767" data-name="Trazado 901767" d="M141.832,226.331a17.943,17.943,0,0,0-9.606,10.55c-.171.5-.972.287-.8-.22a18.748,18.748,0,0,1,9.987-11.045c.481-.218.9.5.418.715" transform="translate(-1.004 -1.722)" fill="#fff"/>
        <path id="Trazado_901768" data-name="Trazado 901768" d="M120.686,225.585a.539.539,0,0,0,.16-.051,6.317,6.317,0,0,1,2.791,1.474c.389.349-.187.922-.575.574a5.466,5.466,0,0,0-2.4-1.267.371.371,0,0,1,.006-.727l.014,0" transform="translate(-0.919 -1.722)" fill="#fff"/>
        <path id="Trazado_901769" data-name="Trazado 901769" d="M119.211,226.394a.532.532,0,0,0,.159-.051,6.325,6.325,0,0,1,2.792,1.474c.388.349-.188.922-.575.574a5.475,5.475,0,0,0-2.4-1.267.371.371,0,0,1,.006-.727l.015,0" transform="translate(-0.908 -1.728)" fill="#fff"/>
        <path id="Trazado_901770" data-name="Trazado 901770" d="M117.267,227.234a.538.538,0,0,0,.16-.051,6.317,6.317,0,0,1,2.791,1.474c.389.349-.187.922-.575.574a5.466,5.466,0,0,0-2.4-1.267.371.371,0,0,1,.006-.727l.014,0" transform="translate(-0.893 -1.734)" fill="#fff"/>
        <path id="Trazado_901771" data-name="Trazado 901771" d="M114.919,227.62a.55.55,0,0,0,.16-.051,6.308,6.308,0,0,1,2.79,1.474c.39.349-.186.922-.574.574a5.466,5.466,0,0,0-2.4-1.267.371.371,0,0,1,.006-.727l.014,0" transform="translate(-0.875 -1.737)" fill="#fff"/>
        <path id="Trazado_901772" data-name="Trazado 901772" d="M100.918,236.22h9.773a8.163,8.163,0,0,0-.9-7.7,12.623,12.623,0,0,0-3.925,1.438,9.918,9.918,0,0,0-4.947,6.267" transform="translate(-0.771 -1.745)" fill="#fff"/>
        <path id="Trazado_901773" data-name="Trazado 901773" d="M100.634,239.082h41.423a19.156,19.156,0,0,0,.088-1.94v-.863h-41.23a8.991,8.991,0,0,0-.282,2.8" transform="translate(-0.768 -1.804)" fill="#00184c"/>
        <path id="Trazado_901774" data-name="Trazado 901774" d="M203.69,132.153s-36.681-14.741-75.418-20.96-7.989,96.8-7.989,96.8l21.167-2.945s-2.763-52.086-1.6-54.419c.921-1.841,11.911,18.254,42.673,19.082,40.385,1.056,27.462-27.056,21.164-37.56" transform="translate(-0.83 -0.847)" fill="#00184c"/>
        <path id="Trazado_901775" data-name="Trazado 901775" d="M136.545,198.921q-1.731-15.378-2.671-30.832-.478-7.624-.782-15.26c-.125-3.15-.846-8.216,2.875-9.686,3.793-1.5,6.971,1.867,9.455,4.191a41.185,41.185,0,0,0,11.318,7.384c8.34,3.748,17.742,5.4,26.821,5.98,5.528.355,11.342.055,16.387-2.448,4.288-2.128,7.881-5.7,9.174-10.4a.415.415,0,0,1,.8.22c-2.179,7.914-10.047,12.259-17.722,13.264a56.512,56.512,0,0,1-14.264-.361,91.813,91.813,0,0,1-12.69-2.4,56.335,56.335,0,0,1-11.7-4.5,46.8,46.8,0,0,1-10.172-7.559c-1.748-1.643-4.027-3.391-6.593-2.765-2.612.637-2.99,3.482-2.973,5.747.036,4.973.392,9.966.676,14.93.66,11.519,1.6,23.024,2.892,34.49.06.529-.769.525-.829,0" transform="translate(-1.015 -1.09)" fill="#0d2f78"/>
        <path id="Trazado_901776" data-name="Trazado 901776" d="M185.207,125.114a42.5,42.5,0,0,0,8.15,12.06,39.2,39.2,0,0,0,5.666,4.893c1.982,1.386,5.494,2.87,6.978-.018.244-.474.959-.056.716.418a4.308,4.308,0,0,1-5.192,1.848c-2.572-.759-4.889-2.921-6.831-4.69a43.033,43.033,0,0,1-10.2-14.094c-.217-.481.5-.9.715-.418" transform="translate(-1.409 -0.954)" fill="#0d2f78"/>
        <path id="Trazado_901777" data-name="Trazado 901777" d="M108.972,155q-1.2-12.339-2.4-24.678c-.567-5.852-.939-13.869,5.708-16.469.5-.195.713.606.22.8-7.178,2.808-5.409,12.482-4.834,18.413Q108.736,144.03,109.8,155c.051.53-.778.527-.829,0" transform="translate(-0.812 -0.869)" fill="#0d2f78"/>
        <path id="Trazado_901778" data-name="Trazado 901778" d="M39.5,198.751a190.5,190.5,0,0,0,16.55,11.669c.451.283.036,1-.418.715a192.668,192.668,0,0,1-16.717-11.8c-.419-.329.172-.912.585-.586" transform="translate(-0.296 -1.517)" fill="#0d2f78"/>
        <path id="Trazado_901779" data-name="Trazado 901779" d="M119.227,200.826l21.035-1.891c.531-.048.528.781,0,.829l-21.035,1.891c-.531.048-.528-.781,0-.829" transform="translate(-0.908 -1.519)" fill="#0d2f78"/>
        <path id="Trazado_901780" data-name="Trazado 901780" d="M187.135,73.547s.134,25.249-1.639,28.961-34.48,5.152-34.48,5.152l-1.361,4.9s34.106,11.99,46.972,3.28c9.129-6.178,9.5-45.261,9.5-45.261Z" transform="translate(-1.143 -0.539)" fill="#ffa189"/>
        <path id="Trazado_901781" data-name="Trazado 901781" d="M185.848,103.531a22.714,22.714,0,0,1,5.22,1.806c.477.233.9-.481.419-.715a23.72,23.72,0,0,0-5.418-1.889c-.52-.112-.741.686-.22.8" transform="translate(-1.417 -0.784)" fill="#e87e64"/>
        <path id="Trazado_901782" data-name="Trazado 901782" d="M188.154,103.866a17.306,17.306,0,0,1,4.841-1.336c.521-.067.528-.9,0-.829a18.763,18.763,0,0,0-5.258,1.449c-.487.213-.066.927.418.715" transform="translate(-1.432 -0.776)" fill="#e87e64"/>
        <path id="Trazado_901783" data-name="Trazado 901783" d="M202.4,56.871A44.038,44.038,0,0,1,207.771,82.1l-22.992-.733S182.1,70.634,183.01,61.4c.58-5.854,3.475-8.624,6.728-9.843,5.239-1.967,9.874.464,12.665,5.313" transform="translate(-1.396 -0.388)" fill="#1574dd"/>
        <path id="Trazado_901784" data-name="Trazado 901784" d="M185.393,60.66a47.92,47.92,0,0,0,1.27,20.063.415.415,0,0,1-.8.22,48.914,48.914,0,0,1-1.27-20.5c.078-.525.877-.3.8.22" transform="translate(-1.406 -0.459)" fill="#0559b5"/>
        <path id="Trazado_901785" data-name="Trazado 901785" d="M177.528,121.9,95.766,115.33,94.12,106.6l81.763,6.569Z" transform="translate(-0.719 -0.814)" fill="#7040bf"/>
        <path id="Trazado_901786" data-name="Trazado 901786" d="M146.976,114.691l-45.706-3.672a3.618,3.618,0,0,1-3.189-3.148l-6.1-38.4a3.811,3.811,0,0,1,3.81-4.571l46.276,3.718a4.719,4.719,0,0,1,4.163,4.107l5.722,36c.518,3.257-1.942,6.208-4.972,5.965" transform="translate(-0.702 -0.495)" fill="#7040bf"/>
        <path id="Trazado_901787" data-name="Trazado 901787" d="M143.189,114.386l-45.705-3.673a3.617,3.617,0,0,1-3.19-3.147l-6.1-38.4A3.811,3.811,0,0,1,92,64.593l46.276,3.718a4.719,4.719,0,0,1,4.163,4.107l5.722,36c.518,3.257-1.942,6.208-4.972,5.965" transform="translate(-0.673 -0.493)" fill="#7040bf"/>
        <path id="Trazado_901788" data-name="Trazado 901788" d="M123.016,92.883c.239,3.1-1.758,5.439-4.462,5.222s-5.089-2.908-5.328-6.008,1.758-5.439,4.462-5.223,5.089,2.908,5.328,6.009" transform="translate(-0.865 -0.663)" fill="#0d2f78"/>
        <path id="Trazado_901789" data-name="Trazado 901789" d="M143.156,72.1l5.963,38.529c.081.521-.716.746-.8.22q-2.983-19.265-5.964-38.529c-.08-.522.717-.746.8-.22" transform="translate(-1.087 -0.548)" fill="#0d2f78"/>
      </g>
    </g>
  </g>
</svg>
