<svg xmlns="http://www.w3.org/2000/svg" width="1160.725" height="471.551" viewBox="0 0 1160.725 471.551">
  <g id="Grupo_1181010" data-name="Grupo 1181010" transform="translate(-219.638 -15561.715)">
    <path id="Trazado_1054971" data-name="Trazado 1054971" d="M0,0H1159V73H0Z" transform="translate(220.862 15727.715)" fill="#d6d6d6"/>
    <path id="Trazado_1054972" data-name="Trazado 1054972" d="M0,0H1159V40H0Z" transform="translate(220.862 15561.715)" fill="#fd9826"/>
    <path id="Trazado_1054973" data-name="Trazado 1054973" d="M-25.77-4.562-26.988-3.25V0h-2.344V-11.375h2.344v5.156l1.031-1.414,2.9-3.742h2.883L-24.215-6.32-20.059,0h-2.789Zm13.016,2.219h-4.109L-17.645,0h-2.492L-15.9-11.375h2.172L-9.473,0h-2.492Zm-3.477-1.9h2.844L-14.816-8.5ZM-4.2-4.164H-6.066V0H-8.41V-11.375h4.227a4.778,4.778,0,0,1,3.109.9A3.1,3.1,0,0,1,.02-7.937,3.5,3.5,0,0,1-.484-6,3.437,3.437,0,0,1-2.012-4.758L.449-.109V0H-2.066Zm-1.867-1.9h1.891a1.936,1.936,0,0,0,1.367-.449A1.606,1.606,0,0,0-2.324-7.75a1.719,1.719,0,0,0-.457-1.266,1.9,1.9,0,0,0-1.4-.461H-6.066ZM1.8,0V-11.375H5.3a5.315,5.315,0,0,1,2.684.676A4.712,4.712,0,0,1,9.832-8.777,5.928,5.928,0,0,1,10.5-5.945v.523A5.945,5.945,0,0,1,9.844-2.6,4.672,4.672,0,0,1,8-.687,5.355,5.355,0,0,1,5.324,0ZM4.145-9.477v7.594H5.277a2.545,2.545,0,0,0,2.1-.9,4.06,4.06,0,0,0,.742-2.57v-.6A4.124,4.124,0,0,0,7.4-8.582a2.537,2.537,0,0,0-2.1-.895Zm14.9,4.547h-4.5v3.047h5.281V0H12.2V-11.375h7.609v1.9H14.543v2.711h4.5ZM25.27-7.453,27.4-11.375h2.7L26.785-5.734,30.184,0H27.457L25.27-3.984,23.082,0H20.355l3.4-5.734-3.312-5.641h2.7Z" transform="translate(284.769 15587.215)" fill="#12263f"/>
    <path id="Trazado_1034209" data-name="Trazado 1034209" d="M0,0H1159.949V424.421H0Z" transform="translate(220.362 15601.852)" fill="#fff"/>
    <path id="Trazado_1054974" data-name="Trazado 1054974" d="M1160,0,0,.637" transform="translate(220.312 15683.215)" fill="none" stroke="#e1e1e1" stroke-width="1"/>
    <path id="Trazado_1054975" data-name="Trazado 1054975" d="M1159,0H0" transform="translate(220.362 15756.578)" fill="none" stroke="#e1e1e1" stroke-width="1"/>
    <path id="Trazado_1034207" data-name="Trazado 1034207" d="M0,0" transform="translate(220.362 15908.672)" fill="none" stroke="#e1e1e1" stroke-width="1"/>
    <path id="Trazado_899679" data-name="Trazado 899679" d="M1160,0" transform="translate(220.312 15756.215)" fill="none" stroke="#e1e1e1" stroke-width="1"/>
    <path id="Trazado_1054976" data-name="Trazado 1054976" d="M5.492,12.4H2.82V17H1.313V5.625H5.078A4.457,4.457,0,0,1,8.035,6.5,3.148,3.148,0,0,1,9.07,9.047,3.062,3.062,0,0,1,8.5,10.9a3.428,3.428,0,0,1-1.6,1.18L9.57,16.906V17H7.961ZM2.82,11.172h2.3A2.6,2.6,0,0,0,6.9,10.593a1.959,1.959,0,0,0,.66-1.55,2.062,2.062,0,0,0-.629-1.62,2.663,2.663,0,0,0-1.816-.571H2.82Zm14.781.57h-4.93v4.031H18.4V17H11.172V5.625H18.32V6.852H12.672v3.664H17.6Zm8.938.234H21.766V17h-1.5V5.625h7.047V6.852H21.766v3.9h4.773Zm9-.234h-4.93v4.031h5.727V17H29.109V5.625h7.148V6.852H30.609v3.664h4.93Zm6.836.656H39.7V17H38.2V5.625h3.766a4.457,4.457,0,0,1,2.957.875,3.148,3.148,0,0,1,1.035,2.547,3.062,3.062,0,0,1-.574,1.852,3.428,3.428,0,0,1-1.6,1.18l2.672,4.828V17H44.844ZM39.7,11.172h2.3a2.6,2.6,0,0,0,1.777-.579,1.959,1.959,0,0,0,.66-1.55,2.062,2.062,0,0,0-.629-1.62A2.663,2.663,0,0,0,42,6.852H39.7Zm14.781.57h-4.93v4.031h5.727V17H48.055V5.625H55.2V6.852H49.555v3.664h4.93ZM65.891,17H64.383L58.656,8.234V17H57.148V5.625h1.508l5.742,8.8v-8.8h1.492Zm11.031-3.609a4.185,4.185,0,0,1-1.332,2.785,4.365,4.365,0,0,1-2.98.98,4.008,4.008,0,0,1-3.23-1.445,5.815,5.815,0,0,1-1.215-3.867V10.75a6.481,6.481,0,0,1,.566-2.789,4.231,4.231,0,0,1,1.605-1.848,4.47,4.47,0,0,1,2.406-.645A4.11,4.11,0,0,1,75.648,6.48a4.235,4.235,0,0,1,1.273,2.8H75.414a3.268,3.268,0,0,0-.848-1.975A2.565,2.565,0,0,0,72.742,6.7a2.684,2.684,0,0,0-2.254,1.063,4.882,4.882,0,0,0-.816,3.026v1.1a5.018,5.018,0,0,0,.773,2.948,2.5,2.5,0,0,0,2.164,1.095,2.886,2.886,0,0,0,1.918-.566,3.143,3.143,0,0,0,.887-1.973ZM80.578,17h-1.5V5.625h1.5ZM89.6,14.023H84.836L83.766,17H82.219L86.563,5.625h1.313L92.227,17H90.688ZM85.289,12.8h3.867l-1.937-5.32Z" transform="translate(257.812 15633)" fill="#12263f"/>
    <path id="Trazado_1054977" data-name="Trazado 1054977" d="M8.4,17H.945V15.961l3.938-4.375A9.355,9.355,0,0,0,6.09,9.973a2.693,2.693,0,0,0,.332-1.285,2.041,2.041,0,0,0-.539-1.461,1.885,1.885,0,0,0-1.437-.57A2.232,2.232,0,0,0,2.77,7.27a2.343,2.343,0,0,0-.6,1.707H.727A3.355,3.355,0,0,1,1.738,6.438a3.751,3.751,0,0,1,2.707-.969A3.6,3.6,0,0,1,6.953,6.3a2.838,2.838,0,0,1,.922,2.215q0,1.68-2.141,4l-3.047,3.3H8.4Zm3.633-6.391h1.086a2.387,2.387,0,0,0,1.609-.539,1.8,1.8,0,0,0,.586-1.414,1.764,1.764,0,0,0-1.992-2,2.072,2.072,0,0,0-1.5.535,1.873,1.873,0,0,0-.559,1.418H9.82a2.9,2.9,0,0,1,.988-2.246,3.6,3.6,0,0,1,2.512-.895,3.558,3.558,0,0,1,2.523.852,3.076,3.076,0,0,1,.914,2.367,2.5,2.5,0,0,1-.48,1.438,2.9,2.9,0,0,1-1.309,1.039,2.8,2.8,0,0,1,1.449.984,2.734,2.734,0,0,1,.512,1.68,3.1,3.1,0,0,1-1,2.43,3.745,3.745,0,0,1-2.6.9,3.844,3.844,0,0,1-2.605-.867,2.877,2.877,0,0,1-1-2.289h1.453a1.859,1.859,0,0,0,.586,1.438,2.229,2.229,0,0,0,1.57.539,2.187,2.187,0,0,0,1.6-.547,2.108,2.108,0,0,0,.555-1.57,1.912,1.912,0,0,0-.609-1.523,2.655,2.655,0,0,0-1.758-.547H12.031Zm12.984,2.57h1.578v1.18H25.016V17H23.563V14.359h-5.18v-.852l5.094-7.883h1.539Zm-4.992,0h3.539V7.6l-.172.313ZM32.648,17H31.2V7.367l-2.914,1.07V7.125L32.422,5.57h.227Z" transform="translate(437.812 15633)" fill="#12263f"/>
    <path id="Trazado_1054978" data-name="Trazado 1054978" d="M2.82,12.547V17H1.32V5.625h4.2a4.215,4.215,0,0,1,2.926.953A3.231,3.231,0,0,1,9.5,9.1a3.189,3.189,0,0,1-1.035,2.551,4.4,4.4,0,0,1-2.965.895Zm0-1.227h2.7a2.7,2.7,0,0,0,1.844-.567A2.075,2.075,0,0,0,8,9.113a2.143,2.143,0,0,0-.641-1.628A2.525,2.525,0,0,0,5.6,6.852H2.82ZM15.586,12.4H12.914V17H11.406V5.625h3.766a4.457,4.457,0,0,1,2.957.875,3.148,3.148,0,0,1,1.035,2.547A3.062,3.062,0,0,1,18.59,10.9a3.428,3.428,0,0,1-1.6,1.18l2.672,4.828V17H18.055Zm-2.672-1.227h2.3A2.6,2.6,0,0,0,17,10.593a1.959,1.959,0,0,0,.66-1.55,2.062,2.062,0,0,0-.629-1.62,2.663,2.663,0,0,0-1.816-.571h-2.3Zm17.1.508a7.037,7.037,0,0,1-.562,2.918,4.261,4.261,0,0,1-1.594,1.9,4.4,4.4,0,0,1-6.4-1.887,6.752,6.752,0,0,1-.59-2.832v-.82a6.953,6.953,0,0,1,.57-2.9,4.218,4.218,0,0,1,4-2.594,4.41,4.41,0,0,1,2.41.66,4.253,4.253,0,0,1,1.605,1.914,7.071,7.071,0,0,1,.563,2.918Zm-1.492-.734a5.1,5.1,0,0,0-.812-3.105,2.68,2.68,0,0,0-2.273-1.082A2.651,2.651,0,0,0,23.2,7.84a5,5,0,0,0-.84,3v.836a5.107,5.107,0,0,0,.824,3.082,2.888,2.888,0,0,0,4.52.063,5.079,5.079,0,0,0,.82-3.035ZM32.266,17V5.625h3.211a5.169,5.169,0,0,1,2.625.656,4.438,4.438,0,0,1,1.762,1.867,6.078,6.078,0,0,1,.629,2.781v.727a6.1,6.1,0,0,1-.621,2.82A4.369,4.369,0,0,1,38.1,16.336,5.5,5.5,0,0,1,35.414,17Zm1.5-10.148v8.922h1.578a3.434,3.434,0,0,0,2.7-1.079,4.458,4.458,0,0,0,.965-3.073v-.665a4.529,4.529,0,0,0-.91-3.014,3.239,3.239,0,0,0-2.582-1.091Zm17-1.227v7.734a3.628,3.628,0,0,1-1.012,2.633,4.077,4.077,0,0,1-2.723,1.148l-.4.016a4.258,4.258,0,0,1-2.977-1.008,3.6,3.6,0,0,1-1.125-2.773V5.625h1.484v7.7a2.6,2.6,0,0,0,.68,1.918,3.111,3.111,0,0,0,3.887,0,2.6,2.6,0,0,0,.676-1.914V5.625ZM61.5,13.391a4.185,4.185,0,0,1-1.332,2.785,4.365,4.365,0,0,1-2.98.98,4.008,4.008,0,0,1-3.23-1.445,5.815,5.815,0,0,1-1.215-3.867V10.75a6.481,6.481,0,0,1,.566-2.789,4.231,4.231,0,0,1,1.605-1.848,4.47,4.47,0,0,1,2.406-.645A4.11,4.11,0,0,1,60.227,6.48a4.235,4.235,0,0,1,1.273,2.8H59.992a3.268,3.268,0,0,0-.848-1.975A2.565,2.565,0,0,0,57.32,6.7a2.684,2.684,0,0,0-2.254,1.063,4.882,4.882,0,0,0-.816,3.026v1.1a5.018,5.018,0,0,0,.773,2.948,2.5,2.5,0,0,0,2.164,1.095,2.887,2.887,0,0,0,1.918-.566,3.143,3.143,0,0,0,.887-1.973Zm9.68-6.539H67.523V17H66.031V6.852H62.383V5.625h8.8ZM81.4,11.68a7.037,7.037,0,0,1-.562,2.918,4.261,4.261,0,0,1-1.594,1.9,4.4,4.4,0,0,1-6.4-1.887,6.752,6.752,0,0,1-.59-2.832v-.82a6.953,6.953,0,0,1,.57-2.9,4.218,4.218,0,0,1,4-2.594,4.41,4.41,0,0,1,2.41.66,4.253,4.253,0,0,1,1.605,1.914,7.071,7.071,0,0,1,.563,2.918Zm-1.492-.734a5.1,5.1,0,0,0-.812-3.105A2.68,2.68,0,0,0,76.82,6.758,2.651,2.651,0,0,0,74.582,7.84a5,5,0,0,0-.84,3v.836a5.107,5.107,0,0,0,.824,3.082,2.888,2.888,0,0,0,4.52.063,5.079,5.079,0,0,0,.82-3.035Z" transform="translate(546.129 15633)" fill="#12263f"/>
    <path id="Trazado_1054979" data-name="Trazado 1054979" d="M24.2,17H22.7V11.742H16.961V17h-1.5V5.625h1.5v4.891H22.7V5.625H24.2Zm9.086-2.977H28.523L27.453,17H25.906L30.25,5.625h1.313L35.914,17H34.375ZM28.977,12.8h3.867l-1.937-5.32Zm12.641-.4H38.945V17H37.438V5.625H41.2A4.457,4.457,0,0,1,44.16,6.5,3.148,3.148,0,0,1,45.2,9.047a3.062,3.062,0,0,1-.574,1.852,3.428,3.428,0,0,1-1.6,1.18L45.7,16.906V17H44.086Zm-2.672-1.227h2.3a2.6,2.6,0,0,0,1.777-.579,1.959,1.959,0,0,0,.66-1.55,2.062,2.062,0,0,0-.629-1.62,2.663,2.663,0,0,0-1.816-.571h-2.3ZM48.906,17h-1.5V5.625h1.5Zm11.484,0H58.883L53.156,8.234V17H51.648V5.625h1.508l5.742,8.8v-8.8h1.492Zm8.945-2.977H64.57L63.5,17H61.953L66.3,5.625h1.313L71.961,17H70.422ZM65.023,12.8h3.867l-1.937-5.32Zm18.859-1.055h-4.93v4.031H84.68V17H77.453V5.625H84.6V6.852H78.953v3.664h4.93Zm4.172,4.031h5.391V17h-6.9V5.625h1.508Zm12.57,0h5.391V17h-6.9V5.625h1.508Zm15.344-4.094a7.037,7.037,0,0,1-.562,2.918,4.261,4.261,0,0,1-1.594,1.9,4.4,4.4,0,0,1-6.4-1.887,6.752,6.752,0,0,1-.59-2.832v-.82a6.953,6.953,0,0,1,.57-2.9,4.218,4.218,0,0,1,4-2.594,4.41,4.41,0,0,1,2.41.66,4.253,4.253,0,0,1,1.605,1.914,7.071,7.071,0,0,1,.563,2.918Zm-1.492-.734a5.1,5.1,0,0,0-.812-3.105,2.68,2.68,0,0,0-2.273-1.082,2.651,2.651,0,0,0-2.238,1.082,5,5,0,0,0-.84,3v.836a5.107,5.107,0,0,0,.824,3.082,2.888,2.888,0,0,0,4.52.063,5.079,5.079,0,0,0,.82-3.035ZM118.219,17V5.625h3.719a4.317,4.317,0,0,1,2.785.766,2.759,2.759,0,0,1,.934,2.266,2.31,2.31,0,0,1-.453,1.41,2.937,2.937,0,0,1-1.234.949,2.638,2.638,0,0,1,1.457.98,2.814,2.814,0,0,1,.535,1.723,3.042,3.042,0,0,1-.992,2.406,4.1,4.1,0,0,1-2.8.875Zm1.5-5.32v4.094H122.2a2.385,2.385,0,0,0,1.652-.543,1.907,1.907,0,0,0,.605-1.5q0-2.055-2.234-2.055Zm0-1.2h2.266a2.375,2.375,0,0,0,1.574-.493,1.654,1.654,0,0,0,.59-1.339,1.626,1.626,0,0,0-.547-1.366,2.686,2.686,0,0,0-1.664-.427h-2.219Zm17.211,1.2a7.037,7.037,0,0,1-.562,2.918,4.261,4.261,0,0,1-1.594,1.9,4.4,4.4,0,0,1-6.4-1.887,6.752,6.752,0,0,1-.59-2.832v-.82a6.953,6.953,0,0,1,.57-2.9,4.218,4.218,0,0,1,4-2.594,4.41,4.41,0,0,1,2.41.66,4.253,4.253,0,0,1,1.605,1.914,7.071,7.071,0,0,1,.563,2.918Zm-1.492-.734a5.1,5.1,0,0,0-.812-3.105,2.68,2.68,0,0,0-2.273-1.082,2.651,2.651,0,0,0-2.238,1.082,5,5,0,0,0-.84,3v.836a5.107,5.107,0,0,0,.824,3.082,2.888,2.888,0,0,0,4.52.063,5.079,5.079,0,0,0,.82-3.035Z" transform="translate(693.763 15633)" fill="#12263f"/>
    <path id="Trazado_1054980" data-name="Trazado 1054980" d="M9.9,13.391a4.185,4.185,0,0,1-1.332,2.785,4.365,4.365,0,0,1-2.98.98,4.008,4.008,0,0,1-3.23-1.445,5.815,5.815,0,0,1-1.215-3.867V10.75a6.481,6.481,0,0,1,.566-2.789A4.231,4.231,0,0,1,3.313,6.113a4.47,4.47,0,0,1,2.406-.645A4.11,4.11,0,0,1,8.625,6.48,4.235,4.235,0,0,1,9.9,9.281H8.391a3.268,3.268,0,0,0-.848-1.975A2.565,2.565,0,0,0,5.719,6.7,2.684,2.684,0,0,0,3.465,7.759a4.882,4.882,0,0,0-.816,3.026v1.1a5.018,5.018,0,0,0,.773,2.948A2.5,2.5,0,0,0,5.586,15.93,2.887,2.887,0,0,0,7.5,15.363a3.143,3.143,0,0,0,.887-1.973Zm8.328.633H13.461L12.391,17H10.844L15.188,5.625H16.5L20.852,17H19.313ZM13.914,12.8h3.867l-1.937-5.32ZM31.125,17H29.617L23.891,8.234V17H22.383V5.625h1.508l5.742,8.8v-8.8h1.492ZM41.648,6.852H37.992V17H36.5V6.852H32.852V5.625h8.8ZM44.945,17h-1.5V5.625h1.5Zm2.742,0V5.625H50.9a5.169,5.169,0,0,1,2.625.656,4.438,4.438,0,0,1,1.762,1.867,6.078,6.078,0,0,1,.629,2.781v.727a6.1,6.1,0,0,1-.621,2.82,4.369,4.369,0,0,1-1.773,1.859A5.5,5.5,0,0,1,50.836,17Zm1.5-10.148v8.922h1.578a3.434,3.434,0,0,0,2.7-1.079,4.458,4.458,0,0,0,.965-3.073v-.665a4.529,4.529,0,0,0-.91-3.014,3.239,3.239,0,0,0-2.582-1.091Zm15.273,7.172H59.7L58.625,17H57.078L61.422,5.625h1.313L67.086,17H65.547ZM60.148,12.8h3.867l-1.937-5.32ZM68.617,17V5.625h3.211a5.169,5.169,0,0,1,2.625.656,4.438,4.438,0,0,1,1.762,1.867,6.078,6.078,0,0,1,.629,2.781v.727a6.1,6.1,0,0,1-.621,2.82,4.369,4.369,0,0,1-1.773,1.859A5.5,5.5,0,0,1,71.766,17Zm1.5-10.148v8.922H71.7a3.434,3.434,0,0,0,2.7-1.079,4.458,4.458,0,0,0,.965-3.073v-.665a4.529,4.529,0,0,0-.91-3.014,3.239,3.239,0,0,0-2.582-1.091Zm-57.1,16.773,3.719,9.281,3.719-9.281H22.4V35H20.9V30.57l.141-4.781L17.3,35H16.156L12.43,25.813l.148,4.758V35h-1.5V23.625ZM26.656,35h-1.5V23.625h1.5Zm-.047-14.516h1.75l-2.094,2.3-1.164,0ZM38.141,35H36.633l-5.727-8.766V35H29.4V23.625h1.508l5.742,8.8v-8.8h1.492Zm4.273,0h-1.5V23.625h1.5Zm4.68-11.375,3.719,9.281,3.719-9.281h1.945V35h-1.5V30.57l.141-4.781L51.383,35H50.234l-3.727-9.187.148,4.758V35h-1.5V23.625Zm18.313,8.4H60.641L59.57,35H58.023l4.344-11.375H63.68L68.031,35H66.492ZM61.094,30.8h3.867l-1.937-5.32Z" transform="translate(883.153 15624)" fill="#12263f"/>
    <path id="Trazado_1054981" data-name="Trazado 1054981" d="M1.609,11.3l.578-5.672H8.016V6.961h-4.6l-.344,3.1a3.671,3.671,0,0,1,1.9-.492A3.138,3.138,0,0,1,7.438,10.6a4.026,4.026,0,0,1,.914,2.777,3.886,3.886,0,0,1-.949,2.77A3.46,3.46,0,0,1,4.75,17.156a3.6,3.6,0,0,1-2.461-.836A3.337,3.337,0,0,1,1.2,14.008H2.57a2.3,2.3,0,0,0,.7,1.473,2.162,2.162,0,0,0,1.484.5,1.95,1.95,0,0,0,1.582-.687,2.874,2.874,0,0,0,.574-1.9,2.638,2.638,0,0,0-.621-1.832,2.113,2.113,0,0,0-1.652-.691,2.383,2.383,0,0,0-1.484.414l-.383.313Zm15.453.852a6.61,6.61,0,0,1-.867,3.773,3.084,3.084,0,0,1-2.711,1.234,3.107,3.107,0,0,1-2.7-1.207,6.274,6.274,0,0,1-.906-3.605v-1.93a6.463,6.463,0,0,1,.867-3.727,3.108,3.108,0,0,1,2.719-1.219,3.136,3.136,0,0,1,2.7,1.176,6.237,6.237,0,0,1,.891,3.629Zm-1.445-1.977A5.3,5.3,0,0,0,15.1,7.5a1.775,1.775,0,0,0-1.633-.84,1.751,1.751,0,0,0-1.617.836,5.171,5.171,0,0,0-.523,2.57v2.313a5.381,5.381,0,0,0,.535,2.723,1.771,1.771,0,0,0,1.621.879,1.747,1.747,0,0,0,1.59-.828,5.186,5.186,0,0,0,.543-2.609Zm3.477,6.07a.905.905,0,0,1,.223-.625.848.848,0,0,1,.668-.25.874.874,0,0,1,.676.25.887.887,0,0,1,.23.625.839.839,0,0,1-.23.6.89.89,0,0,1-.676.242.8.8,0,0,1-.891-.844Zm11.164-4.094a6.61,6.61,0,0,1-.867,3.773,3.084,3.084,0,0,1-2.711,1.234,3.107,3.107,0,0,1-2.7-1.207,6.274,6.274,0,0,1-.906-3.605v-1.93a6.463,6.463,0,0,1,.867-3.727,3.108,3.108,0,0,1,2.719-1.219,3.136,3.136,0,0,1,2.7,1.176,6.237,6.237,0,0,1,.891,3.629Zm-1.445-1.977A5.3,5.3,0,0,0,28.3,7.5a1.775,1.775,0,0,0-1.633-.84,1.751,1.751,0,0,0-1.617.836,5.171,5.171,0,0,0-.523,2.57v2.313a5.381,5.381,0,0,0,.535,2.723,1.771,1.771,0,0,0,1.621.879,1.747,1.747,0,0,0,1.59-.828,5.186,5.186,0,0,0,.543-2.609Zm10.43,1.977a6.61,6.61,0,0,1-.867,3.773,3.084,3.084,0,0,1-2.711,1.234,3.107,3.107,0,0,1-2.7-1.207,6.274,6.274,0,0,1-.906-3.605v-1.93a6.463,6.463,0,0,1,.867-3.727,3.108,3.108,0,0,1,2.719-1.219,3.136,3.136,0,0,1,2.7,1.176,6.237,6.237,0,0,1,.891,3.629ZM37.8,10.172A5.3,5.3,0,0,0,37.281,7.5a1.775,1.775,0,0,0-1.633-.84,1.751,1.751,0,0,0-1.617.836,5.171,5.171,0,0,0-.523,2.57v2.313a5.381,5.381,0,0,0,.535,2.723,1.771,1.771,0,0,0,1.621.879,1.747,1.747,0,0,0,1.59-.828,5.186,5.186,0,0,0,.543-2.609Zm10.43,1.977a6.61,6.61,0,0,1-.867,3.773,3.084,3.084,0,0,1-2.711,1.234,3.107,3.107,0,0,1-2.7-1.207,6.274,6.274,0,0,1-.906-3.605v-1.93a6.463,6.463,0,0,1,.867-3.727,3.108,3.108,0,0,1,2.719-1.219,3.136,3.136,0,0,1,2.7,1.176,6.237,6.237,0,0,1,.891,3.629Zm-1.445-1.977A5.3,5.3,0,0,0,46.266,7.5a1.775,1.775,0,0,0-1.633-.84,1.751,1.751,0,0,0-1.617.836,5.171,5.171,0,0,0-.523,2.57v2.313a5.381,5.381,0,0,0,.535,2.723,1.771,1.771,0,0,0,1.621.879,1.747,1.747,0,0,0,1.59-.828,5.186,5.186,0,0,0,.543-2.609Z" transform="translate(991.739 15633)" fill="#12263f"/>
    <path id="Trazado_1054982" data-name="Trazado 1054982" d="M9.9,13.391a4.185,4.185,0,0,1-1.332,2.785,4.365,4.365,0,0,1-2.98.98,4.008,4.008,0,0,1-3.23-1.445,5.815,5.815,0,0,1-1.215-3.867V10.75a6.481,6.481,0,0,1,.566-2.789A4.231,4.231,0,0,1,3.313,6.113a4.47,4.47,0,0,1,2.406-.645A4.11,4.11,0,0,1,8.625,6.48,4.235,4.235,0,0,1,9.9,9.281H8.391a3.268,3.268,0,0,0-.848-1.975A2.565,2.565,0,0,0,5.719,6.7,2.684,2.684,0,0,0,3.465,7.759a4.882,4.882,0,0,0-.816,3.026v1.1a5.018,5.018,0,0,0,.773,2.948A2.5,2.5,0,0,0,5.586,15.93,2.887,2.887,0,0,0,7.5,15.363a3.143,3.143,0,0,0,.887-1.973Zm8.328.633H13.461L12.391,17H10.844L15.188,5.625H16.5L20.852,17H19.313ZM13.914,12.8h3.867l-1.937-5.32ZM31.125,17H29.617L23.891,8.234V17H22.383V5.625h1.508l5.742,8.8v-8.8h1.492ZM41.648,6.852H37.992V17H36.5V6.852H32.852V5.625h8.8ZM44.945,17h-1.5V5.625h1.5Zm2.742,0V5.625H50.9a5.169,5.169,0,0,1,2.625.656,4.438,4.438,0,0,1,1.762,1.867,6.078,6.078,0,0,1,.629,2.781v.727a6.1,6.1,0,0,1-.621,2.82,4.369,4.369,0,0,1-1.773,1.859A5.5,5.5,0,0,1,50.836,17Zm1.5-10.148v8.922h1.578a3.434,3.434,0,0,0,2.7-1.079,4.458,4.458,0,0,0,.965-3.073v-.665a4.529,4.529,0,0,0-.91-3.014,3.239,3.239,0,0,0-2.582-1.091Zm15.273,7.172H59.7L58.625,17H57.078L61.422,5.625h1.313L67.086,17H65.547ZM60.148,12.8h3.867l-1.937-5.32ZM68.617,17V5.625h3.211a5.169,5.169,0,0,1,2.625.656,4.438,4.438,0,0,1,1.762,1.867,6.078,6.078,0,0,1,.629,2.781v.727a6.1,6.1,0,0,1-.621,2.82,4.369,4.369,0,0,1-1.773,1.859A5.5,5.5,0,0,1,71.766,17Zm1.5-10.148v8.922H71.7a3.434,3.434,0,0,0,2.7-1.079,4.458,4.458,0,0,0,.965-3.073v-.665a4.529,4.529,0,0,0-.91-3.014,3.239,3.239,0,0,0-2.582-1.091ZM10.66,23.625l3.719,9.281L18.1,23.625h1.945V35h-1.5V30.57l.141-4.781L14.949,35H13.8l-3.727-9.187.148,4.758V35h-1.5V23.625Zm18.313,8.4H24.207L23.137,35H21.59l4.344-11.375h1.313L31.6,35H30.059ZM24.66,30.8h3.867l-1.937-5.32Zm2.672-10.219h1.75l-2.094,2.3-1.164,0Zm9.508,7.406,2.727-4.359h1.766l-3.594,5.641L41.418,35H39.637l-2.8-4.437L34.027,35H32.254l3.688-5.734-3.6-5.641H34.1ZM44.77,35h-1.5V23.625h1.5Zm4.68-11.375,3.719,9.281,3.719-9.281h1.945V35h-1.5V30.57l.141-4.781L53.738,35H52.59l-3.727-9.187.148,4.758V35h-1.5V23.625Zm18.313,8.4H63L61.926,35H60.379l4.344-11.375h1.313L70.387,35H68.848ZM63.449,30.8h3.867l-1.937-5.32Z" transform="translate(1094.057 15624)" fill="#12263f"/>
    <path id="Trazado_1054983" data-name="Trazado 1054983" d="M8.742,17H1.289V15.961l3.938-4.375A9.355,9.355,0,0,0,6.434,9.973a2.693,2.693,0,0,0,.332-1.285,2.041,2.041,0,0,0-.539-1.461,1.885,1.885,0,0,0-1.437-.57,2.232,2.232,0,0,0-1.676.613,2.343,2.343,0,0,0-.6,1.707H1.07A3.355,3.355,0,0,1,2.082,6.438a3.751,3.751,0,0,1,2.707-.969A3.6,3.6,0,0,1,7.3,6.3a2.838,2.838,0,0,1,.922,2.215q0,1.68-2.141,4l-3.047,3.3H8.742Zm1.711-.758a.905.905,0,0,1,.223-.625.848.848,0,0,1,.668-.25.874.874,0,0,1,.676.25.887.887,0,0,1,.23.625.839.839,0,0,1-.23.6.89.89,0,0,1-.676.242.8.8,0,0,1-.891-.844Zm11.164-4.094a6.61,6.61,0,0,1-.867,3.773,3.084,3.084,0,0,1-2.711,1.234,3.107,3.107,0,0,1-2.7-1.207,6.274,6.274,0,0,1-.906-3.605v-1.93A6.463,6.463,0,0,1,15.3,6.688a3.108,3.108,0,0,1,2.719-1.219,3.136,3.136,0,0,1,2.7,1.176,6.237,6.237,0,0,1,.891,3.629Zm-1.445-1.977A5.3,5.3,0,0,0,19.656,7.5a1.775,1.775,0,0,0-1.633-.84,1.751,1.751,0,0,0-1.617.836,5.171,5.171,0,0,0-.523,2.57v2.313a5.381,5.381,0,0,0,.535,2.723,1.771,1.771,0,0,0,1.621.879,1.747,1.747,0,0,0,1.59-.828,5.186,5.186,0,0,0,.543-2.609ZM30.6,12.148a6.61,6.61,0,0,1-.867,3.773,3.084,3.084,0,0,1-2.711,1.234,3.107,3.107,0,0,1-2.7-1.207,6.274,6.274,0,0,1-.906-3.605v-1.93a6.463,6.463,0,0,1,.867-3.727,3.108,3.108,0,0,1,2.719-1.219,3.136,3.136,0,0,1,2.7,1.176,6.237,6.237,0,0,1,.891,3.629Zm-1.445-1.977A5.3,5.3,0,0,0,28.641,7.5a1.775,1.775,0,0,0-1.633-.84,1.751,1.751,0,0,0-1.617.836,5.171,5.171,0,0,0-.523,2.57v2.313A5.381,5.381,0,0,0,25.4,15.1a1.771,1.771,0,0,0,1.621.879,1.747,1.747,0,0,0,1.59-.828,5.186,5.186,0,0,0,.543-2.609Zm10.43,1.977a6.61,6.61,0,0,1-.867,3.773,3.084,3.084,0,0,1-2.711,1.234,3.107,3.107,0,0,1-2.7-1.207,6.274,6.274,0,0,1-.906-3.605v-1.93a6.463,6.463,0,0,1,.867-3.727,3.108,3.108,0,0,1,2.719-1.219,3.136,3.136,0,0,1,2.7,1.176,6.237,6.237,0,0,1,.891,3.629Zm-1.445-1.977A5.3,5.3,0,0,0,37.625,7.5a1.775,1.775,0,0,0-1.633-.84,1.751,1.751,0,0,0-1.617.836,5.171,5.171,0,0,0-.523,2.57v2.313a5.381,5.381,0,0,0,.535,2.723,1.771,1.771,0,0,0,1.621.879,1.747,1.747,0,0,0,1.59-.828,5.186,5.186,0,0,0,.543-2.609Zm3.477,6.07a.905.905,0,0,1,.223-.625.848.848,0,0,1,.668-.25.874.874,0,0,1,.676.25.887.887,0,0,1,.23.625.839.839,0,0,1-.23.6.89.89,0,0,1-.676.242.8.8,0,0,1-.891-.844Zm11.164-4.094a6.61,6.61,0,0,1-.867,3.773,3.6,3.6,0,0,1-5.406.027,6.274,6.274,0,0,1-.906-3.605v-1.93a6.463,6.463,0,0,1,.867-3.727,3.668,3.668,0,0,1,5.422-.043,6.237,6.237,0,0,1,.891,3.629Zm-1.445-1.977A5.3,5.3,0,0,0,50.82,7.5a1.775,1.775,0,0,0-1.633-.84,1.751,1.751,0,0,0-1.617.836,5.171,5.171,0,0,0-.523,2.57v2.313a5.381,5.381,0,0,0,.535,2.723,1.771,1.771,0,0,0,1.621.879,1.747,1.747,0,0,0,1.59-.828,5.186,5.186,0,0,0,.543-2.609Zm10.43,1.977a6.61,6.61,0,0,1-.867,3.773,3.6,3.6,0,0,1-5.406.027,6.274,6.274,0,0,1-.906-3.605v-1.93a6.463,6.463,0,0,1,.867-3.727,3.668,3.668,0,0,1,5.422-.043,6.237,6.237,0,0,1,.891,3.629ZM60.32,10.172A5.3,5.3,0,0,0,59.8,7.5a1.775,1.775,0,0,0-1.633-.84,1.751,1.751,0,0,0-1.617.836,5.171,5.171,0,0,0-.523,2.57v2.313a5.381,5.381,0,0,0,.535,2.723,1.771,1.771,0,0,0,1.621.879,1.747,1.747,0,0,0,1.59-.828,5.186,5.186,0,0,0,.543-2.609Zm10.43,1.977a6.61,6.61,0,0,1-.867,3.773,3.6,3.6,0,0,1-5.406.027,6.274,6.274,0,0,1-.906-3.605v-1.93a6.463,6.463,0,0,1,.867-3.727,3.668,3.668,0,0,1,5.422-.043,6.237,6.237,0,0,1,.891,3.629ZM69.3,10.172A5.3,5.3,0,0,0,68.789,7.5a1.775,1.775,0,0,0-1.633-.84,1.751,1.751,0,0,0-1.617.836,5.171,5.171,0,0,0-.523,2.57v2.313a5.381,5.381,0,0,0,.535,2.723,1.771,1.771,0,0,0,1.621.879,1.747,1.747,0,0,0,1.59-.828,5.186,5.186,0,0,0,.543-2.609Z" transform="translate(1254.374 15633)" fill="#12263f"/>
    <path id="Trazado_1034208" data-name="Trazado 1034208" d="M0,0H1160V72H0Z" transform="translate(220.362 15683.715)" fill="#f6f6f6"/>
    <path id="Trazado_1054984" data-name="Trazado 1054984" d="M3.359,12.992V17H1.016V5.625H5.453a5.134,5.134,0,0,1,2.254.469A3.454,3.454,0,0,1,9.2,7.426a3.714,3.714,0,0,1,.523,1.965,3.266,3.266,0,0,1-1.145,2.637,4.767,4.767,0,0,1-3.168.965Zm0-1.9H5.453a2.059,2.059,0,0,0,1.418-.437,1.591,1.591,0,0,0,.488-1.25,1.876,1.876,0,0,0-.492-1.352,1.839,1.839,0,0,0-1.359-.531H3.359Zm12.188,1.742H13.68V17H11.336V5.625h4.227a4.778,4.778,0,0,1,3.109.9,3.1,3.1,0,0,1,1.094,2.539,3.5,3.5,0,0,1-.5,1.941,3.437,3.437,0,0,1-1.527,1.238L20.2,16.891V17H17.68Zm-1.867-1.9H15.57a1.936,1.936,0,0,0,1.367-.449,1.606,1.606,0,0,0,.484-1.238,1.719,1.719,0,0,0-.457-1.266,1.9,1.9,0,0,0-1.4-.461H13.68Zm17.211.633a6.867,6.867,0,0,1-.594,2.945,4.472,4.472,0,0,1-1.7,1.953,5.021,5.021,0,0,1-5.059.008,4.515,4.515,0,0,1-1.719-1.941,6.67,6.67,0,0,1-.617-2.9V11.07a6.831,6.831,0,0,1,.605-2.957A4.508,4.508,0,0,1,23.52,6.152a5.014,5.014,0,0,1,5.055,0,4.508,4.508,0,0,1,1.711,1.961,6.811,6.811,0,0,1,.605,2.949Zm-2.375-.516a4.787,4.787,0,0,0-.641-2.719,2.263,2.263,0,0,0-3.648-.012,4.732,4.732,0,0,0-.648,2.691v.555a4.847,4.847,0,0,0,.641,2.7,2.243,2.243,0,0,0,3.656.035,4.819,4.819,0,0,0,.641-2.7Zm8.109,3.125L39.2,5.625h2.609L37.852,17H35.406L31.461,5.625h2.6Zm13.1-2.109h-4.5v3.047h5.281V17H42.883V5.625h7.609v1.9H45.227v2.711h4.5Zm9,0h-4.5v3.047h5.281V17H51.883V5.625h7.609v1.9H54.227v2.711h4.5ZM60.883,17V5.625h3.5a5.315,5.315,0,0,1,2.684.676,4.712,4.712,0,0,1,1.848,1.922,5.928,5.928,0,0,1,.664,2.832v.523a5.945,5.945,0,0,1-.652,2.82,4.672,4.672,0,0,1-1.84,1.914,5.355,5.355,0,0,1-2.68.688Zm2.344-9.477v7.594h1.133a2.545,2.545,0,0,0,2.1-.9,4.06,4.06,0,0,0,.742-2.57v-.6a4.124,4.124,0,0,0-.719-2.629,2.537,2.537,0,0,0-2.1-.895Zm17.4,4.047a6.867,6.867,0,0,1-.594,2.945,4.472,4.472,0,0,1-1.7,1.953,5.021,5.021,0,0,1-5.059.008,4.515,4.515,0,0,1-1.719-1.941,6.67,6.67,0,0,1-.617-2.9V11.07a6.831,6.831,0,0,1,.605-2.957,4.508,4.508,0,0,1,1.711-1.961,5.014,5.014,0,0,1,5.055,0A4.508,4.508,0,0,1,80.02,8.113a6.811,6.811,0,0,1,.605,2.949Zm-2.375-.516a4.787,4.787,0,0,0-.641-2.719,2.263,2.263,0,0,0-3.648-.012,4.732,4.732,0,0,0-.648,2.691v.555a4.847,4.847,0,0,0,.641,2.7,2.243,2.243,0,0,0,3.656.035,4.819,4.819,0,0,0,.641-2.7Zm8.289,1.781H84.672V17H82.328V5.625h4.227a4.778,4.778,0,0,1,3.109.9,3.1,3.1,0,0,1,1.094,2.539,3.5,3.5,0,0,1-.5,1.941,3.437,3.437,0,0,1-1.527,1.238l2.461,4.648V17H88.672Zm-1.867-1.9h1.891a1.936,1.936,0,0,0,1.367-.449,1.606,1.606,0,0,0,.484-1.238,1.719,1.719,0,0,0-.457-1.266,1.9,1.9,0,0,0-1.4-.461H84.672ZM99.383,12.07h-4.5v3.047h5.281V17H92.539V5.625h7.609v1.9H94.883v2.711h4.5Zm8.055,1.945a1.2,1.2,0,0,0-.469-1.02,6.148,6.148,0,0,0-1.687-.75,11.963,11.963,0,0,1-1.93-.777,3.153,3.153,0,0,1-1.937-2.82A2.747,2.747,0,0,1,101.934,7a3.389,3.389,0,0,1,1.492-1.129,5.616,5.616,0,0,1,2.184-.406,5.112,5.112,0,0,1,2.172.441,3.458,3.458,0,0,1,1.48,1.246,3.261,3.261,0,0,1,.527,1.828h-2.344a1.534,1.534,0,0,0-.492-1.215,2.023,2.023,0,0,0-1.383-.434,2.162,2.162,0,0,0-1.336.363,1.146,1.146,0,0,0-.477.957,1.1,1.1,0,0,0,.559.93,6.311,6.311,0,0,0,1.645.7,7.106,7.106,0,0,1,2.914,1.492A2.972,2.972,0,0,1,109.789,14a2.737,2.737,0,0,1-1.117,2.316,4.891,4.891,0,0,1-3.008.84,5.808,5.808,0,0,1-2.391-.48,3.783,3.783,0,0,1-1.645-1.316,3.371,3.371,0,0,1-.566-1.937h2.352q0,1.883,2.25,1.883a2.189,2.189,0,0,0,1.3-.34A1.106,1.106,0,0,0,107.438,14.016Z" transform="translate(257.812 15710)" fill="#12263f"/>
    <path id="Trazado_1054985" data-name="Trazado 1054985" d="M9.625,5.625v7.492A3.836,3.836,0,0,1,8.457,16.07a4.5,4.5,0,0,1-3.191,1.086A4.553,4.553,0,0,1,2.1,16.1a3.77,3.77,0,0,1-1.2-2.9V5.625H3.25v7.508a2.167,2.167,0,0,0,.535,1.629,2.054,2.054,0,0,0,1.48.512q1.977,0,2.008-2.078V5.625ZM20.8,17H18.453L13.891,9.516V17H11.547V5.625h2.344l4.57,7.5v-7.5H20.8Zm4.539,0H22.992V5.625h2.344Zm2.172,0V5.625h3.5a5.315,5.315,0,0,1,2.684.676,4.712,4.712,0,0,1,1.848,1.922,5.928,5.928,0,0,1,.664,2.832v.523a5.945,5.945,0,0,1-.652,2.82,4.672,4.672,0,0,1-1.84,1.914,5.355,5.355,0,0,1-2.68.688Zm2.344-9.477v7.594h1.133a2.545,2.545,0,0,0,2.1-.9,4.06,4.06,0,0,0,.742-2.57v-.6a4.124,4.124,0,0,0-.719-2.629,2.537,2.537,0,0,0-2.1-.895Zm14.477,7.133H40.219L39.438,17H36.945L41.18,5.625h2.172L47.609,17H45.117Zm-3.477-1.9H43.7L42.266,8.5ZM48.672,17V5.625h3.5a5.315,5.315,0,0,1,2.684.676A4.712,4.712,0,0,1,56.7,8.223a5.928,5.928,0,0,1,.664,2.832v.523a5.945,5.945,0,0,1-.652,2.82,4.672,4.672,0,0,1-1.84,1.914A5.355,5.355,0,0,1,52.2,17Zm2.344-9.477v7.594h1.133a2.545,2.545,0,0,0,2.1-.9,4.06,4.06,0,0,0,.742-2.57v-.6a4.124,4.124,0,0,0-.719-2.629,2.537,2.537,0,0,0-2.1-.895Z" transform="translate(1104.812 15710)" fill="#12263f"/>
    <path id="Trazado_1054986" data-name="Trazado 1054986" d="M10.016,15.563a4.068,4.068,0,0,1-1.789,1.176,7.492,7.492,0,0,1-2.562.418,5.076,5.076,0,0,1-2.59-.645,4.3,4.3,0,0,1-1.719-1.871,6.585,6.585,0,0,1-.621-2.883v-.773a6.994,6.994,0,0,1,.574-2.949A4.248,4.248,0,0,1,2.965,6.129,4.771,4.771,0,0,1,5.5,5.469a4.751,4.751,0,0,1,3.164.965,4.123,4.123,0,0,1,1.352,2.809H7.734a2.268,2.268,0,0,0-.691-1.43A2.208,2.208,0,0,0,5.57,7.359a2.078,2.078,0,0,0-1.82.9,4.724,4.724,0,0,0-.633,2.672v.727a4.5,4.5,0,0,0,.68,2.7,2.327,2.327,0,0,0,1.992.914,2.6,2.6,0,0,0,1.883-.562V12.75H5.539V11.023h4.477Zm6.109-2.727H14.258V17H11.914V5.625h4.227a4.778,4.778,0,0,1,3.109.9,3.1,3.1,0,0,1,1.094,2.539A3.5,3.5,0,0,1,19.84,11a3.437,3.437,0,0,1-1.527,1.238l2.461,4.648V17H18.258Zm-1.867-1.9h1.891a1.936,1.936,0,0,0,1.367-.449A1.606,1.606,0,0,0,18,9.25a1.719,1.719,0,0,0-.457-1.266,1.9,1.9,0,0,0-1.4-.461H14.258Zm14.289,3.719H24.438L23.656,17H21.164L25.4,5.625H27.57L31.828,17H29.336Zm-3.477-1.9h2.844L26.484,8.5ZM35.953,5.625l2.922,8.25,2.906-8.25h3.078V17H42.508V13.891l.234-5.367L39.672,17H38.063L35,8.531l.234,5.359V17H32.891V5.625Zm20.3,5.945a6.867,6.867,0,0,1-.594,2.945,4.472,4.472,0,0,1-1.7,1.953,5.021,5.021,0,0,1-5.059.008,4.515,4.515,0,0,1-1.719-1.941,6.67,6.67,0,0,1-.617-2.9V11.07a6.831,6.831,0,0,1,.605-2.957,4.508,4.508,0,0,1,1.711-1.961,5.014,5.014,0,0,1,5.055,0,4.508,4.508,0,0,1,1.711,1.961,6.811,6.811,0,0,1,.605,2.949Zm-2.375-.516a4.787,4.787,0,0,0-.641-2.719,2.263,2.263,0,0,0-3.648-.012,4.732,4.732,0,0,0-.648,2.691v.555a4.847,4.847,0,0,0,.641,2.7,2.243,2.243,0,0,0,3.656.035,4.819,4.819,0,0,0,.641-2.7Z" transform="translate(1254.374 15710)" fill="#12263f"/>
    <path id="Trazado_1054987" data-name="Trazado 1054987" d="M1.016,17V5.625h3.5A5.315,5.315,0,0,1,7.2,6.3,4.712,4.712,0,0,1,9.047,8.223a5.928,5.928,0,0,1,.664,2.832v.523a5.945,5.945,0,0,1-.652,2.82,4.672,4.672,0,0,1-1.84,1.914A5.355,5.355,0,0,1,4.539,17ZM3.359,7.523v7.594H4.492a2.545,2.545,0,0,0,2.1-.9,4.06,4.06,0,0,0,.742-2.57v-.6a4.124,4.124,0,0,0-.719-2.629,2.537,2.537,0,0,0-2.1-.895ZM13.906,17H11.563V5.625h2.344Zm8.07-2.984A1.2,1.2,0,0,0,21.508,13a6.148,6.148,0,0,0-1.687-.75,11.963,11.963,0,0,1-1.93-.777,3.153,3.153,0,0,1-1.937-2.82A2.747,2.747,0,0,1,16.473,7a3.389,3.389,0,0,1,1.492-1.129,5.616,5.616,0,0,1,2.184-.406,5.112,5.112,0,0,1,2.172.441A3.458,3.458,0,0,1,23.8,7.156a3.261,3.261,0,0,1,.527,1.828H21.984a1.534,1.534,0,0,0-.492-1.215,2.023,2.023,0,0,0-1.383-.434,2.162,2.162,0,0,0-1.336.363,1.146,1.146,0,0,0-.477.957,1.1,1.1,0,0,0,.559.93,6.311,6.311,0,0,0,1.645.7,7.106,7.106,0,0,1,2.914,1.492A2.972,2.972,0,0,1,24.328,14a2.737,2.737,0,0,1-1.117,2.316,4.891,4.891,0,0,1-3.008.84,5.808,5.808,0,0,1-2.391-.48,3.783,3.783,0,0,1-1.645-1.316,3.371,3.371,0,0,1-.566-1.937h2.352q0,1.883,2.25,1.883a2.189,2.189,0,0,0,1.3-.34A1.106,1.106,0,0,0,21.977,14.016Zm12.5-6.492H30.992V17H28.648V7.523H25.211v-1.9h9.266Zm5.547,5.313H38.156V17H35.813V5.625h4.227a4.778,4.778,0,0,1,3.109.9,3.1,3.1,0,0,1,1.094,2.539,3.5,3.5,0,0,1-.5,1.941,3.437,3.437,0,0,1-1.527,1.238l2.461,4.648V17H42.156Zm-1.867-1.9h1.891a1.936,1.936,0,0,0,1.367-.449A1.606,1.606,0,0,0,41.9,9.25a1.719,1.719,0,0,0-.457-1.266,1.9,1.9,0,0,0-1.4-.461H38.156ZM48.516,17H46.172V5.625h2.344Zm2.172,0V5.625h3.984a5.232,5.232,0,0,1,3.141.793,2.712,2.712,0,0,1,1.07,2.324,2.57,2.57,0,0,1-.43,1.473,2.482,2.482,0,0,1-1.2.934,2.4,2.4,0,0,1,1.379.883,2.61,2.61,0,0,1,.5,1.625,3,3,0,0,1-1.047,2.484A4.713,4.713,0,0,1,55.109,17Zm2.344-4.953v3.07h2.008a1.938,1.938,0,0,0,1.293-.395,1.353,1.353,0,0,0,.465-1.09,1.428,1.428,0,0,0-1.617-1.586Zm0-1.656h1.734q1.773-.031,1.773-1.414a1.307,1.307,0,0,0-.449-1.113,2.363,2.363,0,0,0-1.418-.34H53.031ZM69.508,5.625v7.492A3.836,3.836,0,0,1,68.34,16.07a4.5,4.5,0,0,1-3.191,1.086A4.553,4.553,0,0,1,61.984,16.1a3.77,3.77,0,0,1-1.2-2.9V5.625h2.344v7.508a2.167,2.167,0,0,0,.535,1.629,2.054,2.054,0,0,0,1.48.512q1.977,0,2.008-2.078V5.625ZM73.922,17H71.578V5.625h2.344Zm2.172,0V5.625h3.5a5.315,5.315,0,0,1,2.684.676,4.712,4.712,0,0,1,1.848,1.922,5.928,5.928,0,0,1,.664,2.832v.523a5.945,5.945,0,0,1-.652,2.82,4.672,4.672,0,0,1-1.84,1.914,5.355,5.355,0,0,1-2.68.688Zm2.344-9.477v7.594H79.57a2.545,2.545,0,0,0,2.1-.9,4.06,4.06,0,0,0,.742-2.57v-.6A4.124,4.124,0,0,0,81.7,8.418a2.537,2.537,0,0,0-2.1-.895Zm17.4,4.047a6.867,6.867,0,0,1-.594,2.945,4.472,4.472,0,0,1-1.7,1.953,5.021,5.021,0,0,1-5.059.008,4.515,4.515,0,0,1-1.719-1.941,6.67,6.67,0,0,1-.617-2.9V11.07a6.831,6.831,0,0,1,.605-2.957,4.508,4.508,0,0,1,1.711-1.961,5.014,5.014,0,0,1,5.055,0A4.508,4.508,0,0,1,95.23,8.113a6.811,6.811,0,0,1,.605,2.949Zm-2.375-.516a4.787,4.787,0,0,0-.641-2.719,2.263,2.263,0,0,0-3.648-.012,4.732,4.732,0,0,0-.648,2.691v.555a4.847,4.847,0,0,0,.641,2.7,2.243,2.243,0,0,0,3.656.035,4.819,4.819,0,0,0,.641-2.7Zm8.289,1.781H99.883V17H97.539V5.625h4.227a4.778,4.778,0,0,1,3.109.9,3.1,3.1,0,0,1,1.094,2.539,3.5,3.5,0,0,1-.5,1.941,3.437,3.437,0,0,1-1.527,1.238l2.461,4.648V17h-2.516Zm-1.867-1.9h1.891a1.936,1.936,0,0,0,1.367-.449,1.606,1.606,0,0,0,.484-1.238,1.719,1.719,0,0,0-.457-1.266,1.9,1.9,0,0,0-1.4-.461H99.883Zm14.289,3.719h-4.109L109.281,17h-2.492l4.234-11.375H113.2L117.453,17h-2.492Zm-3.477-1.9h2.844L112.109,8.5Zm19.9-5.234h-3.484V17h-2.344V7.523h-3.437v-1.9h9.266Zm10.461,4.047a6.867,6.867,0,0,1-.594,2.945,4.471,4.471,0,0,1-1.7,1.953,5.021,5.021,0,0,1-5.059.008,4.515,4.515,0,0,1-1.719-1.941,6.67,6.67,0,0,1-.617-2.9V11.07a6.831,6.831,0,0,1,.605-2.957,4.508,4.508,0,0,1,1.711-1.961,5.014,5.014,0,0,1,5.055,0,4.508,4.508,0,0,1,1.711,1.961,6.811,6.811,0,0,1,.605,2.949Zm-2.375-.516a4.787,4.787,0,0,0-.641-2.719,2.263,2.263,0,0,0-3.648-.012,4.732,4.732,0,0,0-.648,2.691v.555a4.847,4.847,0,0,0,.641,2.7,2.243,2.243,0,0,0,3.656.035,4.819,4.819,0,0,0,.641-2.7Zm11.977-3.531h-3.484V17h-2.344V7.523h-3.437v-1.9h9.266Zm6.82,7.133h-4.109L152.586,17h-2.492l4.234-11.375H156.5L160.758,17h-2.492ZM154,12.758h2.844L155.414,8.5Zm10.164,2.359h4.977V17h-7.32V5.625h2.344Zm12.648,0h4.977V17h-7.32V5.625h2.344Zm13.281-7.594h-3.484V17h-2.344V7.523h-3.437v-1.9h9.266ZM191.43,17V5.625h3.5a5.315,5.315,0,0,1,2.684.676,4.712,4.712,0,0,1,1.848,1.922,5.928,5.928,0,0,1,.664,2.832v.523a5.945,5.945,0,0,1-.652,2.82,4.672,4.672,0,0,1-1.84,1.914,5.355,5.355,0,0,1-2.68.688Zm2.344-9.477v7.594h1.133a2.545,2.545,0,0,0,2.1-.9,4.06,4.06,0,0,0,.742-2.57v-.6a4.124,4.124,0,0,0-.719-2.629,2.537,2.537,0,0,0-2.1-.895Zm14.477,7.133h-4.109L203.359,17h-2.492L205.1,5.625h2.172L211.531,17h-2.492Zm-3.477-1.9h2.844L206.188,8.5Z" transform="translate(537.641 15710)" fill="#12263f"/>
    <path id="Trazado_1054988" data-name="Trazado 1054988" d="M.159,0,0,82.363" transform="translate(523.312 15601.852)" fill="none" stroke="#e1e1e1" stroke-width="1"/>
    <path id="Trazado_1054989" data-name="Trazado 1054989" d="M0,0V81.363" transform="translate(646.47 15601.852)" fill="none" stroke="#e1e1e1" stroke-width="1"/>
    <path id="Trazado_1054990" data-name="Trazado 1054990" d="M0,0,.549,154.363" transform="translate(868.422 15601.852)" fill="none" stroke="#e1e1e1" stroke-width="1"/>
    <path id="Trazado_1054991" data-name="Trazado 1054991" d="M.086,0,0,154.363" transform="translate(1074.408 15601.852)" fill="none" stroke="#e1e1e1" stroke-width="1"/>
    <path id="Trazado_1054992" data-name="Trazado 1054992" d="M0,0,.6,155.363" transform="translate(1202.715 15601.852)" fill="none" stroke="#e1e1e1" stroke-width="1"/>
    <path id="Trazado_1054993" data-name="Trazado 1054993" d="M1159,0H0" transform="translate(220.362 15798.215)" fill="none" stroke="#e1e1e1" stroke-width="1"/>
    <path id="Trazado_1054994" data-name="Trazado 1054994" d="M0,0H1159.551V44.895H0Z" transform="translate(220.312 15754.641)" fill="#fd9826"/>
    <path id="Trazado_1054995" data-name="Trazado 1054995" d="M0,0H1159.551V44.895H0Z" transform="translate(220.087 15799.535)" fill="#e8e8e8"/>
    <path id="Trazado_1054996" data-name="Trazado 1054996" d="M0,0H1159.551V44.895H0Z" transform="translate(219.638 15897.582)" fill="#f6f6f6"/>
    <path id="Trazado_1054997" data-name="Trazado 1054997" d="M0,0H1159.551V44.895H0Z" transform="translate(219.638 15987.371)" fill="#f6f6f6"/>
    <path id="Trazado_1054998" data-name="Trazado 1054998" d="M14.191,12.07h-4.5v3.047h5.281V17H7.348V5.625h7.609v1.9H9.691v2.711h4.5ZM25.6,17H23.254L18.691,9.516V17H16.348V5.625h2.344l4.57,7.5v-7.5H25.6ZM36.207,7.523H32.723V17H30.379V7.523H26.941v-1.9h9.266Zm5.547,5.313H39.887V17H37.543V5.625H41.77a4.778,4.778,0,0,1,3.109.9,3.1,3.1,0,0,1,1.094,2.539,3.5,3.5,0,0,1-.5,1.941,3.437,3.437,0,0,1-1.527,1.238L46.4,16.891V17H43.887Zm-1.867-1.9h1.891a1.936,1.936,0,0,0,1.367-.449,1.606,1.606,0,0,0,.484-1.238,1.719,1.719,0,0,0-.457-1.266,1.9,1.9,0,0,0-1.4-.461H39.887Zm14.289,3.719H50.066L49.285,17H46.793L51.027,5.625H53.2L57.457,17H54.965Zm-3.477-1.9h2.844L52.113,8.5ZM58.52,17V5.625h3.5A5.315,5.315,0,0,1,64.7,6.3a4.712,4.712,0,0,1,1.848,1.922,5.928,5.928,0,0,1,.664,2.832v.523a5.945,5.945,0,0,1-.652,2.82,4.672,4.672,0,0,1-1.84,1.914,5.355,5.355,0,0,1-2.68.688Zm2.344-9.477v7.594H62a2.545,2.545,0,0,0,2.1-.9,4.06,4.06,0,0,0,.742-2.57v-.6a4.124,4.124,0,0,0-.719-2.629,2.537,2.537,0,0,0-2.1-.895ZM75.34,14.656H71.23L70.449,17H67.957L72.191,5.625h2.172L78.621,17H76.129Zm-3.477-1.9h2.844L73.277,8.5Z" transform="translate(541.813 15768)" fill="#12263f"/>
    <path id="Trazado_1054999" data-name="Trazado 1054999" d="M21.867,14.016A1.2,1.2,0,0,0,21.4,13a6.148,6.148,0,0,0-1.687-.75,11.963,11.963,0,0,1-1.93-.777,3.153,3.153,0,0,1-1.937-2.82A2.747,2.747,0,0,1,16.363,7a3.389,3.389,0,0,1,1.492-1.129,5.616,5.616,0,0,1,2.184-.406,5.112,5.112,0,0,1,2.172.441,3.458,3.458,0,0,1,1.48,1.246,3.261,3.261,0,0,1,.527,1.828H21.875a1.534,1.534,0,0,0-.492-1.215A2.023,2.023,0,0,0,20,7.336a2.162,2.162,0,0,0-1.336.363,1.146,1.146,0,0,0-.477.957,1.1,1.1,0,0,0,.559.93,6.311,6.311,0,0,0,1.645.7A7.106,7.106,0,0,1,23.3,11.781,2.972,2.972,0,0,1,24.219,14,2.737,2.737,0,0,1,23.1,16.316a4.891,4.891,0,0,1-3.008.84,5.808,5.808,0,0,1-2.391-.48,3.783,3.783,0,0,1-1.645-1.316,3.371,3.371,0,0,1-.566-1.937h2.352q0,1.883,2.25,1.883a2.189,2.189,0,0,0,1.3-.34A1.106,1.106,0,0,0,21.867,14.016Zm10.359.641H28.117L27.336,17H24.844L29.078,5.625H31.25L35.508,17H33.016Zm-3.477-1.9h2.844L30.164,8.5Zm10.164,2.359h4.977V17H36.57V5.625h2.344ZM47.727,17H45.383V5.625h2.344ZM49.9,17V5.625h3.5a5.315,5.315,0,0,1,2.684.676A4.712,4.712,0,0,1,57.93,8.223a5.928,5.928,0,0,1,.664,2.832v.523a5.945,5.945,0,0,1-.652,2.82,4.672,4.672,0,0,1-1.84,1.914,5.355,5.355,0,0,1-2.68.688Zm2.344-9.477v7.594h1.133a2.545,2.545,0,0,0,2.1-.9,4.06,4.06,0,0,0,.742-2.57v-.6A4.124,4.124,0,0,0,55.5,8.418a2.537,2.537,0,0,0-2.1-.895Zm14.477,7.133H62.609L61.828,17H59.336L63.57,5.625h2.172L70,17H67.508Zm-3.477-1.9h2.844L64.656,8.5Z" transform="translate(826.922 15768)" fill="#12263f"/>
    <path id="Trazado_1055000" data-name="Trazado 1055000" d="M24.059,14.016A1.2,1.2,0,0,0,23.59,13a6.148,6.148,0,0,0-1.687-.75,11.963,11.963,0,0,1-1.93-.777,3.153,3.153,0,0,1-1.937-2.82A2.747,2.747,0,0,1,18.555,7a3.389,3.389,0,0,1,1.492-1.129,5.616,5.616,0,0,1,2.184-.406A5.112,5.112,0,0,1,24.4,5.91a3.458,3.458,0,0,1,1.48,1.246,3.261,3.261,0,0,1,.527,1.828H24.066a1.534,1.534,0,0,0-.492-1.215,2.023,2.023,0,0,0-1.383-.434,2.162,2.162,0,0,0-1.336.363,1.146,1.146,0,0,0-.477.957,1.1,1.1,0,0,0,.559.93,6.311,6.311,0,0,0,1.645.7A7.106,7.106,0,0,1,25.5,11.781,2.972,2.972,0,0,1,26.41,14a2.737,2.737,0,0,1-1.117,2.316,4.891,4.891,0,0,1-3.008.84,5.808,5.808,0,0,1-2.391-.48,3.783,3.783,0,0,1-1.645-1.316,3.371,3.371,0,0,1-.566-1.937h2.352q0,1.883,2.25,1.883a2.189,2.189,0,0,0,1.3-.34A1.106,1.106,0,0,0,24.059,14.016Zm10.359.641H30.309L29.527,17H27.035L31.27,5.625h2.172L37.7,17H35.207Zm-3.477-1.9h2.844L32.355,8.5Zm10.164,2.359h4.977V17h-7.32V5.625h2.344ZM47.426,17V5.625h3.5a5.315,5.315,0,0,1,2.684.676,4.712,4.712,0,0,1,1.848,1.922,5.928,5.928,0,0,1,.664,2.832v.523a5.945,5.945,0,0,1-.652,2.82,4.672,4.672,0,0,1-1.84,1.914,5.355,5.355,0,0,1-2.68.688ZM49.77,7.523v7.594H50.9a2.545,2.545,0,0,0,2.1-.9,4.06,4.06,0,0,0,.742-2.57v-.6a4.124,4.124,0,0,0-.719-2.629,2.537,2.537,0,0,0-2.1-.895Zm17.4,4.047a6.867,6.867,0,0,1-.594,2.945,4.472,4.472,0,0,1-1.7,1.953,5.021,5.021,0,0,1-5.059.008A4.515,4.515,0,0,1,58.1,14.535a6.67,6.67,0,0,1-.617-2.9V11.07a6.831,6.831,0,0,1,.605-2.957A4.508,4.508,0,0,1,59.8,6.152a5.014,5.014,0,0,1,5.055,0,4.508,4.508,0,0,1,1.711,1.961,6.811,6.811,0,0,1,.605,2.949Zm-2.375-.516a4.787,4.787,0,0,0-.641-2.719A2.263,2.263,0,0,0,60.5,8.324a4.732,4.732,0,0,0-.648,2.691v.555a4.847,4.847,0,0,0,.641,2.7,2.243,2.243,0,0,0,3.656.035,4.819,4.819,0,0,0,.641-2.7Z" transform="translate(1124.373 15768)" fill="#12263f"/>
    <path id="Trazado_1055001" data-name="Trazado 1055001" d="M0,0V430.083" transform="translate(389.153 15601.852)" fill="none" stroke="#e1e1e1" stroke-width="1"/>
    <path id="Trazado_1055002" data-name="Trazado 1055002" d="M0,0V232.918" transform="translate(523.312 15799.215)" fill="none" stroke="#e1e1e1" stroke-width="1"/>
    <path id="Trazado_1055003" data-name="Trazado 1055003" d="M0,0V277.765" transform="translate(769.312 15754.5)" fill="none" stroke="#e1e1e1" stroke-width="1"/>
    <path id="Trazado_1055004" data-name="Trazado 1055004" d="M1.769,0,0,430.282" transform="translate(967.312 15601.852)" fill="none" stroke="#e1e1e1" stroke-width="1"/>
    <path id="Trazado_1055005" data-name="Trazado 1055005" d="M43.307,12.352h-4.5V17H36.464V5.625H43.87v1.9H38.807v2.938h4.5Zm8.766-.281h-4.5v3.047h5.281V17H45.229V5.625h7.609v1.9H47.573v2.711h4.5Zm11.086,1.141A4.025,4.025,0,0,1,61.8,16.1a4.76,4.76,0,0,1-3.223,1.055,4.28,4.28,0,0,1-3.441-1.473,6.038,6.038,0,0,1-1.254-4.043v-.7a6.819,6.819,0,0,1,.578-2.891,4.332,4.332,0,0,1,1.652-1.918,5.164,5.164,0,0,1,5.668.387,4.326,4.326,0,0,1,1.391,2.961H60.831a2.376,2.376,0,0,0-.613-1.6,2.271,2.271,0,0,0-1.605-.5,1.991,1.991,0,0,0-1.754.84,4.707,4.707,0,0,0-.6,2.605V11.7a5.038,5.038,0,0,0,.559,2.7,1.954,1.954,0,0,0,1.762.852,2.314,2.314,0,0,0,1.621-.5,2.241,2.241,0,0,0,.613-1.535ZM73.956,17H71.612V12.125h-4.57V17H64.7V5.625h2.344v4.609h4.57V5.625h2.344Zm8.609-2.344H78.456L77.675,17H75.182L79.417,5.625h2.172L85.846,17H83.354Zm-3.477-1.9h2.844L80.5,8.5Z" transform="translate(248.812 15812)" fill="#12263f"/>
    <path id="Trazado_1055006" data-name="Trazado 1055006" d="M10.5,17V5.625H14a5.315,5.315,0,0,1,2.684.676A4.712,4.712,0,0,1,18.53,8.223a5.928,5.928,0,0,1,.664,2.832v.523a5.945,5.945,0,0,1-.652,2.82,4.672,4.672,0,0,1-1.84,1.914,5.355,5.355,0,0,1-2.68.688Zm2.344-9.477v7.594h1.133a2.545,2.545,0,0,0,2.1-.9,4.06,4.06,0,0,0,.742-2.57v-.6A4.124,4.124,0,0,0,16.1,8.418,2.537,2.537,0,0,0,14,7.523Zm14.9,4.547h-4.5v3.047h5.281V17H20.9V5.625h7.609v1.9H23.241v2.711h4.5ZM35.8,14.016A1.2,1.2,0,0,0,35.327,13a6.148,6.148,0,0,0-1.687-.75,11.963,11.963,0,0,1-1.93-.777,3.153,3.153,0,0,1-1.937-2.82A2.747,2.747,0,0,1,30.292,7a3.389,3.389,0,0,1,1.492-1.129,5.616,5.616,0,0,1,2.184-.406,5.112,5.112,0,0,1,2.172.441,3.458,3.458,0,0,1,1.48,1.246,3.261,3.261,0,0,1,.527,1.828H35.8a1.534,1.534,0,0,0-.492-1.215,2.023,2.023,0,0,0-1.383-.434,2.162,2.162,0,0,0-1.336.363,1.146,1.146,0,0,0-.477.957,1.1,1.1,0,0,0,.559.93,6.311,6.311,0,0,0,1.645.7,7.106,7.106,0,0,1,2.914,1.492A2.972,2.972,0,0,1,38.147,14a2.737,2.737,0,0,1-1.117,2.316,4.891,4.891,0,0,1-3.008.84,5.808,5.808,0,0,1-2.391-.48,3.783,3.783,0,0,1-1.645-1.316,3.371,3.371,0,0,1-.566-1.937h2.352q0,1.883,2.25,1.883a2.189,2.189,0,0,0,1.3-.34A1.106,1.106,0,0,0,35.8,14.016Zm12.867-.8A4.025,4.025,0,0,1,47.307,16.1a4.76,4.76,0,0,1-3.223,1.055,4.28,4.28,0,0,1-3.441-1.473,6.038,6.038,0,0,1-1.254-4.043v-.7a6.819,6.819,0,0,1,.578-2.891A4.332,4.332,0,0,1,41.62,6.137a5.164,5.164,0,0,1,5.668.387,4.326,4.326,0,0,1,1.391,2.961H46.335a2.376,2.376,0,0,0-.613-1.6,2.271,2.271,0,0,0-1.605-.5,1.991,1.991,0,0,0-1.754.84,4.707,4.707,0,0,0-.6,2.605V11.7a5.038,5.038,0,0,0,.559,2.7,1.954,1.954,0,0,0,1.762.852,2.314,2.314,0,0,0,1.621-.5,2.241,2.241,0,0,0,.613-1.535Zm5.75-.375H52.546V17H50.2V5.625h4.227a4.778,4.778,0,0,1,3.109.9,3.1,3.1,0,0,1,1.094,2.539,3.5,3.5,0,0,1-.5,1.941A3.437,3.437,0,0,1,56.6,12.242l2.461,4.648V17H56.546Zm-1.867-1.9h1.891a1.936,1.936,0,0,0,1.367-.449,1.606,1.606,0,0,0,.484-1.238,1.719,1.719,0,0,0-.457-1.266,1.9,1.9,0,0,0-1.4-.461H52.546ZM62.905,17H60.561V5.625h2.344Zm4.516-4.008V17H65.077V5.625h4.438a5.134,5.134,0,0,1,2.254.469,3.454,3.454,0,0,1,1.5,1.332,3.714,3.714,0,0,1,.523,1.965,3.266,3.266,0,0,1-1.145,2.637,4.767,4.767,0,0,1-3.168.965Zm0-1.9h2.094a2.059,2.059,0,0,0,1.418-.437,1.591,1.591,0,0,0,.488-1.25,1.876,1.876,0,0,0-.492-1.352,1.839,1.839,0,0,0-1.359-.531H67.421Zm16.906,2.117A4.025,4.025,0,0,1,82.971,16.1a4.76,4.76,0,0,1-3.223,1.055,4.28,4.28,0,0,1-3.441-1.473,6.038,6.038,0,0,1-1.254-4.043v-.7a6.819,6.819,0,0,1,.578-2.891,4.332,4.332,0,0,1,1.652-1.918,5.164,5.164,0,0,1,5.668.387,4.326,4.326,0,0,1,1.391,2.961H82a2.376,2.376,0,0,0-.613-1.6,2.271,2.271,0,0,0-1.605-.5,1.991,1.991,0,0,0-1.754.84,4.707,4.707,0,0,0-.6,2.605V11.7a5.038,5.038,0,0,0,.559,2.7,1.954,1.954,0,0,0,1.762.852,2.314,2.314,0,0,0,1.621-.5,2.241,2.241,0,0,0,.613-1.535ZM88.358,17H86.014V5.625h2.344Zm11.516-5.43a6.867,6.867,0,0,1-.594,2.945,4.472,4.472,0,0,1-1.7,1.953,5.021,5.021,0,0,1-5.059.008A4.515,4.515,0,0,1,90.8,14.535a6.67,6.67,0,0,1-.617-2.9V11.07a6.831,6.831,0,0,1,.605-2.957A4.508,4.508,0,0,1,92.5,6.152a5.014,5.014,0,0,1,5.055,0,4.508,4.508,0,0,1,1.711,1.961,6.811,6.811,0,0,1,.605,2.949ZM97.5,11.055a4.787,4.787,0,0,0-.641-2.719,2.263,2.263,0,0,0-3.648-.012,4.732,4.732,0,0,0-.648,2.691v.555a4.847,4.847,0,0,0,.641,2.7,2.243,2.243,0,0,0,3.656.035,4.819,4.819,0,0,0,.641-2.7ZM95.483,2.578h2.461L95.78,5H93.944ZM110.827,17h-2.344l-4.562-7.484V17h-2.344V5.625h2.344l4.57,7.5v-7.5h2.336Z" transform="translate(399.812 15812)" fill="#12263f"/>
    <path id="Trazado_1055007" data-name="Trazado 1055007" d="M31.288,13.211A4.025,4.025,0,0,1,29.932,16.1a4.76,4.76,0,0,1-3.223,1.055,4.28,4.28,0,0,1-3.441-1.473,6.038,6.038,0,0,1-1.254-4.043v-.7a6.819,6.819,0,0,1,.578-2.891,4.332,4.332,0,0,1,1.652-1.918,4.629,4.629,0,0,1,2.5-.668,4.637,4.637,0,0,1,3.172,1.055A4.326,4.326,0,0,1,31.3,9.484H28.96a2.376,2.376,0,0,0-.613-1.6,2.271,2.271,0,0,0-1.605-.5,1.991,1.991,0,0,0-1.754.84,4.707,4.707,0,0,0-.6,2.605V11.7a5.038,5.038,0,0,0,.559,2.7,1.954,1.954,0,0,0,1.762.852,2.314,2.314,0,0,0,1.621-.5,2.241,2.241,0,0,0,.613-1.535Zm7.961,1.445H35.139L34.358,17H31.866L36.1,5.625h2.172L42.53,17H40.038Zm-3.477-1.9h2.844L37.186,8.5ZM52.843,17H50.5L45.936,9.516V17H43.593V5.625h2.344l4.57,7.5v-7.5h2.336ZM63.452,7.523H59.968V17H57.624V7.523H54.186v-1.9h9.266ZM67.28,17H64.936V5.625H67.28Zm2.172,0V5.625h3.5a5.315,5.315,0,0,1,2.684.676,4.712,4.712,0,0,1,1.848,1.922,5.928,5.928,0,0,1,.664,2.832v.523a5.945,5.945,0,0,1-.652,2.82,4.672,4.672,0,0,1-1.84,1.914,5.355,5.355,0,0,1-2.68.688ZM71.8,7.523v7.594h1.133a2.545,2.545,0,0,0,2.1-.9,4.06,4.06,0,0,0,.742-2.57v-.6a4.124,4.124,0,0,0-.719-2.629,2.537,2.537,0,0,0-2.1-.895Zm14.477,7.133H82.163L81.382,17H78.889L83.124,5.625H85.3L89.553,17H87.061Zm-3.477-1.9h2.844L84.21,8.5ZM90.616,17V5.625h3.5A5.315,5.315,0,0,1,96.8,6.3a4.712,4.712,0,0,1,1.848,1.922,5.928,5.928,0,0,1,.664,2.832v.523a5.945,5.945,0,0,1-.652,2.82,4.672,4.672,0,0,1-1.84,1.914,5.355,5.355,0,0,1-2.68.688ZM92.96,7.523v7.594h1.133a2.545,2.545,0,0,0,2.1-.9,4.06,4.06,0,0,0,.742-2.57v-.6a4.124,4.124,0,0,0-.719-2.629,2.537,2.537,0,0,0-2.1-.895Z" transform="translate(528.152 15812)" fill="#12263f"/>
    <path id="Trazado_1055008" data-name="Trazado 1055008" d="M17.358,14.18l2.578-8.555h2.609L18.585,17H16.139L12.194,5.625h2.6Zm12.094.477H25.343L24.561,17H22.069L26.3,5.625h2.172L32.733,17H30.241Zm-3.477-1.9h2.844L27.389,8.5Zm10.164,2.359h4.977V17H33.8V5.625h2.344ZM51.3,11.57a6.867,6.867,0,0,1-.594,2.945,4.472,4.472,0,0,1-1.7,1.953,5.021,5.021,0,0,1-5.059.008,4.515,4.515,0,0,1-1.719-1.941,6.67,6.67,0,0,1-.617-2.9V11.07a6.831,6.831,0,0,1,.605-2.957,4.508,4.508,0,0,1,1.711-1.961,5.014,5.014,0,0,1,5.055,0A4.508,4.508,0,0,1,50.7,8.113a6.811,6.811,0,0,1,.605,2.949Zm-2.375-.516a4.787,4.787,0,0,0-.641-2.719,2.263,2.263,0,0,0-3.648-.012,4.732,4.732,0,0,0-.648,2.691v.555a4.847,4.847,0,0,0,.641,2.7,2.243,2.243,0,0,0,3.656.035,4.819,4.819,0,0,0,.641-2.7Zm8.289,1.781H55.35V17H53.007V5.625h4.227a4.778,4.778,0,0,1,3.109.9,3.1,3.1,0,0,1,1.094,2.539,3.5,3.5,0,0,1-.5,1.941,3.437,3.437,0,0,1-1.527,1.238l2.461,4.648V17H59.35Zm-1.867-1.9h1.891a1.936,1.936,0,0,0,1.367-.449,1.606,1.606,0,0,0,.484-1.238,1.719,1.719,0,0,0-.457-1.266,1.9,1.9,0,0,0-1.4-.461H55.35ZM24.28,25.523H20.8V35H18.452V25.523H15.014v-1.9H24.28ZM34.741,29.57a6.867,6.867,0,0,1-.594,2.945,4.472,4.472,0,0,1-1.7,1.953,5.021,5.021,0,0,1-5.059.008,4.515,4.515,0,0,1-1.719-1.941,6.67,6.67,0,0,1-.617-2.9V29.07a6.831,6.831,0,0,1,.605-2.957,4.508,4.508,0,0,1,1.711-1.961,5.014,5.014,0,0,1,5.055,0,4.508,4.508,0,0,1,1.711,1.961,6.811,6.811,0,0,1,.605,2.949Zm-2.375-.516a4.787,4.787,0,0,0-.641-2.719,2.263,2.263,0,0,0-3.648-.012,4.732,4.732,0,0,0-.648,2.691v.555a4.847,4.847,0,0,0,.641,2.7,2.243,2.243,0,0,0,3.656.035,4.819,4.819,0,0,0,.641-2.7Zm11.977-3.531H40.858V35H38.514V25.523H35.077v-1.9h9.266Zm6.82,7.133H47.053L46.272,35H43.78l4.234-11.375h2.172L54.444,35H51.952Zm-3.477-1.9H50.53L49.1,26.5ZM57.85,33.117h4.977V35h-7.32V23.625H57.85Z" transform="translate(670.958 15803)" fill="#12263f"/>
    <path id="Trazado_1055009" data-name="Trazado 1055009" d="M17.358,14.18l2.578-8.555h2.609L18.585,17H16.139L12.194,5.625h2.6Zm12.094.477H25.343L24.561,17H22.069L26.3,5.625h2.172L32.733,17H30.241Zm-3.477-1.9h2.844L27.389,8.5Zm10.164,2.359h4.977V17H33.8V5.625h2.344ZM51.3,11.57a6.867,6.867,0,0,1-.594,2.945,4.472,4.472,0,0,1-1.7,1.953,5.021,5.021,0,0,1-5.059.008,4.515,4.515,0,0,1-1.719-1.941,6.67,6.67,0,0,1-.617-2.9V11.07a6.831,6.831,0,0,1,.605-2.957,4.508,4.508,0,0,1,1.711-1.961,5.014,5.014,0,0,1,5.055,0A4.508,4.508,0,0,1,50.7,8.113a6.811,6.811,0,0,1,.605,2.949Zm-2.375-.516a4.787,4.787,0,0,0-.641-2.719,2.263,2.263,0,0,0-3.648-.012,4.732,4.732,0,0,0-.648,2.691v.555a4.847,4.847,0,0,0,.641,2.7,2.243,2.243,0,0,0,3.656.035,4.819,4.819,0,0,0,.641-2.7Zm8.289,1.781H55.35V17H53.007V5.625h4.227a4.778,4.778,0,0,1,3.109.9,3.1,3.1,0,0,1,1.094,2.539,3.5,3.5,0,0,1-.5,1.941,3.437,3.437,0,0,1-1.527,1.238l2.461,4.648V17H59.35Zm-1.867-1.9h1.891a1.936,1.936,0,0,0,1.367-.449,1.606,1.606,0,0,0,.484-1.238,1.719,1.719,0,0,0-.457-1.266,1.9,1.9,0,0,0-1.4-.461H55.35ZM24.28,25.523H20.8V35H18.452V25.523H15.014v-1.9H24.28ZM34.741,29.57a6.867,6.867,0,0,1-.594,2.945,4.472,4.472,0,0,1-1.7,1.953,5.021,5.021,0,0,1-5.059.008,4.515,4.515,0,0,1-1.719-1.941,6.67,6.67,0,0,1-.617-2.9V29.07a6.831,6.831,0,0,1,.605-2.957,4.508,4.508,0,0,1,1.711-1.961,5.014,5.014,0,0,1,5.055,0,4.508,4.508,0,0,1,1.711,1.961,6.811,6.811,0,0,1,.605,2.949Zm-2.375-.516a4.787,4.787,0,0,0-.641-2.719,2.263,2.263,0,0,0-3.648-.012,4.732,4.732,0,0,0-.648,2.691v.555a4.847,4.847,0,0,0,.641,2.7,2.243,2.243,0,0,0,3.656.035,4.819,4.819,0,0,0,.641-2.7Zm11.977-3.531H40.858V35H38.514V25.523H35.077v-1.9h9.266Zm6.82,7.133H47.053L46.272,35H43.78l4.234-11.375h2.172L54.444,35H51.952Zm-3.477-1.9H50.53L49.1,26.5ZM57.85,33.117h4.977V35h-7.32V23.625H57.85Z" transform="translate(879.051 15803)" fill="#12263f"/>
    <path id="Trazado_1055010" data-name="Trazado 1055010" d="M14.2,14.18l2.578-8.555h2.609L15.43,17H12.984L9.039,5.625h2.6Zm12.094.477H22.188L21.406,17H18.914L23.148,5.625H25.32L29.578,17H27.086Zm-3.477-1.9h2.844L24.234,8.5Zm10.164,2.359h4.977V17h-7.32V5.625h2.344ZM48.148,11.57a6.867,6.867,0,0,1-.594,2.945,4.472,4.472,0,0,1-1.7,1.953,5.021,5.021,0,0,1-5.059.008,4.515,4.515,0,0,1-1.719-1.941,6.67,6.67,0,0,1-.617-2.9V11.07a6.831,6.831,0,0,1,.605-2.957,4.508,4.508,0,0,1,1.711-1.961,5.014,5.014,0,0,1,5.055,0,4.508,4.508,0,0,1,1.711,1.961,6.811,6.811,0,0,1,.605,2.949Zm-2.375-.516a4.787,4.787,0,0,0-.641-2.719,2.263,2.263,0,0,0-3.648-.012,4.732,4.732,0,0,0-.648,2.691v.555a4.847,4.847,0,0,0,.641,2.7,2.243,2.243,0,0,0,3.656.035,4.819,4.819,0,0,0,.641-2.7Zm8.289,1.781H52.2V17H49.852V5.625h4.227a4.778,4.778,0,0,1,3.109.9,3.1,3.1,0,0,1,1.094,2.539,3.5,3.5,0,0,1-.5,1.941,3.437,3.437,0,0,1-1.527,1.238l2.461,4.648V17H56.2Zm-1.867-1.9h1.891a1.936,1.936,0,0,0,1.367-.449,1.606,1.606,0,0,0,.484-1.238,1.719,1.719,0,0,0-.457-1.266,1.9,1.9,0,0,0-1.4-.461H52.2ZM72.141,7.523H68.656V17H66.313V7.523H62.875v-1.9h9.266ZM82.6,11.57a6.867,6.867,0,0,1-.594,2.945,4.472,4.472,0,0,1-1.7,1.953,5.021,5.021,0,0,1-5.059.008,4.515,4.515,0,0,1-1.719-1.941,6.67,6.67,0,0,1-.617-2.9V11.07a6.831,6.831,0,0,1,.605-2.957A4.508,4.508,0,0,1,75.23,6.152a5.014,5.014,0,0,1,5.055,0A4.508,4.508,0,0,1,82,8.113a6.811,6.811,0,0,1,.605,2.949Zm-2.375-.516a4.787,4.787,0,0,0-.641-2.719,2.263,2.263,0,0,0-3.648-.012,4.732,4.732,0,0,0-.648,2.691v.555a4.847,4.847,0,0,0,.641,2.7,2.243,2.243,0,0,0,3.656.035,4.819,4.819,0,0,0,.641-2.7ZM92.2,7.523H88.719V17H86.375V7.523H82.938v-1.9H92.2Zm6.82,7.133H94.914L94.133,17H91.641L95.875,5.625h2.172L102.3,17H99.813Zm-3.477-1.9h2.844L96.961,8.5Zm10.164,2.359h4.977V17h-7.32V5.625h2.344Z" transform="translate(1239.051 15812)" fill="#12263f"/>
    <path id="Trazado_1055011" data-name="Trazado 1055011" d="M13.7,13.211A4.025,4.025,0,0,1,12.347,16.1a4.76,4.76,0,0,1-3.223,1.055,4.28,4.28,0,0,1-3.441-1.473,6.038,6.038,0,0,1-1.254-4.043v-.7a6.819,6.819,0,0,1,.578-2.891A4.332,4.332,0,0,1,6.66,6.137a4.629,4.629,0,0,1,2.5-.668,4.637,4.637,0,0,1,3.172,1.055,4.326,4.326,0,0,1,1.391,2.961H11.374a2.376,2.376,0,0,0-.613-1.6,2.271,2.271,0,0,0-1.605-.5A1.991,1.991,0,0,0,7.4,8.23a4.707,4.707,0,0,0-.6,2.605V11.7a5.038,5.038,0,0,0,.559,2.7,1.954,1.954,0,0,0,1.762.852,2.314,2.314,0,0,0,1.621-.5,2.241,2.241,0,0,0,.613-1.535Zm7.961,1.445H17.554L16.773,17H14.281L18.515,5.625h2.172L24.945,17H22.453Zm-3.477-1.9h2.844L19.6,8.5ZM35.257,17H32.913L28.351,9.516V17H26.007V5.625h2.344l4.57,7.5v-7.5h2.336ZM45.867,7.523H42.382V17H40.038V7.523H36.6v-1.9h9.266ZM49.695,17H47.351V5.625h2.344Zm2.172,0V5.625h3.5A5.315,5.315,0,0,1,58.05,6.3,4.712,4.712,0,0,1,59.9,8.223a5.928,5.928,0,0,1,.664,2.832v.523a5.945,5.945,0,0,1-.652,2.82,4.672,4.672,0,0,1-1.84,1.914A5.355,5.355,0,0,1,55.39,17ZM54.21,7.523v7.594h1.133a2.545,2.545,0,0,0,2.1-.9,4.06,4.06,0,0,0,.742-2.57v-.6a4.124,4.124,0,0,0-.719-2.629,2.537,2.537,0,0,0-2.1-.895Zm14.477,7.133H64.578L63.8,17H61.3L65.538,5.625H67.71L71.968,17H69.476Zm-3.477-1.9h2.844L66.624,8.5ZM73.031,17V5.625h3.5a5.315,5.315,0,0,1,2.684.676,4.712,4.712,0,0,1,1.848,1.922,5.928,5.928,0,0,1,.664,2.832v.523a5.945,5.945,0,0,1-.652,2.82,4.672,4.672,0,0,1-1.84,1.914,5.355,5.355,0,0,1-2.68.688Zm2.344-9.477v7.594h1.133a2.545,2.545,0,0,0,2.1-.9,4.06,4.06,0,0,0,.742-2.57v-.6a4.124,4.124,0,0,0-.719-2.629,2.537,2.537,0,0,0-2.1-.895Z" transform="translate(776.051 15812)" fill="#12263f"/>
    <path id="Trazado_1055012" data-name="Trazado 1055012" d="M12.117,13.211A4.025,4.025,0,0,1,10.762,16.1a4.76,4.76,0,0,1-3.223,1.055A4.28,4.28,0,0,1,4.1,15.684a6.038,6.038,0,0,1-1.254-4.043v-.7a6.819,6.819,0,0,1,.578-2.891A4.332,4.332,0,0,1,5.074,6.137a4.629,4.629,0,0,1,2.5-.668,4.637,4.637,0,0,1,3.172,1.055,4.326,4.326,0,0,1,1.391,2.961H9.789a2.376,2.376,0,0,0-.613-1.6,2.271,2.271,0,0,0-1.605-.5,1.991,1.991,0,0,0-1.754.84,4.707,4.707,0,0,0-.6,2.605V11.7a5.038,5.038,0,0,0,.559,2.7,1.954,1.954,0,0,0,1.762.852,2.314,2.314,0,0,0,1.621-.5,2.241,2.241,0,0,0,.613-1.535Zm7.961,1.445H15.969L15.188,17H12.7L16.93,5.625H19.1L23.359,17H20.867Zm-3.477-1.9h2.844L18.016,8.5ZM33.672,17H31.328L26.766,9.516V17H24.422V5.625h2.344l4.57,7.5v-7.5h2.336ZM44.281,7.523H40.8V17H38.453V7.523H35.016v-1.9h9.266ZM48.109,17H45.766V5.625h2.344Zm2.172,0V5.625h3.5a5.315,5.315,0,0,1,2.684.676,4.712,4.712,0,0,1,1.848,1.922,5.928,5.928,0,0,1,.664,2.832v.523a5.945,5.945,0,0,1-.652,2.82,4.672,4.672,0,0,1-1.84,1.914A5.355,5.355,0,0,1,53.8,17Zm2.344-9.477v7.594h1.133a2.545,2.545,0,0,0,2.1-.9,4.06,4.06,0,0,0,.742-2.57v-.6a4.124,4.124,0,0,0-.719-2.629,2.537,2.537,0,0,0-2.1-.895ZM67.1,14.656H62.992L62.211,17H59.719L63.953,5.625h2.172L70.383,17H67.891Zm-3.477-1.9h2.844L65.039,8.5ZM71.445,17V5.625h3.5a5.315,5.315,0,0,1,2.684.676,4.712,4.712,0,0,1,1.848,1.922,5.928,5.928,0,0,1,.664,2.832v.523a5.945,5.945,0,0,1-.652,2.82,4.672,4.672,0,0,1-1.84,1.914,5.355,5.355,0,0,1-2.68.688Zm2.344-9.477v7.594h1.133a2.545,2.545,0,0,0,2.1-.9,4.06,4.06,0,0,0,.742-2.57v-.6a4.124,4.124,0,0,0-.719-2.629,2.537,2.537,0,0,0-2.1-.895Z" transform="translate(980.051 15812)" fill="#12263f"/>
    <path id="Trazado_1055013" data-name="Trazado 1055013" d="M29.273,14.18l2.578-8.555H34.46L30.5,17H28.054L24.109,5.625h2.6Zm12.094.477H37.257L36.476,17H33.984L38.218,5.625H40.39L44.648,17H42.156Zm-3.477-1.9h2.844L39.3,8.5Zm10.164,2.359h4.977V17H45.71V5.625h2.344ZM63.218,11.57a6.867,6.867,0,0,1-.594,2.945,4.472,4.472,0,0,1-1.7,1.953,5.021,5.021,0,0,1-5.059.008,4.515,4.515,0,0,1-1.719-1.941,6.67,6.67,0,0,1-.617-2.9V11.07a6.831,6.831,0,0,1,.605-2.957,4.508,4.508,0,0,1,1.711-1.961,5.014,5.014,0,0,1,5.055,0,4.508,4.508,0,0,1,1.711,1.961,6.811,6.811,0,0,1,.605,2.949Zm-2.375-.516A4.787,4.787,0,0,0,60.2,8.336a2.263,2.263,0,0,0-3.648-.012,4.732,4.732,0,0,0-.648,2.691v.555a4.847,4.847,0,0,0,.641,2.7,2.243,2.243,0,0,0,3.656.035,4.819,4.819,0,0,0,.641-2.7Zm8.289,1.781H67.265V17H64.921V5.625h4.227a4.778,4.778,0,0,1,3.109.9,3.1,3.1,0,0,1,1.094,2.539,3.5,3.5,0,0,1-.5,1.941,3.437,3.437,0,0,1-1.527,1.238l2.461,4.648V17H71.265Zm-1.867-1.9h1.891a1.936,1.936,0,0,0,1.367-.449,1.606,1.606,0,0,0,.484-1.238,1.719,1.719,0,0,0-.457-1.266,1.9,1.9,0,0,0-1.4-.461H67.265ZM10.328,23.625v7.492A3.836,3.836,0,0,1,9.16,34.07a4.5,4.5,0,0,1-3.191,1.086A4.553,4.553,0,0,1,2.8,34.1a3.77,3.77,0,0,1-1.2-2.9V23.625H3.953v7.508a2.167,2.167,0,0,0,.535,1.629,2.054,2.054,0,0,0,1.48.512q1.977,0,2.008-2.078v-7.57ZM21.5,35H19.156l-4.562-7.484V35H12.249V23.625h2.344l4.57,7.5v-7.5H21.5Zm4.539,0H23.695V23.625h2.344Zm10.734-9.477H33.288V35H30.945V25.523H27.507v-1.9h9.266Zm6.82,7.133H39.484L38.7,35H36.21l4.234-11.375h2.172L46.874,35H44.382Zm-3.477-1.9H42.96L41.531,26.5Zm12.031.078H50.281V35H47.937V23.625h4.227a4.778,4.778,0,0,1,3.109.9,3.1,3.1,0,0,1,1.094,2.539,3.5,3.5,0,0,1-.5,1.941,3.437,3.437,0,0,1-1.527,1.238L56.8,34.891V35H54.281Zm-1.867-1.9h1.891a1.936,1.936,0,0,0,1.367-.449,1.606,1.606,0,0,0,.484-1.238,1.719,1.719,0,0,0-.457-1.266,1.9,1.9,0,0,0-1.4-.461H50.281ZM60.64,35H58.3V23.625H60.64Zm11.516-5.43a6.867,6.867,0,0,1-.594,2.945,4.472,4.472,0,0,1-1.7,1.953,5.021,5.021,0,0,1-5.059.008,4.515,4.515,0,0,1-1.719-1.941,6.67,6.67,0,0,1-.617-2.9V29.07a6.831,6.831,0,0,1,.605-2.957,4.508,4.508,0,0,1,1.711-1.961,5.014,5.014,0,0,1,5.055,0,4.508,4.508,0,0,1,1.711,1.961,6.811,6.811,0,0,1,.605,2.949Zm-2.375-.516a4.787,4.787,0,0,0-.641-2.719,2.263,2.263,0,0,0-3.648-.012,4.732,4.732,0,0,0-.648,2.691v.555a4.847,4.847,0,0,0,.641,2.7,2.243,2.243,0,0,0,3.656.035,4.819,4.819,0,0,0,.641-2.7Zm10.406,1.938V35H77.843V23.625h4.438a5.134,5.134,0,0,1,2.254.469,3.454,3.454,0,0,1,1.5,1.332,3.714,3.714,0,0,1,.523,1.965,3.266,3.266,0,0,1-1.145,2.637,4.767,4.767,0,0,1-3.168.965Zm0-1.9h2.094a2.059,2.059,0,0,0,1.418-.437,1.591,1.591,0,0,0,.488-1.25,1.876,1.876,0,0,0-.492-1.352,1.839,1.839,0,0,0-1.359-.531H80.187Zm10.32,1.9V35H88.163V23.625H92.6a5.134,5.134,0,0,1,2.254.469,3.454,3.454,0,0,1,1.5,1.332,3.714,3.714,0,0,1,.523,1.965,3.266,3.266,0,0,1-1.145,2.637,4.767,4.767,0,0,1-3.168.965Zm0-1.9H92.6a2.059,2.059,0,0,0,1.418-.437,1.591,1.591,0,0,0,.488-1.25,1.876,1.876,0,0,0-.492-1.352,1.839,1.839,0,0,0-1.359-.531H90.507Z" transform="translate(1091.051 15803)" fill="#12263f"/>
    <path id="Trazado_1055014" data-name="Trazado 1055014" d="M0,0V232.635" transform="translate(646.312 15799.5)" fill="none" stroke="#e1e1e1" stroke-width="1"/>
    <path id="Trazado_1055015" data-name="Trazado 1055015" d="M0,0V232.919" transform="translate(869.312 15799.215)" fill="none" stroke="#e1e1e1" stroke-width="1"/>
    <path id="Trazado_1055016" data-name="Trazado 1055016" d="M0,0V234.051" transform="translate(1204.092 15799.215)" fill="none" stroke="#e1e1e1" stroke-width="1"/>
    <path id="Trazado_1055017" data-name="Trazado 1055017" d="M0,0V232.541" transform="translate(1074.408 15799.215)" fill="none" stroke="#e1e1e1" stroke-width="1"/>
    <path id="Trazado_1055018" data-name="Trazado 1055018" d="M28.327,17H26.874V7.367L23.96,8.438V7.125L28.1,5.57h.227ZM33,17.977H31.757l4.75-12.352h1.234Zm13.289-5.828a6.61,6.61,0,0,1-.867,3.773,3.084,3.084,0,0,1-2.711,1.234,3.107,3.107,0,0,1-2.7-1.207,6.274,6.274,0,0,1-.906-3.605v-1.93a6.463,6.463,0,0,1,.867-3.727,3.108,3.108,0,0,1,2.719-1.219,3.136,3.136,0,0,1,2.7,1.176,6.237,6.237,0,0,1,.891,3.629Zm-1.445-1.977A5.3,5.3,0,0,0,44.327,7.5a1.775,1.775,0,0,0-1.633-.84,1.751,1.751,0,0,0-1.617.836,5.171,5.171,0,0,0-.523,2.57v2.313a5.381,5.381,0,0,0,.535,2.723,1.771,1.771,0,0,0,1.621.879,1.747,1.747,0,0,0,1.59-.828,5.186,5.186,0,0,0,.543-2.609ZM53.678,12a3.536,3.536,0,0,1-1.082.867,2.936,2.936,0,0,1-1.379.328,3.031,3.031,0,0,1-1.715-.484,3.149,3.149,0,0,1-1.129-1.363,4.648,4.648,0,0,1-.4-1.941,4.735,4.735,0,0,1,.434-2.055,3.185,3.185,0,0,1,1.23-1.4A3.509,3.509,0,0,1,51.5,5.469a3.177,3.177,0,0,1,2.66,1.262,5.5,5.5,0,0,1,.973,3.441v.422q0,3.32-1.312,4.848a5.043,5.043,0,0,1-3.961,1.566h-.281V15.781h.3a3.979,3.979,0,0,0,2.75-.932A4,4,0,0,0,53.678,12Zm-2.227,0a2.232,2.232,0,0,0,1.34-.445,2.625,2.625,0,0,0,.895-1.1V9.875a3.977,3.977,0,0,0-.617-2.312,1.887,1.887,0,0,0-3.094-.16A3.013,3.013,0,0,0,49.4,9.328a3.136,3.136,0,0,0,.559,1.918A1.769,1.769,0,0,0,51.452,12Zm6.109,5.977H56.319l4.75-12.352H62.3ZM71.171,17H63.718V15.961l3.938-4.375a9.354,9.354,0,0,0,1.207-1.613,2.693,2.693,0,0,0,.332-1.285,2.041,2.041,0,0,0-.539-1.461,1.885,1.885,0,0,0-1.437-.57,2.232,2.232,0,0,0-1.676.613,2.343,2.343,0,0,0-.6,1.707H63.5A3.355,3.355,0,0,1,64.51,6.438a3.751,3.751,0,0,1,2.707-.969,3.6,3.6,0,0,1,2.508.832,2.838,2.838,0,0,1,.922,2.215q0,1.68-2.141,4l-3.047,3.3h5.711Zm8.664-4.852a6.61,6.61,0,0,1-.867,3.773,3.6,3.6,0,0,1-5.406.027,6.274,6.274,0,0,1-.906-3.605v-1.93a6.463,6.463,0,0,1,.867-3.727,3.668,3.668,0,0,1,5.422-.043,6.237,6.237,0,0,1,.891,3.629Zm-1.445-1.977A5.3,5.3,0,0,0,77.874,7.5a1.775,1.775,0,0,0-1.633-.84,1.751,1.751,0,0,0-1.617.836,5.171,5.171,0,0,0-.523,2.57v2.313a5.381,5.381,0,0,0,.535,2.723,1.771,1.771,0,0,0,1.621.879,1.747,1.747,0,0,0,1.59-.828,5.186,5.186,0,0,0,.543-2.609ZM89.139,17H81.686V15.961l3.938-4.375a9.354,9.354,0,0,0,1.207-1.613,2.693,2.693,0,0,0,.332-1.285,2.041,2.041,0,0,0-.539-1.461,1.885,1.885,0,0,0-1.437-.57,2.232,2.232,0,0,0-1.676.613,2.343,2.343,0,0,0-.6,1.707H81.468a3.355,3.355,0,0,1,1.012-2.539,3.751,3.751,0,0,1,2.707-.969,3.6,3.6,0,0,1,2.508.832,2.838,2.838,0,0,1,.922,2.215q0,1.68-2.141,4l-3.047,3.3h5.711ZM97.8,12.148a6.61,6.61,0,0,1-.867,3.773,3.6,3.6,0,0,1-5.406.027,6.274,6.274,0,0,1-.906-3.605v-1.93a6.463,6.463,0,0,1,.867-3.727,3.668,3.668,0,0,1,5.422-.043,6.237,6.237,0,0,1,.891,3.629Zm-1.445-1.977A5.3,5.3,0,0,0,95.843,7.5a1.775,1.775,0,0,0-1.633-.84,1.751,1.751,0,0,0-1.617.836,5.171,5.171,0,0,0-.523,2.57v2.313A5.381,5.381,0,0,0,92.6,15.1a1.771,1.771,0,0,0,1.621.879,1.747,1.747,0,0,0,1.59-.828,5.186,5.186,0,0,0,.543-2.609ZM62.565,58.758H58.753v-1.18h3.813Zm0,46H58.753v-1.18h3.813Zm0,46H58.753v-1.18h3.813Z" transform="translate(248.812 15861.001)" fill="#12263f"/>
    <g id="Grupo_1180873" data-name="Grupo 1180873" transform="translate(219.812 15601.961)">
      <text id="FC0154_DISTRIB_TOTAL_" data-name="FC0154
 DISTRIB TOTAL " transform="translate(177.239 253.039)" fill="#12263f" font-size="16" font-family="Roboto-Regular, Roboto"><tspan x="-27.598" y="17">FC0154</tspan><tspan x="-56.875" y="41" xml:space="preserve"> DISTRIB TOTAL </tspan></text>
      <text id="TOTAL" transform="translate(177.239 403.143)" fill="#12263f" font-size="16" font-family="Roboto-Bold, Roboto" font-weight="700"><tspan x="-24.227" y="17">TOTAL</tspan></text>
      <text id="_-_-" data-name="-
-" transform="translate(237.239 329.855)" fill="#12263f" font-size="16" font-family="Roboto-Regular, Roboto"><tspan x="-2.207" y="0">-</tspan><tspan x="-2.207" y="46">-</tspan></text>
    </g>
    <g id="Grupo_1180874" data-name="Grupo 1180874" transform="translate(222.03 15592.688)">
      <text id="_2.500.000" data-name="$2.500.000" transform="translate(311.021 268.313)" fill="#12263f" font-size="16" font-family="Roboto-Regular, Roboto"><tspan x="-80.297" y="17">$2.500.000</tspan></text>
      <text id="_-_-_-" data-name="-
-
-" transform="translate(412.394 328.855)" fill="#12263f" font-size="16" font-family="Roboto-Regular, Roboto"><tspan x="-2.207" y="0">-</tspan><tspan x="-2.207" y="46">-</tspan><tspan x="-2.207" y="92">-</tspan></text>
    </g>
    <g id="Grupo_1180878" data-name="Grupo 1180878" transform="translate(219.812 15592.688)">
      <text id="_9.800.000" data-name="$9.800.000" transform="translate(440.239 268.313)" fill="#12263f" font-size="16" font-family="Roboto-Regular, Roboto"><tspan x="-80.297" y="17">$9.800.000</tspan></text>
      <text id="_-_-_--2" data-name="-
-
-" transform="translate(534.239 328.855)" fill="#12263f" font-size="16" font-family="Roboto-Regular, Roboto"><tspan x="-2.207" y="0">-</tspan><tspan x="-2.207" y="46">-</tspan><tspan x="-2.207" y="92">-</tspan></text>
    </g>
    <path id="Trazado_1055019" data-name="Trazado 1055019" d="M1.895-4.242H-1.918v-1.18H1.895Zm0,46H-1.918v-1.18H1.895Zm0,46H-1.918v-1.18H1.895Zm0,46H-1.918v-1.18H1.895Z" transform="translate(916.051 15876)" fill="#12263f"/>
    <path id="Trazado_1055020" data-name="Trazado 1055020" d="M1.895-4.242H-1.918v-1.18H1.895Zm0,46H-1.918v-1.18H1.895Zm0,46H-1.918v-1.18H1.895Zm0,46H-1.918v-1.18H1.895Z" transform="translate(819.051 15876)" fill="#12263f"/>
    <g id="Grupo_1180875" data-name="Grupo 1180875" transform="translate(219.812 15587.867)">
      <text id="_2.500.000_00" data-name="2.500.000,00" transform="translate(749.239 273.133)" fill="#12263f" font-size="16" font-family="Roboto-Regular, Roboto"><tspan x="-46.211" y="17">2.500.000,00</tspan></text>
      <text id="_-_-_--3" data-name="-
-
-" transform="translate(802.239 334.855)" fill="#12263f" font-size="16" font-family="Roboto-Regular, Roboto"><tspan x="-2.207" y="0">-</tspan><tspan x="-2.207" y="46">-</tspan><tspan x="-2.207" y="92">-</tspan></text>
    </g>
    <g id="Grupo_1180876" data-name="Grupo 1180876" transform="translate(215.812 15594.688)">
      <text id="_3_92" data-name="$3,92" transform="translate(875.239 267.313)" fill="#12263f" font-size="16" font-family="Roboto-Regular, Roboto"><tspan x="-39.078" y="17">$3,92</tspan></text>
      <text id="_-_-_--4" data-name="-
-
-" transform="translate(971.239 326.855)" fill="#12263f" font-size="16" font-family="Roboto-Regular, Roboto"><tspan x="-2.207" y="0">-</tspan><tspan x="-2.207" y="46">-</tspan><tspan x="-2.207" y="92">-</tspan></text>
    </g>
    <g id="Grupo_1180877" data-name="Grupo 1180877" transform="translate(1216.295 15857.999)">
      <text id="_9.800.000_00" data-name="$9.800.000,00" transform="translate(0.001 5)" fill="#12263f" font-size="16" font-family="Roboto-Regular, Roboto"><tspan x="-101.406" y="17">$9.800.000,00</tspan></text>
      <text id="_-_-_--5" data-name="-
-
-" transform="translate(148.755 61.723)" fill="#12263f" font-size="16" font-family="Roboto-Regular, Roboto"><tspan x="-2.207" y="0">-</tspan><tspan x="-2.207" y="46">-</tspan><tspan x="-2.207" y="92">-</tspan></text>
    </g>
  </g>
</svg>
