<svg xmlns="http://www.w3.org/2000/svg" width="768.538" height="419.48" viewBox="0 0 768.538 419.48">
  <g id="Grupo_1181012" data-name="Grupo 1181012" transform="translate(3910.092 2046.465)">
    <path id="Trazado_1055083" data-name="Trazado 1055083" d="M0,0V280" transform="translate(-3741.092 -2042.952)" fill="none" stroke="#e1e1e1" stroke-width="1"/>
    <path id="Trazado_1055091" data-name="Trazado 1055091" d="M.317,0,0,152" transform="translate(-3607.092 -1914.952)" fill="none" stroke="#e1e1e1" stroke-width="1"/>
    <path id="Trazado_1055099" data-name="Trazado 1055099" d="M0,0V111" transform="translate(-3484.092 -1873.952)" fill="none" stroke="#e1e1e1" stroke-width="1"/>
    <path id="Trazado_1055118" data-name="Trazado 1055118" d="M0,0,.036,110" transform="translate(-3261.128 -1872.952)" fill="none" stroke="#e1e1e1" stroke-width="1"/>
    <path id="Trazado_1055079" data-name="Trazado 1055079" d="M5.492,12.4H2.82V17H1.313V5.625H5.078A4.457,4.457,0,0,1,8.035,6.5,3.148,3.148,0,0,1,9.07,9.047,3.062,3.062,0,0,1,8.5,10.9a3.428,3.428,0,0,1-1.6,1.18L9.57,16.906V17H7.961ZM2.82,11.172h2.3A2.6,2.6,0,0,0,6.9,10.593a1.959,1.959,0,0,0,.66-1.55,2.062,2.062,0,0,0-.629-1.62,2.663,2.663,0,0,0-1.816-.571H2.82Zm14.781.57h-4.93v4.031H18.4V17H11.172V5.625H18.32V6.852H12.672v3.664H17.6Zm8.938.234H21.766V17h-1.5V5.625h7.047V6.852H21.766v3.9h4.773Zm9-.234h-4.93v4.031h5.727V17H29.109V5.625h7.148V6.852H30.609v3.664h4.93Zm6.836.656H39.7V17H38.2V5.625h3.766a4.457,4.457,0,0,1,2.957.875,3.148,3.148,0,0,1,1.035,2.547,3.062,3.062,0,0,1-.574,1.852,3.428,3.428,0,0,1-1.6,1.18l2.672,4.828V17H44.844ZM39.7,11.172h2.3a2.6,2.6,0,0,0,1.777-.579,1.959,1.959,0,0,0,.66-1.55,2.062,2.062,0,0,0-.629-1.62A2.663,2.663,0,0,0,42,6.852H39.7Zm14.781.57h-4.93v4.031h5.727V17H48.055V5.625H55.2V6.852H49.555v3.664h4.93ZM65.891,17H64.383L58.656,8.234V17H57.148V5.625h1.508l5.742,8.8v-8.8h1.492Zm11.031-3.609a4.185,4.185,0,0,1-1.332,2.785,4.365,4.365,0,0,1-2.98.98,4.008,4.008,0,0,1-3.23-1.445,5.815,5.815,0,0,1-1.215-3.867V10.75a6.481,6.481,0,0,1,.566-2.789,4.231,4.231,0,0,1,1.605-1.848,4.47,4.47,0,0,1,2.406-.645A4.11,4.11,0,0,1,75.648,6.48a4.235,4.235,0,0,1,1.273,2.8H75.414a3.268,3.268,0,0,0-.848-1.975A2.565,2.565,0,0,0,72.742,6.7a2.684,2.684,0,0,0-2.254,1.063,4.882,4.882,0,0,0-.816,3.026v1.1a5.018,5.018,0,0,0,.773,2.948,2.5,2.5,0,0,0,2.164,1.095,2.886,2.886,0,0,0,1.918-.566,3.143,3.143,0,0,0,.887-1.973ZM80.578,17h-1.5V5.625h1.5ZM89.6,14.023H84.836L83.766,17H82.219L86.563,5.625h1.313L92.227,17H90.688ZM85.289,12.8h3.867l-1.937-5.32Z" transform="translate(-3872.592 -2042.315)" fill="#12263f"/>
    <path id="Trazado_1055085" data-name="Trazado 1055085" d="M2.82,12.547V17H1.32V5.625h4.2a4.215,4.215,0,0,1,2.926.953A3.231,3.231,0,0,1,9.5,9.1a3.189,3.189,0,0,1-1.035,2.551,4.4,4.4,0,0,1-2.965.895Zm0-1.227h2.7a2.7,2.7,0,0,0,1.844-.567A2.075,2.075,0,0,0,8,9.113a2.143,2.143,0,0,0-.641-1.628A2.525,2.525,0,0,0,5.6,6.852H2.82ZM15.586,12.4H12.914V17H11.406V5.625h3.766a4.457,4.457,0,0,1,2.957.875,3.148,3.148,0,0,1,1.035,2.547A3.062,3.062,0,0,1,18.59,10.9a3.428,3.428,0,0,1-1.6,1.18l2.672,4.828V17H18.055Zm-2.672-1.227h2.3A2.6,2.6,0,0,0,17,10.593a1.959,1.959,0,0,0,.66-1.55,2.062,2.062,0,0,0-.629-1.62,2.663,2.663,0,0,0-1.816-.571h-2.3Zm17.1.508a7.037,7.037,0,0,1-.562,2.918,4.261,4.261,0,0,1-1.594,1.9,4.4,4.4,0,0,1-6.4-1.887,6.752,6.752,0,0,1-.59-2.832v-.82a6.953,6.953,0,0,1,.57-2.9,4.218,4.218,0,0,1,4-2.594,4.41,4.41,0,0,1,2.41.66,4.253,4.253,0,0,1,1.605,1.914,7.071,7.071,0,0,1,.563,2.918Zm-1.492-.734a5.1,5.1,0,0,0-.812-3.105,2.68,2.68,0,0,0-2.273-1.082A2.651,2.651,0,0,0,23.2,7.84a5,5,0,0,0-.84,3v.836a5.107,5.107,0,0,0,.824,3.082,2.888,2.888,0,0,0,4.52.063,5.079,5.079,0,0,0,.82-3.035Zm7.336,4.063,3.25-9.383H40.75L36.531,17H35.2L30.992,5.625h1.633ZM48.7,11.742h-4.93v4.031H49.5V17H42.273V5.625h7.148V6.852H43.773v3.664H48.7Zm9.094,0h-4.93v4.031h5.727V17H51.367V5.625h7.148V6.852H52.867v3.664H57.8ZM60.461,17V5.625h3.211a5.169,5.169,0,0,1,2.625.656,4.438,4.438,0,0,1,1.762,1.867,6.078,6.078,0,0,1,.629,2.781v.727a6.1,6.1,0,0,1-.621,2.82,4.369,4.369,0,0,1-1.773,1.859A5.5,5.5,0,0,1,63.609,17Zm1.5-10.148v8.922h1.578a3.434,3.434,0,0,0,2.7-1.079,4.458,4.458,0,0,0,.965-3.073v-.665a4.529,4.529,0,0,0-.91-3.014,3.239,3.239,0,0,0-2.582-1.091ZM79.7,11.68a7.037,7.037,0,0,1-.562,2.918,4.261,4.261,0,0,1-1.594,1.9,4.4,4.4,0,0,1-6.4-1.887,6.752,6.752,0,0,1-.59-2.832v-.82a6.953,6.953,0,0,1,.57-2.9,4.218,4.218,0,0,1,4-2.594,4.41,4.41,0,0,1,2.41.66,4.253,4.253,0,0,1,1.605,1.914,7.071,7.071,0,0,1,.563,2.918Zm-1.492-.734A5.1,5.1,0,0,0,77.4,7.84a2.68,2.68,0,0,0-2.273-1.082A2.651,2.651,0,0,0,72.887,7.84a5,5,0,0,0-.84,3v.836a5.107,5.107,0,0,0,.824,3.082,2.888,2.888,0,0,0,4.52.063,5.079,5.079,0,0,0,.82-3.035ZM86.125,12.4H83.453V17H81.945V5.625h3.766a4.457,4.457,0,0,1,2.957.875A3.148,3.148,0,0,1,89.7,9.047a3.062,3.062,0,0,1-.574,1.852,3.428,3.428,0,0,1-1.6,1.18L90.2,16.906V17H88.594Zm-2.672-1.227h2.3a2.6,2.6,0,0,0,1.777-.579,1.959,1.959,0,0,0,.66-1.55,2.062,2.062,0,0,0-.629-1.62,2.663,2.663,0,0,0-1.816-.571h-2.3Zm14.781.57H93.3v4.031h5.727V17H91.8V5.625h7.148V6.852H93.3v3.664h4.93Zm6.016.188a7.053,7.053,0,0,1-2.809-1.363,2.6,2.6,0,0,1-.879-2,2.751,2.751,0,0,1,1.074-2.223,4.269,4.269,0,0,1,2.793-.879,4.66,4.66,0,0,1,2.09.453,3.436,3.436,0,0,1,1.422,1.25,3.2,3.2,0,0,1,.5,1.742h-1.508a2.08,2.08,0,0,0-.656-1.627A2.669,2.669,0,0,0,104.43,6.7a2.732,2.732,0,0,0-1.73.489,1.632,1.632,0,0,0-.621,1.358,1.468,1.468,0,0,0,.59,1.178,5.785,5.785,0,0,0,2.008.88,9.316,9.316,0,0,1,2.219.88,3.367,3.367,0,0,1,1.188,1.121,2.861,2.861,0,0,1,.387,1.508,2.658,2.658,0,0,1-1.078,2.215,4.6,4.6,0,0,1-2.883.832,5.347,5.347,0,0,1-2.187-.449,3.681,3.681,0,0,1-1.566-1.23A3,3,0,0,1,100.2,13.7h1.508a1.959,1.959,0,0,0,.762,1.629,3.207,3.207,0,0,0,2.035.6,2.948,2.948,0,0,0,1.82-.484,1.573,1.573,0,0,0,.633-1.32,1.545,1.545,0,0,0-.586-1.293A6.755,6.755,0,0,0,104.25,11.93Z" transform="translate(-3872.592 -1960.315)" fill="#12263f"/>
    <path id="Trazado_1055103" data-name="Trazado 1055103" d="M43.1,11.977H38.323V17h-1.5V5.625H43.87V6.852H38.323v3.9H43.1Zm9-.234h-4.93v4.031h5.727V17H45.667V5.625h7.148V6.852H47.167v3.664H52.1Zm11.031,1.648A4.185,4.185,0,0,1,61.8,16.176a4.365,4.365,0,0,1-2.98.98,4.008,4.008,0,0,1-3.23-1.445,5.815,5.815,0,0,1-1.215-3.867V10.75a6.481,6.481,0,0,1,.566-2.789,4.231,4.231,0,0,1,1.605-1.848,4.47,4.47,0,0,1,2.406-.645A4.11,4.11,0,0,1,61.854,6.48a4.235,4.235,0,0,1,1.273,2.8H61.62a3.268,3.268,0,0,0-.848-1.975A2.565,2.565,0,0,0,58.948,6.7a2.684,2.684,0,0,0-2.254,1.063,4.882,4.882,0,0,0-.816,3.026v1.1a5.018,5.018,0,0,0,.773,2.948,2.5,2.5,0,0,0,2.164,1.095,2.887,2.887,0,0,0,1.918-.566,3.143,3.143,0,0,0,.887-1.973ZM73.917,17H72.409V11.742H66.675V17h-1.5V5.625h1.5v4.891h5.734V5.625h1.508ZM83,14.023H78.237L77.167,17H75.62L79.964,5.625h1.313L85.628,17H84.089ZM78.69,12.8h3.867L80.62,7.477Z" transform="translate(-3881.592 -1856.589)" fill="#12263f"/>
    <path id="Trazado_1055110" data-name="Trazado 1055110" d="M28.327,17H26.874V7.367L23.96,8.438V7.125L28.1,5.57h.227ZM33,17.977H31.757l4.75-12.352h1.234Zm13.289-5.828a6.61,6.61,0,0,1-.867,3.773,3.084,3.084,0,0,1-2.711,1.234,3.107,3.107,0,0,1-2.7-1.207,6.274,6.274,0,0,1-.906-3.605v-1.93a6.463,6.463,0,0,1,.867-3.727,3.108,3.108,0,0,1,2.719-1.219,3.136,3.136,0,0,1,2.7,1.176,6.237,6.237,0,0,1,.891,3.629Zm-1.445-1.977A5.3,5.3,0,0,0,44.327,7.5a1.775,1.775,0,0,0-1.633-.84,1.751,1.751,0,0,0-1.617.836,5.171,5.171,0,0,0-.523,2.57v2.313a5.381,5.381,0,0,0,.535,2.723,1.771,1.771,0,0,0,1.621.879,1.747,1.747,0,0,0,1.59-.828,5.186,5.186,0,0,0,.543-2.609ZM53.678,12a3.536,3.536,0,0,1-1.082.867,2.936,2.936,0,0,1-1.379.328,3.031,3.031,0,0,1-1.715-.484,3.149,3.149,0,0,1-1.129-1.363,4.648,4.648,0,0,1-.4-1.941,4.735,4.735,0,0,1,.434-2.055,3.185,3.185,0,0,1,1.23-1.4A3.509,3.509,0,0,1,51.5,5.469a3.177,3.177,0,0,1,2.66,1.262,5.5,5.5,0,0,1,.973,3.441v.422q0,3.32-1.312,4.848a5.043,5.043,0,0,1-3.961,1.566h-.281V15.781h.3a3.979,3.979,0,0,0,2.75-.932A4,4,0,0,0,53.678,12Zm-2.227,0a2.232,2.232,0,0,0,1.34-.445,2.625,2.625,0,0,0,.895-1.1V9.875a3.977,3.977,0,0,0-.617-2.312,1.887,1.887,0,0,0-3.094-.16A3.013,3.013,0,0,0,49.4,9.328a3.136,3.136,0,0,0,.559,1.918A1.769,1.769,0,0,0,51.452,12Zm6.109,5.977H56.319l4.75-12.352H62.3ZM71.171,17H63.718V15.961l3.938-4.375a9.354,9.354,0,0,0,1.207-1.613,2.693,2.693,0,0,0,.332-1.285,2.041,2.041,0,0,0-.539-1.461,1.885,1.885,0,0,0-1.437-.57,2.232,2.232,0,0,0-1.676.613,2.343,2.343,0,0,0-.6,1.707H63.5A3.355,3.355,0,0,1,64.51,6.438a3.751,3.751,0,0,1,2.707-.969,3.6,3.6,0,0,1,2.508.832,2.838,2.838,0,0,1,.922,2.215q0,1.68-2.141,4l-3.047,3.3h5.711Zm8.664-4.852a6.61,6.61,0,0,1-.867,3.773,3.6,3.6,0,0,1-5.406.027,6.274,6.274,0,0,1-.906-3.605v-1.93a6.463,6.463,0,0,1,.867-3.727,3.668,3.668,0,0,1,5.422-.043,6.237,6.237,0,0,1,.891,3.629Zm-1.445-1.977A5.3,5.3,0,0,0,77.874,7.5a1.775,1.775,0,0,0-1.633-.84,1.751,1.751,0,0,0-1.617.836,5.171,5.171,0,0,0-.523,2.57v2.313a5.381,5.381,0,0,0,.535,2.723,1.771,1.771,0,0,0,1.621.879,1.747,1.747,0,0,0,1.59-.828,5.186,5.186,0,0,0,.543-2.609ZM89.139,17H81.686V15.961l3.938-4.375a9.354,9.354,0,0,0,1.207-1.613,2.693,2.693,0,0,0,.332-1.285,2.041,2.041,0,0,0-.539-1.461,1.885,1.885,0,0,0-1.437-.57,2.232,2.232,0,0,0-1.676.613,2.343,2.343,0,0,0-.6,1.707H81.468a3.355,3.355,0,0,1,1.012-2.539,3.751,3.751,0,0,1,2.707-.969,3.6,3.6,0,0,1,2.508.832,2.838,2.838,0,0,1,.922,2.215q0,1.68-2.141,4l-3.047,3.3h5.711ZM97.8,12.148a6.61,6.61,0,0,1-.867,3.773,3.6,3.6,0,0,1-5.406.027,6.274,6.274,0,0,1-.906-3.605v-1.93a6.463,6.463,0,0,1,.867-3.727,3.668,3.668,0,0,1,5.422-.043,6.237,6.237,0,0,1,.891,3.629Zm-1.445-1.977A5.3,5.3,0,0,0,95.843,7.5a1.775,1.775,0,0,0-1.633-.84,1.751,1.751,0,0,0-1.617.836,5.171,5.171,0,0,0-.523,2.57v2.313A5.381,5.381,0,0,0,92.6,15.1a1.771,1.771,0,0,0,1.621.879,1.747,1.747,0,0,0,1.59-.828,5.186,5.186,0,0,0,.543-2.609Z" transform="translate(-3881.592 -1804.679)" fill="#12263f"/>
    <path id="Trazado_1055109" data-name="Trazado 1055109" d="M40.667,11.977H35.893V17h-1.5V5.625H41.44V6.852H35.893v3.9h4.773ZM51.6,13.391a4.185,4.185,0,0,1-1.332,2.785,4.365,4.365,0,0,1-2.98.98,4.008,4.008,0,0,1-3.23-1.445,5.815,5.815,0,0,1-1.215-3.867V10.75a6.481,6.481,0,0,1,.566-2.789,4.231,4.231,0,0,1,1.605-1.848,4.47,4.47,0,0,1,2.406-.645A4.11,4.11,0,0,1,50.331,6.48a4.235,4.235,0,0,1,1.273,2.8H50.1a3.268,3.268,0,0,0-.848-1.975A2.565,2.565,0,0,0,47.425,6.7a2.684,2.684,0,0,0-2.254,1.063,4.882,4.882,0,0,0-.816,3.026v1.1a5.018,5.018,0,0,0,.773,2.948,2.5,2.5,0,0,0,2.164,1.095,2.887,2.887,0,0,0,1.918-.566,3.143,3.143,0,0,0,.887-1.973Zm8.8-1.242a6.61,6.61,0,0,1-.867,3.773,3.6,3.6,0,0,1-5.406.027,6.274,6.274,0,0,1-.906-3.605v-1.93A6.463,6.463,0,0,1,54.1,6.688a3.668,3.668,0,0,1,5.422-.043,6.237,6.237,0,0,1,.891,3.629Zm-1.445-1.977A5.3,5.3,0,0,0,58.448,7.5a1.775,1.775,0,0,0-1.633-.84,1.751,1.751,0,0,0-1.617.836,5.171,5.171,0,0,0-.523,2.57v2.313A5.381,5.381,0,0,0,55.21,15.1a1.771,1.771,0,0,0,1.621.879,1.747,1.747,0,0,0,1.59-.828,5.186,5.186,0,0,0,.543-2.609ZM67.01,17H65.557V7.367l-2.914,1.07V7.125L66.784,5.57h.227Zm4.9-5.7.578-5.672h5.828V6.961h-4.6l-.344,3.1a3.671,3.671,0,0,1,1.9-.492A3.138,3.138,0,0,1,77.737,10.6a4.026,4.026,0,0,1,.914,2.777,3.886,3.886,0,0,1-.949,2.77,3.46,3.46,0,0,1-2.652,1.012,3.6,3.6,0,0,1-2.461-.836A3.337,3.337,0,0,1,71.5,14.008H72.87a2.3,2.3,0,0,0,.7,1.473,2.162,2.162,0,0,0,1.484.5,1.95,1.95,0,0,0,1.582-.687,2.874,2.874,0,0,0,.574-1.9,2.638,2.638,0,0,0-.621-1.832,2.113,2.113,0,0,0-1.652-.691,2.383,2.383,0,0,0-1.484.414l-.383.313ZM86.331,13.18h1.578v1.18H86.331V17H84.878V14.359H79.7v-.852l5.094-7.883h1.539Zm-4.992,0h3.539V7.6l-.172.313ZM9.077,35V23.625h3.211a5.169,5.169,0,0,1,2.625.656,4.438,4.438,0,0,1,1.762,1.867A6.078,6.078,0,0,1,17.3,28.93v.727a6.1,6.1,0,0,1-.621,2.82,4.369,4.369,0,0,1-1.773,1.859A5.5,5.5,0,0,1,12.225,35Zm1.5-10.148v8.922h1.578a3.434,3.434,0,0,0,2.7-1.079,4.458,4.458,0,0,0,.965-3.073v-.665a4.529,4.529,0,0,0-.91-3.014,3.239,3.239,0,0,0-2.582-1.091ZM21.178,35h-1.5V23.625h1.5Zm6.094-5.07a7.053,7.053,0,0,1-2.809-1.363,2.6,2.6,0,0,1-.879-2,2.751,2.751,0,0,1,1.074-2.223,4.269,4.269,0,0,1,2.793-.879,4.66,4.66,0,0,1,2.09.453,3.436,3.436,0,0,1,1.422,1.25,3.2,3.2,0,0,1,.5,1.742H29.96a2.08,2.08,0,0,0-.656-1.627,2.669,2.669,0,0,0-1.852-.592,2.732,2.732,0,0,0-1.73.489,1.632,1.632,0,0,0-.621,1.358,1.468,1.468,0,0,0,.59,1.178,5.785,5.785,0,0,0,2.008.88,9.316,9.316,0,0,1,2.219.88A3.367,3.367,0,0,1,31.1,30.6a2.861,2.861,0,0,1,.387,1.508,2.658,2.658,0,0,1-1.078,2.215,4.6,4.6,0,0,1-2.883.832,5.347,5.347,0,0,1-2.187-.449,3.681,3.681,0,0,1-1.566-1.23,3,3,0,0,1-.551-1.773h1.508a1.959,1.959,0,0,0,.762,1.629,3.207,3.207,0,0,0,2.035.6,2.948,2.948,0,0,0,1.82-.484,1.573,1.573,0,0,0,.633-1.32,1.545,1.545,0,0,0-.586-1.293A6.755,6.755,0,0,0,27.272,29.93Zm14-5.078H37.616V35H36.124V24.852H32.475V23.625h8.8ZM47.132,30.4H44.46V35H42.952V23.625h3.766a4.457,4.457,0,0,1,2.957.875,3.148,3.148,0,0,1,1.035,2.547,3.062,3.062,0,0,1-.574,1.852,3.428,3.428,0,0,1-1.6,1.18l2.672,4.828V35H49.6ZM44.46,29.172h2.3a2.6,2.6,0,0,0,1.777-.579,1.959,1.959,0,0,0,.66-1.55,2.062,2.062,0,0,0-.629-1.62,2.663,2.663,0,0,0-1.816-.571h-2.3ZM54.421,35h-1.5V23.625h1.5Zm2.742,0V23.625h3.719a4.317,4.317,0,0,1,2.785.766,2.759,2.759,0,0,1,.934,2.266,2.31,2.31,0,0,1-.453,1.41,2.938,2.938,0,0,1-1.234.949A2.638,2.638,0,0,1,64.37,30a2.814,2.814,0,0,1,.535,1.723,3.042,3.042,0,0,1-.992,2.406,4.1,4.1,0,0,1-2.8.875Zm1.5-5.32v4.094h2.477a2.385,2.385,0,0,0,1.652-.543,1.907,1.907,0,0,0,.605-1.5q0-2.055-2.234-2.055Zm0-1.2h2.266a2.375,2.375,0,0,0,1.574-.493,1.654,1.654,0,0,0,.59-1.339,1.626,1.626,0,0,0-.547-1.366,2.686,2.686,0,0,0-1.664-.427H58.663Zm19.969-3.625H74.975V35H73.483V24.852H69.835V23.625h8.8ZM88.85,29.68a7.037,7.037,0,0,1-.562,2.918,4.261,4.261,0,0,1-1.594,1.9,4.4,4.4,0,0,1-6.4-1.887,6.752,6.752,0,0,1-.59-2.832v-.82a6.953,6.953,0,0,1,.57-2.9,4.218,4.218,0,0,1,4-2.594,4.41,4.41,0,0,1,2.41.66,4.253,4.253,0,0,1,1.605,1.914,7.071,7.071,0,0,1,.563,2.918Zm-1.492-.734a5.1,5.1,0,0,0-.812-3.105,2.68,2.68,0,0,0-2.273-1.082,2.651,2.651,0,0,0-2.238,1.082,5,5,0,0,0-.84,3v.836a5.107,5.107,0,0,0,.824,3.082,2.888,2.888,0,0,0,4.52.063,5.079,5.079,0,0,0,.82-3.035Zm11.391-4.094H95.093V35H93.6V24.852H89.952V23.625h8.8Zm7.352,7.172h-4.766L100.264,35H98.718l4.344-11.375h1.313L108.725,35h-1.539ZM101.788,30.8h3.867l-1.937-5.32Zm9.977,2.977h5.391V35h-6.9V23.625h1.508Z" transform="translate(-3736.115 -1813.952)" fill="#12263f"/>
    <path id="Trazado_1055111" data-name="Trazado 1055111" d="M38.3,14.07a1.626,1.626,0,0,0-.5-1.211,4.508,4.508,0,0,0-1.7-.891,5.447,5.447,0,0,1-2.426-1.324,2.921,2.921,0,0,1-.762-2.074,3,3,0,0,1,.746-2.1,3.17,3.17,0,0,1,2.051-.977V3.781H36.87V5.5a3.011,3.011,0,0,1,2.043,1.1,3.959,3.959,0,0,1,.73,2.523H38.206a2.721,2.721,0,0,0-.523-1.756,1.72,1.72,0,0,0-1.414-.651,1.951,1.951,0,0,0-1.422.481,1.791,1.791,0,0,0-.492,1.342,1.636,1.636,0,0,0,.52,1.272,4.786,4.786,0,0,0,1.711.861,7.2,7.2,0,0,1,1.859.852,2.991,2.991,0,0,1,.984,1.082,3.128,3.128,0,0,1,.316,1.445,2.9,2.9,0,0,1-.793,2.125,3.516,3.516,0,0,1-2.223.953v1.492H35.573V17.133A3.369,3.369,0,0,1,33.3,16.1a3.493,3.493,0,0,1-.824-2.449h1.445a2.3,2.3,0,0,0,.57,1.672,2.153,2.153,0,0,0,1.617.586,2.426,2.426,0,0,0,1.609-.492A1.662,1.662,0,0,0,38.3,14.07ZM46.292,17H44.839V7.367l-2.914,1.07V7.125L46.065,5.57h.227Zm11.688,0H50.526V15.961l3.938-4.375a9.355,9.355,0,0,0,1.207-1.613A2.693,2.693,0,0,0,56,8.688a2.041,2.041,0,0,0-.539-1.461,1.885,1.885,0,0,0-1.437-.57,2.232,2.232,0,0,0-1.676.613,2.343,2.343,0,0,0-.6,1.707H50.307a3.355,3.355,0,0,1,1.012-2.539,3.751,3.751,0,0,1,2.707-.969,3.6,3.6,0,0,1,2.508.832,2.838,2.838,0,0,1,.922,2.215q0,1.68-2.141,4l-3.047,3.3h5.711Zm1.711-.758a.905.905,0,0,1,.223-.625.848.848,0,0,1,.668-.25.874.874,0,0,1,.676.25.887.887,0,0,1,.23.625.839.839,0,0,1-.23.6.89.89,0,0,1-.676.242.8.8,0,0,1-.891-.844Zm4.7-4.945.578-5.672h5.828V6.961h-4.6l-.344,3.1a3.671,3.671,0,0,1,1.9-.492A3.138,3.138,0,0,1,70.214,10.6a4.026,4.026,0,0,1,.914,2.777,3.886,3.886,0,0,1-.949,2.77,3.46,3.46,0,0,1-2.652,1.012,3.6,3.6,0,0,1-2.461-.836,3.337,3.337,0,0,1-1.086-2.312h1.367a2.3,2.3,0,0,0,.7,1.473,2.162,2.162,0,0,0,1.484.5,1.95,1.95,0,0,0,1.582-.687,2.874,2.874,0,0,0,.574-1.9,2.638,2.638,0,0,0-.621-1.832,2.113,2.113,0,0,0-1.652-.691,2.383,2.383,0,0,0-1.484.414l-.383.313Zm15.453.852a6.61,6.61,0,0,1-.867,3.773,3.6,3.6,0,0,1-5.406.027,6.274,6.274,0,0,1-.906-3.605v-1.93a6.463,6.463,0,0,1,.867-3.727,3.668,3.668,0,0,1,5.422-.043,6.237,6.237,0,0,1,.891,3.629Zm-1.445-1.977A5.3,5.3,0,0,0,77.878,7.5a1.775,1.775,0,0,0-1.633-.84,1.751,1.751,0,0,0-1.617.836,5.171,5.171,0,0,0-.523,2.57v2.313a5.381,5.381,0,0,0,.535,2.723,1.771,1.771,0,0,0,1.621.879,1.747,1.747,0,0,0,1.59-.828,5.186,5.186,0,0,0,.543-2.609Zm10.43,1.977a6.61,6.61,0,0,1-.867,3.773,3.6,3.6,0,0,1-5.406.027,6.274,6.274,0,0,1-.906-3.605v-1.93a6.463,6.463,0,0,1,.867-3.727,3.668,3.668,0,0,1,5.422-.043,6.237,6.237,0,0,1,.891,3.629Zm-1.445-1.977A5.3,5.3,0,0,0,86.862,7.5a1.775,1.775,0,0,0-1.633-.84,1.751,1.751,0,0,0-1.617.836,5.171,5.171,0,0,0-.523,2.57v2.313a5.381,5.381,0,0,0,.535,2.723,1.771,1.771,0,0,0,1.621.879,1.747,1.747,0,0,0,1.59-.828,5.186,5.186,0,0,0,.543-2.609Z" transform="translate(-3605.274 -1804.679)" fill="#12263f"/>
    <path id="Trazado_1055112" data-name="Trazado 1055112" d="M27.21,14.07a1.626,1.626,0,0,0-.5-1.211,4.508,4.508,0,0,0-1.7-.891,5.447,5.447,0,0,1-2.426-1.324,2.921,2.921,0,0,1-.762-2.074,3,3,0,0,1,.746-2.1,3.17,3.17,0,0,1,2.051-.977V3.781H25.78V5.5a3.011,3.011,0,0,1,2.043,1.1,3.959,3.959,0,0,1,.73,2.523H27.116a2.721,2.721,0,0,0-.523-1.756,1.72,1.72,0,0,0-1.414-.651,1.951,1.951,0,0,0-1.422.481,1.791,1.791,0,0,0-.492,1.342,1.636,1.636,0,0,0,.52,1.272,4.786,4.786,0,0,0,1.711.861,7.2,7.2,0,0,1,1.859.852,2.991,2.991,0,0,1,.984,1.082,3.128,3.128,0,0,1,.316,1.445,2.9,2.9,0,0,1-.793,2.125,3.516,3.516,0,0,1-2.223.953v1.492H24.483V17.133A3.369,3.369,0,0,1,22.206,16.1a3.493,3.493,0,0,1-.824-2.449h1.445a2.3,2.3,0,0,0,.57,1.672,2.153,2.153,0,0,0,1.617.586,2.426,2.426,0,0,0,1.609-.492A1.662,1.662,0,0,0,27.21,14.07Zm9.344-.891h1.578v1.18H36.553V17H35.1V14.359h-5.18v-.852l5.094-7.883h1.539Zm-4.992,0H35.1V7.6l-.172.313Zm8.055,3.063a.905.905,0,0,1,.223-.625.848.848,0,0,1,.668-.25.874.874,0,0,1,.676.25.887.887,0,0,1,.23.625.839.839,0,0,1-.23.6.89.89,0,0,1-.676.242.8.8,0,0,1-.891-.844ZM51.1,17H43.647V15.961l3.938-4.375a9.355,9.355,0,0,0,1.207-1.613,2.693,2.693,0,0,0,.332-1.285,2.041,2.041,0,0,0-.539-1.461,1.885,1.885,0,0,0-1.437-.57,2.232,2.232,0,0,0-1.676.613,2.343,2.343,0,0,0-.6,1.707H43.428A3.355,3.355,0,0,1,44.44,6.438a3.751,3.751,0,0,1,2.707-.969,3.6,3.6,0,0,1,2.508.832,2.838,2.838,0,0,1,.922,2.215q0,1.68-2.141,4l-3.047,3.3H51.1Zm8.43-8.406a2.641,2.641,0,0,1-.449,1.516,3.057,3.057,0,0,1-1.215,1.039,3.26,3.26,0,0,1,1.41,1.117,2.811,2.811,0,0,1,.52,1.664,2.972,2.972,0,0,1-1,2.352,4.367,4.367,0,0,1-5.25,0,2.986,2.986,0,0,1-.988-2.348,2.9,2.9,0,0,1,.5-1.664,3.136,3.136,0,0,1,1.395-1.125,2.981,2.981,0,0,1-1.2-1.039,2.679,2.679,0,0,1-.437-1.508,2.94,2.94,0,0,1,.922-2.281,3.915,3.915,0,0,1,4.855,0A2.934,2.934,0,0,1,59.53,8.594Zm-1.18,5.3a2.1,2.1,0,0,0-.605-1.555,2.147,2.147,0,0,0-1.582-.6A2.034,2.034,0,0,0,54.007,13.9a2.019,2.019,0,0,0,.574,1.523,2.565,2.565,0,0,0,3.191,0A2.014,2.014,0,0,0,58.35,13.9ZM56.178,6.656a1.865,1.865,0,0,0-1.379.527,1.937,1.937,0,0,0-.527,1.434,1.928,1.928,0,0,0,.52,1.4,2.064,2.064,0,0,0,2.773,0,1.928,1.928,0,0,0,.52-1.4A1.929,1.929,0,0,0,57.546,7.2,1.839,1.839,0,0,0,56.178,6.656ZM68.96,6.438,64.249,17H62.733l4.7-10.187H61.272V5.625H68.96Zm1.82,9.8A.905.905,0,0,1,71,15.617a.848.848,0,0,1,.668-.25.874.874,0,0,1,.676.25.887.887,0,0,1,.23.625.839.839,0,0,1-.23.6.89.89,0,0,1-.676.242.8.8,0,0,1-.891-.844Zm4.7-4.945.578-5.672h5.828V6.961h-4.6l-.344,3.1a3.671,3.671,0,0,1,1.9-.492A3.138,3.138,0,0,1,81.3,10.6a4.026,4.026,0,0,1,.914,2.777,3.886,3.886,0,0,1-.949,2.77,3.46,3.46,0,0,1-2.652,1.012,3.6,3.6,0,0,1-2.461-.836,3.337,3.337,0,0,1-1.086-2.312h1.367a2.3,2.3,0,0,0,.7,1.473,2.162,2.162,0,0,0,1.484.5,1.95,1.95,0,0,0,1.582-.687,2.874,2.874,0,0,0,.574-1.9,2.638,2.638,0,0,0-.621-1.832,2.113,2.113,0,0,0-1.652-.691,2.383,2.383,0,0,0-1.484.414l-.383.313Zm15.453.852a6.61,6.61,0,0,1-.867,3.773,3.6,3.6,0,0,1-5.406.027,6.274,6.274,0,0,1-.906-3.605v-1.93a6.463,6.463,0,0,1,.867-3.727,3.668,3.668,0,0,1,5.422-.043,6.237,6.237,0,0,1,.891,3.629Zm-1.445-1.977A5.3,5.3,0,0,0,88.968,7.5a1.775,1.775,0,0,0-1.633-.84,1.751,1.751,0,0,0-1.617.836,5.171,5.171,0,0,0-.523,2.57v2.313a5.381,5.381,0,0,0,.535,2.723,1.771,1.771,0,0,0,1.621.879,1.747,1.747,0,0,0,1.59-.828,5.186,5.186,0,0,0,.543-2.609Zm10.43,1.977a6.61,6.61,0,0,1-.867,3.773,3.6,3.6,0,0,1-5.406.027,6.274,6.274,0,0,1-.906-3.605v-1.93A6.463,6.463,0,0,1,93.6,6.688a3.668,3.668,0,0,1,5.422-.043,6.237,6.237,0,0,1,.891,3.629Zm-1.445-1.977A5.3,5.3,0,0,0,97.952,7.5a1.775,1.775,0,0,0-1.633-.84,1.751,1.751,0,0,0-1.617.836,5.171,5.171,0,0,0-.523,2.57v2.313a5.381,5.381,0,0,0,.535,2.723,1.771,1.771,0,0,0,1.621.879,1.747,1.747,0,0,0,1.59-.828,5.186,5.186,0,0,0,.543-2.609Z" transform="translate(-3481.957 -1804.679)" fill="#12263f"/>
    <path id="Trazado_1055104" data-name="Trazado 1055104" d="M11.51,17V5.625h3.211a5.169,5.169,0,0,1,2.625.656,4.438,4.438,0,0,1,1.762,1.867,6.078,6.078,0,0,1,.629,2.781v.727a6.1,6.1,0,0,1-.621,2.82,4.369,4.369,0,0,1-1.773,1.859A5.5,5.5,0,0,1,14.659,17Zm1.5-10.148v8.922h1.578a3.434,3.434,0,0,0,2.7-1.079,4.458,4.458,0,0,0,.965-3.073v-.665a4.529,4.529,0,0,0-.91-3.014A3.239,3.239,0,0,0,14.76,6.852Zm15.422,4.891H23.5v4.031h5.727V17H22V5.625h7.148V6.852H23.5v3.664h4.93Zm6.016.188a7.053,7.053,0,0,1-2.809-1.363,2.6,2.6,0,0,1-.879-2,2.751,2.751,0,0,1,1.074-2.223,4.269,4.269,0,0,1,2.793-.879,4.66,4.66,0,0,1,2.09.453,3.436,3.436,0,0,1,1.422,1.25,3.2,3.2,0,0,1,.5,1.742H37.135a2.08,2.08,0,0,0-.656-1.627A2.669,2.669,0,0,0,34.628,6.7a2.732,2.732,0,0,0-1.73.489,1.632,1.632,0,0,0-.621,1.358,1.468,1.468,0,0,0,.59,1.178,5.785,5.785,0,0,0,2.008.88,9.316,9.316,0,0,1,2.219.88A3.367,3.367,0,0,1,38.28,12.6a2.861,2.861,0,0,1,.387,1.508,2.658,2.658,0,0,1-1.078,2.215,4.6,4.6,0,0,1-2.883.832,5.347,5.347,0,0,1-2.187-.449,3.681,3.681,0,0,1-1.566-1.23A3,3,0,0,1,30.4,13.7h1.508a1.959,1.959,0,0,0,.762,1.629,3.207,3.207,0,0,0,2.035.6,2.948,2.948,0,0,0,1.82-.484,1.573,1.573,0,0,0,.633-1.32,1.545,1.545,0,0,0-.586-1.293A6.755,6.755,0,0,0,34.448,11.93Zm14.508,1.461a4.185,4.185,0,0,1-1.332,2.785,4.365,4.365,0,0,1-2.98.98,4.008,4.008,0,0,1-3.23-1.445A5.815,5.815,0,0,1,40.2,11.844V10.75a6.481,6.481,0,0,1,.566-2.789A4.231,4.231,0,0,1,42.37,6.113a4.47,4.47,0,0,1,2.406-.645A4.11,4.11,0,0,1,47.682,6.48a4.235,4.235,0,0,1,1.273,2.8H47.448A3.268,3.268,0,0,0,46.6,7.307,2.565,2.565,0,0,0,44.776,6.7a2.684,2.684,0,0,0-2.254,1.063,4.882,4.882,0,0,0-.816,3.026v1.1a5.018,5.018,0,0,0,.773,2.948,2.5,2.5,0,0,0,2.164,1.095,2.887,2.887,0,0,0,1.918-.566,3.143,3.143,0,0,0,.887-1.973Zm6.219-.992H52.5V17H50.995V5.625H54.76a4.457,4.457,0,0,1,2.957.875,3.148,3.148,0,0,1,1.035,2.547,3.062,3.062,0,0,1-.574,1.852,3.428,3.428,0,0,1-1.6,1.18l2.672,4.828V17H57.643ZM52.5,11.172h2.3a2.6,2.6,0,0,0,1.777-.579,1.959,1.959,0,0,0,.66-1.55,2.062,2.062,0,0,0-.629-1.62A2.663,2.663,0,0,0,54.8,6.852H52.5ZM62.464,17h-1.5V5.625h1.5Zm4.242-4.453V17h-1.5V5.625h4.2a4.215,4.215,0,0,1,2.926.953A3.231,3.231,0,0,1,73.385,9.1a3.189,3.189,0,0,1-1.035,2.551,4.4,4.4,0,0,1-2.965.895Zm0-1.227h2.7a2.7,2.7,0,0,0,1.844-.567,2.075,2.075,0,0,0,.641-1.64,2.143,2.143,0,0,0-.641-1.628,2.525,2.525,0,0,0-1.758-.634H66.706Zm16.961,2.07a4.185,4.185,0,0,1-1.332,2.785,4.365,4.365,0,0,1-2.98.98,4.008,4.008,0,0,1-3.23-1.445,5.815,5.815,0,0,1-1.215-3.867V10.75a6.481,6.481,0,0,1,.566-2.789,4.231,4.231,0,0,1,1.605-1.848,4.47,4.47,0,0,1,2.406-.645A4.11,4.11,0,0,1,82.393,6.48a4.235,4.235,0,0,1,1.273,2.8H82.159a3.268,3.268,0,0,0-.848-1.975A2.565,2.565,0,0,0,79.487,6.7a2.684,2.684,0,0,0-2.254,1.063,4.882,4.882,0,0,0-.816,3.026v1.1a5.018,5.018,0,0,0,.773,2.948,2.5,2.5,0,0,0,2.164,1.095,2.886,2.886,0,0,0,1.918-.566,3.143,3.143,0,0,0,.887-1.973ZM87.323,17h-1.5V5.625h1.5Zm11.492-5.32a7.037,7.037,0,0,1-.562,2.918,4.261,4.261,0,0,1-1.594,1.9,4.4,4.4,0,0,1-6.4-1.887,6.752,6.752,0,0,1-.59-2.832v-.82a6.953,6.953,0,0,1,.57-2.9,4.218,4.218,0,0,1,4-2.594,4.41,4.41,0,0,1,2.41.66,4.253,4.253,0,0,1,1.605,1.914,7.071,7.071,0,0,1,.563,2.918Zm-1.492-.734A5.1,5.1,0,0,0,96.51,7.84a2.68,2.68,0,0,0-2.273-1.082A2.651,2.651,0,0,0,92,7.84a5,5,0,0,0-.84,3v.836a5.107,5.107,0,0,0,.824,3.082,2.888,2.888,0,0,0,4.52.063,5.079,5.079,0,0,0,.82-3.035ZM94.971,2.563h1.75l-2.094,2.3-1.164,0ZM109.807,17H108.3l-5.727-8.766V17h-1.508V5.625h1.508l5.742,8.8v-8.8h1.492Z" transform="translate(-3730.592 -1856.589)" fill="#12263f"/>
    <path id="Trazado_1055105" data-name="Trazado 1055105" d="M31.569,13.391a4.185,4.185,0,0,1-1.332,2.785,4.365,4.365,0,0,1-2.98.98,4.008,4.008,0,0,1-3.23-1.445,5.815,5.815,0,0,1-1.215-3.867V10.75a6.481,6.481,0,0,1,.566-2.789,4.231,4.231,0,0,1,1.605-1.848,4.47,4.47,0,0,1,2.406-.645A4.11,4.11,0,0,1,30.3,6.48a4.235,4.235,0,0,1,1.273,2.8H30.061a3.268,3.268,0,0,0-.848-1.975A2.565,2.565,0,0,0,27.389,6.7a2.684,2.684,0,0,0-2.254,1.063,4.882,4.882,0,0,0-.816,3.026v1.1a5.018,5.018,0,0,0,.773,2.948,2.5,2.5,0,0,0,2.164,1.095,2.886,2.886,0,0,0,1.918-.566,3.143,3.143,0,0,0,.887-1.973Zm8.328.633H35.132L34.061,17H32.514L36.858,5.625h1.313L42.522,17H40.983ZM35.585,12.8h3.867l-1.937-5.32ZM52.8,17H51.288L45.561,8.234V17H44.053V5.625h1.508l5.742,8.8v-8.8H52.8ZM63.319,6.852H59.663V17H58.171V6.852H54.522V5.625h8.8ZM66.616,17h-1.5V5.625h1.5Zm2.742,0V5.625h3.211a5.169,5.169,0,0,1,2.625.656,4.438,4.438,0,0,1,1.762,1.867,6.078,6.078,0,0,1,.629,2.781v.727a6.1,6.1,0,0,1-.621,2.82,4.369,4.369,0,0,1-1.773,1.859A5.5,5.5,0,0,1,72.507,17Zm1.5-10.148v8.922h1.578a3.434,3.434,0,0,0,2.7-1.079,4.458,4.458,0,0,0,.965-3.073v-.665a4.529,4.529,0,0,0-.91-3.014,3.239,3.239,0,0,0-2.582-1.091Zm15.273,7.172H81.366L80.3,17H78.749L83.093,5.625h1.313L88.757,17H87.218ZM81.819,12.8h3.867l-1.937-5.32ZM90.288,17V5.625H93.5a5.169,5.169,0,0,1,2.625.656,4.438,4.438,0,0,1,1.762,1.867,6.078,6.078,0,0,1,.629,2.781v.727a6.1,6.1,0,0,1-.621,2.82,4.369,4.369,0,0,1-1.773,1.859A5.5,5.5,0,0,1,93.436,17Zm1.5-10.148v8.922h1.578a3.434,3.434,0,0,0,2.7-1.079,4.458,4.458,0,0,0,.965-3.073v-.665a4.529,4.529,0,0,0-.91-3.014,3.239,3.239,0,0,0-2.582-1.091Z" transform="translate(-3602.25 -1856.589)" fill="#12263f"/>
    <path id="Trazado_1055101" data-name="Trazado 1055101" d="M17.764,15.008l3.25-9.383h1.641L18.436,17H17.108L12.9,5.625H14.53Zm12.109-.984H25.108L24.038,17H22.491L26.835,5.625h1.313L32.5,17H30.96ZM25.561,12.8h3.867l-1.937-5.32Zm9.977,2.977h5.391V17h-6.9V5.625h1.508ZM50.882,11.68a7.037,7.037,0,0,1-.562,2.918,4.261,4.261,0,0,1-1.594,1.9,4.4,4.4,0,0,1-6.4-1.887,6.752,6.752,0,0,1-.59-2.832v-.82a6.953,6.953,0,0,1,.57-2.9,4.218,4.218,0,0,1,4-2.594,4.41,4.41,0,0,1,2.41.66,4.253,4.253,0,0,1,1.605,1.914,7.071,7.071,0,0,1,.563,2.918Zm-1.492-.734a5.1,5.1,0,0,0-.812-3.105A2.68,2.68,0,0,0,46.3,6.758,2.651,2.651,0,0,0,44.065,7.84a5,5,0,0,0-.84,3v.836a5.107,5.107,0,0,0,.824,3.082,2.888,2.888,0,0,0,4.52.063,5.079,5.079,0,0,0,.82-3.035ZM57.3,12.4H54.632V17H53.124V5.625h3.766a4.457,4.457,0,0,1,2.957.875,3.148,3.148,0,0,1,1.035,2.547,3.062,3.062,0,0,1-.574,1.852,3.428,3.428,0,0,1-1.6,1.18l2.672,4.828V17H59.772Zm-2.672-1.227h2.3a2.6,2.6,0,0,0,1.777-.579,1.959,1.959,0,0,0,.66-1.55,2.062,2.062,0,0,0-.629-1.62,2.663,2.663,0,0,0-1.816-.571h-2.3Zm-30.5,13.68H20.471V35H18.979V24.852H15.331V23.625h8.8ZM34.346,29.68a7.037,7.037,0,0,1-.562,2.918,4.261,4.261,0,0,1-1.594,1.9,4.4,4.4,0,0,1-6.4-1.887,6.752,6.752,0,0,1-.59-2.832v-.82a6.953,6.953,0,0,1,.57-2.9,4.218,4.218,0,0,1,4-2.594,4.41,4.41,0,0,1,2.41.66,4.253,4.253,0,0,1,1.605,1.914,7.071,7.071,0,0,1,.563,2.918Zm-1.492-.734a5.1,5.1,0,0,0-.812-3.105,2.68,2.68,0,0,0-2.273-1.082A2.651,2.651,0,0,0,27.53,25.84a5,5,0,0,0-.84,3v.836a5.107,5.107,0,0,0,.824,3.082,2.888,2.888,0,0,0,4.52.063,5.079,5.079,0,0,0,.82-3.035Zm11.391-4.094H40.589V35H39.1V24.852H35.448V23.625h8.8ZM51.6,32.023H46.831L45.76,35H44.214l4.344-11.375H49.87L54.221,35H52.682ZM47.284,30.8h3.867l-1.937-5.32Zm9.977,2.977h5.391V35h-6.9V23.625H57.26Z" transform="translate(-3459.445 -1865.179)" fill="#12263f"/>
    <path id="Trazado_1055120" data-name="Trazado 1055120" d="M17.764,15.008l3.25-9.383h1.641L18.436,17H17.108L12.9,5.625H14.53Zm12.109-.984H25.108L24.038,17H22.491L26.835,5.625h1.313L32.5,17H30.96ZM25.561,12.8h3.867l-1.937-5.32Zm9.977,2.977h5.391V17h-6.9V5.625h1.508ZM50.882,11.68a7.037,7.037,0,0,1-.562,2.918,4.261,4.261,0,0,1-1.594,1.9,4.4,4.4,0,0,1-6.4-1.887,6.752,6.752,0,0,1-.59-2.832v-.82a6.953,6.953,0,0,1,.57-2.9,4.218,4.218,0,0,1,4-2.594,4.41,4.41,0,0,1,2.41.66,4.253,4.253,0,0,1,1.605,1.914,7.071,7.071,0,0,1,.563,2.918Zm-1.492-.734a5.1,5.1,0,0,0-.812-3.105A2.68,2.68,0,0,0,46.3,6.758,2.651,2.651,0,0,0,44.065,7.84a5,5,0,0,0-.84,3v.836a5.107,5.107,0,0,0,.824,3.082,2.888,2.888,0,0,0,4.52.063,5.079,5.079,0,0,0,.82-3.035ZM57.3,12.4H54.632V17H53.124V5.625h3.766a4.457,4.457,0,0,1,2.957.875,3.148,3.148,0,0,1,1.035,2.547,3.062,3.062,0,0,1-.574,1.852,3.428,3.428,0,0,1-1.6,1.18l2.672,4.828V17H59.772Zm-2.672-1.227h2.3a2.6,2.6,0,0,0,1.777-.579,1.959,1.959,0,0,0,.66-1.55,2.062,2.062,0,0,0-.629-1.62,2.663,2.663,0,0,0-1.816-.571h-2.3Zm-30.5,13.68H20.471V35H18.979V24.852H15.331V23.625h8.8ZM34.346,29.68a7.037,7.037,0,0,1-.562,2.918,4.261,4.261,0,0,1-1.594,1.9,4.4,4.4,0,0,1-6.4-1.887,6.752,6.752,0,0,1-.59-2.832v-.82a6.953,6.953,0,0,1,.57-2.9,4.218,4.218,0,0,1,4-2.594,4.41,4.41,0,0,1,2.41.66,4.253,4.253,0,0,1,1.605,1.914,7.071,7.071,0,0,1,.563,2.918Zm-1.492-.734a5.1,5.1,0,0,0-.812-3.105,2.68,2.68,0,0,0-2.273-1.082A2.651,2.651,0,0,0,27.53,25.84a5,5,0,0,0-.84,3v.836a5.107,5.107,0,0,0,.824,3.082,2.888,2.888,0,0,0,4.52.063,5.079,5.079,0,0,0,.82-3.035Zm11.391-4.094H40.589V35H39.1V24.852H35.448V23.625h8.8ZM51.6,32.023H46.831L45.76,35H44.214l4.344-11.375H49.87L54.221,35H52.682ZM47.284,30.8h3.867l-1.937-5.32Zm9.977,2.977h5.391V35h-6.9V23.625H57.26Z" transform="translate(-3251.445 -1869.452)" fill="#12263f"/>
    <path id="Trazado_1055113" data-name="Trazado 1055113" d="M13.984,13.391a4.185,4.185,0,0,1-1.332,2.785,4.365,4.365,0,0,1-2.98.98,4.008,4.008,0,0,1-3.23-1.445,5.815,5.815,0,0,1-1.215-3.867V10.75a6.481,6.481,0,0,1,.566-2.789A4.231,4.231,0,0,1,7.4,6.113,4.47,4.47,0,0,1,9.8,5.469,4.11,4.11,0,0,1,12.71,6.48a4.235,4.235,0,0,1,1.273,2.8H12.476a3.268,3.268,0,0,0-.848-1.975A2.565,2.565,0,0,0,9.8,6.7,2.684,2.684,0,0,0,7.55,7.759a4.882,4.882,0,0,0-.816,3.026v1.1a5.018,5.018,0,0,0,.773,2.948A2.5,2.5,0,0,0,9.671,15.93a2.886,2.886,0,0,0,1.918-.566,3.143,3.143,0,0,0,.887-1.973Zm8.328.633H17.546L16.476,17H14.929L19.273,5.625h1.313L24.937,17H23.4ZM18,12.8h3.867l-1.937-5.32ZM35.21,17H33.7L27.976,8.234V17H26.468V5.625h1.508l5.742,8.8v-8.8H35.21ZM45.734,6.852H42.078V17H40.585V6.852H36.937V5.625h8.8ZM49.031,17h-1.5V5.625h1.5Zm2.742,0V5.625h3.211a5.169,5.169,0,0,1,2.625.656A4.438,4.438,0,0,1,59.37,8.148,6.078,6.078,0,0,1,60,10.93v.727a6.1,6.1,0,0,1-.621,2.82A4.369,4.369,0,0,1,57.6,16.336,5.5,5.5,0,0,1,54.921,17Zm1.5-10.148v8.922h1.578a3.434,3.434,0,0,0,2.7-1.079,4.458,4.458,0,0,0,.965-3.073v-.665a4.529,4.529,0,0,0-.91-3.014,3.239,3.239,0,0,0-2.582-1.091Zm15.273,7.172H63.781L62.71,17H61.163L65.507,5.625H66.82L71.171,17H69.632ZM64.234,12.8H68.1l-1.937-5.32ZM72.7,17V5.625h3.211a5.169,5.169,0,0,1,2.625.656A4.438,4.438,0,0,1,80.3,8.148a6.078,6.078,0,0,1,.629,2.781v.727a6.1,6.1,0,0,1-.621,2.82,4.369,4.369,0,0,1-1.773,1.859A5.5,5.5,0,0,1,75.851,17ZM74.2,6.852v8.922h1.578a3.434,3.434,0,0,0,2.7-1.079,4.458,4.458,0,0,0,.965-3.073v-.665a4.529,4.529,0,0,0-.91-3.014,3.239,3.239,0,0,0-2.582-1.091Z" transform="translate(-3353.957 -1862.679)" fill="#12263f"/>
    <path id="Trazado_1055086" data-name="Trazado 1055086" d="M1.32,17V5.625H4.531a5.169,5.169,0,0,1,2.625.656A4.438,4.438,0,0,1,8.918,8.148a6.078,6.078,0,0,1,.629,2.781v.727a6.1,6.1,0,0,1-.621,2.82,4.369,4.369,0,0,1-1.773,1.859A5.5,5.5,0,0,1,4.469,17ZM2.82,6.852v8.922H4.4a3.434,3.434,0,0,0,2.7-1.079,4.458,4.458,0,0,0,.965-3.073v-.665a4.529,4.529,0,0,0-.91-3.014A3.239,3.239,0,0,0,4.57,6.852ZM13.422,17h-1.5V5.625h1.5Zm6.094-5.07a7.053,7.053,0,0,1-2.809-1.363,2.6,2.6,0,0,1-.879-2A2.751,2.751,0,0,1,16.9,6.348,4.269,4.269,0,0,1,19.7,5.469a4.66,4.66,0,0,1,2.09.453,3.436,3.436,0,0,1,1.422,1.25,3.2,3.2,0,0,1,.5,1.742H22.2a2.08,2.08,0,0,0-.656-1.627A2.669,2.669,0,0,0,19.7,6.7a2.732,2.732,0,0,0-1.73.489,1.632,1.632,0,0,0-.621,1.358,1.468,1.468,0,0,0,.59,1.178,5.785,5.785,0,0,0,2.008.88,9.316,9.316,0,0,1,2.219.88A3.367,3.367,0,0,1,23.348,12.6a2.861,2.861,0,0,1,.387,1.508,2.658,2.658,0,0,1-1.078,2.215,4.6,4.6,0,0,1-2.883.832,5.347,5.347,0,0,1-2.187-.449,3.681,3.681,0,0,1-1.566-1.23,3,3,0,0,1-.551-1.773h1.508a1.959,1.959,0,0,0,.762,1.629,3.207,3.207,0,0,0,2.035.6,2.948,2.948,0,0,0,1.82-.484,1.573,1.573,0,0,0,.633-1.32,1.545,1.545,0,0,0-.586-1.293A6.755,6.755,0,0,0,19.516,11.93Zm14-5.078H29.859V17H28.367V6.852H24.719V5.625h8.8ZM39.375,12.4H36.7V17H35.2V5.625h3.766a4.457,4.457,0,0,1,2.957.875,3.148,3.148,0,0,1,1.035,2.547,3.062,3.062,0,0,1-.574,1.852,3.428,3.428,0,0,1-1.6,1.18l2.672,4.828V17H41.844ZM36.7,11.172h2.3a2.6,2.6,0,0,0,1.777-.579,1.959,1.959,0,0,0,.66-1.55,2.062,2.062,0,0,0-.629-1.62A2.663,2.663,0,0,0,39,6.852H36.7ZM46.664,17h-1.5V5.625h1.5Zm2.742,0V5.625h3.719a4.317,4.317,0,0,1,2.785.766,2.759,2.759,0,0,1,.934,2.266,2.31,2.31,0,0,1-.453,1.41,2.937,2.937,0,0,1-1.234.949,2.638,2.638,0,0,1,1.457.98,2.814,2.814,0,0,1,.535,1.723,3.042,3.042,0,0,1-.992,2.406,4.1,4.1,0,0,1-2.8.875Zm1.5-5.32v4.094h2.477a2.385,2.385,0,0,0,1.652-.543,1.907,1.907,0,0,0,.605-1.5q0-2.055-2.234-2.055Zm0-1.2h2.266a2.375,2.375,0,0,0,1.574-.493,1.654,1.654,0,0,0,.59-1.339,1.626,1.626,0,0,0-.547-1.366,2.686,2.686,0,0,0-1.664-.427H50.906ZM67.375,5.625v7.734a3.628,3.628,0,0,1-1.012,2.633,4.077,4.077,0,0,1-2.723,1.148l-.4.016a4.258,4.258,0,0,1-2.977-1.008,3.6,3.6,0,0,1-1.125-2.773V5.625h1.484v7.7a2.6,2.6,0,0,0,.68,1.918,3.111,3.111,0,0,0,3.887,0,2.6,2.6,0,0,0,.676-1.914V5.625ZM71.352,17h-1.5V5.625h1.5Zm2.742,0V5.625H77.3a5.169,5.169,0,0,1,2.625.656,4.438,4.438,0,0,1,1.762,1.867,6.078,6.078,0,0,1,.629,2.781v.727a6.1,6.1,0,0,1-.621,2.82,4.369,4.369,0,0,1-1.773,1.859A5.5,5.5,0,0,1,77.242,17Zm1.5-10.148v8.922h1.578a3.434,3.434,0,0,0,2.7-1.079,4.458,4.458,0,0,0,.965-3.073v-.665a4.529,4.529,0,0,0-.91-3.014,3.239,3.239,0,0,0-2.582-1.091ZM93.336,11.68a7.037,7.037,0,0,1-.562,2.918,4.261,4.261,0,0,1-1.594,1.9,4.4,4.4,0,0,1-6.4-1.887,6.752,6.752,0,0,1-.59-2.832v-.82a6.953,6.953,0,0,1,.57-2.9,4.218,4.218,0,0,1,4-2.594,4.41,4.41,0,0,1,2.41.66,4.253,4.253,0,0,1,1.605,1.914,7.071,7.071,0,0,1,.563,2.918Zm-1.492-.734a5.1,5.1,0,0,0-.812-3.105,2.68,2.68,0,0,0-2.273-1.082A2.651,2.651,0,0,0,86.52,7.84a5,5,0,0,0-.84,3v.836a5.107,5.107,0,0,0,.824,3.082,2.888,2.888,0,0,0,4.52.063,5.079,5.079,0,0,0,.82-3.035ZM99.758,12.4H97.086V17H95.578V5.625h3.766A4.457,4.457,0,0,1,102.3,6.5a3.148,3.148,0,0,1,1.035,2.547,3.062,3.062,0,0,1-.574,1.852,3.428,3.428,0,0,1-1.6,1.18l2.672,4.828V17h-1.609Zm-2.672-1.227h2.3a2.6,2.6,0,0,0,1.777-.579,1.959,1.959,0,0,0,.66-1.55,2.062,2.062,0,0,0-.629-1.62,2.663,2.663,0,0,0-1.816-.571h-2.3Zm14.633,2.852h-4.766L105.883,17h-1.547L108.68,5.625h1.313L114.344,17H112.8ZM107.406,12.8h3.867l-1.937-5.32Zm19.977-5.945h-3.656V17h-1.492V6.852h-3.648V5.625h8.8ZM137.6,11.68a7.037,7.037,0,0,1-.562,2.918,4.261,4.261,0,0,1-1.594,1.9,4.4,4.4,0,0,1-6.4-1.887,6.752,6.752,0,0,1-.59-2.832v-.82a6.953,6.953,0,0,1,.57-2.9,4.218,4.218,0,0,1,4-2.594,4.41,4.41,0,0,1,2.41.66,4.253,4.253,0,0,1,1.605,1.914,7.071,7.071,0,0,1,.563,2.918Zm-1.492-.734A5.1,5.1,0,0,0,135.3,7.84a2.68,2.68,0,0,0-2.273-1.082,2.651,2.651,0,0,0-2.238,1.082,5,5,0,0,0-.84,3v.836a5.107,5.107,0,0,0,.824,3.082,2.888,2.888,0,0,0,4.52.063,5.079,5.079,0,0,0,.82-3.035ZM147.5,6.852h-3.656V17h-1.492V6.852H138.7V5.625h8.8Zm7.352,7.172h-4.766L149.016,17h-1.547l4.344-11.375h1.313L157.477,17h-1.539ZM150.539,12.8h3.867l-1.937-5.32Zm9.977,2.977h5.391V17h-6.9V5.625h1.508Zm12.57,0h5.391V17h-6.9V5.625h1.508ZM185.9,6.852h-3.656V17H180.75V6.852H177.1V5.625h8.8ZM187.586,17V5.625H190.8a5.169,5.169,0,0,1,2.625.656,4.438,4.438,0,0,1,1.762,1.867,6.077,6.077,0,0,1,.629,2.781v.727a6.1,6.1,0,0,1-.621,2.82,4.369,4.369,0,0,1-1.773,1.859,5.5,5.5,0,0,1-2.684.664Zm1.5-10.148v8.922h1.578a3.434,3.434,0,0,0,2.7-1.079,4.458,4.458,0,0,0,.965-3.073v-.665a4.529,4.529,0,0,0-.91-3.014,3.239,3.239,0,0,0-2.582-1.091Zm15.273,7.172h-4.766L198.523,17h-1.547L201.32,5.625h1.313L206.984,17h-1.539ZM200.047,12.8h3.867l-1.937-5.32Z" transform="translate(-3704.274 -1960.315)" fill="#12263f"/>
    <path id="Trazado_1055092" data-name="Trazado 1055092" d="M7.75,11.742H2.82v4.031H8.547V17H1.32V5.625H8.469V6.852H2.82v3.664H7.75ZM19.156,17H17.648L11.922,8.234V17H10.414V5.625h1.508l5.742,8.8v-8.8h1.492ZM29.68,6.852H26.023V17H24.531V6.852H20.883V5.625h8.8ZM35.539,12.4H32.867V17H31.359V5.625h3.766a4.457,4.457,0,0,1,2.957.875,3.148,3.148,0,0,1,1.035,2.547,3.062,3.062,0,0,1-.574,1.852,3.428,3.428,0,0,1-1.6,1.18l2.672,4.828V17H38.008Zm-2.672-1.227h2.3a2.6,2.6,0,0,0,1.777-.579,1.959,1.959,0,0,0,.66-1.55,2.062,2.062,0,0,0-.629-1.62,2.663,2.663,0,0,0-1.816-.571h-2.3ZM47.5,14.023H42.734L41.664,17H40.117L44.461,5.625h1.313L50.125,17H48.586ZM43.188,12.8h3.867l-1.937-5.32ZM51.656,17V5.625h3.211a5.169,5.169,0,0,1,2.625.656,4.438,4.438,0,0,1,1.762,1.867,6.078,6.078,0,0,1,.629,2.781v.727a6.1,6.1,0,0,1-.621,2.82,4.369,4.369,0,0,1-1.773,1.859A5.5,5.5,0,0,1,54.8,17Zm1.5-10.148v8.922h1.578a3.434,3.434,0,0,0,2.7-1.079,4.458,4.458,0,0,0,.965-3.073v-.665a4.529,4.529,0,0,0-.91-3.014,3.239,3.239,0,0,0-2.582-1.091ZM68.43,14.023H63.664L62.594,17H61.047L65.391,5.625H66.7L71.055,17H69.516ZM64.117,12.8h3.867l-1.937-5.32Z" transform="translate(-3521.591 -1906.815)" fill="#12263f"/>
    <path id="Trazado_1055114" data-name="Trazado 1055114" d="M4.672,11.93a7.053,7.053,0,0,1-2.809-1.363,2.6,2.6,0,0,1-.879-2A2.751,2.751,0,0,1,2.059,6.348a4.269,4.269,0,0,1,2.793-.879,4.66,4.66,0,0,1,2.09.453,3.436,3.436,0,0,1,1.422,1.25,3.2,3.2,0,0,1,.5,1.742H7.359A2.08,2.08,0,0,0,6.7,7.287,2.669,2.669,0,0,0,4.852,6.7a2.732,2.732,0,0,0-1.73.489A1.632,1.632,0,0,0,2.5,8.542,1.468,1.468,0,0,0,3.09,9.72,5.785,5.785,0,0,0,5.1,10.6a9.316,9.316,0,0,1,2.219.88A3.367,3.367,0,0,1,8.5,12.6a2.861,2.861,0,0,1,.387,1.508,2.658,2.658,0,0,1-1.078,2.215,4.6,4.6,0,0,1-2.883.832,5.347,5.347,0,0,1-2.187-.449,3.681,3.681,0,0,1-1.566-1.23A3,3,0,0,1,.625,13.7H2.133a1.959,1.959,0,0,0,.762,1.629,3.207,3.207,0,0,0,2.035.6,2.948,2.948,0,0,0,1.82-.484,1.573,1.573,0,0,0,.633-1.32A1.545,1.545,0,0,0,6.8,12.832,6.755,6.755,0,0,0,4.672,11.93Zm12.422,2.094H12.328L11.258,17H9.711L14.055,5.625h1.313L19.719,17H18.18ZM12.781,12.8h3.867l-1.937-5.32Zm9.977,2.977h5.391V17h-6.9V5.625h1.508ZM31.469,17h-1.5V5.625h1.5Zm2.742,0V5.625h3.211a5.169,5.169,0,0,1,2.625.656,4.438,4.438,0,0,1,1.762,1.867,6.078,6.078,0,0,1,.629,2.781v.727a6.1,6.1,0,0,1-.621,2.82,4.369,4.369,0,0,1-1.773,1.859A5.5,5.5,0,0,1,37.359,17Zm1.5-10.148v8.922h1.578a3.434,3.434,0,0,0,2.7-1.079,4.458,4.458,0,0,0,.965-3.073v-.665a4.529,4.529,0,0,0-.91-3.014,3.239,3.239,0,0,0-2.582-1.091Zm15.273,7.172H46.219L45.148,17H43.6L47.945,5.625h1.313L53.609,17H52.07ZM46.672,12.8h3.867L48.6,7.477Z" transform="translate(-3304.481 -1906.815)" fill="#12263f"/>
    <path id="Trazado_1055084" data-name="Trazado 1055084" d="M1.609-5.7l.578-5.672H8.016v1.336h-4.6l-.344,3.1a3.671,3.671,0,0,1,1.9-.492A3.138,3.138,0,0,1,7.438-6.4a4.026,4.026,0,0,1,.914,2.777A3.886,3.886,0,0,1,7.4-.855,3.46,3.46,0,0,1,4.75.156,3.6,3.6,0,0,1,2.289-.68,3.337,3.337,0,0,1,1.2-2.992H2.57a2.3,2.3,0,0,0,.7,1.473,2.162,2.162,0,0,0,1.484.5,1.95,1.95,0,0,0,1.582-.687,2.874,2.874,0,0,0,.574-1.9,2.638,2.638,0,0,0-.621-1.832,2.113,2.113,0,0,0-1.652-.691,2.383,2.383,0,0,0-1.484.414l-.383.313Zm8.984,0,.578-5.672H17v1.336H12.4l-.344,3.1a3.671,3.671,0,0,1,1.9-.492A3.138,3.138,0,0,1,16.422-6.4a4.026,4.026,0,0,1,.914,2.777,3.886,3.886,0,0,1-.949,2.77A3.46,3.46,0,0,1,13.734.156,3.6,3.6,0,0,1,11.273-.68a3.337,3.337,0,0,1-1.086-2.312h1.367a2.3,2.3,0,0,0,.7,1.473,2.162,2.162,0,0,0,1.484.5,1.95,1.95,0,0,0,1.582-.687,2.874,2.874,0,0,0,.574-1.9,2.638,2.638,0,0,0-.621-1.832,2.113,2.113,0,0,0-1.652-.691,2.383,2.383,0,0,0-1.484.414l-.383.313Zm13.992-5.68v1.227H24.32a3.805,3.805,0,0,0-2.687,1A4.161,4.161,0,0,0,20.477-6.43,3.085,3.085,0,0,1,22.93-7.461,2.95,2.95,0,0,1,25.3-6.414a4.038,4.038,0,0,1,.887,2.7A4.025,4.025,0,0,1,25.23-.9,3.3,3.3,0,0,1,22.664.156,3.247,3.247,0,0,1,20.016-1.1,4.97,4.97,0,0,1,19-4.328v-.555a7.488,7.488,0,0,1,1.34-4.8,4.921,4.921,0,0,1,3.988-1.7Zm-1.9,5.125a2.306,2.306,0,0,0-1.367.445A2.32,2.32,0,0,0,20.453-4.7v.531A3.731,3.731,0,0,0,21.086-1.9a1.9,1.9,0,0,0,1.578.859A1.838,1.838,0,0,0,24.2-1.758a2.982,2.982,0,0,0,.559-1.883,2.983,2.983,0,0,0-.566-1.895A1.816,1.816,0,0,0,22.688-6.258ZM33.57-11.383v1.227H33.3a3.805,3.805,0,0,0-2.687,1A4.161,4.161,0,0,0,29.461-6.43a3.085,3.085,0,0,1,2.453-1.031,2.95,2.95,0,0,1,2.371,1.047,4.038,4.038,0,0,1,.887,2.7A4.025,4.025,0,0,1,34.215-.9,3.3,3.3,0,0,1,31.648.156,3.247,3.247,0,0,1,29-1.1a4.97,4.97,0,0,1-1.016-3.23v-.555a7.488,7.488,0,0,1,1.34-4.8,4.921,4.921,0,0,1,3.988-1.7Zm-1.9,5.125a2.306,2.306,0,0,0-1.367.445A2.32,2.32,0,0,0,29.438-4.7v.531A3.731,3.731,0,0,0,30.07-1.9a1.9,1.9,0,0,0,1.578.859,1.838,1.838,0,0,0,1.535-.719,2.982,2.982,0,0,0,.559-1.883,2.983,2.983,0,0,0-.566-1.895A1.816,1.816,0,0,0,31.672-6.258Z" transform="translate(-3698.592 -2025.315)" fill="#12263f"/>
    <path id="Trazado_1055088" data-name="Trazado 1055088" d="M2.82-4.453V0H1.32V-11.375h4.2a4.215,4.215,0,0,1,2.926.953A3.231,3.231,0,0,1,9.5-7.9,3.189,3.189,0,0,1,8.465-5.348,4.4,4.4,0,0,1,5.5-4.453Zm0-1.227h2.7a2.7,2.7,0,0,0,1.844-.567A2.075,2.075,0,0,0,8-7.887a2.143,2.143,0,0,0-.641-1.628A2.525,2.525,0,0,0,5.6-10.148H2.82ZM15.586-4.6H12.914V0H11.406V-11.375h3.766a4.457,4.457,0,0,1,2.957.875,3.148,3.148,0,0,1,1.035,2.547A3.062,3.062,0,0,1,18.59-6.1a3.428,3.428,0,0,1-1.6,1.18L19.664-.094V0H18.055ZM12.914-5.828h2.3A2.6,2.6,0,0,0,17-6.407a1.959,1.959,0,0,0,.66-1.55,2.062,2.062,0,0,0-.629-1.62,2.663,2.663,0,0,0-1.816-.571h-2.3Zm17.1.508A7.037,7.037,0,0,1,29.453-2.4,4.261,4.261,0,0,1,27.859-.5a4.385,4.385,0,0,1-2.406.656A4.347,4.347,0,0,1,23.07-.5a4.363,4.363,0,0,1-1.613-1.883,6.752,6.752,0,0,1-.59-2.832v-.82a6.953,6.953,0,0,1,.57-2.9,4.347,4.347,0,0,1,1.613-1.926,4.329,4.329,0,0,1,2.387-.668,4.41,4.41,0,0,1,2.41.66,4.253,4.253,0,0,1,1.605,1.914,7.071,7.071,0,0,1,.563,2.918Zm-1.492-.734a5.1,5.1,0,0,0-.812-3.105,2.68,2.68,0,0,0-2.273-1.082A2.651,2.651,0,0,0,23.2-9.16a5,5,0,0,0-.84,3v.836a5.107,5.107,0,0,0,.824,3.082,2.662,2.662,0,0,0,2.27,1.121A2.652,2.652,0,0,0,27.7-2.176a5.079,5.079,0,0,0,.82-3.035ZM32.266,0V-11.375h3.211a5.169,5.169,0,0,1,2.625.656,4.438,4.438,0,0,1,1.762,1.867,6.078,6.078,0,0,1,.629,2.781v.727a6.1,6.1,0,0,1-.621,2.82A4.369,4.369,0,0,1,38.1-.664,5.5,5.5,0,0,1,35.414,0Zm1.5-10.148v8.922h1.578a3.434,3.434,0,0,0,2.7-1.079,4.458,4.458,0,0,0,.965-3.073v-.665a4.529,4.529,0,0,0-.91-3.014,3.239,3.239,0,0,0-2.582-1.091Zm17-1.227v7.734a3.628,3.628,0,0,1-1.012,2.633A4.077,4.077,0,0,1,47.031.141l-.4.016A4.258,4.258,0,0,1,43.656-.852a3.6,3.6,0,0,1-1.125-2.773v-7.75h1.484v7.7a2.6,2.6,0,0,0,.68,1.918,2.612,2.612,0,0,0,1.938.684,2.63,2.63,0,0,0,1.949-.68,2.6,2.6,0,0,0,.676-1.914v-7.711ZM61.5-3.609A4.185,4.185,0,0,1,60.168-.824a4.365,4.365,0,0,1-2.98.98,4.008,4.008,0,0,1-3.23-1.445,5.815,5.815,0,0,1-1.215-3.867V-6.25a6.481,6.481,0,0,1,.566-2.789,4.231,4.231,0,0,1,1.605-1.848,4.47,4.47,0,0,1,2.406-.645,4.11,4.11,0,0,1,2.906,1.012,4.235,4.235,0,0,1,1.273,2.8H59.992a3.268,3.268,0,0,0-.848-1.975A2.565,2.565,0,0,0,57.32-10.3a2.684,2.684,0,0,0-2.254,1.063,4.882,4.882,0,0,0-.816,3.026v1.1a5.018,5.018,0,0,0,.773,2.948A2.5,2.5,0,0,0,57.188-1.07a2.887,2.887,0,0,0,1.918-.566,3.143,3.143,0,0,0,.887-1.973Zm9.68-6.539H67.523V0H66.031V-10.148H62.383v-1.227h8.8ZM81.4-5.32A7.037,7.037,0,0,1,80.836-2.4,4.261,4.261,0,0,1,79.242-.5a4.385,4.385,0,0,1-2.406.656A4.347,4.347,0,0,1,74.453-.5,4.363,4.363,0,0,1,72.84-2.387a6.752,6.752,0,0,1-.59-2.832v-.82a6.953,6.953,0,0,1,.57-2.9,4.347,4.347,0,0,1,1.613-1.926,4.329,4.329,0,0,1,2.387-.668,4.41,4.41,0,0,1,2.41.66,4.253,4.253,0,0,1,1.605,1.914A7.071,7.071,0,0,1,81.4-6.039Zm-1.492-.734a5.1,5.1,0,0,0-.812-3.105,2.68,2.68,0,0,0-2.273-1.082A2.651,2.651,0,0,0,74.582-9.16a5,5,0,0,0-.84,3v.836a5.107,5.107,0,0,0,.824,3.082,2.662,2.662,0,0,0,2.27,1.121,2.652,2.652,0,0,0,2.25-1.059,5.079,5.079,0,0,0,.82-3.035Z" transform="translate(-3584.274 -2025.315)" fill="#12263f"/>
    <path id="Trazado_1055094" data-name="Trazado 1055094" d="M-20.66,0h-1.508V-5.258H-27.9V0h-1.5V-11.375h1.5v4.891h5.734v-4.891h1.508ZM-9.988-11.375v7.734A3.628,3.628,0,0,1-11-1.008,4.077,4.077,0,0,1-13.723.141l-.4.016A4.258,4.258,0,0,1-17.1-.852a3.6,3.6,0,0,1-1.125-2.773v-7.75h1.484v7.7a2.6,2.6,0,0,0,.68,1.918,2.612,2.612,0,0,0,1.938.684,2.63,2.63,0,0,0,1.949-.68A2.6,2.6,0,0,0-11.5-3.664v-7.711Zm8.8,6.117h-4.93v4.031H-.395V0H-7.621V-11.375H-.473v1.227H-6.121v3.664h4.93Zm6.43,3.266,3.25-9.383h1.641L5.91,0H4.582L.371-11.375H2ZM20.3-5.32A7.037,7.037,0,0,1,19.738-2.4,4.261,4.261,0,0,1,18.145-.5a4.385,4.385,0,0,1-2.406.656A4.347,4.347,0,0,1,13.355-.5a4.363,4.363,0,0,1-1.613-1.883,6.752,6.752,0,0,1-.59-2.832v-.82a6.953,6.953,0,0,1,.57-2.9,4.347,4.347,0,0,1,1.613-1.926,4.329,4.329,0,0,1,2.387-.668,4.41,4.41,0,0,1,2.41.66,4.253,4.253,0,0,1,1.605,1.914A7.071,7.071,0,0,1,20.3-6.039Zm-1.492-.734A5.1,5.1,0,0,0,18-9.16a2.68,2.68,0,0,0-2.273-1.082A2.651,2.651,0,0,0,13.484-9.16a5,5,0,0,0-.84,3v.836a5.107,5.107,0,0,0,.824,3.082,2.662,2.662,0,0,0,2.27,1.121,2.652,2.652,0,0,0,2.25-1.059,5.079,5.079,0,0,0,.82-3.035ZM25.9-5.07a7.053,7.053,0,0,1-2.809-1.363,2.6,2.6,0,0,1-.879-2,2.751,2.751,0,0,1,1.074-2.223,4.269,4.269,0,0,1,2.793-.879,4.66,4.66,0,0,1,2.09.453,3.436,3.436,0,0,1,1.422,1.25,3.2,3.2,0,0,1,.5,1.742H28.59a2.08,2.08,0,0,0-.656-1.627,2.669,2.669,0,0,0-1.852-.592,2.732,2.732,0,0,0-1.73.489,1.632,1.632,0,0,0-.621,1.358,1.468,1.468,0,0,0,.59,1.178,5.785,5.785,0,0,0,2.008.88,9.316,9.316,0,0,1,2.219.88A3.367,3.367,0,0,1,29.734-4.4a2.861,2.861,0,0,1,.387,1.508A2.658,2.658,0,0,1,29.043-.676,4.6,4.6,0,0,1,26.16.156a5.347,5.347,0,0,1-2.187-.449,3.681,3.681,0,0,1-1.566-1.23A3,3,0,0,1,21.855-3.3h1.508a1.959,1.959,0,0,0,.762,1.629,3.207,3.207,0,0,0,2.035.6,2.948,2.948,0,0,0,1.82-.484,1.573,1.573,0,0,0,.633-1.32,1.545,1.545,0,0,0-.586-1.293A6.755,6.755,0,0,0,25.9-5.07ZM-5.855,12.68A7.037,7.037,0,0,1-6.418,15.6a4.261,4.261,0,0,1-1.594,1.9,4.385,4.385,0,0,1-2.406.656A4.348,4.348,0,0,1-12.8,17.5a4.363,4.363,0,0,1-1.613-1.883A6.752,6.752,0,0,1-15,12.781v-.82a6.953,6.953,0,0,1,.57-2.9A4.347,4.347,0,0,1-12.82,7.137a4.329,4.329,0,0,1,2.387-.668,4.41,4.41,0,0,1,2.41.66A4.253,4.253,0,0,1-6.418,9.043a7.071,7.071,0,0,1,.563,2.918Zm-1.492-.734A5.1,5.1,0,0,0-8.16,8.84a2.68,2.68,0,0,0-2.273-1.082A2.651,2.651,0,0,0-12.672,8.84a5,5,0,0,0-.84,3v.836a5.107,5.107,0,0,0,.824,3.082,2.662,2.662,0,0,0,2.27,1.121,2.652,2.652,0,0,0,2.25-1.059,5.079,5.079,0,0,0,.82-3.035ZM.566,13.4H-2.105V18H-3.613V6.625H.152A4.457,4.457,0,0,1,3.109,7.5a3.148,3.148,0,0,1,1.035,2.547A3.062,3.062,0,0,1,3.57,11.9a3.428,3.428,0,0,1-1.6,1.18l2.672,4.828V18H3.035Zm-2.672-1.227H.2a2.6,2.6,0,0,0,1.777-.579,1.959,1.959,0,0,0,.66-1.55,2.062,2.062,0,0,0-.629-1.62A2.663,2.663,0,0,0,.191,7.852h-2.3ZM15,12.68a7.037,7.037,0,0,1-.562,2.918,4.261,4.261,0,0,1-1.594,1.9,4.385,4.385,0,0,1-2.406.656,4.244,4.244,0,0,1-4-2.543,6.752,6.752,0,0,1-.59-2.832v-.82a6.953,6.953,0,0,1,.57-2.9,4.218,4.218,0,0,1,4-2.594,4.41,4.41,0,0,1,2.41.66,4.253,4.253,0,0,1,1.605,1.914A7.071,7.071,0,0,1,15,11.961ZM13.5,11.945a5.1,5.1,0,0,0-.812-3.105,2.68,2.68,0,0,0-2.273-1.082A2.651,2.651,0,0,0,8.18,8.84a5,5,0,0,0-.84,3v.836a5.107,5.107,0,0,0,.824,3.082,2.662,2.662,0,0,0,2.27,1.121,2.652,2.652,0,0,0,2.25-1.059,5.079,5.079,0,0,0,.82-3.035Z" transform="translate(-3422.274 -2031.465)" fill="#12263f"/>
    <path id="Trazado_1055121" data-name="Trazado 1055121" d="M-29.1-3.609A4.185,4.185,0,0,1-30.434-.824a4.365,4.365,0,0,1-2.98.98,4.008,4.008,0,0,1-3.23-1.445,5.815,5.815,0,0,1-1.215-3.867V-6.25a6.481,6.481,0,0,1,.566-2.789,4.231,4.231,0,0,1,1.605-1.848,4.47,4.47,0,0,1,2.406-.645,4.11,4.11,0,0,1,2.906,1.012,4.235,4.235,0,0,1,1.273,2.8h-1.508a3.268,3.268,0,0,0-.848-1.975,2.565,2.565,0,0,0-1.824-.611,2.684,2.684,0,0,0-2.254,1.063,4.882,4.882,0,0,0-.816,3.026v1.1a5.018,5.018,0,0,0,.773,2.948A2.5,2.5,0,0,0-33.414-1.07,2.887,2.887,0,0,0-31.5-1.637a3.143,3.143,0,0,0,.887-1.973Zm8.328.633h-4.766L-26.609,0h-1.547l4.344-11.375H-22.5L-18.148,0h-1.539ZM-25.086-4.2h3.867l-1.937-5.32ZM-7.875,0H-9.383l-5.727-8.766V0h-1.508V-11.375h1.508l5.742,8.8v-8.8h1.492ZM2.648-10.148H-1.008V0H-2.5V-10.148H-6.148v-1.227h8.8ZM5.945,0h-1.5V-11.375h1.5ZM8.688,0V-11.375H11.9a5.169,5.169,0,0,1,2.625.656,4.438,4.438,0,0,1,1.762,1.867,6.078,6.078,0,0,1,.629,2.781v.727a6.1,6.1,0,0,1-.621,2.82A4.369,4.369,0,0,1,14.52-.664,5.5,5.5,0,0,1,11.836,0Zm1.5-10.148v8.922h1.578a3.434,3.434,0,0,0,2.7-1.079,4.458,4.458,0,0,0,.965-3.073v-.665a4.529,4.529,0,0,0-.91-3.014,3.239,3.239,0,0,0-2.582-1.091ZM25.461-2.977H20.7L19.625,0H18.078l4.344-11.375h1.313L28.086,0H26.547ZM21.148-4.2h3.867l-1.937-5.32ZM29.617,0V-11.375h3.211a5.169,5.169,0,0,1,2.625.656,4.438,4.438,0,0,1,1.762,1.867,6.078,6.078,0,0,1,.629,2.781v.727a6.1,6.1,0,0,1-.621,2.82A4.369,4.369,0,0,1,35.449-.664,5.5,5.5,0,0,1,32.766,0Zm1.5-10.148v8.922H32.7a3.434,3.434,0,0,0,2.7-1.079,4.458,4.458,0,0,0,.965-3.073v-.665a4.529,4.529,0,0,0-.91-3.014,3.239,3.239,0,0,0-2.582-1.091ZM-27.965,6.625l3.719,9.281,3.719-9.281h1.945V18h-1.5V13.57l.141-4.781L-23.676,18h-1.148l-3.727-9.187.148,4.758V18h-1.5V6.625ZM-14.324,18h-1.5V6.625h1.5Zm-.047-14.516h1.75l-2.094,2.3-1.164,0ZM-2.84,18H-4.348l-5.727-8.766V18h-1.508V6.625h1.508l5.742,8.8v-8.8H-2.84Zm4.273,0h-1.5V6.625h1.5ZM6.113,6.625l3.719,9.281,3.719-9.281H15.5V18H14V13.57l.141-4.781L10.4,18H9.254L5.527,8.813l.148,4.758V18h-1.5V6.625Zm18.313,8.4H19.66L18.59,18H17.043L21.387,6.625H22.7L27.051,18H25.512ZM20.113,13.8H23.98l-1.937-5.32Z" transform="translate(-3208.25 -2028.315)" fill="#12263f"/>
    <g id="Trazado_1055078" data-name="Trazado 1055078" transform="translate(-3910.092 -2046.465)" fill="#fff">
      <path d="M 768.03759765625 418.97998046875 L 0.4999988377094269 418.97998046875 L 0.4999988377094269 0.4999902248382568 L 768.03759765625 0.4999902248382568 L 768.03759765625 418.97998046875 Z" stroke="none"/>
      <path d="M 1 1 L 1 418.47998046875 L 767.53759765625 418.47998046875 L 767.53759765625 1 L 1 1 M 0 0 L 768.53759765625 0 L 768.53759765625 419.47998046875 L 0 419.47998046875 L 0 0 Z" stroke="none" fill="#e1e1e1"/>
    </g>
    <path id="Trazado_1055081" data-name="Trazado 1055081" d="M768.5,0H0" transform="translate(-3910.092 -1988.315)" fill="none" stroke="#e1e1e1" stroke-width="1"/>
    <path id="Trazado_1055108" data-name="Trazado 1055108" d="M768.5,0H0" transform="translate(-3910.092 -1833.589)" fill="none" stroke="#e1e1e1" stroke-width="1"/>
    <path id="Trazado_1055095" data-name="Trazado 1055095" d="M19.206,12.836H17.339V17H14.995V5.625h4.227a4.778,4.778,0,0,1,3.109.9,3.1,3.1,0,0,1,1.094,2.539,3.5,3.5,0,0,1-.5,1.941,3.437,3.437,0,0,1-1.527,1.238l2.461,4.648V17H21.339Zm-1.867-1.9h1.891a1.936,1.936,0,0,0,1.367-.449,1.606,1.606,0,0,0,.484-1.238,1.719,1.719,0,0,0-.457-1.266,1.9,1.9,0,0,0-1.4-.461H17.339ZM32.05,12.07h-4.5v3.047h5.281V17H25.206V5.625h7.609v1.9H27.55v2.711h4.5Zm9,.281h-4.5V17H34.206V5.625h7.406v1.9H36.55v2.938h4.5Zm8.766-.281h-4.5v3.047H50.6V17H42.971V5.625h7.609v1.9H45.315v2.711h4.5Zm6.367.766H54.315V17H51.971V5.625H56.2a4.778,4.778,0,0,1,3.109.9A3.1,3.1,0,0,1,60.4,9.063,3.5,3.5,0,0,1,59.9,11a3.437,3.437,0,0,1-1.527,1.238l2.461,4.648V17H58.315Zm-1.867-1.9h1.891a1.936,1.936,0,0,0,1.367-.449,1.606,1.606,0,0,0,.484-1.238A1.719,1.719,0,0,0,57.6,7.984a1.9,1.9,0,0,0-1.4-.461H54.315ZM69.026,12.07h-4.5v3.047h5.281V17H62.182V5.625h7.609v1.9H64.526v2.711h4.5ZM80.432,17H78.089L73.526,9.516V17H71.182V5.625h2.344l4.57,7.5v-7.5h2.336Zm10.977-3.789A4.025,4.025,0,0,1,90.053,16.1a4.76,4.76,0,0,1-3.223,1.055,4.28,4.28,0,0,1-3.441-1.473,6.038,6.038,0,0,1-1.254-4.043v-.7a6.819,6.819,0,0,1,.578-2.891,4.332,4.332,0,0,1,1.652-1.918,5.164,5.164,0,0,1,5.668.387,4.326,4.326,0,0,1,1.391,2.961H89.081a2.376,2.376,0,0,0-.613-1.6,2.271,2.271,0,0,0-1.605-.5,1.991,1.991,0,0,0-1.754.84,4.707,4.707,0,0,0-.6,2.605V11.7a5.038,5.038,0,0,0,.559,2.7,1.954,1.954,0,0,0,1.762.852,2.314,2.314,0,0,0,1.621-.5,2.241,2.241,0,0,0,.613-1.535ZM95.44,17H93.1V5.625H95.44Zm8.594-2.344H99.925L99.143,17H96.651l4.234-11.375h2.172L107.315,17h-2.492Zm-3.477-1.9H103.4L101.971,8.5Z" transform="translate(-3882 -1882)" fill="#12263f"/>
    <path id="Trazado_1055096" data-name="Trazado 1055096" d="M22.292,12.992V17H19.948V5.625h4.438a5.134,5.134,0,0,1,2.254.469,3.454,3.454,0,0,1,1.5,1.332,3.714,3.714,0,0,1,.523,1.965,3.266,3.266,0,0,1-1.145,2.637,4.767,4.767,0,0,1-3.168.965Zm0-1.9h2.094a2.059,2.059,0,0,0,1.418-.437,1.591,1.591,0,0,0,.488-1.25A1.876,1.876,0,0,0,25.8,8.055a1.839,1.839,0,0,0-1.359-.531H22.292Zm12.188,1.742H32.612V17H30.268V5.625h4.227a4.778,4.778,0,0,1,3.109.9A3.1,3.1,0,0,1,38.7,9.063a3.5,3.5,0,0,1-.5,1.941,3.437,3.437,0,0,1-1.527,1.238l2.461,4.648V17H36.612Zm-1.867-1.9H34.5a1.936,1.936,0,0,0,1.367-.449,1.606,1.606,0,0,0,.484-1.238A1.719,1.719,0,0,0,35.9,7.984a1.9,1.9,0,0,0-1.4-.461H32.612Zm17.211.633a6.867,6.867,0,0,1-.594,2.945,4.472,4.472,0,0,1-1.7,1.953,5.021,5.021,0,0,1-5.059.008,4.515,4.515,0,0,1-1.719-1.941,6.67,6.67,0,0,1-.617-2.9V11.07a6.831,6.831,0,0,1,.605-2.957,4.508,4.508,0,0,1,1.711-1.961,5.014,5.014,0,0,1,5.055,0,4.508,4.508,0,0,1,1.711,1.961,6.811,6.811,0,0,1,.605,2.949Zm-2.375-.516a4.787,4.787,0,0,0-.641-2.719,2.263,2.263,0,0,0-3.648-.012,4.732,4.732,0,0,0-.648,2.691v.555a4.847,4.847,0,0,0,.641,2.7,2.243,2.243,0,0,0,3.656.035,4.819,4.819,0,0,0,.641-2.7ZM51.526,17V5.625h3.5A5.315,5.315,0,0,1,57.71,6.3a4.712,4.712,0,0,1,1.848,1.922,5.928,5.928,0,0,1,.664,2.832v.523a5.945,5.945,0,0,1-.652,2.82,4.672,4.672,0,0,1-1.84,1.914A5.355,5.355,0,0,1,55.05,17ZM53.87,7.523v7.594H55a2.545,2.545,0,0,0,2.1-.9,4.06,4.06,0,0,0,.742-2.57v-.6a4.124,4.124,0,0,0-.719-2.629,2.537,2.537,0,0,0-2.1-.895Zm16.664-1.9v7.492a3.836,3.836,0,0,1-1.168,2.953,4.5,4.5,0,0,1-3.191,1.086A4.553,4.553,0,0,1,63.01,16.1a3.77,3.77,0,0,1-1.2-2.9V5.625h2.344v7.508a2.167,2.167,0,0,0,.535,1.629,2.054,2.054,0,0,0,1.48.512q1.977,0,2.008-2.078V5.625Zm10.852,7.586A4.025,4.025,0,0,1,80.03,16.1a4.76,4.76,0,0,1-3.223,1.055,4.28,4.28,0,0,1-3.441-1.473,6.038,6.038,0,0,1-1.254-4.043v-.7a6.819,6.819,0,0,1,.578-2.891,4.332,4.332,0,0,1,1.652-1.918,5.164,5.164,0,0,1,5.668.387A4.326,4.326,0,0,1,81.4,9.484H79.057a2.376,2.376,0,0,0-.613-1.6,2.271,2.271,0,0,0-1.605-.5,1.991,1.991,0,0,0-1.754.84,4.707,4.707,0,0,0-.6,2.605V11.7a5.038,5.038,0,0,0,.559,2.7,1.954,1.954,0,0,0,1.762.852,2.314,2.314,0,0,0,1.621-.5,2.241,2.241,0,0,0,.613-1.535ZM91.26,7.523H87.776V17H85.432V7.523H81.995v-1.9H91.26Zm10.461,4.047a6.867,6.867,0,0,1-.594,2.945,4.472,4.472,0,0,1-1.7,1.953,5.021,5.021,0,0,1-5.059.008,4.515,4.515,0,0,1-1.719-1.941,6.67,6.67,0,0,1-.617-2.9V11.07a6.831,6.831,0,0,1,.605-2.957A4.508,4.508,0,0,1,94.35,6.152a5.014,5.014,0,0,1,5.055,0,4.508,4.508,0,0,1,1.711,1.961,6.811,6.811,0,0,1,.605,2.949Zm-2.375-.516a4.787,4.787,0,0,0-.641-2.719,2.263,2.263,0,0,0-3.648-.012,4.732,4.732,0,0,0-.648,2.691v.555a4.847,4.847,0,0,0,.641,2.7,2.243,2.243,0,0,0,3.656.035,4.819,4.819,0,0,0,.641-2.7Z" transform="translate(-3728 -1882)" fill="#12263f"/>
    <path id="Trazado_1055097" data-name="Trazado 1055097" d="M31.288,13.211A4.025,4.025,0,0,1,29.932,16.1a4.76,4.76,0,0,1-3.223,1.055,4.28,4.28,0,0,1-3.441-1.473,6.038,6.038,0,0,1-1.254-4.043v-.7a6.819,6.819,0,0,1,.578-2.891,4.332,4.332,0,0,1,1.652-1.918,4.629,4.629,0,0,1,2.5-.668,4.637,4.637,0,0,1,3.172,1.055A4.326,4.326,0,0,1,31.3,9.484H28.96a2.376,2.376,0,0,0-.613-1.6,2.271,2.271,0,0,0-1.605-.5,1.991,1.991,0,0,0-1.754.84,4.707,4.707,0,0,0-.6,2.605V11.7a5.038,5.038,0,0,0,.559,2.7,1.954,1.954,0,0,0,1.762.852,2.314,2.314,0,0,0,1.621-.5,2.241,2.241,0,0,0,.613-1.535Zm7.961,1.445H35.139L34.358,17H31.866L36.1,5.625h2.172L42.53,17H40.038Zm-3.477-1.9h2.844L37.186,8.5ZM52.843,17H50.5L45.936,9.516V17H43.593V5.625h2.344l4.57,7.5v-7.5h2.336ZM63.452,7.523H59.968V17H57.624V7.523H54.186v-1.9h9.266ZM67.28,17H64.936V5.625H67.28Zm2.172,0V5.625h3.5a5.315,5.315,0,0,1,2.684.676,4.712,4.712,0,0,1,1.848,1.922,5.928,5.928,0,0,1,.664,2.832v.523a5.945,5.945,0,0,1-.652,2.82,4.672,4.672,0,0,1-1.84,1.914,5.355,5.355,0,0,1-2.68.688ZM71.8,7.523v7.594h1.133a2.545,2.545,0,0,0,2.1-.9,4.06,4.06,0,0,0,.742-2.57v-.6a4.124,4.124,0,0,0-.719-2.629,2.537,2.537,0,0,0-2.1-.895Zm14.477,7.133H82.163L81.382,17H78.889L83.124,5.625H85.3L89.553,17H87.061Zm-3.477-1.9h2.844L84.21,8.5ZM90.616,17V5.625h3.5A5.315,5.315,0,0,1,96.8,6.3a4.712,4.712,0,0,1,1.848,1.922,5.928,5.928,0,0,1,.664,2.832v.523a5.945,5.945,0,0,1-.652,2.82,4.672,4.672,0,0,1-1.84,1.914,5.355,5.355,0,0,1-2.68.688ZM92.96,7.523v7.594h1.133a2.545,2.545,0,0,0,2.1-.9,4.06,4.06,0,0,0,.742-2.57v-.6a4.124,4.124,0,0,0-.719-2.629,2.537,2.537,0,0,0-2.1-.895Z" transform="translate(-3587.457 -1882)" fill="#12263f"/>
    <path id="Trazado_1055098" data-name="Trazado 1055098" d="M6.71,14.18,9.288,5.625H11.9L7.937,17H5.492L1.546,5.625h2.6Zm12.094.477H14.695L13.913,17H11.421L15.656,5.625h2.172L22.085,17H19.593Zm-3.477-1.9h2.844L16.742,8.5Zm10.164,2.359h4.977V17h-7.32V5.625h2.344ZM40.656,11.57a6.867,6.867,0,0,1-.594,2.945,4.472,4.472,0,0,1-1.7,1.953,5.021,5.021,0,0,1-5.059.008,4.515,4.515,0,0,1-1.719-1.941,6.67,6.67,0,0,1-.617-2.9V11.07a6.831,6.831,0,0,1,.605-2.957,4.508,4.508,0,0,1,1.711-1.961,5.014,5.014,0,0,1,5.055,0A4.508,4.508,0,0,1,40.05,8.113a6.811,6.811,0,0,1,.605,2.949Zm-2.375-.516a4.787,4.787,0,0,0-.641-2.719,2.263,2.263,0,0,0-3.648-.012,4.732,4.732,0,0,0-.648,2.691v.555a4.847,4.847,0,0,0,.641,2.7,2.243,2.243,0,0,0,3.656.035,4.819,4.819,0,0,0,.641-2.7Zm8.289,1.781H44.7V17H42.359V5.625h4.227a4.778,4.778,0,0,1,3.109.9,3.1,3.1,0,0,1,1.094,2.539,3.5,3.5,0,0,1-.5,1.941,3.437,3.437,0,0,1-1.527,1.238l2.461,4.648V17H48.7Zm-1.867-1.9h1.891a1.936,1.936,0,0,0,1.367-.449,1.606,1.606,0,0,0,.484-1.238,1.719,1.719,0,0,0-.457-1.266,1.9,1.9,0,0,0-1.4-.461H44.7ZM65.163,5.625v7.492A3.836,3.836,0,0,1,64,16.07,4.5,4.5,0,0,1,60.8,17.156,4.553,4.553,0,0,1,57.64,16.1a3.77,3.77,0,0,1-1.2-2.9V5.625h2.344v7.508a2.167,2.167,0,0,0,.535,1.629,2.054,2.054,0,0,0,1.48.512q1.977,0,2.008-2.078V5.625ZM76.335,17H73.992L69.429,9.516V17H67.085V5.625h2.344l4.57,7.5v-7.5h2.336Zm4.539,0H78.531V5.625h2.344ZM91.609,7.523H88.124V17H85.781V7.523H82.343v-1.9h9.266Zm6.82,7.133H94.32L93.538,17H91.046L95.281,5.625h2.172L101.71,17H99.218Zm-3.477-1.9H97.8L96.367,8.5Zm12.031.078h-1.867V17h-2.344V5.625H107a4.778,4.778,0,0,1,3.109.9A3.1,3.1,0,0,1,111.2,9.063,3.5,3.5,0,0,1,110.7,11a3.437,3.437,0,0,1-1.527,1.238l2.461,4.648V17h-2.516Zm-1.867-1.9h1.891a1.936,1.936,0,0,0,1.367-.449,1.606,1.606,0,0,0,.484-1.238,1.719,1.719,0,0,0-.457-1.266,1.9,1.9,0,0,0-1.4-.461h-1.883ZM115.476,17h-2.344V5.625h2.344Zm11.516-5.43a6.867,6.867,0,0,1-.594,2.945,4.472,4.472,0,0,1-1.7,1.953,5.021,5.021,0,0,1-5.059.008,4.515,4.515,0,0,1-1.719-1.941,6.67,6.67,0,0,1-.617-2.9V11.07a6.831,6.831,0,0,1,.605-2.957,4.508,4.508,0,0,1,1.711-1.961,5.014,5.014,0,0,1,5.055,0,4.508,4.508,0,0,1,1.711,1.961,6.811,6.811,0,0,1,.605,2.949Zm-2.375-.516a4.787,4.787,0,0,0-.641-2.719,2.263,2.263,0,0,0-3.648-.012,4.732,4.732,0,0,0-.648,2.691v.555a4.847,4.847,0,0,0,.641,2.7,2.243,2.243,0,0,0,3.656.035,4.819,4.819,0,0,0,.641-2.7Z" transform="translate(-3440 -1882)" fill="#12263f"/>
    <path id="Trazado_1055107" data-name="Trazado 1055107" d="M10.07,11.68A7.037,7.037,0,0,1,9.508,14.6a4.261,4.261,0,0,1-1.594,1.9,4.385,4.385,0,0,1-2.406.656,4.348,4.348,0,0,1-2.383-.66,4.363,4.363,0,0,1-1.613-1.883,6.752,6.752,0,0,1-.59-2.832v-.82a6.953,6.953,0,0,1,.57-2.9A4.347,4.347,0,0,1,3.105,6.137a4.329,4.329,0,0,1,2.387-.668,4.41,4.41,0,0,1,2.41.66A4.253,4.253,0,0,1,9.508,8.043a7.071,7.071,0,0,1,.563,2.918Zm-1.492-.734A5.1,5.1,0,0,0,7.766,7.84,2.68,2.68,0,0,0,5.492,6.758,2.651,2.651,0,0,0,3.254,7.84a5,5,0,0,0-.84,3v.836a5.107,5.107,0,0,0,.824,3.082,2.662,2.662,0,0,0,2.27,1.121,2.652,2.652,0,0,0,2.25-1.059,5.079,5.079,0,0,0,.82-3.035Zm5.242,1.6V17h-1.5V5.625h4.2a4.215,4.215,0,0,1,2.926.953A3.231,3.231,0,0,1,20.5,9.1a3.189,3.189,0,0,1-1.035,2.551,4.4,4.4,0,0,1-2.965.895Zm0-1.227h2.7a2.7,2.7,0,0,0,1.844-.567A2.075,2.075,0,0,0,19,9.113a2.143,2.143,0,0,0-.641-1.628A2.525,2.525,0,0,0,16.6,6.852H13.82Z" transform="translate(-3390 -1974)" fill="#12263f"/>
    <path id="Trazado_1055122" data-name="Trazado 1055122" d="M5.727,17H4.273V7.367L1.359,8.438V7.125L5.5,5.57h.227Zm11.367-4.852a6.61,6.61,0,0,1-.867,3.773,3.084,3.084,0,0,1-2.711,1.234,3.107,3.107,0,0,1-2.7-1.207,6.274,6.274,0,0,1-.906-3.605v-1.93a6.463,6.463,0,0,1,.867-3.727A3.108,3.108,0,0,1,13.5,5.469a3.136,3.136,0,0,1,2.7,1.176,6.237,6.237,0,0,1,.891,3.629Zm-1.445-1.977A5.3,5.3,0,0,0,15.133,7.5a1.775,1.775,0,0,0-1.633-.84,1.751,1.751,0,0,0-1.617.836,5.171,5.171,0,0,0-.523,2.57v2.313a5.381,5.381,0,0,0,.535,2.723,1.771,1.771,0,0,0,1.621.879,1.747,1.747,0,0,0,1.59-.828,5.186,5.186,0,0,0,.543-2.609Zm10.43,1.977a6.61,6.61,0,0,1-.867,3.773A3.084,3.084,0,0,1,22.5,17.156a3.107,3.107,0,0,1-2.7-1.207,6.274,6.274,0,0,1-.906-3.605v-1.93a6.463,6.463,0,0,1,.867-3.727,3.108,3.108,0,0,1,2.719-1.219,3.136,3.136,0,0,1,2.7,1.176,6.237,6.237,0,0,1,.891,3.629Zm-1.445-1.977A5.3,5.3,0,0,0,24.117,7.5a1.775,1.775,0,0,0-1.633-.84,1.751,1.751,0,0,0-1.617.836,5.171,5.171,0,0,0-.523,2.57v2.313a5.381,5.381,0,0,0,.535,2.723,1.771,1.771,0,0,0,1.621.879,1.747,1.747,0,0,0,1.59-.828,5.186,5.186,0,0,0,.543-2.609ZM32.68,17H31.227V7.367l-2.914,1.07V7.125L32.453,5.57h.227Z" transform="translate(-3231 -1974)" fill="#12263f"/>
    <path id="Trazado_1055117" data-name="Trazado 1055117" d="M8.2,14.18l2.578-8.555h2.609L9.43,17H6.984L3.039,5.625h2.6Zm12.094.477H16.188L15.406,17H12.914L17.148,5.625H19.32L23.578,17H21.086Zm-3.477-1.9h2.844L18.234,8.5Zm10.164,2.359h4.977V17h-7.32V5.625h2.344ZM42.148,11.57a6.867,6.867,0,0,1-.594,2.945,4.472,4.472,0,0,1-1.7,1.953,5.021,5.021,0,0,1-5.059.008,4.515,4.515,0,0,1-1.719-1.941,6.67,6.67,0,0,1-.617-2.9V11.07a6.831,6.831,0,0,1,.605-2.957,4.508,4.508,0,0,1,1.711-1.961,5.014,5.014,0,0,1,5.055,0,4.508,4.508,0,0,1,1.711,1.961,6.811,6.811,0,0,1,.605,2.949Zm-2.375-.516a4.787,4.787,0,0,0-.641-2.719,2.263,2.263,0,0,0-3.648-.012,4.732,4.732,0,0,0-.648,2.691v.555a4.847,4.847,0,0,0,.641,2.7,2.243,2.243,0,0,0,3.656.035,4.819,4.819,0,0,0,.641-2.7Zm8.289,1.781H46.2V17H43.852V5.625h4.227a4.778,4.778,0,0,1,3.109.9,3.1,3.1,0,0,1,1.094,2.539,3.5,3.5,0,0,1-.5,1.941,3.437,3.437,0,0,1-1.527,1.238l2.461,4.648V17H50.2Zm-1.867-1.9h1.891a1.936,1.936,0,0,0,1.367-.449,1.606,1.606,0,0,0,.484-1.238,1.719,1.719,0,0,0-.457-1.266,1.9,1.9,0,0,0-1.4-.461H46.2ZM66.141,7.523H62.656V17H60.313V7.523H56.875v-1.9h9.266ZM76.6,11.57a6.867,6.867,0,0,1-.594,2.945,4.472,4.472,0,0,1-1.7,1.953,5.021,5.021,0,0,1-5.059.008,4.515,4.515,0,0,1-1.719-1.941,6.67,6.67,0,0,1-.617-2.9V11.07a6.831,6.831,0,0,1,.605-2.957A4.508,4.508,0,0,1,69.23,6.152a5.014,5.014,0,0,1,5.055,0A4.508,4.508,0,0,1,76,8.113a6.811,6.811,0,0,1,.605,2.949Zm-2.375-.516a4.787,4.787,0,0,0-.641-2.719,2.263,2.263,0,0,0-3.648-.012,4.732,4.732,0,0,0-.648,2.691v.555a4.847,4.847,0,0,0,.641,2.7,2.243,2.243,0,0,0,3.656.035,4.819,4.819,0,0,0,.641-2.7ZM86.2,7.523H82.719V17H80.375V7.523H76.938v-1.9H86.2Zm6.82,7.133H88.914L88.133,17H85.641L89.875,5.625h2.172L96.3,17H93.813Zm-3.477-1.9h2.844L90.961,8.5Zm10.164,2.359h4.977V17h-7.32V5.625h2.344Z" transform="translate(-3267 -1882)" fill="#12263f"/>
    <path id="Trazado_1035440" data-name="Trazado 1035440" d="M0,0H768V59.013H0Z" transform="translate(-3910.092 -2046.465)" fill="#fc9828"/>
    <path id="Trazado_1055080" data-name="Trazado 1055080" d="M7.859,12.07h-4.5v3.047H8.641V17H1.016V5.625H8.625v1.9H3.359v2.711h4.5Zm5.219-6.445L16,13.875l2.906-8.25h3.078V17H19.633V13.891l.234-5.367L16.8,17H15.188L12.125,8.531l.234,5.359V17H10.016V5.625Zm13.3,7.367V17H24.031V5.625h4.438a5.134,5.134,0,0,1,2.254.469,3.454,3.454,0,0,1,1.5,1.332,3.714,3.714,0,0,1,.523,1.965A3.266,3.266,0,0,1,31.6,12.027a4.767,4.767,0,0,1-3.168.965Zm0-1.9h2.094a2.059,2.059,0,0,0,1.418-.437,1.591,1.591,0,0,0,.488-1.25,1.876,1.876,0,0,0-.492-1.352,1.839,1.839,0,0,0-1.359-.531H26.375Zm13.008,3.563H35.273L34.492,17H32L36.234,5.625h2.172L42.664,17H40.172Zm-3.477-1.9H38.75L37.32,8.5ZM52.977,17H50.633L46.07,9.516V17H43.727V5.625H46.07l4.57,7.5v-7.5h2.336Zm8.469-2.344H57.336L56.555,17H54.063L58.3,5.625h2.172L64.727,17H62.234Zm-3.477-1.9h2.844L59.383,8.5ZM65.789,17V5.625h3.5a5.315,5.315,0,0,1,2.684.676A4.712,4.712,0,0,1,73.82,8.223a5.928,5.928,0,0,1,.664,2.832v.523a5.945,5.945,0,0,1-.652,2.82,4.672,4.672,0,0,1-1.84,1.914,5.355,5.355,0,0,1-2.68.688Zm2.344-9.477v7.594h1.133a2.545,2.545,0,0,0,2.1-.9,4.06,4.06,0,0,0,.742-2.57v-.6a4.124,4.124,0,0,0-.719-2.629,2.537,2.537,0,0,0-2.1-.895Zm14.477,7.133H78.5L77.719,17H75.227L79.461,5.625h2.172L85.891,17H83.4Zm-3.477-1.9h2.844L80.547,8.5Zm10.3,2.359h5.734V17H86.508V15.625l5.625-8.1H86.516v-1.9h8.531V6.969Zm16.352-3.547a6.867,6.867,0,0,1-.594,2.945,4.472,4.472,0,0,1-1.7,1.953,5.021,5.021,0,0,1-5.059.008,4.515,4.515,0,0,1-1.719-1.941,6.67,6.67,0,0,1-.617-2.9V11.07a6.831,6.831,0,0,1,.605-2.957,4.508,4.508,0,0,1,1.711-1.961,5.014,5.014,0,0,1,5.055,0,4.508,4.508,0,0,1,1.711,1.961,6.811,6.811,0,0,1,.605,2.949Zm-2.375-.516a4.787,4.787,0,0,0-.641-2.719,2.263,2.263,0,0,0-3.648-.012,4.732,4.732,0,0,0-.648,2.691v.555a4.847,4.847,0,0,0,.641,2.7,2.243,2.243,0,0,0,3.656.035,4.819,4.819,0,0,0,.641-2.7Zm10.406,4.063H118.8V17h-7.32V5.625h2.344ZM127.1,7.523h-3.484V17h-2.344V7.523h-3.437v-1.9H127.1ZM128.438,17V5.625h3.5a5.315,5.315,0,0,1,2.684.676,4.712,4.712,0,0,1,1.848,1.922,5.928,5.928,0,0,1,.664,2.832v.523a5.945,5.945,0,0,1-.652,2.82,4.672,4.672,0,0,1-1.84,1.914,5.355,5.355,0,0,1-2.68.688Zm2.344-9.477v7.594h1.133a2.545,2.545,0,0,0,2.1-.9,4.06,4.06,0,0,0,.742-2.57v-.6a4.124,4.124,0,0,0-.719-2.629,2.537,2.537,0,0,0-2.1-.895Zm14.477,7.133h-4.109L140.367,17h-2.492l4.234-11.375h2.172L148.539,17h-2.492Zm-3.477-1.9h2.844L143.2,8.5Z" transform="translate(-3826.921 -2026)" fill="#12263f"/>
    <path id="Trazado_1055100" data-name="Trazado 1055100" d="M11.182,12.836H9.315V17H6.971V5.625H11.2a4.778,4.778,0,0,1,3.109.9A3.1,3.1,0,0,1,15.4,9.063,3.5,3.5,0,0,1,14.9,11a3.437,3.437,0,0,1-1.527,1.238l2.461,4.648V17H13.315Zm-1.867-1.9h1.891a1.936,1.936,0,0,0,1.367-.449,1.606,1.606,0,0,0,.484-1.238A1.719,1.719,0,0,0,12.6,7.984a1.9,1.9,0,0,0-1.4-.461H9.315ZM24.026,12.07h-4.5v3.047h5.281V17H17.182V5.625h7.609v1.9H19.526v2.711h4.5Zm11.484-.5a6.853,6.853,0,0,1-.516,2.77,4.754,4.754,0,0,1-1.43,1.887l1.891,1.484-1.492,1.32-2.422-1.945a5.126,5.126,0,0,1-.859.07,4.732,4.732,0,0,1-2.523-.68,4.515,4.515,0,0,1-1.719-1.941,6.67,6.67,0,0,1-.617-2.9V11.07a6.831,6.831,0,0,1,.605-2.957,4.508,4.508,0,0,1,1.711-1.961,5.014,5.014,0,0,1,5.055,0,4.508,4.508,0,0,1,1.711,1.961,6.811,6.811,0,0,1,.605,2.949Zm-2.375-.516a4.787,4.787,0,0,0-.641-2.719,2.263,2.263,0,0,0-3.648-.012,4.732,4.732,0,0,0-.648,2.691v.555a4.847,4.847,0,0,0,.641,2.7,2.243,2.243,0,0,0,3.656.035,4.819,4.819,0,0,0,.641-2.7Zm12.7-5.43v7.492a3.836,3.836,0,0,1-1.168,2.953,4.5,4.5,0,0,1-3.191,1.086A4.553,4.553,0,0,1,38.315,16.1a3.77,3.77,0,0,1-1.2-2.9V5.625h2.344v7.508A2.167,2.167,0,0,0,40,14.762a2.054,2.054,0,0,0,1.48.512q1.977,0,2.008-2.078V5.625ZM50.253,17H47.909V5.625h2.344Zm8.07-2.984A1.2,1.2,0,0,0,57.854,13a6.148,6.148,0,0,0-1.687-.75,11.963,11.963,0,0,1-1.93-.777A3.153,3.153,0,0,1,52.3,8.648,2.747,2.747,0,0,1,52.819,7a3.389,3.389,0,0,1,1.492-1.129,5.616,5.616,0,0,1,2.184-.406,5.112,5.112,0,0,1,2.172.441,3.458,3.458,0,0,1,1.48,1.246,3.261,3.261,0,0,1,.527,1.828H58.331a1.534,1.534,0,0,0-.492-1.215,2.023,2.023,0,0,0-1.383-.434A2.162,2.162,0,0,0,55.12,7.7a1.146,1.146,0,0,0-.477.957,1.1,1.1,0,0,0,.559.93,6.311,6.311,0,0,0,1.645.7,7.106,7.106,0,0,1,2.914,1.492A2.972,2.972,0,0,1,60.675,14a2.737,2.737,0,0,1-1.117,2.316,4.891,4.891,0,0,1-3.008.84,5.808,5.808,0,0,1-2.391-.48,3.783,3.783,0,0,1-1.645-1.316,3.371,3.371,0,0,1-.566-1.937H54.3q0,1.883,2.25,1.883a2.189,2.189,0,0,0,1.3-.34A1.106,1.106,0,0,0,58.323,14.016ZM64.753,17H62.409V5.625h2.344Zm11.1-3.789A4.025,4.025,0,0,1,74.5,16.1a4.76,4.76,0,0,1-3.223,1.055,4.28,4.28,0,0,1-3.441-1.473,6.038,6.038,0,0,1-1.254-4.043v-.7a6.819,6.819,0,0,1,.578-2.891,4.332,4.332,0,0,1,1.652-1.918,5.164,5.164,0,0,1,5.668.387A4.326,4.326,0,0,1,75.87,9.484H73.526a2.376,2.376,0,0,0-.613-1.6,2.271,2.271,0,0,0-1.605-.5,1.991,1.991,0,0,0-1.754.84,4.707,4.707,0,0,0-.6,2.605V11.7a5.038,5.038,0,0,0,.559,2.7,1.954,1.954,0,0,0,1.762.852,2.314,2.314,0,0,0,1.621-.5,2.241,2.241,0,0,0,.613-1.535ZM79.885,17H77.542V5.625h2.344ZM91.4,11.57a6.867,6.867,0,0,1-.594,2.945,4.472,4.472,0,0,1-1.7,1.953,5.021,5.021,0,0,1-5.059.008,4.515,4.515,0,0,1-1.719-1.941,6.67,6.67,0,0,1-.617-2.9V11.07a6.831,6.831,0,0,1,.605-2.957A4.508,4.508,0,0,1,84.03,6.152a5.014,5.014,0,0,1,5.055,0A4.508,4.508,0,0,1,90.8,8.113a6.811,6.811,0,0,1,.605,2.949Zm-2.375-.516a4.787,4.787,0,0,0-.641-2.719,2.263,2.263,0,0,0-3.648-.012,4.732,4.732,0,0,0-.648,2.691v.555a4.847,4.847,0,0,0,.641,2.7,2.243,2.243,0,0,0,3.656.035,4.819,4.819,0,0,0,.641-2.7ZM87.01,2.578h2.461L87.307,5H85.471ZM102.354,17H100.01L95.448,9.516V17H93.1V5.625h2.344l4.57,7.5v-7.5h2.336Z" transform="translate(-3427.506 -2026)" fill="#12263f"/>
    <path id="Trazado_1055123" data-name="Trazado 1055123" d="M6.668,17H4.41V8.3l-2.7.836V7.3L6.426,5.609h.242Z" transform="translate(-3218 -2026)" fill="#12263f"/>
    <path id="Trazado_1055089" data-name="Trazado 1055089" d="M0,0H766V41.637H0Z" transform="translate(-3909.092 -1940.452)" fill="#f6f6f6"/>
    <path id="Trazado_1055106" data-name="Trazado 1055106" d="M0,0H766.538V41.637H0Z" transform="translate(-3909.092 -1846.884)" fill="#f6f6f6"/>
    <path id="Trazado_1055115" data-name="Trazado 1055115" d="M0,0H766.538V41.637H0Z" transform="translate(-3909.092 -1754.29)" fill="#f6f6f6"/>
    <path id="Trazado_1054327" data-name="Trazado 1054327" d="M0,0H767.013V41.637H0Z" transform="translate(-3909.567 -1669.622)" fill="#f6f6f6"/>
    <path id="Trazado_1055090" data-name="Trazado 1055090" d="M32.995,12.07h-4.5v3.047h5.281V17H26.151V5.625H33.76v1.9H28.495v2.711h4.5ZM44.4,17H42.057L37.495,9.516V17H35.151V5.625h2.344l4.57,7.5v-7.5H44.4ZM55.01,7.523H51.526V17H49.182V7.523H45.745v-1.9H55.01Zm5.547,5.313H58.69V17H56.346V5.625h4.227a4.778,4.778,0,0,1,3.109.9,3.1,3.1,0,0,1,1.094,2.539,3.5,3.5,0,0,1-.5,1.941,3.437,3.437,0,0,1-1.527,1.238l2.461,4.648V17H62.69Zm-1.867-1.9h1.891a1.936,1.936,0,0,0,1.367-.449,1.606,1.606,0,0,0,.484-1.238,1.719,1.719,0,0,0-.457-1.266,1.9,1.9,0,0,0-1.4-.461H58.69ZM73.4,12.07H68.9v3.047h5.281V17H66.557V5.625h7.609v1.9H68.9v2.711h4.5Zm11.156,3.492a4.068,4.068,0,0,1-1.789,1.176,7.492,7.492,0,0,1-2.562.418,5.076,5.076,0,0,1-2.59-.645A4.3,4.3,0,0,1,75.9,14.641a6.585,6.585,0,0,1-.621-2.883v-.773a6.994,6.994,0,0,1,.574-2.949,4.248,4.248,0,0,1,1.656-1.906,5.453,5.453,0,0,1,5.7.3,4.123,4.123,0,0,1,1.352,2.809H82.276a2.268,2.268,0,0,0-.691-1.43,2.208,2.208,0,0,0-1.473-.453,2.078,2.078,0,0,0-1.82.9,4.724,4.724,0,0,0-.633,2.672v.727a4.5,4.5,0,0,0,.68,2.7,2.327,2.327,0,0,0,1.992.914,2.6,2.6,0,0,0,1.883-.562V12.75H80.081V11.023h4.477Zm8.32-.906H88.768L87.987,17H85.495L89.729,5.625H91.9L96.159,17H93.667Zm-3.477-1.9h2.844L90.815,8.5Z" transform="translate(-3882 -1927.952)" fill="#12263f"/>
    <path id="Trazado_1055102" data-name="Trazado 1055102" d="M25.722,12.352h-4.5V17H18.878V5.625h7.406v1.9H21.222v2.938h4.5Zm8.766-.281h-4.5v3.047h5.281V17H27.644V5.625h7.609v1.9H29.988v2.711h4.5Zm11.086,1.141A4.025,4.025,0,0,1,44.218,16.1,4.76,4.76,0,0,1,41,17.156a4.28,4.28,0,0,1-3.441-1.473A6.038,6.038,0,0,1,36.3,11.641v-.7a6.819,6.819,0,0,1,.578-2.891,4.332,4.332,0,0,1,1.652-1.918,5.164,5.164,0,0,1,5.668.387,4.326,4.326,0,0,1,1.391,2.961H43.245a2.376,2.376,0,0,0-.613-1.6,2.271,2.271,0,0,0-1.605-.5,1.991,1.991,0,0,0-1.754.84,4.707,4.707,0,0,0-.6,2.605V11.7a5.038,5.038,0,0,0,.559,2.7A1.954,1.954,0,0,0,41,15.242a2.314,2.314,0,0,0,1.621-.5,2.241,2.241,0,0,0,.613-1.535ZM56.37,17H54.027V12.125h-4.57V17H47.113V5.625h2.344v4.609h4.57V5.625H56.37Zm8.609-2.344H60.87L60.089,17H57.6L61.831,5.625H64L68.261,17H65.769Zm-3.477-1.9h2.844L62.917,8.5Z" transform="translate(-3418 -1926.405)" fill="#12263f"/>
    <path id="Trazado_1055119" data-name="Trazado 1055119" d="M6.656,17H5.2V7.367L2.289,8.438V7.125L6.43,5.57h.227Zm4.672.977H10.086l4.75-12.352H16.07Zm13.289-5.828a6.61,6.61,0,0,1-.867,3.773,3.084,3.084,0,0,1-2.711,1.234,3.107,3.107,0,0,1-2.7-1.207,6.274,6.274,0,0,1-.906-3.605v-1.93A6.463,6.463,0,0,1,18.3,6.688a3.108,3.108,0,0,1,2.719-1.219,3.136,3.136,0,0,1,2.7,1.176,6.237,6.237,0,0,1,.891,3.629Zm-1.445-1.977A5.3,5.3,0,0,0,22.656,7.5a1.775,1.775,0,0,0-1.633-.84,1.751,1.751,0,0,0-1.617.836,5.171,5.171,0,0,0-.523,2.57v2.313a5.381,5.381,0,0,0,.535,2.723,1.771,1.771,0,0,0,1.621.879,1.747,1.747,0,0,0,1.59-.828,5.186,5.186,0,0,0,.543-2.609ZM32.008,12a3.536,3.536,0,0,1-1.082.867,2.936,2.936,0,0,1-1.379.328,3.031,3.031,0,0,1-1.715-.484A3.149,3.149,0,0,1,26.7,11.348a4.648,4.648,0,0,1-.4-1.941,4.735,4.735,0,0,1,.434-2.055,3.185,3.185,0,0,1,1.23-1.4,3.509,3.509,0,0,1,1.859-.484,3.177,3.177,0,0,1,2.66,1.262,5.5,5.5,0,0,1,.973,3.441v.422q0,3.32-1.312,4.848a5.043,5.043,0,0,1-3.961,1.566h-.281V15.781h.3a3.979,3.979,0,0,0,2.75-.932A4,4,0,0,0,32.008,12Zm-2.227,0a2.232,2.232,0,0,0,1.34-.445,2.625,2.625,0,0,0,.895-1.1V9.875A3.977,3.977,0,0,0,31.4,7.563,1.887,1.887,0,0,0,28.3,7.4a3.013,3.013,0,0,0-.578,1.926,3.136,3.136,0,0,0,.559,1.918A1.769,1.769,0,0,0,29.781,12Zm6.109,5.977H34.648L39.4,5.625h1.234ZM49.5,17H42.047V15.961l3.938-4.375a9.355,9.355,0,0,0,1.207-1.613,2.693,2.693,0,0,0,.332-1.285,2.041,2.041,0,0,0-.539-1.461,1.885,1.885,0,0,0-1.437-.57,2.232,2.232,0,0,0-1.676.613,2.343,2.343,0,0,0-.6,1.707H41.828A3.355,3.355,0,0,1,42.84,6.438a3.751,3.751,0,0,1,2.707-.969,3.6,3.6,0,0,1,2.508.832,2.838,2.838,0,0,1,.922,2.215q0,1.68-2.141,4l-3.047,3.3H49.5Zm8.664-4.852a6.61,6.61,0,0,1-.867,3.773,3.6,3.6,0,0,1-5.406.027,6.274,6.274,0,0,1-.906-3.605v-1.93a6.463,6.463,0,0,1,.867-3.727,3.668,3.668,0,0,1,5.422-.043,6.237,6.237,0,0,1,.891,3.629Zm-1.445-1.977A5.3,5.3,0,0,0,56.2,7.5a1.775,1.775,0,0,0-1.633-.84,1.751,1.751,0,0,0-1.617.836,5.171,5.171,0,0,0-.523,2.57v2.313a5.381,5.381,0,0,0,.535,2.723,1.771,1.771,0,0,0,1.621.879,1.747,1.747,0,0,0,1.59-.828,5.186,5.186,0,0,0,.543-2.609ZM67.469,17H60.016V15.961l3.938-4.375A9.354,9.354,0,0,0,65.16,9.973a2.693,2.693,0,0,0,.332-1.285,2.041,2.041,0,0,0-.539-1.461,1.885,1.885,0,0,0-1.437-.57,2.232,2.232,0,0,0-1.676.613,2.343,2.343,0,0,0-.6,1.707H59.8a3.355,3.355,0,0,1,1.012-2.539,3.751,3.751,0,0,1,2.707-.969,3.6,3.6,0,0,1,2.508.832,2.838,2.838,0,0,1,.922,2.215q0,1.68-2.141,4l-3.047,3.3h5.711Zm8.664-4.852a6.61,6.61,0,0,1-.867,3.773,3.6,3.6,0,0,1-5.406.027,6.274,6.274,0,0,1-.906-3.605v-1.93a6.463,6.463,0,0,1,.867-3.727,3.668,3.668,0,0,1,5.422-.043,6.237,6.237,0,0,1,.891,3.629Zm-1.445-1.977A5.3,5.3,0,0,0,74.172,7.5a1.775,1.775,0,0,0-1.633-.84,1.751,1.751,0,0,0-1.617.836,5.171,5.171,0,0,0-.523,2.57v2.313a5.381,5.381,0,0,0,.535,2.723,1.771,1.771,0,0,0,1.621.879,1.747,1.747,0,0,0,1.59-.828,5.186,5.186,0,0,0,.543-2.609Z" transform="translate(-3252 -1928.04)" fill="#12263f"/>
    <g id="Grupo_1180885" data-name="Grupo 1180885" transform="translate(2790.322 -7001.615)">
      <text id="_3265" data-name="3265" transform="translate(-6672.321 5215.979)" fill="#12263f" font-size="16" font-family="Roboto-Regular, Roboto"><tspan x="-17.969" y="17">3265</tspan></text>
      <text id="_2341" data-name="2341" transform="translate(-6672.321 5167.615)" fill="#12263f" font-size="16" font-family="Roboto-Regular, Roboto"><tspan x="-17.969" y="17">2341</tspan></text>
      <text id="_5566_-" data-name="5566
-" transform="translate(-6672.321 5258.141)" fill="#12263f" font-size="16" font-family="Roboto-Regular, Roboto"><tspan x="-17.969" y="17">5566</tspan><tspan x="-2.207" y="63">-</tspan></text>
    </g>
    <g id="Grupo_1180887" data-name="Grupo 1180887" transform="translate(2801.333 -7000.227)">
      <text id="_5.000.000_" data-name="$5.000.000
" transform="translate(-6385.607 5210.979)" fill="#12263f" font-size="16" font-family="Roboto-Regular, Roboto"><tspan x="-80.297" y="17">$5.000.000</tspan><tspan x="0" y="35"></tspan></text>
      <text id="_2.500.000_" data-name="$2.500.000

" transform="translate(-6385.607 5167.227)" fill="#12263f" font-size="16" font-family="Roboto-Regular, Roboto"><tspan x="-80.297" y="17">$2.500.000</tspan><tspan x="0" y="35"></tspan><tspan x="0" y="53"></tspan></text>
      <text id="_12.500_00_-" data-name="$12.500,00
-" transform="translate(-6374.131 5256.457)" fill="#12263f" font-size="16" font-family="Roboto-Regular, Roboto"><tspan x="-79.227" y="17">$12.500,00</tspan><tspan x="-4.414" y="63">-</tspan></text>
    </g>
    <g id="Grupo_1180886" data-name="Grupo 1180886" transform="translate(2790.322 -6999.615)">
      <text id="ARROZ_DIANA" data-name="ARROZ DIANA" transform="translate(-6526.321 5216.162)" fill="#12263f" font-size="16" font-family="Roboto-Regular, Roboto"><tspan x="-50.813" y="17">ARROZ DIANA</tspan></text>
      <text id="HARINA_EL_LOBO" data-name="HARINA EL LOBO" transform="translate(-6526.321 5167.615)" fill="#12263f" font-size="16" font-family="Roboto-Regular, Roboto"><tspan x="-61.859" y="17">HARINA EL LOBO</tspan></text>
      <text id="HUEVOS_ORO_-" data-name="HUEVOS ORO
-" transform="translate(-6515.321 5254.865)" fill="#12263f" font-size="16" font-family="Roboto-Regular, Roboto"><tspan x="-48.629" y="17">HUEVOS ORO</tspan><tspan x="-2.207" y="63">-</tspan></text>
    </g>
    <g id="Grupo_1180888" data-name="Grupo 1180888" transform="translate(2790.322 -6999.453)">
      <text id="_4_31" data-name="$4,31" transform="translate(-6230.321 5214.205)" fill="#12263f" font-size="16" font-family="Roboto-Regular, Roboto"><tspan x="-39.078" y="17">$4,31</tspan></text>
      <text id="TOTAL" transform="translate(-6230.321 5301.732)" fill="#12263f" font-size="16" font-family="Roboto-Bold, Roboto" font-weight="700"><tspan x="-24.227" y="17">TOTAL</tspan></text>
      <text id="_3_92" data-name="$3,92" transform="translate(-6230.321 5165.453)" fill="#12263f" font-size="16" font-family="Roboto-Regular, Roboto"><tspan x="-39.078" y="17">$3,92</tspan></text>
      <text id="_343.00" data-name="$343.00" transform="translate(-6230.321 5261.457)" fill="#12263f" font-size="16" font-family="Roboto-Regular, Roboto"><tspan x="-58.117" y="17">$343.00</tspan></text>
    </g>
    <g id="Grupo_1180884" data-name="Grupo 1180884" transform="translate(2790.322 -7001.227)">
      <text id="_21.560.000" data-name="$21.560.000" transform="translate(-6048.321 5216.205)" fill="#12263f" font-size="16" font-family="Roboto-Regular, Roboto"><tspan x="-89.281" y="17">$21.560.000</tspan></text>
      <text id="_35.647.500" data-name="$35.647.500" transform="translate(-6048.321 5301.918)" fill="#12263f" font-size="16" font-family="Roboto-Regular, Roboto"><tspan x="-89.281" y="17">$35.647.500</tspan></text>
      <text id="_9.800.000" data-name="$9.800.000" transform="translate(-6043.321 5169.227)" fill="#12263f" font-size="16" font-family="Roboto-Regular, Roboto"><tspan x="-80.297" y="17">$9.800.000</tspan></text>
      <text id="_4.287.500" data-name="$4.287.500" transform="translate(-6043.321 5263.452)" fill="#12263f" font-size="16" font-family="Roboto-Regular, Roboto"><tspan x="-80.297" y="17">$4.287.500</tspan></text>
    </g>
    <path id="Trazado_1055082" data-name="Trazado 1055082" d="M0,0V361.967" transform="translate(-3741.713 -1988.952)" fill="none" stroke="#e1e1e1" stroke-width="1"/>
    <path id="Trazado_1055087" data-name="Trazado 1055087" d="M0,0V415.967" transform="translate(-3595.592 -2042.952)" fill="none" stroke="#e1e1e1" stroke-width="1"/>
    <path id="Trazado_1055093" data-name="Trazado 1055093" d="M0,0V415.967" transform="translate(-3461.933 -2042.952)" fill="none" stroke="#e1e1e1" stroke-width="1"/>
    <path id="Trazado_1055116" data-name="Trazado 1055116" d="M0,0V370.452" transform="translate(-3288.933 -2039.952)" fill="none" stroke="#e1e1e1" stroke-width="1"/>
    <path id="Trazado_1055124" data-name="Trazado 1055124" d="M13.9,17H11.559L7,9.516V17H4.652V5.625H7l4.57,7.5v-7.5H13.9Zm11.391-5.43a6.867,6.867,0,0,1-.594,2.945A4.472,4.472,0,0,1,23,16.469a5.021,5.021,0,0,1-5.059.008,4.515,4.515,0,0,1-1.719-1.941,6.67,6.67,0,0,1-.617-2.9V11.07a6.831,6.831,0,0,1,.605-2.957,4.508,4.508,0,0,1,1.711-1.961,5.014,5.014,0,0,1,5.055,0,4.508,4.508,0,0,1,1.711,1.961,6.811,6.811,0,0,1,.605,2.949Zm-2.375-.516a4.787,4.787,0,0,0-.641-2.719,2.263,2.263,0,0,0-3.648-.012,4.732,4.732,0,0,0-.648,2.691v.555a4.847,4.847,0,0,0,.641,2.7,2.243,2.243,0,0,0,3.656.035,4.819,4.819,0,0,0,.641-2.7Zm17.406.516a6.867,6.867,0,0,1-.594,2.945,4.472,4.472,0,0,1-1.7,1.953,5.021,5.021,0,0,1-5.059.008,4.515,4.515,0,0,1-1.719-1.941,6.67,6.67,0,0,1-.617-2.9V11.07a6.831,6.831,0,0,1,.605-2.957,4.508,4.508,0,0,1,1.711-1.961,5.014,5.014,0,0,1,5.055,0,4.508,4.508,0,0,1,1.711,1.961,6.811,6.811,0,0,1,.605,2.949Zm-2.375-.516a4.787,4.787,0,0,0-.641-2.719,2.263,2.263,0,0,0-3.648-.012,4.732,4.732,0,0,0-.648,2.691v.555a4.847,4.847,0,0,0,.641,2.7,2.243,2.243,0,0,0,3.656.035,4.819,4.819,0,0,0,.641-2.7Zm6.422,4.063h4.977V17h-7.32V5.625h2.344Zm8.914-.937,2.578-8.555h2.609L54.512,17H52.066L48.121,5.625h2.6ZM62.035,17H59.691V5.625h2.344Zm2.172,0V5.625h3.5a5.315,5.315,0,0,1,2.684.676,4.712,4.712,0,0,1,1.848,1.922,5.928,5.928,0,0,1,.664,2.832v.523a5.945,5.945,0,0,1-.652,2.82,4.672,4.672,0,0,1-1.84,1.914A5.355,5.355,0,0,1,67.73,17Zm2.344-9.477v7.594h1.133a2.545,2.545,0,0,0,2.1-.9,4.06,4.06,0,0,0,.742-2.57v-.6a4.124,4.124,0,0,0-.719-2.629,2.537,2.537,0,0,0-2.1-.895Zm14.477,7.133H76.918L76.137,17H73.645L77.879,5.625h2.172L84.309,17H81.816Zm-3.477-1.9h2.844L78.965,8.5Zm12.031.078H87.715V17H85.371V5.625H89.6a4.778,4.778,0,0,1,3.109.9A3.1,3.1,0,0,1,93.8,9.063,3.5,3.5,0,0,1,93.3,11a3.437,3.437,0,0,1-1.527,1.238l2.461,4.648V17H91.715Zm-1.867-1.9h1.891a1.936,1.936,0,0,0,1.367-.449,1.606,1.606,0,0,0,.484-1.238A1.719,1.719,0,0,0,91,7.984a1.9,1.9,0,0,0-1.4-.461H87.715Zm18.273,3.719h-4.109L101.1,17H98.605L102.84,5.625h2.172L109.27,17h-2.492Zm-3.477-1.9h2.844L103.926,8.5Zm16.75.453a4.025,4.025,0,0,1-1.355,2.891,4.76,4.76,0,0,1-3.223,1.055,4.28,4.28,0,0,1-3.441-1.473,6.038,6.038,0,0,1-1.254-4.043v-.7a6.819,6.819,0,0,1,.578-2.891,4.332,4.332,0,0,1,1.652-1.918,5.164,5.164,0,0,1,5.668.387,4.326,4.326,0,0,1,1.391,2.961h-2.344a2.376,2.376,0,0,0-.613-1.6,2.271,2.271,0,0,0-1.605-.5,1.991,1.991,0,0,0-1.754.84,4.707,4.707,0,0,0-.6,2.605V11.7a5.038,5.038,0,0,0,.559,2.7,1.954,1.954,0,0,0,1.762.852,2.314,2.314,0,0,0,1.621-.5,2.241,2.241,0,0,0,.613-1.535Zm9.875-5.687h-3.484V17h-2.344V7.523h-3.437v-1.9h9.266Zm9.945-1.9v7.492a3.836,3.836,0,0,1-1.168,2.953,4.5,4.5,0,0,1-3.191,1.086,4.553,4.553,0,0,1-3.164-1.055,3.77,3.77,0,0,1-1.2-2.9V5.625h2.344v7.508a2.167,2.167,0,0,0,.535,1.629,2.054,2.054,0,0,0,1.48.512q1.977,0,2.008-2.078V5.625Zm8.172,9.031h-4.109L142.363,17h-2.492l4.234-11.375h2.172L150.535,17h-2.492Zm-3.477-1.9h2.844L145.191,8.5Zm10.164,2.359h4.977V17H151.6V5.625h2.344ZM162.754,17H160.41V5.625h2.344Zm4.656-1.883h5.734V17H164.48V15.625l5.625-8.1h-5.617v-1.9h8.531V6.969Zm13.734-.461h-4.109L176.254,17h-2.492L178,5.625h2.172L184.426,17h-2.492Zm-3.477-1.9h2.844L179.082,8.5Zm12.031.078h-1.867V17h-2.344V5.625h4.227a4.778,4.778,0,0,1,3.109.9,3.1,3.1,0,0,1,1.094,2.539,3.5,3.5,0,0,1-.5,1.941,3.437,3.437,0,0,1-1.527,1.238l2.461,4.648V17h-2.516Zm-1.867-1.9h1.891a1.936,1.936,0,0,0,1.367-.449,1.606,1.606,0,0,0,.484-1.238,1.719,1.719,0,0,0-.457-1.266,1.9,1.9,0,0,0-1.4-.461h-1.883Zm15.414,1.5-1.219,1.313V17h-2.344V5.625h2.344v5.156l1.031-1.414,2.9-3.742h2.883L204.8,10.68,208.957,17h-2.789Zm13.016,2.219h-4.109L211.371,17h-2.492l4.234-11.375h2.172L219.543,17h-2.492Zm-3.477-1.9h2.844L214.2,8.5Zm12.031.078h-1.867V17h-2.344V5.625h4.227a4.778,4.778,0,0,1,3.109.9,3.1,3.1,0,0,1,1.094,2.539,3.5,3.5,0,0,1-.5,1.941A3.437,3.437,0,0,1,227,12.242l2.461,4.648V17h-2.516Zm-1.867-1.9h1.891a1.936,1.936,0,0,0,1.367-.449,1.606,1.606,0,0,0,.484-1.238,1.719,1.719,0,0,0-.457-1.266,1.9,1.9,0,0,0-1.4-.461h-1.883ZM230.816,17V5.625h3.5A5.315,5.315,0,0,1,237,6.3a4.712,4.712,0,0,1,1.848,1.922,5.928,5.928,0,0,1,.664,2.832v.523a5.945,5.945,0,0,1-.652,2.82,4.672,4.672,0,0,1-1.84,1.914,5.355,5.355,0,0,1-2.68.688Zm2.344-9.477v7.594h1.133a2.545,2.545,0,0,0,2.1-.9,4.06,4.06,0,0,0,.742-2.57v-.6a4.124,4.124,0,0,0-.719-2.629,2.537,2.537,0,0,0-2.1-.895Zm14.9,4.547h-4.5v3.047h5.281V17h-7.625V5.625h7.609v1.9h-5.266v2.711h4.5Zm6.227-2.523,2.133-3.922h2.7L255.8,11.266,259.2,17h-2.727l-2.187-3.984L252.1,17h-2.727l3.4-5.734-3.312-5.641h2.7Z" transform="translate(-3427.506 -1656.304)" fill="#12263f"/>
  </g>
</svg>
