<svg id="Grupo_1179626" data-name="Grupo 1179626" xmlns="http://www.w3.org/2000/svg" xmlns:xlink="http://www.w3.org/1999/xlink" width="337.992" height="343.738" viewBox="0 0 337.992 343.738">
  <defs>
    <clipPath id="clip-path">
      <rect id="Rectángulo_407334" data-name="Rectángulo 407334" width="337.992" height="343.739" fill="none"/>
    </clipPath>
    <clipPath id="clip-path-5">
      <rect id="Rectángulo_407294" data-name="Rectángulo 407294" width="162.683" height="110.077" fill="none"/>
    </clipPath>
    <clipPath id="clip-path-6">
      <rect id="Rectángulo_407295" data-name="Rectángulo 407295" width="204.214" height="117.904" fill="none"/>
    </clipPath>
    <clipPath id="clip-path-8">
      <rect id="Rectángulo_407297" data-name="Rectángulo 407297" width="15.438" height="16.759" fill="none"/>
    </clipPath>
    <clipPath id="clip-path-9">
      <rect id="Rectángulo_407298" data-name="Rectángulo 407298" width="7.196" height="10.977" fill="none"/>
    </clipPath>
    <clipPath id="clip-path-10">
      <rect id="Rectángulo_407299" data-name="Rectángulo 407299" width="12.154" height="15.694" fill="none"/>
    </clipPath>
    <clipPath id="clip-path-11">
      <rect id="Rectángulo_407300" data-name="Rectángulo 407300" width="2.931" height="5.319" fill="none"/>
    </clipPath>
    <clipPath id="clip-path-12">
      <rect id="Rectángulo_407301" data-name="Rectángulo 407301" width="24.048" height="15.3" fill="none"/>
    </clipPath>
    <clipPath id="clip-path-13">
      <rect id="Rectángulo_407302" data-name="Rectángulo 407302" width="24.536" height="14.633" fill="none"/>
    </clipPath>
    <clipPath id="clip-path-14">
      <rect id="Rectángulo_407303" data-name="Rectángulo 407303" width="23.655" height="15.543" fill="none"/>
    </clipPath>
    <clipPath id="clip-path-16">
      <rect id="Rectángulo_407305" data-name="Rectángulo 407305" width="15.082" height="18.428" fill="none"/>
    </clipPath>
    <clipPath id="clip-path-17">
      <rect id="Rectángulo_407306" data-name="Rectángulo 407306" width="11.325" height="9.615" fill="none"/>
    </clipPath>
    <clipPath id="clip-path-18">
      <rect id="Rectángulo_407307" data-name="Rectángulo 407307" width="18.784" height="15.689" fill="none"/>
    </clipPath>
    <clipPath id="clip-path-19">
      <rect id="Rectángulo_407308" data-name="Rectángulo 407308" width="4.853" height="6.267" fill="none"/>
    </clipPath>
    <clipPath id="clip-path-20">
      <rect id="Rectángulo_407309" data-name="Rectángulo 407309" width="27.315" height="16.236" fill="none"/>
    </clipPath>
    <clipPath id="clip-path-22">
      <rect id="Rectángulo_407311" data-name="Rectángulo 407311" width="139.475" height="151.423" fill="none"/>
    </clipPath>
    <clipPath id="clip-path-23">
      <rect id="Rectángulo_407312" data-name="Rectángulo 407312" width="6.141" height="8.733" fill="none"/>
    </clipPath>
    <clipPath id="clip-path-24">
      <rect id="Rectángulo_407313" data-name="Rectángulo 407313" width="7.263" height="2.398" fill="none"/>
    </clipPath>
    <clipPath id="clip-path-25">
      <rect id="Rectángulo_407314" data-name="Rectángulo 407314" width="88.073" height="84.077" fill="none"/>
    </clipPath>
    <clipPath id="clip-path-26">
      <rect id="Rectángulo_407315" data-name="Rectángulo 407315" width="135.188" height="150.252" fill="none"/>
    </clipPath>
    <clipPath id="clip-path-27">
      <rect id="Rectángulo_407316" data-name="Rectángulo 407316" width="76.41" height="78.799" fill="none"/>
    </clipPath>
    <clipPath id="clip-path-28">
      <rect id="Rectángulo_407317" data-name="Rectángulo 407317" width="74.226" height="77.872" fill="none"/>
    </clipPath>
    <clipPath id="clip-path-29">
      <rect id="Rectángulo_407318" data-name="Rectángulo 407318" width="15.703" height="21.693" fill="none"/>
    </clipPath>
    <clipPath id="clip-path-30">
      <rect id="Rectángulo_407319" data-name="Rectángulo 407319" width="9.115" height="27.847" fill="none"/>
    </clipPath>
    <clipPath id="clip-path-31">
      <rect id="Rectángulo_407320" data-name="Rectángulo 407320" width="9.306" height="27.847" fill="none"/>
    </clipPath>
    <clipPath id="clip-path-32">
      <rect id="Rectángulo_407321" data-name="Rectángulo 407321" width="8.445" height="13.553" fill="none"/>
    </clipPath>
    <clipPath id="clip-path-34">
      <rect id="Rectángulo_407323" data-name="Rectángulo 407323" width="70.852" height="49.754" fill="none"/>
    </clipPath>
    <clipPath id="clip-path-36">
      <rect id="Rectángulo_407325" data-name="Rectángulo 407325" width="26.59" height="19.625" fill="none"/>
    </clipPath>
    <clipPath id="clip-path-38">
      <rect id="Rectángulo_407327" data-name="Rectángulo 407327" width="37.402" height="11.328" fill="none"/>
    </clipPath>
    <clipPath id="clip-path-40">
      <rect id="Rectángulo_407329" data-name="Rectángulo 407329" width="4.024" height="4.233" fill="none"/>
    </clipPath>
    <clipPath id="clip-path-41">
      <rect id="Rectángulo_407330" data-name="Rectángulo 407330" width="2.617" height="2.065" fill="none"/>
    </clipPath>
    <clipPath id="clip-path-42">
      <rect id="Rectángulo_407331" data-name="Rectángulo 407331" width="43.04" height="15.394" fill="none"/>
    </clipPath>
    <clipPath id="clip-path-43">
      <rect id="Rectángulo_407332" data-name="Rectángulo 407332" width="27.114" height="25.104" fill="none"/>
    </clipPath>
  </defs>
  <g id="Grupo_1179625" data-name="Grupo 1179625" clip-path="url(#clip-path)">
    <g id="Grupo_1179510" data-name="Grupo 1179510">
      <g id="Grupo_1179509" data-name="Grupo 1179509" clip-path="url(#clip-path)">
        <path id="Trazado_1035552" data-name="Trazado 1035552" d="M49.5,222.634c-66,38.1-65.995,99.88,0,137.983s173,38.1,239,0,65.995-99.88,0-137.983-173-38.1-239,0" transform="translate(0 -45.456)" fill="#f5f5f5"/>
      </g>
    </g>
    <g id="Grupo_1179512" data-name="Grupo 1179512">
      <g id="Grupo_1179511" data-name="Grupo 1179511" clip-path="url(#clip-path)">
        <path id="Trazado_1035553" data-name="Trazado 1035553" d="M192.826,324.342c-3.627,2.51-7.4,5.032-11.708,5.968s-9.331-.063-12.019-3.559c-4.206-5.472-2.014-15.2,1.774-20.148a39.349,39.349,0,0,1,4.163-4.634C187.1,290.52,204.9,288.6,220.622,291.58c8.989,1.7,19.675,4.82,26.883,10.721a13.782,13.782,0,0,1,4.766,6.9,7.038,7.038,0,0,1-1.128,6.432A8.748,8.748,0,0,1,246.562,318c-7.387,1.84-15.137.583-22.7-.286-5.461-.628-11.087-1.035-16.513.09a38.822,38.822,0,0,0-14.524,6.543" transform="translate(-39.074 -68.007)" fill="#e0e0e0"/>
        <path id="Trazado_1035554" data-name="Trazado 1035554" d="M172.244,366.721a8.228,8.228,0,0,1-7.978-6.605l-2.077-10.937a116.179,116.179,0,0,1-13.766-3.355,1.666,1.666,0,0,0-.2-.011,2.3,2.3,0,0,0-.433.04l-18.607,8.619a9.723,9.723,0,0,1-4.056.849,10.033,10.033,0,0,1-4.944-1.253l-18.462-10.659a6.691,6.691,0,0,1-.575-11.456l11.7-8.419a40.956,40.956,0,0,1-3.3-4.952l-23.866-1.511a7.809,7.809,0,0,1-7.3-7.778V295.566a7.809,7.809,0,0,1,7.3-7.779l23.865-1.509a40.806,40.806,0,0,1,3.3-4.952l-11.7-8.419a6.692,6.692,0,0,1,.574-11.456l18.466-10.661a10.031,10.031,0,0,1,4.942-1.251,9.706,9.706,0,0,1,4.056.848l18.609,8.62a2.276,2.276,0,0,0,.431.04,1.644,1.644,0,0,0,.2-.011,115.674,115.674,0,0,1,13.766-3.353l2.076-10.939a8.234,8.234,0,0,1,7.978-6.6h27.148a8.229,8.229,0,0,1,7.979,6.606l2.077,10.937a115.805,115.805,0,0,1,13.768,3.355,1.87,1.87,0,0,0,.2.01,2.3,2.3,0,0,0,.431-.039l18.608-8.62a9.71,9.71,0,0,1,4.059-.848,10.022,10.022,0,0,1,4.941,1.251l18.463,10.66a6.692,6.692,0,0,1,.575,11.455l-11.7,8.42a40.774,40.774,0,0,1,3.3,4.952l23.87,1.511a7.814,7.814,0,0,1,7.3,7.779v13.726a7.8,7.8,0,0,1-7.3,7.777L262.1,318.582a40.974,40.974,0,0,1-3.306,4.952l11.7,8.419a6.69,6.69,0,0,1-.574,11.455l-18.464,10.661a10.032,10.032,0,0,1-4.943,1.252,9.71,9.71,0,0,1-4.056-.848l-18.606-8.62a2.183,2.183,0,0,0-.435-.04,1.88,1.88,0,0,0-.2.009,115.831,115.831,0,0,1-13.768,3.356l-2.078,10.941a8.239,8.239,0,0,1-7.978,6.6Zm-27.962-85.189c-10.087,5.823-15.641,13.245-15.641,20.9s5.555,15.076,15.641,20.9c11.009,6.356,25.762,9.857,41.539,9.857s30.527-3.5,41.535-9.855c10.085-5.823,15.64-13.245,15.64-20.9s-5.555-15.077-15.641-20.9c-11.009-6.356-25.76-9.855-41.536-9.855s-30.527,3.5-41.536,9.856" transform="translate(-18.358 -55.782)" fill="#e0e0e0"/>
        <path id="Trazado_1035555" data-name="Trazado 1035555" d="M56.879,378.813,16.633,355.578a1.316,1.316,0,0,1,0-2.493l9.861-5.694a4.774,4.774,0,0,1,4.319,0l40.246,23.236a1.316,1.316,0,0,1,0,2.493l-4.931,2.847,50.508,29.16c1.192.688.693.924.134,1.247s-.967.611-2.16-.077L64.1,377.136,61.2,378.813a4.772,4.772,0,0,1-4.318,0" transform="translate(-3.687 -81.252)" fill="#e0e0e0"/>
        <path id="Trazado_1035556" data-name="Trazado 1035556" d="M393.13,362.035s-2.824,1.63-8.724,0l-45.8,26.444c-2.822,1.629-15.267,3.777-15.267,3.777l-23.991,13.851-4.483,1.539-.535-.279,2.837-2.519L321.156,391s6.543-6.3,8.724-7.555L375.682,357s-2.656-3.5,0-5.038c3.333-1.259,19.881,7.948,17.449,10.074" transform="translate(-68.944 -82.416)" fill="#e0e0e0"/>
      </g>
    </g>
    <g id="Grupo_1179520" data-name="Grupo 1179520">
      <g id="Grupo_1179519" data-name="Grupo 1179519" clip-path="url(#clip-path)">
        <path id="Trazado_1035557" data-name="Trazado 1035557" d="M105.16,246.492l-.005,0,.044,16.027.007,0a1.551,1.551,0,0,0,.733,1.227l8.446,6.077a4.119,4.119,0,0,1-2.136.9l-24.6,1.557a2.486,2.486,0,0,0-2.3,2.45V288.46c0,.022.012.042.012.065l.031,15.941a2.488,2.488,0,0,0,2.3,2.45l24.6,1.556a4.1,4.1,0,0,1,2.094.87l-8.492,6.112a1.545,1.545,0,0,0-.733,1.226h-.008l.044,16.053h0a1.523,1.523,0,0,0,.862,1.226l18.465,10.659a4.974,4.974,0,0,0,4.085.184l18.717-8.671a6.867,6.867,0,0,1,4.282-.255,111.248,111.248,0,0,0,14.531,3.454,3.536,3.536,0,0,1,2.7,2.628l2.341,12.333a2.891,2.891,0,0,0,2.733,2.264h27.148a2.892,2.892,0,0,0,2.734-2.264l2.342-12.333a3.537,3.537,0,0,1,2.706-2.628,111.261,111.261,0,0,0,14.532-3.455,6.854,6.854,0,0,1,4.28.257l18.717,8.671a4.976,4.976,0,0,0,4.085-.184l18.464-10.66a1.5,1.5,0,0,0,.858-1.253l.006,0-.044-16.022-.008,0a1.543,1.543,0,0,0-.732-1.228l-8.446-6.078a4.132,4.132,0,0,1,2.136-.9l24.6-1.556a2.488,2.488,0,0,0,2.3-2.45l-.038-19.251c0-.008-.005-.015-.005-.023V274.734a2.487,2.487,0,0,0-2.3-2.45l-24.6-1.558a4.106,4.106,0,0,1-2.1-.871l8.494-6.112a1.541,1.541,0,0,0,.734-1.244l.006,0-.044-16h-.006a1.5,1.5,0,0,0-.858-1.256l-18.464-10.66a4.981,4.981,0,0,0-4.086-.183l-18.717,8.671a6.863,6.863,0,0,1-4.283.255,111.033,111.033,0,0,0-14.527-3.454,3.533,3.533,0,0,1-2.7-2.628l-2.343-12.333a2.89,2.89,0,0,0-2.734-2.264H173.878a2.89,2.89,0,0,0-2.733,2.264L168.8,237.242a3.534,3.534,0,0,1-2.705,2.628,111.051,111.051,0,0,0-14.53,3.454,6.864,6.864,0,0,1-4.281-.257L128.57,234.4a4.978,4.978,0,0,0-4.086.184l-18.466,10.66a1.51,1.51,0,0,0-.858,1.251m126.5,60.628c-24.414,14.1-64,14.094-88.413,0-9.547-5.512-15.343-12.365-17.424-19.508,2.64-5.824,8.477-11.512,17.432-16.681,24.416-14.1,64-14.1,88.412,0,9.551,5.513,15.146,11.649,17.024,17.917-2.366,6.7-8.035,13.081-17.031,18.275" transform="translate(-19.991 -52.152)" fill="#ba68c8"/>
        <g id="Grupo_1179515" data-name="Grupo 1179515" transform="translate(65.37 194.33)" opacity="0.2">
          <g id="Grupo_1179514" data-name="Grupo 1179514">
            <g id="Grupo_1179513" data-name="Grupo 1179513" clip-path="url(#clip-path-5)">
              <path id="Trazado_1035558" data-name="Trazado 1035558" d="M85.392,311.766A2.477,2.477,0,0,0,87.7,314.2l24.608,1.567a3.484,3.484,0,0,1,1.206.349l-.028-16.03a3.329,3.329,0,0,0-1.237-.332l-24.6-1.551a2.536,2.536,0,0,1-2.28-2.136ZM105.2,269.829l.015-.01a1.584,1.584,0,0,0,.732,1.231l8.465,6.075a4.759,4.759,0,0,0,1.162-1.319,36.622,36.622,0,0,1,4.958-6.921,2.593,2.593,0,0,1,.273-.325,2.318,2.318,0,0,0,.493-.849,2.77,2.77,0,0,0,.07-.312,1.966,1.966,0,0,0-.021-.616,1.908,1.908,0,0,0-.46-.905,1.483,1.483,0,0,0-.352-.32L105.9,255.029a1.924,1.924,0,0,1-.334-.288,1,1,0,0,1-.3-.478.979.979,0,0,1-.094-.489l-.015.009Zm.009,70.2a1.5,1.5,0,0,0,.868,1.215l18.457,10.662a4.833,4.833,0,0,0,2.855.486l-.027-15.99a4.853,4.853,0,0,1-2.863-.5l-18.473-10.652a1.63,1.63,0,0,1-.863-1.133Zm120.621,2.956a5.912,5.912,0,0,1,1.836.425l18.711,8.675a4.6,4.6,0,0,0,1.676.33l-.042-15.981a3.9,3.9,0,0,1-1.669-.355l-18.712-8.675a5.974,5.974,0,0,0-1.844-.441Zm-54.271,19.492a2.911,2.911,0,0,0,2.379,1.367l27.137,0a2.834,2.834,0,0,0,1.644-.594l-.02-16.014a2.755,2.755,0,0,1-1.66.6l-27.161-.009a2.845,2.845,0,0,1-2.273-1.219Z" transform="translate(-85.367 -253.774)"/>
            </g>
          </g>
        </g>
        <path id="Trazado_1035559" data-name="Trazado 1035559" d="M124.485,234.581l-18.466,10.66a1.377,1.377,0,0,0-.125,2.5l14.633,10.528a1.951,1.951,0,0,1,.271,3,36.837,36.837,0,0,0-5.225,7.248,4.541,4.541,0,0,1-3.323,2.207l-24.605,1.557a2.486,2.486,0,0,0-2.3,2.45V288.46a2.486,2.486,0,0,0,2.3,2.449l24.605,1.558a4.546,4.546,0,0,1,3.325,2.208,36.769,36.769,0,0,0,5.225,7.247,1.95,1.95,0,0,1-.272,3L105.9,315.453a1.376,1.376,0,0,0,.125,2.5l18.464,10.66a4.974,4.974,0,0,0,4.085.184l18.717-8.671a6.874,6.874,0,0,1,4.283-.255,111.114,111.114,0,0,0,14.53,3.454,3.537,3.537,0,0,1,2.7,2.628l2.342,12.335a2.89,2.89,0,0,0,2.734,2.263h27.148a2.893,2.893,0,0,0,2.734-2.264L206.1,325.95a3.538,3.538,0,0,1,2.705-2.628,110.977,110.977,0,0,0,14.53-3.455,6.862,6.862,0,0,1,4.281.256l18.717,8.671a4.978,4.978,0,0,0,4.086-.184l18.462-10.66a1.376,1.376,0,0,0,.125-2.5l-14.632-10.528a1.953,1.953,0,0,1-.271-3,36.772,36.772,0,0,0,5.226-7.246,4.546,4.546,0,0,1,3.326-2.208l24.6-1.557a2.486,2.486,0,0,0,2.3-2.45V274.734a2.487,2.487,0,0,0-2.3-2.45l-24.6-1.558a4.544,4.544,0,0,1-3.325-2.209,36.864,36.864,0,0,0-5.226-7.246,1.949,1.949,0,0,1,.272-3l14.632-10.529a1.376,1.376,0,0,0-.125-2.5l-18.464-10.66a4.978,4.978,0,0,0-4.086-.183l-18.716,8.671a6.866,6.866,0,0,1-4.284.255,110.992,110.992,0,0,0-14.526-3.454,3.535,3.535,0,0,1-2.7-2.627l-2.343-12.334a2.89,2.89,0,0,0-2.734-2.264H173.879a2.892,2.892,0,0,0-2.734,2.264L168.8,237.242a3.536,3.536,0,0,1-2.705,2.628,111,111,0,0,0-14.531,3.454,6.859,6.859,0,0,1-4.28-.257L128.57,234.4a4.973,4.973,0,0,0-4.085.184m107.173,21.493c24.414,14.1,24.415,36.951,0,51.046s-64,14.094-88.412,0-24.414-36.949,0-51.045,64-14.095,88.412,0" transform="translate(-19.991 -52.152)" fill="#ba68c8"/>
        <g id="Grupo_1179518" data-name="Grupo 1179518" transform="translate(65.354 170.492)" opacity="0.3">
          <g id="Grupo_1179517" data-name="Grupo 1179517">
            <g id="Grupo_1179516" data-name="Grupo 1179516" clip-path="url(#clip-path-6)">
              <path id="Trazado_1035560" data-name="Trazado 1035560" d="M124.485,234.581l-18.466,10.66a1.377,1.377,0,0,0-.125,2.5l14.633,10.528a1.951,1.951,0,0,1,.271,3,36.837,36.837,0,0,0-5.225,7.248,4.541,4.541,0,0,1-3.323,2.207l-24.605,1.557a2.486,2.486,0,0,0-2.3,2.45V288.46a2.486,2.486,0,0,0,2.3,2.449l24.605,1.558a4.546,4.546,0,0,1,3.325,2.208,36.769,36.769,0,0,0,5.225,7.247,1.95,1.95,0,0,1-.272,3L105.9,315.453a1.376,1.376,0,0,0,.125,2.5l18.464,10.66a4.974,4.974,0,0,0,4.085.184l18.717-8.671a6.874,6.874,0,0,1,4.283-.255,111.114,111.114,0,0,0,14.53,3.454,3.537,3.537,0,0,1,2.7,2.628l2.342,12.335a2.89,2.89,0,0,0,2.734,2.263h27.148a2.893,2.893,0,0,0,2.734-2.264L206.1,325.95a3.538,3.538,0,0,1,2.705-2.628,110.977,110.977,0,0,0,14.53-3.455,6.862,6.862,0,0,1,4.281.256l18.717,8.671a4.978,4.978,0,0,0,4.086-.184l18.462-10.66a1.376,1.376,0,0,0,.125-2.5l-14.632-10.528a1.953,1.953,0,0,1-.271-3,36.772,36.772,0,0,0,5.226-7.246,4.546,4.546,0,0,1,3.326-2.208l24.6-1.557a2.486,2.486,0,0,0,2.3-2.45V274.734a2.487,2.487,0,0,0-2.3-2.45l-24.6-1.558a4.544,4.544,0,0,1-3.325-2.209,36.864,36.864,0,0,0-5.226-7.246,1.949,1.949,0,0,1,.272-3l14.632-10.529a1.376,1.376,0,0,0-.125-2.5l-18.464-10.66a4.978,4.978,0,0,0-4.086-.183l-18.716,8.671a6.866,6.866,0,0,1-4.284.255,110.992,110.992,0,0,0-14.526-3.454,3.535,3.535,0,0,1-2.7-2.627l-2.343-12.334a2.89,2.89,0,0,0-2.734-2.264H173.879a2.892,2.892,0,0,0-2.734,2.264L168.8,237.242a3.536,3.536,0,0,1-2.705,2.628,111,111,0,0,0-14.531,3.454,6.859,6.859,0,0,1-4.28-.257L128.57,234.4a4.973,4.973,0,0,0-4.085.184m107.173,21.493c24.414,14.1,24.415,36.951,0,51.046s-64,14.094-88.412,0-24.414-36.949,0-51.045,64-14.095,88.412,0" transform="translate(-85.345 -222.644)" fill="#fff"/>
            </g>
          </g>
        </g>
      </g>
    </g>
    <g id="Grupo_1179543" data-name="Grupo 1179543">
      <g id="Grupo_1179542" data-name="Grupo 1179542" clip-path="url(#clip-path)">
        <path id="Trazado_1035561" data-name="Trazado 1035561" d="M55.263,352.019l-8.587,14.873L17.7,350.163c-1.19-.593-1.939-1.982-1.939-4.009a13.434,13.434,0,0,1,6.077-10.526c1.68-.969,3.2-1.061,4.3-.423h0Z" transform="translate(-3.692 -78.423)" fill="#ba68c8"/>
        <path id="Trazado_1035562" data-name="Trazado 1035562" d="M65.9,360.246l0-.007c.126,2.267,3.333,2.754,3.333,2.754l-6.077,10.525s-2.025-2.5-4.051-1.51l0-.007c-3,1.295-5.314-.312-5.314-3.888a13.434,13.434,0,0,1,6.077-10.525c3.1-1.788,5.647-.584,6.024,2.658" transform="translate(-12.602 -83.568)" fill="#ba68c8"/>
        <g id="Grupo_1179523" data-name="Grupo 1179523" transform="translate(41.197 273.192)" opacity="0.05">
          <g id="Grupo_1179522" data-name="Grupo 1179522">
            <g id="Grupo_1179521" data-name="Grupo 1179521" clip-path="url(#clip-path-8)">
              <path id="Trazado_1035563" data-name="Trazado 1035563" d="M65.9,360.246l0-.007c.126,2.267,3.333,2.754,3.333,2.754l-6.077,10.525s-2.025-2.5-4.051-1.51l0-.007c-3,1.295-5.314-.312-5.314-3.888a13.434,13.434,0,0,1,6.077-10.525c3.1-1.788,5.647-.584,6.024,2.658" transform="translate(-53.799 -356.76)"/>
            </g>
          </g>
        </g>
        <g id="Grupo_1179526" data-name="Grupo 1179526" transform="translate(49.439 278.974)" opacity="0.05">
          <g id="Grupo_1179525" data-name="Grupo 1179525">
            <g id="Grupo_1179524" data-name="Grupo 1179524" clip-path="url(#clip-path-9)">
              <path id="Trazado_1035564" data-name="Trazado 1035564" d="M70.3,364.31a6.343,6.343,0,0,0,1.455.452l-6.076,10.525a6.345,6.345,0,0,0-1.12-1.021A13.582,13.582,0,0,1,70.3,364.31" transform="translate(-64.562 -364.31)"/>
            </g>
          </g>
        </g>
        <path id="Trazado_1035565" data-name="Trazado 1035565" d="M78.423,365.39l-.508.88a6.373,6.373,0,0,1,.262,1.885A13.433,13.433,0,0,1,72.1,378.68a6.388,6.388,0,0,1-1.763.715l-.508.88-2.025-1.17c-1.1-.634-1.78-2-1.78-3.934A13.432,13.432,0,0,1,72.1,364.646c1.679-.969,3.2-1.061,4.3-.426Z" transform="translate(-15.465 -85.22)" fill="#ba68c8"/>
        <path id="Trazado_1035566" data-name="Trazado 1035566" d="M68.669,376.7a13.43,13.43,0,0,1,6.076-10.525c3.357-1.938,6.077-.367,6.077,3.509a13.431,13.431,0,0,1-6.077,10.525c-3.356,1.937-6.076.367-6.076-3.509" transform="translate(-16.085 -85.578)" fill="#ba68c8"/>
        <g id="Grupo_1179529" data-name="Grupo 1179529" transform="translate(52.584 279.765)" opacity="0.15">
          <g id="Grupo_1179528" data-name="Grupo 1179528">
            <g id="Grupo_1179527" data-name="Grupo 1179527" clip-path="url(#clip-path-10)">
              <path id="Trazado_1035567" data-name="Trazado 1035567" d="M68.669,376.7a13.43,13.43,0,0,1,6.076-10.525c3.357-1.938,6.077-.367,6.077,3.509a13.431,13.431,0,0,1-6.077,10.525c-3.356,1.937-6.076.367-6.076-3.509" transform="translate(-68.669 -365.344)"/>
            </g>
          </g>
        </g>
        <g id="Grupo_1179532" data-name="Grupo 1179532" transform="translate(58.097 288.735)" opacity="0.15">
          <g id="Grupo_1179531" data-name="Grupo 1179531">
            <g id="Grupo_1179530" data-name="Grupo 1179530" clip-path="url(#clip-path-11)">
              <path id="Trazado_1035568" data-name="Trazado 1035568" d="M78.8,381.031a11.28,11.28,0,0,1-1.508,1.345l-1.424-4.056,1.716-1.264Z" transform="translate(-75.869 -377.057)"/>
            </g>
          </g>
        </g>
        <g id="Grupo_1179535" data-name="Grupo 1179535" transform="translate(16.79 262.725)" opacity="0.2">
          <g id="Grupo_1179534" data-name="Grupo 1179534">
            <g id="Grupo_1179533" data-name="Grupo 1179533" clip-path="url(#clip-path-12)">
              <path id="Trazado_1035569" data-name="Trazado 1035569" d="M22.15,343.929h0a1.675,1.675,0,0,0,.613,2.288l20.7,11.949a1.675,1.675,0,1,0,1.675-2.9l-20.7-11.95a1.675,1.675,0,0,0-2.288.613" transform="translate(-21.926 -343.091)"/>
            </g>
          </g>
        </g>
        <g id="Grupo_1179538" data-name="Grupo 1179538" transform="translate(20.28 258.608)" opacity="0.2">
          <g id="Grupo_1179537" data-name="Grupo 1179537">
            <g id="Grupo_1179536" data-name="Grupo 1179536" clip-path="url(#clip-path-13)">
              <path id="Trazado_1035570" data-name="Trazado 1035570" d="M26.952,338.219h0a.982.982,0,0,0,.074,1.718L48.112,352.11a2.3,2.3,0,0,0,2.439-.267.981.981,0,0,0-.074-1.718L29.391,337.952a2.3,2.3,0,0,0-2.439.267" transform="translate(-26.484 -337.714)"/>
            </g>
          </g>
        </g>
        <g id="Grupo_1179541" data-name="Grupo 1179541" transform="translate(14.999 268.063)" opacity="0.2">
          <g id="Grupo_1179540" data-name="Grupo 1179540">
            <g id="Grupo_1179539" data-name="Grupo 1179539" clip-path="url(#clip-path-14)">
              <path id="Trazado_1035571" data-name="Trazado 1035571" d="M19.615,351.021h0a.981.981,0,0,1,1.524-.795L42.225,362.4a2.3,2.3,0,0,1,.988,2.246.981.981,0,0,1-1.524.795L20.6,353.266a2.3,2.3,0,0,1-.988-2.245" transform="translate(-19.587 -350.061)"/>
            </g>
          </g>
        </g>
        <path id="Trazado_1035572" data-name="Trazado 1035572" d="M129.722,402.927v4.052l-10.128-3.294s-2.025-3.724-4.052-4.893L77.055,376.571l-1.186-3.365,1.186-.686,38.487,22.22a4.042,4.042,0,0,0,4.052-.215Z" transform="translate(-17.772 -87.259)" fill="#455a64"/>
        <path id="Trazado_1035573" data-name="Trazado 1035573" d="M128.536,403.823v4.052l-10.129-3.294s-2.025-3.723-4.051-4.893l-38.487-22.22v-4.052l38.487,22.221a4.043,4.043,0,0,0,4.051-.215Z" transform="translate(-17.772 -87.469)" fill="#37474f"/>
        <path id="Trazado_1035574" data-name="Trazado 1035574" d="M144.646,416.967l1.186-.686v-4.052l-1.186.686Z" transform="translate(-33.882 -96.56)" fill="#263238"/>
        <path id="Trazado_1035575" data-name="Trazado 1035575" d="M142.734,409.658l-1.186.686-10.129-8.4,1.187-.687Z" transform="translate(-30.784 -93.99)" fill="#455a64"/>
      </g>
    </g>
    <g id="Grupo_1179560" data-name="Grupo 1179560">
      <g id="Grupo_1179559" data-name="Grupo 1179559" clip-path="url(#clip-path)">
        <path id="Trazado_1035576" data-name="Trazado 1035576" d="M345.118,379.77c-2.409-1.391-4.362-.263-4.362,2.519a9.64,9.64,0,0,0,4.362,7.555c2.409,1.391,4.362.263,4.362-2.519a9.641,9.641,0,0,0-4.362-7.555" transform="translate(-79.819 -88.818)" fill="#e0e0e0"/>
        <path id="Trazado_1035577" data-name="Trazado 1035577" d="M405.256,336.953l0,.009c1.267-.886,3.094-.854,5.132.323a15.31,15.31,0,0,1,6.927,12c0,2.44-.95,4.074-2.443,4.68l0,0c-3.175,1.78-7.09.061-7.09.061l-5.552-11.038c0-2.951,1.164-4.92,3.019-6.035" transform="translate(-94.22 -78.785)" fill="#ba68c8"/>
        <g id="Grupo_1179546" data-name="Grupo 1179546" transform="translate(308.018 257.559)" opacity="0.1">
          <g id="Grupo_1179545" data-name="Grupo 1179545">
            <g id="Grupo_1179544" data-name="Grupo 1179544" clip-path="url(#clip-path-16)">
              <path id="Trazado_1035578" data-name="Trazado 1035578" d="M405.256,336.953l0,.009c1.267-.886,3.094-.854,5.132.323a15.31,15.31,0,0,1,6.927,12c0,2.44-.95,4.074-2.443,4.68l0,0c-3.175,1.78-7.09.061-7.09.061l-5.552-11.038c0-2.951,1.164-4.92,3.019-6.035" transform="translate(-402.238 -336.345)"/>
            </g>
          </g>
        </g>
        <g id="Grupo_1179549" data-name="Grupo 1179549" transform="translate(311.775 266.373)" opacity="0.1">
          <g id="Grupo_1179548" data-name="Grupo 1179548">
            <g id="Grupo_1179547" data-name="Grupo 1179547" clip-path="url(#clip-path-17)">
              <path id="Trazado_1035579" data-name="Trazado 1035579" d="M410.442,351.251a8.847,8.847,0,0,0,7.249-3.4,12.438,12.438,0,0,1,.779,4.124c0,2.44-.95,4.074-2.442,4.679l0,0c-2.658,1.49-5.825.531-6.79.179a.673.673,0,0,0-.3-.117l-1.794-3.568Z" transform="translate(-407.145 -347.855)"/>
            </g>
          </g>
        </g>
        <path id="Trazado_1035580" data-name="Trazado 1035580" d="M328.226,380.744h0s9.685-8.768,10.707-9.354,44.931-25.941,45.823-26.456l0,0,.018-.011v0a3.075,3.075,0,0,1,3.064.316,9.641,9.641,0,0,1,4.362,7.555,3.069,3.069,0,0,1-1.273,2.822l0,0h0c-.189.109-43.92,25.365-45.807,26.447s-13.408,4.576-13.408,4.576a1.735,1.735,0,0,1-1.666-.194,5.364,5.364,0,0,1-2.427-4.2,1.778,1.778,0,0,1,.608-1.5" transform="translate(-76.741 -80.729)" fill="#ba68c8"/>
        <g id="Grupo_1179552" data-name="Grupo 1179552" transform="translate(250.877 290.357)" opacity="0.1">
          <g id="Grupo_1179551" data-name="Grupo 1179551">
            <g id="Grupo_1179550" data-name="Grupo 1179550" clip-path="url(#clip-path-18)">
              <path id="Trazado_1035581" data-name="Trazado 1035581" d="M327.618,390.332a1.774,1.774,0,0,1,.608-1.5s8.951-8.1,10.548-9.248a2.945,2.945,0,0,1,3.266.185,9.643,9.643,0,0,1,4.363,7.556,3.061,3.061,0,0,1-1.283,2.826h0c-1.891,1.084-13.407,4.575-13.407,4.575a1.735,1.735,0,0,1-1.666-.193,5.365,5.365,0,0,1-2.427-4.2" transform="translate(-327.618 -379.175)"/>
            </g>
          </g>
        </g>
        <path id="Trazado_1035582" data-name="Trazado 1035582" d="M371.7,373.71a3.064,3.064,0,0,0,1.281-2.826,9.643,9.643,0,0,0-4.362-7.556,3.065,3.065,0,0,0-3.084-.306s-2.529,1.025-10.751,5.34-6.716,4.742-6.716,4.742l.593-.339a3.066,3.066,0,0,1,3.085.306,9.64,9.64,0,0,1,4.362,7.555,3.066,3.066,0,0,1-1.277,2.824l-.793.456s1.074.346,6.735-2.951A129.583,129.583,0,0,0,371.7,373.71" transform="translate(-81.506 -84.967)" fill="#37474f"/>
        <path id="Trazado_1035583" data-name="Trazado 1035583" d="M368.616,363.329a3.066,3.066,0,0,0-3.085-.306s-2.529,1.025-10.751,5.34-6.716,4.742-6.716,4.742l.593-.339a3.066,3.066,0,0,1,3.085.306,7.673,7.673,0,0,1,1.848,1.545l16.874-9.742a7.7,7.7,0,0,0-1.849-1.547" transform="translate(-81.506 -84.967)" fill="#455a64"/>
        <g id="Grupo_1179555" data-name="Grupo 1179555" transform="translate(250.877 299.782)" opacity="0.25">
          <g id="Grupo_1179554" data-name="Grupo 1179554">
            <g id="Grupo_1179553" data-name="Grupo 1179553" clip-path="url(#clip-path-19)">
              <path id="Trazado_1035584" data-name="Trazado 1035584" d="M332.471,396.017a5.365,5.365,0,0,0-2.427-4.2c-1.34-.773-2.427-.146-2.427,1.4a5.365,5.365,0,0,0,2.427,4.2c1.34.773,2.427.146,2.427-1.4" transform="translate(-327.618 -391.483)"/>
            </g>
          </g>
        </g>
        <path id="Trazado_1035585" data-name="Trazado 1035585" d="M294.327,411.236a.322.322,0,0,0,.145.258.12.12,0,0,0,.092.016v.005c.214-.076,3.484-1.278,4.5-1.708a1.989,1.989,0,0,0,.28-.123l23.4-13.51a.5.5,0,0,0,.221-.467,1.5,1.5,0,0,0-.21-.714,1.541,1.541,0,0,0-.51-.538.512.512,0,0,0-.51-.048l-23.41,13.515a6.924,6.924,0,0,0-.623.446c-1.149.875-3.195,2.625-3.35,2.781l.005.005a.094.094,0,0,0-.032.08" transform="translate(-68.943 -92.375)" fill="#455a64"/>
        <path id="Trazado_1035586" data-name="Trazado 1035586" d="M294.327,415.521a.322.322,0,0,0,.145.258.12.12,0,0,0,.092.016v.005c.214-.076,3.484-1.278,4.5-1.708-.3-.285-.95-.129-1.578.15a18.622,18.622,0,0,1-2.911,1.3c-.113-.139,1.381-1.025,2.272-1.675s1.1-1.175.853-1.218c-1.149.875-3.195,2.625-3.35,2.781l.005.005a.094.094,0,0,0-.032.08" transform="translate(-68.943 -96.66)" fill="#37474f"/>
        <g id="Grupo_1179558" data-name="Grupo 1179558" transform="translate(226.238 302.33)" opacity="0.2">
          <g id="Grupo_1179557" data-name="Grupo 1179557">
            <g id="Grupo_1179556" data-name="Grupo 1179556" clip-path="url(#clip-path-20)">
              <path id="Trazado_1035587" data-name="Trazado 1035587" d="M322.254,394.811s-23.326,13.4-23.67,13.664c-.178.134-.335.464-.731.829a15.432,15.432,0,0,1-1.865,1.331c-1.5.952.394.108,2.067-1.026.385-.261.456-.889.888-1.133,1.948-1.106,23.816-13.137,23.816-13.137s-.227-.461-.5-.528" transform="translate(-295.443 -394.811)" fill="#fff"/>
            </g>
          </g>
        </g>
      </g>
    </g>
    <g id="Grupo_1179595" data-name="Grupo 1179595">
      <g id="Grupo_1179594" data-name="Grupo 1179594" clip-path="url(#clip-path)">
        <path id="Trazado_1035588" data-name="Trazado 1035588" d="M229.649,281.624l-1.534-13.655,15.552-1.4s-.658,10.525-.564,15.352c.044,2.275,1.653,6.556,1.653,6.556s-6.51,3.379-9.888,2-5.613-6.707-5.532-7.683.314-1.167.314-1.167" transform="translate(-53.434 -62.441)" fill="#ffbda7"/>
        <path id="Trazado_1035589" data-name="Trazado 1035589" d="M262.544,311.194c.214,0,.375,1.983-.809,2.954a15.349,15.349,0,0,1-10.917,2.5c-5.208-.755-8-2.394-10.061-4.151s-4.938-4.236-7.29-4.79a16.949,16.949,0,0,1-5.814-2.995c-.689-.68-.537-3.647-.537-3.647Z" transform="translate(-53.197 -70.523)" fill="#263238"/>
        <path id="Trazado_1035590" data-name="Trazado 1035590" d="M229.414,286.2a.837.837,0,0,0-.8.681c-.175.816-.394,3.191-.763,4.527a23.662,23.662,0,0,0-.648,7.2c.26,1.525,4.392,3.425,6.661,4.322a29.094,29.094,0,0,1,7.317,4.732c2.416,2.034,7.537,4.195,10.94,4.229,4.026.041,8.582-1.165,9.655-2.984,1.327-2.252,2.313-4.878-3.6-7.705-1.12-.535-5.046-2.916-6.383-3.778-3.617-2.331-6.154-4.458-7.762-8.5a2.238,2.238,0,0,0-.835-1.243,1.934,1.934,0,0,0-1.159-.122,39.779,39.779,0,0,0-5.887,1c-.809.362-1.953.78-1.954,1.79a3.326,3.326,0,0,0,.206,1.031c.067.207.118.482-.067.6s-.4-.024-.555-.163a15.3,15.3,0,0,1-1.574-1.93,17.126,17.126,0,0,0-1.5-1.745,10.174,10.174,0,0,1-1.01-.67c-.356-.362-.261-.8-.27-1.276" transform="translate(-53.2 -67.039)" fill="#455a64"/>
        <path id="Trazado_1035591" data-name="Trazado 1035591" d="M244.495,312.062c-1.025-.864-2.115-1.7-3.211-2.449v-.005s6.941,4.323,9.812,2.465c1.85-1.2,1.008-2.705.973-3.183s6.478-3.735,8.257-3.911c.489.277.894.515,1.157.624,4.627,1.915,5.2,4.292,4.372,7.254-1.073,1.819-5.15,3.647-10.353,3.558-3.4-.058-8.593-2.318-11.009-4.352" transform="translate(-56.518 -71.438)" fill="#37474f"/>
        <path id="Trazado_1035592" data-name="Trazado 1035592" d="M248.656,303.091c3.684,1.525,2.088,2.181,1.046,2.309s-7.222-3.572-10.976-6.606c-3.917-3.165-6.936-7.374-8.391-8.536-.542-.434-1.125-.965-1.643-1.46.113-.8.205-1.535.288-1.917a.836.836,0,0,1,.8-.681c.008.474-.087.914.27,1.276a10.258,10.258,0,0,0,1.01.669,17.147,17.147,0,0,1,1.5,1.746,15.278,15.278,0,0,0,1.574,1.929c3.166,4.106,10.832,9.747,14.516,11.272" transform="translate(-53.569 -67.039)" fill="#37474f"/>
        <path id="Trazado_1035593" data-name="Trazado 1035593" d="M255.687,309.209a.368.368,0,0,1-.232-.086.358.358,0,0,1-.042-.51c1.071-1.245,6.092-4.157,8.816-3.814a.362.362,0,1,1-.092.718c-2.545-.313-7.316,2.578-8.165,3.565a.368.368,0,0,1-.286.128" transform="translate(-59.808 -71.39)" fill="#263238"/>
        <path id="Trazado_1035594" data-name="Trazado 1035594" d="M251.507,306.574a.364.364,0,0,1-.23-.086.358.358,0,0,1-.043-.51c1.071-1.244,6.089-4.153,8.816-3.813a.362.362,0,1,1-.092.717c-2.546-.31-7.315,2.577-8.165,3.563a.364.364,0,0,1-.286.128" transform="translate(-58.829 -70.773)" fill="#263238"/>
        <path id="Trazado_1035595" data-name="Trazado 1035595" d="M247.324,304.075a.368.368,0,0,1-.231-.086.358.358,0,0,1-.042-.51c1.072-1.245,6.092-4.158,8.816-3.813a.362.362,0,1,1-.092.718c-2.545-.314-7.315,2.576-8.165,3.563a.369.369,0,0,1-.286.128" transform="translate(-57.849 -70.187)" fill="#263238"/>
        <path id="Trazado_1035596" data-name="Trazado 1035596" d="M243.457,301.235a.364.364,0,0,1-.23-.086.357.357,0,0,1-.043-.509c1.071-1.246,6.1-4.156,8.816-3.813a.362.362,0,1,1-.092.718c-2.542-.312-7.315,2.577-8.165,3.563a.365.365,0,0,1-.286.128" transform="translate(-56.943 -69.522)" fill="#263238"/>
        <path id="Trazado_1035597" data-name="Trazado 1035597" d="M239.67,298.389a.372.372,0,0,1-.227-.082.358.358,0,0,1-.05-.509c1.473-1.766,6.718-4.18,9.443-3.839a.361.361,0,0,1,.318.4.366.366,0,0,1-.41.314c-2.453-.306-7.476,2.015-8.784,3.581a.366.366,0,0,1-.29.132" transform="translate(-56.056 -68.849)" fill="#263238"/>
        <path id="Trazado_1035598" data-name="Trazado 1035598" d="M193.375,284.77l3.7-16.4L180.9,265.848l-.26,16.188s-1.235,4.353-.324,5.85,10.63,3.071,11.52,2.075,1.541-5.192,1.541-5.192" transform="translate(-42.158 -62.272)" fill="#ffbda7"/>
        <path id="Trazado_1035599" data-name="Trazado 1035599" d="M190.041,322.511c-.426,3.678-1.2,6.056-2.788,8.049s-4.428,2.332-7.234,1.348-6.357-3.131-7.014-6.429a18.057,18.057,0,0,1,.429-8.83Z" transform="translate(-40.439 -74.172)" fill="#263238"/>
        <path id="Trazado_1035600" data-name="Trazado 1035600" d="M179.043,286.988c-1.173-.062-.855,2.833-1.409,7.793-.6,5.365-3.017,9.57-3.878,13.872-.983,4.915-.8,7.187,1.035,10.456s8.694,7.1,12.361,3.184c2.989-3.189,3.3-7.092,3.287-12.121a112.539,112.539,0,0,1,.364-12.753c.412-3.719,1.972-7.156.977-7.7-.106.54-1.1,4.307-1.757,4.247a6.875,6.875,0,0,1,.056-1.414,1.6,1.6,0,0,0-.261-1.248,5.442,5.442,0,0,0-1.886-.959c-1.141-.342-3.179-.769-4.343-1.005-.58-.117-1.163-.214-1.748-.279a5.139,5.139,0,0,0-1.49.006.912.912,0,0,0-.658.43,1.435,1.435,0,0,0-.09.564,3.548,3.548,0,0,1-.2,1.009c-.05.142-.174.309-.339.253a.315.315,0,0,1-.175-.326c.025-.6.113-3.695.152-4.012" transform="translate(-40.563 -67.224)" fill="#455a64"/>
        <path id="Trazado_1035601" data-name="Trazado 1035601" d="M174.092,313.464c-.149.708-1.074,5.4.354,6.445,1.545,1.127,2.6-2.524,2.6-2.524s3.781-.555,9.108,2.215c-.317.741.4,3.4,1.912,3.044s2.359-5.767,2.37-5.837c-.009,4.82-.383,8.593-3.285,11.689-3.666,3.911-10.53.085-12.361-3.184s-2.019-5.541-1.035-10.456c.1-.492.211-.951.335-1.391" transform="translate(-40.563 -73.426)" fill="#37474f"/>
        <path id="Trazado_1035602" data-name="Trazado 1035602" d="M178.139,311.557c-.113,1.806-2.1.949-2.061-1.617s1.384-8.8,1.894-12.991c.339-6.035.58-10.022,1.754-9.96-.008.06-.009.122-.015.183,0,0-.122,3.438-.138,3.829-.211,3.686-.258,10.85-.783,14.18a51.733,51.733,0,0,0-.65,6.376" transform="translate(-41.244 -67.224)" fill="#37474f"/>
        <path id="Trazado_1035603" data-name="Trazado 1035603" d="M189.288,314.107a50.924,50.924,0,0,0,1.425-6.211c.568-3.3,2.541-9.894,3.518-13.441.315-.582,1.309-3.9,1.309-3.9.811.23,0,3.391-.38,4.87s-.844,3.065-1.319,5.186c-1.214,4.183-1.329,10.46-2.111,12.868s-2.913,2.355-2.442.625" transform="translate(-44.323 -68.06)" fill="#37474f"/>
        <path id="Trazado_1035604" data-name="Trazado 1035604" d="M187.317,320.816a.548.548,0,0,1-.156-.061,16.041,16.041,0,0,0-8.966-1.93.482.482,0,0,1-.517-.338.353.353,0,0,1,.331-.432,16.8,16.8,0,0,1,9.588,2.068.381.381,0,0,1,.156.54.42.42,0,0,1-.436.152" transform="translate(-41.617 -74.482)" fill="#263238"/>
        <path id="Trazado_1035605" data-name="Trazado 1035605" d="M188.524,315.785a.545.545,0,0,1-.142-.053,19.868,19.868,0,0,0-10.039-2.156.481.481,0,0,1-.505-.352.356.356,0,0,1,.348-.421,20.575,20.575,0,0,1,10.606,2.282.388.388,0,0,1,.179.538.418.418,0,0,1-.446.163" transform="translate(-41.655 -73.259)" fill="#263238"/>
        <path id="Trazado_1035606" data-name="Trazado 1035606" d="M179,308.716a.473.473,0,0,1-.355-.3.352.352,0,0,1,.3-.455c5.319-.931,10.382,2.064,10.6,2.192a.381.381,0,0,1,.157.541.452.452,0,0,1-.593.09c-.048-.028-4.967-2.932-9.917-2.06a.479.479,0,0,1-.184,0" transform="translate(-41.841 -72.094)" fill="#263238"/>
        <path id="Trazado_1035607" data-name="Trazado 1035607" d="M179.613,304.152a.474.474,0,0,1-.352-.3.348.348,0,0,1,.285-.459,15.553,15.553,0,0,1,10.812,2.189.375.375,0,0,1,.119.545.455.455,0,0,1-.6.056,14.814,14.814,0,0,0-10.071-2.032.486.486,0,0,1-.191,0" transform="translate(-41.986 -71.012)" fill="#263238"/>
        <path id="Trazado_1035608" data-name="Trazado 1035608" d="M180.33,299.051a.477.477,0,0,1-.351-.292.349.349,0,0,1,.278-.463c5.491-1.13,10.666,2.163,10.883,2.306a.376.376,0,0,1,.133.543.446.446,0,0,1-.6.069c-.051-.032-5.051-3.212-10.149-2.162a.487.487,0,0,1-.2,0" transform="translate(-42.154 -69.818)" fill="#263238"/>
        <path id="Trazado_1035609" data-name="Trazado 1035609" d="M186.028,129.47c-2.225,29.1-3.205,72.514-3.205,72.514-.2,2.209-1.456,5.3-2.483,16.2a188.708,188.708,0,0,0-.266,24.819s9.721,4.15,15.762,2.006c0,0,5.718-21.529,8.859-35.072,2.973-12.817,5.163-32.859,5.163-32.859l3.529,19.309s-.443,8.295-.236,14.1c.242,6.752,3.887,32.605,3.887,32.605s9.031,5.409,15.315.253c0,0,3.059-37.945,3.263-46.066.4-15.931.856-47.262-1.026-67.813Z" transform="translate(-42.112 -30.327)" fill="#37474f"/>
        <path id="Trazado_1035610" data-name="Trazado 1035610" d="M219.058,183.865l3.176-20.7s7.317-1.115,11.077-4.734c0,0-2.434,4.8-9.338,6.647l-3.154,18.84,1.767,19.253Z" transform="translate(-51.312 -37.111)" fill="#263238"/>
        <path id="Trazado_1035611" data-name="Trazado 1035611" d="M179.947,276.978c2.715,2.129,10.62,3.944,16.03,1.987l1.09-4.569c-4.084,1.376-12.5.5-17.027-2.292Z" transform="translate(-42.151 -63.738)" fill="#455a64"/>
        <path id="Trazado_1035612" data-name="Trazado 1035612" d="M228.264,277.155c1.832,1.857,10.322,3.4,15.337.456l.371-4.585c-3.8,2.118-12.538,1.757-16.263-.418Z" transform="translate(-53.338 -63.856)" fill="#455a64"/>
        <path id="Trazado_1035613" data-name="Trazado 1035613" d="M184.338,188.827s-.842,20.477-.784,21.969,11.189,4.439,11.477,3.492c.481-1.578.361-5.1,1.322-22.061-9.229-1.193-12.015-3.4-12.015-3.4" transform="translate(-42.995 -44.231)" fill="#455a64"/>
        <path id="Trazado_1035614" data-name="Trazado 1035614" d="M194.972,200.17a3.573,3.573,0,0,0-1.05-.087c-.409-.01-.817-.028-1.224-.062a18.829,18.829,0,0,1-2.564-.394,20.279,20.279,0,0,1-2.81-.854c-.747-.286-1.453-.672-2.2-.951-.07-.026-.081.109-.036.142a10.769,10.769,0,0,0,2.351,1.2,17.668,17.668,0,0,0,2.324.749,18.958,18.958,0,0,0,2.557.454q.646.069,1.295.094a2.82,2.82,0,0,0,1.362-.1c.057-.032.064-.167-.005-.19" transform="translate(-43.349 -46.337)" fill="#37474f"/>
        <path id="Trazado_1035615" data-name="Trazado 1035615" d="M191.29,197.041c-.107-.211-.189-.342-.429-.37a.8.8,0,0,0-.561.143.673.673,0,0,0-.276.464.773.773,0,0,0,.4.77.764.764,0,0,0,.8-.013.555.555,0,0,0,.194-.468,1.167,1.167,0,0,0-.123-.526m-.211.625a.453.453,0,0,1-.561.1c-.284-.164-.225-.714.123-.751a.433.433,0,0,1,.311.081.456.456,0,0,1,.127.565" transform="translate(-44.51 -46.067)" fill="#37474f"/>
        <path id="Trazado_1035616" data-name="Trazado 1035616" d="M252.18,73.191c2.679,4.284,9.49,13.519,9.49,13.519s14.221-9.863,15.582-11.76c2.729-3.8,3.393-6.945,6.958-7.864s8.064-2,8.064-2l-3.356,16.694c-1.533,1.74-3.424,1.013-7.248,4.766-2.842,2.789-9.773,8.754-15.76,13.32-5.032,3.839-8.639,1.748-10.981-1.1-5.736-6.981-10.581-12.6-10.581-12.6l-8.532-26.09c7.864.867,11.119,4.73,16.364,13.117" transform="translate(-55.238 -14.072)" fill="#ffa8a7"/>
        <path id="Trazado_1035617" data-name="Trazado 1035617" d="M233.573,59.169c7.309-.2,12,3.316,16.6,10.255,2.786,4.2,11.038,16.445,11.038,16.445l10.136-7.038s1.41,4.631,4.5,6.952a4.874,4.874,0,0,0,4.945.89,91.413,91.413,0,0,1-10.949,10.263c-7.665,6.21-10.259,6.728-13.667,4.142-1.686-1.28-2.8-2.678-6.007-6.379-3.852-4.447-6.631-8.213-6.631-8.213Z" transform="translate(-54.712 -13.858)" fill="#263238"/>
        <path id="Trazado_1035618" data-name="Trazado 1035618" d="M208.036,57.2s-10.439,2.124-16.425,3.7c-2.043.536-3.823,6.35-2.952,18.37.35,4.837.725,14.539.767,18.161.057,5.128-2.9,21.944-2.9,21.944,15.814,9.721,45.358,6.57,51.026,1.365,0,0-1.237-28.353-1.436-31.791-.74-12.85-1.571-18.511-5.895-24.375a19.828,19.828,0,0,0-7.669-5.86Z" transform="translate(-43.692 -13.399)" fill="#455a64"/>
        <path id="Trazado_1035619" data-name="Trazado 1035619" d="M270.373,22.478l4.287,1.171-8.351,19.113,1.855,6.877,2.976-.54,8.44-19.3,4.287,1.171c.182.505.347,1.029.5,1.584,2.631,9.756-1.064,23.51-8.254,30.722-3.627,3.638-7.442,4.905-10.673,4.024h0l-4.267-1.166a7.457,7.457,0,0,1-.776-.26l-82.7,81.833c-.478,8.068-3.837,16.687-9.037,21.9-2.7,2.7-5.491,4.1-8.081,4.287l-4.287-1.171,8.351-19.113-1.855-6.877-2.976.54-8.44,19.3-4.287-1.171c-.183-.505-.347-1.029-.5-1.584-2.631-9.757,1.064-23.511,8.253-30.722,3.585-3.6,7.353-4.872,10.559-4.05v-.005l.077.021.054.015,4.123,1.126-.013,0a7.585,7.585,0,0,1,.9.3l82.714-81.844c.478-8.068,3.837-16.687,9.036-21.9,2.7-2.7,5.491-4.1,8.082-4.287" transform="translate(-34.137 -5.265)" fill="#ba68c8"/>
        <g id="Grupo_1179563" data-name="Grupo 1179563" transform="translate(111.598 17.213)" opacity="0.2">
          <g id="Grupo_1179562" data-name="Grupo 1179562">
            <g id="Grupo_1179561" data-name="Grupo 1179561" clip-path="url(#clip-path-22)">
              <path id="Trazado_1035620" data-name="Trazado 1035620" d="M270.373,22.478l4.287,1.171-8.351,19.113,1.855,6.877,2.976-.54,8.44-19.3,4.287,1.171c.182.505.347,1.029.5,1.584,2.631,9.756-1.064,23.51-8.254,30.722-3.627,3.638-7.442,4.905-10.673,4.024h0l-4.267-1.166a7.457,7.457,0,0,1-.776-.26l-82.7,81.833c-.478,8.068-3.837,16.687-9.037,21.9-2.7,2.7-5.491,4.1-8.081,4.287l-4.287-1.171,8.351-19.113-1.855-6.877-2.976.54-8.44,19.3-4.287-1.171c-.183-.505-.347-1.029-.5-1.584-2.631-9.757,1.064-23.511,8.253-30.722,3.585-3.6,7.353-4.872,10.559-4.05v-.005l.077.021.054.015,4.123,1.126-.013,0a7.585,7.585,0,0,1,.9.3l82.714-81.844c.478-8.068,3.837-16.687,9.036-21.9,2.7-2.7,5.491-4.1,8.082-4.287" transform="translate(-145.735 -22.478)" fill="#fff"/>
            </g>
          </g>
        </g>
        <g id="Grupo_1179566" data-name="Grupo 1179566" transform="translate(227.885 36.326)" opacity="0.4">
          <g id="Grupo_1179565" data-name="Grupo 1179565">
            <g id="Grupo_1179564" data-name="Grupo 1179564" clip-path="url(#clip-path-23)">
              <path id="Trazado_1035621" data-name="Trazado 1035621" d="M301.88,48.609l-4.287-1.171,2.355,8.733,3.785-.686Z" transform="translate(-297.593 -47.438)" fill="#ba68c8"/>
            </g>
          </g>
        </g>
        <g id="Grupo_1179569" data-name="Grupo 1179569" transform="translate(121.382 139.618)" opacity="0.4">
          <g id="Grupo_1179568" data-name="Grupo 1179568">
            <g id="Grupo_1179567" data-name="Grupo 1179567" clip-path="url(#clip-path-24)">
              <path id="Trazado_1035622" data-name="Trazado 1035622" d="M162.8,184.723l-4.287-1.172,6.762-1.226.5,1.858Z" transform="translate(-158.512 -182.326)" fill="#ba68c8"/>
            </g>
          </g>
        </g>
        <g id="Grupo_1179572" data-name="Grupo 1179572" transform="translate(139.266 58.369)" opacity="0.4">
          <g id="Grupo_1179571" data-name="Grupo 1179571">
            <g id="Grupo_1179570" data-name="Grupo 1179570" clip-path="url(#clip-path-25)">
              <path id="Trazado_1035623" data-name="Trazado 1035623" d="M186.153,160.3l-4.287-1.171,83.786-82.906,4.287,1.172Z" transform="translate(-181.867 -76.224)" fill="#ba68c8"/>
            </g>
          </g>
        </g>
        <path id="Trazado_1035624" data-name="Trazado 1035624" d="M169.468,131.573l83.786-82.906c.479-8.068,3.838-16.687,9.037-21.9,2.7-2.7,5.491-4.1,8.081-4.287l-8.351,19.113,2.355,8.734,6.762-1.227,8.44-19.3c.183.505.347,1.029.5,1.584,2.631,9.757-1.064,23.51-8.253,30.722-5.271,5.286-10.936,5.569-14.631,1.525L173.4,146.54c-.478,8.067-3.837,16.687-9.036,21.9-2.7,2.7-5.491,4.1-8.082,4.287l8.351-19.113-2.355-8.734-6.762,1.227-8.439,19.3c-.183-.505-.348-1.03-.5-1.584-2.63-9.757,1.065-23.511,8.254-30.723,5.27-5.286,10.936-5.569,14.631-1.525" transform="translate(-34.137 -5.265)" fill="#ba68c8"/>
        <g id="Grupo_1179575" data-name="Grupo 1179575" transform="translate(111.598 17.213)" opacity="0.6">
          <g id="Grupo_1179574" data-name="Grupo 1179574">
            <g id="Grupo_1179573" data-name="Grupo 1179573" clip-path="url(#clip-path-26)">
              <path id="Trazado_1035625" data-name="Trazado 1035625" d="M169.468,131.573l83.786-82.906c.479-8.068,3.838-16.687,9.037-21.9,2.7-2.7,5.491-4.1,8.081-4.287l-8.351,19.113,2.355,8.734,6.762-1.227,8.44-19.3c.183.505.347,1.029.5,1.584,2.631,9.757-1.064,23.51-8.253,30.722-5.271,5.286-10.936,5.569-14.631,1.525L173.4,146.54c-.478,8.067-3.837,16.687-9.036,21.9-2.7,2.7-5.491,4.1-8.082,4.287l8.351-19.113-2.355-8.734-6.762,1.227-8.439,19.3c-.183-.505-.348-1.03-.5-1.584-2.63-9.757,1.065-23.511,8.254-30.723,5.27-5.286,10.936-5.569,14.631-1.525" transform="translate(-145.735 -22.478)" fill="#fff"/>
            </g>
          </g>
        </g>
        <g id="Grupo_1179578" data-name="Grupo 1179578" transform="translate(140.783 53.428)" opacity="0.2">
          <g id="Grupo_1179577" data-name="Grupo 1179577">
            <g id="Grupo_1179576" data-name="Grupo 1179576" clip-path="url(#clip-path-27)">
              <path id="Trazado_1035626" data-name="Trazado 1035626" d="M256.111,70.843,186.074,140.13a7.8,7.8,0,0,0-2.081,6.688c.527,2.036,2.311,2.342,3.987.683l70.055-69.32a7.75,7.75,0,0,0,2.072-6.672c-.531-2.026-2.32-2.325-4-.666" transform="translate(-183.847 -69.771)" fill="#ba68c8"/>
            </g>
          </g>
        </g>
        <g id="Grupo_1179581" data-name="Grupo 1179581" transform="translate(142.967 54.189)" opacity="0.2">
          <g id="Grupo_1179580" data-name="Grupo 1179580">
            <g id="Grupo_1179579" data-name="Grupo 1179579" clip-path="url(#clip-path-28)">
              <path id="Trazado_1035627" data-name="Trazado 1035627" d="M188.927,140.959l70.036-69.286a3.916,3.916,0,0,1,1.349-.907,2.834,2.834,0,0,1,.463.977,7.749,7.749,0,0,1-2.072,6.672l-70.055,69.32a3.9,3.9,0,0,1-1.337.9,2.867,2.867,0,0,1-.465-.989,7.8,7.8,0,0,1,2.081-6.689" transform="translate(-186.699 -70.765)" fill="#ba68c8"/>
            </g>
          </g>
        </g>
        <g id="Grupo_1179584" data-name="Grupo 1179584" transform="translate(112.943 139.618)" opacity="0.2">
          <g id="Grupo_1179583" data-name="Grupo 1179583">
            <g id="Grupo_1179582" data-name="Grupo 1179582" clip-path="url(#clip-path-29)">
              <path id="Trazado_1035628" data-name="Trazado 1035628" d="M163.194,184.183l-.5-1.858-6.762,1.227-8.44,19.3,4.287,1.172,8.439-19.3Z" transform="translate(-147.491 -182.326)" fill="#ba68c8"/>
            </g>
          </g>
        </g>
        <g id="Grupo_1179587" data-name="Grupo 1179587" transform="translate(227.121 17.213)" opacity="0.2">
          <g id="Grupo_1179586" data-name="Grupo 1179586">
            <g id="Grupo_1179585" data-name="Grupo 1179585" clip-path="url(#clip-path-30)">
              <path id="Trazado_1035629" data-name="Trazado 1035629" d="M305.711,22.478l-8.351,19.113,2.355,8.733L296.6,41.61Z" transform="translate(-296.596 -22.478)" fill="#fff"/>
            </g>
          </g>
        </g>
        <g id="Grupo_1179590" data-name="Grupo 1179590" transform="translate(122.149 139.618)" opacity="0.2">
          <g id="Grupo_1179589" data-name="Grupo 1179589">
            <g id="Grupo_1179588" data-name="Grupo 1179588" clip-path="url(#clip-path-31)">
              <path id="Trazado_1035630" data-name="Trazado 1035630" d="M159.513,210.173l9.307-19.1-3.311-8.743,2.355,8.733Z" transform="translate(-159.513 -182.326)" fill="#fff"/>
            </g>
          </g>
        </g>
        <path id="Trazado_1035631" data-name="Trazado 1035631" d="M220.508,120.653c2.187-1.866,2.771-2.07,5.085-2.149s3.373-.144,4.276-.1a19.124,19.124,0,0,1,4.593,1.118c1.07.666-.589,2.277-2.33,2.229s-4.009-.283-4.009-.283Z" transform="translate(-51.652 -27.732)" fill="#f0997a"/>
        <path id="Trazado_1035632" data-name="Trazado 1035632" d="M186.142,62.54c-7.02,1.864-10.82,4.732-12.273,8.374-2.569,6.442-8.323,26.5-9.225,31.743s-.434,6.608,3.87,8.993c3.583,1.986,18.472,6.474,25.344,8.3a6.125,6.125,0,0,0,5.367-1.113l6.315-4.974-26.066-12.314,5.9-17.681s5.386-13.058.765-21.33" transform="translate(-38.477 -14.649)" fill="#ffa8a7"/>
        <path id="Trazado_1035633" data-name="Trazado 1035633" d="M186.173,62.027c-4.611,1.313-8.179,3.126-10.374,5.356-3.106,3.156-2.688,3.094-6.811,16.124s-5.31,19.479-5.6,22.084.06,3.752,4.1,5.984,15.353,5.137,15.353,5.137a25.745,25.745,0,0,1,1.619-7.567c1.428-3.4,3.471-3.613,3.471-3.613l-7.948-4.394s4.887-13.768,6.635-18.325,3.679-12.935-.446-20.787" transform="translate(-38.254 -14.529)" fill="#263238"/>
        <path id="Trazado_1035634" data-name="Trazado 1035634" d="M207.452,129.5c.767-.141,1.034-3.334,2.326-3.787s1.466-.274,2.1-1.508a2.57,2.57,0,0,1,2.365-1.651c.788.066.492-1.4,1.96-1.764a26.029,26.029,0,0,1,5.683-.095c1.331.131,4.35,2.063,5.652,2.99s.394,1.8-.427,2.231a4.585,4.585,0,0,1-2.434.047s1.329,1.182,1.018,1.728c-.407.719-1.78,1.352-3.69.528,1.25.871,1.107,1.706.07,2.124a4.859,4.859,0,0,1-3.288-.33c-1.7-.625-3.96-1.383-5.306-.838l-1.322,1.041Z" transform="translate(-48.594 -28.246)" fill="#ffa8a7"/>
        <path id="Trazado_1035635" data-name="Trazado 1035635" d="M207.452,130.6c.338-.038.524-.383.7-.625a8.263,8.263,0,0,0,.423-.826,10.769,10.769,0,0,1,.788-1.55,1.273,1.273,0,0,1,.511-.483l.839-.332a1.645,1.645,0,0,0,.812-.6,3.19,3.19,0,0,0,.358-.878,5.44,5.44,0,0,1-.6.664,1.514,1.514,0,0,1-.728.322c-.289.061-.587.141-.892.233a1.808,1.808,0,0,0-.841.695,5.944,5.944,0,0,0-.728,1.752l-.234.873a1.228,1.228,0,0,1-.4.757" transform="translate(-48.594 -29.352)" fill="#f0997a"/>
        <path id="Trazado_1035636" data-name="Trazado 1035636" d="M227.014,126.574c-.682-.548-1.363-1.081-2.074-1.578a14.647,14.647,0,0,0-2.26-1.385,11.56,11.56,0,0,0-2.653-.371,19.973,19.973,0,0,0-2.613.023q1.278.292,2.557.493l1.27.214a7.918,7.918,0,0,1,1.191.26c.721.317,1.476.806,2.232,1.206a20.582,20.582,0,0,0,2.349,1.139" transform="translate(-50.927 -28.86)" fill="#f0997a"/>
        <path id="Trazado_1035637" data-name="Trazado 1035637" d="M214.465,126.923c.813.126,1.654.136,2.438.191a6.68,6.68,0,0,1,2.229.649c1.476.642,2.953,1.339,4.52,1.861a22.428,22.428,0,0,0-4.255-2.472,5.58,5.58,0,0,0-2.479-.555,20.356,20.356,0,0,0-2.453.327" transform="translate(-50.236 -29.653)" fill="#f0997a"/>
        <path id="Trazado_1035638" data-name="Trazado 1035638" d="M314.317,71.5c1.656-2.146,1.821-2.7,1.789-4.886s-.021-3.182-.1-4.031a18.04,18.04,0,0,0-1.264-4.272c-.677-.976-2.117.66-1.992,2.3s.452,3.761.452,3.761Z" transform="translate(-73.256 -13.591)" fill="#f28f8f"/>
        <path id="Trazado_1035639" data-name="Trazado 1035639" d="M304.676,82.38c.1-.728,3.091-1.128,3.457-2.365s.191-1.393,1.322-2.051a2.424,2.424,0,0,0,1.445-2.3c-.1-.74,1.293-.528,1.57-1.927a24.546,24.546,0,0,0-.173-5.355c-.185-1.247-2.144-4-3.076-5.183s-1.718-.288-2.081.5A4.321,4.321,0,0,0,307.21,66s-1.175-1.2-1.675-.88c-.658.417-1.191,1.739-.326,3.5-.878-1.136-1.657-.963-2,.033a4.582,4.582,0,0,0,.463,3.081c.666,1.57,1.371,3.823.921,5.115l-1.3,1.879Z" transform="translate(-70.996 -14.67)" fill="#ffa8a7"/>
        <path id="Trazado_1035640" data-name="Trazado 1035640" d="M308.47,67.028c.548.616,1.081,1.234,1.581,1.88a13.787,13.787,0,0,1,1.409,2.064,10.906,10.906,0,0,1,.472,2.48,18.857,18.857,0,0,1,.1,2.462q-.333-1.191-.583-2.385l-.26-1.187a7.424,7.424,0,0,0-.3-1.109c-.332-.664-.827-1.353-1.239-2.046a19.523,19.523,0,0,1-1.181-2.159" transform="translate(-72.256 -15.701)" fill="#f28f8f"/>
        <path id="Trazado_1035641" data-name="Trazado 1035641" d="M308.825,78.972c-.156-.76-.2-1.551-.293-2.287a6.266,6.266,0,0,0-.713-2.068c-.674-1.361-1.4-2.719-1.961-4.17a21.14,21.14,0,0,1,2.524,3.892,5.255,5.255,0,0,1,.637,2.31,19.07,19.07,0,0,1-.194,2.323" transform="translate(-71.644 -16.502)" fill="#f28f8f"/>
        <path id="Trazado_1035642" data-name="Trazado 1035642" d="M202.975,36.861c-2.368-3.447-4.528-6.4-6.339-9.479-1.746-2.966-2.818-5.283-2.8-8.166.008-1.708.948-4.076,2.182-4.632-1.823-6.242,3.647-9.14,6.133-9.884.953-.286,2.7-.531,3.6-.832A9.238,9.238,0,0,1,208.21.89c1.5-1.122,4.739-1.43,6.305.548a4.74,4.74,0,0,1,4.392-.976,2.971,2.971,0,0,1,2.507,2.715,3.688,3.688,0,0,1,5.442,1.643c.628,1.463.057,2.124.868,3.112.914,1.113,2.517,1,2.95.035.368,1.619-.2,2.9-1.976,2.912a3.72,3.72,0,0,1,.64,3.093,3.392,3.392,0,0,1-2.928,2.512,5.842,5.842,0,0,1-.646,2.538,5.876,5.876,0,0,1-1.979,2c-2.61,1.434-5.554,2.019-8.41,2.784l-3.39.907c-.2.053-1.23.175-1.342.36l-7.667,11.787" transform="translate(-45.403 0)" fill="#263238"/>
        <path id="Trazado_1035643" data-name="Trazado 1035643" d="M199.041,35.724a3.527,3.527,0,0,0,4.28-.371l.136,7.344-.007,2.517c.074,2.049,2.8,4.618,6.181,6.769,4.432,2.821,10.141,7.307,11.049,8.043.168-1.9-.611-8.961-2.146-11.5l-.032-5.664a35.05,35.05,0,0,0,4.313-.44,7.557,7.557,0,0,0,5.744-6.081,32.8,32.8,0,0,0-.326-12.387,10.671,10.671,0,0,1-.326-2.985,14.077,14.077,0,0,0-1.255-6.37c-3.282-2.347-12.185-2.364-18.714,2.136,1.647,3.366.937,6.926-1.9,8.627.2,1.079.492,3.817-1.3,3.869-1.289.038-1.468-1.573-2.869-2.919-1.431-1.375-4.51-1.551-5.583.614a6.963,6.963,0,0,0,2.757,8.8" transform="translate(-45.833 -3.054)" fill="#ffa8a7"/>
        <path id="Trazado_1035644" data-name="Trazado 1035644" d="M221.328,49.26c-4.552-.274-8.015-.57-10.558-3.711a28.305,28.305,0,0,1-3.032-5.2,22.08,22.08,0,0,0,2.323,6.606c1.257,2.025,4.152,3.607,11.275,3.812Z" transform="translate(-48.661 -9.451)" fill="#f28f8f"/>
        <path id="Trazado_1035645" data-name="Trazado 1035645" d="M234.947,23.237l-2.91-1.174a1.506,1.506,0,0,1,1.992-.9,1.648,1.648,0,0,1,.918,2.075" transform="translate(-54.352 -4.931)" fill="#263238"/>
        <path id="Trazado_1035646" data-name="Trazado 1035646" d="M234.972,26.555a1.4,1.4,0,1,1-1.464-1.4,1.424,1.424,0,0,1,1.464,1.4" transform="translate(-54.383 -5.892)" fill="#263238"/>
        <path id="Trazado_1035647" data-name="Trazado 1035647" d="M221.853,27.327a1.4,1.4,0,1,1-1.464-1.4,1.424,1.424,0,0,1,1.464,1.4" transform="translate(-51.31 -6.073)" fill="#263238"/>
        <path id="Trazado_1035648" data-name="Trazado 1035648" d="M231.706,32.089l-4.4,1.279-1.153-8.729c1.631-.033,3.783,3.984,5.552,7.45" transform="translate(-52.974 -5.771)" fill="#f28f8f"/>
        <path id="Trazado_1035649" data-name="Trazado 1035649" d="M219.783,23.04l-2.817,1.4a1.66,1.66,0,0,1,.739-2.169,1.53,1.53,0,0,1,2.078.767" transform="translate(-50.787 -5.18)" fill="#263238"/>
        <path id="Trazado_1035650" data-name="Trazado 1035650" d="M222.768,38.464l5.023,1.171a2.533,2.533,0,0,1-3.045,2.012,2.7,2.7,0,0,1-1.978-3.182" transform="translate(-52.168 -9.01)" fill="#b16668"/>
        <path id="Trazado_1035651" data-name="Trazado 1035651" d="M223.371,39.546a2.844,2.844,0,0,0-.625,0,2.665,2.665,0,0,0,2.008,2.352,2.45,2.45,0,0,0,.826.04,2.362,2.362,0,0,0-2.208-2.389" transform="translate(-52.176 -9.259)" fill="#f28f8f"/>
        <path id="Trazado_1035652" data-name="Trazado 1035652" d="M242.729,38.947a3.141,3.141,0,0,1-2.96,2.9,5,5,0,0,1-.77.015l.027-.46a2.8,2.8,0,0,0,3.247-2.489c.1-1.407-.855-2.995-3.142-3.66,0-.162-.005-.323-.018-.484,2.634.708,3.739,2.55,3.616,4.176" transform="translate(-55.983 -8.145)" fill="#455a64"/>
        <path id="Trazado_1035653" data-name="Trazado 1035653" d="M236.781,44.689l-1.979-.2a1.545,1.545,0,0,1,.313-3.074l1.979.2a1.545,1.545,0,0,1-.313,3.074" transform="translate(-54.675 -9.699)" fill="#263238"/>
        <path id="Trazado_1035654" data-name="Trazado 1035654" d="M227.668,69.683c.349-2.1,1.783-3.536,2.732-3.722,2.422-.476,3.974,2.373,3.974,2.373a21.576,21.576,0,0,0-4.438-10.662c-3.068-2.937-4.438-3.4-4.438-3.4l.023,3.915a16.859,16.859,0,0,1,1.313,4.391,53.2,53.2,0,0,1,.832,7.105" transform="translate(-52.821 -12.712)" fill="#263238"/>
        <path id="Trazado_1035655" data-name="Trazado 1035655" d="M204.252,53.5c-1.8.346-2.987,3.291-5.17,5.41a25.6,25.6,0,0,0,14.443,13.683c.567-2.049.637-3.47,2.463-4.408S221.48,69.5,221.48,69.5a9.888,9.888,0,0,0-2.1-2.346c-4.915-3.379-6.18-4.238-8.655-5.879-6.589-4.371-6.474-6.587-6.474-6.587Z" transform="translate(-46.633 -12.532)" fill="#263238"/>
        <path id="Trazado_1035656" data-name="Trazado 1035656" d="M201.722,25.6l-3.664-.577s-.636-6.9-.047-10.587c.549-3.434,2.369-6.525,4.286-7.77a10.687,10.687,0,0,1,4.375-1.619,7.789,7.789,0,0,0-2.042,1.287c-.741.639-3.187,3.657-3.441,9.341a48.3,48.3,0,0,0,.534,9.925" transform="translate(-46.324 -1.183)" fill="#455a64"/>
        <path id="Trazado_1035657" data-name="Trazado 1035657" d="M204.925,37.675a11.363,11.363,0,0,0-2.657-9.814,4.7,4.7,0,0,0-2.086-1.293,2.787,2.787,0,0,0-1.49,0c-.269.077-1.355.375-1.632.454a3.82,3.82,0,0,0-2.4,2.969,11.362,11.362,0,0,0,2.656,9.814A4.7,4.7,0,0,0,199.4,41.1a2.779,2.779,0,0,0,1.5,0c.266-.077,1.339-.372,1.612-.449a3.814,3.814,0,0,0,2.416-2.972" transform="translate(-45.537 -6.199)" fill="#37474f"/>
        <path id="Trazado_1035658" data-name="Trazado 1035658" d="M199.4,41.235a4.7,4.7,0,0,1-2.087-1.293,11.365,11.365,0,0,1-2.656-9.814c.587-2.274,2.12-3.439,3.9-2.968a4.706,4.706,0,0,1,2.087,1.293,11.365,11.365,0,0,1,2.656,9.814c-.587,2.274-2.119,3.439-3.9,2.968" transform="translate(-45.537 -6.338)" fill="#263238"/>
        <path id="Trazado_1035659" data-name="Trazado 1035659" d="M202.817,38.287a10.939,10.939,0,0,0-2.562-9.463,3.368,3.368,0,0,0-3.228-1.2l-.806.225a3.44,3.44,0,0,0-2.168,2.713,10.939,10.939,0,0,0,2.562,9.463,3.369,3.369,0,0,0,3.226,1.205l.812-.227a3.441,3.441,0,0,0,2.165-2.712" transform="translate(-45.397 -6.449)" fill="#f0f0f0"/>
        <path id="Trazado_1035660" data-name="Trazado 1035660" d="M199.444,29.119a10.944,10.944,0,0,1,2.562,9.463c-.782,3.029-3.2,3.7-5.392,1.507a10.941,10.941,0,0,1-2.561-9.463c.781-3.029,3.2-3.7,5.392-1.507" transform="translate(-45.397 -6.518)" fill="#e0e0e0"/>
        <path id="Trazado_1035661" data-name="Trazado 1035661" d="M201.688,38.583a10.944,10.944,0,0,0-2.562-9.463,3.371,3.371,0,0,0-3.222-1.206c-.273.077-.773.252-1.045.329a3.442,3.442,0,0,0-2.163,2.712,10.945,10.945,0,0,0,2.562,9.463,3.372,3.372,0,0,0,3.222,1.205c.273-.076.771-.252,1.044-.328a3.441,3.441,0,0,0,2.165-2.712" transform="translate(-45.08 -6.519)" fill="#ba68c8"/>
        <g id="Grupo_1179593" data-name="Grupo 1179593" transform="translate(147.37 21.636)" opacity="0.15">
          <g id="Grupo_1179592" data-name="Grupo 1179592">
            <g id="Grupo_1179591" data-name="Grupo 1179591" clip-path="url(#clip-path-32)">
              <path id="Trazado_1035662" data-name="Trazado 1035662" d="M198.088,29.545a10.944,10.944,0,0,1,2.562,9.463c-.782,3.029-3.2,3.7-5.392,1.508a10.943,10.943,0,0,1-2.561-9.464c.781-3.029,3.2-3.7,5.392-1.507" transform="translate(-192.45 -28.254)" fill="#fff"/>
            </g>
          </g>
        </g>
        <path id="Trazado_1035663" data-name="Trazado 1035663" d="M197.269,33.479a5.744,5.744,0,0,1,1.345,4.971c-.41,1.591-1.678,1.946-2.832.792a5.746,5.746,0,0,1-1.346-4.971c.41-1.591,1.679-1.946,2.833-.792" transform="translate(-45.515 -7.683)" fill="#263238"/>
        <path id="Trazado_1035664" data-name="Trazado 1035664" d="M198.586,35.314,196.75,36.4l-.95-3.512a1.764,1.764,0,0,1,1.694.63,5.049,5.049,0,0,1,1.092,1.791" transform="translate(-45.864 -7.694)" fill="#455a64"/>
        <path id="Trazado_1035665" data-name="Trazado 1035665" d="M199.13,39.251a1.8,1.8,0,0,1-1.138,1.423l-.951-3.514,1.836-1.09a5.6,5.6,0,0,1,.253,3.182" transform="translate(-46.155 -8.449)" fill="#37474f"/>
        <path id="Trazado_1035666" data-name="Trazado 1035666" d="M197.431,41.006a1.768,1.768,0,0,1-1.7-.631,4.964,4.964,0,0,1-1.09-1.792l1.833-1.091Z" transform="translate(-45.594 -8.782)" fill="#455a64"/>
        <path id="Trazado_1035667" data-name="Trazado 1035667" d="M196.363,36.418l-1.834,1.091a5.578,5.578,0,0,1-.254-3.178,1.808,1.808,0,0,1,1.138-1.425Z" transform="translate(-45.477 -7.708)" fill="#37474f"/>
      </g>
    </g>
    <g id="Grupo_1179600" data-name="Grupo 1179600">
      <g id="Grupo_1179599" data-name="Grupo 1179599" clip-path="url(#clip-path)">
        <path id="Trazado_1035668" data-name="Trazado 1035668" d="M153.379,20.689c-4.627-6.736-17-12.323-32.292-12.467-13.912-.132-30.846,3.96-35.079,17.326-3.61,11.4,7.5,21.993,19.04,24.248a79.379,79.379,0,0,0,13.924,1.472c2.137,3.994,7.154,6.45,10.93,6.706a11.089,11.089,0,0,1-2.506-7.024,72.043,72.043,0,0,0,10.69-1.806c20.03-5.007,20.47-20.917,15.293-28.454" transform="translate(-19.984 -1.925)" fill="#ba68c8"/>
        <g id="Grupo_1179598" data-name="Grupo 1179598" transform="translate(65.331 6.294)" opacity="0.4">
          <g id="Grupo_1179597" data-name="Grupo 1179597">
            <g id="Grupo_1179596" data-name="Grupo 1179596" clip-path="url(#clip-path-34)">
              <path id="Trazado_1035669" data-name="Trazado 1035669" d="M153.379,20.689c-4.627-6.736-17-12.323-32.292-12.467-13.912-.132-30.846,3.96-35.079,17.326-3.61,11.4,7.5,21.993,19.04,24.248a79.379,79.379,0,0,0,13.924,1.472c2.137,3.994,7.154,6.45,10.93,6.706a11.089,11.089,0,0,1-2.506-7.024,72.043,72.043,0,0,0,10.69-1.806c20.03-5.007,20.47-20.917,15.293-28.454" transform="translate(-85.315 -8.219)" fill="#fff"/>
            </g>
          </g>
        </g>
        <path id="Trazado_1035670" data-name="Trazado 1035670" d="M104.9,30.75a4.153,4.153,0,1,0,4.153,4.153A4.153,4.153,0,0,0,104.9,30.75m19.452,0a4.153,4.153,0,1,0,4.154,4.153,4.154,4.154,0,0,0-4.154-4.153m19.453,0a4.153,4.153,0,1,0,4.153,4.153,4.153,4.153,0,0,0-4.153-4.153" transform="translate(-23.6 -7.203)" fill="#fff"/>
      </g>
    </g>
    <path id="Trazado_1035671" data-name="Trazado 1035671" d="M68.9,134.755l26.59-14.664-18.74,19.625Z" transform="translate(-16.138 -28.13)" fill="#ba68c8"/>
    <g id="Grupo_1179605" data-name="Grupo 1179605">
      <g id="Grupo_1179604" data-name="Grupo 1179604" clip-path="url(#clip-path)">
        <g id="Grupo_1179603" data-name="Grupo 1179603" transform="translate(52.758 91.961)" opacity="0.4">
          <g id="Grupo_1179602" data-name="Grupo 1179602">
            <g id="Grupo_1179601" data-name="Grupo 1179601" clip-path="url(#clip-path-36)">
              <path id="Trazado_1035672" data-name="Trazado 1035672" d="M68.9,134.755l26.59-14.664-18.74,19.625Z" transform="translate(-68.897 -120.091)" fill="#fff"/>
            </g>
          </g>
        </g>
      </g>
    </g>
    <path id="Trazado_1035673" data-name="Trazado 1035673" d="M92.179,120.091,62.627,131.419l-7.85-4.961Z" transform="translate(-12.831 -28.13)" fill="#ba68c8"/>
    <g id="Grupo_1179610" data-name="Grupo 1179610">
      <g id="Grupo_1179609" data-name="Grupo 1179609" clip-path="url(#clip-path)">
        <g id="Grupo_1179608" data-name="Grupo 1179608" transform="translate(41.946 91.961)" opacity="0.4">
          <g id="Grupo_1179607" data-name="Grupo 1179607">
            <g id="Grupo_1179606" data-name="Grupo 1179606" clip-path="url(#clip-path-38)">
              <path id="Trazado_1035674" data-name="Trazado 1035674" d="M92.179,120.091,62.627,131.419l-7.85-4.961Z" transform="translate(-54.778 -120.091)" fill="#fff"/>
            </g>
          </g>
        </g>
      </g>
    </g>
    <path id="Trazado_1035675" data-name="Trazado 1035675" d="M65.029,131.419l1.554,7.569,1.407-4.233,26.59-14.664Z" transform="translate(-15.232 -28.13)" fill="#ba68c8"/>
    <path id="Trazado_1035676" data-name="Trazado 1035676" d="M67.059,143.473l4.024-2.579-2.617-1.654Z" transform="translate(-15.708 -32.616)" fill="#ba68c8"/>
    <g id="Grupo_1179624" data-name="Grupo 1179624">
      <g id="Grupo_1179623" data-name="Grupo 1179623" clip-path="url(#clip-path)">
        <g id="Grupo_1179613" data-name="Grupo 1179613" transform="translate(51.351 106.624)" opacity="0.2">
          <g id="Grupo_1179612" data-name="Grupo 1179612">
            <g id="Grupo_1179611" data-name="Grupo 1179611" clip-path="url(#clip-path-40)">
              <path id="Trazado_1035677" data-name="Trazado 1035677" d="M67.059,143.473l4.024-2.579-2.617-1.654Z" transform="translate(-67.059 -139.24)"/>
            </g>
          </g>
        </g>
        <g id="Grupo_1179616" data-name="Grupo 1179616" transform="translate(52.758 106.624)" opacity="0.2">
          <g id="Grupo_1179615" data-name="Grupo 1179615">
            <g id="Grupo_1179614" data-name="Grupo 1179614" clip-path="url(#clip-path-41)">
              <path id="Trazado_1035678" data-name="Trazado 1035678" d="M68.9,139.24l2.617,1.653-.642.412Z" transform="translate(-68.897 -139.24)"/>
            </g>
          </g>
        </g>
        <path id="Trazado_1035679" data-name="Trazado 1035679" d="M58.533,146.7a.523.523,0,0,1-.37-.165.468.468,0,0,1,.044-.687c.541-.453,1.085-.875,1.616-1.256a.533.533,0,0,1,.72.1.469.469,0,0,1-.1.682c-.511.367-1.034.773-1.555,1.21a.528.528,0,0,1-.355.121" transform="translate(-13.594 -33.847)" fill="#e0e0e0"/>
        <path id="Trazado_1035680" data-name="Trazado 1035680" d="M91.423,204.621q-1.522-.047-3-.138a.5.5,0,0,1-.482-.518.506.506,0,0,1,.545-.454q1.965.121,4.019.162h.005a.487.487,0,1,1-.025.973c-.356-.007-.713-.016-1.067-.026m4.431.032a.5.5,0,0,1-.5-.479.5.5,0,0,1,.5-.494c1.317-.019,2.669-.066,4.021-.137a.52.52,0,0,1,.544.459.5.5,0,0,1-.483.514c-1.365.072-2.732.118-4.062.137h-.024m-10.77-.44-.038,0c-1.354-.136-2.712-.3-4.037-.5a.494.494,0,0,1-.43-.557.514.514,0,0,1,.587-.405c1.307.2,2.647.364,3.983.5a.5.5,0,0,1,.459.535.5.5,0,0,1-.525.436m18.173.075a.5.5,0,0,1-.5-.445.492.492,0,0,1,.465-.527c1.313-.109,2.659-.244,4-.4a.512.512,0,0,1,.574.424.492.492,0,0,1-.446.543c-1.355.158-2.715.293-4.039.4a.551.551,0,0,1-.061,0m-25.5-1.146a.569.569,0,0,1-.088-.009c-1.351-.264-2.686-.563-3.967-.888a.486.486,0,0,1-.365-.6.521.521,0,0,1,.629-.345c1.261.32,2.577.614,3.908.874a.49.49,0,0,1,.4.575.506.506,0,0,1-.518.388m-7.174-1.786a.576.576,0,0,1-.142-.023c-1.306-.4-2.6-.844-3.84-1.316a.481.481,0,0,1-.287-.633.518.518,0,0,1,.668-.27c1.221.464,2.49.9,3.773,1.293a.483.483,0,0,1,.332.613.511.511,0,0,1-.5.336m-6.9-2.581a.534.534,0,0,1-.2-.047c-1.247-.558-2.467-1.16-3.627-1.789a.476.476,0,0,1-.193-.665.533.533,0,0,1,.7-.181c1.136.616,2.333,1.207,3.555,1.754a.478.478,0,0,1,.247.649.518.518,0,0,1-.479.279m-6.463-3.455a.536.536,0,0,1-.27-.083c-1.149-.73-2.259-1.505-3.3-2.3a.47.47,0,0,1-.076-.685.534.534,0,0,1,.723-.07c1.013.78,2.1,1.537,3.221,2.251a.472.472,0,0,1,.142.676.522.522,0,0,1-.443.215m-5.788-4.395a.531.531,0,0,1-.341-.136,35.864,35.864,0,0,1-2.8-2.846.47.47,0,0,1,.065-.686.534.534,0,0,1,.724.064,34.909,34.909,0,0,0,2.722,2.766.471.471,0,0,1,.016.689.524.524,0,0,1-.386.149m-4.784-5.366a.523.523,0,0,1-.413-.216,27.747,27.747,0,0,1-2.056-3.383.475.475,0,0,1,.239-.65.529.529,0,0,1,.687.228,26.653,26.653,0,0,0,1.983,3.264.471.471,0,0,1-.139.675.532.532,0,0,1-.3.082m-3.287-6.285a.513.513,0,0,1-.474-.337,20.707,20.707,0,0,1-.765-2.844c-.063-.325-.118-.649-.166-.973a.492.492,0,0,1,.439-.549.516.516,0,0,1,.58.417q.068.465.159.933a19.872,19.872,0,0,0,.731,2.716.481.481,0,0,1-.329.613.527.527,0,0,1-.175.023m-1.158-6.917a.5.5,0,0,1-.5-.485q0-.468.011-.931a25.433,25.433,0,0,1,.266-2.961.516.516,0,0,1,.581-.413.494.494,0,0,1,.436.552,24.415,24.415,0,0,0-.257,2.853c-.009.3-.011.6-.01.9a.5.5,0,0,1-.51.489h-.018m.933-6.95a.584.584,0,0,1-.114-.015.488.488,0,0,1-.369-.6,30.808,30.808,0,0,1,1.272-3.695.521.521,0,0,1,.666-.273.479.479,0,0,1,.289.632,30.2,30.2,0,0,0-1.233,3.582.509.509,0,0,1-.512.364m2.631-6.55a.536.536,0,0,1-.217-.052.477.477,0,0,1-.227-.655,38.228,38.228,0,0,1,2.028-3.367.53.53,0,0,1,.71-.146.474.474,0,0,1,.157.673,37.154,37.154,0,0,0-1.978,3.281.515.515,0,0,1-.473.266m3.931-5.939a.526.526,0,0,1-.295-.1.471.471,0,0,1-.1-.682,38.914,38.914,0,0,1,2.634-2.966.532.532,0,0,1,.726-.022.469.469,0,0,1,.026.688,37.858,37.858,0,0,0-2.567,2.89.523.523,0,0,1-.425.191" transform="translate(-9.769 -34.905)" fill="#e0e0e0"/>
        <path id="Trazado_1035681" data-name="Trazado 1035681" d="M131.607,219.7a.506.506,0,0,1-.492-.413.489.489,0,0,1,.429-.554q1-.145,2.02-.309a.515.515,0,0,1,.594.4.49.49,0,0,1-.42.562q-1.026.164-2.037.311a.643.643,0,0,1-.094,0" transform="translate(-30.711 -51.162)" fill="#e0e0e0"/>
        <path id="Trazado_1035682" data-name="Trazado 1035682" d="M339.06,214.587l30.778-15.394,12.261,5.424Z" transform="translate(-79.422 -46.659)" fill="#ba68c8"/>
        <g id="Grupo_1179619" data-name="Grupo 1179619" transform="translate(259.638 152.534)" opacity="0.4">
          <g id="Grupo_1179618" data-name="Grupo 1179618">
            <g id="Grupo_1179617" data-name="Grupo 1179617" clip-path="url(#clip-path-42)">
              <path id="Trazado_1035683" data-name="Trazado 1035683" d="M339.06,214.587l30.778-15.394,12.261,5.424Z" transform="translate(-339.06 -199.193)" fill="#fff"/>
            </g>
          </g>
        </g>
        <path id="Trazado_1035684" data-name="Trazado 1035684" d="M339.06,211.617l27.114-18.125-4.856-6.979Z" transform="translate(-79.422 -43.689)" fill="#ba68c8"/>
        <g id="Grupo_1179622" data-name="Grupo 1179622" transform="translate(259.638 142.824)" opacity="0.4">
          <g id="Grupo_1179621" data-name="Grupo 1179621">
            <g id="Grupo_1179620" data-name="Grupo 1179620" clip-path="url(#clip-path-43)">
              <path id="Trazado_1035685" data-name="Trazado 1035685" d="M339.06,211.617l27.114-18.125-4.856-6.979Z" transform="translate(-339.06 -186.513)" fill="#fff"/>
            </g>
          </g>
        </g>
        <path id="Trazado_1035686" data-name="Trazado 1035686" d="M366.174,195.627l-.512,4.82-26.6,13.3Z" transform="translate(-79.421 -45.824)" fill="#ba68c8"/>
        <path id="Trazado_1035687" data-name="Trazado 1035687" d="M359.074,179a.514.514,0,0,1-.355-.875,21.473,21.473,0,0,0,2.541-3.1.514.514,0,0,1,.852.575,22.459,22.459,0,0,1-2.663,3.248.512.512,0,0,1-.374.152m4.3-6.145a.531.531,0,0,1-.213-.05.515.515,0,0,1-.241-.686,24.331,24.331,0,0,0,1.428-3.759.513.513,0,1,1,.986.286,25.383,25.383,0,0,1-1.487,3.918.515.515,0,0,1-.473.292m2.187-7.185a.4.4,0,0,1-.067-.005.513.513,0,0,1-.432-.584,26.523,26.523,0,0,0,.289-3.467c0-.183,0-.368,0-.552a.514.514,0,0,1,.512-.515h.011a.514.514,0,0,1,.5.512c0,.192,0,.383,0,.573a27.5,27.5,0,0,1-.3,3.6.514.514,0,0,1-.517.437m.077-7.513a.514.514,0,0,1-.5-.45,28.044,28.044,0,0,0-.794-3.953.514.514,0,0,1,.991-.274,29.176,29.176,0,0,1,.822,4.1.512.512,0,0,1-.445.574.491.491,0,0,1-.074,0m-1.914-7.266a.514.514,0,0,1-.466-.319,29.432,29.432,0,0,0-1.782-3.621.513.513,0,1,1,.888-.515,30.3,30.3,0,0,1,1.845,3.748.513.513,0,0,1-.281.669.5.5,0,0,1-.2.038m-3.695-6.546a.51.51,0,0,1-.4-.208,31.965,31.965,0,0,0-2.608-3.087.514.514,0,0,1,.743-.711,32.929,32.929,0,0,1,2.692,3.188.514.514,0,0,1-.108.718.506.506,0,0,1-.315.1m-5.141-5.486a.517.517,0,0,1-.324-.123c-.613-.523-1.254-1.033-1.905-1.515q-.647-.48-1.32-.94a.514.514,0,1,1,.579-.848q.69.471,1.354.963c.668.5,1.328,1.021,1.959,1.558a.514.514,0,0,1-.342.905m-6.173-4.306a.5.5,0,0,1-.246-.067c-1.141-.657-2.355-1.29-3.608-1.88a.514.514,0,1,1,.439-.93c1.278.6,2.516,1.249,3.682,1.919a.514.514,0,0,1-.267.959m-6.784-3.265a.529.529,0,0,1-.182-.037c-1.237-.5-2.525-.964-3.833-1.392a.514.514,0,0,1,.32-.977c1.328.435,2.638.911,3.895,1.415a.514.514,0,0,1-.2.991m-7.145-2.389a.531.531,0,0,1-.128-.018c-1.283-.353-2.617-.681-3.967-.974a.514.514,0,1,1,.218-1c1.368.3,2.722.63,4.023.988a.514.514,0,0,1-.146,1.009m-41.384-.821a.514.514,0,0,1-.11-1.013c1.315-.315,2.679-.6,4.052-.845a.514.514,0,0,1,.181,1.012c-1.353.242-2.7.521-3.993.832a.54.54,0,0,1-.129.014m34.024-.816a.474.474,0,0,1-.08-.008c-1.318-.229-2.679-.432-4.044-.6a.514.514,0,0,1,.127-1.019c1.381.172,2.758.376,4.094.609a.514.514,0,0,1-.1,1.02m-26.619-.549a.514.514,0,0,1-.058-1.023c1.348-.179,2.731-.329,4.111-.443a.52.52,0,0,1,.554.469.514.514,0,0,1-.469.555c-1.363.113-2.73.26-4.06.437a.541.541,0,0,1-.078,0m19.142-.413-.035,0c-1.351-.116-2.724-.2-4.08-.256a.514.514,0,0,1,.03-1.027h.011c1.371.054,2.761.141,4.127.258a.514.514,0,0,1-.052,1.026m-11.638-.244a.514.514,0,0,1-.012-1.027c1.362-.06,2.753-.088,4.133-.085h.008a.514.514,0,0,1-.011,1.028c-1.364,0-2.738.024-4.085.084h-.032" transform="translate(-68.609 -29.267)" fill="#e0e0e0"/>
      </g>
    </g>
  </g>
</svg>
