<svg xmlns="http://www.w3.org/2000/svg" xmlns:xlink="http://www.w3.org/1999/xlink" width="113" height="113" viewBox="0 0 113 113">
  <defs>
    <filter id="Trazado_896985" x="0" y="0" width="113" height="113" filterUnits="userSpaceOnUse">
      <feOffset dy="3" input="SourceAlpha"/>
      <feGaussianBlur stdDeviation="3" result="blur"/>
      <feFlood flood-opacity="0.161"/>
      <feComposite operator="in" in2="blur"/>
      <feComposite in="SourceGraphic"/>
    </filter>
    <clipPath id="clip-path">
      <rect id="Rect치ngulo_407902" data-name="Rect치ngulo 407902" width="58.75" height="58.75" fill="none"/>
    </clipPath>
  </defs>
  <g id="Grupo_1180218" data-name="Grupo 1180218" transform="translate(9 6)">
    <g id="Grupo_1111319" data-name="Grupo 1111319" transform="translate(0 0)">
      <g id="Grupo_1109827" data-name="Grupo 1109827">
        <g id="Grupo_1098742" data-name="Grupo 1098742">
          <g transform="matrix(1, 0, 0, 1, -9, -6)" filter="url(#Trazado_896985)">
            <g id="Trazado_896985-2" data-name="Trazado 896985" transform="translate(9 6)" fill="#5ab4f9" opacity="0.859">
              <path d="M 47.49993133544922 93.5 C 41.2893180847168 93.5 35.26527786254883 92.28396606445312 29.59514427185059 89.88571929931641 C 24.11767768859863 87.56893920898438 19.19810485839844 84.25196838378906 14.97306442260742 80.02693176269531 C 10.74802494049072 75.80188751220703 7.431051254272461 70.88231658935547 5.114277839660645 65.40484619140625 C 2.71602463722229 59.73471450805664 1.499997973442078 53.71067428588867 1.499997973442078 47.50006103515625 C 1.499997973442078 41.2893180847168 2.71602463722229 35.26527786254883 5.114277839660645 29.59514236450195 C 7.431051254272461 24.11768913269043 10.74802494049072 19.1981029510498 14.97306442260742 14.97306251525879 C 19.19810485839844 10.74802303314209 24.11767768859863 7.431049346923828 29.59514427185059 5.114289283752441 C 35.26527786254883 2.716022968292236 41.2893180847168 1.499996185302734 47.49993133544922 1.499996185302734 C 53.71054458618164 1.499996185302734 59.73458480834961 2.716022968292236 65.40471649169922 5.114289283752441 C 70.88218688964844 7.431049346923828 75.8017578125 10.74802303314209 80.02679443359375 14.97306251525879 C 84.25183868408203 19.1981029510498 87.56880950927734 24.11768913269043 89.88558197021484 29.59514236450195 C 92.28383636474609 35.26527786254883 93.49986267089844 41.2893180847168 93.49986267089844 47.49993133544922 C 93.49986267089844 53.71067428588867 92.28383636474609 59.73471450805664 89.88558197021484 65.40484619140625 C 87.56880950927734 70.88231658935547 84.25183868408203 75.80188751220703 80.02679443359375 80.02693176269531 C 75.8017578125 84.25196838378906 70.88218688964844 87.56893920898438 65.40471649169922 89.88571929931641 C 59.73458480834961 92.28396606445312 53.71054458618164 93.5 47.49993133544922 93.5 Z" stroke="none"/>
              <path d="M 47.49993133544922 2.999992370605469 C 41.49116134643555 2.999992370605469 35.66371536254883 4.1761474609375 30.17946624755859 6.495796203613281 C 24.88080596923828 8.736930847167969 20.12148284912109 11.94596862792969 16.03371429443359 16.03372192382812 C 11.94596099853516 20.12149047851562 8.736930847167969 24.88081359863281 6.495796203613281 30.17947387695312 C 4.1761474609375 35.66371917724609 2.999992370605469 41.49116516113281 2.999992370605469 47.50005722045898 C 2.999992370605469 53.50882720947266 4.1761474609375 59.33627319335938 6.495796203613281 64.82051849365234 C 8.736930847167969 70.11917877197266 11.94596099853516 74.87850189208984 16.03371429443359 78.96627044677734 C 20.12148284912109 83.05402374267578 24.88080596923828 86.2630615234375 30.17946624755859 88.50419616699219 C 35.66371536254883 90.82384490966797 41.49116134643555 92 47.49993133544922 92 C 53.50870132446289 92 59.33614730834961 90.82384490966797 64.82038879394531 88.50419616699219 C 70.11905670166016 86.2630615234375 74.87836456298828 83.05402374267578 78.96613311767578 78.96627044677734 C 83.05390167236328 74.87850189208984 86.26291656494141 70.11917877197266 88.50406646728516 64.82051849365234 C 90.82369995117188 59.33627319335938 91.99985504150391 53.50882720947266 91.99985504150391 47.49993515014648 C 91.99985504150391 41.49116516113281 90.82369995117188 35.66371917724609 88.50406646728516 30.17947387695312 C 86.26291656494141 24.88081359863281 83.05390167236328 20.12149047851562 78.96613311767578 16.03372192382812 C 74.87836456298828 11.94596862792969 70.11905670166016 8.736930847167969 64.82038879394531 6.495796203613281 C 59.33614730834961 4.1761474609375 53.50870132446289 2.999992370605469 47.49993133544922 2.999992370605469 M 47.49993133544922 -7.62939453125e-06 C 73.73342132568359 -7.62939453125e-06 94.99985504150391 21.26644134521484 94.99985504150391 47.49993515014648 L 94.99985504150391 47.50005722045898 C 94.99985504150391 73.73355102539062 73.73342132568359 95 47.49993133544922 95 C 21.26644134521484 95 -7.62939453125e-06 73.73355102539062 -7.62939453125e-06 47.50005722045898 L -7.62939453125e-06 47.49993515014648 C -7.62939453125e-06 21.26644134521484 21.26644134521484 -7.62939453125e-06 47.49993133544922 -7.62939453125e-06 Z" stroke="none" fill="#fff"/>
            </g>
          </g>
          <g id="Rect치ngulo_400907" data-name="Rect치ngulo 400907" transform="translate(0)" fill="none" stroke="#fff" stroke-width="3">
            <rect width="95" height="95" rx="47.5" stroke="none"/>
            <rect x="1.5" y="1.5" width="92" height="92" rx="46" fill="none"/>
          </g>
        </g>
      </g>
    </g>
    <g id="Grupo_1180836" data-name="Grupo 1180836" transform="translate(18.125 18.125)">
      <g id="Grupo_1180835" data-name="Grupo 1180835" clip-path="url(#clip-path)">
        <path id="Trazado_1054131" data-name="Trazado 1054131" d="M3.107,82.72c.118-2.076-.267-4.155.379-6.16a9.229,9.229,0,0,1,6.621-6.414c.164-.047.331-.086.5-.132.016,0,.026-.027.051-.053l.366-1.515A4.681,4.681,0,0,1,8.7,65.372a3.721,3.721,0,0,1-2.222-6.72,3.163,3.163,0,0,1-1.544-3.176,7.992,7.992,0,0,1,.966-4.5,6.268,6.268,0,0,1,5.43-3.045c1.775-.023,3.552.048,5.325-.017a6.456,6.456,0,0,1,6.557,5.356,15.328,15.328,0,0,1,2.311.519,2.374,2.374,0,0,1,1.366,1.78c.915.065,1.07-.045,1.33-.971a4.742,4.742,0,0,1-2.1-2.962c-2.1-.26-3.3-1.164-3.645-2.936a8.111,8.111,0,0,1,.129-2.07,1.917,1.917,0,0,0,.039-.593A7.056,7.056,0,0,1,28.54,37a40.316,40.316,0,0,1,5.089-.073,6.717,6.717,0,0,1,3.029.692,7.125,7.125,0,0,1,3.817,8.217,2.87,2.87,0,0,0,.025.922c.067.762.147,1.524.209,2.154.773-.269,1.683-.625,2.619-.891a5.145,5.145,0,0,1,1.363-.091q2.634-.013,5.268,0A6.377,6.377,0,0,1,56.169,53.2a1.748,1.748,0,0,0,.079.223c.319,0,.656,0,.994,0a2.749,2.749,0,0,1,0,5.5c-.687.006-1.373,0-2.163,0a3.668,3.668,0,0,1,.935,4.1,3.627,3.627,0,0,1-3.488,2.342,4.665,4.665,0,0,1-2.271,3.051.418.418,0,0,0-.034.119c.058,1.09.636,1.542,1.7,1.888A9.16,9.16,0,0,1,58.1,79.148c0,1.181,0,2.361,0,3.573Zm19.02-23.773a1.764,1.764,0,0,0,.1.171c1.6,1.917,1.391,3.973-.559,5.58a.755.755,0,0,0-.213.522c-.015,2.042-.021,4.084.006,6.126a1.074,1.074,0,0,0,.343.7,9.175,9.175,0,0,1,3.2,5.883c.115.976.105,1.967.153,2.966H36.05c.031-.042.051-.057.051-.072,0-.554,0-1.107.012-1.66a9.177,9.177,0,0,1,4.2-7.757.717.717,0,0,0,.386-.676c-.02-1.679-.016-3.359,0-5.039a.542.542,0,0,0-.407-.617,3.528,3.528,0,0,1-2.268-2.661,3.734,3.734,0,0,1,.926-3.279L36.767,57.72c-.3,2.688-.58,5.187-.859,7.686l-.154.065L33.919,63.6c.1.754.192,1.428.289,2.1q.488,3.392.985,6.783a.926.926,0,0,1-.307.9c-.7.652-1.36,1.338-2.029,2.018-.436.443-.858.9-1.3,1.363-1.192-1.2-2.286-2.314-3.408-3.4a.888.888,0,0,1-.284-.858q.444-2.995.868-5.992c.135-.945.263-1.891.4-2.836l-.146-.09L27.169,65.56c-.291-2.6-.564-5.056-.854-7.648-1.181,1.406-2.737.9-4.187,1.036m-.813-5.524A4.488,4.488,0,0,0,17.03,49.77c-1.945-.037-3.892-.04-5.837,0A4.457,4.457,0,0,0,6.9,53.507a17.369,17.369,0,0,0-.108,2.507c-.008.726.357,1.071,1.1,1.073,1.793.006,3.587.012,5.379-.011a.894.894,0,0,0,.6-.3c.55-.681,1.063-1.393,1.584-2.1a2.894,2.894,0,0,1,2.546-1.261c1.1.028,2.2.006,3.309.006m32.981,0a4.47,4.47,0,0,0-4.264-3.653q-2.918-.059-5.837,0a4.464,4.464,0,0,0-4.3,3.722,17.22,17.22,0,0,0-.111,2.45c-.012.809.333,1.143,1.143,1.145,1.755,0,3.51-.009,5.265.01a.809.809,0,0,0,.749-.39C47.447,56,47.979,55.3,48.51,54.6a2.813,2.813,0,0,1,2.412-1.181c1.123.019,2.246,0,3.374,0M27.866,48c0,.9-.013,1.793,0,2.689a2.644,2.644,0,0,0,2.175,2.637,13.184,13.184,0,0,0,2.333.094,2.752,2.752,0,0,0,2.815-2.825c.012-1.735.006-3.471,0-5.206,0-.777-.342-1.123-1.108-1.126q-2.545-.009-5.091,0c-.8,0-1.125.345-1.129,1.164,0,.858,0,1.716,0,2.575M43.459,58.947c0,1.943-.058,3.866.021,5.783a2.47,2.47,0,0,0,2.151,2.337,11.081,11.081,0,0,0,2.951,0,2.467,2.467,0,0,0,2.152-2.336c.08-1.917.022-3.84.022-5.784Zm-33-.007c0,1.9-.025,3.753.009,5.6a2.592,2.592,0,0,0,2.1,2.516,13.248,13.248,0,0,0,2.331.111,2.758,2.758,0,0,0,2.883-2.871c.009-1.659,0-3.318,0-4.977a3.715,3.715,0,0,0-.037-.378ZM47.114,74.83c-.9-.878-1.8-1.751-2.682-2.638-.228-.228-.463-.477-.77-.251a.855.855,0,0,0-.21.614c-.014,2.613-.01,5.225-.008,7.838,0,.165.018.329.027.49h7.3c0-2.8,0-5.56-.009-8.322a.864.864,0,0,0-.205-.617c-.3-.229-.543.016-.77.245-.885.889-1.784,1.764-2.674,2.641m-32.987,0c-.914-.9-1.812-1.753-2.675-2.641-.313-.322-.593-.443-.965-.171v8.863h7.278V72.021a.667.667,0,0,0-.963.159c-.871.9-1.778,1.771-2.674,2.655M38.866,44.588c-.04-.529-.051-1.032-.121-1.526a5.086,5.086,0,0,0-4.234-4.171,41.082,41.082,0,0,0-5.369-.1,5.114,5.114,0,0,0-4.753,3.963,13.913,13.913,0,0,0-.215,1.877,14.924,14.924,0,0,1,1.546-.358.719.719,0,0,0,.661-.395,2.687,2.687,0,0,1,2.53-1.461c1.718.017,3.436.026,5.153,0a2.82,2.82,0,0,1,2.674,1.528c.068.119.176.271.291.3.551.125,1.111.213,1.837.344m-7.317,29.58c.52-.546,1-1.009,1.426-1.519a1.085,1.085,0,0,0,.256-.739c-.473-3.452-.973-6.9-1.475-10.346a1.447,1.447,0,0,0-.191-.393.808.808,0,0,0-.271.494q-.318,2.147-.625,4.3c-.285,1.979-.577,3.956-.842,5.937a.928.928,0,0,0,.172.659c.46.531.972,1.019,1.55,1.611M56.242,80.9c.425-4.548-1.713-7.094-3.6-8.028V80.9Zm-47.665,0V72.805A7.8,7.8,0,0,0,5.035,80.9Zm11.076-8.126v8.11h3.588c.314-3.368-.606-6.155-3.588-8.11M41.573,80.9V72.816c-2.9,1.735-3.969,4.778-3.56,8.083ZM15.964,57.089c2.8,0,5.487.006,8.172,0a.917.917,0,0,0,.975-.909.931.931,0,0,0-1.028-.914c-2.058-.008-4.116-.018-6.174.013a1.322,1.322,0,0,0-.84.375,15.429,15.429,0,0,0-1.106,1.44m32.988,0c2.8,0,5.463,0,8.13,0a.92.92,0,1,0-.025-1.826c-2.058-.008-4.116-.016-6.174.013a1.23,1.23,0,0,0-.8.344,17.359,17.359,0,0,0-1.133,1.473M34.726,54.667c.224.307.359.7.6.789.846.3,1.731.5,2.622.745-.023-1.669-.149-3.364.763-4.93l-1.783.4a4.823,4.823,0,0,1-2.207,2.993m-20.615,17.6c.873-.914,2.186-1.568,1.363-3.145a.666.666,0,0,0-.071-.091H12.8c-.092.353-.166.685-.265,1.01a.757.757,0,0,0,.242.894c.457.4.864.856,1.335,1.331m34.3-3.231H45.772c-.1.437-.206.841-.281,1.251a.532.532,0,0,0,.06.4c.506.533,1.035,1.043,1.6,1.606a4.072,4.072,0,0,1,.492-.551c.906-.69,1.4-1.494.812-2.64-.008-.016-.019-.031-.043-.068M19.577,70.6V65.42a4.951,4.951,0,0,1-2.361,3.03c.114.453.208.878.332,1.293a.491.491,0,0,0,.247.3c.587.2,1.184.377,1.782.562M31.529,58.3c.483-.645.9-1.253,1.374-1.815a.931.931,0,0,0,.147-1.227H30a.951.951,0,0,0,.16,1.239c.465.55.874,1.148,1.364,1.8m-5.523-8.562V46.113a1.812,1.812,0,0,0,0,3.625M8.6,63.485V59.86a1.812,1.812,0,0,0,0,3.625m11.04-3.63v3.62a1.816,1.816,0,0,0,1.812-1.761,1.848,1.848,0,0,0-1.812-1.859m21.948,3.63V59.859a1.813,1.813,0,0,0,0,3.625m11.044-3.625v3.624a1.812,1.812,0,0,0,0-3.624M37.045,49.749a1.867,1.867,0,0,0,1.811-1.94,1.79,1.79,0,0,0-1.811-1.672ZM28.568,61.439c1.446-1.226,1.539-1.956.478-3.375-.148-.2-.282-.409-.447-.592a1.489,1.489,0,0,0-.348-.219,1.1,1.1,0,0,0-.115.388c.132,1.249.281,2.5.431,3.8m5.927-.028c.147-1.28.3-2.527.428-3.777a1.053,1.053,0,0,0-.121-.384,1.02,1.02,0,0,0-.311.183c-.377.479-.745.965-1.1,1.463a.778.778,0,0,0-.094.419,2.278,2.278,0,0,0,1.194,2.1m8.056,8.878L43.632,70,44,68.5l-1.445-1.2Z" transform="translate(-2.103 -25.03)" fill="#070808"/>
        <path id="Trazado_1054132" data-name="Trazado 1054132" d="M61.07,14.3l-1.209,2.034a27.713,27.713,0,0,1,3.316,6.7c-2.572,0-5.108.008-7.643-.019-.166,0-.388-.247-.484-.431a19.224,19.224,0,0,0-34.108-.365,1.294,1.294,0,0,1-1.37.834c-2.308-.052-4.618-.019-7.117-.019.778-1.651,1.507-3.22,2.258-4.779a4.83,4.83,0,0,1,.709-1.167,1.076,1.076,0,0,0,0-1.58,11.793,11.793,0,0,1-.685-1.124l6.272-6.23c.467.276,1.028.632,1.614.94A.683.683,0,0,0,23.2,9.1a26.43,26.43,0,0,1,9.314-3.849.55.55,0,0,0,.5-.5c.12-.613.3-1.214.457-1.853h8.806c.14.568.312,1.165.429,1.773a.667.667,0,0,0,.617.6A25.173,25.173,0,0,1,50.716,8a5.733,5.733,0,0,1,1.171.7c.691.642,1.276.473,1.975,0,.981-.669,1.009-.628,1.859.222l4.939,4.942c.133.133.26.273.409.43m-44.023.327c.274.457.55.953.863,1.427a.553.553,0,0,1-.033.71c-.69,1.072-1.351,2.162-2,3.257-.215.36-.371.754-.577,1.181,1.231,0,2.358-.027,3.483.013a.854.854,0,0,0,.882-.518,21.079,21.079,0,0,1,36.484.037c.111.187.32.441.491.447,1.251.038,2.5.021,3.974.021-.945-1.551-1.8-2.982-2.69-4.39a.615.615,0,0,1-.039-.8c.311-.45.568-.937.806-1.337l-4.194-4.2c-.435.262-.917.534-1.378.838a.531.531,0,0,1-.708-.028A24.21,24.21,0,0,0,41.753,6.866a.553.553,0,0,1-.525-.487c-.118-.553-.266-1.1-.4-1.659H34.936c-.133.539-.276,1.068-.389,1.6a.607.607,0,0,1-.594.555,14.455,14.455,0,0,0-1.57.288A24.523,24.523,0,0,0,23.4,11.239a.589.589,0,0,1-.8.031c-.45-.309-.937-.566-1.369-.821l-4.185,4.176" transform="translate(-8.454 -1.97)" fill="#0a0a09"/>
        <path id="Trazado_1054133" data-name="Trazado 1054133" d="M60.894,102.983c1.45-.133,3.007.37,4.187-1.036.289,2.592.563,5.043.854,7.648l1.814-1.974.146.09c-.131.945-.26,1.891-.4,2.836q-.429,3-.868,5.992a.887.887,0,0,0,.283.858c1.122,1.09,2.216,2.209,3.408,3.4.443-.465.865-.92,1.3-1.363.67-.68,1.333-1.367,2.029-2.018a.926.926,0,0,0,.306-.9q-.5-3.39-.985-6.783c-.1-.673-.186-1.348-.289-2.1l1.833,1.876.154-.065c.279-2.5.559-5,.859-7.686l2.184,1.409a3.733,3.733,0,0,0-.926,3.279,3.528,3.528,0,0,0,2.268,2.661.543.543,0,0,1,.407.618c-.013,1.679-.017,3.359,0,5.038a.718.718,0,0,1-.386.677,9.176,9.176,0,0,0-4.2,7.757c-.012.553-.007,1.107-.012,1.66,0,.015-.02.03-.051.072H63.931c-.048-1-.038-1.99-.153-2.966a9.175,9.175,0,0,0-3.2-5.882,1.076,1.076,0,0,1-.344-.7c-.027-2.042-.021-4.084-.006-6.126a.755.755,0,0,1,.213-.521c1.95-1.608,2.162-3.663.559-5.581a1.653,1.653,0,0,1-.105-.171" transform="translate(-40.87 -69.066)" fill="#38b4e4"/>
        <path id="Trazado_1054134" data-name="Trazado 1054134" d="M29.124,80.6c-1.108,0-2.209.022-3.309-.006a2.9,2.9,0,0,0-2.546,1.261c-.52.705-1.033,1.417-1.584,2.1a.891.891,0,0,1-.6.3c-1.793.023-3.587.017-5.38.012-.742,0-1.107-.347-1.1-1.073a17.369,17.369,0,0,1,.108-2.507A4.457,4.457,0,0,1,19,76.951c1.945-.042,3.892-.039,5.838,0A4.488,4.488,0,0,1,29.124,80.6" transform="translate(-9.912 -52.209)" fill="#ffe395"/>
        <path id="Trazado_1054135" data-name="Trazado 1054135" d="M131.8,80.6c-1.129,0-2.252.014-3.374,0a2.813,2.813,0,0,0-2.412,1.181c-.53.7-1.062,1.395-1.571,2.108a.81.81,0,0,1-.749.39c-1.755-.02-3.51-.006-5.265-.01-.81,0-1.155-.336-1.142-1.145a17.269,17.269,0,0,1,.111-2.45,4.464,4.464,0,0,1,4.3-3.722q2.918-.059,5.838,0A4.47,4.47,0,0,1,131.8,80.6" transform="translate(-79.606 -52.209)" fill="#ffe395"/>
        <path id="Trazado_1054136" data-name="Trazado 1054136" d="M80.18,63.591c0-.858,0-1.716,0-2.575,0-.819.332-1.161,1.129-1.163q2.545-.008,5.091,0c.766,0,1.106.349,1.108,1.126.005,1.735.011,3.471,0,5.206a2.752,2.752,0,0,1-2.815,2.825,13.153,13.153,0,0,1-2.333-.094,2.644,2.644,0,0,1-2.175-2.637c-.017-.9,0-1.793,0-2.689" transform="translate(-54.418 -40.622)" fill="#efc4a4"/>
        <path id="Trazado_1054137" data-name="Trazado 1054137" d="M128.687,105.576h7.3c0,1.944.059,3.867-.022,5.784a2.467,2.467,0,0,1-2.152,2.336,11.08,11.08,0,0,1-2.951,0,2.47,2.47,0,0,1-2.151-2.337c-.079-1.917-.021-3.84-.021-5.783" transform="translate(-87.331 -71.659)" fill="#efc5a4"/>
        <path id="Trazado_1054138" data-name="Trazado 1054138" d="M25.988,105.552h7.288a3.725,3.725,0,0,1,.037.378c0,1.659.009,3.318,0,4.977a2.758,2.758,0,0,1-2.884,2.87,13.249,13.249,0,0,1-2.331-.11,2.592,2.592,0,0,1-2.1-2.516c-.033-1.847-.009-3.7-.009-5.6" transform="translate(-17.633 -71.643)" fill="#efc5a4"/>
        <path id="Trazado_1054139" data-name="Trazado 1054139" d="M132.35,148.723c.891-.877,1.79-1.752,2.674-2.641.228-.229.465-.474.77-.246a.865.865,0,0,1,.205.618c.013,2.762.009,5.525.009,8.322h-7.3c-.009-.16-.027-.325-.027-.49,0-2.613-.006-5.226.008-7.838a.856.856,0,0,1,.21-.614c.307-.226.542.023.77.251.886.887,1.787,1.76,2.682,2.638" transform="translate(-87.339 -98.923)" fill="#afc96a"/>
        <path id="Trazado_1054140" data-name="Trazado 1054140" d="M29.737,148.771c.9-.883,1.8-1.752,2.673-2.654a.667.667,0,0,1,.963-.159v8.865H26.1v-8.862c.372-.272.652-.152.965.17.863.888,1.761,1.743,2.675,2.641" transform="translate(-17.712 -98.966)" fill="#afc96a"/>
        <path id="Trazado_1054141" data-name="Trazado 1054141" d="M83.392,48.544c-.726-.131-1.285-.219-1.837-.344-.115-.026-.222-.179-.291-.3a2.822,2.822,0,0,0-2.675-1.529c-1.717.028-3.436.02-5.153,0a2.687,2.687,0,0,0-2.53,1.461.719.719,0,0,1-.661.395,14.832,14.832,0,0,0-1.546.357,14.031,14.031,0,0,1,.215-1.877,5.114,5.114,0,0,1,4.753-3.963,41.082,41.082,0,0,1,5.369.1,5.085,5.085,0,0,1,4.234,4.171c.07.494.081,1,.121,1.526" transform="translate(-46.63 -28.985)" fill="#525b66"/>
        <path id="Trazado_1054142" data-name="Trazado 1054142" d="M88,125.5c-.579-.593-1.09-1.08-1.551-1.611a.928.928,0,0,1-.172-.659c.265-1.981.557-3.959.842-5.937q.31-2.148.625-4.3a.807.807,0,0,1,.271-.494,1.459,1.459,0,0,1,.191.393c.5,3.447,1,6.9,1.476,10.347a1.084,1.084,0,0,1-.257.738c-.425.51-.906.973-1.425,1.519" transform="translate(-58.558 -76.358)" fill="#dce0e5"/>
        <path id="Trazado_1054143" data-name="Trazado 1054143" d="M160.918,156.944h-3.6v-8.028c1.886.934,4.023,3.48,3.6,8.028" transform="translate(-106.78 -101.075)" fill="#e9685c"/>
        <path id="Trazado_1054144" data-name="Trazado 1054144" d="M12.471,156.805H8.929a7.8,7.8,0,0,1,3.542-8.092Z" transform="translate(-5.997 -100.938)" fill="#e9685c"/>
        <path id="Trazado_1054145" data-name="Trazado 1054145" d="M54.629,148.608c2.983,1.955,3.9,4.742,3.588,8.11H54.629Z" transform="translate(-37.079 -100.866)" fill="#e9685c"/>
        <path id="Trazado_1054146" data-name="Trazado 1054146" d="M115.159,156.831H111.6c-.41-3.305.656-6.348,3.56-8.083Z" transform="translate(-75.69 -100.961)" fill="#e9685c"/>
        <path id="Trazado_1054147" data-name="Trazado 1054147" d="M43.145,95.911a15.422,15.422,0,0,1,1.105-1.44,1.317,1.317,0,0,1,.839-.375c2.058-.031,4.116-.022,6.174-.014A.931.931,0,0,1,52.292,95a.917.917,0,0,1-.975.909c-2.686.011-5.372,0-8.172,0" transform="translate(-29.284 -63.852)" fill="#ffcb59"/>
        <path id="Trazado_1054148" data-name="Trazado 1054148" d="M145.827,95.913a17.362,17.362,0,0,1,1.133-1.473,1.233,1.233,0,0,1,.8-.344c2.058-.028,4.116-.02,6.174-.013a.937.937,0,0,1,1.043.9.927.927,0,0,1-1.018.926c-2.667.008-5.334,0-8.13,0" transform="translate(-98.979 -63.853)" fill="#ffcb59"/>
        <path id="Trazado_1054150" data-name="Trazado 1054150" d="M33.932,140.187c-.471-.475-.878-.932-1.335-1.331a.757.757,0,0,1-.242-.894c.1-.325.173-.657.264-1.01h2.6a.646.646,0,0,1,.071.091c.823,1.577-.49,2.23-1.363,3.145" transform="translate(-21.924 -92.955)" fill="#ecc2a2"/>
        <path id="Trazado_1054151" data-name="Trazado 1054151" d="M137.951,136.967c.024.038.035.052.043.068.593,1.146.095,1.949-.812,2.64a4.053,4.053,0,0,0-.492.551c-.567-.563-1.1-1.073-1.6-1.606a.532.532,0,0,1-.06-.4c.076-.41.181-.814.281-1.251Z" transform="translate(-91.641 -92.965)" fill="#ecc2a2"/>
        <path id="Trazado_1054153" data-name="Trazado 1054153" d="M88.03,97.133c-.491-.655-.9-1.253-1.364-1.8a.951.951,0,0,1-.16-1.239h3.046a.931.931,0,0,1-.147,1.227c-.473.562-.891,1.171-1.374,1.815" transform="translate(-58.604 -63.863)" fill="#ebc1a1"/>
        <path id="Trazado_1054154" data-name="Trazado 1054154" d="M70.587,69.252a1.812,1.812,0,0,1,0-3.625Z" transform="translate(-46.685 -44.544)" fill="#ebc1a1"/>
        <path id="Trazado_1054155" data-name="Trazado 1054155" d="M16.4,112.041a1.813,1.813,0,0,1,0-3.625Z" transform="translate(-9.902 -73.586)" fill="#ebc1a1"/>
        <path id="Trazado_1054156" data-name="Trazado 1054156" d="M54.579,108.4a1.848,1.848,0,0,1,1.812,1.859,1.816,1.816,0,0,1-1.812,1.761Z" transform="translate(-37.045 -73.576)" fill="#ebc1a1"/>
        <path id="Trazado_1054157" data-name="Trazado 1054157" d="M119.079,112.041a1.813,1.813,0,0,1,0-3.625Z" transform="translate(-79.597 -73.586)" fill="#ebc1a1"/>
        <path id="Trazado_1054158" data-name="Trazado 1054158" d="M157.274,108.415a1.812,1.812,0,0,1,0,3.624Z" transform="translate(-106.748 -73.586)" fill="#ebc1a1"/>
        <path id="Trazado_1054159" data-name="Trazado 1054159" d="M108.766,69.311V65.7a1.79,1.79,0,0,1,1.812,1.672,1.867,1.867,0,0,1-1.812,1.94" transform="translate(-73.824 -44.593)" fill="#ebc1a1"/>
        <path id="Trazado_1054160" data-name="Trazado 1054160" d="M81.465,104.489c-.15-1.3-.3-2.549-.431-3.8a1.1,1.1,0,0,1,.115-.388,1.491,1.491,0,0,1,.347.219c.165.183.3.394.447.592,1.06,1.419.968,2.149-.478,3.374" transform="translate(-55 -68.08)" fill="#229ccc"/>
        <path id="Trazado_1054161" data-name="Trazado 1054161" d="M98.3,104.455a2.279,2.279,0,0,1-1.194-2.1.78.78,0,0,1,.094-.419c.35-.5.719-.984,1.1-1.463a1.018,1.018,0,0,1,.311-.183,1.064,1.064,0,0,1,.121.384c-.132,1.249-.28,2.5-.428,3.777" transform="translate(-65.912 -68.074)" fill="#229ccc"/>
        <path id="Trazado_1054163" data-name="Trazado 1054163" d="M23.049,18.464l4.185-4.176c.432.256.918.512,1.369.821a.589.589,0,0,0,.8-.031A24.515,24.515,0,0,1,38.384,11a14.451,14.451,0,0,1,1.57-.288.607.607,0,0,0,.594-.555c.113-.535.257-1.063.389-1.6h5.889c.137.559.285,1.105.4,1.659a.552.552,0,0,0,.524.487,24.2,24.2,0,0,1,10.653,4.409.532.532,0,0,0,.709.028c.46-.3.942-.575,1.378-.838l4.194,4.2c-.237.4-.5.886-.806,1.337a.615.615,0,0,0,.039.8c.891,1.407,1.745,2.838,2.69,4.39-1.47,0-2.723.017-3.974-.021-.17-.005-.38-.26-.491-.447a21.079,21.079,0,0,0-36.484-.037.854.854,0,0,1-.882.518c-1.124-.04-2.251-.013-3.483-.013.206-.427.363-.821.577-1.181.652-1.1,1.314-2.186,2-3.257a.553.553,0,0,0,.033-.71c-.312-.473-.589-.97-.862-1.427m20.805-6.256a.917.917,0,1,0-.888-.973.914.914,0,0,0,.888.973M28.191,18.521a.907.907,0,0,0-.934-.927.924.924,0,0,0-.9.914.905.905,0,0,0,.942.918.888.888,0,0,0,.89-.9m33.1-.031a.917.917,0,1,0-1.834.049.917.917,0,0,0,1.834-.049" transform="translate(-14.455 -5.809)" fill="#ffcb59"/>
        <path id="Trazado_1054164" data-name="Trazado 1054164" d="M89.631,16.042a.918.918,0,1,1,.944-.862.913.913,0,0,1-.944.862" transform="translate(-60.232 -9.643)" fill="#131108"/>
        <path id="Trazado_1054165" data-name="Trazado 1054165" d="M38.887,37.61a.887.887,0,0,1-.89.9.906.906,0,0,1-.942-.919.924.924,0,0,1,.9-.913.907.907,0,0,1,.933.927" transform="translate(-25.151 -24.898)" fill="#141108"/>
        <path id="Trazado_1054166" data-name="Trazado 1054166" d="M141.918,37.579a.917.917,0,0,1-1.834.049.917.917,0,1,1,1.834-.049" transform="translate(-95.081 -24.898)" fill="#141108"/>
      </g>
    </g>
  </g>
</svg>
