<svg id="Grupo_1111399" data-name="Grupo 1111399" xmlns="http://www.w3.org/2000/svg" width="50" height="50" viewBox="0 0 50 50">
  <g id="Grupo_20664" data-name="Grupo 20664">
    <path id="Trazado_99075" data-name="Trazado 99075" d="M25,0A25,25,0,1,1,0,25,25,25,0,0,1,25,0Z" fill="#fd9826"/>
    <path id="Trazado_1054846" data-name="Trazado 1054846" d="M1.289,25V7.938H7.418a8.679,8.679,0,0,1,5.01,1.207,4.016,4.016,0,0,1,1.717,3.5,4.06,4.06,0,0,1-.609,2.262,3.551,3.551,0,0,1-1.793,1.383,3.6,3.6,0,0,1,2.051,1.313,3.816,3.816,0,0,1,.715,2.344,4.518,4.518,0,0,1-1.588,3.768A7.556,7.556,0,0,1,8.215,25ZM5.4,17.746v4.09H8.1a2.564,2.564,0,0,0,1.711-.51,1.784,1.784,0,0,0,.6-1.436,1.891,1.891,0,0,0-2.121-2.145Zm0-2.7H7.547a3.047,3.047,0,0,0,1.922-.494,1.752,1.752,0,0,0,.574-1.422,1.839,1.839,0,0,0-.621-1.557,3.324,3.324,0,0,0-2-.476H5.4Z" transform="translate(18.051 10)" fill="#12263f"/>
  </g>
</svg>
