<svg xmlns="http://www.w3.org/2000/svg" xmlns:xlink="http://www.w3.org/1999/xlink" width="113" height="113" viewBox="0 0 113 113">
  <defs>
    <filter id="Trazado_896985" x="0" y="0" width="113" height="113" filterUnits="userSpaceOnUse">
      <feOffset dy="3" input="SourceAlpha"/>
      <feGaussianBlur stdDeviation="3" result="blur"/>
      <feFlood flood-opacity="0.161"/>
      <feComposite operator="in" in2="blur"/>
      <feComposite in="SourceGraphic"/>
    </filter>
  </defs>
  <g id="Grupo_1180218" data-name="Grupo 1180218" transform="translate(9 6)">
    <g id="Grupo_1111319" data-name="Grupo 1111319" transform="translate(0 0)">
      <g id="Grupo_1109827" data-name="Grupo 1109827">
        <g id="Grupo_1098742" data-name="Grupo 1098742">
          <g transform="matrix(1, 0, 0, 1, -9, -6)" filter="url(#Trazado_896985)">
            <g id="Trazado_896985-2" data-name="Trazado 896985" transform="translate(9 6)" fill="#5ab4f9" opacity="0.859">
              <path d="M 47.49993133544922 93.5 C 41.2893180847168 93.5 35.26527786254883 92.28396606445312 29.59514427185059 89.88571929931641 C 24.11767768859863 87.56893920898438 19.19810485839844 84.25196838378906 14.97306442260742 80.02693176269531 C 10.74802494049072 75.80188751220703 7.431051254272461 70.88231658935547 5.114277839660645 65.40484619140625 C 2.71602463722229 59.73471450805664 1.499997973442078 53.71067428588867 1.499997973442078 47.50006103515625 C 1.499997973442078 41.2893180847168 2.71602463722229 35.26527786254883 5.114277839660645 29.59514236450195 C 7.431051254272461 24.11768913269043 10.74802494049072 19.1981029510498 14.97306442260742 14.97306251525879 C 19.19810485839844 10.74802303314209 24.11767768859863 7.431049346923828 29.59514427185059 5.114289283752441 C 35.26527786254883 2.716022968292236 41.2893180847168 1.499996185302734 47.49993133544922 1.499996185302734 C 53.71054458618164 1.499996185302734 59.73458480834961 2.716022968292236 65.40471649169922 5.114289283752441 C 70.88218688964844 7.431049346923828 75.8017578125 10.74802303314209 80.02679443359375 14.97306251525879 C 84.25183868408203 19.1981029510498 87.56880950927734 24.11768913269043 89.88558197021484 29.59514236450195 C 92.28383636474609 35.26527786254883 93.49986267089844 41.2893180847168 93.49986267089844 47.49993133544922 C 93.49986267089844 53.71067428588867 92.28383636474609 59.73471450805664 89.88558197021484 65.40484619140625 C 87.56880950927734 70.88231658935547 84.25183868408203 75.80188751220703 80.02679443359375 80.02693176269531 C 75.8017578125 84.25196838378906 70.88218688964844 87.56893920898438 65.40471649169922 89.88571929931641 C 59.73458480834961 92.28396606445312 53.71054458618164 93.5 47.49993133544922 93.5 Z" stroke="none"/>
              <path d="M 47.49993133544922 2.999992370605469 C 41.49116134643555 2.999992370605469 35.66371536254883 4.1761474609375 30.17946624755859 6.495796203613281 C 24.88080596923828 8.736930847167969 20.12148284912109 11.94596862792969 16.03371429443359 16.03372192382812 C 11.94596099853516 20.12149047851562 8.736930847167969 24.88081359863281 6.495796203613281 30.17947387695312 C 4.1761474609375 35.66371917724609 2.999992370605469 41.49116516113281 2.999992370605469 47.50005722045898 C 2.999992370605469 53.50882720947266 4.1761474609375 59.33627319335938 6.495796203613281 64.82051849365234 C 8.736930847167969 70.11917877197266 11.94596099853516 74.87850189208984 16.03371429443359 78.96627044677734 C 20.12148284912109 83.05402374267578 24.88080596923828 86.2630615234375 30.17946624755859 88.50419616699219 C 35.66371536254883 90.82384490966797 41.49116134643555 92 47.49993133544922 92 C 53.50870132446289 92 59.33614730834961 90.82384490966797 64.82038879394531 88.50419616699219 C 70.11905670166016 86.2630615234375 74.87836456298828 83.05402374267578 78.96613311767578 78.96627044677734 C 83.05390167236328 74.87850189208984 86.26291656494141 70.11917877197266 88.50406646728516 64.82051849365234 C 90.82369995117188 59.33627319335938 91.99985504150391 53.50882720947266 91.99985504150391 47.49993515014648 C 91.99985504150391 41.49116516113281 90.82369995117188 35.66371917724609 88.50406646728516 30.17947387695312 C 86.26291656494141 24.88081359863281 83.05390167236328 20.12149047851562 78.96613311767578 16.03372192382812 C 74.87836456298828 11.94596862792969 70.11905670166016 8.736930847167969 64.82038879394531 6.495796203613281 C 59.33614730834961 4.1761474609375 53.50870132446289 2.999992370605469 47.49993133544922 2.999992370605469 M 47.49993133544922 -7.62939453125e-06 C 73.73342132568359 -7.62939453125e-06 94.99985504150391 21.26644134521484 94.99985504150391 47.49993515014648 L 94.99985504150391 47.50005722045898 C 94.99985504150391 73.73355102539062 73.73342132568359 95 47.49993133544922 95 C 21.26644134521484 95 -7.62939453125e-06 73.73355102539062 -7.62939453125e-06 47.50005722045898 L -7.62939453125e-06 47.49993515014648 C -7.62939453125e-06 21.26644134521484 21.26644134521484 -7.62939453125e-06 47.49993133544922 -7.62939453125e-06 Z" stroke="none" fill="#fff"/>
            </g>
          </g>
          <g id="Rectángulo_400907" data-name="Rectángulo 400907" transform="translate(0)" fill="none" stroke="#fff" stroke-width="3">
            <rect width="95" height="95" rx="47.5" stroke="none"/>
            <rect x="1.5" y="1.5" width="92" height="92" rx="46" fill="none"/>
          </g>
        </g>
      </g>
    </g>
    <g id="Grupo_1180846" data-name="Grupo 1180846" transform="translate(16.251 16.262)">
      <g id="Grupo_1180847" data-name="Grupo 1180847" transform="translate(0.353 0.894)">
        <path id="Trazado_1054251" data-name="Trazado 1054251" d="M28.637,33.687c-2.787-1.653-3.8-2.931-4.243-5.263a13.662,13.662,0,0,1-2.124-.785,3.568,3.568,0,0,1-1.869-3.27q-.015-5.556,0-11.112A10.616,10.616,0,0,1,29.539,2.98a21.715,21.715,0,0,1,8.3.241A10.411,10.411,0,0,1,45.7,12.038c.032.178.077.354.123.564.677,0,1.347-.006,2.017,0a2.931,2.931,0,0,1,.028,5.86c-.667.009-1.335,0-2.058,0,0,1.946,0,3.853,0,5.759a3.878,3.878,0,0,1-3.13,3.943,8.091,8.091,0,0,1-.834.1,7.2,7.2,0,0,1-1.4,3.216,7.058,7.058,0,0,1-2.818,2.13.663.663,0,0,0-.035.144,1.954,1.954,0,0,0,1.466,1.981A19.556,19.556,0,0,1,51.388,50.821a18.482,18.482,0,0,1,.271,3.335c.039,2.416.012,4.833.012,7.3h11.7v1.932H2.836V61.468h11.7V59.794c0-1.933-.052-3.869.01-5.8.241-7.623,3.733-13.332,10.277-17.186a20.7,20.7,0,0,1,2.985-1.34.857.857,0,0,0,.652-.728c.048-.341.115-.679.18-1.053m4.49,27.769a8.794,8.794,0,1,0-8.82-8.738,8.835,8.835,0,0,0,8.82,8.738M43.75,12.6c-.013-.222-.008-.4-.037-.576A8.678,8.678,0,0,0,37.1,5.068,26.7,26.7,0,0,0,32.489,4.8,12.463,12.463,0,0,0,29.4,5c-6.067,1.462-7.6,6.489-6.955,11.491h7.939c.138-.548.266-1.079.4-1.607A2.913,2.913,0,0,1,33.714,12.6q3.725-.006,7.45,0H43.75m-17.48,5.88c0,3.048-.046,6.036.015,9.022a4.648,4.648,0,0,0,3.973,4.5,37.378,37.378,0,0,0,4.563.13,4.9,4.9,0,0,0,5.122-5.08c.008-2.7,0-5.409,0-8.114,0-.154-.024-.308-.037-.461Zm-5.9,37.083V43.136a18.206,18.206,0,0,0-3.856,12.431Zm25.459-.014H49.7a18.227,18.227,0,0,0-3.876-12.429ZM32.445,16.51H34.77c4.228,0,8.456.008,12.684-.016a1.506,1.506,0,0,0,1.018-.376,1.21,1.21,0,0,0,.131-.988c-.142-.493-.613-.577-1.092-.576q-6.525.007-13.05,0c-1.526,0-1.653.1-1.968,1.606-.021.1-.028.2-.048.347M38.6,43.424a11.119,11.119,0,0,1,5.216,7.709c.042-3.3.043-6.572.037-9.848a.569.569,0,0,0-.111-.383,16.573,16.573,0,0,0-3.8-2.617c0,1,.024,1.913-.006,2.823A3.01,3.01,0,0,1,38.6,43.424M26.211,38.136c-1.305.954-2.5,1.817-3.673,2.7a.579.579,0,0,0-.178.413q-.015,4.938-.008,9.877a11.289,11.289,0,0,1,5.28-7.714c-1.947-1.3-1.211-3.274-1.421-5.274m4.377-4.021c-.089.431-.183.806-.237,1.186-.03.208-.074.491.032.63.874,1.14,1.781,2.254,2.72,3.428.933-1.167,1.822-2.271,2.7-3.388a.634.634,0,0,0,.1-.446c-.077-.473-.192-.94-.292-1.409ZM20.381,57.586H16.526v3.833h3.855Zm29.32,0H45.844V61.42H49.7ZM39.339,61.419h4.514v-7.2a11.467,11.467,0,0,1-4.514,7.2m-12.464.007A11.25,11.25,0,0,1,22.389,54.2v7.222ZM32.62,41.914c-1.2-1.5-2.324-2.875-3.411-4.285-.323-.42-.6-.45-.993-.141,0,1.125-.01,2.24,0,3.354a.974.974,0,0,0,1,1.066c1.091.023,2.183.006,3.4.006m5.368-4.443c-.411-.295-.711-.266-.986.154-.243.372-.552.7-.83,1.048l-2.582,3.238c1.226,0,2.337.02,3.446-.008a.949.949,0,0,0,.945-.995c.02-1.155.006-2.309.006-3.438M24.279,22.4a1.932,1.932,0,0,0,0,3.864Zm17.633,3.862a1.957,1.957,0,0,0,1.938-2.012,1.874,1.874,0,0,0-1.938-1.807ZM24.254,20.318V18.5h-1.86v2.337l1.86-.523M43.824,18.5H41.939v1.813l1.885.531Z" transform="translate(-2.211 -2.699)" fill="#080807"/>
        <path id="Trazado_1054252" data-name="Trazado 1054252" d="M9.481,24.415h.952v12.7H13.99c-.107.242-.178.425-.265.6-1.25,2.5-2.51,5-3.751,7.5a2.621,2.621,0,0,1-4.9.007C3.825,42.7,2.558,40.185,1.3,37.667c-.079-.157-.145-.321-.235-.524h3.5V22.489H6.531V39.106h-2.3c.925,1.853,1.808,3.649,2.72,5.43a.591.591,0,0,0,1.107.04c.928-1.794,1.818-3.608,2.766-5.5H8.536V24.415Z" transform="translate(-1.064 -15.508)" fill="#060607"/>
        <path id="Trazado_1054253" data-name="Trazado 1054253" d="M148.009,24.415h.952v12.7h3.556c-.107.242-.178.425-.265.6-1.25,2.5-2.51,5-3.751,7.5a2.621,2.621,0,0,1-4.9.007c-1.25-2.522-2.517-5.035-3.775-7.553-.079-.158-.145-.322-.235-.524h3.5V22.489h1.969V39.106h-2.3c.925,1.853,1.808,3.649,2.72,5.43a.591.591,0,0,0,1.107.04c.928-1.794,1.818-3.608,2.765-5.5h-2.292V24.415Z" transform="translate(-90.726 -15.508)" fill="#060607"/>
        <path id="Trazado_1054254" data-name="Trazado 1054254" d="M15.3,24.415h-.945V39.077h2.292c-.947,1.891-1.837,3.705-2.766,5.5a.591.591,0,0,1-1.107-.04c-.912-1.781-1.8-3.577-2.72-5.43h2.3V22.489H15.3Z" transform="translate(-6.883 -15.508)" fill="#c0c7d1"/>
        <path id="Trazado_1054255" data-name="Trazado 1054255" d="M153.828,24.415h-.945V39.077h2.292c-.947,1.891-1.837,3.705-2.765,5.5a.591.591,0,0,1-1.107-.04c-.913-1.781-1.8-3.577-2.72-5.43h2.3V22.489h2.95Z" transform="translate(-96.545 -15.508)" fill="#c0c7d1"/>
        <path id="Trazado_1054256" data-name="Trazado 1054256" d="M72.524,137a8.793,8.793,0,1,1,8.771-8.789A8.835,8.835,0,0,1,72.524,137m.956-3.885a2.947,2.947,0,1,0-.235-5.885c-.55,0-1.1.013-1.649,0a.975.975,0,1,1-.013-1.945c.488-.018.979.023,1.465-.011.747-.051,1.273.192,1.438.952h2.105a12.718,12.718,0,0,0-.821-1.765,2.893,2.893,0,0,0-2.328-1.174v-1.889h-1.92v1.9c-.127.013-.2.019-.283.03a2.936,2.936,0,0,0,.359,5.858c.611,0,1.222-.015,1.832.006a.972.972,0,1,1,.016,1.942c-.467.022-.938-.019-1.4.011-.768.05-1.373-.13-1.539-.959h-1.87c-.092,1.5,1,2.63,2.9,2.976v1.848H73.48Z" transform="translate(-41.608 -78.242)" fill="#ffcb59"/>
        <path id="Trazado_1054257" data-name="Trazado 1054257" d="M79.472,16.44H76.886q-3.725,0-7.45,0a2.914,2.914,0,0,0-2.929,2.278c-.138.528-.266,1.058-.4,1.607H58.164c-.648-5,.889-10.029,6.956-11.492a12.476,12.476,0,0,1,3.092-.2,26.739,26.739,0,0,1,4.611.267,8.676,8.676,0,0,1,6.612,6.958c.029.175.024.355.037.576" transform="translate(-37.933 -6.537)" fill="#ffe395"/>
        <path id="Trazado_1054258" data-name="Trazado 1054258" d="M69.237,47.443H82.872c.013.154.037.308.037.462,0,2.7.008,5.409,0,8.114A4.9,4.9,0,0,1,77.787,61.1a37.3,37.3,0,0,1-4.563-.131,4.648,4.648,0,0,1-3.973-4.5c-.061-2.986-.015-5.974-.015-9.022m11.68,7.825H79.1a7.133,7.133,0,0,1-.507,1.119,1.9,1.9,0,0,1-1.684.81c-1.252,0-2.5,0-3.732,0v1.952c1.405,0,2.768.032,4.13-.008a3.829,3.829,0,0,0,3.606-3.872m-8.749-3.933a.978.978,0,1,0-.986-.94.973.973,0,0,0,.986.94m8.789-.986a.978.978,0,1,0-.941.986.97.97,0,0,0,.941-.986" transform="translate(-45.178 -31.66)" fill="#efc4a4"/>
        <path id="Trazado_1054259" data-name="Trazado 1054259" d="M45.407,129.762H41.551a18.208,18.208,0,0,1,3.856-12.431Z" transform="translate(-27.253 -76.895)" fill="#e9685c"/>
        <path id="Trazado_1054260" data-name="Trazado 1054260" d="M124.7,129.725V117.3a18.224,18.224,0,0,1,3.876,12.429Z" transform="translate(-81.088 -76.872)" fill="#e9685c"/>
        <path id="Trazado_1054261" data-name="Trazado 1054261" d="M86.775,38.263c.02-.147.027-.249.048-.347.315-1.5.441-1.606,1.968-1.606q6.525,0,13.05,0c.479,0,.951.083,1.092.577a1.21,1.21,0,0,1-.131.988,1.508,1.508,0,0,1-1.018.376c-4.228.024-8.456.016-12.684.016Z" transform="translate(-56.541 -24.451)" fill="#ffcc59"/>
        <path id="Trazado_1054262" data-name="Trazado 1054262" d="M104.209,108.719a3.011,3.011,0,0,0,1.339-2.317c.03-.91.007-1.822.007-2.823a16.588,16.588,0,0,1,3.8,2.617.572.572,0,0,1,.111.383c.006,3.275,0,6.551-.037,9.848a11.117,11.117,0,0,0-5.216-7.709" transform="translate(-67.825 -67.994)" fill="#aec869"/>
        <path id="Trazado_1054263" data-name="Trazado 1054263" d="M62.021,103.157c.21,2-.526,3.976,1.421,5.274a11.288,11.288,0,0,0-5.28,7.714q0-4.939.007-9.877a.582.582,0,0,1,.178-.413c1.177-.881,2.368-1.744,3.674-2.7" transform="translate(-38.02 -67.721)" fill="#aec869"/>
        <path id="Trazado_1054264" data-name="Trazado 1054264" d="M81.011,91.758H86.03c.1.469.214.936.292,1.409a.636.636,0,0,1-.1.446c-.874,1.117-1.763,2.221-2.7,3.389-.94-1.175-1.847-2.289-2.72-3.428-.107-.139-.062-.422-.032-.63.054-.38.148-.755.237-1.186" transform="translate(-52.634 -60.343)" fill="#eec4a3"/>
        <rect id="Rectángulo_407915" data-name="Rectángulo 407915" width="3.855" height="3.833" transform="translate(14.315 54.887)" fill="#efc5a4"/>
        <rect id="Rectángulo_407916" data-name="Rectángulo 407916" width="3.857" height="3.835" transform="translate(43.633 54.886)" fill="#efc5a4"/>
        <path id="Trazado_1054265" data-name="Trazado 1054265" d="M106.317,155.95a11.466,11.466,0,0,0,4.514-7.2q0,1.789,0,3.578c0,1.2,0,2.39,0,3.623Z" transform="translate(-69.189 -97.23)" fill="#aec869"/>
        <path id="Trazado_1054266" data-name="Trazado 1054266" d="M62.753,155.929H58.267v-7.222a11.249,11.249,0,0,0,4.486,7.222" transform="translate(-38.089 -97.203)" fill="#aec869"/>
        <path id="Trazado_1054267" data-name="Trazado 1054267" d="M79.184,105.368c-1.216,0-2.308.017-3.4-.006a.974.974,0,0,1-1-1.066c-.014-1.114,0-2.229,0-3.354.39-.309.67-.279.993.141,1.087,1.41,2.215,2.789,3.411,4.285" transform="translate(-48.774 -66.153)" fill="#e9685b"/>
        <path id="Trazado_1054268" data-name="Trazado 1054268" d="M94.42,100.914c0,1.129.014,2.284-.006,3.438a.949.949,0,0,1-.945.995c-1.109.028-2.22.008-3.446.008l2.582-3.238c.278-.349.588-.677.83-1.048.275-.421.575-.449.986-.155" transform="translate(-58.642 -66.142)" fill="#e9685b"/>
        <path id="Trazado_1054269" data-name="Trazado 1054269" d="M60.089,58.537V62.4a1.932,1.932,0,0,1,0-3.864" transform="translate(-38.021 -38.84)" fill="#ebc1a1"/>
        <path id="Trazado_1054270" data-name="Trazado 1054270" d="M113.612,62.473V58.654a1.874,1.874,0,0,1,1.938,1.807,1.956,1.956,0,0,1-1.938,2.012" transform="translate(-73.911 -38.915)" fill="#ebc1a1"/>
        <path id="Trazado_1054271" data-name="Trazado 1054271" d="M60.14,49.319l-1.86.523V47.505h1.86Z" transform="translate(-38.097 -31.7)" fill="#525b66"/>
        <path id="Trazado_1054272" data-name="Trazado 1054272" d="M115.572,47.5V49.84l-1.885-.531V47.5Z" transform="translate(-73.959 -31.694)" fill="#525b66"/>
        <path id="Trazado_1054273" data-name="Trazado 1054273" d="M82.439,136.748v1.894H80.5v-1.848c-1.9-.347-3-1.478-2.9-2.976h1.87c.166.829.771,1.01,1.539.959.466-.03.937.011,1.4-.011a.972.972,0,1,0-.016-1.942c-.61-.021-1.222,0-1.832-.006a2.936,2.936,0,0,1-.359-5.858c.078-.01.156-.017.283-.03v-1.9H82.4v1.889a2.893,2.893,0,0,1,2.328,1.174,12.716,12.716,0,0,1,.821,1.765H83.445c-.165-.761-.691-1-1.438-.952-.486.034-.977-.007-1.465.011a.975.975,0,1,0,.013,1.945c.549.018,1.1,0,1.649,0a2.947,2.947,0,1,1,.235,5.885" transform="translate(-50.567 -81.876)" fill="#0a0906"/>
        <path id="Trazado_1054274" data-name="Trazado 1054274" d="M88.183,69.625A3.829,3.829,0,0,1,84.577,73.5c-1.361.04-2.724.008-4.13.008V71.553c1.228,0,2.481,0,3.732,0a1.9,1.9,0,0,0,1.684-.81,7.1,7.1,0,0,0,.507-1.119Z" transform="translate(-52.445 -46.017)" fill="#090808"/>
        <path id="Trazado_1054275" data-name="Trazado 1054275" d="M75.767,54.886a.978.978,0,1,1,.971-.957.971.971,0,0,1-.971.957" transform="translate(-48.777 -35.211)" fill="#12100d"/>
        <path id="Trazado_1054276" data-name="Trazado 1054276" d="M98.9,53.9a.978.978,0,1,1-.956-.97.974.974,0,0,1,.956.97" transform="translate(-63.124 -35.211)" fill="#12100d"/>
      </g>
    </g>
  </g>
</svg>
