<svg xmlns="http://www.w3.org/2000/svg" xmlns:xlink="http://www.w3.org/1999/xlink" width="113" height="113" viewBox="0 0 113 113">
  <defs>
    <filter id="Trazado_896985" x="0" y="0" width="113" height="113" filterUnits="userSpaceOnUse">
      <feOffset dy="3" input="SourceAlpha"/>
      <feGaussianBlur stdDeviation="3" result="blur"/>
      <feFlood flood-opacity="0.161"/>
      <feComposite operator="in" in2="blur"/>
      <feComposite in="SourceGraphic"/>
    </filter>
    <clipPath id="clip-path">
      <rect id="Rectángulo_407914" data-name="Rectángulo 407914" width="64.288" height="64.288" fill="none"/>
    </clipPath>
  </defs>
  <g id="Grupo_1180217" data-name="Grupo 1180217" transform="translate(9 6)">
    <g id="Grupo_1111319" data-name="Grupo 1111319" transform="translate(0 0)">
      <g id="Grupo_1109827" data-name="Grupo 1109827">
        <g id="Grupo_1098742" data-name="Grupo 1098742">
          <g transform="matrix(1, 0, 0, 1, -9, -6)" filter="url(#Trazado_896985)">
            <g id="Trazado_896985-2" data-name="Trazado 896985" transform="translate(9 6)" fill="#5ab4f9" opacity="0.859">
              <path d="M 47.49993133544922 93.5 C 41.2893180847168 93.5 35.26527786254883 92.28396606445312 29.59514427185059 89.88571929931641 C 24.11767768859863 87.56893920898438 19.19810485839844 84.25196838378906 14.97306442260742 80.02693176269531 C 10.74802494049072 75.80188751220703 7.431051254272461 70.88231658935547 5.114277839660645 65.40484619140625 C 2.71602463722229 59.73471450805664 1.499997973442078 53.71067428588867 1.499997973442078 47.50006103515625 C 1.499997973442078 41.2893180847168 2.71602463722229 35.26527786254883 5.114277839660645 29.59514236450195 C 7.431051254272461 24.11768913269043 10.74802494049072 19.1981029510498 14.97306442260742 14.97306251525879 C 19.19810485839844 10.74802303314209 24.11767768859863 7.431049346923828 29.59514427185059 5.114289283752441 C 35.26527786254883 2.716022968292236 41.2893180847168 1.499996185302734 47.49993133544922 1.499996185302734 C 53.71054458618164 1.499996185302734 59.73458480834961 2.716022968292236 65.40471649169922 5.114289283752441 C 70.88218688964844 7.431049346923828 75.8017578125 10.74802303314209 80.02679443359375 14.97306251525879 C 84.25183868408203 19.1981029510498 87.56880950927734 24.11768913269043 89.88558197021484 29.59514236450195 C 92.28383636474609 35.26527786254883 93.49986267089844 41.2893180847168 93.49986267089844 47.49993133544922 C 93.49986267089844 53.71067428588867 92.28383636474609 59.73471450805664 89.88558197021484 65.40484619140625 C 87.56880950927734 70.88231658935547 84.25183868408203 75.80188751220703 80.02679443359375 80.02693176269531 C 75.8017578125 84.25196838378906 70.88218688964844 87.56893920898438 65.40471649169922 89.88571929931641 C 59.73458480834961 92.28396606445312 53.71054458618164 93.5 47.49993133544922 93.5 Z" stroke="none"/>
              <path d="M 47.49993133544922 2.999992370605469 C 41.49116134643555 2.999992370605469 35.66371536254883 4.1761474609375 30.17946624755859 6.495796203613281 C 24.88080596923828 8.736930847167969 20.12148284912109 11.94596862792969 16.03371429443359 16.03372192382812 C 11.94596099853516 20.12149047851562 8.736930847167969 24.88081359863281 6.495796203613281 30.17947387695312 C 4.1761474609375 35.66371917724609 2.999992370605469 41.49116516113281 2.999992370605469 47.50005722045898 C 2.999992370605469 53.50882720947266 4.1761474609375 59.33627319335938 6.495796203613281 64.82051849365234 C 8.736930847167969 70.11917877197266 11.94596099853516 74.87850189208984 16.03371429443359 78.96627044677734 C 20.12148284912109 83.05402374267578 24.88080596923828 86.2630615234375 30.17946624755859 88.50419616699219 C 35.66371536254883 90.82384490966797 41.49116134643555 92 47.49993133544922 92 C 53.50870132446289 92 59.33614730834961 90.82384490966797 64.82038879394531 88.50419616699219 C 70.11905670166016 86.2630615234375 74.87836456298828 83.05402374267578 78.96613311767578 78.96627044677734 C 83.05390167236328 74.87850189208984 86.26291656494141 70.11917877197266 88.50406646728516 64.82051849365234 C 90.82369995117188 59.33627319335938 91.99985504150391 53.50882720947266 91.99985504150391 47.49993515014648 C 91.99985504150391 41.49116516113281 90.82369995117188 35.66371917724609 88.50406646728516 30.17947387695312 C 86.26291656494141 24.88081359863281 83.05390167236328 20.12149047851562 78.96613311767578 16.03372192382812 C 74.87836456298828 11.94596862792969 70.11905670166016 8.736930847167969 64.82038879394531 6.495796203613281 C 59.33614730834961 4.1761474609375 53.50870132446289 2.999992370605469 47.49993133544922 2.999992370605469 M 47.49993133544922 -7.62939453125e-06 C 73.73342132568359 -7.62939453125e-06 94.99985504150391 21.26644134521484 94.99985504150391 47.49993515014648 L 94.99985504150391 47.50005722045898 C 94.99985504150391 73.73355102539062 73.73342132568359 95 47.49993133544922 95 C 21.26644134521484 95 -7.62939453125e-06 73.73355102539062 -7.62939453125e-06 47.50005722045898 L -7.62939453125e-06 47.49993515014648 C -7.62939453125e-06 21.26644134521484 21.26644134521484 -7.62939453125e-06 47.49993133544922 -7.62939453125e-06 Z" stroke="none" fill="#fff"/>
            </g>
          </g>
          <g id="Rectángulo_400907" data-name="Rectángulo 400907" transform="translate(0)" fill="none" stroke="#fff" stroke-width="3">
            <rect width="95" height="95" rx="47.5" stroke="none"/>
            <rect x="1.5" y="1.5" width="92" height="92" rx="46" fill="none"/>
          </g>
        </g>
      </g>
    </g>
    <g id="Grupo_1180844" data-name="Grupo 1180844" transform="translate(15.356 15.357)">
      <g id="Grupo_1180843" data-name="Grupo 1180843" clip-path="url(#clip-path)">
        <path id="Trazado_1054218" data-name="Trazado 1054218" d="M64.288,64.251h0ZM41.329,17.138a5.165,5.165,0,0,0,2.3,3.264c-.24.912-.234.936-1.113,1.11A8.841,8.841,0,0,0,35.2,30.667c.106,2.46.022,4.929.018,7.394a5.3,5.3,0,0,0,.54,3.1H31.233v-24a2.041,2.041,0,0,0,1.984-2.278c0-.606.008-1.212,0-1.817a1.957,1.957,0,0,0-1.945-1.952q-14.1-.009-28.205,0a1.953,1.953,0,0,0-1.941,1.954,16.893,16.893,0,0,0,.02,2.128,2.178,2.178,0,0,0,.5,1.222,7.772,7.772,0,0,0,1.52.957V63.207H57.318V53.233a6.059,6.059,0,0,0,5.828-4.581,5.864,5.864,0,0,0-.333-3.851,6.169,6.169,0,0,0-4.122-3.486,4.8,4.8,0,0,0,.611-2.753c-.022-2.862.038-5.725-.034-8.585a9.021,9.021,0,0,0-.554-2.92A8.586,8.586,0,0,0,52,21.523c-.654-.137-1.136-.347-1.071-1.154a5.212,5.212,0,0,0,2.278-3.233,4.023,4.023,0,0,0,3.806-5.525,1.313,1.313,0,0,1,.02-.707,7.791,7.791,0,0,0-3.594-8.77,7.353,7.353,0,0,0-3.863-1.059c-1.817.016-3.648-.124-5.45.049a7.77,7.77,0,0,0-6.649,9.724,1.424,1.424,0,0,1,.026.767,4.028,4.028,0,0,0,3.826,5.523" transform="translate(0 0.038)" fill="#fff"/>
        <path id="Trazado_1054219" data-name="Trazado 1054219" d="M43.231,19.031A4.028,4.028,0,0,1,39.4,13.508a1.425,1.425,0,0,0-.026-.767,7.77,7.77,0,0,1,6.649-9.724c1.8-.173,3.633-.033,5.45-.049A7.346,7.346,0,0,1,55.34,4.027a7.79,7.79,0,0,1,3.594,8.77,1.311,1.311,0,0,0-.02.706,4.023,4.023,0,0,1-3.806,5.525,5.212,5.212,0,0,1-2.278,3.232c-.065.808.417,1.017,1.071,1.154a8.586,8.586,0,0,1,6.716,5.535,9.019,9.019,0,0,1,.554,2.92c.072,2.86.012,5.723.034,8.584a4.8,4.8,0,0,1-.611,2.753,6.168,6.168,0,0,1,4.122,3.486,5.861,5.861,0,0,1,.333,3.851,6.059,6.059,0,0,1-5.827,4.582V65.1H5.064V19.263a7.818,7.818,0,0,1-1.52-.957,2.186,2.186,0,0,1-.5-1.222,16.962,16.962,0,0,1-.02-2.128A1.953,1.953,0,0,1,4.967,13q14.1-.009,28.206,0a1.957,1.957,0,0,1,1.945,1.952c.01.606,0,1.212,0,1.817a2.042,2.042,0,0,1-1.984,2.278v24h4.529a5.306,5.306,0,0,1-.54-3.1c0-2.465.088-4.933-.018-7.393a8.841,8.841,0,0,1,7.311-9.155c.878-.174.873-.2,1.113-1.11a5.167,5.167,0,0,1-2.3-3.264M7.051,63.1H31.071V19.051H7.051Zm50.107-7.942H33.163V63.1H57.158Zm-13.963-24.1v11.98H55.134V31.077H53.168v3.943H45.122V31.061Zm9.978-15.905c0-1,.008-2,0-3A1.021,1.021,0,0,0,52.069,11q-2.912-.02-5.823,0a1,1,0,0,0-1.092,1.1c-.012,2-.026,4.007.005,6.009A2.846,2.846,0,0,0,47.488,20.9a14.622,14.622,0,0,0,2.615.116,3.013,3.013,0,0,0,3.067-3.041c.015-.939,0-1.878,0-2.817M57.1,11.364a2.3,2.3,0,0,0,.067-.315A5.651,5.651,0,0,0,52.5,5.13a36.97,36.97,0,0,0-6.125-.1,5.576,5.576,0,0,0-5.057,4.34,3.446,3.446,0,0,0-.083,2.015,14.366,14.366,0,0,1,1.622-.372.716.716,0,0,0,.659-.418,2.888,2.888,0,0,1,2.694-1.609c1.9,0,3.8.017,5.7-.007a3.082,3.082,0,0,1,2.963,1.711.679.679,0,0,0,.395.292c.581.142,1.17.247,1.828.38M33.095,15.042H5.071v1.929H33.095ZM53.137,53.085a5.03,5.03,0,0,1-.026-7.959H45.2a5.031,5.031,0,0,1-.012,7.959Zm-14.086,0a5.1,5.1,0,0,1-.019-7.967H33.141v7.967Zm8.922-24.053L46.4,26.395c-.717-1.2-.721-1.215-2.08-.863a6.36,6.36,0,0,0-4.971,4.979,19.267,19.267,0,0,0-.212,3.672c-.03,1.116-.007,2.232-.007,3.331l2.021-.555V29.031Zm9.226.016v7.914l1.983.554c0-1.963.066-3.929-.031-5.886a6.978,6.978,0,0,0-.666-2.51c-1.085-2.348-3.114-3.426-5.562-3.839a.6.6,0,0,0-.469.254c-.442.681-.852,1.383-1.267,2.081-.269.452-.529.91-.83,1.431ZM45.148,49.106a3.008,3.008,0,1,0-2.988,3,3.051,3.051,0,0,0,2.988-3m14.042-.033A3.008,3.008,0,1,0,56.235,52.1a3.051,3.051,0,0,0,2.955-3.031m.131,3.989a3.953,3.953,0,0,0,3.874-4.1,3.9,3.9,0,0,0-3.874-3.813,5.094,5.094,0,0,1,0,7.913M47.413,23.022c-.037.324-.209.715-.085.948.55,1.035,1.186,2.026,1.833,3.1.568-.942,1.056-1.81,1.6-2.637a1.226,1.226,0,0,0,.061-1.414Zm3.712,8.072H47.208V33.04h3.917ZM43.116,16.987V13.02a1.983,1.983,0,0,0,0,3.967M55.2,17a2.042,2.042,0,0,0,1.983-2.122A1.962,1.962,0,0,0,55.2,13.045ZM41.109,43.059V39.093a1.983,1.983,0,0,0,0,3.966m16.1.013a2.045,2.045,0,0,0,1.982-2.127A1.954,1.954,0,0,0,57.2,39.121Z" transform="translate(-1.902 -1.856)" fill="#060707"/>
        <path id="Trazado_1054220" data-name="Trazado 1054220" d="M14.053,46.934H38.074V90.982H14.053ZM36.089,48.94H16.081V62.9H36.089Zm-20.045,20a4.012,4.012,0,1,0,4.031-3.992,4.012,4.012,0,0,0-4.031,3.992m20.06.05a4.012,4.012,0,1,0-4.044,3.981A4.009,4.009,0,0,0,36.1,68.988m-18.075,6V85.021H16.081v2.007h1.993v1.947h2.008V86.981h1.941V84.973H20.03V74.989Zm8.055,14V82.986h1.965V80.979H26.063V75.005h-2v6H22.093v2.008H24.08v5.984Zm6.031-9v8.985h2V79.97h1.951V77.962H34.077V75.011H32.069v3H30.124v1.985Z" transform="translate(-8.904 -29.739)" fill="#dfe4e9"/>
        <rect id="Rectángulo_407911" data-name="Rectángulo 407911" width="23.995" height="7.947" transform="translate(31.261 53.301)" fill="#c58c62"/>
        <path id="Trazado_1054221" data-name="Trazado 1054221" d="M112.706,79.712h1.927v3.958h8.046V79.729h1.966V91.693H112.706Z" transform="translate(-71.413 -50.508)" fill="#cc8e56"/>
        <path id="Trazado_1054222" data-name="Trazado 1054222" d="M126.049,29.092c0,.939.012,1.878,0,2.817a3.014,3.014,0,0,1-3.067,3.041,14.652,14.652,0,0,1-2.614-.116,2.846,2.846,0,0,1-2.328-2.795c-.031-2-.017-4.006-.005-6.01a1,1,0,0,1,1.092-1.1q2.912-.02,5.823,0a1.021,1.021,0,0,1,1.1,1.153c.011,1,0,2,0,3" transform="translate(-74.779 -15.792)" fill="#efc4a4"/>
        <path id="Trazado_1054223" data-name="Trazado 1054223" d="M123.017,14.858c-.658-.133-1.248-.239-1.828-.38a.677.677,0,0,1-.395-.292,3.083,3.083,0,0,0-2.964-1.711c-1.9.024-3.8,0-5.7.007a2.887,2.887,0,0,0-2.694,1.609.716.716,0,0,1-.659.418,14.446,14.446,0,0,0-1.622.372,3.449,3.449,0,0,1,.084-2.015,5.576,5.576,0,0,1,5.057-4.34,36.929,36.929,0,0,1,6.125.1,5.651,5.651,0,0,1,4.665,5.919,2.364,2.364,0,0,1-.067.315" transform="translate(-67.817 -5.35)" fill="#ffcb59"/>
        <rect id="Rectángulo_407912" data-name="Rectángulo 407912" width="28.024" height="1.929" transform="translate(3.169 13.186)" fill="#c1c8d1"/>
        <path id="Trazado_1054224" data-name="Trazado 1054224" d="M126.1,126.061H118.16a5.03,5.03,0,0,0,.012-7.959h7.906a5.03,5.03,0,0,0,.026,7.959" transform="translate(-74.869 -74.832)" fill="#bfc7d0"/>
        <path id="Trazado_1054225" data-name="Trazado 1054225" d="M91.176,126.044h-5.91v-7.967h5.891a5.1,5.1,0,0,0,.019,7.967" transform="translate(-54.027 -74.817)" fill="#c0c7d1"/>
        <path id="Trazado_1054226" data-name="Trazado 1054226" d="M110.443,67.776h-6.822V75.7l-2.02.554c0-1.1-.024-2.215.006-3.331a19.268,19.268,0,0,1,.212-3.673,6.361,6.361,0,0,1,4.971-4.979c1.359-.352,1.364-.336,2.08.863l1.573,2.636" transform="translate(-64.371 -40.601)" fill="#aec869"/>
        <path id="Trazado_1054227" data-name="Trazado 1054227" d="M139.1,67.7h-6.842c.3-.52.561-.979.83-1.431.415-.7.825-1.4,1.267-2.081a.6.6,0,0,1,.469-.254c2.448.413,4.477,1.49,5.562,3.838a6.978,6.978,0,0,1,.666,2.51c.1,1.958.031,3.923.031,5.887l-1.983-.555Z" transform="translate(-83.801 -40.508)" fill="#aec869"/>
        <path id="Trazado_1054228" data-name="Trazado 1054228" d="M107.634,123.75a3.008,3.008,0,1,1-2.968-3.016,3.055,3.055,0,0,1,2.968,3.016m-2,0a1,1,0,1,0-1.046.992,1,1,0,0,0,1.046-.992" transform="translate(-64.388 -76.5)" fill="#828d99"/>
        <path id="Trazado_1054229" data-name="Trazado 1054229" d="M145.959,123.717a3.008,3.008,0,1,1-3-2.984,3.056,3.056,0,0,1,3,2.984m-3.038-.98a1,1,0,1,0,1.032,1,.993.993,0,0,0-1.032-1" transform="translate(-88.671 -76.5)" fill="#828d99"/>
        <path id="Trazado_1054230" data-name="Trazado 1054230" d="M156.722,126.066a5.094,5.094,0,0,0,0-7.913,3.9,3.9,0,0,1,3.875,3.813,3.953,3.953,0,0,1-3.874,4.1" transform="translate(-99.303 -74.86)" fill="#bdc4cd"/>
        <path id="Trazado_1054231" data-name="Trazado 1054231" d="M124,57.77h3.413a1.225,1.225,0,0,1-.06,1.414c-.549.827-1.036,1.7-1.6,2.637-.647-1.077-1.283-2.067-1.833-3.1-.124-.233.049-.625.085-.948" transform="translate(-78.485 -36.605)" fill="#ebc2a2"/>
        <rect id="Rectángulo_407913" data-name="Rectángulo 407913" width="3.917" height="1.947" transform="translate(45.306 29.237)" fill="#a56534"/>
        <path id="Trazado_1054232" data-name="Trazado 1054232" d="M109.07,34.438a1.983,1.983,0,0,1,0-3.967Z" transform="translate(-67.856 -19.307)" fill="#ebc1a1"/>
        <path id="Trazado_1054233" data-name="Trazado 1054233" d="M145.467,34.494V30.54a1.962,1.962,0,0,1,1.983,1.832,2.042,2.042,0,0,1-1.983,2.122" transform="translate(-92.172 -19.351)" fill="#ebc1a1"/>
        <path id="Trazado_1054234" data-name="Trazado 1054234" d="M103.593,105.6a1.983,1.983,0,0,1,0-3.966Z" transform="translate(-64.387 -64.399)" fill="#ebc1a1"/>
        <path id="Trazado_1054235" data-name="Trazado 1054235" d="M150.944,105.663v-3.951a1.954,1.954,0,0,1,1.982,1.824,2.045,2.045,0,0,1-1.982,2.127" transform="translate(-95.642 -64.447)" fill="#ebc1a1"/>
        <path id="Trazado_1054236" data-name="Trazado 1054236" d="M39.6,66.372H19.589V52.407H39.6ZM37.589,59.39c-2.053,0-4.052,0-6.052.008a.541.541,0,0,0-.415.177c-.808,1.583-1.594,3.178-2.4,4.794h8.864Zm-.018-2.006V54.419H25.71l2.871,5.727c.42-.843.8-1.553,1.129-2.287a.738.738,0,0,1,.809-.485c2.335.022,4.671.01,7.052.01m-16,7h6.874L25.67,58.833c-.446,1.123-.857,2.116-1.23,3.124a.592.592,0,0,1-.682.45c-.722-.03-1.445-.009-2.183-.009Zm.012-9.981v5.941c1.268.132,1.268.132,1.716-.991l.093-.232L25.274,54.4Z" transform="translate(-12.412 -33.206)" fill="#040607"/>
        <path id="Trazado_1054237" data-name="Trazado 1054237" d="M19.488,100.088a4.012,4.012,0,1,1,3.992,4.032,4.008,4.008,0,0,1-3.992-4.032m6.018-.005a2.006,2.006,0,1,0-1.966,2.03,2.043,2.043,0,0,0,1.966-2.03" transform="translate(-12.348 -60.89)" fill="#0b0a0a"/>
        <path id="Trazado_1054238" data-name="Trazado 1054238" d="M60.363,100.138A4.012,4.012,0,1,1,56.38,96.1a4.014,4.014,0,0,1,3.982,4.041m-2.007-.033a2.006,2.006,0,1,0-1.988,2.008,2.044,2.044,0,0,0,1.988-2.008" transform="translate(-33.163 -60.889)" fill="#0b0a0a"/>
        <path id="Trazado_1054239" data-name="Trazado 1054239" d="M21.535,123.511h2v9.984h1.992V135.5H23.588V137.5H21.58V135.55H19.587v-2.008h1.948Z" transform="translate(-12.411 -78.26)" fill="#040506"/>
        <path id="Trazado_1054240" data-name="Trazado 1054240" d="M39.99,137.541h-2v-5.984H36v-2.008h1.964v-5.995h2v5.973h1.986v2.008H39.99Z" transform="translate(-22.81 -78.287)" fill="#040506"/>
        <path id="Trazado_1054241" data-name="Trazado 1054241" d="M59.91,128.549H57.918v-1.985h1.945v-3h2.007v2.951h1.992v2.008H61.912v9.006h-2Z" transform="translate(-36.699 -78.296)" fill="#040506"/>
        <path id="Trazado_1054242" data-name="Trazado 1054242" d="M109.1,127.217a1,1,0,1,1-.961-1.014,1,1,0,0,1,.961,1.014" transform="translate(-67.855 -79.965)" fill="#0b0c0d"/>
        <path id="Trazado_1054243" data-name="Trazado 1054243" d="M146.389,126.2a1,1,0,1,1-.974,1,1,1,0,0,1,.974-1" transform="translate(-92.139 -79.965)" fill="#0b0c0d"/>
        <path id="Trazado_1054244" data-name="Trazado 1054244" d="M53.39,71.465v4.978H44.526c.8-1.616,1.589-3.21,2.4-4.794a.542.542,0,0,1,.415-.177c2-.011,4-.008,6.052-.008" transform="translate(-28.213 -45.282)" fill="#60c1e5"/>
        <path id="Trazado_1054245" data-name="Trazado 1054245" d="M48.158,60.863c-2.381,0-4.716.011-7.051-.011a.738.738,0,0,0-.809.485c-.328.734-.709,1.444-1.129,2.287L36.3,57.9h11.86Z" transform="translate(-22.999 -36.686)" fill="#5fc1e5"/>
        <path id="Trazado_1054246" data-name="Trazado 1054246" d="M25.008,75.5V73.511c.738,0,1.462-.021,2.183.009a.591.591,0,0,0,.682-.45c.373-1.008.784-2,1.23-3.124L31.882,75.5Z" transform="translate(-15.846 -44.32)" fill="#5fc0e4"/>
        <path id="Trazado_1054247" data-name="Trazado 1054247" d="M25.042,57.855h3.687l-1.877,4.719-.093.232c-.448,1.123-.448,1.123-1.716.991Z" transform="translate(-15.867 -36.658)" fill="#5fc0e4"/>
        <path id="Trazado_1054248" data-name="Trazado 1054248" d="M28.975,103.553a2.006,2.006,0,1,1-2.016-1.98,2.046,2.046,0,0,1,2.016,1.98" transform="translate(-15.818 -64.36)" fill="#e7675a"/>
        <path id="Trazado_1054249" data-name="Trazado 1054249" d="M61.826,103.575a2.006,2.006,0,1,1-1.994-2,2.045,2.045,0,0,1,1.994,2" transform="translate(-36.633 -64.36)" fill="#e7675a"/>
      </g>
    </g>
  </g>
</svg>
