<svg xmlns="http://www.w3.org/2000/svg" xmlns:xlink="http://www.w3.org/1999/xlink" width="389" height="400.342" viewBox="0 0 389 400.342">
  <defs>
    <clipPath id="clip-path">
      <rect id="Rectángulo_407557" data-name="Rectángulo 407557" width="389" height="400.342" transform="translate(210.051 28820)" fill="#fff" stroke="#707070" stroke-width="1"/>
    </clipPath>
    <clipPath id="clip-path-2">
      <rect id="Rectángulo_407378" data-name="Rectángulo 407378" width="413.369" height="340.419" fill="none"/>
    </clipPath>
    <clipPath id="clip-path-4">
      <rect id="Rectángulo_407363" data-name="Rectángulo 407363" width="369.287" height="340.419" fill="none"/>
    </clipPath>
    <clipPath id="clip-path-6">
      <rect id="Rectángulo_407366" data-name="Rectángulo 407366" width="144.701" height="135.811" fill="#fed401"/>
    </clipPath>
    <clipPath id="clip-path-9">
      <rect id="Rectángulo_407371" data-name="Rectángulo 407371" width="2.831" height="2.728" fill="none"/>
    </clipPath>
    <clipPath id="clip-path-10">
      <rect id="Rectángulo_407372" data-name="Rectángulo 407372" width="36.286" height="3.715" fill="none"/>
    </clipPath>
    <clipPath id="clip-path-11">
      <rect id="Rectángulo_407373" data-name="Rectángulo 407373" width="2.804" height="2.724" fill="none"/>
    </clipPath>
    <clipPath id="clip-path-12">
      <rect id="Rectángulo_407374" data-name="Rectángulo 407374" width="36.236" height="6.162" fill="none"/>
    </clipPath>
    <clipPath id="clip-path-13">
      <rect id="Rectángulo_407375" data-name="Rectángulo 407375" width="22.758" height="7.35" fill="none"/>
    </clipPath>
    <clipPath id="clip-path-14">
      <rect id="Rectángulo_407376" data-name="Rectángulo 407376" width="14.819" height="3.687" fill="none"/>
    </clipPath>
    <clipPath id="clip-path-15">
      <rect id="Rectángulo_407380" data-name="Rectángulo 407380" width="46.64" height="54.337" transform="translate(0 0)" fill="none"/>
    </clipPath>
    <clipPath id="clip-path-16">
      <rect id="Rectángulo_407558" data-name="Rectángulo 407558" width="91.809" height="90.843" transform="translate(-0.101 0.387)" fill="none"/>
    </clipPath>
  </defs>
  <g id="Enmascarar_grupo_1098776" data-name="Enmascarar grupo 1098776" transform="translate(-210.051 -28820)" clip-path="url(#clip-path)">
    <g id="Grupo_1180211" data-name="Grupo 1180211" transform="translate(12.437 113)">
      <path id="Trazado_1035977" data-name="Trazado 1035977" d="M320.559,66.535C246.17-15.7,70.057-20.294,18.273,44.929-10.26,80.867,1.663,134.587,7.546,161.093c10.826,48.778,37.522,80.18,43.351,86.84,14.144,16.163,48.5,55.422,100.194,64.4,88.325,15.334,198.535-62.737,204.641-150.819,3.52-50.781-28.742-87.866-35.174-94.976" transform="translate(226.299 28744.42)" fill="#8454ee"/>
      <g id="Grupo_1179715" data-name="Grupo 1179715" transform="translate(197.614 28766.922)" clip-path="url(#clip-path-2)">
        <g id="Grupo_1179685" data-name="Grupo 1179685">
          <g id="Grupo_1179684" data-name="Grupo 1179684" clip-path="url(#clip-path-2)">
            <path id="Trazado_1035836" data-name="Trazado 1035836" d="M22.352,274.387a28.451,28.451,0,0,0-12.366-4.358c-2.021-.212-4.229-.152-5.85,1.1a1.239,1.239,0,0,0-.6,1.093,1.327,1.327,0,0,0,.572.748,17.334,17.334,0,0,0,18.247,1.415" transform="translate(-0.317 -18.396)" fill="#e0e0e0"/>
            <path id="Trazado_1035837" data-name="Trazado 1035837" d="M22.566,272.876a60.832,60.832,0,0,1-7.987-7.2A20.843,20.843,0,0,1,9.57,256.2a3.9,3.9,0,0,1,.4-3.173c6.367,5.092,11.368,11.676,12.6,19.851" transform="translate(-0.847 -17.243)" fill="#e0e0e0"/>
            <path id="Trazado_1035838" data-name="Trazado 1035838" d="M24.1,273.227a30.264,30.264,0,0,1,.148-10.738,14.554,14.554,0,0,1,5.585-8.86c1.1,2.633.628,5.667-.147,8.418a41.324,41.324,0,0,1-5.539,11.94" transform="translate(-2.13 -17.284)" fill="#e0e0e0"/>
            <path id="Trazado_1035839" data-name="Trazado 1035839" d="M29.458,286.949a18.121,18.121,0,0,0-9.917,5.139,19.317,19.317,0,0,0-5.674,9.972c3.717-.235,6.869-2.919,9.156-5.927s3.871-6.31,6.383-9.125" transform="translate(-1.247 -19.555)" fill="#e0e0e0"/>
            <path id="Trazado_1035840" data-name="Trazado 1035840" d="M32.32,287.181a25.549,25.549,0,0,1,2.824-23.69c2.159,7.862,1.366,16.742-2.824,23.69" transform="translate(-2.752 -17.957)" fill="#e0e0e0"/>
            <path id="Trazado_1035841" data-name="Trazado 1035841" d="M39.853,299.7a17.468,17.468,0,0,0-9.92,2.38,18.061,18.061,0,0,0-6.992,7.588,1.366,1.366,0,0,0-.114,1.358,1.239,1.239,0,0,0,1.121.338c3.333-.222,6.287-2.275,8.725-4.613s4.56-5.039,7.254-7.062" transform="translate(-2.039 -20.422)" fill="#e0e0e0"/>
            <path id="Trazado_1035842" data-name="Trazado 1035842" d="M41.12,297.361a32.987,32.987,0,0,1-.314-18.015c.62-2.319,1.66-4.761,3.754-5.848a.724.724,0,0,1,.575-.1.77.77,0,0,1,.363.43,11.08,11.08,0,0,1,.885,5.168,33.067,33.067,0,0,1-.791,5.232c-.66,3.2-1.01,6.635-2.723,9.392a19.2,19.2,0,0,0-1.089,2.063c-.324.7-.327.948-.624,1.506" transform="translate(-3.57 -18.63)" fill="#e0e0e0"/>
            <path id="Trazado_1035843" data-name="Trazado 1035843" d="M65.186,301.239a23.665,23.665,0,0,1,3.976-19.1c.285-.38.663-.787,1.13-.744.714.068.9,1.042.866,1.775a35.058,35.058,0,0,1-5.973,18.068" transform="translate(-5.806 -19.177)" fill="#e0e0e0"/>
            <path id="Trazado_1035844" data-name="Trazado 1035844" d="M67.408,303.685a26.629,26.629,0,0,0,22.265-4.637,17.652,17.652,0,0,0-12.053-1.514c-4.026.943-7.706,2.79-10.212,6.151" transform="translate(-6.06 -20.246)" fill="#e0e0e0"/>
            <path id="Trazado_1035845" data-name="Trazado 1035845" d="M69.232,298.792a25.624,25.624,0,0,1,20.207-11.964,12.638,12.638,0,0,1-6.609,7.482,36.04,36.04,0,0,1-9.7,2.9c-1.291.257-3.062.54-3.9,1.578" transform="translate(-6.224 -19.547)" fill="#e0e0e0"/>
            <path id="Trazado_1035846" data-name="Trazado 1035846" d="M65.416,276.064A61.375,61.375,0,0,0,68,263.947a20.584,20.584,0,0,0-2.357-11.986A26.945,26.945,0,0,0,65.3,276.48" transform="translate(-5.62 -17.171)" fill="#e0e0e0"/>
            <path id="Trazado_1035847" data-name="Trazado 1035847" d="M80.168,269.328c4.572-8.51,13.9-15.307,23.341-16.259-3.641,9.284-13.572,16.458-23.341,16.259" transform="translate(-7.207 -17.246)" fill="#e0e0e0"/>
            <path id="Trazado_1035848" data-name="Trazado 1035848" d="M77.007,272.2c6.819,1.063,12.629,5.523,19,8.226a8.334,8.334,0,0,0,4.3.842,3.759,3.759,0,0,0,3.234-2.673,3.894,3.894,0,0,0-1.129-3.417,9.147,9.147,0,0,0-3.121-1.938c-6.94-2.959-14.384-3.033-21.7-1.238" transform="translate(-6.923 -18.455)" fill="#e0e0e0"/>
            <path id="Trazado_1035849" data-name="Trazado 1035849" d="M72.671,277.536c1.544.453,2.071,1.271,3.294,2.337a35.255,35.255,0,0,0,14.41,7.58c.551.14,1.273.2,1.545-.314.238-.444-.063-.983-.372-1.379a19.822,19.822,0,0,0-8.7-6.048c-3.325-1.268-6.207-2.8-10.176-2.468" transform="translate(-6.533 -18.891)" fill="#e0e0e0"/>
            <path id="Trazado_1035850" data-name="Trazado 1035850" d="M67.777,245.765a26.88,26.88,0,0,0,20.908,7.283,1.416,1.416,0,0,0,.952-.349c.526-.586-.106-1.492-.719-1.981-6.147-4.907-13.592-6.941-21.141-4.953" transform="translate(-6.093 -16.697)" fill="#e0e0e0"/>
            <path id="Trazado_1035851" data-name="Trazado 1035851" d="M73.579,243.272a28.587,28.587,0,0,1,26.089-4.408,20.484,20.484,0,0,1-12.432,5.588,38.455,38.455,0,0,1-13.657-1.181" transform="translate(-6.615 -16.183)" fill="#e0e0e0"/>
            <path id="Trazado_1035852" data-name="Trazado 1035852" d="M70.925,227.729c-.6-6.282-.212-11.241-.638-17.552-.034-.5-.14-1.111-.6-1.292-.641-.253-1.176.554-1.386,1.224a20.522,20.522,0,0,0,2.616,17.482" transform="translate(-6.06 -14.232)" fill="#e0e0e0"/>
            <path id="Trazado_1035853" data-name="Trazado 1035853" d="M70.788,228.412A36.483,36.483,0,0,0,80.951,218.3c2.008-2.811,3.7-6.181,3.244-9.633a9.647,9.647,0,0,0-7.331,3.727,21.157,21.157,0,0,0-3.738,7.7c-.814,2.764-1.383,5.6-2.338,8.32" transform="translate(-6.364 -14.22)" fill="#e0e0e0"/>
            <path id="Trazado_1035854" data-name="Trazado 1035854" d="M81.747,225.657a81.538,81.538,0,0,0,25.011-15.1c-2.988-1.232-6.408-.495-9.395.74a29.865,29.865,0,0,0-15.746,14.293" transform="translate(-7.338 -14.306)" fill="#e0e0e0"/>
            <path id="Trazado_1035855" data-name="Trazado 1035855" d="M73.873,233a49.642,49.642,0,0,0,13.888.069c4.5-.77,8.758-2.6,12.965-4.41a1.528,1.528,0,0,0,.881-.685,1.054,1.054,0,0,0-.316-1.136,2.644,2.644,0,0,0-1.106-.53c-4.574-1.31-9.51-.7-14.011.856A64.325,64.325,0,0,0,73.873,233" transform="translate(-6.642 -15.374)" fill="#e0e0e0"/>
            <path id="Trazado_1035856" data-name="Trazado 1035856" d="M44.676,244.528a25.7,25.7,0,0,1-.224-20.818c1.915,2.988,2.149,6.8,1.8,10.351s-1.407,7.217-1.475,10.791" transform="translate(-3.809 -15.246)" fill="#e0e0e0"/>
            <path id="Trazado_1035857" data-name="Trazado 1035857" d="M29,239.077a28.039,28.039,0,0,0-21.071,9.192,19.3,19.3,0,0,0,11.538-2.191A58.687,58.687,0,0,0,29.35,239.3" transform="translate(-0.712 -16.292)" fill="#e0e0e0"/>
            <path id="Trazado_1035858" data-name="Trazado 1035858" d="M19.823,235.94c-3.848-.32-7.549-.807-11.249.353A13.586,13.586,0,0,0,0,243.737,19.91,19.91,0,0,0,10.546,241.7a60.39,60.39,0,0,0,9.277-5.758" transform="translate(0 -16.053)" fill="#e0e0e0"/>
            <path id="Trazado_1035859" data-name="Trazado 1035859" d="M33.317,235.668c-3.461-2.322-7.015-4.686-11.046-5.649s-8.7-.251-11.511,2.859c3.263,1.961,7.221,2.192,11,2.189s8.42-.047,11.986,1.245" transform="translate(-0.967 -15.648)" fill="#e0e0e0"/>
            <path id="Trazado_1035860" data-name="Trazado 1035860" d="M34.9,234.5c-5.917-5.95-8.161-16.637-5.78-24.771A38.454,38.454,0,0,1,34.9,234.5" transform="translate(-2.534 -14.293)" fill="#e0e0e0"/>
            <path id="Trazado_1035861" data-name="Trazado 1035861" d="M53.447,216.791c1.116-2.657,1.9-5.445,2.9-8.148a23.563,23.563,0,0,1,4.137-7.513,10.817,10.817,0,0,1,7.329-3.889,30.17,30.17,0,0,1-14.224,19.592" transform="translate(-4.805 -13.442)" fill="#e0e0e0"/>
            <path id="Trazado_1035862" data-name="Trazado 1035862" d="M48.7,221.209c-1.847-2.6-3.981-6.135-6.485-8.078s-5.765-3.119-8.822-2.373A20.537,20.537,0,0,0,48.7,221.209" transform="translate(-3.002 -14.348)" fill="#e0e0e0"/>
            <path id="Trazado_1035863" data-name="Trazado 1035863" d="M50.549,217.026a45.741,45.741,0,0,1-2.92-9.679A15.424,15.424,0,0,1,49.11,197.5c3.248,6.287,4.294,13.036,1.6,19.593" transform="translate(-4.263 -13.46)" fill="#e0e0e0"/>
            <path id="Trazado_1035864" data-name="Trazado 1035864" d="M53.479,196.53c1.839-6.232,7.414-10.821,13.43-12.927a4.9,4.9,0,0,1,2.355-.362A2.057,2.057,0,0,1,71,184.725c.219,1.06-.636,2.01-1.441,2.714a45.43,45.43,0,0,1-16.08,9.09" transform="translate(-4.808 -12.485)" fill="#e0e0e0"/>
            <path id="Trazado_1035865" data-name="Trazado 1035865" d="M53.542,190.5c.234-4.018.479-8.1,1.756-11.9s3.736-7.378,7.315-9.045c.609,4.058-1.14,8.1-3.249,11.588s-4.651,6.789-5.918,10.685" transform="translate(-4.805 -11.555)" fill="#e0e0e0"/>
            <path id="Trazado_1035866" data-name="Trazado 1035866" d="M52.32,193.405c-1.521-4.542-1.678-10.311-4.334-14.269-1.857-2.766-4.831-4.65-6.431-7.58a11.79,11.79,0,0,0,.374,8.6,24.932,24.932,0,0,0,4.915,7.2c1.966,2.15,3.649,3.767,5.476,6.04" transform="translate(-3.678 -11.691)" fill="#e0e0e0"/>
            <path id="Trazado_1035867" data-name="Trazado 1035867" d="M53.456,328.646c-.118,0-.221-30.3-.228-67.667s.08-67.674.2-67.674.221,30.293.229,67.674-.081,67.667-.2,67.667" transform="translate(-4.785 -13.174)" fill="#e0e0e0"/>
            <path id="Trazado_1035868" data-name="Trazado 1035868" d="M79.336,241.144a6.273,6.273,0,0,1-1.112.428l-3.062,1.058c-2.582.9-6.129,2.2-9.977,3.82-3.811,1.675-7.406,3.033-9.453,4.849a7.1,7.1,0,0,0-1.9,2.573c-.294.712-.346,1.147-.385,1.14-.015,0-.01-.111.012-.318a4.978,4.978,0,0,1,.218-.883,6.846,6.846,0,0,1,1.854-2.742,16.568,16.568,0,0,1,4.1-2.609c1.641-.784,3.459-1.6,5.39-2.414,3.862-1.62,7.435-2.882,10.047-3.709,1.305-.417,2.37-.724,3.108-.926a6.171,6.171,0,0,1,1.16-.265" transform="translate(-4.804 -16.433)" fill="#e0e0e0"/>
            <path id="Trazado_1035869" data-name="Trazado 1035869" d="M88.013,218.267a1.838,1.838,0,0,1-.311.341l-.95.913-3.545,3.3-11.8,10.757c-4.606,4.2-8.587,8.209-11.345,11.228-1.381,1.509-2.468,2.758-3.211,3.63l-.857,1a1.8,1.8,0,0,1-.32.332,1.933,1.933,0,0,1,.254-.388c.179-.243.44-.607.8-1.057.7-.908,1.76-2.191,3.116-3.73a151.4,151.4,0,0,1,11.282-11.345c4.622-4.188,8.828-7.95,11.884-10.662l3.635-3.193,1-.851a1.837,1.837,0,0,1,.369-.275" transform="translate(-5.005 -14.875)" fill="#e0e0e0"/>
            <path id="Trazado_1035870" data-name="Trazado 1035870" d="M67.5,238.508c-.121-.055.842-2.33,1.8-5.206s1.422-5.3,1.545-5.284a18.093,18.093,0,0,1-1.14,5.423,35.861,35.861,0,0,1-1.432,3.642,5.716,5.716,0,0,1-.773,1.425" transform="translate(-6.067 -15.539)" fill="#e0e0e0"/>
            <path id="Trazado_1035871" data-name="Trazado 1035871" d="M51.815,257.337a5.382,5.382,0,0,1-.71-.843l-1.818-2.387c-1.527-2.021-3.639-4.811-6-7.865s-4.543-5.793-6.119-7.774L35.3,236.112a5.373,5.373,0,0,1-.641-.9,5.423,5.423,0,0,1,.767.788c.474.526,1.145,1.3,1.963,2.266,1.636,1.933,3.852,4.643,6.222,7.7s4.446,5.88,5.912,7.951c.734,1.035,1.318,1.88,1.71,2.472a5.452,5.452,0,0,1,.576.945" transform="translate(-3.116 -16.029)" fill="#e0e0e0"/>
            <path id="Trazado_1035872" data-name="Trazado 1035872" d="M46.988,250.287a10.735,10.735,0,0,1-2.375-4.553,13.3,13.3,0,0,1-.539-4.591l.189.016c-.085.351-.147.536-.18.53s-.035-.2-.008-.561l.189.015a21.427,21.427,0,0,0,.758,4.466,34.452,34.452,0,0,0,1.966,4.678" transform="translate(-3.96 -16.433)" fill="#e0e0e0"/>
            <path id="Trazado_1035873" data-name="Trazado 1035873" d="M37.97,240.7a7.6,7.6,0,0,0-1.658-.987,10.851,10.851,0,0,0-4.605-.375,27.856,27.856,0,0,0-4.637.766,13.694,13.694,0,0,1-1.908.469,6.6,6.6,0,0,1,1.827-.767,20.79,20.79,0,0,1,4.686-.9,9.832,9.832,0,0,1,4.75.525A2.964,2.964,0,0,1,37.97,240.7" transform="translate(-2.262 -16.277)" fill="#e0e0e0"/>
            <path id="Trazado_1035874" data-name="Trazado 1035874" d="M35.551,238.183c-.033.068-.967-.4-2.541-.948a24.992,24.992,0,0,0-12.805-1c-1.637.3-2.629.614-2.651.541a2.423,2.423,0,0,1,.673-.294,15.443,15.443,0,0,1,1.919-.552,22.1,22.1,0,0,1,12.967,1.012,15.721,15.721,0,0,1,1.815.843,2.41,2.41,0,0,1,.623.4" transform="translate(-1.578 -16.042)" fill="#e0e0e0"/>
            <path id="Trazado_1035875" data-name="Trazado 1035875" d="M53.121,227.046a54.87,54.87,0,0,1-1.853-6.59,55.148,55.148,0,0,1-1.439-6.7,54.59,54.59,0,0,1,1.853,6.591,54.906,54.906,0,0,1,1.439,6.7" transform="translate(-4.479 -14.567)" fill="#e0e0e0"/>
            <path id="Trazado_1035876" data-name="Trazado 1035876" d="M53.074,227.5a32,32,0,0,0-2.054-3.945A17.129,17.129,0,0,0,48,220.355a2.783,2.783,0,0,1,1.167.616,9.519,9.519,0,0,1,2.206,2.327,8.864,8.864,0,0,1,1.7,4.2" transform="translate(-4.315 -15.017)" fill="#e0e0e0"/>
            <path id="Trazado_1035877" data-name="Trazado 1035877" d="M50.8,317.976c-.046.007-.133-.729-.467-2.015a29.064,29.064,0,0,0-1.978-5.246A72.64,72.64,0,0,0,37.865,295.58c-2.343-2.74-4.615-5.325-6.544-7.8a54.86,54.86,0,0,1-4.68-6.911,33.6,33.6,0,0,1-2.363-5.128c-.217-.632-.376-1.126-.464-1.467a2.511,2.511,0,0,1-.121-.524c.038-.012.253.693.741,1.929a37.844,37.844,0,0,0,2.468,5.033,57.967,57.967,0,0,0,4.725,6.814c1.937,2.449,4.212,5.02,6.559,7.765a68.88,68.88,0,0,1,10.442,15.289A26.6,26.6,0,0,1,50.5,315.92a14.981,14.981,0,0,1,.261,1.52,2.542,2.542,0,0,1,.044.536" transform="translate(-2.13 -18.656)" fill="#e0e0e0"/>
            <path id="Trazado_1035878" data-name="Trazado 1035878" d="M76.847,292.209a10.617,10.617,0,0,1-1.225.7,26.682,26.682,0,0,0-3.176,2.151,36.765,36.765,0,0,0-4.172,3.9c-1.464,1.583-2.972,3.423-4.512,5.394-3.078,3.954-5.957,7.453-7.68,10.247-.875,1.385-1.512,2.553-1.928,3.372a11.07,11.07,0,0,1-.673,1.263,1.213,1.213,0,0,1,.113-.356c.091-.225.215-.564.411-.982a32.27,32.27,0,0,1,1.822-3.463,112.817,112.817,0,0,1,7.6-10.355c1.543-1.975,3.069-3.818,4.56-5.4a34.173,34.173,0,0,1,4.276-3.864,22.186,22.186,0,0,1,3.281-2.054c.4-.208.736-.336.956-.432a1.148,1.148,0,0,1,.346-.12" transform="translate(-4.808 -19.914)" fill="#e0e0e0"/>
            <path id="Trazado_1035879" data-name="Trazado 1035879" d="M78.063,301.615a17.43,17.43,0,0,1-2.588.385,33.44,33.44,0,0,0-6.14,1.238,18.319,18.319,0,0,0-5.5,2.953c-1.267,1-1.865,1.832-1.923,1.783a2.007,2.007,0,0,1,.383-.609,9.831,9.831,0,0,1,1.349-1.414,16.534,16.534,0,0,1,5.557-3.13,27.138,27.138,0,0,1,6.241-1.13,13.969,13.969,0,0,1,2.618-.076" transform="translate(-5.566 -20.552)" fill="#e0e0e0"/>
            <path id="Trazado_1035880" data-name="Trazado 1035880" d="M62.744,306.752c-.135-.078,1.032-1.9,1.937-4.356.849-2.477,1.048-4.648,1.2-4.623a4.318,4.318,0,0,1-.044,1.422,15.585,15.585,0,0,1-.754,3.35,16.378,16.378,0,0,1-1.5,3.072,4.235,4.235,0,0,1-.837,1.135" transform="translate(-5.64 -20.293)" fill="#e0e0e0"/>
            <path id="Trazado_1035881" data-name="Trazado 1035881" d="M84.416,266.95a1.94,1.94,0,0,1-.414.225l-1.217.567c-.532.233-1.179.53-1.908.923S79.292,269.45,78.4,270l-1.412.822c-.49.289-.974.631-1.49.962-1.041.647-2.084,1.443-3.2,2.256a60.6,60.6,0,0,0-6.674,6.01,61.233,61.233,0,0,0-5.639,7.036c-.755,1.167-1.5,2.262-2.093,3.349-.3.539-.622,1.046-.887,1.557l-.754,1.473c-.5.928-.863,1.814-1.215,2.577s-.626,1.43-.836,1.984l-.511,1.264a2.013,2.013,0,0,1-.207.431,2.052,2.052,0,0,1,.125-.461c.116-.343.26-.771.437-1.3.187-.565.433-1.249.773-2.02s.675-1.676,1.164-2.618q.351-.717.734-1.5c.258-.518.571-1.033.871-1.579.586-1.1,1.322-2.213,2.074-3.395a58.7,58.7,0,0,1,5.656-7.111,57.865,57.865,0,0,1,6.747-6.03c1.128-.811,2.185-1.6,3.242-2.238.523-.326,1.015-.663,1.512-.946l1.434-.8c.9-.531,1.771-.912,2.516-1.279s1.4-.65,1.946-.86l1.25-.491a1.876,1.876,0,0,1,.446-.143" transform="translate(-4.809 -18.192)" fill="#e0e0e0"/>
            <path id="Trazado_1035882" data-name="Trazado 1035882" d="M67.15,280.334a3.057,3.057,0,0,1,1.017-1.551,6.338,6.338,0,0,1,4.1-1.609,10.967,10.967,0,0,1,4.311.862,6.164,6.164,0,0,1,1.631.811,9.793,9.793,0,0,1-1.73-.518,12.761,12.761,0,0,0-4.2-.717,6.576,6.576,0,0,0-3.914,1.407,12.27,12.27,0,0,0-1.214,1.316" transform="translate(-6.037 -18.889)" fill="#e0e0e0"/>
            <path id="Trazado_1035883" data-name="Trazado 1035883" d="M64.112,283.12a11.444,11.444,0,0,0,.9-7.922,2.609,2.609,0,0,1,.481,1.128,8.189,8.189,0,0,1-.662,5.808c-.361.669-.681,1.016-.722.985" transform="translate(-5.763 -18.754)" fill="#e0e0e0"/>
            <path id="Trazado_1035884" data-name="Trazado 1035884" d="M31.022,325.869c.638,11.579,4.045,23.356,9.288,35.262H63.1c5-11.788,8.171-23.547,8.735-35.262Z" transform="translate(-2.789 -22.208)" fill="#e0e0e0"/>
            <path id="Trazado_1035885" data-name="Trazado 1035885" d="M68.5,345.961c0,.121-7.506.219-16.761.219s-16.762-.1-16.762-.219,7.5-.219,16.762-.219,16.761.1,16.761.219" transform="translate(-3.145 -23.562)" fill="#fafafa"/>
            <path id="Trazado_1035886" data-name="Trazado 1035886" d="M68.147,350.462c0,.121-7.036.219-15.713.219s-15.715-.1-15.715-.219,7.034-.219,15.715-.219,15.713.1,15.713.219" transform="translate(-3.301 -23.869)" fill="#fafafa"/>
            <path id="Trazado_1035887" data-name="Trazado 1035887" d="M41.61,334.028a67.669,67.669,0,0,1,0,10.752,67.669,67.669,0,0,1,0-10.752" transform="translate(-3.722 -22.764)" fill="#fafafa"/>
            <path id="Trazado_1035888" data-name="Trazado 1035888" d="M55.029,334.028a72.57,72.57,0,0,1,0,11.135,72.569,72.569,0,0,1,0-11.135" transform="translate(-4.928 -22.764)" fill="#fafafa"/>
            <path id="Trazado_1035889" data-name="Trazado 1035889" d="M67.627,333.927a75.484,75.484,0,0,1,0,11.357,75.484,75.484,0,0,1,0-11.357" transform="translate(-6.061 -22.757)" fill="#fafafa"/>
            <path id="Trazado_1035890" data-name="Trazado 1035890" d="M71.192,334.012c0,.121-8.8.219-19.659.219s-19.66-.1-19.66-.219,8.8-.219,19.66-.219,19.659.1,19.659.219" transform="translate(-2.866 -22.748)" fill="#fafafa"/>
          </g>
        </g>
        <g id="Grupo_1179687" data-name="Grupo 1179687">
          <g id="Grupo_1179686" data-name="Grupo 1179686" clip-path="url(#clip-path-4)">
            <path id="Trazado_1035891" data-name="Trazado 1035891" d="M372.189,363.954c0,.134-79.849.242-178.324.242-98.51,0-178.342-.108-178.342-.242s79.832-.242,178.342-.242c98.475,0,178.324.108,178.324.242" transform="translate(-2.902 -24.787)" fill="#263238"/>
          </g>
        </g>
        <rect id="Rectángulo_407364" data-name="Rectángulo 407364" width="144.701" height="135.81" transform="translate(171.622 203.114)" fill="#ff725e"/>
        <g id="Grupo_1179692" data-name="Grupo 1179692">
          <g id="Grupo_1179691" data-name="Grupo 1179691" clip-path="url(#clip-path-2)">
            <g id="Grupo_1179690" data-name="Grupo 1179690" transform="translate(171.622 203.113)" opacity="0.3">
              <g id="Grupo_1179689" data-name="Grupo 1179689">
                <g id="Grupo_1179688" data-name="Grupo 1179688" clip-path="url(#clip-path-6)">
                  <rect id="Rectángulo_407365" data-name="Rectángulo 407365" width="144.701" height="135.81" transform="translate(0 0.001)" fill="#fed401"/>
                </g>
              </g>
            </g>
          </g>
        </g>
        <path id="Trazado_1035978" data-name="Trazado 1035978" d="M0,0H121.921V135.81H0Z" transform="translate(135.615 203.114)" fill="#fed401"/>
        <g id="Grupo_1179694" data-name="Grupo 1179694">
          <g id="Grupo_1179693" data-name="Grupo 1179693" clip-path="url(#clip-path-2)">
            <path id="Trazado_1035892" data-name="Trazado 1035892" d="M282.954,354.022c-.131,0-.237-30.459-.237-68.024s.106-68.031.237-68.031.237,30.453.237,68.031-.106,68.024-.237,68.024" transform="translate(-25.417 -14.854)" fill="#263238"/>
            <path id="Trazado_1035893" data-name="Trazado 1035893" d="M341.607,290.952c0,.134-13.516.242-30.184.242s-30.187-.108-30.187-.242,13.512-.242,30.187-.242,30.184.108,30.184.242" transform="translate(-25.284 -19.812)" fill="#263238"/>
            <path id="Trazado_1035894" data-name="Trazado 1035894" d="M331.812,354H324.19a.932.932,0,0,1,0-1.864H330.9V345.3a.91.91,0,1,1,1.82,0v7.765a.92.92,0,0,1-.91.932" transform="translate(-29.064 -23.468)" fill="#fff"/>
            <path id="Trazado_1035895" data-name="Trazado 1035895" d="M331.792,335.391a.92.92,0,0,1-.91-.932v-7.787H323.97a.932.932,0,0,1,0-1.864h7.822a.92.92,0,0,1,.91.932v8.718a.92.92,0,0,1-.91.932" transform="translate(-29.044 -22.135)" fill="#fff"/>
            <path id="Trazado_1035896" data-name="Trazado 1035896" d="M304.672,335.6a.92.92,0,0,1-.91-.932v-8.922a.92.92,0,0,1,.91-.932h7.778a.932.932,0,0,1,0,1.864h-6.868v7.991a.92.92,0,0,1-.91.932" transform="translate(-27.31 -22.135)" fill="#fff"/>
            <path id="Trazado_1035897" data-name="Trazado 1035897" d="M312.25,354.028h-7.577a.92.92,0,0,1-.91-.932v-7.355a.91.91,0,1,1,1.82,0v6.423h6.667a.932.932,0,0,1,0,1.864" transform="translate(-27.31 -23.498)" fill="#fff"/>
            <path id="Trazado_1035898" data-name="Trazado 1035898" d="M323.021,347.506H313.44a.921.921,0,0,1-.91-.932V331.447a.921.921,0,0,1,.91-.932h9.581a.921.921,0,0,1,.91.932v15.128a.921.921,0,0,1-.91.932m-8.67-1.864h7.76V332.38h-7.76Z" transform="translate(-28.098 -22.524)" fill="#fff"/>
            <path id="Trazado_1035899" data-name="Trazado 1035899" d="M319.669,344.987a.826.826,0,1,1-.826-.845.836.836,0,0,1,.826.845" transform="translate(-28.591 -23.453)" fill="#fff"/>
            <path id="Trazado_1035900" data-name="Trazado 1035900" d="M319.674,334.841H317.52a.932.932,0,0,1,0-1.864h2.154a.932.932,0,0,1,0,1.864" transform="translate(-28.465 -22.692)" fill="#fff"/>
            <path id="Trazado_1035901" data-name="Trazado 1035901" d="M234.279,297.972h-61.5a3.818,3.818,0,0,1,0-7.633h61.5a3.818,3.818,0,0,1,0,7.633" transform="translate(-15.198 -19.786)" fill="#fff"/>
            <path id="Trazado_1035902" data-name="Trazado 1035902" d="M189.366,310.614H172.777a3.817,3.817,0,0,1,0-7.633h16.589a3.817,3.817,0,0,1,0,7.633" transform="translate(-15.198 -20.648)" fill="#fff"/>
            <path id="Trazado_1035903" data-name="Trazado 1035903" d="M187.082,325.388a59.014,59.014,0,0,1-7.561.243,59.011,59.011,0,0,1-7.562-.243,59.115,59.115,0,0,1,7.562-.242,59.118,59.118,0,0,1,7.561.242" transform="translate(-15.46 -22.158)" fill="#fff"/>
            <path id="Trazado_1035904" data-name="Trazado 1035904" d="M241.906,353.533h-4.884a1.852,1.852,0,0,1-1.83-1.873v-5a1.852,1.852,0,0,1,1.83-1.873h4.884a1.852,1.852,0,0,1,1.829,1.873v5a1.852,1.852,0,0,1-1.829,1.873" transform="translate(-21.145 -23.497)" fill="#fff"/>
            <path id="Trazado_1035905" data-name="Trazado 1035905" d="M255.026,353.533h-4.884a1.852,1.852,0,0,1-1.83-1.873v-5a1.852,1.852,0,0,1,1.83-1.873h4.884a1.852,1.852,0,0,1,1.829,1.873v5a1.852,1.852,0,0,1-1.829,1.873" transform="translate(-22.324 -23.497)" fill="#fff"/>
            <path id="Trazado_1035906" data-name="Trazado 1035906" d="M268.146,353.416h-4.884a1.852,1.852,0,0,1-1.83-1.873v-5a1.852,1.852,0,0,1,1.83-1.873h4.884a1.852,1.852,0,0,1,1.829,1.873v5a1.852,1.852,0,0,1-1.829,1.873" transform="translate(-23.504 -23.489)" fill="#fff"/>
            <rect id="Rectángulo_407369" data-name="Rectángulo 407369" width="56.38" height="19.769" transform="translate(155.188 235.761)" fill="#fff"/>
            <path id="Trazado_1035907" data-name="Trazado 1035907" d="M364.118,315.649c5.689,4.2,5.968,13.016,1.246,17.97-2.047,2.148,1.168,5.446,3.218,3.3a17.036,17.036,0,0,0,4.593-12.943,16.694,16.694,0,0,0-6.76-12.344,2.264,2.264,0,0,0-3.113.835,2.414,2.414,0,0,0,.816,3.188" transform="translate(-32.635 -21.214)" fill="#fed401"/>
            <path id="Trazado_1035908" data-name="Trazado 1035908" d="M371.891,309.323C381,316,381.671,330.178,374,338.181c-2.054,2.141,1.161,5.438,3.217,3.294a24.882,24.882,0,0,0,3.307-29.285,23.186,23.186,0,0,0-6.332-6.889,2.263,2.263,0,0,0-3.113.836,2.413,2.413,0,0,0,.816,3.187" transform="translate(-33.333 -20.783)" fill="#fed401"/>
            <path id="Trazado_1035909" data-name="Trazado 1035909" d="M380.319,301.967c9.7,7.084,12.69,20.676,8.273,31.642a25.783,25.783,0,0,1-5.306,8.144c-2.058,2.138,1.158,5.434,3.218,3.294,9.634-10.009,11.4-26.332,4.22-38.311a29.968,29.968,0,0,0-8.108-8.792,2.264,2.264,0,0,0-3.113.836,2.413,2.413,0,0,0,.816,3.187" transform="translate(-34.091 -20.282)" fill="#fed401"/>
          </g>
        </g>
        <g id="Grupo_1179714" data-name="Grupo 1179714">
          <g id="Grupo_1179713" data-name="Grupo 1179713" clip-path="url(#clip-path-2)">
            <path id="Trazado_1035910" data-name="Trazado 1035910" d="M107.444,332.761l-.577,28.21,36.265.874c-.126-3.357-18.714-10.54-18.714-10.54l1.137-18.06Z" transform="translate(-9.608 -22.677)" fill="#455a64"/>
            <g id="Grupo_1179697" data-name="Grupo 1179697" transform="translate(102.544 326.784)" opacity="0.6">
              <g id="Grupo_1179696" data-name="Grupo 1179696">
                <g id="Grupo_1179695" data-name="Grupo 1179695" clip-path="url(#clip-path-9)">
                  <path id="Trazado_1035911" data-name="Trazado 1035911" d="M113.765,350.735a1.355,1.355,0,1,0,.574,2.647,1.511,1.511,0,0,0,1.12-1.711,1.489,1.489,0,0,0-1.83-.9" transform="translate(-112.674 -350.683)" fill="#fff"/>
                </g>
              </g>
            </g>
            <g id="Grupo_1179700" data-name="Grupo 1179700" transform="translate(97.258 335.453)" opacity="0.6">
              <g id="Grupo_1179699" data-name="Grupo 1179699">
                <g id="Grupo_1179698" data-name="Grupo 1179698" clip-path="url(#clip-path-10)">
                  <path id="Trazado_1035912" data-name="Trazado 1035912" d="M106.866,362.826l.173-2.841,34.706,1.9s1.6.718,1.387,1.814Z" transform="translate(-106.866 -359.985)" fill="#fff"/>
                </g>
              </g>
            </g>
            <path id="Trazado_1035913" data-name="Trazado 1035913" d="M126.471,352.472c-.01.172-.9.227-1.783.758-.9.508-1.369,1.239-1.53,1.167-.162-.036.128-1.055,1.212-1.678s2.143-.4,2.1-.246" transform="translate(-11.069 -24.009)" fill="#263238"/>
            <path id="Trazado_1035914" data-name="Trazado 1035914" d="M130.7,354.212c.036.167-.738.44-1.358,1.151-.642.692-.814,1.472-.99,1.46-.167.023-.264-.983.524-1.852s1.825-.922,1.824-.759" transform="translate(-11.529 -24.134)" fill="#263238"/>
            <path id="Trazado_1035915" data-name="Trazado 1035915" d="M133.169,358.786c-.162.033-.386-.829.093-1.757s1.317-1.281,1.388-1.137c.1.144-.454.634-.835,1.4-.4.758-.469,1.479-.645,1.492" transform="translate(-11.955 -24.252)" fill="#263238"/>
            <path id="Trazado_1035916" data-name="Trazado 1035916" d="M126.2,347.99c-.078.155-.885-.1-1.888-.06-1,.021-1.791.328-1.879.179-.1-.127.678-.743,1.859-.775s2,.524,1.908.656" transform="translate(-11.006 -23.67)" fill="#263238"/>
            <path id="Trazado_1035917" data-name="Trazado 1035917" d="M125.2,343.332a3.512,3.512,0,0,1-1.817-.053,8.293,8.293,0,0,1-1.885-.61,8.584,8.584,0,0,1-1.031-.561,2.2,2.2,0,0,1-.536-.427.73.73,0,0,1-.059-.913.984.984,0,0,1,.786-.373,2.411,2.411,0,0,1,.679.107,6.7,6.7,0,0,1,1.12.4,6.45,6.45,0,0,1,1.647,1.1c.822.774,1.092,1.422,1.03,1.454-.082.054-.476-.492-1.317-1.135a7.292,7.292,0,0,0-1.6-.923,6.917,6.917,0,0,0-1.036-.336c-.38-.107-.708-.117-.81.046-.037.062-.042.088.035.2a1.743,1.743,0,0,0,.395.312,9.739,9.739,0,0,0,.947.553,10.276,10.276,0,0,0,1.737.693,12.833,12.833,0,0,1,1.71.462" transform="translate(-10.765 -23.197)" fill="#263238"/>
            <path id="Trazado_1035918" data-name="Trazado 1035918" d="M125.434,343.4a2.734,2.734,0,0,1-.435-1.709,5.547,5.547,0,0,1,.3-1.919,5.712,5.712,0,0,1,.491-1.056,1.492,1.492,0,0,1,1.181-.859.847.847,0,0,1,.746.508,2.321,2.321,0,0,1,.169.649,3.767,3.767,0,0,1-.029,1.183,3.968,3.968,0,0,1-.823,1.8c-.732.893-1.476,1.079-1.49,1.021-.056-.088.57-.4,1.134-1.264a3.966,3.966,0,0,0,.617-1.637,3.528,3.528,0,0,0-.007-1.017c-.047-.375-.184-.678-.329-.644-.179-.007-.493.267-.65.56a5.816,5.816,0,0,0-.474.942,6.124,6.124,0,0,0-.4,1.745c-.076,1.029.1,1.675,0,1.7" transform="translate(-11.238 -23.025)" fill="#263238"/>
            <path id="Trazado_1035919" data-name="Trazado 1035919" d="M73.4,335.112,69.936,363.1l-36-4.574c.6-3.3,20.02-7.62,20.02-7.62l1.46-18.035Z" transform="translate(-3.051 -22.685)" fill="#455a64"/>
            <g id="Grupo_1179703" data-name="Grupo 1179703" transform="translate(60.308 328.021)" opacity="0.6">
              <g id="Grupo_1179702" data-name="Grupo 1179702">
                <g id="Grupo_1179701" data-name="Grupo 1179701" clip-path="url(#clip-path-11)">
                  <path id="Trazado_1035920" data-name="Trazado 1035920" d="M68.173,352.118A1.445,1.445,0,0,1,69,353.872a1.415,1.415,0,0,1-1.772.779,1.522,1.522,0,0,1-.863-1.861,1.481,1.481,0,0,1,1.938-.611" transform="translate(-66.265 -352.01)" fill="#fff"/>
                </g>
              </g>
            </g>
            <g id="Grupo_1179706" data-name="Grupo 1179706" transform="translate(30.883 334.257)" opacity="0.6">
              <g id="Grupo_1179705" data-name="Grupo 1179705">
                <g id="Grupo_1179704" data-name="Grupo 1179704" clip-path="url(#clip-path-12)">
                  <path id="Trazado_1035921" data-name="Trazado 1035921" d="M69.935,364.864l.235-2.837-34.6-3.326s-1.683.472-1.631,1.588Z" transform="translate(-33.934 -358.702)" fill="#fff"/>
                </g>
              </g>
            </g>
            <path id="Trazado_1035922" data-name="Trazado 1035922" d="M55.316,351.952c-.015.171.855.36,1.655,1.017.817.637,1.176,1.431,1.346,1.384.166-.012.024-1.062-.958-1.842s-2.063-.719-2.043-.558" transform="translate(-4.973 -23.978)" fill="#263238"/>
            <path id="Trazado_1035923" data-name="Trazado 1035923" d="M50.97,353.062c-.06.159.667.546,1.179,1.342.535.781.593,1.579.77,1.593.162.048.4-.934-.254-1.911s-1.673-1.186-1.7-1.024" transform="translate(-4.582 -24.057)" fill="#263238"/>
            <path id="Trazado_1035924" data-name="Trazado 1035924" d="M47.938,357.242c.156.057.5-.762.16-1.752s-1.119-1.465-1.21-1.333c-.116.128.359.7.625,1.511.287.81.252,1.534.425,1.573" transform="translate(-4.214 -24.134)" fill="#263238"/>
            <path id="Trazado_1035925" data-name="Trazado 1035925" d="M56.2,347.563c.056.165.89.033,1.876.224.989.172,1.725.594,1.833.459.116-.11-.563-.836-1.728-1.046s-2.05.219-1.98.363" transform="translate(-5.052 -23.657)" fill="#263238"/>
            <path id="Trazado_1035926" data-name="Trazado 1035926" d="M57.678,343.11a3.522,3.522,0,0,0,1.8.22,8.306,8.306,0,0,0,1.952-.321,8.479,8.479,0,0,0,1.1-.4,2.187,2.187,0,0,0,.592-.341.727.727,0,0,0,.188-.9.992.992,0,0,0-.724-.486,2.437,2.437,0,0,0-.687,0,6.741,6.741,0,0,0-1.165.23,6.346,6.346,0,0,0-1.787.845c-.924.642-1.284,1.242-1.228,1.282.073.067.542-.415,1.465-.924a7.243,7.243,0,0,1,1.712-.673,6.806,6.806,0,0,1,1.072-.177c.392-.049.717-.01.8.167.028.067.03.092-.063.19a1.8,1.8,0,0,1-.436.249,9.363,9.363,0,0,1-1.015.405,10.183,10.183,0,0,1-1.819.426,12.828,12.828,0,0,0-1.756.2" transform="translate(-5.185 -23.229)" fill="#263238"/>
            <path id="Trazado_1035927" data-name="Trazado 1035927" d="M57.707,343.149c.059.034.481-.531.675-1.625a5.542,5.542,0,0,0-.02-1.942,5.725,5.725,0,0,0-.333-1.118,1.511,1.511,0,0,0-1.046-1.028.841.841,0,0,0-.811.391,2.308,2.308,0,0,0-.261.616,3.8,3.8,0,0,0-.14,1.176,4.015,4.015,0,0,0,.556,1.9c.6.992,1.306,1.289,1.328,1.233.069-.078-.505-.485-.94-1.42a4,4,0,0,1-.377-1.713,3.535,3.535,0,0,1,.153-1c.1-.363.279-.644.418-.588.179.021.45.338.563.652a5.788,5.788,0,0,1,.334,1,6.144,6.144,0,0,1,.143,1.786c-.072,1.029-.335,1.642-.242,1.68" transform="translate(-5.014 -22.995)" fill="#263238"/>
            <path id="Trazado_1035928" data-name="Trazado 1035928" d="M134.07,171.971,74.277,173.93S60.97,264.924,61.336,271.247l-8.206,66,23.881.855s3.757-21.4,6.376-36.053c1.744-9.747,4.924-24.047,5.786-32.186s12.762-64.157,12.762-64.157,1.034,65.159,1.058,67.869-2.76,64.476-2.76,64.476h23.713c1.225-11.148,4.135-55.757,4.762-64.773,1.131-16.275,6.691-63.1,7.211-74.851s-1.848-26.46-1.848-26.46" transform="translate(-4.777 -11.72)" fill="#263238"/>
            <path id="Trazado_1035929" data-name="Trazado 1035929" d="M86.307,182.039a19.652,19.652,0,0,1-.168-5.677,19.653,19.653,0,0,1,.168,5.677" transform="translate(-7.732 -12.019)" fill="#455a64"/>
            <path id="Trazado_1035930" data-name="Trazado 1035930" d="M88.725,181.394a14.165,14.165,0,0,1,.439-4.8,14.165,14.165,0,0,1-.439,4.8" transform="translate(-7.969 -12.035)" fill="#455a64"/>
            <path id="Trazado_1035931" data-name="Trazado 1035931" d="M128.808,181.446a10.512,10.512,0,0,1,0-4.148,10.513,10.513,0,0,1,0,4.148" transform="translate(-11.562 -12.083)" fill="#455a64"/>
            <path id="Trazado_1035932" data-name="Trazado 1035932" d="M131.379,182.537a7.971,7.971,0,0,1,.426-5.239,20.163,20.163,0,0,1-.246,2.617,20.221,20.221,0,0,1-.18,2.622" transform="translate(-11.788 -12.083)" fill="#455a64"/>
            <path id="Trazado_1035933" data-name="Trazado 1035933" d="M110.475,204.631a5.316,5.316,0,0,1,.138-1.065c.127-.762.288-1.727.48-2.878.392-2.43.854-5.8,1.152-9.546s.369-7.15.363-9.613c-.008-1.168-.015-2.146-.021-2.919a5.286,5.286,0,0,1,.031-1.074,5.379,5.379,0,0,1,.129,1.066c.06.689.114,1.687.153,2.922a89.962,89.962,0,0,1-1.52,19.217c-.233,1.212-.443,2.189-.61,2.858a5.248,5.248,0,0,1-.3,1.032" transform="translate(-9.932 -12.099)" fill="#455a64"/>
            <path id="Trazado_1035934" data-name="Trazado 1035934" d="M108.034,178.267a2.154,2.154,0,0,0-1.195.682,1.739,1.739,0,0,0-.39,1.37,1.448,1.448,0,0,0,1.2,1.1,1.421,1.421,0,0,0,1.51-.578,1.749,1.749,0,0,0,.127-1.421,2.2,2.2,0,0,0-.867-1.083c0-.02.158-.023.4.105a1.742,1.742,0,0,1,.742.872,2,2,0,0,1-.076,1.73,1.776,1.776,0,0,1-1.91.79,1.815,1.815,0,0,1-1.494-1.453,2,2,0,0,1,.549-1.638,1.7,1.7,0,0,1,1-.532c.269-.029.412.032.409.051" transform="translate(-9.535 -12.145)" fill="#455a64"/>
            <path id="Trazado_1035935" data-name="Trazado 1035935" d="M78.448,285.644A49.932,49.932,0,0,1,72.4,283.33a50.052,50.052,0,0,1-5.891-2.706,49.971,49.971,0,0,1,6.048,2.315,50.075,50.075,0,0,1,5.89,2.706" transform="translate(-5.979 -19.124)" fill="#455a64"/>
            <path id="Trazado_1035936" data-name="Trazado 1035936" d="M138.495,168.764c-.212-.782-4.974-41.178-4.974-41.178l2.472-52.426-21.305-7.65-3.372-2.636L89.9,65.128l-2.426,3.7L67.2,78.278l5.651,42.952,1.585,35.943,1.5,13.311,60.1,3.67Z" transform="translate(-6.041 -4.421)" fill="#fed401"/>
            <g id="Grupo_1179709" data-name="Grupo 1179709" transform="translate(106.671 137.399)" opacity="0.3">
              <g id="Grupo_1179708" data-name="Grupo 1179708">
                <g id="Grupo_1179707" data-name="Grupo 1179707" clip-path="url(#clip-path-13)">
                  <path id="Trazado_1035937" data-name="Trazado 1035937" d="M139.722,147.447l-22.488,2.767a4.072,4.072,0,0,0,2.6,3.992,9.221,9.221,0,0,0,4.964.321,21.522,21.522,0,0,1,5-.466c1.677.151,3.308.829,4.989.724a5.586,5.586,0,0,0,4.212-2.44,5.86,5.86,0,0,0,.723-4.9" transform="translate(-117.209 -147.447)"/>
                </g>
              </g>
            </g>
            <path id="Trazado_1035938" data-name="Trazado 1035938" d="M142.391,75.913s4.987.715,7.9,9.66,9.757,41.452,10.194,43.689-1.461,9.374-9.063,12.569a25.8,25.8,0,0,1-13.073,2.1V127.472l3.2-3.578-1.254-5.8Z" transform="translate(-12.438 -5.173)" fill="#fed401"/>
            <path id="Trazado_1035939" data-name="Trazado 1035939" d="M155.935,128.156a6.432,6.432,0,0,1-.761-.327c-.486-.22-1.189-.537-2.077-.871a19.831,19.831,0,0,0-3.19-.929,14.058,14.058,0,0,0-1.938-.251,7.654,7.654,0,0,0-2.076.126,10.826,10.826,0,0,0-6.221,3.726,7.548,7.548,0,0,0-1.08,1.983,7.357,7.357,0,0,1-.243.805.761.761,0,0,1,.027-.217c.028-.141.064-.351.13-.616a7.066,7.066,0,0,1,1.038-2.057,10.714,10.714,0,0,1,6.306-3.854,7.754,7.754,0,0,1,2.132-.126,13.79,13.79,0,0,1,1.966.268,18.682,18.682,0,0,1,3.206.986c.887.357,1.583.7,2.058.944.238.121.42.223.541.293a.751.751,0,0,1,.181.117" transform="translate(-12.438 -8.554)" fill="#263238"/>
            <path id="Trazado_1035940" data-name="Trazado 1035940" d="M151.693,124.994c-.015.041-.6-.238-1.608-.447a8.843,8.843,0,0,0-3.961.08,8.987,8.987,0,0,0-3.531,1.84c-.791.671-1.179,1.2-1.212,1.17a1.579,1.579,0,0,1,.255-.383,7.451,7.451,0,0,1,.852-.914,8.5,8.5,0,0,1,3.581-1.942,8.356,8.356,0,0,1,4.052-.014,7.145,7.145,0,0,1,1.171.4,1.534,1.534,0,0,1,.4.214" transform="translate(-12.711 -8.46)" fill="#263238"/>
            <path id="Trazado_1035941" data-name="Trazado 1035941" d="M140.943,90.3c.063,0,.02,8.007-.1,17.88s-.263,17.88-.327,17.879-.02-8.006.1-17.882.263-17.879.327-17.878" transform="translate(-12.631 -6.154)" fill="#263238"/>
            <path id="Trazado_1035942" data-name="Trazado 1035942" d="M139.228,129.38l-11.974-.158a2.252,2.252,0,0,0-1.989,1.169l-8.191,18.159.309,1.224H131.3l8.139-18.723Z" transform="translate(-10.525 -8.806)" fill="#263238"/>
            <path id="Trazado_1035943" data-name="Trazado 1035943" d="M139.212,131.975,138.769,133l-2.425,5.024s-6.276-.575-7.263-.709-1.513.943-1.579,1.578a2.3,2.3,0,0,0,.526,1.361,28.562,28.562,0,0,1-5.2-2.2c-1.316-.944-1.974-.351-1.974-.351a1.787,1.787,0,0,0-2.764.351A23.527,23.527,0,0,0,120,142.785c.526.825,3.422,3.69,3.619,4.027s2.434.943,5,2.383a3.732,3.732,0,0,0,4.443-.467,3.243,3.243,0,0,0,.36-.03c.592-.067,2.171-1.617,2.566-1.568s.724-.048,1.513-.943a27,27,0,0,0,3.475-6.72c.459-1.6.19-2.018.059-2.122a7.323,7.323,0,0,0,2.323.707c1.645.269,2.5-.943,2.632-3.234s-4.937-2.237-6.779-2.844" transform="translate(-10.617 -8.994)" fill="#ffc09d"/>
            <path id="Trazado_1035944" data-name="Trazado 1035944" d="M139.342,143.048a1.73,1.73,0,0,1-.416.1,9.824,9.824,0,0,1-1.158.146,13.4,13.4,0,0,1-7.439-1.651,9.789,9.789,0,0,1-.994-.623,1.765,1.765,0,0,1-.338-.269c.02-.032.525.315,1.4.763a14.837,14.837,0,0,0,7.366,1.634c.976-.038,1.575-.14,1.581-.1" transform="translate(-11.597 -9.592)" fill="#ff9b6c"/>
            <path id="Trazado_1035945" data-name="Trazado 1035945" d="M140.2,138.284a4.121,4.121,0,0,1-2.953.136c.011-.061.669.04,1.48,0s1.457-.195,1.473-.136" transform="translate(-12.339 -9.423)" fill="#ff9b6c"/>
            <path id="Trazado_1035946" data-name="Trazado 1035946" d="M143.354,137.965c-.025.056-.913-.33-2.055-.651s-2.1-.466-2.089-.526a6.32,6.32,0,0,1,2.143.327,6.412,6.412,0,0,1,2,.851" transform="translate(-12.516 -9.321)" fill="#ff9b6c"/>
            <path id="Trazado_1035947" data-name="Trazado 1035947" d="M143.091,133.41c.056.02-.17.72-.179,1.612a3.773,3.773,0,0,0,.11,1.114c.089.267.268.334.256.362,0,.011-.054.015-.135-.025a.607.607,0,0,1-.251-.278,2.85,2.85,0,0,1-.182-1.176,3.01,3.01,0,0,1,.381-1.609" transform="translate(-12.83 -9.092)" fill="#ff9b6c"/>
            <path id="Trazado_1035948" data-name="Trazado 1035948" d="M134.98,146.786a.689.689,0,0,1-.195.007l-.558-.021c-.483-.025-1.183-.063-2.045-.166a14.83,14.83,0,0,1-2.985-.641,9.809,9.809,0,0,1-1.66-.735c-.552-.307-1.095-.667-1.651-1.03-2.5-1.634-4.727-3.108-6.165-4.075l-.035-.023.005-.039a2.232,2.232,0,0,1,.8-1.462,1.94,1.94,0,0,1,.372-.24.465.465,0,0,1,.144-.051,4.572,4.572,0,0,0-.471.346,2.224,2.224,0,0,0-.713,1.421l-.029-.061c1.462.928,3.7,2.377,6.2,4.012.557.363,1.1.723,1.637,1.027a10.009,10.009,0,0,0,1.625.732,15.58,15.58,0,0,0,2.943.676c.855.121,1.553.181,2.034.231l.554.059a.681.681,0,0,1,.192.034" transform="translate(-10.76 -9.426)" fill="#ff9b6c"/>
            <path id="Trazado_1035949" data-name="Trazado 1035949" d="M132.889,149.242a3.065,3.065,0,0,1-.589-.066c-.376-.06-.919-.157-1.585-.3a29.573,29.573,0,0,1-5.087-1.607,10.424,10.424,0,0,1-2.525-1.546A15.051,15.051,0,0,1,121.386,144c-.451-.523-.795-.964-1.03-1.271a3.178,3.178,0,0,1-.347-.491,3.451,3.451,0,0,1,.407.44c.254.29.613.717,1.076,1.224a16.508,16.508,0,0,0,1.728,1.666,10.664,10.664,0,0,0,2.489,1.5,34.278,34.278,0,0,0,5.038,1.654c.659.167,1.2.285,1.567.368a3.613,3.613,0,0,1,.574.145" transform="translate(-10.789 -9.693)" fill="#ff9b6c"/>
            <path id="Trazado_1035950" data-name="Trazado 1035950" d="M69.56,89.989A33.648,33.648,0,0,1,68.3,86.27a33.721,33.721,0,0,1-1.045-3.789A33.559,33.559,0,0,1,68.516,86.2a33.6,33.6,0,0,1,1.045,3.789" transform="translate(-6.046 -5.621)" fill="#263238"/>
            <path id="Trazado_1035951" data-name="Trazado 1035951" d="M142.492,78.6a5.816,5.816,0,0,1-.111,1.106c-.1.763-.217,1.66-.347,2.65-.112.992-.214,1.891-.3,2.656a5.739,5.739,0,0,1-.158,1.1,4.932,4.932,0,0,1,0-1.114c.032-.686.106-1.632.234-2.673s.282-1.976.415-2.648a4.991,4.991,0,0,1,.27-1.078" transform="translate(-12.726 -5.356)" fill="#263238"/>
            <path id="Trazado_1035952" data-name="Trazado 1035952" d="M117.051,144.716a5.659,5.659,0,0,1-.894.732c-.591.45-1.466,1.071-2.566,1.811a86.637,86.637,0,0,1-18.4,9.339c-1.241.448-2.254.786-2.961,1a5.6,5.6,0,0,1-1.11.285,5.527,5.527,0,0,1,1.055-.454l2.907-1.129c2.447-.97,5.792-2.4,9.379-4.221s6.723-3.68,8.958-5.088l2.638-1.685a5.545,5.545,0,0,1,.991-.585" transform="translate(-8.192 -9.862)" fill="#263238"/>
            <g id="Grupo_1179712" data-name="Grupo 1179712" transform="translate(48.701 135.296)" opacity="0.3">
              <g id="Grupo_1179711" data-name="Grupo 1179711">
                <g id="Grupo_1179710" data-name="Grupo 1179710" clip-path="url(#clip-path-14)">
                  <path id="Trazado_1035953" data-name="Trazado 1035953" d="M68.225,148.787a33.666,33.666,0,0,0-6.819-3.07,11.2,11.2,0,0,0-7.33.181c-.256.108-.544.28-.562.563-.026.394.459.581.839.643,4.57.743,9.4,1.087,13.979,1.775" transform="translate(-53.512 -145.191)"/>
                </g>
              </g>
            </g>
            <path id="Trazado_1035954" data-name="Trazado 1035954" d="M94.641,191.066A60.683,60.683,0,0,1,88.6,185.4c-1.358-1.771-2.244-2.8-2.244-2.8s-5.613-1.722-7.678-4.151-5.453-5.94-5.453-5.94l-6.655,7.14s3.838,6.37,4.15,8.47,2.656,7.885,2.656,7.885l12.771-7.818s2.72,3.9,4.462,4.324c1.427.349,3.924,1.4,4.035-1.445" transform="translate(-5.985 -11.756)" fill="#ffc09d"/>
            <path id="Trazado_1035955" data-name="Trazado 1035955" d="M65.35,79.258s-4.6,1.2-9.166,18.768c-4.119,15.863-9.718,46.484-9.528,49.563S64.639,178.3,64.639,178.3l3.843,1.4,8.265-7.035s2.7-4.58,1.929-5.7-4.2-3.463-4.2-3.463l-6.764-19.115,3.755-25.336Z" transform="translate(-4.194 -5.401)" fill="#fed401"/>
            <path id="Trazado_1035956" data-name="Trazado 1035956" d="M62.139,147.864a1.79,1.79,0,0,1,.5.032l1.4.192,5.095.795.1.016.036.1,3.873,10.8c1.055,3.012,2.049,5.846,2.91,8.3l-.062-.088c.557.481,1.108.888,1.6,1.387a5.775,5.775,0,0,1,1.56,4.758,8.059,8.059,0,0,1-.583,1.951,3.069,3.069,0,0,1-.294.654,3.248,3.248,0,0,1,.178-.7,9.423,9.423,0,0,0,.469-1.935,5.7,5.7,0,0,0-.526-2.966,5.5,5.5,0,0,0-1.058-1.5c-.454-.445-1.037-.869-1.592-1.336L75.7,168.3l-.019-.052c-.875-2.452-1.886-5.28-2.96-8.285-1.427-4.087-2.74-7.847-3.784-10.838l.136.116-5.069-.95L62.62,148a1.784,1.784,0,0,1-.481-.136" transform="translate(-5.587 -10.076)" fill="#263238"/>
            <path id="Trazado_1035957" data-name="Trazado 1035957" d="M71.776,99.651c.123-.007.9,12.915,1.736,28.859s1.412,28.88,1.29,28.886-.9-12.913-1.736-28.862-1.412-28.877-1.29-28.884" transform="translate(-6.452 -6.791)" fill="#263238"/>
            <path id="Trazado_1035958" data-name="Trazado 1035958" d="M107.223,80.094a2.246,2.246,0,0,1-.734.127,13.268,13.268,0,0,1-2.029.02,16.147,16.147,0,0,1-6.439-1.807,16.565,16.565,0,0,1-5.2-4.29,14.026,14.026,0,0,1-1.171-1.7,2.39,2.39,0,0,1-.329-.684c.063-.041.606.887,1.73,2.178a18.048,18.048,0,0,0,5.164,4.1,17.684,17.684,0,0,0,6.27,1.889c1.679.178,2.733.086,2.738.162" transform="translate(-8.21 -4.89)" fill="#263238"/>
            <path id="Trazado_1035959" data-name="Trazado 1035959" d="M118.782,68.682a4.229,4.229,0,0,1,.441,1.767,8.978,8.978,0,0,1-.664,4.351,8.753,8.753,0,0,1-2.657,3.466,4.043,4.043,0,0,1-1.563.873c-.035-.063.562-.393,1.372-1.114a9.68,9.68,0,0,0,2.455-3.4,9.91,9.91,0,0,0,.755-4.156c-.036-1.1-.208-1.77-.139-1.787" transform="translate(-10.28 -4.681)" fill="#263238"/>
            <path id="Trazado_1035960" data-name="Trazado 1035960" d="M124.677,22.081a4.4,4.4,0,0,0,4.678-3.311,4.514,4.514,0,0,0-2.747-5.1,4.723,4.723,0,0,0,.846-5.215,4.508,4.508,0,0,0-4.568-2.465,5.533,5.533,0,0,0-2.68-4.571A5.271,5.271,0,0,0,115,1.429a5.829,5.829,0,0,0-7.305-.275,4.307,4.307,0,0,0-4.548,2.179,4.528,4.528,0,0,0,.7,5.091" transform="translate(-9.23 0)" fill="#263238"/>
            <path id="Trazado_1035961" data-name="Trazado 1035961" d="M124.231,23.094A18.183,18.183,0,0,0,106.593,5.837l-.931-.017c-10.054.419-15.322,9.4-14.635,19.674l.959,36.119c2.262,5.506,5.966,9.968,12.8,11.145a8.992,8.992,0,0,0,7.7-2.152,7.851,7.851,0,0,0,2.581-5.565l.1-7.165s9.682-1.362,9.971-11.245c.14-4.773-.353-14.627-.9-23.539" transform="translate(-8.178 -0.397)" fill="#ffc09d"/>
            <path id="Trazado_1035962" data-name="Trazado 1035962" d="M116.395,61.376a23,23,0,0,1-12.583-4.02s2.852,7.168,12.5,6.452Z" transform="translate(-9.333 -3.909)" fill="#ff9b6c"/>
            <path id="Trazado_1035963" data-name="Trazado 1035963" d="M124.383,33.514a1.4,1.4,0,0,1-1.354,1.4,1.331,1.331,0,0,1-1.4-1.3,1.4,1.4,0,0,1,1.352-1.4,1.332,1.332,0,0,1,1.4,1.3" transform="translate(-10.935 -2.195)" fill="#263238"/>
            <path id="Trazado_1035964" data-name="Trazado 1035964" d="M124.607,29.4c-.174.181-1.2-.629-2.688-.652-1.482-.045-2.584.718-2.741.528-.077-.084.1-.413.582-.758a3.718,3.718,0,0,1,2.2-.65,3.582,3.582,0,0,1,2.136.748c.45.367.6.7.512.784" transform="translate(-10.713 -1.899)" fill="#263238"/>
            <path id="Trazado_1035965" data-name="Trazado 1035965" d="M110.145,33.852a1.4,1.4,0,0,1-1.354,1.4,1.33,1.33,0,0,1-1.4-1.3,1.4,1.4,0,0,1,1.352-1.4,1.331,1.331,0,0,1,1.4,1.3" transform="translate(-9.655 -2.218)" fill="#263238"/>
            <path id="Trazado_1035966" data-name="Trazado 1035966" d="M108.58,29.419c-.175.181-1.207-.629-2.688-.651-1.482-.045-2.584.717-2.742.527-.077-.084.1-.413.583-.758a3.717,3.717,0,0,1,2.2-.65,3.579,3.579,0,0,1,2.136.748c.449.367.6.7.513.784" transform="translate(-9.272 -1.9)" fill="#263238"/>
            <path id="Trazado_1035967" data-name="Trazado 1035967" d="M114.773,40.8a9.6,9.6,0,0,1,2.417-.4c.38-.033.739-.1.807-.367a2.013,2.013,0,0,0-.233-1.155q-.509-1.417-1.069-2.974c-1.483-4.233-2.549-7.711-2.382-7.771s1.5,3.323,2.987,7.556q.535,1.566,1.022,2.99a2.291,2.291,0,0,1,.17,1.525.957.957,0,0,1-.633.556,2.465,2.465,0,0,1-.644.079,9.483,9.483,0,0,1-2.443-.04" transform="translate(-10.276 -1.917)" fill="#263238"/>
            <path id="Trazado_1035968" data-name="Trazado 1035968" d="M108.217,24.015c-.088.425-1.432.374-2.963.757-1.54.348-2.739,1-2.983.657-.11-.167.069-.577.533-1.03a4.716,4.716,0,0,1,2.144-1.136,4.481,4.481,0,0,1,2.386.06c.6.2.918.491.883.692" transform="translate(-9.192 -1.576)" fill="#263238"/>
            <path id="Trazado_1035969" data-name="Trazado 1035969" d="M124.556,24.846c-.312.321-1.4-.13-2.738-.257-1.336-.171-2.5.026-2.728-.355-.1-.184.106-.513.627-.8a4.217,4.217,0,0,1,4.4.494c.446.392.574.759.435.917" transform="translate(-10.704 -1.569)" fill="#263238"/>
            <path id="Trazado_1035970" data-name="Trazado 1035970" d="M123.154,18.461s-2.439-6.236-5.33-7.733c-3.5-1.812-5.087,2.126-8.433,1.1s-6.686-2.763-10.169-.163c-3.811,2.846-2.085,4.922-2.393,9.3C95.58,38.734,92.323,43.7,91.565,35.313c-.083-.92-2.557-1.694-2.859-5.577-.391-5.036-.475-11.143.683-14.691.976-2.99,2.686-5.037,5.728-7.273,4.8-3.53,11.313-3.49,15.726-2.954s12.848,5.9,12.311,13.642" transform="translate(-7.951 -0.31)" fill="#263238"/>
            <path id="Trazado_1035971" data-name="Trazado 1035971" d="M91.906,37.093a2.646,2.646,0,0,0-2.784-2.636c-1.8.143-3.825,1.153-3.772,4.964.095,6.762,6.7,5.27,6.713,5.076.006-.131-.093-4.574-.157-7.4" transform="translate(-7.673 -2.348)" fill="#ffc09d"/>
            <path id="Trazado_1035972" data-name="Trazado 1035972" d="M90.814,42.134c-.029-.021-.114.085-.307.178a1.12,1.12,0,0,1-.86.031,2.928,2.928,0,0,1-1.353-2.6,3.98,3.98,0,0,1,.3-1.691,1.344,1.344,0,0,1,.853-.916.581.581,0,0,1,.683.312c.091.188.051.323.086.335.018.017.139-.116.083-.394a.757.757,0,0,0-.266-.419.854.854,0,0,0-.639-.163,1.629,1.629,0,0,0-1.187,1.066,4.08,4.08,0,0,0-.373,1.89c.062,1.362.761,2.628,1.719,2.9a1.212,1.212,0,0,0,1.049-.195c.2-.17.235-.321.212-.334" transform="translate(-7.896 -2.508)" fill="#ff9b6c"/>
            <path id="Trazado_1035973" data-name="Trazado 1035973" d="M92.324,21.8A6.212,6.212,0,0,0,95.1,23.171a2.15,2.15,0,0,0,2.414-1.507c.086-.469-.016-1.017.291-1.374.369-.427,1.031-.28,1.583-.21a4.215,4.215,0,0,0,4.426-3.013,1.741,1.741,0,0,0,2.368.272A9.634,9.634,0,0,0,108.01,15.4a2.69,2.69,0,0,1,2.285-1.119,6.444,6.444,0,0,0,1.43.349c.868-.063,1.31-1.095,1.455-1.973s.267-1.9,1.008-2.37a3.376,3.376,0,0,1,2.361-.024c.8.135,1.829-.038,2.048-.833a1.635,1.635,0,0,0-.274-1.231,4.224,4.224,0,0,0-5.017-1.748,5.984,5.984,0,0,0-4.874-4.305,5.9,5.9,0,0,0-5.75,2.962,5.884,5.884,0,0,0-5.233-1.506,6.018,6.018,0,0,0-4.2,3.531A4.308,4.308,0,0,0,88.766,8.6a4.562,4.562,0,0,0-.435,4.794,4.139,4.139,0,0,0-2.283,3.26c-.049,1.4,1.258,2.816,2.582,2.471a2.541,2.541,0,0,0,.876,3.193,2.413,2.413,0,0,0,3.164-.708" transform="translate(-7.736 -0.144)" fill="#263238"/>
            <path id="Trazado_1035974" data-name="Trazado 1035974" d="M113.818,8.915a.348.348,0,0,1,0,.124c-.01.081-.017.2-.048.36a4.323,4.323,0,0,1-.5,1.293,4.784,4.784,0,0,1-1.492,1.571,4.314,4.314,0,0,1-2.717.741l.115-.148a2.5,2.5,0,0,1-.165,1.864,6.979,6.979,0,0,1-1.159,1.641,4.913,4.913,0,0,1-.752.762,2.263,2.263,0,0,1-1.053.378,2.38,2.38,0,0,1-2.11-.817l.248-.068a5.084,5.084,0,0,1-2.16,3.469,3.553,3.553,0,0,1-2.18.688,6.379,6.379,0,0,1-2.128-.519l.178-.076a5.3,5.3,0,0,1-1.6,2.058,2.721,2.721,0,0,1-2.311.6,3.686,3.686,0,0,1-2.748-2.963l.148.075a3.333,3.333,0,0,1-2.274.3,3.653,3.653,0,0,1-1.569-.75,3.248,3.248,0,0,1-.723-.84,1.626,1.626,0,0,1-.162-.352,4.05,4.05,0,0,0,.953,1.1,3.624,3.624,0,0,0,1.532.68,3.194,3.194,0,0,0,2.146-.321l.125-.07.024.144a3.478,3.478,0,0,0,2.6,2.747,2.472,2.472,0,0,0,2.1-.568,5.068,5.068,0,0,0,1.5-1.953l.055-.124.124.048a6.15,6.15,0,0,0,2.035.494,3.276,3.276,0,0,0,2.013-.64,4.81,4.81,0,0,0,2.042-3.269l.046-.319.2.252a2.117,2.117,0,0,0,1.865.721,2.022,2.022,0,0,0,.933-.327,4.844,4.844,0,0,0,.709-.715,6.811,6.811,0,0,0,1.131-1.57,2.259,2.259,0,0,0,.173-1.686l-.051-.162.166.014a4.173,4.173,0,0,0,2.6-.668,4.764,4.764,0,0,0,1.481-1.485,5.34,5.34,0,0,0,.658-1.711" transform="translate(-7.791 -0.608)" fill="#455a64"/>
            <path id="Trazado_1035975" data-name="Trazado 1035975" d="M109.944,43.821a22.431,22.431,0,0,1,5.213,1.771l.015.048c-.225,1.257-.607,2.637-1.677,3.294a2.579,2.579,0,0,1-2.652-.051,3.022,3.022,0,0,1-1.435-2.192,6.44,6.44,0,0,1,.537-2.87" transform="translate(-9.834 -2.986)" fill="#ff9b6c"/>
            <path id="Trazado_1035976" data-name="Trazado 1035976" d="M112.38,49.121a2.814,2.814,0,0,1-1.67-.507,2.7,2.7,0,0,1-1.012-1.567,4.491,4.491,0,0,1,.147-2.358,4.218,4.218,0,0,1,.207-.554c.045-.036-.034-.008.031-.012l.275.087,1.136.363,1.93.588a7.184,7.184,0,0,0,1.816.425,7.285,7.285,0,0,0-1.713-.749l-1.9-.687-1.127-.39c-.106-.034-.176-.065-.32-.1a.481.481,0,0,0-.517.21,3.672,3.672,0,0,0-.268.677,4.713,4.713,0,0,0-.117,2.617,2.942,2.942,0,0,0,1.245,1.736,2.21,2.21,0,0,0,1.364.379c.337-.032.5-.13.493-.155" transform="translate(-9.812 -2.974)" fill="#263238"/>
          </g>
        </g>
      </g>
      <g id="Grupo_1179717" data-name="Grupo 1179717" transform="translate(456.419 28817.025)" clip-path="url(#clip-path-15)">
        <path id="Trazado_1035979" data-name="Trazado 1035979" d="M43.356,28.816H3.284a3.284,3.284,0,0,1,0-6.568H43.356a3.284,3.284,0,0,1,0,6.568" fill="#e0e0e0"/>
        <path id="Trazado_1035980" data-name="Trazado 1035980" d="M43.356,41.716H3.284a3.284,3.284,0,0,1,0-6.568H43.356a3.284,3.284,0,0,1,0,6.568" fill="#e0e0e0"/>
        <path id="Trazado_1035981" data-name="Trazado 1035981" d="M15.352,54.337H3.284a3.284,3.284,0,0,1,0-6.568H15.352a3.284,3.284,0,0,1,0,6.568" fill="#e0e0e0"/>
        <path id="Trazado_1035982" data-name="Trazado 1035982" d="M0,0H11.391V11.39H0Z" transform="translate(0 0)" fill="#fed401"/>
      </g>
    </g>
    <g id="Grupo_1180212" data-name="Grupo 1180212" transform="translate(389.151 28974.363)" clip-path="url(#clip-path-16)">
      <path id="Trazado_1051589" data-name="Trazado 1051589" d="M101.913,92.2H51.2a2.9,2.9,0,0,1,.623-.171,61.115,61.115,0,0,0,13.5-1.982,23.294,23.294,0,0,0,9.135-4.288A6.043,6.043,0,0,0,76.977,81.2c.05-3.422.014-6.845.014-10.326.208-.093.506-.223.8-.358a15.544,15.544,0,0,0,4.956-3.288A6.072,6.072,0,0,0,84.527,62.8c-.037-2.744-.014-5.489-.008-8.234a5.281,5.281,0,0,0-.98-3.191c-2.085-2.871-5.181-4.128-8.366-5.3l-.407,1-1.588-.553c.168-.169.332-.341.5-.506,6.762-6.561,9.509-14.5,7.988-23.81A26.223,26.223,0,1,0,30.615,33.916,26.543,26.543,0,0,0,38.563,46.53l-1.6.546-.42-.993a19.444,19.444,0,0,0-7.325,4.055,5.764,5.764,0,0,0-2,4.155c-.028,3.392-.008,6.785-.008,10-1.722,1.1-3.494,2.078-5.09,3.289a6.079,6.079,0,0,0-2.453,5.3c.077,2.5.069,5.012,0,7.516a6.423,6.423,0,0,0,2.34,5.183,18.25,18.25,0,0,0,5.944,3.372A56.4,56.4,0,0,0,44.223,92a6.009,6.009,0,0,1,.89.191M22.661,8.136v2.77H25.1V8.12h2.767V5.582H25.1V2.839H22.6V5.61H19.834V8.136Zm1.811,38.4h2.735V44H24.427V41.312H21.94v2.732H19.176v2.54h2.8v2.735h2.5ZM87.256,41.29v2.752h-2.75v2.527h2.759v2.772H89.8v-2.8h2.761V44h-2.8V41.29Z" transform="translate(-10.093 -0.987)" fill="#fdfdfd"/>
      <path id="Trazado_1051590" data-name="Trazado 1051590" d="M65.853,237.44a6.008,6.008,0,0,0-.89-.19A56.4,56.4,0,0,1,48.7,234.193a18.248,18.248,0,0,1-5.944-3.372,6.422,6.422,0,0,1-2.34-5.183c.067-2.5.074-5.013,0-7.516a6.079,6.079,0,0,1,2.453-5.3c1.6-1.211,3.368-2.19,5.091-3.289,0-3.212-.019-6.605.008-10a5.764,5.764,0,0,1,2-4.155,19.442,19.442,0,0,1,7.325-4.055l.42.993.381,1.355a11.534,11.534,0,0,0-1.555.609,33.84,33.84,0,0,0-4.71,2.841c-1.886,1.533-1.85,3.361.006,4.93a16.963,16.963,0,0,0,3.837,2.4,41.854,41.854,0,0,0,13.131,3.209,72.388,72.388,0,0,0,15.538.011,45.059,45.059,0,0,0,12.821-3.017,12.009,12.009,0,0,0,4.74-3.105c1.164-1.374,1.215-2.73-.061-3.99a16.248,16.248,0,0,0-3.21-2.371,34.321,34.321,0,0,0-3.487-1.582l.377-1.293.406-1c3.186,1.173,6.281,2.43,8.366,5.3a5.282,5.282,0,0,1,.98,3.191c-.006,2.744-.029,5.49.008,8.234a6.073,6.073,0,0,1-1.779,4.434,15.544,15.544,0,0,1-4.956,3.288c-.3.135-.593.265-.8.358,0,3.48.036,6.9-.014,10.326A6.043,6.043,0,0,1,95.206,231a23.3,23.3,0,0,1-9.135,4.289,61.114,61.114,0,0,1-13.5,1.982,2.9,2.9,0,0,0-.623.171Zm36.873-33.023c-1.208.708-2.317,1.468-3.515,2.04-5.307,2.533-11.011,3.449-16.8,3.9a70.858,70.858,0,0,1-18.546-.887c-4.683-.87-9.255-2.078-13.155-5.022-.053-.039-.153-.015-.254-.022v2.984a5.182,5.182,0,0,0,3.757,5.213v-2.134h2.491v1.313c0,2.18-.006,2.2,2.117,2.847,1.231.376,2.486.676,3.847,1.042v-2.763h2.5v3.26l5.96.7v-2.907h2.529v2.974h5.961v-3.005h2.5V216.9l5.962-.721v-3.265h2.5v2.851c1.938-.6,3.732-1.134,5.5-1.73.2-.066.382-.474.4-.732.047-.939.018-1.882.018-2.832h2.506v2.166c3.225-1.34,3.927-2.914,3.721-8.221m-19.663,29.14c1.927-.594,3.747-1.138,5.549-1.736.179-.059.339-.448.35-.69.04-.944.016-1.891.016-2.843H91.5v2.3c.738-.511,1.339-.888,1.9-1.32a3.849,3.849,0,0,0,1.779-2.587c.122-1.468.03-2.955.03-4.47-1.154.684-2.209,1.4-3.341,1.963a39.48,39.48,0,0,1-11.9,3.411,74.7,74.7,0,0,1-19.108.343,44.689,44.689,0,0,1-13.008-3.067c-1.675-.719-3.246-1.682-4.914-2.561,0,1.1,0,2.257,0,3.409a5.17,5.17,0,0,0,3.779,4.657v-2.061h2.472c0,.982-.024,1.9.017,2.824.011.242.172.628.351.687,1.8.6,3.622,1.139,5.582,1.742V230.7h2.494c0,.927-.021,1.791.014,2.654.009.218.169.6.3.619,1.845.266,3.7.481,5.654.723v-2.932h2.545v2.994H72.1v-3.014h2.507v2.944l5.948-.7v-3.276h2.508Zm12.131-16.5c-.936.247-1.805.454-2.657.717-.216.067-.388.3-.561.474a11.31,11.31,0,0,1-2.168,2.15,18.835,18.835,0,0,1-4.141,1.613,55.563,55.563,0,0,1-12.916,1.727c-7.03.25-14.02-.034-20.861-1.886a11.036,11.036,0,0,1-4.788-2.3,2.737,2.737,0,0,1,.016-4.363,13.626,13.626,0,0,1,2.177-1.38,13.074,13.074,0,0,1,1.257-.562c-.4-.388-.684-.7-1.01-.955a.742.742,0,0,0-.584-.165,13.2,13.2,0,0,0-4.99,3.058c-1.386,1.481-1.423,3,.062,4.4a14.117,14.117,0,0,0,3.2,2.245,35.811,35.811,0,0,0,11.191,3.254,72.077,72.077,0,0,0,20.429.139,37.01,37.01,0,0,0,11.672-3.2,20.954,20.954,0,0,0,3.671-2.5,2.738,2.738,0,0,0,1-2.476m-8.633,2.193-.056-.3c-.63.067-1.26.137-1.891.2a77.2,77.2,0,0,1-17.23-.158,43.7,43.7,0,0,1-13.658-3.659,1.111,1.111,0,0,0-.747-.129,33.8,33.8,0,0,0-3.638,1.438c-1.014.5-1.03.995-.01,1.448a25.5,25.5,0,0,0,4.931,1.77,75.655,75.655,0,0,0,27.212.513c1.712-.257,3.391-.74,5.086-1.118" transform="translate(-30.833 -146.232)" fill="#040301"/>
      <path id="Trazado_1051591" data-name="Trazado 1051591" d="M90.936,47.06a26.543,26.543,0,0,1-7.948-12.614,26.223,26.223,0,1,1,51.054-11.708c1.52,9.306-1.227,17.248-7.988,23.81-.171.166-.335.337-.5.506L120.4,50.61c-.192.075-.39.137-.575.228a26.108,26.108,0,0,1-16.086,2.318,29.68,29.68,0,0,1-7.677-2.545l-5.13-3.55m17.3-43.425a40.938,40.938,0,0,0-4.963.491,23.687,23.687,0,0,0-12.684,39,22.679,22.679,0,0,0,17.646,7.861,40.268,40.268,0,0,0,4.79-.446,23.7,23.7,0,0,0,12.735-39.176,22.653,22.653,0,0,0-17.523-7.729" transform="translate(-62.465 -1.517)" fill="#040402"/>
      <path id="Trazado_1051592" data-name="Trazado 1051592" d="M120.58,196.759l5.147-3.557,1.588.553-.377,1.293a34.352,34.352,0,0,1,3.487,1.582,16.251,16.251,0,0,1,3.21,2.371c1.275,1.26,1.225,2.615.061,3.99a12.011,12.011,0,0,1-4.74,3.105,45.067,45.067,0,0,1-12.821,3.017A72.385,72.385,0,0,1,100.6,209.1a41.841,41.841,0,0,1-13.131-3.209,16.967,16.967,0,0,1-3.837-2.4c-1.856-1.569-1.892-3.4-.006-4.93a33.822,33.822,0,0,1,4.71-2.841,11.568,11.568,0,0,1,1.555-.609l-.381-1.355,1.6-.546,5.131,3.551-2.442.406-.39-1.426c-1.972.753-3.89,1.39-5.722,2.216a3.368,3.368,0,0,0-2.3,3.043c0,1.575,1.11,2.433,2.349,3.12a22.3,22.3,0,0,0,6.784,2.149,79.114,79.114,0,0,0,19.345,1.023,47.445,47.445,0,0,0,12.152-1.95,15.538,15.538,0,0,0,4.276-2.125,2.673,2.673,0,0,0,.017-4.45c-2-1.687-4.464-2.249-6.962-2.809l-.321,1.207-2.443-.406" transform="translate(-62.641 -147.666)" fill="#f7c83c"/>
      <path id="Trazado_1051593" data-name="Trazado 1051593" d="M43.938,16.006H41.112V13.48h2.763V10.709h2.506v2.742H49.15V15.99H46.383v2.786H43.938Z" transform="translate(-31.37 -8.857)" fill="#060606"/>
      <path id="Trazado_1051594" data-name="Trazado 1051594" d="M43.658,176.653v2.787h-2.5V176.7h-2.8v-2.539h2.763v-2.732h2.488v2.689h2.778v2.531Z" transform="translate(-29.279 -131.108)" fill="#050505"/>
      <path id="Trazado_1051595" data-name="Trazado 1051595" d="M314.03,171.338h2.505v2.714h2.8v2.539H316.57v2.8h-2.531v-2.772H311.28v-2.527h2.75Z" transform="translate(-236.867 -131.036)" fill="#050505"/>
      <path id="Trazado_1051596" data-name="Trazado 1051596" d="M134.665,246.046c.206,5.307-.5,6.882-3.721,8.221V252.1h-2.506c0,.95.029,1.893-.018,2.831-.013.259-.2.666-.4.733-1.773.6-3.566,1.131-5.5,1.73v-2.851h-2.5v3.265l-5.962.721v-2.945h-2.5v3.006H105.6v-2.974H103.07v2.907l-5.96-.7v-3.26h-2.5v2.763c-1.361-.366-2.615-.666-3.847-1.042-2.123-.648-2.117-.668-2.117-2.847v-1.313H86.153v2.135a5.182,5.182,0,0,1-3.757-5.213v-2.984c.1.007.2-.017.254.023,3.9,2.944,8.472,4.153,13.155,5.022a70.855,70.855,0,0,0,18.546.887c5.788-.454,11.492-1.37,16.8-3.9,1.2-.572,2.307-1.332,3.515-2.04" transform="translate(-62.772 -187.86)" fill="#fa9722"/>
      <path id="Trazado_1051597" data-name="Trazado 1051597" d="M91.094,331.732v-2.85H88.586v3.276l-5.948.7v-2.944H80.132v3.014H74.175v-2.994H71.63v2.932c-1.958-.241-3.81-.457-5.655-.723-.132-.019-.293-.4-.3-.618-.035-.862-.014-1.727-.014-2.654H63.165v2.86c-1.96-.6-3.78-1.145-5.583-1.742-.179-.059-.34-.445-.351-.687-.041-.919-.017-1.842-.017-2.824H54.743v2.061a5.169,5.169,0,0,1-3.779-4.657c0-1.152,0-2.3,0-3.41,1.669.879,3.239,1.842,4.914,2.561a44.7,44.7,0,0,0,13.008,3.067,74.708,74.708,0,0,0,19.108-.343,39.482,39.482,0,0,0,11.9-3.411c1.131-.563,2.187-1.279,3.341-1.963,0,1.515.092,3-.03,4.47a3.848,3.848,0,0,1-1.779,2.587c-.557.433-1.157.809-1.9,1.32v-2.3H97.009c0,.953.024,1.9-.017,2.843-.01.243-.171.63-.349.69-1.8.6-3.622,1.143-5.549,1.736" transform="translate(-38.864 -244.407)" fill="#fa9722"/>
      <path id="Trazado_1051598" data-name="Trazado 1051598" d="M103.194,283.128a2.737,2.737,0,0,1-1,2.476,20.964,20.964,0,0,1-3.671,2.5,37.022,37.022,0,0,1-11.672,3.2,72.075,72.075,0,0,1-20.429-.139A35.813,35.813,0,0,1,55.228,287.9a14.127,14.127,0,0,1-3.2-2.245c-1.484-1.4-1.447-2.92-.061-4.4a13.2,13.2,0,0,1,4.99-3.058.741.741,0,0,1,.584.165c.327.255.608.567,1.01.955a13.015,13.015,0,0,0-1.257.562,13.612,13.612,0,0,0-2.177,1.381,2.736,2.736,0,0,0-.016,4.362,11.037,11.037,0,0,0,4.788,2.3c6.841,1.852,13.831,2.135,20.861,1.885a55.566,55.566,0,0,0,12.916-1.727,18.837,18.837,0,0,0,4.141-1.613,11.318,11.318,0,0,0,2.168-2.15c.173-.176.345-.408.56-.474.852-.263,1.72-.47,2.657-.717" transform="translate(-38.833 -212.304)" fill="#f7c83b"/>
      <path id="Trazado_1051599" data-name="Trazado 1051599" d="M112.516,295.047c-1.695.379-3.373.861-5.086,1.118a75.655,75.655,0,0,1-27.212-.513,25.5,25.5,0,0,1-4.931-1.771c-1.021-.453-1-.943.01-1.448A33.8,33.8,0,0,1,78.935,291a1.111,1.111,0,0,1,.747.129,43.694,43.694,0,0,0,13.658,3.659,77.191,77.191,0,0,0,17.23.159c.631-.061,1.261-.132,1.891-.2l.056.3" transform="translate(-56.788 -222.03)" fill="#f8a431"/>
      <path id="Trazado_1051600" data-name="Trazado 1051600" d="M191.629,11.819a22.653,22.653,0,0,1,17.523,7.729,23.7,23.7,0,0,1-12.735,39.176,40.265,40.265,0,0,1-4.79.446q0-2.167,0-4.333c.977-.1,1.961-.152,2.93-.3a19.261,19.261,0,0,0,7.389-35.322,20.231,20.231,0,0,0-10.319-3.056q0-2.169,0-4.338" transform="translate(-145.856 -9.701)" fill="#fbc932"/>
      <path id="Trazado_1051601" data-name="Trazado 1051601" d="M116.2,54.838q0,2.167,0,4.333a22.678,22.678,0,0,1-17.646-7.86,23.687,23.687,0,0,1,12.684-39,40.982,40.982,0,0,1,4.963-.491q0,2.169,0,4.338c-1.155.122-2.32.189-3.465.376-9.932,1.618-17.137,11.63-15.664,21.58A19.517,19.517,0,0,0,116.2,54.838" transform="translate(-70.424 -9.702)" fill="#fbd840"/>
      <path id="Trazado_1051602" data-name="Trazado 1051602" d="M111.928,208.467l2.442-.406a29.672,29.672,0,0,0,7.677,2.545,26.106,26.106,0,0,0,16.086-2.318c.185-.09.383-.152.575-.228l2.443.406-.2,1.194c.3.08.593.134.865.233,1.5.551,3.04,1.033,4.491,1.7.98.45.94.845.042,1.422a5.355,5.355,0,0,1-1.269.645,48.328,48.328,0,0,1-4.8,1.378,75.428,75.428,0,0,1-19.419,1.031,47.4,47.4,0,0,1-10.925-1.726,18.069,18.069,0,0,1-3.046-1.246c-1.111-.575-1.1-.941-.046-1.563a9.382,9.382,0,0,1,1.694-.793c1.175-.4,2.371-.747,3.585-1.123l-.2-1.152" transform="translate(-80.769 -158.967)" fill="#fba631"/>
      <path id="Trazado_1051603" data-name="Trazado 1051603" d="M103.839,205.229l.2,1.152c-1.214.376-2.41.719-3.585,1.123a9.386,9.386,0,0,0-1.694.793c-1.053.621-1.065.988.046,1.563a18.067,18.067,0,0,0,3.046,1.246,47.392,47.392,0,0,0,10.925,1.726,75.422,75.422,0,0,0,19.419-1.031,48.3,48.3,0,0,0,4.8-1.378,5.356,5.356,0,0,0,1.269-.645c.9-.577.938-.972-.042-1.422-1.451-.666-2.987-1.148-4.491-1.7-.273-.1-.562-.153-.865-.233l.2-1.194.322-1.207c2.5.56,4.964,1.122,6.962,2.809a2.673,2.673,0,0,1-.017,4.45,15.529,15.529,0,0,1-4.276,2.125,47.435,47.435,0,0,1-12.152,1.95,79.114,79.114,0,0,1-19.346-1.023,22.289,22.289,0,0,1-6.784-2.149c-1.24-.686-2.353-1.545-2.35-3.12a3.368,3.368,0,0,1,2.3-3.043c1.833-.826,3.75-1.464,5.722-2.216l.39,1.426" transform="translate(-72.68 -155.729)" fill="#050401"/>
      <path id="Trazado_1051604" data-name="Trazado 1051604" d="M130.234,68.622A19.517,19.517,0,0,1,111.1,51.9c-1.472-9.95,5.732-19.961,15.664-21.58,1.145-.186,2.31-.253,3.465-.376A20.23,20.23,0,0,1,140.552,33a19.261,19.261,0,0,1-7.388,35.322c-.969.151-1.953.2-2.93.3m0-36.088a1.478,1.478,0,0,0-.264-.034c-6.4.3-11.342,3.134-14.415,8.755a15.843,15.843,0,0,0,.5,16.9A15.965,15.965,0,0,0,130.235,66c.714-.025,1.435.007,2.14-.083a16.747,16.747,0,0,0,12.559-24.646,16.192,16.192,0,0,0-14.7-8.74" transform="translate(-84.462 -23.486)" fill="#050301"/>
      <path id="Trazado_1051605" data-name="Trazado 1051605" d="M191.622,40.771a16.192,16.192,0,0,1,14.7,8.74,16.747,16.747,0,0,1-12.559,24.646c-.705.09-1.426.058-2.14.083q0-2.975,0-5.951l1.271-.1V65.178c.225-.055.4-.09.561-.139a4.46,4.46,0,0,0-.326-8.683,13.215,13.215,0,0,0-1.507-.139q0-1.923,0-3.845c2.2-.118,2.2-.118,2.721,2.507h2.336c.33-2.926-.826-4.484-3.826-5.145v-2.91l-1.232-.066V40.771" transform="translate(-145.852 -31.723)" fill="#fc9823"/>
      <path id="Trazado_1051606" data-name="Trazado 1051606" d="M137.99,68.18q0,2.975,0,5.951a15.965,15.965,0,0,1-14.184-7.852,15.843,15.843,0,0,1-.5-16.9c3.073-5.62,8.019-8.457,14.415-8.755a1.478,1.478,0,0,1,.264.034v5.987l-1.254.084c0,.778-.04,1.492.012,2.2.044.6-.134.848-.759,1.03a4.37,4.37,0,0,0-3.086,4.581,4.04,4.04,0,0,0,3.761,3.961c.441.068.884.125,1.326.188q0,1.933,0,3.866c-2.181.136-2.214.105-2.712-2.516h-2.332c-.361,2.9.775,4.433,3.819,5.15V68.1l1.23.077" transform="translate(-92.219 -31.613)" fill="#fca732"/>
      <path id="Trazado_1051607" data-name="Trazado 1051607" d="M175.377,87.314l-1.23-.077V84.325c-3.044-.717-4.179-2.252-3.819-5.15h2.332c.5,2.621.531,2.652,2.712,2.516,1.837.115,2.976-1.041,2.5-2.544-.3-.962-1.1-1.385-2.5-1.322-.442-.062-.885-.12-1.326-.188a4.04,4.04,0,0,1-3.761-3.961,4.37,4.37,0,0,1,3.086-4.581c.625-.182.8-.425.759-1.03-.052-.708-.012-1.422-.012-2.2l1.254-.084,1.232.066v2.91c3,.661,4.156,2.219,3.826,5.145H178.1c-.523-2.625-.523-2.625-2.721-2.507-.118-.011-.236-.029-.353-.03a2.016,2.016,0,0,0-2.249,1.877c-.093,1.154.409,1.693,1.813,1.927.26.043.526.049.789.071a13.218,13.218,0,0,1,1.507.139,4.46,4.46,0,0,1,.326,8.683c-.166.049-.336.084-.561.139v3.016l-1.271.1" transform="translate(-129.607 -50.747)" fill="#050301"/>
      <path id="Trazado_1051608" data-name="Trazado 1051608" d="M183.321,92.985c-.263-.023-.529-.028-.789-.071-1.4-.235-1.906-.773-1.813-1.927a2.016,2.016,0,0,1,2.249-1.877c.118,0,.236.02.353.03q0,1.923,0,3.845" transform="translate(-137.55 -68.49)" fill="#f9a531"/>
      <path id="Trazado_1051609" data-name="Trazado 1051609" d="M191.612,116.074c1.4-.063,2.2.36,2.5,1.322.471,1.5-.668,2.659-2.505,2.544q0-1.933,0-3.866" transform="translate(-145.842 -88.996)" fill="#f79522"/>
    </g>
  </g>
</svg>
