<svg xmlns="http://www.w3.org/2000/svg" xmlns:xlink="http://www.w3.org/1999/xlink" width="122.975" height="122.973" viewBox="0 0 122.975 122.973">
  <defs>
    <filter id="Trazado_1053279" x="0" y="0" width="122.975" height="122.973" filterUnits="userSpaceOnUse">
      <feOffset dy="1" input="SourceAlpha"/>
      <feGaussianBlur stdDeviation="3" result="blur"/>
      <feFlood flood-opacity="0.161"/>
      <feComposite operator="in" in2="blur"/>
    </filter>
    <filter id="Trazado_1053279-2" x="0" y="0" width="122.975" height="122.973" filterUnits="userSpaceOnUse">
      <feOffset dy="3" input="SourceAlpha"/>
      <feGaussianBlur stdDeviation="3" result="blur-2"/>
      <feFlood flood-opacity="0.161" result="color"/>
      <feComposite operator="out" in="SourceGraphic" in2="blur-2"/>
      <feComposite operator="in" in="color"/>
      <feComposite operator="in" in2="SourceGraphic"/>
    </filter>
    <clipPath id="clip-path">
      <rect id="Rectángulo_407706" data-name="Rectángulo 407706" width="47.484" height="73.221" fill="none"/>
    </clipPath>
    <clipPath id="clip-path-2">
      <rect id="Rectángulo_407705" data-name="Rectángulo 407705" width="47.483" height="73.221" fill="none"/>
    </clipPath>
    <clipPath id="clip-path-3">
      <rect id="Rectángulo_407700" data-name="Rectángulo 407700" width="46.608" height="72.342" fill="none"/>
    </clipPath>
    <clipPath id="clip-path-4">
      <rect id="Rectángulo_407701" data-name="Rectángulo 407701" width="34.476" height="34.567" fill="none"/>
    </clipPath>
  </defs>
  <g id="Grupo_1180520" data-name="Grupo 1180520" transform="translate(-248.051 -34963)">
    <g data-type="innerShadowGroup">
      <g transform="matrix(1, 0, 0, 1, 248.05, 34963)" filter="url(#Trazado_1053279)">
        <g id="Trazado_1053279-3" data-name="Trazado 1053279" transform="translate(9 8)" fill="#5b39a6">
          <path d="M 52.4873046875 103.4746017456055 C 45.6034049987793 103.4746017456055 38.92621994018555 102.1267166137695 32.64120483398438 99.46839141845703 C 26.56986236572266 96.90042114257812 21.11690521240234 93.22384643554688 16.43384742736816 88.54077911376953 C 11.75077629089355 83.85770416259766 8.074190139770508 78.40476226806641 5.506218910217285 72.33340454101562 C 2.847890377044678 66.04840087890625 1.500004649162292 59.3712043762207 1.500004649162292 52.4873046875 C 1.500004649162292 45.6034049987793 2.847890377044678 38.92621994018555 5.506218910217285 32.64120483398438 C 8.074190139770508 26.56986236572266 11.75077629089355 21.11690521240234 16.43384742736816 16.43384742736816 C 21.11690521240234 11.75077629089355 26.56986236572266 8.074190139770508 32.64120483398438 5.506218910217285 C 38.92621994018555 2.847890377044678 45.6034049987793 1.500004649162292 52.4873046875 1.500004649162292 C 59.3712043762207 1.500004649162292 66.04840087890625 2.847890377044678 72.33340454101562 5.506218910217285 C 78.40476226806641 8.074190139770508 83.85770416259766 11.75077629089355 88.54077911376953 16.43384742736816 C 93.22384643554688 21.11690521240234 96.90042114257812 26.56986236572266 99.46839141845703 32.64120483398438 C 102.1267166137695 38.92621994018555 103.4746017456055 45.6034049987793 103.4746017456055 52.4873046875 C 103.4746017456055 59.3712043762207 102.1267166137695 66.04840087890625 99.46839141845703 72.33340454101562 C 96.90042114257812 78.40476226806641 93.22384643554688 83.85770416259766 88.54077911376953 88.54077911376953 C 83.85770416259766 93.22384643554688 78.40476226806641 96.90042114257812 72.33340454101562 99.46839141845703 C 66.04840087890625 102.1267166137695 59.3712043762207 103.4746017456055 52.4873046875 103.4746017456055 Z" stroke="none"/>
          <path d="M 52.4873046875 3.000007629394531 C 45.80523681640625 3.000007629394531 39.32463836669922 4.308021545410156 33.22554016113281 6.887741088867188 C 27.33298492431641 9.380073547363281 22.04029083251953 12.94870758056641 17.4945068359375 17.4945068359375 C 12.94870758056641 22.04029083251953 9.380073547363281 27.33298492431641 6.887741088867188 33.22554016113281 C 4.308021545410156 39.32463836669922 3.000007629394531 45.80523681640625 3.000007629394531 52.4873046875 C 3.000007629394531 59.16937255859375 4.308021545410156 65.64997100830078 6.887741088867188 71.74906921386719 C 9.380073547363281 77.64161682128906 12.94870758056641 82.93431854248047 17.4945068359375 87.4801025390625 C 22.04029083251953 92.02590179443359 27.33298492431641 95.59453582763672 33.22554016113281 98.08686828613281 C 39.32463836669922 100.6665878295898 45.80523681640625 101.9746017456055 52.4873046875 101.9746017456055 C 59.16937255859375 101.9746017456055 65.64997100830078 100.6665878295898 71.74906921386719 98.08686828613281 C 77.64161682128906 95.59453582763672 82.93431854248047 92.02590179443359 87.4801025390625 87.4801025390625 C 92.02590179443359 82.93431854248047 95.59453582763672 77.64161682128906 98.08686828613281 71.74906921386719 C 100.6665878295898 65.64997100830078 101.9746017456055 59.16937255859375 101.9746017456055 52.4873046875 C 101.9746017456055 45.80523681640625 100.6665878295898 39.32463836669922 98.08686828613281 33.22554016113281 C 95.59453582763672 27.33298492431641 92.02590179443359 22.04029083251953 87.4801025390625 17.4945068359375 C 82.93431854248047 12.94870758056641 77.64161682128906 9.380073547363281 71.74906921386719 6.887741088867188 C 65.64997100830078 4.308021545410156 59.16937255859375 3.000007629394531 52.4873046875 3.000007629394531 M 52.4873046875 7.62939453125e-06 C 81.47523498535156 7.62939453125e-06 104.9746017456055 23.49937438964844 104.9746017456055 52.4873046875 C 104.9746017456055 81.47523498535156 81.47523498535156 104.9746017456055 52.4873046875 104.9746017456055 C 23.49937438964844 104.9746017456055 7.62939453125e-06 81.47523498535156 7.62939453125e-06 52.4873046875 C 7.62939453125e-06 23.49937438964844 23.49937438964844 7.62939453125e-06 52.4873046875 7.62939453125e-06 Z" stroke="none" fill="#fff"/>
        </g>
      </g>
      <g id="Trazado_1053279-4" data-name="Trazado 1053279" transform="translate(257.051 34971)" fill="#5b39a6">
        <path d="M 52.4873046875 103.4746017456055 C 45.6034049987793 103.4746017456055 38.92621994018555 102.1267166137695 32.64120483398438 99.46839141845703 C 26.56986236572266 96.90042114257812 21.11690521240234 93.22384643554688 16.43384742736816 88.54077911376953 C 11.75077629089355 83.85770416259766 8.074190139770508 78.40476226806641 5.506218910217285 72.33340454101562 C 2.847890377044678 66.04840087890625 1.500004649162292 59.3712043762207 1.500004649162292 52.4873046875 C 1.500004649162292 45.6034049987793 2.847890377044678 38.92621994018555 5.506218910217285 32.64120483398438 C 8.074190139770508 26.56986236572266 11.75077629089355 21.11690521240234 16.43384742736816 16.43384742736816 C 21.11690521240234 11.75077629089355 26.56986236572266 8.074190139770508 32.64120483398438 5.506218910217285 C 38.92621994018555 2.847890377044678 45.6034049987793 1.500004649162292 52.4873046875 1.500004649162292 C 59.3712043762207 1.500004649162292 66.04840087890625 2.847890377044678 72.33340454101562 5.506218910217285 C 78.40476226806641 8.074190139770508 83.85770416259766 11.75077629089355 88.54077911376953 16.43384742736816 C 93.22384643554688 21.11690521240234 96.90042114257812 26.56986236572266 99.46839141845703 32.64120483398438 C 102.1267166137695 38.92621994018555 103.4746017456055 45.6034049987793 103.4746017456055 52.4873046875 C 103.4746017456055 59.3712043762207 102.1267166137695 66.04840087890625 99.46839141845703 72.33340454101562 C 96.90042114257812 78.40476226806641 93.22384643554688 83.85770416259766 88.54077911376953 88.54077911376953 C 83.85770416259766 93.22384643554688 78.40476226806641 96.90042114257812 72.33340454101562 99.46839141845703 C 66.04840087890625 102.1267166137695 59.3712043762207 103.4746017456055 52.4873046875 103.4746017456055 Z" stroke="none"/>
        <path d="M 52.4873046875 3.000007629394531 C 45.80523681640625 3.000007629394531 39.32463836669922 4.308021545410156 33.22554016113281 6.887741088867188 C 27.33298492431641 9.380073547363281 22.04029083251953 12.94870758056641 17.4945068359375 17.4945068359375 C 12.94870758056641 22.04029083251953 9.380073547363281 27.33298492431641 6.887741088867188 33.22554016113281 C 4.308021545410156 39.32463836669922 3.000007629394531 45.80523681640625 3.000007629394531 52.4873046875 C 3.000007629394531 59.16937255859375 4.308021545410156 65.64997100830078 6.887741088867188 71.74906921386719 C 9.380073547363281 77.64161682128906 12.94870758056641 82.93431854248047 17.4945068359375 87.4801025390625 C 22.04029083251953 92.02590179443359 27.33298492431641 95.59453582763672 33.22554016113281 98.08686828613281 C 39.32463836669922 100.6665878295898 45.80523681640625 101.9746017456055 52.4873046875 101.9746017456055 C 59.16937255859375 101.9746017456055 65.64997100830078 100.6665878295898 71.74906921386719 98.08686828613281 C 77.64161682128906 95.59453582763672 82.93431854248047 92.02590179443359 87.4801025390625 87.4801025390625 C 92.02590179443359 82.93431854248047 95.59453582763672 77.64161682128906 98.08686828613281 71.74906921386719 C 100.6665878295898 65.64997100830078 101.9746017456055 59.16937255859375 101.9746017456055 52.4873046875 C 101.9746017456055 45.80523681640625 100.6665878295898 39.32463836669922 98.08686828613281 33.22554016113281 C 95.59453582763672 27.33298492431641 92.02590179443359 22.04029083251953 87.4801025390625 17.4945068359375 C 82.93431854248047 12.94870758056641 77.64161682128906 9.380073547363281 71.74906921386719 6.887741088867188 C 65.64997100830078 4.308021545410156 59.16937255859375 3.000007629394531 52.4873046875 3.000007629394531 M 52.4873046875 7.62939453125e-06 C 81.47523498535156 7.62939453125e-06 104.9746017456055 23.49937438964844 104.9746017456055 52.4873046875 C 104.9746017456055 81.47523498535156 81.47523498535156 104.9746017456055 52.4873046875 104.9746017456055 C 23.49937438964844 104.9746017456055 7.62939453125e-06 81.47523498535156 7.62939453125e-06 52.4873046875 C 7.62939453125e-06 23.49937438964844 23.49937438964844 7.62939453125e-06 52.4873046875 7.62939453125e-06 Z" stroke="none"/>
      </g>
      <g transform="matrix(1, 0, 0, 1, 248.05, 34963)" filter="url(#Trazado_1053279-2)">
        <g id="Trazado_1053279-5" data-name="Trazado 1053279" transform="translate(9 8)" fill="#fff">
          <path d="M 52.4873046875 103.4746017456055 C 45.6034049987793 103.4746017456055 38.92621994018555 102.1267166137695 32.64120483398438 99.46839141845703 C 26.56986236572266 96.90042114257812 21.11690521240234 93.22384643554688 16.43384742736816 88.54077911376953 C 11.75077629089355 83.85770416259766 8.074190139770508 78.40476226806641 5.506218910217285 72.33340454101562 C 2.847890377044678 66.04840087890625 1.500004649162292 59.3712043762207 1.500004649162292 52.4873046875 C 1.500004649162292 45.6034049987793 2.847890377044678 38.92621994018555 5.506218910217285 32.64120483398438 C 8.074190139770508 26.56986236572266 11.75077629089355 21.11690521240234 16.43384742736816 16.43384742736816 C 21.11690521240234 11.75077629089355 26.56986236572266 8.074190139770508 32.64120483398438 5.506218910217285 C 38.92621994018555 2.847890377044678 45.6034049987793 1.500004649162292 52.4873046875 1.500004649162292 C 59.3712043762207 1.500004649162292 66.04840087890625 2.847890377044678 72.33340454101562 5.506218910217285 C 78.40476226806641 8.074190139770508 83.85770416259766 11.75077629089355 88.54077911376953 16.43384742736816 C 93.22384643554688 21.11690521240234 96.90042114257812 26.56986236572266 99.46839141845703 32.64120483398438 C 102.1267166137695 38.92621994018555 103.4746017456055 45.6034049987793 103.4746017456055 52.4873046875 C 103.4746017456055 59.3712043762207 102.1267166137695 66.04840087890625 99.46839141845703 72.33340454101562 C 96.90042114257812 78.40476226806641 93.22384643554688 83.85770416259766 88.54077911376953 88.54077911376953 C 83.85770416259766 93.22384643554688 78.40476226806641 96.90042114257812 72.33340454101562 99.46839141845703 C 66.04840087890625 102.1267166137695 59.3712043762207 103.4746017456055 52.4873046875 103.4746017456055 Z" stroke="none"/>
          <path d="M 52.4873046875 3.000007629394531 C 45.80523681640625 3.000007629394531 39.32463836669922 4.308021545410156 33.22554016113281 6.887741088867188 C 27.33298492431641 9.380073547363281 22.04029083251953 12.94870758056641 17.4945068359375 17.4945068359375 C 12.94870758056641 22.04029083251953 9.380073547363281 27.33298492431641 6.887741088867188 33.22554016113281 C 4.308021545410156 39.32463836669922 3.000007629394531 45.80523681640625 3.000007629394531 52.4873046875 C 3.000007629394531 59.16937255859375 4.308021545410156 65.64997100830078 6.887741088867188 71.74906921386719 C 9.380073547363281 77.64161682128906 12.94870758056641 82.93431854248047 17.4945068359375 87.4801025390625 C 22.04029083251953 92.02590179443359 27.33298492431641 95.59453582763672 33.22554016113281 98.08686828613281 C 39.32463836669922 100.6665878295898 45.80523681640625 101.9746017456055 52.4873046875 101.9746017456055 C 59.16937255859375 101.9746017456055 65.64997100830078 100.6665878295898 71.74906921386719 98.08686828613281 C 77.64161682128906 95.59453582763672 82.93431854248047 92.02590179443359 87.4801025390625 87.4801025390625 C 92.02590179443359 82.93431854248047 95.59453582763672 77.64161682128906 98.08686828613281 71.74906921386719 C 100.6665878295898 65.64997100830078 101.9746017456055 59.16937255859375 101.9746017456055 52.4873046875 C 101.9746017456055 45.80523681640625 100.6665878295898 39.32463836669922 98.08686828613281 33.22554016113281 C 95.59453582763672 27.33298492431641 92.02590179443359 22.04029083251953 87.4801025390625 17.4945068359375 C 82.93431854248047 12.94870758056641 77.64161682128906 9.380073547363281 71.74906921386719 6.887741088867188 C 65.64997100830078 4.308021545410156 59.16937255859375 3.000007629394531 52.4873046875 3.000007629394531 M 52.4873046875 7.62939453125e-06 C 81.47523498535156 7.62939453125e-06 104.9746017456055 23.49937438964844 104.9746017456055 52.4873046875 C 104.9746017456055 81.47523498535156 81.47523498535156 104.9746017456055 52.4873046875 104.9746017456055 C 23.49937438964844 104.9746017456055 7.62939453125e-06 81.47523498535156 7.62939453125e-06 52.4873046875 C 7.62939453125e-06 23.49937438964844 23.49937438964844 7.62939453125e-06 52.4873046875 7.62939453125e-06 Z" stroke="none"/>
        </g>
      </g>
      <g id="Trazado_1053279-6" data-name="Trazado 1053279" transform="translate(257.051 34971)" fill="none">
        <path d="M 52.4873046875 103.4746017456055 C 45.6034049987793 103.4746017456055 38.92621994018555 102.1267166137695 32.64120483398438 99.46839141845703 C 26.56986236572266 96.90042114257812 21.11690521240234 93.22384643554688 16.43384742736816 88.54077911376953 C 11.75077629089355 83.85770416259766 8.074190139770508 78.40476226806641 5.506218910217285 72.33340454101562 C 2.847890377044678 66.04840087890625 1.500004649162292 59.3712043762207 1.500004649162292 52.4873046875 C 1.500004649162292 45.6034049987793 2.847890377044678 38.92621994018555 5.506218910217285 32.64120483398438 C 8.074190139770508 26.56986236572266 11.75077629089355 21.11690521240234 16.43384742736816 16.43384742736816 C 21.11690521240234 11.75077629089355 26.56986236572266 8.074190139770508 32.64120483398438 5.506218910217285 C 38.92621994018555 2.847890377044678 45.6034049987793 1.500004649162292 52.4873046875 1.500004649162292 C 59.3712043762207 1.500004649162292 66.04840087890625 2.847890377044678 72.33340454101562 5.506218910217285 C 78.40476226806641 8.074190139770508 83.85770416259766 11.75077629089355 88.54077911376953 16.43384742736816 C 93.22384643554688 21.11690521240234 96.90042114257812 26.56986236572266 99.46839141845703 32.64120483398438 C 102.1267166137695 38.92621994018555 103.4746017456055 45.6034049987793 103.4746017456055 52.4873046875 C 103.4746017456055 59.3712043762207 102.1267166137695 66.04840087890625 99.46839141845703 72.33340454101562 C 96.90042114257812 78.40476226806641 93.22384643554688 83.85770416259766 88.54077911376953 88.54077911376953 C 83.85770416259766 93.22384643554688 78.40476226806641 96.90042114257812 72.33340454101562 99.46839141845703 C 66.04840087890625 102.1267166137695 59.3712043762207 103.4746017456055 52.4873046875 103.4746017456055 Z" stroke="none"/>
        <path d="M 52.4873046875 3.000007629394531 C 45.80523681640625 3.000007629394531 39.32463836669922 4.308021545410156 33.22554016113281 6.887741088867188 C 27.33298492431641 9.380073547363281 22.04029083251953 12.94870758056641 17.4945068359375 17.4945068359375 C 12.94870758056641 22.04029083251953 9.380073547363281 27.33298492431641 6.887741088867188 33.22554016113281 C 4.308021545410156 39.32463836669922 3.000007629394531 45.80523681640625 3.000007629394531 52.4873046875 C 3.000007629394531 59.16937255859375 4.308021545410156 65.64997100830078 6.887741088867188 71.74906921386719 C 9.380073547363281 77.64161682128906 12.94870758056641 82.93431854248047 17.4945068359375 87.4801025390625 C 22.04029083251953 92.02590179443359 27.33298492431641 95.59453582763672 33.22554016113281 98.08686828613281 C 39.32463836669922 100.6665878295898 45.80523681640625 101.9746017456055 52.4873046875 101.9746017456055 C 59.16937255859375 101.9746017456055 65.64997100830078 100.6665878295898 71.74906921386719 98.08686828613281 C 77.64161682128906 95.59453582763672 82.93431854248047 92.02590179443359 87.4801025390625 87.4801025390625 C 92.02590179443359 82.93431854248047 95.59453582763672 77.64161682128906 98.08686828613281 71.74906921386719 C 100.6665878295898 65.64997100830078 101.9746017456055 59.16937255859375 101.9746017456055 52.4873046875 C 101.9746017456055 45.80523681640625 100.6665878295898 39.32463836669922 98.08686828613281 33.22554016113281 C 95.59453582763672 27.33298492431641 92.02590179443359 22.04029083251953 87.4801025390625 17.4945068359375 C 82.93431854248047 12.94870758056641 77.64161682128906 9.380073547363281 71.74906921386719 6.887741088867188 C 65.64997100830078 4.308021545410156 59.16937255859375 3.000007629394531 52.4873046875 3.000007629394531 M 52.4873046875 7.62939453125e-06 C 81.47523498535156 7.62939453125e-06 104.9746017456055 23.49937438964844 104.9746017456055 52.4873046875 C 104.9746017456055 81.47523498535156 81.47523498535156 104.9746017456055 52.4873046875 104.9746017456055 C 23.49937438964844 104.9746017456055 7.62939453125e-06 81.47523498535156 7.62939453125e-06 52.4873046875 C 7.62939453125e-06 23.49937438964844 23.49937438964844 7.62939453125e-06 52.4873046875 7.62939453125e-06 Z" stroke="none" fill="#fff"/>
      </g>
    </g>
    <g id="Grupo_1180519" data-name="Grupo 1180519" transform="translate(285.796 34987.879)">
      <g id="Grupo_1180518" data-name="Grupo 1180518" transform="translate(0 0)" clip-path="url(#clip-path)">
        <g id="Grupo_1180517" data-name="Grupo 1180517" transform="translate(0 0)">
          <g id="Grupo_1180516" data-name="Grupo 1180516" clip-path="url(#clip-path-2)">
            <g id="Grupo_1180512" data-name="Grupo 1180512" transform="translate(0.876 0.878)" opacity="0.7" style="mix-blend-mode: multiply;isolation: isolate">
              <g id="Grupo_1180511" data-name="Grupo 1180511">
                <g id="Grupo_1180510" data-name="Grupo 1180510" clip-path="url(#clip-path-3)">
                  <path id="Trazado_1053266" data-name="Trazado 1053266" d="M47.363,22.277C46.328,9.725,36.922.934,24.321.934h-.167c-12.6,0-22.009,8.791-23.041,21.343C.6,28.43.5,34,10.589,45.867a12.62,12.62,0,0,1,2.246,5.3H10.84v3.2H12V57.63H10.84v3.2H12V64.08H10.84v3.207h1.347a3.119,3.119,0,0,0,.87.662l8.353,4.671a6.432,6.432,0,0,0,5.659,0l8.35-4.671a3.155,3.155,0,0,0,.869-.662h1.348V64.08h-1.16V60.83h1.16v-3.2h-1.16V54.374h1.16v-3.2H35.643a12.63,12.63,0,0,1,2.244-5.3C47.979,34,47.867,28.43,47.363,22.277" transform="translate(-0.934 -0.934)" fill="gray"/>
                </g>
              </g>
            </g>
            <path id="Trazado_1053267" data-name="Trazado 1053267" d="M23.3,0H23.22C10.623,0,1.212,8.791.179,21.343-.33,27.5-.436,33.069,9.655,44.933c2.109,2.483,2.732,7.457,2.963,10.385.129,1.593,7.816,2.634,10.685,2.843h0V0Z" transform="translate(0 0)" fill="#fefefe"/>
            <path id="Trazado_1053268" data-name="Trazado 1053268" d="M47.959,21.343C46.924,8.791,37.518,0,24.917,0h-.082V58.162c2.872-.209,10.554-1.25,10.684-2.843.236-2.929.857-7.9,2.964-10.385,10.091-11.864,9.98-17.436,9.476-23.59" transform="translate(-1.529 0)" fill="#fefefe"/>
            <path id="Trazado_1053269" data-name="Trazado 1053269" d="M24.032,53.394H11.794V69.16h0c.022.273.37.629,1.054,1.011L21.2,74.843a6.432,6.432,0,0,0,5.659,0l8.35-4.671c.681-.383,1.029-.739,1.057-1.011V53.394Z" transform="translate(-0.726 -3.157)" fill="#153152"/>
            <path id="Trazado_1053270" data-name="Trazado 1053270" d="M6.385,22.4a19.326,19.326,0,0,0,19.3,19.351V3.051A19.326,19.326,0,0,0,6.385,22.4" transform="translate(-0.393 -0.181)" fill="#eda73f"/>
            <path id="Trazado_1053271" data-name="Trazado 1053271" d="M46.255,22.4A19.3,19.3,0,0,1,41.38,35.257a19.21,19.21,0,0,1-14.427,6.5V3.051c.438,0,.873.017,1.3.046a19.33,19.33,0,0,1,18,19.308" transform="translate(-1.659 -0.181)" fill="#eda73f"/>
            <path id="Trazado_1053272" data-name="Trazado 1053272" d="M21.7,3.051A19.353,19.353,0,1,0,41,22.4,19.324,19.324,0,0,0,21.7,3.051" transform="translate(-0.147 -0.181)" fill="#ffce3b"/>
            <path id="Trazado_1053273" data-name="Trazado 1053273" d="M5.854,22.61a16.077,16.077,0,0,0,16.055,16.1V6.514A16.075,16.075,0,0,0,5.854,22.61" transform="translate(-0.36 -0.385)" fill="#eda73f"/>
            <path id="Trazado_1053274" data-name="Trazado 1053274" d="M22.962,6.514V38.706a16.1,16.1,0,0,0,0-32.192" transform="translate(-1.413 -0.385)" fill="#f59407"/>
            <path id="Trazado_1053275" data-name="Trazado 1053275" d="M22.069,36.419A13.657,13.657,0,1,1,35.687,22.763,13.653,13.653,0,0,1,22.069,36.419m0-26.706a13.05,13.05,0,1,0,13.012,13.05A13.045,13.045,0,0,0,22.069,9.713" transform="translate(-0.52 -0.539)" fill="#ffce3b"/>
            <path id="Trazado_1053276" data-name="Trazado 1053276" d="M16.674,18.635c.026-3.436,2.144-4.537,4.78-4.608l.007-2.063,2.285.01-.01,2.082a16.358,16.358,0,0,1,4.151.736l-.012,3.069c-1.447-.135-4.018-.254-5.2-.261-1.391-.022-2.074.086-2.081,1.412l0,.592c0,1.039.424,1.455,1.694,1.46l1.922.008c3.556.02,4.286,2.937,4.276,4.867l-.009,1c-.016,4.08-2.447,5-4.825,4.99l-.01,1.965-2.283-.008.01-2a12.456,12.456,0,0,1-4.2-.749l.019-3.047c.957.075,3.312.249,5.533.26,1.016.006,1.831-.23,1.837-1.266l.006-.7c0-.865-.262-1.379-1.439-1.386L21.261,25c-4.291-.022-4.6-3.549-4.594-4.871Z" transform="translate(-1.026 -0.708)" fill="#ffce3b"/>
            <g id="Grupo_1180515" data-name="Grupo 1180515" transform="translate(2.248 2.871)" opacity="0.3" style="mix-blend-mode: screen;isolation: isolate">
              <g id="Grupo_1180514" data-name="Grupo 1180514">
                <g id="Grupo_1180513" data-name="Grupo 1180513" clip-path="url(#clip-path-4)">
                  <path id="Trazado_1053277" data-name="Trazado 1053277" d="M17.039,3.622,2.96,17.737a19.446,19.446,0,0,0-.565,4.628L21.653,3.051a19.38,19.38,0,0,0-4.613.571" transform="translate(-2.395 -3.051)" fill="#ffce3b"/>
                  <path id="Trazado_1053278" data-name="Trazado 1053278" d="M28.5,4.334,3.675,29.222a19.421,19.421,0,0,0,6.169,8.472L36.949,10.518A19.362,19.362,0,0,0,28.5,4.334" transform="translate(-2.474 -3.127)" fill="#ffce3b"/>
                </g>
              </g>
            </g>
            <rect id="Rectángulo_407702" data-name="Rectángulo 407702" width="26.795" height="3.203" transform="translate(9.907 50.238)" fill="#193a61"/>
            <rect id="Rectángulo_407703" data-name="Rectángulo 407703" width="26.795" height="3.2" transform="translate(9.907 56.696)" fill="#193a61"/>
            <rect id="Rectángulo_407704" data-name="Rectángulo 407704" width="26.795" height="3.207" transform="translate(9.907 63.146)" fill="#193a61"/>
          </g>
        </g>
      </g>
    </g>
  </g>
</svg>
