<svg xmlns="http://www.w3.org/2000/svg" xmlns:xlink="http://www.w3.org/1999/xlink" width="174.646" height="249.406" viewBox="0 0 174.646 249.406">
  <defs>
    <clipPath id="clip-path">
      <rect id="Rectángulo_407676" data-name="Rectángulo 407676" width="174.646" height="163.902" fill="#feead4"/>
    </clipPath>
    <clipPath id="clip-path-2">
      <rect id="Rectángulo_407676-2" data-name="Rectángulo 407676" width="104.64" height="98.202" fill="#e8e8e8"/>
    </clipPath>
    <clipPath id="clip-path-3">
      <rect id="Rectángulo_407798" data-name="Rectángulo 407798" width="172.86" height="168.95" fill="none"/>
    </clipPath>
    <clipPath id="clip-path-4">
      <rect id="Rectángulo_407797" data-name="Rectángulo 407797" width="172.859" height="168.948" fill="none"/>
    </clipPath>
    <clipPath id="clip-path-5">
      <rect id="Rectángulo_407791" data-name="Rectángulo 407791" width="170.989" height="167.079" fill="none"/>
    </clipPath>
    <clipPath id="clip-path-6">
      <rect id="Rectángulo_407792" data-name="Rectángulo 407792" width="49.434" height="27.372" fill="none"/>
    </clipPath>
    <clipPath id="clip-path-7">
      <rect id="Rectángulo_407793" data-name="Rectángulo 407793" width="15.035" height="7.677" fill="none"/>
    </clipPath>
    <clipPath id="clip-path-8">
      <rect id="Rectángulo_407796" data-name="Rectángulo 407796" width="37.299" height="31" fill="none"/>
    </clipPath>
  </defs>
  <g id="Grupo_1180629" data-name="Grupo 1180629" transform="translate(-1125 -35463.734)">
    <g id="Grupo_1180550" data-name="Grupo 1180550" transform="translate(1140.354 35455.734)">
      <g id="Grupo_1180480" data-name="Grupo 1180480" transform="translate(-15.354 8)" clip-path="url(#clip-path)">
        <path id="Trazado_1053260" data-name="Trazado 1053260" d="M174.646,150.592c0,45.261-39.1,81.951-87.323,81.951S0,195.853,0,150.592,39.1,68.641,87.323,68.641s87.323,36.69,87.323,81.951" transform="translate(0 -68.641)" fill="#feead4"/>
      </g>
    </g>
    <g id="Grupo_1180646" data-name="Grupo 1180646" transform="translate(1125 35614.938)">
      <g id="Grupo_1180480-2" data-name="Grupo 1180480" clip-path="url(#clip-path-2)">
        <path id="Trazado_1053260-2" data-name="Trazado 1053260" d="M104.64,117.742c0,27.118-23.424,49.1-52.32,49.1S0,144.86,0,117.742s23.424-49.1,52.32-49.1,52.32,21.983,52.32,49.1" transform="translate(0 -68.641)" fill="#e8e8e8"/>
      </g>
    </g>
    <g id="Grupo_1180645" data-name="Grupo 1180645" transform="translate(1125 35495.09)">
      <g id="Grupo_1180644" data-name="Grupo 1180644" clip-path="url(#clip-path-3)">
        <g id="Grupo_1180643" data-name="Grupo 1180643" transform="translate(0 0.001)">
          <g id="Grupo_1180642" data-name="Grupo 1180642" clip-path="url(#clip-path-4)">
            <g id="Grupo_1180632" data-name="Grupo 1180632" transform="translate(1.871 1.87)" opacity="0.7" style="mix-blend-mode: multiply;isolation: isolate">
              <g id="Grupo_1180631" data-name="Grupo 1180631">
                <g id="Grupo_1180630" data-name="Grupo 1180630" clip-path="url(#clip-path-5)">
                  <path id="Trazado_1053526" data-name="Trazado 1053526" d="M169.5,93.828a7.479,7.479,0,0,0-5.469-2.373c-.566,0-1.167,0-1.786.011.107-1.484.171-2.982.171-4.5,0-21.118-10.3-43.367-28.188-55.347a36.558,36.558,0,0,0,8.956-15.606A7.483,7.483,0,0,0,140.742,8.5a42.677,42.677,0,0,0-13.119-7.337,12.428,12.428,0,0,0-3.829-.637A9.171,9.171,0,0,0,116.636,3.7a18.964,18.964,0,0,0-4.917-.729,13.209,13.209,0,0,0-1.633.107c-.167.021-.324.057-.484.085-.338.057-.669.117-.979.2-.171.043-.334.093-.5.146-.281.085-.552.178-.808.285-.153.06-.3.117-.441.181-.26.121-.505.246-.74.377-.114.064-.235.121-.342.189a10.04,10.04,0,0,0-.836.559l-.093.064c-.288.221-.544.441-.786.665-.089.078-.16.153-.242.235-.1.1-.217.2-.313.3a11.779,11.779,0,0,1-2.469-2.4A7.48,7.48,0,0,0,94.945.807c-3.451,0-6.711,1.466-10.155,3.014-3.024,1.359-6.454,2.9-9.639,3.206a7.484,7.484,0,0,0-6.33,9.959A47.291,47.291,0,0,0,76.35,30.913C57.787,42.7,47.06,65.423,47.06,86.968V87a7.491,7.491,0,0,0-1.751-.224H8.009A7.483,7.483,0,0,0,.526,94.259v62.026a7.485,7.485,0,0,0,7.483,7.483h37.3a7.518,7.518,0,0,0,6.913-4.715,7.48,7.48,0,0,0,2.373-.95c.47.164.936.324,1.409.491,5.142,1.793,10.457,3.651,16.186,5.259a114.456,114.456,0,0,0,28.063,3.75c7.227,0,13.937-1.576,20.424-3.1,2.694-.637,5.23-1.235,7.693-1.7.744-.132,1.655-.224,2.619-.317,3.818-.374,9.031-.882,13.24-4.981a26.922,26.922,0,0,0,4.665-6.195,21.279,21.279,0,0,1,1.736-2.626c1.615-1.783,3.64-3.932,5.661-6.081,5.789-6.156,8.454-9.045,9.714-10.934,1.5-2.267,2-5.206,2.95-12.411.2-1.519.395-3,.591-4.245.014-.078.028-.16.036-.238.174-1.377.384-2.807.6-4.291.487-3.295,1.039-7.027,1.313-11.041a7.487,7.487,0,0,0-2-5.615" transform="translate(-0.525 -0.525)" fill="gray"/>
                </g>
              </g>
            </g>
            <path id="Trazado_1053527" data-name="Trazado 1053527" d="M163.5,90.929c-.566,0-1.167,0-1.786.014.107-1.487.171-2.985.171-4.5,0-21.114-10.3-43.367-28.188-55.347a36.558,36.558,0,0,0,8.956-15.606,7.478,7.478,0,0,0-2.444-7.515A42.668,42.668,0,0,0,127.1.637,12.535,12.535,0,0,0,123.269,0a9.182,9.182,0,0,0-7.163,3.177,18.922,18.922,0,0,0-4.914-.726,13.163,13.163,0,0,0-1.633.107c-.167.021-.324.053-.487.082-.334.057-.665.117-.975.2-.171.046-.334.1-.5.146-.281.085-.552.181-.811.285-.149.06-.3.121-.441.185q-.384.176-.737.374c-.114.064-.235.125-.342.189-.3.181-.576.366-.836.559-.028.025-.064.043-.093.068a10.072,10.072,0,0,0-.79.662c-.085.078-.16.157-.238.235-.1.1-.217.2-.313.306a11.8,11.8,0,0,1-2.469-2.405A7.491,7.491,0,0,0,94.419.285c-3.451,0-6.711,1.462-10.155,3.01C81.24,4.654,77.81,6.195,74.622,6.5A7.482,7.482,0,0,0,68.3,16.464a47.316,47.316,0,0,0,7.529,13.923C57.261,42.178,46.534,64.9,46.534,86.442v.036a7.493,7.493,0,0,0-1.751-.228H7.483A7.485,7.485,0,0,0,0,93.733v62.026a7.485,7.485,0,0,0,7.483,7.483h37.3a7.51,7.51,0,0,0,6.91-4.715,7.384,7.384,0,0,0,2.377-.95c.47.164.936.327,1.409.491,5.142,1.8,10.457,3.651,16.186,5.263a114.626,114.626,0,0,0,28.063,3.75c7.227,0,13.937-1.58,20.424-3.106,2.694-.633,5.23-1.231,7.689-1.7.747-.132,1.658-.221,2.622-.313,3.818-.377,9.031-.886,13.24-4.985a26.908,26.908,0,0,0,4.665-6.191,21.092,21.092,0,0,1,1.736-2.629c1.615-1.783,3.64-3.932,5.661-6.081,5.789-6.156,8.454-9.045,9.714-10.931,1.5-2.27,2-5.206,2.95-12.411.2-1.519.395-3,.591-4.248.014-.078.025-.16.036-.238.174-1.373.384-2.8.6-4.288.484-3.295,1.035-7.031,1.313-11.041a7.484,7.484,0,0,0-7.469-7.992" transform="translate(0 -0.001)" fill="#fff"/>
            <path id="Trazado_1053528" data-name="Trazado 1053528" d="M78.316,29.087c-.228.431-.452.9-.672,1.405C75.829,34.332,72.983,40.224,72.271,45c-2.665,2.114-5.273,3.957-7.607,5.931-2.135,1.64-5.391,3.508-7.864,5.529H28.883c.473-.139.943-.263,1.4-.363,3-.6,6.134-1.324,9.13-1.925,4.138-.74,8.849-2.313,13.24-2.832a61.245,61.245,0,0,1,6.124-3.658A43.11,43.11,0,0,0,65.226,42.8c1-3.334,1.772-7.066,3.651-9.785,2.067-2.825,5.91-3.811,9.44-3.928" transform="translate(73.887 74.408)" fill="#d89f75"/>
            <g id="Grupo_1180635" data-name="Grupo 1180635" transform="translate(102.771 103.493)" opacity="0.4" style="mix-blend-mode: multiply;isolation: isolate">
              <g id="Grupo_1180634" data-name="Grupo 1180634">
                <g id="Grupo_1180633" data-name="Grupo 1180633" clip-path="url(#clip-path-6)">
                  <path id="Trazado_1053529" data-name="Trazado 1053529" d="M78.316,29.087c-.228.431-.452.9-.672,1.405C75.829,34.332,72.983,40.224,72.271,45c-2.665,2.114-5.273,3.957-7.607,5.931-2.135,1.64-5.391,3.508-7.864,5.529H28.883c.473-.139.943-.263,1.4-.363,3-.6,6.134-1.324,9.13-1.925,4.138-.74,8.849-2.313,13.24-2.832a61.245,61.245,0,0,1,6.124-3.658A43.11,43.11,0,0,0,65.226,42.8c1-3.334,1.772-7.066,3.651-9.785,2.067-2.825,5.91-3.811,9.44-3.928" transform="translate(-28.884 -29.085)" fill="#b0b0b0"/>
                </g>
              </g>
            </g>
            <path id="Trazado_1053530" data-name="Trazado 1053530" d="M50.042,30.218c-9.792,0-22.167-2.832-28.867-21.648C29.163,7.8,36.123,2.386,40.25,2.386c0,0,4.38,6.184,9.792,6.184S51.48,1.635,62.926,5.994c5.408,2.064,2.06-5.412,7.732-3.608A35.735,35.735,0,0,1,81.222,8.314s-5.408,21.9-31.18,21.9" transform="translate(54.169 5.377)" fill="#5ea370"/>
            <path id="Trazado_1053531" data-name="Trazado 1053531" d="M65.378,111.422c75.76,0,57.468-103.083,0-103.083s-75.767,103.083,0,103.083" transform="translate(38.833 21.331)" fill="#4f855d"/>
            <path id="Trazado_1053532" data-name="Trazado 1053532" d="M62.416,103.175c-33.973,0-46.078-21.8-46.078-42.193,0-25.316,17.616-52.643,46.078-52.643s46.067,27.327,46.067,52.643c0,11.585-3.807,21.989-10.721,29.291-8,8.44-20.221,12.9-35.347,12.9" transform="translate(41.795 21.331)" fill="#78d28f"/>
            <path id="Trazado_1053533" data-name="Trazado 1053533" d="M112.042,63.05c0,12.126-4.021,23.028-11.3,30.721C92.351,102.617,79.609,107.3,63.9,107.3c-35.486,0-48.142-22.843-48.142-44.246,0-26.3,18.41-54.714,48.142-54.714s48.142,28.412,48.142,54.714" transform="translate(40.311 21.324)" fill="#5ea370"/>
            <path id="Trazado_1053534" data-name="Trazado 1053534" d="M77.43,63.05c0,12.126-4.021,23.028-11.3,30.721C57.739,102.617,45,107.3,29.288,107.3V8.336c29.728,0,48.142,28.412,48.142,54.714" transform="translate(74.923 21.324)" fill="#75c78a"/>
            <path id="Trazado_1053535" data-name="Trazado 1053535" d="M36.49,58.224V53.274a31.769,31.769,0,0,1-6.266-.907q-2.4-.656-3.96-1.238V42.966h9.073a2.836,2.836,0,0,0,.495,1.836,2.652,2.652,0,0,0,2.06.6,3.449,3.449,0,0,0,1.939-.413,1.42,1.42,0,0,0,.576-1.238,1.324,1.324,0,0,0-.477-1.007,6.983,6.983,0,0,0-1.914-1.014q-3.053-1.153-5.341-2.2a16.362,16.362,0,0,1-3.793-2.334,8.127,8.127,0,0,1-2.245-2.985,10.34,10.34,0,0,1-.744-4.145,11.654,11.654,0,0,1,.555-3.69,7.545,7.545,0,0,1,1.8-2.928,9.285,9.285,0,0,1,3.256-2.06A18.4,18.4,0,0,1,36.49,20.29V15.547h5.4V20.2a31.23,31.23,0,0,1,3.423.391q1.484.267,2.722.619c.825.235,1.58.48,2.27.744a10.243,10.243,0,0,1,1.69.8v7.383H43.336a1.816,1.816,0,0,0-.658-1.63,2.881,2.881,0,0,0-1.608-.434,4.059,4.059,0,0,0-1.961.352,1.292,1.292,0,0,0-.6,1.217,1.082,1.082,0,0,0,.637,1.028,13.022,13.022,0,0,0,1.921.744q2.386.785,4.512,1.651a15.078,15.078,0,0,1,3.733,2.142A9.373,9.373,0,0,1,51.851,38.3a9.763,9.763,0,0,1,.929,4.455,9.666,9.666,0,0,1-2.765,7.362q-2.765,2.615-8.123,3.11v4.992Z" transform="translate(66.241 39.771)" fill="#fff"/>
            <path id="Trazado_1053536" data-name="Trazado 1053536" d="M60.468,8.315A35.648,35.648,0,0,0,49.9,2.387c-5.672-1.8-2.32,5.668-7.728,3.608C30.725,1.633,34.7,8.571,29.288,8.571V30.219c25.772,0,31.18-21.9,31.18-21.9" transform="translate(74.923 5.379)" fill="#75c78a"/>
            <path id="Trazado_1053537" data-name="Trazado 1053537" d="M140.745,27.658c-.374,5.48-1.317,10.468-1.875,14.905-.726,4.569-1.43,12.247-2.395,13.706-1.551,2.323-9.867,10.817-14.67,16.1-2.156,2.405-3.6,6.255-6.01,8.419-3.128,3.124-7.938,2.64-12.016,3.362-8.9,1.687-17.673,4.686-26.811,4.686a108.115,108.115,0,0,1-26.1-3.483c-14.578-4.1-27-10.1-41.976-12.546V32.049c13.1-.655,52.9.174,60.5.174,5.867,0,15.884,1.114,22.537,1.4,8.881,20.089-22.377,13.457-37,17.734,4.384,7.508,13.909,8.753,22.4,8.753h30.6c2.473-2.021,5.729-3.886,7.867-5.526,2.331-1.978,4.939-3.818,7.6-5.931.712-4.779,3.562-10.667,5.376-14.51.217-.5.441-.975.669-1.4,2.612-4.907,6.02-5.085,11.3-5.085" transform="translate(22.76 70.752)" fill="#fdc5a7"/>
            <g id="Grupo_1180638" data-name="Grupo 1180638" transform="translate(100.47 103.364)" opacity="0.69">
              <g id="Grupo_1180637" data-name="Grupo 1180637">
                <g id="Grupo_1180636" data-name="Grupo 1180636" clip-path="url(#clip-path-7)">
                  <path id="Trazado_1053538" data-name="Trazado 1053538" d="M43.263,35.248,36.439,36.6c-1.69,0-4.127.541-5.295-.626-.726-.744-1.046-2.434-1.366-3.277a34.411,34.411,0,0,1-1.541-3.651c4.633.352,9.618.793,13.475.964.648.5,1.655,3.423,1.551,5.234" transform="translate(-28.235 -29.051)" fill="#edd5d8"/>
                </g>
              </g>
            </g>
            <rect id="Rectángulo_407794" data-name="Rectángulo 407794" width="29.027" height="52.892" transform="translate(21.189 98.298)" fill="#fff"/>
            <path id="Trazado_1053539" data-name="Trazado 1053539" d="M2.1,88.368H39.4V26.343H2.1V88.368Z" transform="translate(5.38 67.388)" fill="#153152"/>
            <g id="Grupo_1180641" data-name="Grupo 1180641" transform="translate(7.482 124.651)" opacity="0.44" style="mix-blend-mode: multiply;isolation: isolate">
              <g id="Grupo_1180640" data-name="Grupo 1180640">
                <g id="Grupo_1180639" data-name="Grupo 1180639" clip-path="url(#clip-path-8)">
                  <rect id="Rectángulo_407795" data-name="Rectángulo 407795" width="37.3" height="30.999" transform="translate(0 0.002)" fill="#a8a8a8"/>
                </g>
              </g>
            </g>
            <path id="Trazado_1053540" data-name="Trazado 1053540" d="M17.886,44.5a6.132,6.132,0,1,1-6.134-6.131A6.131,6.131,0,0,1,17.886,44.5" transform="translate(14.379 98.166)" fill="#dbe7e6"/>
          </g>
        </g>
      </g>
    </g>
  </g>
</svg>
