<svg xmlns="http://www.w3.org/2000/svg" xmlns:xlink="http://www.w3.org/1999/xlink" width="123" height="123" viewBox="0 0 123 123">
  <defs>
    <filter id="Trazado_1053279" x="0" y="0" width="123" height="123" filterUnits="userSpaceOnUse">
      <feOffset dy="1" input="SourceAlpha"/>
      <feGaussianBlur stdDeviation="3" result="blur"/>
      <feFlood flood-opacity="0.161"/>
      <feComposite operator="in" in2="blur"/>
    </filter>
    <filter id="Trazado_1053279-2" x="0" y="0" width="123" height="123" filterUnits="userSpaceOnUse">
      <feOffset dy="3" input="SourceAlpha"/>
      <feGaussianBlur stdDeviation="3" result="blur-2"/>
      <feFlood flood-opacity="0.161" result="color"/>
      <feComposite operator="out" in="SourceGraphic" in2="blur-2"/>
      <feComposite operator="in" in="color"/>
      <feComposite operator="in" in2="SourceGraphic"/>
    </filter>
    <clipPath id="clip-path">
      <rect id="Rectángulo_407802" data-name="Rectángulo 407802" width="72.976" height="75.444" fill="none"/>
    </clipPath>
    <clipPath id="clip-path-2">
      <rect id="Rectángulo_407801" data-name="Rectángulo 407801" width="72.975" height="75.444" fill="none"/>
    </clipPath>
    <clipPath id="clip-path-3">
      <rect id="Rectángulo_407799" data-name="Rectángulo 407799" width="72.132" height="74.601" fill="none"/>
    </clipPath>
    <clipPath id="clip-path-4">
      <rect id="Rectángulo_407800" data-name="Rectángulo 407800" width="15.527" height="8.822" fill="none"/>
    </clipPath>
  </defs>
  <g id="Grupo_1180578" data-name="Grupo 1180578" transform="translate(-248.051 -34963)">
    <g data-type="innerShadowGroup">
      <g transform="matrix(1, 0, 0, 1, 248.05, 34963)" filter="url(#Trazado_1053279)">
        <g id="Trazado_1053279-3" data-name="Trazado 1053279" transform="translate(9 8)" fill="#e2dacc">
          <path d="M 52.5 103.5 C 45.61438751220703 103.5 38.93552780151367 102.1517715454102 32.64895629882812 99.49278259277344 C 26.57609939575195 96.92418670654297 21.12178611755371 93.24668884277344 16.43755722045898 88.56244659423828 C 11.75331401824951 83.87821197509766 8.075828552246094 78.42391204833984 5.507214069366455 72.35104370117188 C 2.848228454589844 66.06446838378906 1.5 59.38561248779297 1.5 52.5 C 1.5 45.61438751220703 2.848228454589844 38.93552780151367 5.507214069366455 32.64895629882812 C 8.075828552246094 26.57609939575195 11.75331401824951 21.12178611755371 16.43755722045898 16.43755722045898 C 21.12178611755371 11.75331401824951 26.57609939575195 8.075828552246094 32.64895629882812 5.507214069366455 C 38.93552780151367 2.848228454589844 45.61438751220703 1.5 52.5 1.5 C 59.38561248779297 1.5 66.06446838378906 2.848228454589844 72.35104370117188 5.507214069366455 C 78.42391204833984 8.075828552246094 83.87821197509766 11.75331401824951 88.56244659423828 16.43755722045898 C 93.24668884277344 21.12178611755371 96.92418670654297 26.57609939575195 99.49278259277344 32.64895629882812 C 102.1517715454102 38.93552780151367 103.5 45.61438751220703 103.5 52.5 C 103.5 59.38561248779297 102.1517715454102 66.06446838378906 99.49278259277344 72.35104370117188 C 96.92418670654297 78.42391204833984 93.24668884277344 83.87821197509766 88.56244659423828 88.56244659423828 C 83.87821197509766 93.24668884277344 78.42391204833984 96.92418670654297 72.35104370117188 99.49278259277344 C 66.06446838378906 102.1517715454102 59.38561248779297 103.5 52.5 103.5 Z" stroke="none"/>
          <path d="M 52.5 3 C 45.81621551513672 3 39.33396911621094 4.308349609375 33.23328399658203 6.888717651367188 C 27.33921813964844 9.381698608398438 22.04518127441406 12.95124816894531 17.49821472167969 17.49821472167969 C 12.95124816894531 22.04518127441406 9.381698608398438 27.33921813964844 6.888717651367188 33.23328399658203 C 4.308349609375 39.33396911621094 3 45.81621551513672 3 52.5 C 3 59.18378448486328 4.308349609375 65.66603088378906 6.888717651367188 71.76671600341797 C 9.381698608398438 77.66078186035156 12.95124816894531 82.95481872558594 17.49821472167969 87.50178527832031 C 22.04518127441406 92.04875183105469 27.33921813964844 95.61830139160156 33.23328399658203 98.11128234863281 C 39.33396911621094 100.691650390625 45.81621551513672 102 52.5 102 C 59.18378448486328 102 65.66603088378906 100.691650390625 71.76671600341797 98.11128234863281 C 77.66078186035156 95.61830139160156 82.95481872558594 92.04875183105469 87.50178527832031 87.50178527832031 C 92.04875183105469 82.95481872558594 95.61830139160156 77.66078186035156 98.11128234863281 71.76671600341797 C 100.691650390625 65.66603088378906 102 59.18378448486328 102 52.5 C 102 45.81621551513672 100.691650390625 39.33396911621094 98.11128234863281 33.23328399658203 C 95.61830139160156 27.33921813964844 92.04875183105469 22.04518127441406 87.50178527832031 17.49821472167969 C 82.95481872558594 12.95124816894531 77.66078186035156 9.381698608398438 71.76671600341797 6.888717651367188 C 65.66603088378906 4.308349609375 59.18378448486328 3 52.5 3 M 52.5 0 C 81.49494934082031 0 105 23.50505065917969 105 52.5 C 105 81.49494934082031 81.49494934082031 105 52.5 105 C 23.50505065917969 105 0 81.49494934082031 0 52.5 C 0 23.50505065917969 23.50505065917969 0 52.5 0 Z" stroke="none" fill="#fff"/>
        </g>
      </g>
      <g id="Trazado_1053279-4" data-name="Trazado 1053279" transform="translate(257.051 34971)" fill="#e2dacc">
        <path d="M 52.5 103.5 C 45.61438751220703 103.5 38.93552780151367 102.1517715454102 32.64895629882812 99.49278259277344 C 26.57609939575195 96.92418670654297 21.12178611755371 93.24668884277344 16.43755722045898 88.56244659423828 C 11.75331401824951 83.87821197509766 8.075828552246094 78.42391204833984 5.507214069366455 72.35104370117188 C 2.848228454589844 66.06446838378906 1.5 59.38561248779297 1.5 52.5 C 1.5 45.61438751220703 2.848228454589844 38.93552780151367 5.507214069366455 32.64895629882812 C 8.075828552246094 26.57609939575195 11.75331401824951 21.12178611755371 16.43755722045898 16.43755722045898 C 21.12178611755371 11.75331401824951 26.57609939575195 8.075828552246094 32.64895629882812 5.507214069366455 C 38.93552780151367 2.848228454589844 45.61438751220703 1.5 52.5 1.5 C 59.38561248779297 1.5 66.06446838378906 2.848228454589844 72.35104370117188 5.507214069366455 C 78.42391204833984 8.075828552246094 83.87821197509766 11.75331401824951 88.56244659423828 16.43755722045898 C 93.24668884277344 21.12178611755371 96.92418670654297 26.57609939575195 99.49278259277344 32.64895629882812 C 102.1517715454102 38.93552780151367 103.5 45.61438751220703 103.5 52.5 C 103.5 59.38561248779297 102.1517715454102 66.06446838378906 99.49278259277344 72.35104370117188 C 96.92418670654297 78.42391204833984 93.24668884277344 83.87821197509766 88.56244659423828 88.56244659423828 C 83.87821197509766 93.24668884277344 78.42391204833984 96.92418670654297 72.35104370117188 99.49278259277344 C 66.06446838378906 102.1517715454102 59.38561248779297 103.5 52.5 103.5 Z" stroke="none"/>
        <path d="M 52.5 3 C 45.81621551513672 3 39.33396911621094 4.308349609375 33.23328399658203 6.888717651367188 C 27.33921813964844 9.381698608398438 22.04518127441406 12.95124816894531 17.49821472167969 17.49821472167969 C 12.95124816894531 22.04518127441406 9.381698608398438 27.33921813964844 6.888717651367188 33.23328399658203 C 4.308349609375 39.33396911621094 3 45.81621551513672 3 52.5 C 3 59.18378448486328 4.308349609375 65.66603088378906 6.888717651367188 71.76671600341797 C 9.381698608398438 77.66078186035156 12.95124816894531 82.95481872558594 17.49821472167969 87.50178527832031 C 22.04518127441406 92.04875183105469 27.33921813964844 95.61830139160156 33.23328399658203 98.11128234863281 C 39.33396911621094 100.691650390625 45.81621551513672 102 52.5 102 C 59.18378448486328 102 65.66603088378906 100.691650390625 71.76671600341797 98.11128234863281 C 77.66078186035156 95.61830139160156 82.95481872558594 92.04875183105469 87.50178527832031 87.50178527832031 C 92.04875183105469 82.95481872558594 95.61830139160156 77.66078186035156 98.11128234863281 71.76671600341797 C 100.691650390625 65.66603088378906 102 59.18378448486328 102 52.5 C 102 45.81621551513672 100.691650390625 39.33396911621094 98.11128234863281 33.23328399658203 C 95.61830139160156 27.33921813964844 92.04875183105469 22.04518127441406 87.50178527832031 17.49821472167969 C 82.95481872558594 12.95124816894531 77.66078186035156 9.381698608398438 71.76671600341797 6.888717651367188 C 65.66603088378906 4.308349609375 59.18378448486328 3 52.5 3 M 52.5 0 C 81.49494934082031 0 105 23.50505065917969 105 52.5 C 105 81.49494934082031 81.49494934082031 105 52.5 105 C 23.50505065917969 105 0 81.49494934082031 0 52.5 C 0 23.50505065917969 23.50505065917969 0 52.5 0 Z" stroke="none"/>
      </g>
      <g transform="matrix(1, 0, 0, 1, 248.05, 34963)" filter="url(#Trazado_1053279-2)">
        <g id="Trazado_1053279-5" data-name="Trazado 1053279" transform="translate(9 8)" fill="#fff">
          <path d="M 52.5 103.5 C 45.61438751220703 103.5 38.93552780151367 102.1517715454102 32.64895629882812 99.49278259277344 C 26.57609939575195 96.92418670654297 21.12178611755371 93.24668884277344 16.43755722045898 88.56244659423828 C 11.75331401824951 83.87821197509766 8.075828552246094 78.42391204833984 5.507214069366455 72.35104370117188 C 2.848228454589844 66.06446838378906 1.5 59.38561248779297 1.5 52.5 C 1.5 45.61438751220703 2.848228454589844 38.93552780151367 5.507214069366455 32.64895629882812 C 8.075828552246094 26.57609939575195 11.75331401824951 21.12178611755371 16.43755722045898 16.43755722045898 C 21.12178611755371 11.75331401824951 26.57609939575195 8.075828552246094 32.64895629882812 5.507214069366455 C 38.93552780151367 2.848228454589844 45.61438751220703 1.5 52.5 1.5 C 59.38561248779297 1.5 66.06446838378906 2.848228454589844 72.35104370117188 5.507214069366455 C 78.42391204833984 8.075828552246094 83.87821197509766 11.75331401824951 88.56244659423828 16.43755722045898 C 93.24668884277344 21.12178611755371 96.92418670654297 26.57609939575195 99.49278259277344 32.64895629882812 C 102.1517715454102 38.93552780151367 103.5 45.61438751220703 103.5 52.5 C 103.5 59.38561248779297 102.1517715454102 66.06446838378906 99.49278259277344 72.35104370117188 C 96.92418670654297 78.42391204833984 93.24668884277344 83.87821197509766 88.56244659423828 88.56244659423828 C 83.87821197509766 93.24668884277344 78.42391204833984 96.92418670654297 72.35104370117188 99.49278259277344 C 66.06446838378906 102.1517715454102 59.38561248779297 103.5 52.5 103.5 Z" stroke="none"/>
          <path d="M 52.5 3 C 45.81621551513672 3 39.33396911621094 4.308349609375 33.23328399658203 6.888717651367188 C 27.33921813964844 9.381698608398438 22.04518127441406 12.95124816894531 17.49821472167969 17.49821472167969 C 12.95124816894531 22.04518127441406 9.381698608398438 27.33921813964844 6.888717651367188 33.23328399658203 C 4.308349609375 39.33396911621094 3 45.81621551513672 3 52.5 C 3 59.18378448486328 4.308349609375 65.66603088378906 6.888717651367188 71.76671600341797 C 9.381698608398438 77.66078186035156 12.95124816894531 82.95481872558594 17.49821472167969 87.50178527832031 C 22.04518127441406 92.04875183105469 27.33921813964844 95.61830139160156 33.23328399658203 98.11128234863281 C 39.33396911621094 100.691650390625 45.81621551513672 102 52.5 102 C 59.18378448486328 102 65.66603088378906 100.691650390625 71.76671600341797 98.11128234863281 C 77.66078186035156 95.61830139160156 82.95481872558594 92.04875183105469 87.50178527832031 87.50178527832031 C 92.04875183105469 82.95481872558594 95.61830139160156 77.66078186035156 98.11128234863281 71.76671600341797 C 100.691650390625 65.66603088378906 102 59.18378448486328 102 52.5 C 102 45.81621551513672 100.691650390625 39.33396911621094 98.11128234863281 33.23328399658203 C 95.61830139160156 27.33921813964844 92.04875183105469 22.04518127441406 87.50178527832031 17.49821472167969 C 82.95481872558594 12.95124816894531 77.66078186035156 9.381698608398438 71.76671600341797 6.888717651367188 C 65.66603088378906 4.308349609375 59.18378448486328 3 52.5 3 M 52.5 0 C 81.49494934082031 0 105 23.50505065917969 105 52.5 C 105 81.49494934082031 81.49494934082031 105 52.5 105 C 23.50505065917969 105 0 81.49494934082031 0 52.5 C 0 23.50505065917969 23.50505065917969 0 52.5 0 Z" stroke="none"/>
        </g>
      </g>
      <g id="Trazado_1053279-6" data-name="Trazado 1053279" transform="translate(257.051 34971)" fill="none">
        <path d="M 52.5 103.5 C 45.61438751220703 103.5 38.93552780151367 102.1517715454102 32.64895629882812 99.49278259277344 C 26.57609939575195 96.92418670654297 21.12178611755371 93.24668884277344 16.43755722045898 88.56244659423828 C 11.75331401824951 83.87821197509766 8.075828552246094 78.42391204833984 5.507214069366455 72.35104370117188 C 2.848228454589844 66.06446838378906 1.5 59.38561248779297 1.5 52.5 C 1.5 45.61438751220703 2.848228454589844 38.93552780151367 5.507214069366455 32.64895629882812 C 8.075828552246094 26.57609939575195 11.75331401824951 21.12178611755371 16.43755722045898 16.43755722045898 C 21.12178611755371 11.75331401824951 26.57609939575195 8.075828552246094 32.64895629882812 5.507214069366455 C 38.93552780151367 2.848228454589844 45.61438751220703 1.5 52.5 1.5 C 59.38561248779297 1.5 66.06446838378906 2.848228454589844 72.35104370117188 5.507214069366455 C 78.42391204833984 8.075828552246094 83.87821197509766 11.75331401824951 88.56244659423828 16.43755722045898 C 93.24668884277344 21.12178611755371 96.92418670654297 26.57609939575195 99.49278259277344 32.64895629882812 C 102.1517715454102 38.93552780151367 103.5 45.61438751220703 103.5 52.5 C 103.5 59.38561248779297 102.1517715454102 66.06446838378906 99.49278259277344 72.35104370117188 C 96.92418670654297 78.42391204833984 93.24668884277344 83.87821197509766 88.56244659423828 88.56244659423828 C 83.87821197509766 93.24668884277344 78.42391204833984 96.92418670654297 72.35104370117188 99.49278259277344 C 66.06446838378906 102.1517715454102 59.38561248779297 103.5 52.5 103.5 Z" stroke="none"/>
        <path d="M 52.5 3 C 45.81621551513672 3 39.33396911621094 4.308349609375 33.23328399658203 6.888717651367188 C 27.33921813964844 9.381698608398438 22.04518127441406 12.95124816894531 17.49821472167969 17.49821472167969 C 12.95124816894531 22.04518127441406 9.381698608398438 27.33921813964844 6.888717651367188 33.23328399658203 C 4.308349609375 39.33396911621094 3 45.81621551513672 3 52.5 C 3 59.18378448486328 4.308349609375 65.66603088378906 6.888717651367188 71.76671600341797 C 9.381698608398438 77.66078186035156 12.95124816894531 82.95481872558594 17.49821472167969 87.50178527832031 C 22.04518127441406 92.04875183105469 27.33921813964844 95.61830139160156 33.23328399658203 98.11128234863281 C 39.33396911621094 100.691650390625 45.81621551513672 102 52.5 102 C 59.18378448486328 102 65.66603088378906 100.691650390625 71.76671600341797 98.11128234863281 C 77.66078186035156 95.61830139160156 82.95481872558594 92.04875183105469 87.50178527832031 87.50178527832031 C 92.04875183105469 82.95481872558594 95.61830139160156 77.66078186035156 98.11128234863281 71.76671600341797 C 100.691650390625 65.66603088378906 102 59.18378448486328 102 52.5 C 102 45.81621551513672 100.691650390625 39.33396911621094 98.11128234863281 33.23328399658203 C 95.61830139160156 27.33921813964844 92.04875183105469 22.04518127441406 87.50178527832031 17.49821472167969 C 82.95481872558594 12.95124816894531 77.66078186035156 9.381698608398438 71.76671600341797 6.888717651367188 C 65.66603088378906 4.308349609375 59.18378448486328 3 52.5 3 M 52.5 0 C 81.49494934082031 0 105 23.50505065917969 105 52.5 C 105 81.49494934082031 81.49494934082031 105 52.5 105 C 23.50505065917969 105 0 81.49494934082031 0 52.5 C 0 23.50505065917969 23.50505065917969 0 52.5 0 Z" stroke="none" fill="#fff"/>
      </g>
    </g>
    <g id="Grupo_1180656" data-name="Grupo 1180656" transform="translate(273.063 34985.777)">
      <g id="Grupo_1180655" data-name="Grupo 1180655" clip-path="url(#clip-path)">
        <g id="Grupo_1180654" data-name="Grupo 1180654" transform="translate(0 0)">
          <g id="Grupo_1180653" data-name="Grupo 1180653" clip-path="url(#clip-path-2)">
            <g id="Grupo_1180649" data-name="Grupo 1180649" transform="translate(0.843 0.843)" opacity="0.7" style="mix-blend-mode: multiply;isolation: isolate">
              <g id="Grupo_1180648" data-name="Grupo 1180648">
                <g id="Grupo_1180647" data-name="Grupo 1180647" clip-path="url(#clip-path-3)">
                  <path id="Trazado_1053541" data-name="Trazado 1053541" d="M53.556,15.223a11.06,11.06,0,0,0-1.7-8.7c-.145-.213-.3-.424-.466-.627l0,0,0,0,0-.008-.009-.009c-.143-.178-.3-.339-.455-.507-.151-.219-.3-.441-.469-.654a11.384,11.384,0,0,0-.9-.988c-.05-.049-.107-.091-.158-.14-.273-.258-.553-.5-.848-.733l-.033-.03c-.038-.027-.079-.049-.117-.076A11.09,11.09,0,0,0,37.138,1.538c-.016.006-.033.009-.049.016-.072.035-.14.079-.213.115-.269.131-.532.271-.791.424-.11.065-.219.131-.328.2a11.193,11.193,0,0,0-.933.658l-.024.016,0,0-.008.006A11.066,11.066,0,0,0,32.361,5.7c-.06.082-.12.162-.172.25-.074.123-.139.25-.208.376l-.038.068a11.321,11.321,0,0,0-.816,1.942l-.008.027a11.179,11.179,0,0,0-.509,3.4c0,.077.017.151.024.228a11.075,11.075,0,0,0,.509,3.043,36.67,36.67,0,0,0-7.054,3.445,14.434,14.434,0,0,0-8.294-2.639,12.5,12.5,0,0,0-8.028,2.75,3.375,3.375,0,0,0-.413,4.82l6.019,6.949c-.008.014-.016.032-.025.046-1.63,3.037-3.056,5.693-5.926,7.662H3.909A3.374,3.374,0,0,0,.535,41.444V51.669a3.374,3.374,0,0,0,3.374,3.373H7.866a28.534,28.534,0,0,0,8.488,8.232,37.356,37.356,0,0,1,1.922,8.488,3.374,3.374,0,0,0,3.374,3.374h6.663a3.373,3.373,0,0,0,3.343-2.924,13.293,13.293,0,0,1,.86-3.088,60.829,60.829,0,0,0,9.291.681,33.369,33.369,0,0,0,7.355-.821,14.639,14.639,0,0,1,.347,2.777,3.373,3.373,0,0,0,3.373,3.374h6.663a3.374,3.374,0,0,0,3.368-3.587A35.208,35.208,0,0,1,64.024,61.1a27.116,27.116,0,0,0,8.644-19.655c0-11.816-7.906-21.964-19.111-26.221" transform="translate(-0.536 -0.536)" fill="gray"/>
                </g>
              </g>
            </g>
            <path id="Trazado_1053542" data-name="Trazado 1053542" d="M53.021,14.688a11.06,11.06,0,0,0-1.7-8.7c-.145-.213-.3-.422-.466-.625l0,0,0,0,0-.008-.009-.009c-.143-.178-.3-.339-.455-.506-.151-.221-.3-.443-.469-.654a10.942,10.942,0,0,0-.9-.988c-.05-.05-.107-.093-.158-.142-.273-.258-.553-.5-.848-.733-.011-.008-.022-.02-.033-.028-.038-.028-.079-.05-.117-.077A11.09,11.09,0,0,0,36.6,1c-.016.006-.033.009-.049.016-.072.035-.14.079-.213.115-.269.131-.532.271-.791.424-.11.065-.219.131-.328.2a11.194,11.194,0,0,0-.933.658l-.024.016,0,0-.008.006a11.067,11.067,0,0,0-2.431,2.724c-.06.082-.12.162-.172.25-.074.123-.139.25-.208.376l-.038.068A11.321,11.321,0,0,0,30.592,7.8l-.008.028a11.162,11.162,0,0,0-.509,3.4c0,.077.017.151.024.228a11.075,11.075,0,0,0,.509,3.043,36.583,36.583,0,0,0-7.054,3.447,14.436,14.436,0,0,0-8.294-2.64,12.5,12.5,0,0,0-8.028,2.75,3.375,3.375,0,0,0-.413,4.82l6.019,6.949c-.008.016-.016.032-.025.047-1.63,3.036-3.056,5.692-5.926,7.661H3.374A3.374,3.374,0,0,0,0,40.909V51.134a3.374,3.374,0,0,0,3.374,3.374H7.331a28.552,28.552,0,0,0,8.488,8.231,37.356,37.356,0,0,1,1.922,8.488A3.374,3.374,0,0,0,21.115,74.6h6.663a3.373,3.373,0,0,0,3.343-2.924,13.293,13.293,0,0,1,.86-3.088,60.829,60.829,0,0,0,9.291.681,33.37,33.37,0,0,0,7.355-.821,14.623,14.623,0,0,1,.345,2.777A3.374,3.374,0,0,0,52.347,74.6H59.01a3.374,3.374,0,0,0,3.368-3.587,35.208,35.208,0,0,1,1.111-10.45,27.116,27.116,0,0,0,8.644-19.655c0-11.816-7.906-21.964-19.111-26.221" transform="translate(0 0)" fill="#fff"/>
            <path id="Trazado_1053543" data-name="Trazado 1053543" d="M40.04,10.107c-8.952,0-17.741,5-21.92,9.912-4,4.705-4.9,11.163-11.482,15.076h-4.5V45.319H8.056S14.469,60.083,40.04,60.083c15.179,0,27.487-11.188,27.487-24.989S55.22,10.107,40.04,10.107" transform="translate(1.232 5.814)" fill="#ff7e5c"/>
            <path id="Trazado_1053544" data-name="Trazado 1053544" d="M40.04,58.083C15.5,58.083,9.034,44.06,8.971,43.92l-.263-.6-6.566,0V35.093H6.914l.238-.14c4.417-2.628,6.383-6.285,8.283-9.824a30.189,30.189,0,0,1,3.447-5.463c4.041-4.751,12.6-9.56,21.159-9.56,14.6,0,26.487,10.762,26.487,23.989S54.645,58.083,40.04,58.083" transform="translate(1.232 5.813)" fill="#ff7e5c"/>
            <path id="Trazado_1053545" data-name="Trazado 1053545" d="M45.182,16.949a1.312,1.312,0,0,1-.208.239,1.023,1.023,0,0,1-1.172.1,23.264,23.264,0,0,0-12.043-3.278,24.422,24.422,0,0,0-11.983,3.5.92.92,0,0,1-.5.14.976.976,0,0,1-.649-.25.787.787,0,0,1-.221-.249,1.019,1.019,0,0,1,.359-1.371A26.545,26.545,0,0,1,31.759,12.01a25.327,25.327,0,0,1,13.073,3.559,1.007,1.007,0,0,1,.35,1.38" transform="translate(10.513 6.909)" fill="#e85f3b"/>
            <path id="Trazado_1053546" data-name="Trazado 1053546" d="M5.948,13.847c5.5-4.5,15.66-.917,15.576,6.246l-4.247,6.83Z" transform="translate(3.422 6.821)" fill="#ff7e5c"/>
            <path id="Trazado_1053547" data-name="Trazado 1053547" d="M10.892,36.376c1.531,2.25,3.957,10.759,3.957,13.924h6.663s.887-6.6,4.6-8.015-15.225-5.909-15.225-5.909" transform="translate(6.266 20.926)" fill="#ff8d6e"/>
            <path id="Trazado_1053548" data-name="Trazado 1053548" d="M31.2,40.675c1.531,2.25,3.195,8,3.195,11.161H41.06s-.692-10.921,3.861-17.449C47.2,31.122,31.2,40.675,31.2,40.675" transform="translate(17.95 19.391)" fill="#ff8d6e"/>
            <path id="Trazado_1053549" data-name="Trazado 1053549" d="M12.488,26.321a1.668,1.668,0,0,1-1.525,1.78,1.8,1.8,0,0,1,0-3.56,1.668,1.668,0,0,1,1.525,1.78" transform="translate(5.43 14.118)" fill="#87412e"/>
            <path id="Trazado_1053550" data-name="Trazado 1053550" d="M44.846,16.64a1.024,1.024,0,0,1-1.17.1,23.272,23.272,0,0,0-12.043-3.278,24.423,24.423,0,0,0-11.985,3.5.933.933,0,0,1-.5.14.979.979,0,0,1-.649-.25.426.426,0,0,1,.14-.12,26.519,26.519,0,0,1,12.995-3.768,25.335,25.335,0,0,1,13.073,3.559.41.41,0,0,1,.14.12" transform="translate(10.642 7.456)" fill="#87412e"/>
            <path id="Trazado_1053551" data-name="Trazado 1053551" d="M24.744,4.59A7.762,7.762,0,0,0,23.531,15.5L35.658,5.8A7.766,7.766,0,0,0,24.744,4.59" transform="translate(12.559 1.662)" fill="#f59905"/>
            <path id="Trazado_1053552" data-name="Trazado 1053552" d="M33.824,15.649a7.825,7.825,0,0,1-2.042,1.18,7.759,7.759,0,0,1-8.872-2.393l12.127-9.7c.11.135.216.277.313.419a7.763,7.763,0,0,1-1.526,10.491" transform="translate(13.18 2.726)" fill="#f59905"/>
            <path id="Trazado_1053553" data-name="Trazado 1053553" d="M35.059,5.055a7.765,7.765,0,1,0-1.213,10.914A7.765,7.765,0,0,0,35.059,5.055" transform="translate(12.215 1.232)" fill="#ffbf00"/>
            <path id="Trazado_1053554" data-name="Trazado 1053554" d="M24.486,4.388a6.451,6.451,0,0,0-1.007,9.072L33.563,5.393a6.457,6.457,0,0,0-9.077-1.005" transform="translate(12.692 1.709)" fill="#f59905"/>
            <path id="Trazado_1053555" data-name="Trazado 1053555" d="M33.045,4.509,22.962,12.576A6.457,6.457,0,1,0,33.045,4.509" transform="translate(13.21 2.593)" fill="#f59207"/>
            <path id="Trazado_1053556" data-name="Trazado 1053556" d="M23.884,12.492a5.479,5.479,0,1,1,7.7.857,5.483,5.483,0,0,1-7.7-.857M32.252,5.8a5.235,5.235,0,1,0-.819,7.36,5.24,5.24,0,0,0,.819-7.36" transform="translate(13.05 2.067)" fill="#ffbf00"/>
            <path id="Trazado_1053557" data-name="Trazado 1053557" d="M27.462,5.384a1.713,1.713,0,0,1,2.643.347l.649-.514.569.72-.652.521a6.5,6.5,0,0,1,.81,1.487l-.964.762c-.321-.487-.929-1.323-1.224-1.7-.342-.443-.548-.627-.963-.3l-.187.15c-.328.257-.35.5-.033.895l.482.606a1.711,1.711,0,0,1-.452,2.561l-.315.252a1.749,1.749,0,0,1-2.779-.266l-.618.488-.569-.718.629-.5a5.018,5.018,0,0,1-.822-1.509l.959-.758c.217.318.755,1.1,1.311,1.8.254.323.529.518.857.258l.221-.173c.269-.216.367-.427.072-.8l-.465-.586a1.744,1.744,0,0,1,.372-2.661Z" transform="translate(13.615 2.822)" fill="#ffbf00"/>
            <g id="Grupo_1180652" data-name="Grupo 1180652" transform="translate(33.449 4.083)" opacity="0.3" style="mix-blend-mode: screen;isolation: isolate">
              <g id="Grupo_1180651" data-name="Grupo 1180651">
                <g id="Grupo_1180650" data-name="Grupo 1180650" clip-path="url(#clip-path-4)">
                  <path id="Trazado_1053558" data-name="Trazado 1053558" d="M32.644,3.479l-7.962-.887a7.744,7.744,0,0,0-1.591.981l10.89,1.211a7.7,7.7,0,0,0-1.337-1.306" transform="translate(-20.165 -2.592)" fill="#ffbf00"/>
                  <path id="Trazado_1053559" data-name="Trazado 1053559" d="M36.373,6.094,22.337,4.533a7.793,7.793,0,0,0-1.1,4.061l15.323,1.7a7.8,7.8,0,0,0-.184-4.2" transform="translate(-21.233 -1.476)" fill="#ffbf00"/>
                </g>
              </g>
            </g>
          </g>
        </g>
      </g>
    </g>
  </g>
</svg>
