<svg xmlns="http://www.w3.org/2000/svg" xmlns:xlink="http://www.w3.org/1999/xlink" width="123" height="123" viewBox="0 0 123 123">
  <defs>
    <filter id="Trazado_1053279" x="0" y="0" width="123" height="123" filterUnits="userSpaceOnUse">
      <feOffset dy="1" input="SourceAlpha"/>
      <feGaussianBlur stdDeviation="3" result="blur"/>
      <feFlood flood-opacity="0.161"/>
      <feComposite operator="in" in2="blur"/>
    </filter>
    <filter id="Trazado_1053279-2" x="0" y="0" width="123" height="123" filterUnits="userSpaceOnUse">
      <feOffset dy="3" input="SourceAlpha"/>
      <feGaussianBlur stdDeviation="3" result="blur-2"/>
      <feFlood flood-opacity="0.161" result="color"/>
      <feComposite operator="out" in="SourceGraphic" in2="blur-2"/>
      <feComposite operator="in" in="color"/>
      <feComposite operator="in" in2="SourceGraphic"/>
    </filter>
    <clipPath id="clip-path">
      <rect id="Rectángulo_407758" data-name="Rectángulo 407758" width="76.062" height="87.177" fill="none"/>
    </clipPath>
    <clipPath id="clip-path-2">
      <rect id="Rectángulo_407757" data-name="Rectángulo 407757" width="76.061" height="87.176" fill="none"/>
    </clipPath>
    <clipPath id="clip-path-3">
      <rect id="Rectángulo_407748" data-name="Rectángulo 407748" width="75.082" height="86.197" fill="none"/>
    </clipPath>
    <clipPath id="clip-path-4">
      <rect id="Rectángulo_407751" data-name="Rectángulo 407751" width="17.124" height="12.397" fill="none"/>
    </clipPath>
    <clipPath id="clip-path-5">
      <rect id="Rectángulo_407752" data-name="Rectángulo 407752" width="8.676" height="6.606" fill="none"/>
    </clipPath>
    <clipPath id="clip-path-6">
      <rect id="Rectángulo_407753" data-name="Rectángulo 407753" width="8.677" height="6.606" fill="none"/>
    </clipPath>
    <clipPath id="clip-path-7">
      <rect id="Rectángulo_407754" data-name="Rectángulo 407754" width="5.642" height="8.836" fill="none"/>
    </clipPath>
    <clipPath id="clip-path-8">
      <rect id="Rectángulo_407755" data-name="Rectángulo 407755" width="8.074" height="7.716" fill="none"/>
    </clipPath>
    <clipPath id="clip-path-9">
      <rect id="Rectángulo_407756" data-name="Rectángulo 407756" width="8.073" height="7.716" fill="none"/>
    </clipPath>
  </defs>
  <g id="Grupo_1180578" data-name="Grupo 1180578" transform="translate(-248.051 -34963)">
    <g data-type="innerShadowGroup">
      <g transform="matrix(1, 0, 0, 1, 248.05, 34963)" filter="url(#Trazado_1053279)">
        <g id="Trazado_1053279-3" data-name="Trazado 1053279" transform="translate(9 8)" fill="#e2dacc">
          <path d="M 52.5 103.5 C 45.61438751220703 103.5 38.93552780151367 102.1517715454102 32.64895629882812 99.49278259277344 C 26.57609939575195 96.92418670654297 21.12178611755371 93.24668884277344 16.43755722045898 88.56244659423828 C 11.75331401824951 83.87821197509766 8.075828552246094 78.42391204833984 5.507214069366455 72.35104370117188 C 2.848228454589844 66.06446838378906 1.5 59.38561248779297 1.5 52.5 C 1.5 45.61438751220703 2.848228454589844 38.93552780151367 5.507214069366455 32.64895629882812 C 8.075828552246094 26.57609939575195 11.75331401824951 21.12178611755371 16.43755722045898 16.43755722045898 C 21.12178611755371 11.75331401824951 26.57609939575195 8.075828552246094 32.64895629882812 5.507214069366455 C 38.93552780151367 2.848228454589844 45.61438751220703 1.5 52.5 1.5 C 59.38561248779297 1.5 66.06446838378906 2.848228454589844 72.35104370117188 5.507214069366455 C 78.42391204833984 8.075828552246094 83.87821197509766 11.75331401824951 88.56244659423828 16.43755722045898 C 93.24668884277344 21.12178611755371 96.92418670654297 26.57609939575195 99.49278259277344 32.64895629882812 C 102.1517715454102 38.93552780151367 103.5 45.61438751220703 103.5 52.5 C 103.5 59.38561248779297 102.1517715454102 66.06446838378906 99.49278259277344 72.35104370117188 C 96.92418670654297 78.42391204833984 93.24668884277344 83.87821197509766 88.56244659423828 88.56244659423828 C 83.87821197509766 93.24668884277344 78.42391204833984 96.92418670654297 72.35104370117188 99.49278259277344 C 66.06446838378906 102.1517715454102 59.38561248779297 103.5 52.5 103.5 Z" stroke="none"/>
          <path d="M 52.5 3 C 45.81621551513672 3 39.33396911621094 4.308349609375 33.23328399658203 6.888717651367188 C 27.33921813964844 9.381698608398438 22.04518127441406 12.95124816894531 17.49821472167969 17.49821472167969 C 12.95124816894531 22.04518127441406 9.381698608398438 27.33921813964844 6.888717651367188 33.23328399658203 C 4.308349609375 39.33396911621094 3 45.81621551513672 3 52.5 C 3 59.18378448486328 4.308349609375 65.66603088378906 6.888717651367188 71.76671600341797 C 9.381698608398438 77.66078186035156 12.95124816894531 82.95481872558594 17.49821472167969 87.50178527832031 C 22.04518127441406 92.04875183105469 27.33921813964844 95.61830139160156 33.23328399658203 98.11128234863281 C 39.33396911621094 100.691650390625 45.81621551513672 102 52.5 102 C 59.18378448486328 102 65.66603088378906 100.691650390625 71.76671600341797 98.11128234863281 C 77.66078186035156 95.61830139160156 82.95481872558594 92.04875183105469 87.50178527832031 87.50178527832031 C 92.04875183105469 82.95481872558594 95.61830139160156 77.66078186035156 98.11128234863281 71.76671600341797 C 100.691650390625 65.66603088378906 102 59.18378448486328 102 52.5 C 102 45.81621551513672 100.691650390625 39.33396911621094 98.11128234863281 33.23328399658203 C 95.61830139160156 27.33921813964844 92.04875183105469 22.04518127441406 87.50178527832031 17.49821472167969 C 82.95481872558594 12.95124816894531 77.66078186035156 9.381698608398438 71.76671600341797 6.888717651367188 C 65.66603088378906 4.308349609375 59.18378448486328 3 52.5 3 M 52.5 0 C 81.49494934082031 0 105 23.50505065917969 105 52.5 C 105 81.49494934082031 81.49494934082031 105 52.5 105 C 23.50505065917969 105 0 81.49494934082031 0 52.5 C 0 23.50505065917969 23.50505065917969 0 52.5 0 Z" stroke="none" fill="#fff"/>
        </g>
      </g>
      <g id="Trazado_1053279-4" data-name="Trazado 1053279" transform="translate(257.051 34971)" fill="#e2dacc">
        <path d="M 52.5 103.5 C 45.61438751220703 103.5 38.93552780151367 102.1517715454102 32.64895629882812 99.49278259277344 C 26.57609939575195 96.92418670654297 21.12178611755371 93.24668884277344 16.43755722045898 88.56244659423828 C 11.75331401824951 83.87821197509766 8.075828552246094 78.42391204833984 5.507214069366455 72.35104370117188 C 2.848228454589844 66.06446838378906 1.5 59.38561248779297 1.5 52.5 C 1.5 45.61438751220703 2.848228454589844 38.93552780151367 5.507214069366455 32.64895629882812 C 8.075828552246094 26.57609939575195 11.75331401824951 21.12178611755371 16.43755722045898 16.43755722045898 C 21.12178611755371 11.75331401824951 26.57609939575195 8.075828552246094 32.64895629882812 5.507214069366455 C 38.93552780151367 2.848228454589844 45.61438751220703 1.5 52.5 1.5 C 59.38561248779297 1.5 66.06446838378906 2.848228454589844 72.35104370117188 5.507214069366455 C 78.42391204833984 8.075828552246094 83.87821197509766 11.75331401824951 88.56244659423828 16.43755722045898 C 93.24668884277344 21.12178611755371 96.92418670654297 26.57609939575195 99.49278259277344 32.64895629882812 C 102.1517715454102 38.93552780151367 103.5 45.61438751220703 103.5 52.5 C 103.5 59.38561248779297 102.1517715454102 66.06446838378906 99.49278259277344 72.35104370117188 C 96.92418670654297 78.42391204833984 93.24668884277344 83.87821197509766 88.56244659423828 88.56244659423828 C 83.87821197509766 93.24668884277344 78.42391204833984 96.92418670654297 72.35104370117188 99.49278259277344 C 66.06446838378906 102.1517715454102 59.38561248779297 103.5 52.5 103.5 Z" stroke="none"/>
        <path d="M 52.5 3 C 45.81621551513672 3 39.33396911621094 4.308349609375 33.23328399658203 6.888717651367188 C 27.33921813964844 9.381698608398438 22.04518127441406 12.95124816894531 17.49821472167969 17.49821472167969 C 12.95124816894531 22.04518127441406 9.381698608398438 27.33921813964844 6.888717651367188 33.23328399658203 C 4.308349609375 39.33396911621094 3 45.81621551513672 3 52.5 C 3 59.18378448486328 4.308349609375 65.66603088378906 6.888717651367188 71.76671600341797 C 9.381698608398438 77.66078186035156 12.95124816894531 82.95481872558594 17.49821472167969 87.50178527832031 C 22.04518127441406 92.04875183105469 27.33921813964844 95.61830139160156 33.23328399658203 98.11128234863281 C 39.33396911621094 100.691650390625 45.81621551513672 102 52.5 102 C 59.18378448486328 102 65.66603088378906 100.691650390625 71.76671600341797 98.11128234863281 C 77.66078186035156 95.61830139160156 82.95481872558594 92.04875183105469 87.50178527832031 87.50178527832031 C 92.04875183105469 82.95481872558594 95.61830139160156 77.66078186035156 98.11128234863281 71.76671600341797 C 100.691650390625 65.66603088378906 102 59.18378448486328 102 52.5 C 102 45.81621551513672 100.691650390625 39.33396911621094 98.11128234863281 33.23328399658203 C 95.61830139160156 27.33921813964844 92.04875183105469 22.04518127441406 87.50178527832031 17.49821472167969 C 82.95481872558594 12.95124816894531 77.66078186035156 9.381698608398438 71.76671600341797 6.888717651367188 C 65.66603088378906 4.308349609375 59.18378448486328 3 52.5 3 M 52.5 0 C 81.49494934082031 0 105 23.50505065917969 105 52.5 C 105 81.49494934082031 81.49494934082031 105 52.5 105 C 23.50505065917969 105 0 81.49494934082031 0 52.5 C 0 23.50505065917969 23.50505065917969 0 52.5 0 Z" stroke="none"/>
      </g>
      <g transform="matrix(1, 0, 0, 1, 248.05, 34963)" filter="url(#Trazado_1053279-2)">
        <g id="Trazado_1053279-5" data-name="Trazado 1053279" transform="translate(9 8)" fill="#fff">
          <path d="M 52.5 103.5 C 45.61438751220703 103.5 38.93552780151367 102.1517715454102 32.64895629882812 99.49278259277344 C 26.57609939575195 96.92418670654297 21.12178611755371 93.24668884277344 16.43755722045898 88.56244659423828 C 11.75331401824951 83.87821197509766 8.075828552246094 78.42391204833984 5.507214069366455 72.35104370117188 C 2.848228454589844 66.06446838378906 1.5 59.38561248779297 1.5 52.5 C 1.5 45.61438751220703 2.848228454589844 38.93552780151367 5.507214069366455 32.64895629882812 C 8.075828552246094 26.57609939575195 11.75331401824951 21.12178611755371 16.43755722045898 16.43755722045898 C 21.12178611755371 11.75331401824951 26.57609939575195 8.075828552246094 32.64895629882812 5.507214069366455 C 38.93552780151367 2.848228454589844 45.61438751220703 1.5 52.5 1.5 C 59.38561248779297 1.5 66.06446838378906 2.848228454589844 72.35104370117188 5.507214069366455 C 78.42391204833984 8.075828552246094 83.87821197509766 11.75331401824951 88.56244659423828 16.43755722045898 C 93.24668884277344 21.12178611755371 96.92418670654297 26.57609939575195 99.49278259277344 32.64895629882812 C 102.1517715454102 38.93552780151367 103.5 45.61438751220703 103.5 52.5 C 103.5 59.38561248779297 102.1517715454102 66.06446838378906 99.49278259277344 72.35104370117188 C 96.92418670654297 78.42391204833984 93.24668884277344 83.87821197509766 88.56244659423828 88.56244659423828 C 83.87821197509766 93.24668884277344 78.42391204833984 96.92418670654297 72.35104370117188 99.49278259277344 C 66.06446838378906 102.1517715454102 59.38561248779297 103.5 52.5 103.5 Z" stroke="none"/>
          <path d="M 52.5 3 C 45.81621551513672 3 39.33396911621094 4.308349609375 33.23328399658203 6.888717651367188 C 27.33921813964844 9.381698608398438 22.04518127441406 12.95124816894531 17.49821472167969 17.49821472167969 C 12.95124816894531 22.04518127441406 9.381698608398438 27.33921813964844 6.888717651367188 33.23328399658203 C 4.308349609375 39.33396911621094 3 45.81621551513672 3 52.5 C 3 59.18378448486328 4.308349609375 65.66603088378906 6.888717651367188 71.76671600341797 C 9.381698608398438 77.66078186035156 12.95124816894531 82.95481872558594 17.49821472167969 87.50178527832031 C 22.04518127441406 92.04875183105469 27.33921813964844 95.61830139160156 33.23328399658203 98.11128234863281 C 39.33396911621094 100.691650390625 45.81621551513672 102 52.5 102 C 59.18378448486328 102 65.66603088378906 100.691650390625 71.76671600341797 98.11128234863281 C 77.66078186035156 95.61830139160156 82.95481872558594 92.04875183105469 87.50178527832031 87.50178527832031 C 92.04875183105469 82.95481872558594 95.61830139160156 77.66078186035156 98.11128234863281 71.76671600341797 C 100.691650390625 65.66603088378906 102 59.18378448486328 102 52.5 C 102 45.81621551513672 100.691650390625 39.33396911621094 98.11128234863281 33.23328399658203 C 95.61830139160156 27.33921813964844 92.04875183105469 22.04518127441406 87.50178527832031 17.49821472167969 C 82.95481872558594 12.95124816894531 77.66078186035156 9.381698608398438 71.76671600341797 6.888717651367188 C 65.66603088378906 4.308349609375 59.18378448486328 3 52.5 3 M 52.5 0 C 81.49494934082031 0 105 23.50505065917969 105 52.5 C 105 81.49494934082031 81.49494934082031 105 52.5 105 C 23.50505065917969 105 0 81.49494934082031 0 52.5 C 0 23.50505065917969 23.50505065917969 0 52.5 0 Z" stroke="none"/>
        </g>
      </g>
      <g id="Trazado_1053279-6" data-name="Trazado 1053279" transform="translate(257.051 34971)" fill="none">
        <path d="M 52.5 103.5 C 45.61438751220703 103.5 38.93552780151367 102.1517715454102 32.64895629882812 99.49278259277344 C 26.57609939575195 96.92418670654297 21.12178611755371 93.24668884277344 16.43755722045898 88.56244659423828 C 11.75331401824951 83.87821197509766 8.075828552246094 78.42391204833984 5.507214069366455 72.35104370117188 C 2.848228454589844 66.06446838378906 1.5 59.38561248779297 1.5 52.5 C 1.5 45.61438751220703 2.848228454589844 38.93552780151367 5.507214069366455 32.64895629882812 C 8.075828552246094 26.57609939575195 11.75331401824951 21.12178611755371 16.43755722045898 16.43755722045898 C 21.12178611755371 11.75331401824951 26.57609939575195 8.075828552246094 32.64895629882812 5.507214069366455 C 38.93552780151367 2.848228454589844 45.61438751220703 1.5 52.5 1.5 C 59.38561248779297 1.5 66.06446838378906 2.848228454589844 72.35104370117188 5.507214069366455 C 78.42391204833984 8.075828552246094 83.87821197509766 11.75331401824951 88.56244659423828 16.43755722045898 C 93.24668884277344 21.12178611755371 96.92418670654297 26.57609939575195 99.49278259277344 32.64895629882812 C 102.1517715454102 38.93552780151367 103.5 45.61438751220703 103.5 52.5 C 103.5 59.38561248779297 102.1517715454102 66.06446838378906 99.49278259277344 72.35104370117188 C 96.92418670654297 78.42391204833984 93.24668884277344 83.87821197509766 88.56244659423828 88.56244659423828 C 83.87821197509766 93.24668884277344 78.42391204833984 96.92418670654297 72.35104370117188 99.49278259277344 C 66.06446838378906 102.1517715454102 59.38561248779297 103.5 52.5 103.5 Z" stroke="none"/>
        <path d="M 52.5 3 C 45.81621551513672 3 39.33396911621094 4.308349609375 33.23328399658203 6.888717651367188 C 27.33921813964844 9.381698608398438 22.04518127441406 12.95124816894531 17.49821472167969 17.49821472167969 C 12.95124816894531 22.04518127441406 9.381698608398438 27.33921813964844 6.888717651367188 33.23328399658203 C 4.308349609375 39.33396911621094 3 45.81621551513672 3 52.5 C 3 59.18378448486328 4.308349609375 65.66603088378906 6.888717651367188 71.76671600341797 C 9.381698608398438 77.66078186035156 12.95124816894531 82.95481872558594 17.49821472167969 87.50178527832031 C 22.04518127441406 92.04875183105469 27.33921813964844 95.61830139160156 33.23328399658203 98.11128234863281 C 39.33396911621094 100.691650390625 45.81621551513672 102 52.5 102 C 59.18378448486328 102 65.66603088378906 100.691650390625 71.76671600341797 98.11128234863281 C 77.66078186035156 95.61830139160156 82.95481872558594 92.04875183105469 87.50178527832031 87.50178527832031 C 92.04875183105469 82.95481872558594 95.61830139160156 77.66078186035156 98.11128234863281 71.76671600341797 C 100.691650390625 65.66603088378906 102 59.18378448486328 102 52.5 C 102 45.81621551513672 100.691650390625 39.33396911621094 98.11128234863281 33.23328399658203 C 95.61830139160156 27.33921813964844 92.04875183105469 22.04518127441406 87.50178527832031 17.49821472167969 C 82.95481872558594 12.95124816894531 77.66078186035156 9.381698608398438 71.76671600341797 6.888717651367188 C 65.66603088378906 4.308349609375 59.18378448486328 3 52.5 3 M 52.5 0 C 81.49494934082031 0 105 23.50505065917969 105 52.5 C 105 81.49494934082031 81.49494934082031 105 52.5 105 C 23.50505065917969 105 0 81.49494934082031 0 52.5 C 0 23.50505065917969 23.50505065917969 0 52.5 0 Z" stroke="none" fill="#fff"/>
      </g>
    </g>
    <g id="Grupo_1180602" data-name="Grupo 1180602" transform="translate(270.305 34979.953)" clip-path="url(#clip-path)">
      <g id="Grupo_1180601" data-name="Grupo 1180601" transform="translate(0 0.001)">
        <g id="Grupo_1180600" data-name="Grupo 1180600" clip-path="url(#clip-path-2)">
          <g id="Grupo_1180581" data-name="Grupo 1180581" transform="translate(0.98 0.979)" opacity="0.7" style="mix-blend-mode: multiply;isolation: isolate">
            <g id="Grupo_1180580" data-name="Grupo 1180580">
              <g id="Grupo_1180579" data-name="Grupo 1180579" clip-path="url(#clip-path-3)">
                <path id="Trazado_1053387" data-name="Trazado 1053387" d="M75.479,72.226l-.24-.821-.009-.021-.005-.026L71.2,58.318a3.916,3.916,0,0,0-3.744-2.765c-.095,0-.188.014-.282.021a3.922,3.922,0,0,0-.749-1.095l-.6-.609-.019-.016-.014-.016L59.41,47.561a10.976,10.976,0,0,0,2.175-6.647c0-.019,0-.037,0-.056a9.6,9.6,0,0,0-1.3-12.6,7.2,7.2,0,0,0,.032-.728,7.345,7.345,0,0,0-4.81-6.815c-.009-.019-.018-.039-.025-.058A12.2,12.2,0,0,0,43.436,6.525h-.1a12.267,12.267,0,0,0-2.726.333,7.3,7.3,0,0,0-1.847-1.2,11.9,11.9,0,0,0-9.712-5.1h-.1A11.776,11.776,0,0,0,18.773,6.531a8.2,8.2,0,0,0-3.365,4.131A9.27,9.27,0,0,0,13.234,12c-.044,0-.133,0-.133,0a8.189,8.189,0,0,0-8,9.613A11.633,11.633,0,0,0,1.73,35.923a9.23,9.23,0,0,0,1.619,8.682c0,.042,0,.084,0,.126a8.2,8.2,0,0,0,7.133,8.122,9.631,9.631,0,0,0,12.147,1.491c.3.021.6.047.91.047a13.455,13.455,0,0,0,3.817-.56l-.061,2.044H21.127a3.916,3.916,0,0,0-3.9,4.233l1.231,15.257a3.906,3.906,0,0,0-.875,2.772l.275,3.387a3.918,3.918,0,0,0,3.9,3.6H44.709l.053.023c.244.135.488.274.744.393l.011.007.007,0,.011.005.016.005a12.531,12.531,0,0,0,10.291.172,12.4,12.4,0,0,0,4.315-3.049,12.694,12.694,0,0,0,1.595-2.174l11.127-3.435a3.918,3.918,0,0,0,2.6-4.852M39.154,55.876h0l-.012-.389c.153-.014.3-.035.451-.053Z" transform="translate(-0.559 -0.558)" fill="gray"/>
              </g>
            </g>
          </g>
          <path id="Trazado_1053388" data-name="Trazado 1053388" d="M.719,38.218a9.213,9.213,0,0,0,2.072,5.828v.126A8.206,8.206,0,0,0,9.922,52.3a9.637,9.637,0,0,0,12.147,1.491c.3.019.6.046.91.046a13.393,13.393,0,0,0,3.817-.56l-.061,2.044H20.569a3.917,3.917,0,0,0-3.9,4.235L17.9,74.807a3.911,3.911,0,0,0-.875,2.772l.275,3.389a3.919,3.919,0,0,0,3.9,3.6H44.151l.053.021c.246.135.488.274.744.395l.011.005.007,0,.011.005.016.005A12.6,12.6,0,0,0,59.6,82.129a12.694,12.694,0,0,0,1.595-2.174l11.127-3.437a3.919,3.919,0,0,0,2.6-4.851l-.242-.823-.009-.021-.005-.026L70.648,57.759A3.92,3.92,0,0,0,66.9,54.994c-.095,0-.188.016-.282.021a3.886,3.886,0,0,0-.749-1.095l-.6-.607-.019-.016-.014-.018L58.852,47a10.984,10.984,0,0,0,2.175-6.647c0-.019,0-.039,0-.058a9.6,9.6,0,0,0-1.3-12.6,7.171,7.171,0,0,0,.032-.728,7.345,7.345,0,0,0-4.81-6.815c-.009-.019-.018-.039-.025-.058A12.2,12.2,0,0,0,42.878,5.968h-.1a12.165,12.165,0,0,0-2.726.333A7.277,7.277,0,0,0,38.2,5.1,11.9,11.9,0,0,0,28.489,0h-.1A11.78,11.78,0,0,0,18.215,5.972,8.183,8.183,0,0,0,14.852,10.1a9.245,9.245,0,0,0-2.175,1.337c-.044,0-.132,0-.132,0a8.189,8.189,0,0,0-8,9.613A11.636,11.636,0,0,0,1.172,35.366a9.122,9.122,0,0,0-.453,2.852M39.031,54.875l-.435.442h0l-.012-.389c.153-.012.3-.033.451-.053" transform="translate(0 -0.001)" fill="#fff"/>
          <path id="Trazado_1053389" data-name="Trazado 1053389" d="M26.6,49.463l-.253-.83,24.7-7.617.242.821Z" transform="translate(19.871 30.937)" fill="#6cb880"/>
          <rect id="Rectángulo_407749" data-name="Rectángulo 407749" width="25.852" height="13.646" transform="matrix(0.956, -0.295, 0.295, 0.956, 42.196, 66.531)" fill="#82de9a"/>
          <path id="Trazado_1053390" data-name="Trazado 1053390" d="M46.365,36.641l2.34,7.587L29.447,50.166l-2.338-7.585Zm1.258-2.384L24.728,41.316l3.465,11.231,22.893-7.059Z" transform="translate(18.651 25.838)" fill="#447a52"/>
          <path id="Trazado_1053391" data-name="Trazado 1053391" d="M28.537,37.612A3.991,3.991,0,0,1,25.905,42.6l-1.177-3.817Z" transform="translate(18.651 28.369)" fill="#447a52"/>
          <path id="Trazado_1053392" data-name="Trazado 1053392" d="M35.606,35.431a3.993,3.993,0,0,0,4.987,2.644l-1.177-3.817Z" transform="translate(26.856 25.838)" fill="#447a52"/>
          <path id="Trazado_1053393" data-name="Trazado 1053393" d="M31.013,45.222a3.984,3.984,0,0,0-4.98-2.635l1.175,3.81Z" transform="translate(19.636 31.987)" fill="#447a52"/>
          <path id="Trazado_1053394" data-name="Trazado 1053394" d="M37.655,43.473a3.99,3.99,0,0,1,2.64-4.986l1.174,3.81Z" transform="translate(28.268 29.029)" fill="#447a52"/>
          <path id="Trazado_1053395" data-name="Trazado 1053395" d="M30.978,40.976a1.887,1.887,0,1,0-1.247,2.359,1.891,1.891,0,0,0,1.247-2.359" transform="translate(20.581 29.901)" fill="#447a52"/>
          <path id="Trazado_1053396" data-name="Trazado 1053396" d="M37.123,39.946a3.523,3.523,0,1,0-2.324,4.4,3.521,3.521,0,0,0,2.324-4.4" transform="translate(22.804 28.256)" fill="#447a52"/>
          <path id="Trazado_1053397" data-name="Trazado 1053397" d="M38.4,38.687a1.888,1.888,0,1,0-1.249,2.358A1.889,1.889,0,0,0,38.4,38.687" transform="translate(26.176 28.176)" fill="#447a52"/>
          <path id="Trazado_1053398" data-name="Trazado 1053398" d="M31.287,40.049a1.067,1.067,0,0,1,.8-1.463l-.153-.493.547-.167.154.5a4.444,4.444,0,0,1,1.054-.137l.225.739c-.356.074-.984.237-1.265.323-.335.1-.491.179-.391.5l.04.139c.079.247.214.318.518.225l.46-.144a1.068,1.068,0,0,1,1.389.84l.074.24a1.089,1.089,0,0,1-.784,1.554l.147.474-.549.17-.147-.481A3.01,3.01,0,0,1,32.34,43l-.225-.728c.235-.053.814-.189,1.347-.354.242-.074.421-.191.344-.442l-.051-.167c-.065-.205-.168-.311-.451-.223l-.444.135A1.089,1.089,0,0,1,31.4,40.4Z" transform="translate(23.542 28.605)" fill="#75c78a"/>
          <path id="Trazado_1053399" data-name="Trazado 1053399" d="M25.9,51.007l-.618-.609L43.413,31.964l.6.607Z" transform="translate(19.072 24.109)" fill="#6cb880"/>
          <rect id="Rectángulo_407750" data-name="Rectángulo 407750" width="25.853" height="13.645" transform="matrix(0.701, -0.713, 0.713, 0.701, 34.63, 64.938)" fill="#82de9a"/>
          <path id="Trazado_1053400" data-name="Trazado 1053400" d="M37.326,29.968l5.661,5.566L28.858,49.9,23.2,44.336Zm-.025-2.7L20.5,44.353l8.378,8.24,16.8-17.081Z" transform="translate(15.465 20.57)" fill="#447a52"/>
          <path id="Trazado_1053401" data-name="Trazado 1053401" d="M23.3,35.39a3.989,3.989,0,0,1,.058,5.64L20.5,38.23Z" transform="translate(15.465 26.693)" fill="#447a52"/>
          <path id="Trazado_1053402" data-name="Trazado 1053402" d="M28.484,30.116a3.993,3.993,0,0,0,5.647-.044l-2.849-2.8Z" transform="translate(21.484 20.57)" fill="#447a52"/>
          <path id="Trazado_1053403" data-name="Trazado 1053403" d="M29.3,40.579a3.987,3.987,0,0,0-5.638.046L26.5,43.419Z" transform="translate(17.846 29.743)" fill="#447a52"/>
          <path id="Trazado_1053404" data-name="Trazado 1053404" d="M33.773,36.015a3.988,3.988,0,0,1-.044-5.64l2.842,2.795Z" transform="translate(24.576 22.91)" fill="#447a52"/>
          <path id="Trazado_1053405" data-name="Trazado 1053405" d="M27,36.9a1.887,1.887,0,1,0,.021,2.666A1.889,1.889,0,0,0,27,36.9" transform="translate(17.94 27.42)" fill="#447a52"/>
          <path id="Trazado_1053406" data-name="Trazado 1053406" d="M31.666,33.492a3.522,3.522,0,1,0,.042,4.98,3.52,3.52,0,0,0-.042-4.98" transform="translate(19.365 24.498)" fill="#447a52"/>
          <path id="Trazado_1053407" data-name="Trazado 1053407" d="M32.437,31.361a1.888,1.888,0,1,0,.021,2.668,1.888,1.888,0,0,0-.021-2.668" transform="translate(22.045 23.246)" fill="#447a52"/>
          <path id="Trazado_1053408" data-name="Trazado 1053408" d="M26.825,35.82a1.063,1.063,0,0,1,.007-1.665l-.365-.361.4-.409.37.367a4.449,4.449,0,0,1,.863-.621l.553.542c-.282.235-.756.674-.963.886-.247.249-.347.389-.109.623l.1.1c.184.181.339.179.56-.047l.34-.344a1.065,1.065,0,0,1,1.619.081l.179.174a1.091,1.091,0,0,1,.047,1.742l.354.349-.4.407-.358-.351a3.059,3.059,0,0,1-.87.623l-.546-.535c.182-.158.628-.553,1.019-.951.177-.181.279-.368.093-.551l-.125-.125c-.154-.151-.295-.193-.5.018l-.323.33a1.09,1.09,0,0,1-1.679-.023Z" transform="translate(19.931 24.989)" fill="#75c78a"/>
          <path id="Trazado_1053409" data-name="Trazado 1053409" d="M24.57,42a8.666,8.666,0,0,0,4.161,11.533l7.371-15.7A8.663,8.663,0,0,0,24.57,42" transform="translate(17.91 27.917)" fill="#eda73f"/>
          <path id="Trazado_1053410" data-name="Trazado 1053410" d="M38.123,49.021a8.769,8.769,0,0,1-1.467,2.186,8.7,8.7,0,0,1-8.52,2.533,8.453,8.453,0,0,1-1.549-.56l7.371-15.7c.179.082.351.172.523.267a8.676,8.676,0,0,1,3.642,11.271" transform="translate(20.054 28.271)" fill="#eda73f"/>
          <path id="Trazado_1053411" data-name="Trazado 1053411" d="M35.237,37.43a8.672,8.672,0,1,0,4.158,11.538A8.678,8.678,0,0,0,35.237,37.43" transform="translate(17.254 27.609)" fill="#ffce3b"/>
          <path id="Trazado_1053412" data-name="Trazado 1053412" d="M24.393,41.587a7.211,7.211,0,0,0,3.459,9.592l6.133-13.057a7.209,7.209,0,0,0-9.592,3.465" transform="translate(17.881 28.237)" fill="#eda73f"/>
          <path id="Trazado_1053413" data-name="Trazado 1053413" d="M32.2,37.828,26.07,50.885A7.213,7.213,0,1,0,32.2,37.828" transform="translate(19.664 28.532)" fill="#f59407"/>
          <path id="Trazado_1053414" data-name="Trazado 1053414" d="M27.841,40.6a2.12,2.12,0,0,1,3.13-1.084l.435-.926,1.033.482-.44.939a9.011,9.011,0,0,1,1.728,1.205l-.654,1.391c-.625-.37-1.761-.972-2.3-1.223-.63-.295-.958-.391-1.242.212l-.123.261c-.218.467-.112.751.458,1.017l.868.409a2.12,2.12,0,0,1,.917,3.091l-.212.451c-.868,1.842-2.154,1.742-3.228,1.237l-.421.895-1.032-.484.425-.9a6.1,6.1,0,0,1-1.742-1.221l.644-1.372c.414.235,1.447.809,2.454,1.281.454.214.875.282,1.1-.189l.147-.314c.181-.391.167-.682-.363-.93l-.835-.395a2.164,2.164,0,0,1-1.06-3.161Z" transform="translate(19.192 29.108)" fill="#ffce3b"/>
          <g id="Grupo_1180584" data-name="Grupo 1180584" transform="translate(40.128 64.382)" opacity="0.3" style="mix-blend-mode: screen;isolation: isolate">
            <g id="Grupo_1180583" data-name="Grupo 1180583">
              <g id="Grupo_1180582" data-name="Grupo 1180582" clip-path="url(#clip-path-4)">
                <path id="Trazado_1053415" data-name="Trazado 1053415" d="M32.881,36.7l-8.417,3.035A8.674,8.674,0,0,0,23.348,41.5L34.863,37.35a8.852,8.852,0,0,0-1.982-.649" transform="translate(-22.517 -36.701)" fill="#ffce3b"/>
                <path id="Trazado_1053416" data-name="Trazado 1053416" d="M37.743,38.086,22.9,43.44a8.721,8.721,0,0,0,.9,4.612L40,42.209a8.723,8.723,0,0,0-2.254-4.123" transform="translate(-22.874 -35.656)" fill="#ffce3b"/>
              </g>
            </g>
          </g>
          <path id="Trazado_1053417" data-name="Trazado 1053417" d="M31.824,17.656A10.263,10.263,0,1,0,21.559,27.919,10.265,10.265,0,0,0,31.824,17.656" transform="translate(8.521 5.575)" fill="#1b8035"/>
          <path id="Trazado_1053418" data-name="Trazado 1053418" d="M32.372,18.142a6.152,6.152,0,1,0-6.15,6.152,6.152,6.152,0,0,0,6.15-6.152" transform="translate(15.137 9.043)" fill="#1b8035"/>
          <path id="Trazado_1053419" data-name="Trazado 1053419" d="M20.07,19.251a6.151,6.151,0,1,0-6.152,6.15,6.152,6.152,0,0,0,6.152-6.15" transform="translate(5.858 9.879)" fill="#1b8035"/>
          <path id="Trazado_1053420" data-name="Trazado 1053420" d="M37.671,24.3a7.693,7.693,0,1,0-7.692,7.694A7.695,7.695,0,0,0,37.671,24.3" transform="translate(16.808 12.524)" fill="#1b8035"/>
          <path id="Trazado_1053421" data-name="Trazado 1053421" d="M34.961,27.774A9.557,9.557,0,1,0,25.4,37.331a9.558,9.558,0,0,0,9.557-9.557" transform="translate(11.953 13.74)" fill="#345e3f"/>
          <path id="Trazado_1053422" data-name="Trazado 1053422" d="M26.764,27.115a9.557,9.557,0,1,0-9.557,9.555,9.557,9.557,0,0,0,9.557-9.555" transform="translate(5.77 13.243)" fill="#345e3f"/>
          <path id="Trazado_1053423" data-name="Trazado 1053423" d="M30.056,23.19a7.693,7.693,0,1,0-7.694,7.692,7.694,7.694,0,0,0,7.694-7.692" transform="translate(11.064 11.687)" fill="#345e3f"/>
          <path id="Trazado_1053424" data-name="Trazado 1053424" d="M21.834,52.574h-4.5L18.485,14.26h2.2Z" transform="translate(13.077 10.755)" fill="#52432d"/>
          <path id="Trazado_1053425" data-name="Trazado 1053425" d="M19.658,36.424l-1.788-1.788L33.554,19.865l.875.875Z" transform="translate(13.479 14.983)" fill="#52432d"/>
          <path id="Trazado_1053426" data-name="Trazado 1053426" d="M24.4,36.424l1.788-1.788L10.507,19.865l-.875.875Z" transform="translate(7.265 14.983)" fill="#52432d"/>
          <path id="Trazado_1053427" data-name="Trazado 1053427" d="M57.2,33.013a5.7,5.7,0,0,0-3.94-5.372,3.407,3.407,0,0,0-2.544-5.714,3.359,3.359,0,0,0-.628.068,5.683,5.683,0,0,0-.989-3.035,8.283,8.283,0,0,0-11.9-9.733c-.093,0-.184-.012-.277-.012-.047,0-.093.007-.14.009a3.4,3.4,0,0,0-2.861-2.517,7.9,7.9,0,0,0-14.45.493,4.26,4.26,0,0,0-2.879,4.056c0,.105.026.2.035.309a5.29,5.29,0,0,0-4.193,2.389,4.224,4.224,0,0,0-1.537-.282,4.262,4.262,0,0,0-3.049,7.215,3.455,3.455,0,0,0-.747.54,7.719,7.719,0,0,0-3.147,12.02,5.3,5.3,0,0,0,1.37,7.5,4.253,4.253,0,0,0,3.977,5.808,4.323,4.323,0,0,0,.886-.095,5.7,5.7,0,0,0,10.7-2.11,5.3,5.3,0,0,0,4.451-5.233c0-.174-.009-.346-.025-.516a4.565,4.565,0,0,0,.377-.312,6.79,6.79,0,0,0,10.41-1.838,5.149,5.149,0,0,0-.028.574,5.3,5.3,0,0,0,3.7,5.012c0,.065-.018.126-.018.193a4.276,4.276,0,0,0,4.312,4.238A4.231,4.231,0,0,0,46.7,45.7a7.126,7.126,0,0,0,8.575-8.387,5.678,5.678,0,0,0,1.919-4.3m-8.533-4.973.053.044c-.042.023-.082.051-.125.077.025-.04.049-.081.072-.121" transform="translate(1.685 1.684)" fill="#447a52"/>
          <path id="Trazado_1053428" data-name="Trazado 1053428" d="M6.9,25.213a4.429,4.429,0,0,0,2.474,5.752l3.279-8.226A4.427,4.427,0,0,0,6.9,25.213" transform="translate(4.969 16.913)" fill="#eda73f"/>
          <path id="Trazado_1053429" data-name="Trazado 1053429" d="M13.929,28.358a4.568,4.568,0,0,1-.679,1.158A4.42,4.42,0,0,1,8.177,30.83L11.456,22.6c.095.037.184.077.275.119a4.431,4.431,0,0,1,2.2,5.635" transform="translate(6.168 17.049)" fill="#eda73f"/>
          <path id="Trazado_1053430" data-name="Trazado 1053430" d="M12.2,22.559a4.427,4.427,0,1,0,2.474,5.752A4.426,4.426,0,0,0,12.2,22.559" transform="translate(4.625 16.776)" fill="#ffce3b"/>
          <path id="Trazado_1053431" data-name="Trazado 1053431" d="M6.819,24.986A3.682,3.682,0,0,0,8.875,29.77l2.73-6.84a3.683,3.683,0,0,0-4.786,2.056" transform="translate(4.945 17.096)" fill="#eda73f"/>
          <path id="Trazado_1053432" data-name="Trazado 1053432" d="M10.609,22.817l-2.73,6.84a3.682,3.682,0,1,0,2.73-6.84" transform="translate(5.943 17.209)" fill="#f59407"/>
          <path id="Trazado_1053433" data-name="Trazado 1053433" d="M8.537,24.361a1.082,1.082,0,0,1,1.561-.647l.195-.486.54.216-.2.491a4.531,4.531,0,0,1,.919.563l-.291.728c-.332-.17-.93-.442-1.209-.553-.33-.133-.5-.172-.625.144l-.056.139c-.1.244-.035.386.265.505l.454.181a1.083,1.083,0,0,1,.561,1.547l-.095.237a1.1,1.1,0,0,1-1.609.726l-.188.47-.539-.216.188-.474a3.073,3.073,0,0,1-.924-.57l.286-.717c.218.107.763.368,1.291.579.237.095.453.118.553-.132l.067-.165c.079-.2.063-.351-.216-.461l-.437-.175A1.1,1.1,0,0,1,8.4,24.712Z" transform="translate(5.649 17.519)" fill="#ffce3b"/>
          <g id="Grupo_1180587" data-name="Grupo 1180587" transform="translate(10.757 39.06)" opacity="0.3" style="mix-blend-mode: screen;isolation: isolate">
            <g id="Grupo_1180586" data-name="Grupo 1180586">
              <g id="Grupo_1180585" data-name="Grupo 1180585" clip-path="url(#clip-path-5)">
                <path id="Trazado_1053434" data-name="Trazado 1053434" d="M11.024,22.266l-4.2,1.8A4.344,4.344,0,0,0,6.314,25l5.74-2.466a4.36,4.36,0,0,0-1.03-.272" transform="translate(-5.994 -22.266)" fill="#ffce3b"/>
                <path id="Trazado_1053435" data-name="Trazado 1053435" d="M13.532,22.894l-7.4,3.179a4.463,4.463,0,0,0,.6,2.326l8.078-3.472a4.438,4.438,0,0,0-1.275-2.033" transform="translate(-6.132 -21.792)" fill="#ffce3b"/>
              </g>
            </g>
          </g>
          <path id="Trazado_1053436" data-name="Trazado 1053436" d="M21.018,10.064a4.428,4.428,0,0,0,2.472,5.754l3.28-8.227a4.426,4.426,0,0,0-5.752,2.474" transform="translate(15.614 5.487)" fill="#eda73f"/>
          <path id="Trazado_1053437" data-name="Trazado 1053437" d="M28.045,13.21a4.448,4.448,0,0,1-.682,1.158,4.406,4.406,0,0,1-5.072,1.312l3.28-8.224c.093.037.184.077.272.119a4.431,4.431,0,0,1,2.2,5.635" transform="translate(16.813 5.623)" fill="#eda73f"/>
          <path id="Trazado_1053438" data-name="Trazado 1053438" d="M26.316,7.41a4.428,4.428,0,1,0,2.47,5.754,4.43,4.43,0,0,0-2.47-5.754" transform="translate(15.27 5.35)" fill="#ffce3b"/>
          <path id="Trazado_1053439" data-name="Trazado 1053439" d="M20.933,9.838a3.682,3.682,0,0,0,2.054,4.784l2.731-6.84a3.682,3.682,0,0,0-4.786,2.056" transform="translate(15.591 5.67)" fill="#eda73f"/>
          <path id="Trazado_1053440" data-name="Trazado 1053440" d="M24.722,7.669l-2.731,6.84a3.683,3.683,0,1,0,2.731-6.84" transform="translate(16.587 5.784)" fill="#f59407"/>
          <path id="Trazado_1053441" data-name="Trazado 1053441" d="M22.652,9.212a1.081,1.081,0,0,1,1.561-.646l.195-.486.54.214-.2.491a4.543,4.543,0,0,1,.917.561l-.289.73c-.332-.17-.928-.442-1.207-.553-.33-.132-.5-.17-.626.146l-.056.137c-.1.246-.035.386.263.505l.456.181a1.081,1.081,0,0,1,.561,1.549l-.095.235A1.1,1.1,0,0,1,23.07,13l-.188.47-.54-.218.188-.472a3.188,3.188,0,0,1-.926-.57l.289-.719c.218.109.761.37,1.289.579.239.1.454.118.554-.13l.065-.165c.079-.2.063-.353-.214-.463l-.437-.175a1.106,1.106,0,0,1-.639-1.579Z" transform="translate(16.294 6.094)" fill="#ffce3b"/>
          <g id="Grupo_1180590" data-name="Grupo 1180590" transform="translate(35.516 12.486)" opacity="0.3" style="mix-blend-mode: screen;isolation: isolate">
            <g id="Grupo_1180589" data-name="Grupo 1180589">
              <g id="Grupo_1180588" data-name="Grupo 1180588" clip-path="url(#clip-path-6)">
                <path id="Trazado_1053442" data-name="Trazado 1053442" d="M25.14,7.118l-4.2,1.8a4.343,4.343,0,0,0-.514.935L26.17,7.388a4.487,4.487,0,0,0-1.03-.27" transform="translate(-20.107 -7.118)" fill="#ffce3b"/>
                <path id="Trazado_1053443" data-name="Trazado 1053443" d="M27.646,7.746l-7.4,3.18a4.445,4.445,0,0,0,.6,2.324l8.08-3.472a4.465,4.465,0,0,0-1.277-2.033" transform="translate(-20.245 -6.644)" fill="#ffce3b"/>
              </g>
            </g>
          </g>
          <path id="Trazado_1053444" data-name="Trazado 1053444" d="M16.117,21.471A4.427,4.427,0,0,0,22.234,22.8l-4.786-7.45a4.424,4.424,0,0,0-1.331,6.119" transform="translate(11.625 11.579)" fill="#eda73f"/>
          <path id="Trazado_1053445" data-name="Trazado 1053445" d="M22.692,16.986a4.506,4.506,0,0,1,.547,1.228,4.443,4.443,0,0,1-1.219,4.372,4.205,4.205,0,0,1-.661.518l-4.786-7.449c.084-.054.168-.105.256-.153a4.429,4.429,0,0,1,5.863,1.484" transform="translate(12.5 11.276)" fill="#eda73f"/>
          <path id="Trazado_1053446" data-name="Trazado 1053446" d="M17.035,15.919a4.428,4.428,0,1,0,6.119,1.331,4.43,4.43,0,0,0-6.119-1.331" transform="translate(11.314 11.477)" fill="#ffce3b"/>
          <path id="Trazado_1053447" data-name="Trazado 1053447" d="M16.009,21.063A3.685,3.685,0,0,0,21.1,22.172l-3.98-6.2a3.684,3.684,0,0,0-1.109,5.089" transform="translate(11.635 12.048)" fill="#eda73f"/>
          <path id="Trazado_1053448" data-name="Trazado 1053448" d="M16.39,16.226l3.98,6.2a3.683,3.683,0,1,0-3.98-6.2" transform="translate(12.362 11.796)" fill="#f59407"/>
          <path id="Trazado_1053449" data-name="Trazado 1053449" d="M16.569,18.717a1.082,1.082,0,0,1,.381-1.647l-.282-.439.489-.316.286.444a4.49,4.49,0,0,1,.991-.419l.425.661c-.333.168-.9.5-1.154.66-.3.193-.428.309-.244.595l.077.125c.146.219.293.253.568.079l.41-.265a1.08,1.08,0,0,1,1.584.442l.139.214a1.1,1.1,0,0,1-.342,1.731l.274.425-.491.314-.275-.428a3,3,0,0,1-1,.421l-.416-.649c.212-.116.742-.407,1.219-.714.216-.139.36-.3.216-.525l-.095-.151c-.121-.184-.251-.258-.5-.095l-.4.254a1.106,1.106,0,0,1-1.654-.4Z" transform="translate(12.32 12.305)" fill="#ffce3b"/>
          <g id="Grupo_1180593" data-name="Grupo 1180593" transform="translate(26.55 26.692)" opacity="0.3" style="mix-blend-mode: screen;isolation: isolate">
            <g id="Grupo_1180592" data-name="Grupo 1180592">
              <g id="Grupo_1180591" data-name="Grupo 1180591" clip-path="url(#clip-path-7)">
                <path id="Trazado_1053450" data-name="Trazado 1053450" d="M16.107,16.3l-.972,4.465a4.429,4.429,0,0,0,.463.96l1.33-6.1a4.436,4.436,0,0,0-.821.681" transform="translate(-15.135 -14.911)" fill="#ffce3b"/>
                <path id="Trazado_1053451" data-name="Trazado 1053451" d="M17.721,15.318l-1.712,7.87a4.452,4.452,0,0,0,2.237.865l1.87-8.591a4.422,4.422,0,0,0-2.395-.144" transform="translate(-14.475 -15.216)" fill="#ffce3b"/>
              </g>
            </g>
          </g>
          <path id="Trazado_1053452" data-name="Trazado 1053452" d="M6.774,15.043a4.422,4.422,0,0,0,4.117,4.714l.6-8.834a4.424,4.424,0,0,0-4.714,4.121" transform="translate(5.102 8.23)" fill="#eda73f"/>
          <path id="Trazado_1053453" data-name="Trazado 1053453" d="M13.834,15.635a4.5,4.5,0,0,1-.293,1.31,4.411,4.411,0,0,1-4.424,2.807l.6-8.834c.1.005.2.018.3.032a4.428,4.428,0,0,1,3.823,4.686" transform="translate(6.877 8.234)" fill="#eda73f"/>
          <path id="Trazado_1053454" data-name="Trazado 1053454" d="M11,10.889a4.428,4.428,0,1,0,4.117,4.717A4.429,4.429,0,0,0,11,10.889" transform="translate(4.732 8.205)" fill="#ffce3b"/>
          <path id="Trazado_1053455" data-name="Trazado 1053455" d="M6.708,14.74a3.683,3.683,0,0,0,3.424,3.923l.5-7.349A3.681,3.681,0,0,0,6.708,14.74" transform="translate(5.053 8.526)" fill="#eda73f"/>
          <path id="Trazado_1053456" data-name="Trazado 1053456" d="M9.156,11.309l-.5,7.349a3.683,3.683,0,0,0,.5-7.349" transform="translate(6.529 8.529)" fill="#f59407"/>
          <path id="Trazado_1053457" data-name="Trazado 1053457" d="M8.016,13.424a1.082,1.082,0,0,1,1.286-1.1l.035-.521.581.039-.035.528a4.516,4.516,0,0,1,1.047.253l-.053.784c-.367-.061-1.019-.137-1.319-.156-.356-.025-.53-.009-.551.33L9,13.731c-.016.263.086.379.407.4l.488.033a1.084,1.084,0,0,1,1.012,1.3l-.018.254c-.074,1.037-.7,1.228-1.309,1.186l-.033.5-.581-.039L9,16.863a3.131,3.131,0,0,1-1.058-.26l.054-.772c.24.035.839.116,1.405.154.254.018.468-.028.484-.293l.014-.177c.016-.219-.047-.356-.346-.375l-.472-.032A1.1,1.1,0,0,1,7.992,13.8Z" transform="translate(5.988 8.905)" fill="#ffce3b"/>
          <g id="Grupo_1180596" data-name="Grupo 1180596" transform="translate(11.017 19.085)" opacity="0.3" style="mix-blend-mode: screen;isolation: isolate">
            <g id="Grupo_1180595" data-name="Grupo 1180595">
              <g id="Grupo_1180594" data-name="Grupo 1180594" clip-path="url(#clip-path-8)">
                <path id="Trazado_1053458" data-name="Trazado 1053458" d="M9.924,10.947,6.482,13.952A4.361,4.361,0,0,0,6.28,15l4.707-4.11a4.37,4.37,0,0,0-1.063.058" transform="translate(-6.281 -10.88)" fill="#ffce3b"/>
                <path id="Trazado_1053459" data-name="Trazado 1053459" d="M12.443,11.1,6.379,16.4A4.453,4.453,0,0,0,7.66,18.429l6.621-5.786A4.445,4.445,0,0,0,12.443,11.1" transform="translate(-6.206 -10.713)" fill="#ffce3b"/>
              </g>
            </g>
          </g>
          <path id="Trazado_1053460" data-name="Trazado 1053460" d="M26.8,24.41a4.424,4.424,0,0,0,4.117,4.714l.6-8.834A4.426,4.426,0,0,0,26.8,24.41" transform="translate(20.208 15.295)" fill="#eda73f"/>
          <path id="Trazado_1053461" data-name="Trazado 1053461" d="M33.862,25a4.5,4.5,0,0,1-.293,1.312A4.429,4.429,0,0,1,29.987,29.1a4.2,4.2,0,0,1-.842.023l.6-8.834c.1.005.2.018.3.03A4.43,4.43,0,0,1,33.862,25" transform="translate(21.983 15.3)" fill="#eda73f"/>
          <path id="Trazado_1053462" data-name="Trazado 1053462" d="M31.03,20.257a4.427,4.427,0,1,0,4.117,4.717,4.431,4.431,0,0,0-4.117-4.717" transform="translate(19.838 15.271)" fill="#ffce3b"/>
          <path id="Trazado_1053463" data-name="Trazado 1053463" d="M26.736,24.107a3.684,3.684,0,0,0,3.424,3.923l.5-7.349a3.681,3.681,0,0,0-3.923,3.426" transform="translate(20.159 15.591)" fill="#eda73f"/>
          <path id="Trazado_1053464" data-name="Trazado 1053464" d="M29.182,20.676l-.5,7.349a3.683,3.683,0,1,0,.5-7.349" transform="translate(21.635 15.594)" fill="#f59407"/>
          <path id="Trazado_1053465" data-name="Trazado 1053465" d="M28.042,22.791A1.082,1.082,0,0,1,29.329,21.7l.037-.523.581.039-.037.528a4.494,4.494,0,0,1,1.046.254l-.053.782c-.367-.06-1.017-.135-1.319-.156-.354-.025-.528-.009-.551.332l-.012.147c-.014.261.088.377.409.4l.488.033a1.081,1.081,0,0,1,1.01,1.3l-.018.254c-.07,1.039-.7,1.228-1.307,1.188l-.033.5-.582-.04.035-.509a3.021,3.021,0,0,1-1.054-.258l.053-.77c.239.035.837.116,1.4.153.256.019.468-.028.488-.293l.012-.177c.014-.218-.047-.354-.346-.375l-.47-.032a1.1,1.1,0,0,1-1.089-1.307Z" transform="translate(21.095 15.97)" fill="#ffce3b"/>
          <g id="Grupo_1180599" data-name="Grupo 1180599" transform="translate(46.153 35.518)" opacity="0.3" style="mix-blend-mode: screen;isolation: isolate">
            <g id="Grupo_1180598" data-name="Grupo 1180598">
              <g id="Grupo_1180597" data-name="Grupo 1180597" clip-path="url(#clip-path-9)">
                <path id="Trazado_1053466" data-name="Trazado 1053466" d="M29.951,20.314l-3.44,3.005a4.227,4.227,0,0,0-.2,1.047l4.707-4.11a4.556,4.556,0,0,0-1.065.058" transform="translate(-26.309 -20.247)" fill="#ffce3b"/>
                <path id="Trazado_1053467" data-name="Trazado 1053467" d="M32.47,20.469l-6.064,5.3a4.433,4.433,0,0,0,1.282,2.028l6.621-5.784a4.45,4.45,0,0,0-1.838-1.542" transform="translate(-26.236 -20.08)" fill="#ffce3b"/>
              </g>
            </g>
          </g>
          <path id="Trazado_1053468" data-name="Trazado 1053468" d="M24.965,33.767h-7.6L18.882,52.58H30.435L32.57,33.767Z" transform="translate(13.094 25.469)" fill="#153152"/>
          <path id="Trazado_1053469" data-name="Trazado 1053469" d="M19.327,33.767h-7.6L13.244,52.58H25.413l1.523-18.813Z" transform="translate(8.843 25.469)" fill="#193a61"/>
          <path id="Trazado_1053470" data-name="Trazado 1053470" d="M18.777,44.043l.274,3.387H30.606l.384-3.387Z" transform="translate(14.163 33.219)" fill="#3280d9"/>
          <path id="Trazado_1053471" data-name="Trazado 1053471" d="M11.928,44.043,12.2,47.43H25.034l.274-3.387Z" transform="translate(8.997 33.219)" fill="#5794d9"/>
        </g>
      </g>
    </g>
  </g>
</svg>
