<svg xmlns="http://www.w3.org/2000/svg" xmlns:xlink="http://www.w3.org/1999/xlink" width="190" height="255" viewBox="0 0 190 255">
  <defs>
    <clipPath id="clip-path">
      <rect id="Rectángulo_407826" data-name="Rectángulo 407826" width="190" height="255" transform="translate(285.051 36611)" fill="#fff" stroke="#707070" stroke-width="1"/>
    </clipPath>
    <clipPath id="clip-path-2">
      <rect id="Rectángulo_407825" data-name="Rectángulo 407825" width="183.054" height="148.594" fill="none"/>
    </clipPath>
    <clipPath id="clip-path-4">
      <rect id="Rectángulo_407803" data-name="Rectángulo 407803" width="62.952" height="78.555" fill="none"/>
    </clipPath>
    <clipPath id="clip-path-5">
      <rect id="Rectángulo_407804" data-name="Rectángulo 407804" width="71.79" height="110.858" fill="none"/>
    </clipPath>
    <clipPath id="clip-path-6">
      <rect id="Rectángulo_407816" data-name="Rectángulo 407816" width="46.984" height="20.943" fill="none"/>
    </clipPath>
    <clipPath id="clip-path-7">
      <rect id="Rectángulo_407817" data-name="Rectángulo 407817" width="131.998" height="79.912" fill="none"/>
    </clipPath>
    <clipPath id="clip-path-8">
      <rect id="Rectángulo_407818" data-name="Rectángulo 407818" width="34.809" height="19.277" fill="none"/>
    </clipPath>
    <clipPath id="clip-path-9">
      <rect id="Rectángulo_407822" data-name="Rectángulo 407822" width="26.264" height="21.829" fill="none"/>
    </clipPath>
    <clipPath id="clip-path-10">
      <rect id="Rectángulo_407823" data-name="Rectángulo 407823" width="6.827" height="6.883" fill="none"/>
    </clipPath>
  </defs>
  <g id="Enmascarar_grupo_1098781" data-name="Enmascarar grupo 1098781" transform="translate(-285.051 -36611)" clip-path="url(#clip-path)">
    <path id="Trazado_1053614" data-name="Trazado 1053614" d="M144.342,42.311A68.917,68.917,0,0,1,111,26.277C96.273,13.664,65.454-7.8,36.054,2.892-4.5,17.638-4.678,60.3,5.885,83.469S91.35,174.5,188.456,163.7c86.9-9.662,103.829-120.257,57.485-140.27-40.2-17.357-53.909,26.869-101.6,18.88" transform="translate(511.09 36798.773) rotate(-177)" fill="#fed401"/>
    <g id="Grupo_1180687" data-name="Grupo 1180687" transform="translate(291.946 36728.406)">
      <g id="Grupo_1180686" data-name="Grupo 1180686" transform="translate(0 -36)" clip-path="url(#clip-path-2)">
        <g id="Grupo_1180685" data-name="Grupo 1180685">
          <g id="Grupo_1180684" data-name="Grupo 1180684" clip-path="url(#clip-path-2)">
            <g id="Grupo_1180665" data-name="Grupo 1180665" transform="translate(87.318 1.302)" opacity="0.7" style="mix-blend-mode: multiply;isolation: isolate">
              <g id="Grupo_1180664" data-name="Grupo 1180664">
                <g id="Grupo_1180663" data-name="Grupo 1180663" clip-path="url(#clip-path-4)">
                  <path id="Trazado_1053560" data-name="Trazado 1053560" d="M126.83,16.864a19.284,19.284,0,0,0,9.9-11.691,22.421,22.421,0,0,0-6.626-3.716c-3.556-1.133-1.454,3.555-4.849,2.262-7.179-2.735-4.686,1.616-8.08,1.616s-6.142-3.878-6.142-3.878c-2.585,0-6.949,3.393-11.958,3.878,2.185,6.136,5.333,9.557,8.714,11.432-28.274,9.888-33.709,63.067,9.386,63.067,42.957,0,37.692-52.84,9.652-62.969" transform="translate(-85.702 -1.278)" fill="gray"/>
                </g>
              </g>
            </g>
            <path id="Trazado_1053561" data-name="Trazado 1053561" d="M115.931,17.908c-6.141,0-13.9-1.776-18.1-13.574,5.01-.484,9.374-3.878,11.959-3.878,0,0,2.747,3.878,6.141,3.878s.9-4.349,8.081-1.616c3.394,1.294,1.292-3.395,4.848-2.262a22.421,22.421,0,0,1,6.626,3.716s-3.394,13.736-19.554,13.736" transform="translate(1.845 0.005)" fill="#5ea370"/>
            <path id="Trazado_1053562" data-name="Trazado 1053562" d="M116.179,78.575c47.511,0,36.037-64.641,0-64.641s-47.511,64.641,0,64.641" transform="translate(1.597 0.263)" fill="#4f855d"/>
            <path id="Trazado_1053563" data-name="Trazado 1053563" d="M116.131,73.4c-21.3,0-28.892-13.667-28.892-26.457,0-15.877,11.045-33.013,28.892-33.013s28.892,17.136,28.892,33.013c0,7.265-2.389,13.787-6.726,18.366-5.013,5.293-12.677,8.091-22.165,8.091" transform="translate(1.645 0.263)" fill="#78d28f"/>
            <path id="Trazado_1053564" data-name="Trazado 1053564" d="M146.341,48.24c0,7.6-2.521,14.441-7.083,19.262-5.262,5.547-13.252,8.482-23.1,8.482-22.25,0-30.188-14.325-30.188-27.744,0-16.5,11.545-34.311,30.188-34.311s30.187,17.814,30.187,34.311" transform="translate(1.621 0.263)" fill="#5ea370"/>
            <path id="Trazado_1053565" data-name="Trazado 1053565" d="M145.783,48.24c0,7.6-2.521,14.441-7.083,19.262-5.262,5.547-13.252,8.482-23.1,8.482V13.929c18.642,0,30.187,17.814,30.187,34.311" transform="translate(2.18 0.263)" fill="#75c78a"/>
            <path id="Trazado_1053566" data-name="Trazado 1053566" d="M114.434,63.787V59.908a25.036,25.036,0,0,1-4.913-.711q-1.875-.517-3.1-.97v-6.4h7.111a2.224,2.224,0,0,0,.387,1.439,2.077,2.077,0,0,0,1.616.469,2.7,2.7,0,0,0,1.52-.323,1.112,1.112,0,0,0,.451-.97,1.044,1.044,0,0,0-.372-.792,5.425,5.425,0,0,0-1.5-.792q-2.392-.9-4.184-1.729A12.933,12.933,0,0,1,108.47,47.3a6.375,6.375,0,0,1-1.761-2.343,8.137,8.137,0,0,1-.583-3.248,9.129,9.129,0,0,1,.436-2.894,5.907,5.907,0,0,1,1.406-2.294,7.315,7.315,0,0,1,2.554-1.616,14.485,14.485,0,0,1,3.91-.857V30.335h4.234v3.653a23.788,23.788,0,0,1,2.682.307q1.165.211,2.133.485t1.778.582a7.772,7.772,0,0,1,1.326.631v5.785H119.8a1.417,1.417,0,0,0-.518-1.277,2.247,2.247,0,0,0-1.26-.339,3.187,3.187,0,0,0-1.535.275,1.01,1.01,0,0,0-.468.953.851.851,0,0,0,.5.808,10.518,10.518,0,0,0,1.5.583q1.874.614,3.54,1.292a11.925,11.925,0,0,1,2.925,1.681,7.329,7.329,0,0,1,1.987,2.424,7.593,7.593,0,0,1,.727,3.491,7.572,7.572,0,0,1-2.165,5.77,10.381,10.381,0,0,1-6.367,2.44v3.91Z" transform="translate(2.001 0.572)" fill="#fff"/>
            <path id="Trazado_1053567" data-name="Trazado 1053567" d="M135.15,4.172A22.446,22.446,0,0,0,128.524.457c-3.556-1.133-1.455,3.555-4.849,2.262C116.5-.015,118.99,4.335,115.6,4.335V17.909c16.16,0,19.554-13.737,19.554-13.737" transform="translate(2.18 0.005)" fill="#75c78a"/>
            <g id="Grupo_1180668" data-name="Grupo 1180668" transform="translate(1.019 1.019)" opacity="0.7" style="mix-blend-mode: multiply;isolation: isolate">
              <g id="Grupo_1180667" data-name="Grupo 1180667">
                <g id="Grupo_1180666" data-name="Grupo 1180666" clip-path="url(#clip-path-5)">
                  <path id="Trazado_1053568" data-name="Trazado 1053568" d="M66.359,30.457H65.27V27.995a5.59,5.59,0,0,0-5.326-5.583l0-19.051L57.716,1l-.879.932L55.957,1,53.8,3.282,51.649,1l-.878.93L49.9,1,47.733,3.29,45.578,1l-.88.933L43.815,1,41.661,3.286,39.508,1l-.878.931L37.752,1,35.594,3.287,34.1,1.7,33.444,1l-.882.934L32.337,1.7,31.685,1,29.529,3.288,27.373,1l-.877.93L25.619,1,23.463,3.288,21.307,1l-.878.932L19.548,1,17.4,3.284,15.243,1l-.881.933L13.481,1,11.325,3.293,9.678,1.549V3.408L7.922,1.549l0,22.544a5.574,5.574,0,0,0-1.588,3.9v2.562A6.427,6.427,0,0,0,1,36.889v68.545a6.424,6.424,0,0,0,6.432,6.425H66.359a6.425,6.425,0,0,0,6.432-6.425V36.889a6.431,6.431,0,0,0-6.432-6.432" transform="translate(-1 -1)" fill="gray"/>
                </g>
              </g>
            </g>
            <path id="Trazado_1053569" data-name="Trazado 1053569" d="M64.1,82.534a5.592,5.592,0,0,1-5.594,5.6H14.5a5.592,5.592,0,0,1-5.6-5.6V26.6A5.6,5.6,0,0,1,14.5,21H58.509A5.594,5.594,0,0,1,64.1,26.6Z" transform="translate(0.168 0.396)" fill="#1b1f19"/>
            <path id="Rectángulo_407805" data-name="Rectángulo 407805" d="M5.493,0H49.7a5.493,5.493,0,0,1,5.493,5.493V61.635A5.493,5.493,0,0,1,49.7,67.128H5.492A5.492,5.492,0,0,1,0,61.636V5.493A5.493,5.493,0,0,1,5.493,0Z" transform="translate(5.336 21.398)" fill="#153152"/>
            <path id="Trazado_1053570" data-name="Trazado 1053570" d="M58.781,2.361,56.554,0,53.519,3.216,50.488,0,47.449,3.22,44.417,0,41.382,3.22,38.346,0,35.314,3.22,32.934.7,32.283,0,29.248,3.22,26.213,0,23.181,3.22,20.146,0,17.118,3.22,14.082,0,11.043,3.224,8.516.549l.011,56.358,2.523,2.673,3.035-3.217,3.032,3.217,3.035-3.217,3.032,3.217,3.031-3.217,3.039,3.217,3.032-3.217.655.69,2.38,2.524,3.031-3.213,3.039,3.213,3.028-3.221,3.039,3.221,3.032-3.221,3.038,3.217,3.032-3.217,2.229,2.366Z" transform="translate(0.161 0)" fill="#e1e1e1"/>
            <path id="Trazado_1053571" data-name="Trazado 1053571" d="M57.054,2.361,54.829,0,51.79,3.216,48.769,0,45.727,3.22,42.687,0,39.651,3.22,36.624,0,33.585,3.22,31.209.7,30.557,0,27.522,3.22,24.49,0,21.454,3.22,18.419,0,15.384,3.22,12.352,0,9.321,3.224,6.794.549,6.8,56.907l2.524,2.673,3.031-3.217,3.035,3.217,3.032-3.217,3.035,3.217,3.031-3.217,3.043,3.217,3.032-3.217.651.69,2.376,2.524,3.035-3.213,3.035,3.213,3.032-3.221,3.035,3.221,3.039-3.221L51.8,59.574l3.035-3.217,2.233,2.366Z" transform="translate(0.128 0)" fill="#fefefe"/>
            <rect id="Rectángulo_407806" data-name="Rectángulo 407806" width="10.511" height="4.831" transform="translate(43.128 6.922)" fill="#5794d9"/>
            <rect id="Rectángulo_407807" data-name="Rectángulo 407807" width="10.507" height="4.824" transform="translate(42.792 16.399)" fill="#5794d9"/>
            <path id="Trazado_1053572" data-name="Trazado 1053572" d="M14.623,28.912a6.433,6.433,0,0,0-6.432,6.432v68.545a6.427,6.427,0,0,0,6.432,6.425H39.908v-81.4Z" transform="translate(0.154 0.545)" fill="#153152"/>
            <path id="Trazado_1053573" data-name="Trazado 1053573" d="M64.617,28.912h-25.3v81.4h25.3a6.425,6.425,0,0,0,6.432-6.425V35.344a6.431,6.431,0,0,0-6.432-6.432" transform="translate(0.741 0.545)" fill="#bf411f"/>
            <rect id="Rectángulo_407808" data-name="Rectángulo 407808" width="22.018" height="4.828" transform="translate(8.982 6.925)" fill="#5794d9"/>
            <rect id="Rectángulo_407809" data-name="Rectángulo 407809" width="8.287" height="4.831" transform="translate(30.999 6.922)" fill="#5794d9"/>
            <rect id="Rectángulo_407810" data-name="Rectángulo 407810" width="8.288" height="4.824" transform="translate(31.002 16.401)" fill="#5794d9"/>
            <rect id="Rectángulo_407811" data-name="Rectángulo 407811" width="22.02" height="4.824" transform="translate(8.982 16.401)" fill="#5794d9"/>
            <rect id="Rectángulo_407812" data-name="Rectángulo 407812" width="8.288" height="4.827" transform="translate(31.002 25.879)" fill="#5794d9"/>
            <rect id="Rectángulo_407813" data-name="Rectángulo 407813" width="22.02" height="4.826" transform="translate(8.982 25.88)" fill="#5794d9"/>
            <rect id="Rectángulo_407814" data-name="Rectángulo 407814" width="10.509" height="4.826" transform="translate(42.795 25.876)" fill="#5794d9"/>
            <rect id="Rectángulo_407815" data-name="Rectángulo 407815" width="21.431" height="7.922" transform="translate(31.873 44.099)" fill="#5794d9"/>
            <path id="Trazado_1053574" data-name="Trazado 1053574" d="M6.432,28.912A6.431,6.431,0,0,0,0,35.344v68.545a6.425,6.425,0,0,0,6.432,6.425H31.72v-81.4Z" transform="translate(0 0.545)" fill="#e85a34"/>
            <path id="Trazado_1053575" data-name="Trazado 1053575" d="M56.429,28.912h-25.3v81.4h25.3a6.426,6.426,0,0,0,6.425-6.425V35.344a6.433,6.433,0,0,0-6.425-6.432" transform="translate(0.587 0.545)" fill="#e85a34"/>
            <path id="Trazado_1053576" data-name="Trazado 1053576" d="M18.72,61.787H8.243a2.225,2.225,0,0,0-2.229,2.229v5.563a2.227,2.227,0,0,0,2.229,2.229H18.72a2.229,2.229,0,0,0,2.229-2.229V64.016a2.227,2.227,0,0,0-2.229-2.229" transform="translate(0.113 1.165)" fill="#e1e1e1"/>
            <path id="Trazado_1053577" data-name="Trazado 1053577" d="M18.72,75.669H8.243A2.227,2.227,0,0,0,6.014,77.9v5.57A2.226,2.226,0,0,0,8.243,85.69H18.72a2.228,2.228,0,0,0,2.229-2.222V77.9a2.228,2.228,0,0,0-2.229-2.229" transform="translate(0.113 1.427)" fill="#e1e1e1"/>
            <path id="Trazado_1053578" data-name="Trazado 1053578" d="M18.665,89.235H8.188a2.225,2.225,0,0,0-2.225,2.226v5.566a2.224,2.224,0,0,0,2.225,2.225H18.665a2.226,2.226,0,0,0,2.229-2.225V91.461a2.227,2.227,0,0,0-2.229-2.226" transform="translate(0.112 1.683)" fill="#e1e1e1"/>
            <path id="Trazado_1053579" data-name="Trazado 1053579" d="M36.573,61.731H26.1a2.227,2.227,0,0,0-2.229,2.226v5.566A2.227,2.227,0,0,0,26.1,71.752H36.573A2.232,2.232,0,0,0,38.8,69.523V63.957a2.231,2.231,0,0,0-2.229-2.226" transform="translate(0.45 1.164)" fill="#e1e1e1"/>
            <path id="Trazado_1053580" data-name="Trazado 1053580" d="M36.573,75.614H26.1a2.228,2.228,0,0,0-2.229,2.225v5.57A2.229,2.229,0,0,0,26.1,85.639H36.573A2.234,2.234,0,0,0,38.8,83.409v-5.57a2.233,2.233,0,0,0-2.229-2.225" transform="translate(0.45 1.426)" fill="#e1e1e1"/>
            <path id="Trazado_1053581" data-name="Trazado 1053581" d="M36.573,89.235H26.1a2.227,2.227,0,0,0-2.229,2.226v5.566A2.226,2.226,0,0,0,26.1,99.252H36.573A2.23,2.23,0,0,0,38.8,97.027V91.461a2.231,2.231,0,0,0-2.229-2.226" transform="translate(0.45 1.683)" fill="#e1e1e1"/>
            <path id="Trazado_1053582" data-name="Trazado 1053582" d="M54.474,61.731H44a2.227,2.227,0,0,0-2.23,2.226v5.566A2.228,2.228,0,0,0,44,71.752H54.474A2.229,2.229,0,0,0,56.7,69.523V63.957a2.228,2.228,0,0,0-2.229-2.226" transform="translate(0.788 1.164)" fill="#e1e1e1"/>
            <path id="Trazado_1053583" data-name="Trazado 1053583" d="M54.474,75.614H44a2.229,2.229,0,0,0-2.23,2.225v5.57A2.23,2.23,0,0,0,44,85.639H54.474A2.231,2.231,0,0,0,56.7,83.409v-5.57a2.23,2.23,0,0,0-2.229-2.225" transform="translate(0.788 1.426)" fill="#e1e1e1"/>
            <path id="Trazado_1053584" data-name="Trazado 1053584" d="M54.474,89.235H44a2.227,2.227,0,0,0-2.23,2.226v5.566A2.227,2.227,0,0,0,44,99.252H54.474A2.228,2.228,0,0,0,56.7,97.027V91.461a2.228,2.228,0,0,0-2.229-2.226" transform="translate(0.788 1.683)" fill="#e1e1e1"/>
            <path id="Trazado_1053585" data-name="Trazado 1053585" d="M17.194,61.787H6.717a2.222,2.222,0,0,0-2.229,2.229v5.563a2.225,2.225,0,0,0,2.229,2.229H17.194a2.226,2.226,0,0,0,2.222-2.229V64.016a2.223,2.223,0,0,0-2.222-2.229" transform="translate(0.085 1.165)" fill="#fff"/>
            <path id="Trazado_1053586" data-name="Trazado 1053586" d="M17.194,75.669H6.717A2.224,2.224,0,0,0,4.488,77.9v5.57A2.223,2.223,0,0,0,6.717,85.69H17.194a2.224,2.224,0,0,0,2.222-2.222V77.9a2.225,2.225,0,0,0-2.222-2.229" transform="translate(0.085 1.427)" fill="#fff"/>
            <path id="Trazado_1053587" data-name="Trazado 1053587" d="M17.138,89.235H6.657a2.229,2.229,0,0,0-2.229,2.226v5.566a2.228,2.228,0,0,0,2.229,2.225H17.138a2.226,2.226,0,0,0,2.226-2.225V91.461a2.227,2.227,0,0,0-2.226-2.226" transform="translate(0.083 1.683)" fill="#fff"/>
            <path id="Trazado_1053588" data-name="Trazado 1053588" d="M35.047,61.731H24.562a2.234,2.234,0,0,0-2.229,2.226v5.566a2.234,2.234,0,0,0,2.229,2.229H35.047a2.234,2.234,0,0,0,2.229-2.229V63.957a2.234,2.234,0,0,0-2.229-2.226" transform="translate(0.421 1.164)" fill="#fff"/>
            <path id="Trazado_1053589" data-name="Trazado 1053589" d="M35.047,75.614H24.562a2.235,2.235,0,0,0-2.229,2.225v5.57a2.236,2.236,0,0,0,2.229,2.229H35.047a2.236,2.236,0,0,0,2.229-2.229v-5.57a2.235,2.235,0,0,0-2.229-2.225" transform="translate(0.421 1.426)" fill="#fff"/>
            <path id="Trazado_1053590" data-name="Trazado 1053590" d="M35.047,89.235H24.562a2.234,2.234,0,0,0-2.229,2.226v5.566a2.233,2.233,0,0,0,2.229,2.225H35.047a2.233,2.233,0,0,0,2.229-2.225V91.461a2.234,2.234,0,0,0-2.229-2.226" transform="translate(0.421 1.683)" fill="#fff"/>
            <path id="Trazado_1053591" data-name="Trazado 1053591" d="M52.947,61.731H42.47a2.227,2.227,0,0,0-2.229,2.226v5.566a2.227,2.227,0,0,0,2.229,2.229H52.947a2.232,2.232,0,0,0,2.229-2.229V63.957a2.231,2.231,0,0,0-2.229-2.226" transform="translate(0.759 1.164)" fill="#fff"/>
            <path id="Trazado_1053592" data-name="Trazado 1053592" d="M52.947,75.614H42.47a2.228,2.228,0,0,0-2.229,2.225v5.57a2.229,2.229,0,0,0,2.229,2.229H52.947a2.234,2.234,0,0,0,2.229-2.229v-5.57a2.233,2.233,0,0,0-2.229-2.225" transform="translate(0.759 1.426)" fill="#fff"/>
            <path id="Trazado_1053593" data-name="Trazado 1053593" d="M52.947,89.235H42.47a2.227,2.227,0,0,0-2.229,2.226v5.566a2.226,2.226,0,0,0,2.229,2.225H52.947a2.23,2.23,0,0,0,2.229-2.225V91.461a2.231,2.231,0,0,0-2.229-2.226" transform="translate(0.759 1.683)" fill="#fff"/>
            <path id="Trazado_1053594" data-name="Trazado 1053594" d="M59.617,50.454a5.307,5.307,0,0,1-5.306,5.31H9.406A5.312,5.312,0,0,1,4.1,50.454V40.124a5.31,5.31,0,0,1,5.306-5.3H54.311a5.306,5.306,0,0,1,5.306,5.3Z" transform="translate(0.077 0.657)" fill="#5794d9"/>
            <path id="Trazado_1053595" data-name="Trazado 1053595" d="M28.1,43.088l1.985-1.228h2.433V52.815H30.054V44.24l-1.955.425Z" transform="translate(0.53 0.789)" fill="#fff"/>
            <path id="Trazado_1053596" data-name="Trazado 1053596" d="M33.51,42.249a15.257,15.257,0,0,1,4.877-.422,2.573,2.573,0,0,1,2.764,2.7v.693a2.008,2.008,0,0,1-1.2,2.151c.866.32,1.2,1.13,1.2,2.271v.546a2.541,2.541,0,0,1-2.87,2.738A14.823,14.823,0,0,1,33.6,52.5l.011-1.827h3.57c1.07,0,1.5-.045,1.5-.885v-.323c0-.806-.5-.923-1.416-.968l-2.738-.1v-2l2.738-.151c1.032-.045,1.443-.177,1.443-.923v-.354c0-.813-.663-.911-1.443-.911H33.51Z" transform="translate(0.632 0.788)" fill="#fff"/>
            <path id="Trazado_1053597" data-name="Trazado 1053597" d="M42.145,43.845c0-1.274.538-1.985,2.048-1.985h1.514c1.462,0,2,.711,2,1.985V45.61c0,1.273-.521,1.989-2.034,1.989H44.163c-1.465,0-2.018-.716-2.018-1.989Zm2.3,2.1H45.4c.6,0,.67-.256.67-.673V44.18c0-.554-.184-.671-.64-.671h-.954c-.463,0-.673.125-.673.671v1.092c0,.429.1.673.641.673M51.47,41.86h1.657L46.472,52.815H44.721Zm-1.289,7.167c0-1.274.517-1.985,2.038-1.985h1.514c1.469,0,2.011.711,2.011,1.985V50.8c0,1.265-.524,1.977-2.034,1.977H52.185c-1.469,0-2-.711-2-1.977Zm2.3,2.1h.934c.6,0,.7-.252.7-.67v-1.1c0-.549-.208-.665-.659-.665H52.5c-.46,0-.673.116-.673.665v1.1c0,.433.1.67.647.67" transform="translate(0.795 0.789)" fill="#fff"/>
            <path id="Trazado_1053598" data-name="Trazado 1053598" d="M58.826,37.338a5.322,5.322,0,0,0-3.679-1.5H10.238a5.31,5.31,0,0,0-5.3,5.3V51.475a5.317,5.317,0,0,0,.775,2.782,5.34,5.34,0,0,1-1.612-3.8V40.124a5.319,5.319,0,0,1,5.306-5.317H54.31a5.284,5.284,0,0,1,4.516,2.531" transform="translate(0.077 0.656)" fill="#447a52"/>
            <g id="Grupo_1180671" data-name="Grupo 1180671" transform="translate(4.271 35.479)" opacity="0.5" style="mix-blend-mode: screen;isolation: isolate">
              <g id="Grupo_1180670" data-name="Grupo 1180670">
                <g id="Grupo_1180669" data-name="Grupo 1180669" clip-path="url(#clip-path-6)">
                  <path id="Trazado_1053599" data-name="Trazado 1053599" d="M18.965,34.822,4.191,51.355a5.26,5.26,0,0,0,1.933,3.239l18-19.772Z" transform="translate(-4.192 -34.822)" fill="#91cce1"/>
                  <path id="Trazado_1053600" data-name="Trazado 1053600" d="M30.076,34.822,10.908,55.765H31.865L51.049,34.822Z" transform="translate(-4.065 -34.822)" fill="#91cce1"/>
                </g>
              </g>
            </g>
            <g id="Grupo_1180674" data-name="Grupo 1180674" transform="translate(51.056 68.682)" opacity="0.7" style="mix-blend-mode: multiply;isolation: isolate">
              <g id="Grupo_1180673" data-name="Grupo 1180673">
                <g id="Grupo_1180672" data-name="Grupo 1180672" clip-path="url(#clip-path-7)">
                  <path id="Trazado_1053601" data-name="Trazado 1053601" d="M155.846,70.117v3.216H152.02v1.99c-5.406-1.789-10.708-3.829-16.494-5.456a76.032,76.032,0,0,0-18.366-2.455c-6.43,0-12.614,2.121-18.887,3.312-2.874.5-6.256.161-8.462,2.35-1.685,1.542-2.715,4.24-4.225,5.938-3.383,3.718-9.248,9.7-10.336,11.338a9.7,9.7,0,0,0-.711,2.772H87.816l-.005,0h-37.7v54.2h95.813V109.007c2.087-.171,4.127-.352,6.1-.53v2.1h3.826v3.213h26.263V70.117ZM95.354,87.64c-.373.306-.779.6-1.19.9.411-.3.818-.6,1.192-.9H116.9c3.513.03,9.322,3.411,8.479,5.487l0,0H95.215a35.431,35.431,0,0,0,3.059-1.877c3.092-.369,6.41-1.473,9.319-2,2.114-.422,4.319-.931,6.432-1.356q.488-.105.988-.256Z" transform="translate(-50.111 -67.411)" fill="gray"/>
                </g>
              </g>
            </g>
            <path id="Trazado_1053602" data-name="Trazado 1053602" d="M77.958,104.855c.163-.3.319-.636.473-.99,1.28-2.7,3.285-6.851,3.785-10.218,1.879-1.484,3.713-2.781,5.355-4.172,1.5-1.158,3.8-2.472,5.537-3.9h19.659q-.5.15-.988.256c-2.113.425-4.318.934-6.432,1.356-2.91.524-6.227,1.628-9.319,2a43.524,43.524,0,0,1-4.311,2.577A30.047,30.047,0,0,0,87.178,95.2c-.7,2.348-1.249,4.978-2.573,6.893-1.456,1.987-4.162,2.683-6.647,2.765" transform="translate(1.47 1.614)" fill="#d89f75"/>
            <g id="Grupo_1180677" data-name="Grupo 1180677" transform="translate(79.428 87.191)" opacity="0.4" style="mix-blend-mode: multiply;isolation: isolate">
              <g id="Grupo_1180676" data-name="Grupo 1180676">
                <g id="Grupo_1180675" data-name="Grupo 1180675" clip-path="url(#clip-path-8)">
                  <path id="Trazado_1053603" data-name="Trazado 1053603" d="M77.958,104.855c.163-.3.319-.636.473-.99,1.28-2.7,3.285-6.851,3.785-10.218,1.879-1.484,3.713-2.781,5.355-4.172,1.5-1.158,3.8-2.472,5.537-3.9h19.659q-.5.15-.988.256c-2.113.425-4.318.934-6.432,1.356-2.91.524-6.227,1.628-9.319,2a43.524,43.524,0,0,1-4.311,2.577A30.047,30.047,0,0,0,87.178,95.2c-.7,2.348-1.249,4.978-2.573,6.893-1.456,1.987-4.162,2.683-6.647,2.765" transform="translate(-77.958 -85.578)" fill="#b0b0b0"/>
                </g>
              </g>
            </g>
            <rect id="Rectángulo_407819" data-name="Rectángulo 407819" width="95.813" height="54.197" transform="translate(49.336 92.677)" fill="#447a52"/>
            <path id="Trazado_1053604" data-name="Trazado 1053604" d="M128.143,93.813l-63.732,0a16.31,16.31,0,0,1-13.136,13.136v22.118A16.313,16.313,0,0,1,64.41,142.2h63.732a16.314,16.314,0,0,1,13.136-13.138V106.947a16.306,16.306,0,0,1-13.136-13.134" transform="translate(0.967 1.769)" fill="#68b37b"/>
            <path id="Trazado_1053605" data-name="Trazado 1053605" d="M95.5,142.2h31.807a16.314,16.314,0,0,1,13.136-13.137V106.947a16.3,16.3,0,0,1-13.136-13.134H95.5Z" transform="translate(1.801 1.769)" fill="#75c78a"/>
            <path id="Trazado_1053606" data-name="Trazado 1053606" d="M116.874,117.851c0,8.685-9.42,15.727-21.041,15.724s-21.041-7.039-21.041-15.727,9.42-15.724,21.041-15.724,21.041,7.039,21.041,15.727" transform="translate(1.41 1.926)" fill="#447a52"/>
            <path id="Trazado_1053607" data-name="Trazado 1053607" d="M69.889,117.642a4.408,4.408,0,1,1-4.41-4.408,4.41,4.41,0,0,1,4.41,4.408" transform="translate(1.152 2.135)" fill="#447a52"/>
            <path id="Trazado_1053608" data-name="Trazado 1053608" d="M129.977,117.642a4.408,4.408,0,1,1-4.409-4.408,4.409,4.409,0,0,1,4.409,4.408" transform="translate(2.285 2.135)" fill="#447a52"/>
            <path id="Trazado_1053609" data-name="Trazado 1053609" d="M93.927,131.654v-3.136a20.363,20.363,0,0,1-3.973-.575q-1.516-.417-2.507-.784v-5.174H93.2a1.8,1.8,0,0,0,.313,1.161,1.682,1.682,0,0,0,1.307.38,2.183,2.183,0,0,0,1.229-.262.9.9,0,0,0,.366-.785.839.839,0,0,0-.3-.639,4.376,4.376,0,0,0-1.214-.641q-1.935-.732-3.384-1.4a10.422,10.422,0,0,1-2.4-1.477,5.153,5.153,0,0,1-1.424-1.894,6.593,6.593,0,0,1-.47-2.626,7.358,7.358,0,0,1,.353-2.339,4.77,4.77,0,0,1,1.136-1.855,5.911,5.911,0,0,1,2.065-1.306,11.7,11.7,0,0,1,3.162-.693v-3.006h3.423v2.954a19.476,19.476,0,0,1,2.169.248q.94.171,1.725.392t1.437.471a6.313,6.313,0,0,1,1.071.509v4.677H98.266a1.144,1.144,0,0,0-.419-1.031,1.815,1.815,0,0,0-1.02-.274,2.57,2.57,0,0,0-1.241.222.818.818,0,0,0-.378.77.689.689,0,0,0,.4.654,8.5,8.5,0,0,0,1.214.47q1.518.5,2.862,1.044a9.624,9.624,0,0,1,2.365,1.36,5.909,5.909,0,0,1,1.608,1.96,7.078,7.078,0,0,1-1.164,7.486,8.385,8.385,0,0,1-5.147,1.973v3.163Z" transform="translate(1.644 1.972)" fill="#75c78a"/>
            <path id="Trazado_1053610" data-name="Trazado 1053610" d="M162.941,77.019v28.7c-4.455.217-11.565.977-19.157,1.6-8.159.668-14.1,1.131-21.293,1.568-5.572.338-18.115,9.651-21.2,4.874-4.6-7.123,17.33-10.951,21.947-22.327.843-2.075-4.965-5.457-8.479-5.488H93.215c-1.742,1.438-4.035,2.743-5.545,3.907-.625.537-1.292,1.059-1.975,1.58H72.4a9.681,9.681,0,0,1,.712-2.772C74.2,87.02,80.063,81.04,83.445,77.324c1.51-1.7,2.541-4.4,4.225-5.939,2.206-2.19,5.587-1.855,8.463-2.351,6.272-1.19,12.457-3.311,18.887-3.311a76.023,76.023,0,0,1,18.365,2.455c10.278,2.889,19.017,7.113,29.556,8.841" transform="translate(1.365 1.239)" fill="#fdc5a7"/>
            <rect id="Rectángulo_407820" data-name="Rectángulo 407820" width="20.438" height="37.243" transform="translate(151.245 72.883)" fill="#fff"/>
            <path id="Trazado_1053611" data-name="Trazado 1053611" d="M178.464,68.379H152.2V112.05h26.264V68.379Z" transform="translate(2.87 1.289)" fill="#153152"/>
            <g id="Grupo_1180680" data-name="Grupo 1180680" transform="translate(155.07 69.742)" opacity="0.44" style="mix-blend-mode: multiply;isolation: isolate">
              <g id="Grupo_1180679" data-name="Grupo 1180679">
                <g id="Grupo_1180678" data-name="Grupo 1180678" clip-path="url(#clip-path-9)">
                  <rect id="Rectángulo_407821" data-name="Rectángulo 407821" width="26.264" height="21.829" fill="#a8a8a8"/>
                </g>
              </g>
            </g>
            <path id="Trazado_1053612" data-name="Trazado 1053612" d="M160.851,77.5a4.318,4.318,0,1,1,4.319,4.316,4.318,4.318,0,0,1-4.319-4.316" transform="translate(3.033 1.38)" fill="#dbe7e6"/>
            <g id="Grupo_1180683" data-name="Grupo 1180683" transform="translate(103.314 108.786)" opacity="0.69">
              <g id="Grupo_1180682" data-name="Grupo 1180682">
                <g id="Grupo_1180681" data-name="Grupo 1180681" clip-path="url(#clip-path-10)">
                  <path id="Trazado_1053613" data-name="Trazado 1053613" d="M101.439,110.085c.393-1.524,4.251-3.313,4.251-3.313l2.539,5.172s-3.039,1.647-4.551,1.711-2.48-2.633-2.238-3.569" transform="translate(-101.402 -106.773)" fill="#edd5d8"/>
                </g>
              </g>
            </g>
          </g>
        </g>
      </g>
    </g>
  </g>
</svg>
