<svg xmlns="http://www.w3.org/2000/svg" xmlns:xlink="http://www.w3.org/1999/xlink" width="113" height="113" viewBox="0 0 113 113">
  <defs>
    <filter id="Trazado_896985" x="0" y="0" width="113" height="113" filterUnits="userSpaceOnUse">
      <feOffset dy="3" input="SourceAlpha"/>
      <feGaussianBlur stdDeviation="3" result="blur"/>
      <feFlood flood-opacity="0.161"/>
      <feComposite operator="in" in2="blur"/>
      <feComposite in="SourceGraphic"/>
    </filter>
    <clipPath id="clip-path">
      <rect id="Rect치ngulo_406877" data-name="Rect치ngulo 406877" width="58.479" height="60.043" fill="none"/>
    </clipPath>
  </defs>
  <g id="Grupo_1178815" data-name="Grupo 1178815" transform="translate(9 6)">
    <g id="Grupo_1111319" data-name="Grupo 1111319" transform="translate(0 0)">
      <g id="Grupo_1109827" data-name="Grupo 1109827">
        <g id="Grupo_1098742" data-name="Grupo 1098742">
          <g transform="matrix(1, 0, 0, 1, -9, -6)" filter="url(#Trazado_896985)">
            <g id="Trazado_896985-2" data-name="Trazado 896985" transform="translate(9 6)" fill="#5ab4f9" opacity="0.859">
              <path d="M 47.49993515014648 93.5 C 41.28932189941406 93.5 35.26528167724609 92.28396606445312 29.59514808654785 89.88571929931641 C 24.1176815032959 87.56893920898438 19.1981086730957 84.25196838378906 14.97306823730469 80.02693176269531 C 10.74802875518799 75.80188751220703 7.431055068969727 70.88231658935547 5.11428165435791 65.40484619140625 C 2.716028451919556 59.73471450805664 1.500001788139343 53.71067428588867 1.500001788139343 47.50006103515625 C 1.500001788139343 41.2893180847168 2.716028451919556 35.26527786254883 5.11428165435791 29.59514236450195 C 7.431055068969727 24.11768913269043 10.74802875518799 19.1981029510498 14.97306823730469 14.97306251525879 C 19.1981086730957 10.74802303314209 24.1176815032959 7.431049346923828 29.59514808654785 5.114289283752441 C 35.26528167724609 2.716022968292236 41.28932189941406 1.499996185302734 47.49993515014648 1.499996185302734 C 53.71054840087891 1.499996185302734 59.73458862304688 2.716022968292236 65.40472412109375 5.114289283752441 C 70.88218688964844 7.431049346923828 75.80176544189453 10.74802303314209 80.02680206298828 14.97306251525879 C 84.25183868408203 19.1981029510498 87.56881713867188 24.11768913269043 89.88558959960938 29.59514236450195 C 92.28384399414062 35.26527786254883 93.49987030029297 41.2893180847168 93.49987030029297 47.49993133544922 C 93.49987030029297 53.71067428588867 92.28384399414062 59.73471450805664 89.88558959960938 65.40484619140625 C 87.56881713867188 70.88231658935547 84.25183868408203 75.80188751220703 80.02680206298828 80.02693176269531 C 75.80176544189453 84.25196838378906 70.88218688964844 87.56893920898438 65.40472412109375 89.88571929931641 C 59.73458862304688 92.28396606445312 53.71054840087891 93.5 47.49993515014648 93.5 Z" stroke="none"/>
              <path d="M 47.49993515014648 2.999992370605469 C 41.49116516113281 2.999992370605469 35.66371917724609 4.1761474609375 30.17947387695312 6.495796203613281 C 24.88081359863281 8.736930847167969 20.12149047851562 11.94596862792969 16.03372192382812 16.03372192382812 C 11.94596862792969 20.12149047851562 8.7369384765625 24.88081359863281 6.495796203613281 30.17947387695312 C 4.1761474609375 35.66371917724609 3 41.49116516113281 3 47.50005722045898 C 3 53.50882720947266 4.1761474609375 59.33627319335938 6.495796203613281 64.82051849365234 C 8.7369384765625 70.11917877197266 11.94596862792969 74.87850189208984 16.03372192382812 78.96627044677734 C 20.12149047851562 83.05402374267578 24.88081359863281 86.2630615234375 30.17947387695312 88.50419616699219 C 35.66371917724609 90.82384490966797 41.49116516113281 92 47.49993515014648 92 C 53.50870513916016 92 59.33615112304688 90.82384490966797 64.82039642333984 88.50419616699219 C 70.11905670166016 86.2630615234375 74.87837982177734 83.05402374267578 78.96614837646484 78.96627044677734 C 83.05390167236328 74.87850189208984 86.26293182373047 70.11917877197266 88.50407409667969 64.82051849365234 C 90.82372283935547 59.33627319335938 91.99987030029297 53.50882720947266 91.99987030029297 47.49993515014648 C 91.99987030029297 41.49116516113281 90.82372283935547 35.66371917724609 88.50407409667969 30.17947387695312 C 86.26293182373047 24.88081359863281 83.05390167236328 20.12149047851562 78.96614837646484 16.03372192382812 C 74.87837982177734 11.94596862792969 70.11905670166016 8.736930847167969 64.82039642333984 6.495796203613281 C 59.33615112304688 4.1761474609375 53.50870513916016 2.999992370605469 47.49993515014648 2.999992370605469 M 47.49993515014648 -7.62939453125e-06 C 73.73342895507812 -7.62939453125e-06 94.99987030029297 21.26644134521484 94.99987030029297 47.49993515014648 L 94.99987030029297 47.50005722045898 C 94.99987030029297 73.73355102539062 73.73342895507812 95 47.49993515014648 95 C 21.26644134521484 95 0 73.73355102539062 0 47.50005722045898 L 0 47.49993515014648 C 0 21.26644134521484 21.26644134521484 -7.62939453125e-06 47.49993515014648 -7.62939453125e-06 Z" stroke="none" fill="#fff"/>
            </g>
          </g>
          <g id="Rect치ngulo_400907" data-name="Rect치ngulo 400907" transform="translate(0)" fill="none" stroke="#fff" stroke-width="3">
            <rect width="95" height="95" rx="47.5" stroke="none"/>
            <rect x="1.5" y="1.5" width="92" height="92" rx="46" fill="none"/>
          </g>
        </g>
      </g>
    </g>
    <g id="Grupo_1178869" data-name="Grupo 1178869" transform="translate(18.261 17.479)">
      <g id="Grupo_1178868" data-name="Grupo 1178868" clip-path="url(#clip-path)">
        <path id="Trazado_1034097" data-name="Trazado 1034097" d="M3.741,382.221a.1.1,0,0,0-.01-.106c.663,0,1.326-.01,1.989-.009q4.772.008,9.543.021a.144.144,0,0,1-.018.094Z" transform="translate(-3.146 -322.178)" fill="#787878"/>
        <path id="Trazado_1034098" data-name="Trazado 1034098" d="M12.118,84.987q-4.772-.011-9.543-.021c-.663,0-1.326.006-1.989.009a.82.82,0,0,1-.585-.9q0-10.7,0-21.4c0-.7.289-.964,1.017-.964q5.365,0,10.73,0c.739,0,1.012.279,1.027,1.031.006.311,0,.621,0,.932a1.889,1.889,0,0,0,1.886-1.338Q16.4,56.3,18.135,50.257c.037-.13.054-.266.08-.4.343-1.137.689-2.273,1.027-3.411.267-.9.55-1.058,1.459-.8.371.107.742.217,1.168.342a15.869,15.869,0,0,1,4.538-11.447A15.511,15.511,0,0,1,37.738,29.7,15.9,15.9,0,0,1,53.617,43.218a15.359,15.359,0,0,1-2.051,10.6,15.887,15.887,0,0,1-10.938,7.589,4.13,4.13,0,0,1,.008,4.166l-.682.8A3.971,3.971,0,0,1,39.04,72.8a4,4,0,0,1-.889,5.512,3.977,3.977,0,0,1,.829,3.712,3.448,3.448,0,0,1-2.986,2.6,8.135,8.135,0,0,1-.994.062q-8.834.006-17.668.01a1.689,1.689,0,0,1-1.348-.544,4.707,4.707,0,0,0-3.207-1.34c0,.445.008.852,0,1.258a.828.828,0,0,1-.658.91M32.395,65.578H33c1.487,0,2.973.009,4.46,0a1.929,1.929,0,0,0,1.994-1.408,2.058,2.058,0,0,0-2.127-2.782q-6.133-.011-12.265,0c-1.083,0-1.359-.376-1.055-1.426q.66-2.276,1.321-4.552a6.646,6.646,0,0,0,.168-3.188,6.127,6.127,0,0,0-4.813-4.794c-.037.1-.081.21-.113.32-1.453,5.043-2.922,10.08-4.339,15.133a2.794,2.794,0,0,1-1.466,1.859c-.619.316-1.286.537-1.957.811V81.126l.533.078a6.927,6.927,0,0,1,3.517,1.478,1.592,1.592,0,0,0,.925.349q8.627.031,17.254.012a5.3,5.3,0,0,0,.875-.066,1.757,1.757,0,0,0,1.437-1.227,2.06,2.06,0,0,0-2.024-2.89c-.972-.006-1.944,0-2.926,0V77.213c1.282,0,2.533.019,3.784-.006A1.893,1.893,0,0,0,38.1,75.431a1.979,1.979,0,0,0-1.21-2.232,3.831,3.831,0,0,0-1.15-.163c-1.109-.021-2.218-.007-3.328-.007V71.384h.451c1.545,0,3.091.012,4.636,0a1.848,1.848,0,0,0,1.973-1.485A2.009,2.009,0,0,0,37.4,67.226c-1.659-.01-3.318,0-5.008,0Zm19.724-19.9c0-.43.016-.861-.005-1.29a6.855,6.855,0,0,0-.12-.989c-1.117-5.709-4.369-9.667-9.932-11.388-5.516-1.706-10.459-.354-14.52,3.745A13.64,13.64,0,0,0,23.562,46.3a1.061,1.061,0,0,0,.363.717A7.575,7.575,0,0,1,27.2,54.069a2.123,2.123,0,0,0,.892,2.074c.03.024.057.053.087.079,2.581,2.217,5.439,3.71,8.973,3.529.633-.032,1.282.217,1.912.171A14.2,14.2,0,0,0,52.119,45.678M1.68,83.346H2.3c2.738,0,5.476-.015,8.214.013.533.005.645-.162.644-.665q-.025-9.358-.012-18.716c0-.189-.019-.378-.03-.585H1.68ZM26.546,57.075l-.75,2.63h4.266l-3.516-2.63" transform="translate(0 -25.038)" fill="#040302"/>
        <path id="Trazado_1034099" data-name="Trazado 1034099" d="M135.971,49.327a4.13,4.13,0,0,0-.008-4.166A15.887,15.887,0,0,0,146.9,37.572a15.359,15.359,0,0,0,2.051-10.6,15.9,15.9,0,0,0-15.879-13.52A15.51,15.51,0,0,0,121.742,18.3,15.87,15.87,0,0,0,117.2,29.748c-.426-.125-.8-.235-1.168-.342-.91-.262-1.192-.1-1.459.8-.338,1.138-.684,2.274-1.027,3.411l-.482-4.174,1.123-.056a19.057,19.057,0,0,1,18.827-18.949,19.015,19.015,0,0,1,4.808,37.453l.229,1.07-2.083.37" transform="translate(-95.335 -8.794)" fill="#fbd840"/>
        <path id="Trazado_1034100" data-name="Trazado 1034100" d="M135.6,40.163l-.229-1.07a19.015,19.015,0,0,0-4.808-37.453,18.677,18.677,0,0,0-13.3,5.634,18.694,18.694,0,0,0-5.528,13.315l-1.123.056-.45-.055a20.595,20.595,0,1,1,25.59,20l-.154-.429" transform="translate(-92.876 -0.001)" fill="#050403"/>
        <path id="Trazado_1034101" data-name="Trazado 1034101" d="M101.239,160.876v1.645c1.689,0,3.349-.008,5.008,0a2.009,2.009,0,0,1,2.065,2.668,1.849,1.849,0,0,1-1.973,1.485c-1.545.016-3.091,0-4.636,0h-.451v1.646c1.11,0,2.219-.013,3.328.007a3.815,3.815,0,0,1,1.15.163,1.979,1.979,0,0,1,1.21,2.231,1.894,1.894,0,0,1-1.916,1.776c-1.25.024-2.5.006-3.784.006v1.647c.982,0,1.954,0,2.926,0a2.06,2.06,0,0,1,2.024,2.89,1.757,1.757,0,0,1-1.437,1.227,5.319,5.319,0,0,1-.875.065q-8.627.005-17.253-.012a1.588,1.588,0,0,1-.925-.349,6.931,6.931,0,0,0-3.517-1.478l-.533-.078V160.843c.671-.274,1.338-.495,1.957-.811a2.8,2.8,0,0,0,1.466-1.859c1.417-5.053,2.886-10.09,4.339-15.133.032-.11.076-.217.113-.32a6.127,6.127,0,0,1,4.812,4.794,6.645,6.645,0,0,1-.168,3.187q-.661,2.276-1.321,4.553c-.3,1.05-.028,1.426,1.055,1.426q6.133,0,12.265,0a2.058,2.058,0,0,1,2.127,2.782,1.929,1.929,0,0,1-1.994,1.408c-1.487.012-2.973,0-4.46,0h-.6" transform="translate(-68.844 -120.336)" fill="#fdccbd"/>
        <path id="Trazado_1034102" data-name="Trazado 1034102" d="M178.713,54.252A14.2,14.2,0,0,1,165.654,68.5c-.63.045-1.279-.2-1.912-.171-3.534.181-6.392-1.312-8.973-3.529-.03-.025-.056-.055-.087-.079a2.123,2.123,0,0,1-.892-2.074,7.575,7.575,0,0,0-3.272-7.051,1.061,1.061,0,0,1-.363-.717,13.64,13.64,0,0,1,3.98-10.545c4.062-4.1,9-5.451,14.52-3.745,5.564,1.721,8.816,5.679,9.932,11.388a6.857,6.857,0,0,1,.12.989c.021.429.005.86.005,1.29M165.246,62.09a14.593,14.593,0,0,0,1.929-.679,4.213,4.213,0,0,0,2.135-4.664,4.332,4.332,0,0,0-4.041-3.337,14.946,14.946,0,0,1-2.212-.209,2.206,2.206,0,0,1-1.928-2.578A2.573,2.573,0,0,1,163.5,48.2a22.447,22.447,0,0,1,2.463-.007,1.848,1.848,0,0,1,1.759,1.6c.062.359.063.729.093,1.1H169.4a4.133,4.133,0,0,0-.608-2.782,3.854,3.854,0,0,0-3.553-1.613V43.313h-1.627v3.2c-.167.024-.279.043-.392.057a4.275,4.275,0,0,0-3.73,3.984,3.786,3.786,0,0,0,3.145,4.232,16.978,16.978,0,0,0,2.557.264,2.63,2.63,0,1,1-.124,5.259q-.939.01-1.878,0a1.977,1.977,0,0,1-2.062-2.014c-.007-.247,0-.494,0-.74h-1.613a3.967,3.967,0,0,0,.687,2.934,3.823,3.823,0,0,0,3.437,1.477v3.224h1.611Z" transform="translate(-126.594 -33.613)" fill="#fca732"/>
        <path id="Trazado_1034103" data-name="Trazado 1034103" d="M10.711,264.506V244.553h9.436c.011.207.03.4.03.585q0,9.358.012,18.716c0,.5-.111.67-.644.665-2.738-.028-5.476-.013-8.214-.013h-.62" transform="translate(-9.031 -206.198)" fill="#425368"/>
        <path id="Trazado_1034104" data-name="Trazado 1034104" d="M165.226,204.27l3.516,2.63h-4.266l.75-2.63" transform="translate(-138.68 -172.233)" fill="#f9d640"/>
        <path id="Trazado_1034105" data-name="Trazado 1034105" d="M215.44,80.625v3.1h-1.611V80.5a3.823,3.823,0,0,1-3.437-1.477,3.967,3.967,0,0,1-.687-2.934h1.613c0,.246-.006.493,0,.74a1.977,1.977,0,0,0,2.062,2.014q.939.011,1.878,0a2.63,2.63,0,1,0,.124-5.259,16.979,16.979,0,0,1-2.557-.264,3.786,3.786,0,0,1-3.145-4.232,4.276,4.276,0,0,1,3.73-3.984c.113-.014.225-.032.392-.057v-3.2h1.627v3.194a3.854,3.854,0,0,1,3.553,1.613,4.132,4.132,0,0,1,.608,2.782h-1.583c-.03-.373-.031-.743-.093-1.1a1.848,1.848,0,0,0-1.759-1.6,22.447,22.447,0,0,0-2.463.007,2.573,2.573,0,0,0-2.37,2.419,2.206,2.206,0,0,0,1.928,2.578,14.948,14.948,0,0,0,2.212.209,4.332,4.332,0,0,1,4.041,3.337,4.213,4.213,0,0,1-2.135,4.664,14.592,14.592,0,0,1-1.929.679" transform="translate(-176.788 -52.148)" fill="#050301"/>
      </g>
    </g>
  </g>
</svg>
