<svg xmlns="http://www.w3.org/2000/svg" xmlns:xlink="http://www.w3.org/1999/xlink" width="113" height="113" viewBox="0 0 113 113">
  <defs>
    <filter id="Trazado_896985" x="0" y="0" width="113" height="113" filterUnits="userSpaceOnUse">
      <feOffset dy="3" input="SourceAlpha"/>
      <feGaussianBlur stdDeviation="3" result="blur"/>
      <feFlood flood-opacity="0.161"/>
      <feComposite operator="in" in2="blur"/>
      <feComposite in="SourceGraphic"/>
    </filter>
  </defs>
  <g id="Grupo_1178814" data-name="Grupo 1178814" transform="translate(9 6)">
    <g id="Grupo_1111319" data-name="Grupo 1111319" transform="translate(0 0)">
      <g id="Grupo_1109827" data-name="Grupo 1109827">
        <g id="Grupo_1098742" data-name="Grupo 1098742">
          <g transform="matrix(1, 0, 0, 1, -9, -6)" filter="url(#Trazado_896985)">
            <g id="Trazado_896985-2" data-name="Trazado 896985" transform="translate(9 6)" fill="#5ab4f9" opacity="0.859">
              <path d="M 47.49993133544922 93.5 C 41.2893180847168 93.5 35.26527786254883 92.28396606445312 29.59514427185059 89.88571929931641 C 24.11767768859863 87.56893920898438 19.19810485839844 84.25196838378906 14.97306442260742 80.02693176269531 C 10.74802494049072 75.80188751220703 7.431051254272461 70.88231658935547 5.114277839660645 65.40484619140625 C 2.71602463722229 59.73471450805664 1.499997973442078 53.71067428588867 1.499997973442078 47.50006103515625 C 1.499997973442078 41.2893180847168 2.71602463722229 35.26527786254883 5.114277839660645 29.59514236450195 C 7.431051254272461 24.11768913269043 10.74802494049072 19.1981029510498 14.97306442260742 14.97306251525879 C 19.19810485839844 10.74802303314209 24.11767768859863 7.431049346923828 29.59514427185059 5.114289283752441 C 35.26527786254883 2.716022968292236 41.2893180847168 1.499996185302734 47.49993133544922 1.499996185302734 C 53.71054458618164 1.499996185302734 59.73458480834961 2.716022968292236 65.40471649169922 5.114289283752441 C 70.88218688964844 7.431049346923828 75.8017578125 10.74802303314209 80.02679443359375 14.97306251525879 C 84.25183868408203 19.1981029510498 87.56880950927734 24.11768913269043 89.88558197021484 29.59514236450195 C 92.28383636474609 35.26527786254883 93.49986267089844 41.2893180847168 93.49986267089844 47.49993133544922 C 93.49986267089844 53.71067428588867 92.28383636474609 59.73471450805664 89.88558197021484 65.40484619140625 C 87.56880950927734 70.88231658935547 84.25183868408203 75.80188751220703 80.02679443359375 80.02693176269531 C 75.8017578125 84.25196838378906 70.88218688964844 87.56893920898438 65.40471649169922 89.88571929931641 C 59.73458480834961 92.28396606445312 53.71054458618164 93.5 47.49993133544922 93.5 Z" stroke="none"/>
              <path d="M 47.49993133544922 2.999992370605469 C 41.49116134643555 2.999992370605469 35.66371536254883 4.1761474609375 30.17946624755859 6.495796203613281 C 24.88080596923828 8.736930847167969 20.12148284912109 11.94596862792969 16.03371429443359 16.03372192382812 C 11.94596099853516 20.12149047851562 8.736930847167969 24.88081359863281 6.495796203613281 30.17947387695312 C 4.1761474609375 35.66371917724609 2.999992370605469 41.49116516113281 2.999992370605469 47.50005722045898 C 2.999992370605469 53.50882720947266 4.1761474609375 59.33627319335938 6.495796203613281 64.82051849365234 C 8.736930847167969 70.11917877197266 11.94596099853516 74.87850189208984 16.03371429443359 78.96627044677734 C 20.12148284912109 83.05402374267578 24.88080596923828 86.2630615234375 30.17946624755859 88.50419616699219 C 35.66371536254883 90.82384490966797 41.49116134643555 92 47.49993133544922 92 C 53.50870132446289 92 59.33614730834961 90.82384490966797 64.82038879394531 88.50419616699219 C 70.11905670166016 86.2630615234375 74.87836456298828 83.05402374267578 78.96613311767578 78.96627044677734 C 83.05390167236328 74.87850189208984 86.26291656494141 70.11917877197266 88.50406646728516 64.82051849365234 C 90.82369995117188 59.33627319335938 91.99985504150391 53.50882720947266 91.99985504150391 47.49993515014648 C 91.99985504150391 41.49116516113281 90.82369995117188 35.66371917724609 88.50406646728516 30.17947387695312 C 86.26291656494141 24.88081359863281 83.05390167236328 20.12149047851562 78.96613311767578 16.03372192382812 C 74.87836456298828 11.94596862792969 70.11905670166016 8.736930847167969 64.82038879394531 6.495796203613281 C 59.33614730834961 4.1761474609375 53.50870132446289 2.999992370605469 47.49993133544922 2.999992370605469 M 47.49993133544922 -7.62939453125e-06 C 73.73342132568359 -7.62939453125e-06 94.99985504150391 21.26644134521484 94.99985504150391 47.49993515014648 L 94.99985504150391 47.50005722045898 C 94.99985504150391 73.73355102539062 73.73342132568359 95 47.49993133544922 95 C 21.26644134521484 95 -7.62939453125e-06 73.73355102539062 -7.62939453125e-06 47.50005722045898 L -7.62939453125e-06 47.49993515014648 C -7.62939453125e-06 21.26644134521484 21.26644134521484 -7.62939453125e-06 47.49993133544922 -7.62939453125e-06 Z" stroke="none" fill="#fff"/>
            </g>
          </g>
          <g id="Rectángulo_400907" data-name="Rectángulo 400907" transform="translate(0)" fill="none" stroke="#fff" stroke-width="3">
            <rect width="95" height="95" rx="47.5" stroke="none"/>
            <rect x="1.5" y="1.5" width="92" height="92" rx="46" fill="none"/>
          </g>
        </g>
      </g>
    </g>
    <g id="market-analysis_2172265" transform="translate(16.821 16.821)">
      <path id="Trazado_1034003" data-name="Trazado 1034003" d="M61.419,34.312A14.835,14.835,0,0,0,47,23V37.845l1.484,1.484,3.959,3.959,5.047,5.047a14.828,14.828,0,0,0,3.929-14.023Z" transform="translate(-1.477 -1.228)" fill="#e6e9ed"/>
      <path id="Trazado_1034004" data-name="Trazado 1034004" d="M46.845,32.9v4.948H32A14.85,14.85,0,0,1,46.845,23Z" transform="translate(-1.321 -1.228)" fill="#ff826e"/>
      <path id="Trazado_1034005" data-name="Trazado 1034005" d="M52.288,43.443l5.047,5.047a14.827,14.827,0,0,1-21.614-.663l.238-1.91h.99a.993.993,0,0,0,.99-.99V42.948a.993.993,0,0,0-.99-.99H32.534A14.874,14.874,0,0,1,32,38H46.845l1.484,1.484Z" transform="translate(-1.321 -1.383)" fill="#fcd770"/>
      <g id="Grupo_1178797" data-name="Grupo 1178797" transform="translate(2.969 44.534)">
        <path id="Trazado_1034006" data-name="Trazado 1034006" d="M35.887,46l-.238,1.91-.812,6.462L25.07,46Z" transform="translate(-4.218 -46)" fill="#e6e9ed"/>
        <path id="Trazado_1034007" data-name="Trazado 1034007" d="M11.934,61.853H7.748a1.986,1.986,0,0,1-1.969-1.732L5.65,59.1,18.782,47.85a3.922,3.922,0,0,0,2.138,0L34.053,59.1l-.129,1.019a1.986,1.986,0,0,1-1.969,1.732H11.934Z" transform="translate(-4.017 -46.019)" fill="#e6e9ed"/>
        <path id="Trazado_1034008" data-name="Trazado 1034008" d="M14.817,46,5.049,54.372,4,46Z" transform="translate(-4 -46)" fill="#e6e9ed"/>
      </g>
      <path id="Trazado_1034009" data-name="Trazado 1034009" d="M2.99,42h13.4a3.948,3.948,0,0,0-.534,1.979,3.865,3.865,0,0,0,.119.96L14.8,45.959H2.99a.993.993,0,0,1-.99-.99V42.99A.993.993,0,0,1,2.99,42Z" transform="translate(-1.01 -1.425)" fill="#ff826e"/>
      <path id="Trazado_1034010" data-name="Trazado 1034010" d="M37.849,42.99v1.979a.993.993,0,0,1-.99.99H25.053l-1.178-1.019a3.865,3.865,0,0,0,.119-.96A3.948,3.948,0,0,0,23.46,42h13.4A.993.993,0,0,1,37.849,42.99Z" transform="translate(-1.233 -1.425)" fill="#ff826e"/>
      <path id="Trazado_1034011" data-name="Trazado 1034011" d="M18.745,47.82,5.612,59.072l-.346.3a1.98,1.98,0,0,1-2.791-.218,1.99,1.99,0,0,1,.218-2.791l2.336-2L14.8,45.989l1.178-1.019a3.941,3.941,0,0,0,2.771,2.85Z" transform="translate(-1.01 -1.456)" fill="#d3a06c"/>
      <path id="Trazado_1034012" data-name="Trazado 1034012" d="M37.815,57.717a1.9,1.9,0,0,1-.465,1.435,1.98,1.98,0,0,1-2.791.218l-.346-.3L21.08,47.82a3.941,3.941,0,0,0,2.771-2.85l1.178,1.019L34.8,54.362l2.336,2A1.943,1.943,0,0,1,37.815,57.717Z" transform="translate(-1.208 -1.456)" fill="#d3a06c"/>
      <path id="Trazado_1034013" data-name="Trazado 1034013" d="M22.938,31.65v9.609a3.947,3.947,0,0,0-5.938,0V31.65a12.9,12.9,0,0,0,5.938,0Z" transform="translate(-1.166 -1.318)" fill="#969faa"/>
      <path id="Trazado_1034014" data-name="Trazado 1034014" d="M16.9,31.384a12.9,12.9,0,1,1,2.969.346A12.865,12.865,0,0,1,16.9,31.384Z" transform="translate(-1.062 -1.052)" fill="#fcd770"/>
      <path id="Trazado_1034015" data-name="Trazado 1034015" d="M26.666,13.117A8.9,8.9,0,1,1,19.907,10,8.864,8.864,0,0,1,26.666,13.117Z" transform="translate(-1.103 -1.093)" fill="#69d6f4"/>
      <path id="Trazado_1034016" data-name="Trazado 1034016" d="M16.99,41.346a3.947,3.947,0,0,1,5.938,0,3.537,3.537,0,0,1,.455.633,3.948,3.948,0,0,1,.534,1.979,3.865,3.865,0,0,1-.119.96,3.941,3.941,0,0,1-2.771,2.85,3.922,3.922,0,0,1-2.138,0,3.941,3.941,0,0,1-2.771-2.85,3.865,3.865,0,0,1-.119-.96,3.948,3.948,0,0,1,.534-1.979A3.537,3.537,0,0,1,16.99,41.346Z" transform="translate(-1.155 -1.404)" fill="#ff826e"/>
      <path id="Trazado_1034017" data-name="Trazado 1034017" d="M22.225,17.039a2.932,2.932,0,0,1,.713,1.93,2.969,2.969,0,1,1-.713-1.93Z" transform="translate(-1.166 -1.155)" fill="#ff826e"/>
      <ellipse id="Elipse_12924" data-name="Elipse 12924" cx="1.05" cy="0.525" rx="1.05" ry="0.525" transform="translate(17.844 41.985)"/>
      <path id="Trazado_1034018" data-name="Trazado 1034018" d="M46.523,21.782a15.819,15.819,0,0,0-15.55,18.8H23.762v-8.5a13.816,13.816,0,0,0,7.162-21.5l2.682-2.3,5,5,8.907-8.907V9.907h1.979V1H40.585V2.979h5.528l-7.507,7.507-4.9-4.9L29.644,9.075a13.848,13.848,0,1,0-13.8,23.009v8.5H2.979A1.981,1.981,0,0,0,1,42.565v1.979a1.981,1.981,0,0,0,1.979,1.979H3.1L3.967,53.5l-1.93,1.654a2.958,2.958,0,0,0,2.817,5.079A2.971,2.971,0,0,0,7.7,62.357H31.911a2.97,2.97,0,0,0,2.841-2.125,2.927,2.927,0,0,0,.885.145,2.968,2.968,0,0,0,1.932-5.222L35.638,53.5l.495-3.958a15.827,15.827,0,1,0,10.39-27.761ZM49.407,39.1l8.837-8.837A13.757,13.757,0,0,1,59.83,33.8L51.966,41.66ZM47.513,23.812A13.723,13.723,0,0,1,52.6,25.188l-5.092,5.092Zm9.55,4.834L48.008,37.7l-.495-.495V33.078l6.863-6.863A13.917,13.917,0,0,1,57.063,28.646ZM45.534,23.812V36.627H32.719A13.854,13.854,0,0,1,45.534,23.812ZM25.189,44.544l-.495-.425a4.813,4.813,0,0,0,.057-.565,4.944,4.944,0,0,0-.1-.99H36.627v1.979ZM19.8,46.523a2.969,2.969,0,1,1,2.969-2.969A2.973,2.973,0,0,1,19.8,46.523ZM7.927,18.813a11.867,11.867,0,0,1,20.21-8.448l-1.512,1.3a9.885,9.885,0,1,0,1.29,1.5l1.5-1.289a11.869,11.869,0,1,1-21.493,6.94Zm19.793,0a7.948,7.948,0,1,1-2.607-5.855l-3.049,2.614a4.055,4.055,0,1,0,1.281,1.508l3.062-2.625a7.869,7.869,0,0,1,1.313,4.357Zm-5.938,0A1.979,1.979,0,1,1,19.8,16.834,1.981,1.981,0,0,1,21.782,18.813ZM19.8,32.668a13.74,13.74,0,0,0,1.979-.158v6.516a4.878,4.878,0,0,0-3.959,0V32.51A13.74,13.74,0,0,0,19.8,32.668Zm-16.824,9.9H14.955a4.944,4.944,0,0,0-.1.99,4.852,4.852,0,0,0,.057.566l-.495.424H2.979ZM5.09,46.523h7.018l-6.34,5.433ZM3.217,58.053a.968.968,0,0,1-.235-.719.984.984,0,0,1,.342-.676L15.6,46.134a4.977,4.977,0,0,0,1.35,1.449L4.612,58.16A1.016,1.016,0,0,1,3.217,58.053ZM31.91,60.378h-3.2V56.42H26.731v3.959H24.751V54.44H22.772v5.938H20.793V52.461H18.813v7.917H16.834V54.44H14.855v5.938H12.876V56.42H10.9v3.959H7.7a.991.991,0,0,1-.982-.867l-.061-.493,12.363-10.6a3.92,3.92,0,0,0,1.577,0l12.363,10.6-.061.492A.993.993,0,0,1,31.91,60.378Zm4.714-3.044a.971.971,0,0,1-.238.721,1.015,1.015,0,0,1-1.394.1L22.655,47.584a4.964,4.964,0,0,0,1.35-1.449L36.283,56.66a.977.977,0,0,1,.34.674ZM27.5,46.523h7.018l-.679,5.434Zm8.941.572.071-.572h.116a1.981,1.981,0,0,0,1.979-1.979V42.565a1.981,1.981,0,0,0-1.979-1.979H32.992a14.007,14.007,0,0,1-.287-1.979H46.114l9.469,9.469A13.793,13.793,0,0,1,36.44,47.1Zm20.542-.42L53.366,43.06l6.929-6.93a13.93,13.93,0,0,1,.083,1.487A13.778,13.778,0,0,1,56.982,46.676Z" transform="translate(-1 -1)"/>
      <path id="Trazado_1034019" data-name="Trazado 1034019" d="M43.209,28.711l-.746-1.833a11.821,11.821,0,0,0-1.916.991l1.066,1.669a10.031,10.031,0,0,1,1.6-.826Z" transform="translate(-1.41 -1.268)"/>
      <path id="Trazado_1034020" data-name="Trazado 1034020" d="M40.159,30.662l-1.348-1.448a11.908,11.908,0,0,0-1.439,1.6L38.959,32a10.009,10.009,0,0,1,1.2-1.339Z" transform="translate(-1.377 -1.292)"/>
      <path id="Trazado_1034021" data-name="Trazado 1034021" d="M37.356,35.245A9.888,9.888,0,0,1,38,33.57l-1.775-.876a11.841,11.841,0,0,0-.774,2.012Z" transform="translate(-1.357 -1.328)"/>
      <path id="Trazado_1034022" data-name="Trazado 1034022" d="M41.918,48.854a11.73,11.73,0,0,0,2.029.732l.5-1.916a9.916,9.916,0,0,1-1.69-.609Z" transform="translate(-1.424 -1.477)"/>
      <path id="Trazado_1034023" data-name="Trazado 1034023" d="M47.015,48c-.257-.006-.5-.009-.752-.026l-.144,1.973c.3.022.6.039.9.032a11.625,11.625,0,0,0,1.257-.067l-.212-1.967A10.124,10.124,0,0,1,47.015,48Z" transform="translate(-1.467 -1.487)"/>
      <path id="Trazado_1034024" data-name="Trazado 1034024" d="M51.528,46.91a10.023,10.023,0,0,1-1.669.669l.566,1.9a11.784,11.784,0,0,0,2-.8Z" transform="translate(-1.506 -1.476)"/>
    </g>
  </g>
</svg>
