<svg xmlns="http://www.w3.org/2000/svg" xmlns:xlink="http://www.w3.org/1999/xlink" width="113" height="113" viewBox="0 0 113 113">
  <defs>
    <filter id="Trazado_896985" x="0" y="0" width="113" height="113" filterUnits="userSpaceOnUse">
      <feOffset dy="3" input="SourceAlpha"/>
      <feGaussianBlur stdDeviation="3" result="blur"/>
      <feFlood flood-opacity="0.161"/>
      <feComposite operator="in" in2="blur"/>
      <feComposite in="SourceGraphic"/>
    </filter>
    <clipPath id="clip-path">
      <rect id="Rectángulo_407607" data-name="Rectángulo 407607" width="58.32" height="58.32" fill="none"/>
    </clipPath>
  </defs>
  <g id="Grupo_1111348" data-name="Grupo 1111348" transform="translate(-740.885 -3846)">
    <g id="Grupo_1111319" data-name="Grupo 1111319" transform="translate(-5.891)">
      <g id="Grupo_1109827" data-name="Grupo 1109827" transform="translate(755.775 3852)">
        <g id="Grupo_1098742" data-name="Grupo 1098742">
          <g transform="matrix(1, 0, 0, 1, -9, -6)" filter="url(#Trazado_896985)">
            <g id="Trazado_896985-2" data-name="Trazado 896985" transform="translate(9 6)" fill="#5ab4f9" opacity="0.859">
              <path d="M 47.49993515014648 93.5 C 41.28932189941406 93.5 35.26528167724609 92.28397369384766 29.59514808654785 89.88571929931641 C 24.1176815032959 87.56894683837891 19.1981086730957 84.25197601318359 14.97306823730469 80.02693176269531 C 10.74802875518799 75.80189514160156 7.431055068969727 70.88231658935547 5.11428165435791 65.40485382080078 C 2.716028451919556 59.73471832275391 1.500001788139343 53.71067810058594 1.500001788139343 47.50006484985352 C 1.500001788139343 41.28932189941406 2.716028451919556 35.26528167724609 5.11428165435791 29.59514617919922 C 7.431055068969727 24.11767959594727 10.74802875518799 19.19810676574707 14.97306823730469 14.97306632995605 C 19.1981086730957 10.74802684783936 24.1176815032959 7.431053161621094 29.59514808654785 5.114280223846436 C 35.26528167724609 2.716026782989502 41.28932189941406 1.5 47.49993515014648 1.5 C 53.71054840087891 1.5 59.73458862304688 2.716026782989502 65.40472412109375 5.114280223846436 C 70.88218688964844 7.431053161621094 75.80176544189453 10.74802684783936 80.02680206298828 14.97306632995605 C 84.25183868408203 19.19810676574707 87.56881713867188 24.11767959594727 89.88558959960938 29.59514617919922 C 92.28384399414062 35.26528167724609 93.49987030029297 41.28932189941406 93.49987030029297 47.49993515014648 C 93.49987030029297 53.71067810058594 92.28384399414062 59.73471832275391 89.88558959960938 65.40485382080078 C 87.56881713867188 70.88231658935547 84.25183868408203 75.80189514160156 80.02680206298828 80.02693176269531 C 75.80176544189453 84.25197601318359 70.88218688964844 87.56894683837891 65.40472412109375 89.88571929931641 C 59.73458862304688 92.28397369384766 53.71054840087891 93.5 47.49993515014648 93.5 Z" stroke="none"/>
              <path d="M 47.49993515014648 3 C 41.49116516113281 3 35.66371917724609 4.176155090332031 30.17947387695312 6.495796203613281 C 24.88081359863281 8.7369384765625 20.12149047851562 11.94596862792969 16.03372192382812 16.03372192382812 C 11.94596862792969 20.12149047851562 8.7369384765625 24.88081359863281 6.495796203613281 30.17947387695312 C 4.1761474609375 35.66372299194336 3 41.49116897583008 3 47.50006103515625 C 3 53.50883102416992 4.1761474609375 59.33627700805664 6.495796203613281 64.82052612304688 C 8.7369384765625 70.11918640136719 11.94596862792969 74.87850952148438 16.03372192382812 78.96627807617188 C 20.12149047851562 83.05403137207031 24.88081359863281 86.2630615234375 30.17947387695312 88.50419616699219 C 35.66371917724609 90.82384490966797 41.49116516113281 92 47.49993515014648 92 C 53.50870513916016 92 59.33615112304688 90.82384490966797 64.82039642333984 88.50419616699219 C 70.11905670166016 86.2630615234375 74.87837982177734 83.05403137207031 78.96614837646484 78.96627807617188 C 83.05390167236328 74.87850952148438 86.26293182373047 70.11918640136719 88.50407409667969 64.82052612304688 C 90.82372283935547 59.33627700805664 91.99987030029297 53.50883102416992 91.99987030029297 47.49993896484375 C 91.99987030029297 41.49116897583008 90.82372283935547 35.66372299194336 88.50407409667969 30.17947387695312 C 86.26293182373047 24.88081359863281 83.05390167236328 20.12149047851562 78.96614837646484 16.03372192382812 C 74.87837982177734 11.94596862792969 70.11905670166016 8.7369384765625 64.82039642333984 6.495796203613281 C 59.33615112304688 4.176155090332031 53.50870513916016 3 47.49993515014648 3 M 47.49993515014648 0 C 73.73342895507812 0 94.99987030029297 21.26644897460938 94.99987030029297 47.49993896484375 L 94.99987030029297 47.50006103515625 C 94.99987030029297 73.73355102539062 73.73342895507812 95 47.49993515014648 95 C 21.26644134521484 95 0 73.73355102539062 0 47.50006103515625 L 0 47.49993896484375 C 0 21.26644897460938 21.26644134521484 0 47.49993515014648 0 Z" stroke="none" fill="#fff"/>
            </g>
          </g>
          <g id="Rectángulo_400907" data-name="Rectángulo 400907" transform="translate(0 0)" fill="none" stroke="#fff" stroke-width="3">
            <rect width="95" height="95" rx="47.5" stroke="none"/>
            <rect x="1.5" y="1.5" width="92" height="92" rx="46" fill="none"/>
          </g>
        </g>
      </g>
    </g>
    <g id="Grupo_1180315" data-name="Grupo 1180315" transform="translate(768.224 3872.067)">
      <g id="Grupo_1180314" data-name="Grupo 1180314" transform="translate(0 0)" clip-path="url(#clip-path)">
        <path id="Trazado_1052915" data-name="Trazado 1052915" d="M54.779,35.867a10.432,10.432,0,0,1,1.529,6.113,9.75,9.75,0,0,1-8.285,8.851,27.165,27.165,0,0,1-3.665-.087,2.163,2.163,0,0,0-1.828-.106,3.428,3.428,0,0,1-1.328.207q-12.321.019-24.64-.011a4.576,4.576,0,0,1-2-.472,2.154,2.154,0,0,0-1.82-.108,19.225,19.225,0,0,1-6.369-.2,8.8,8.8,0,0,1-3.513-1.483A2.662,2.662,0,0,1,1.675,46.2c.039-.791-.02-1.586-.02-2.379a2.416,2.416,0,0,1,1.052-2.034c.594-.424,1.262-.742,1.9-1.107.35-.032.472-.215.447-.569-.034-.49,0-.984-.023-1.477A2.174,2.174,0,0,1,5.8,36.706a9.631,9.631,0,0,1,2.361-1.4A34.926,34.926,0,0,1,11.8,34.37V23c-.232,0-.436,0-.64,0-1.856.026-3.713.028-5.568.09a3.515,3.515,0,0,1-2.831-1.028,3.889,3.889,0,0,1-.66-2.409c.018-2.975.006-5.949.008-8.923A2.94,2.94,0,0,1,5.349,7.446c2.157-.008,4.316,0,6.463,0,.127-.4.21-.75.348-1.077a4.647,4.647,0,0,1,4.285-3.02c1.114-.063,2.234-.027,3.351-.035,2.531.007,5.063.018,7.594.018q5.3,0,10.6-.018c.942.007,1.884.017,2.826.019a4.818,4.818,0,0,1,5.149,4.539v3.452h3.518c.906.02,1.81.045,2.716.059a2.8,2.8,0,0,1,2.959,3q.012,4.14.018,8.279c-.006.321-.015.642-.017.963A2.838,2.838,0,0,1,52.1,26.6c-.625-.009-1.249-.035-1.873-.037-1.411-.006-2.824,0-4.24,0V31.45a9.943,9.943,0,0,1,8.794,4.417m-17,6.572a.955.955,0,0,0,0,.17,8.961,8.961,0,0,0,7.513,7.423A8.868,8.868,0,0,0,54.55,45.16a8.5,8.5,0,0,0-.3-8.406,5.715,5.715,0,0,0-.332-.585,8.792,8.792,0,0,0-7.778-3.852,8.888,8.888,0,0,0-8.363,10.122M2.985,14.474c-.006,1.8-.016,3.594-.018,5.392,0,1.618.747,2.368,2.36,2.35,3.046-.032,6.091-.087,9.135-.1a1.955,1.955,0,0,1,1.078.355c1.182.849,2.318,1.761,3.491,2.625.186.137.546.27.686.181a.984.984,0,0,0,.31-.693,16.367,16.367,0,0,0,.009-1.759c-.017-.54.226-.752.754-.733.549.021,1.1.019,1.647,0a1.969,1.969,0,0,0,1.9-1.888c.025-.85-.006-1.7-.011-2.552.006-2.52.028-5.038.01-7.558a1.928,1.928,0,0,0-1.9-1.888c-1.079-.025-2.159,0-3.24,0q-7.046.051-14.091.106a1.983,1.983,0,0,0-2.131,1.895c-.028,1.42,0,2.841.007,4.261m51.3,3.748c.012-1.191.032-2.381.035-3.572,0-1.72-.722-2.433-2.459-2.439-2.025-.008-4.049-.014-6.075-.028-3.387-.025-6.774-.063-10.161-.082a1.909,1.909,0,0,0-2.073,1.814c-.026,2.46,0,4.919.007,7.379-.007.813-.035,1.627-.016,2.439a1.91,1.91,0,0,0,1.886,1.883c.529.019,1.061.026,1.589,0s.719.213.7.712a16.037,16.037,0,0,0,.009,1.646c.018.256.1.623.269.72s.529-.054.729-.2c1.131-.825,2.225-1.7,3.362-2.514a1.87,1.87,0,0,1,1.025-.339c3.046.011,6.092.066,9.137.095a1.87,1.87,0,0,0,2.038-1.843c.059-1.888,0-3.78-.006-5.67M38.554,11.263h6.528c0-1.191.088-2.386-.02-3.562a3.737,3.737,0,0,0-3.626-3.485c-1.678-.08-3.365,0-5.046,0-.15-.012-.3-.036-.449-.036q-9.548,0-19.1,0a6.589,6.589,0,0,0-.906.062A3.809,3.809,0,0,0,12.778,7.4c.15,0,.3,0,.445,0,2.974-.026,5.947-.062,8.921-.075a2.872,2.872,0,0,1,3.06,3.006q.032,4.8,0,9.6a2.885,2.885,0,0,1-3.047,3.024c-.408.006-.816,0-1.246,0,0,.625,0,1.173,0,1.72a1.388,1.388,0,0,1-2.325,1.152q-1.686-1.3-3.392-2.575a1.127,1.127,0,0,0-.537-.275c-.654-.033-1.312-.012-1.987-.012V34.443c.205,0,.391,0,.579,0a13.559,13.559,0,0,1,6.381,1.309c1.315.683,2.235,1.634,2.007,3.278a1.72,1.72,0,0,0,.021.338,9.147,9.147,0,0,0-.016,1.191,2.957,2.957,0,0,1-1.7,3.013c-.225.136-.453.267-.742.437H37.209c-.032-.144-.053-.255-.08-.363a9.757,9.757,0,0,1,6.795-11.821c.392-.114.941-.121,1.131-.383s.063-.8.063-1.218c0-1.226,0-2.451,0-3.734-.594,0-1.123.027-1.649-.008a1.623,1.623,0,0,0-1.189.386c-1.037.823-2.108,1.607-3.16,2.413a1.354,1.354,0,0,1-1.535.2,1.336,1.336,0,0,1-.729-1.311c0-.244-.015-.491-.023-.736v-.959c-.487,0-.923.018-1.357,0a2.774,2.774,0,0,1-2.792-2.782q-.056-4.831,0-9.66a2.751,2.751,0,0,1,2.858-2.76c1-.009,2.007-.006,3.011-.007M15.131,49.613c.014.045.027.09.042.135a5.77,5.77,0,0,0,1.045.191q12.824.017,25.647.009a.5.5,0,0,0-.219-.327,9.574,9.574,0,0,1-3.928-4.36c-.169-.374-.424-.36-.731-.36q-9.036,0-18.072,0c-.2,0-.4.018-.728.034.618,2.645-.881,3.888-3.057,4.675m-1.806-8.3.024.141c1.431-.238,2.872-.426,4.288-.728a5.189,5.189,0,0,0,2.635-1.367,1.3,1.3,0,0,0-.012-2.118,5.228,5.228,0,0,0-1.614-1.019A14.888,14.888,0,0,0,8.108,36.2a5.564,5.564,0,0,0-1.743,1.12,1.209,1.209,0,0,0,0,1.939,6.641,6.641,0,0,0,1.745,1.123,13.29,13.29,0,0,0,5.213.924m7.452-1.048a15.217,15.217,0,0,1-14.837.008A2.1,2.1,0,0,0,6.948,42.7a9.749,9.749,0,0,0,1.571.768,14.459,14.459,0,0,0,5.642.733A12.426,12.426,0,0,0,19,43.137c1.249-.594,2.128-1.414,1.777-2.876M17.4,45.622a15.163,15.163,0,0,1-14.845,0,2.18,2.18,0,0,0,1.313,2.631,7.638,7.638,0,0,0,.915.448,12.507,12.507,0,0,0,4.089.849,14.171,14.171,0,0,0,6.614-.983c1.639-.715,2.012-1.345,1.914-2.947M4.976,41.357A16.176,16.176,0,0,0,3.169,42.5,1.344,1.344,0,0,0,3.2,44.838a7.94,7.94,0,0,0,2.076,1.115,14.56,14.56,0,0,0,6.214.65A10.763,10.763,0,0,0,16,45.389c.242-.136.461-.315.791-.544-.25-.015-.345-.027-.438-.023a3.137,3.137,0,0,0-.338.039,16.2,16.2,0,0,1-7.188-.413c-1.624-.49-3.195-1.13-3.851-3.091" transform="translate(0.209 0.418)" fill="#060706"/>
        <path id="Trazado_1052916" data-name="Trazado 1052916" d="M2.723,19.962A3.515,3.515,0,0,0,5.554,20.99c1.855-.062,3.712-.064,5.568-.091.2,0,.408,0,.64,0V32.265a34.832,34.832,0,0,0-3.633.933,9.652,9.652,0,0,0-2.362,1.4A2.179,2.179,0,0,0,5,36.53c.02.491-.011.986.023,1.477.025.354-.1.537-.447.569-.426-1.107-.929-2.192-1.257-3.327a31.6,31.6,0,0,1-1.133-4.82,33.869,33.869,0,0,1-.223-5.754,39.705,39.705,0,0,1,.766-4.713" transform="translate(0.243 2.523)" fill="#c3eefa"/>
        <path id="Trazado_1052917" data-name="Trazado 1052917" d="M11.494,45a2.15,2.15,0,0,1,1.82.109,4.59,4.59,0,0,0,2,.471q12.319.046,24.64.012a3.453,3.453,0,0,0,1.328-.208,2.165,2.165,0,0,1,1.827.106c-1.376.817-2.71,1.719-4.14,2.43a24.058,24.058,0,0,1-6.452,2.062,28.662,28.662,0,0,1-7.444.3,25.677,25.677,0,0,1-7.61-1.851A22.62,22.62,0,0,1,11.494,45" transform="translate(1.453 5.67)" fill="#c4effb"/>
        <path id="Trazado_1052918" data-name="Trazado 1052918" d="M49.8,33.695a9.943,9.943,0,0,0-8.794-4.417V24.387c1.416,0,2.827,0,4.24,0,.624,0,1.248.028,1.873.038a2.838,2.838,0,0,0,3.06-2.974c0-.321.012-.642.018-.963.182,1.087.438,2.168.528,3.264a25.525,25.525,0,0,1,.1,4.178c-.148,1.808-.507,3.6-.79,5.4-.021.131-.155.244-.238.366" transform="translate(5.184 2.59)" fill="#c3eefa"/>
        <path id="Trazado_1052919" data-name="Trazado 1052919" d="M35.955,3.488q-5.3.01-10.6.017c-2.532,0-5.063-.011-7.6-.017a18.925,18.925,0,0,1,5.35-1.329,44.981,44.981,0,0,1,5.478-.214,21.862,21.862,0,0,1,7.367,1.543" transform="translate(2.245 0.243)" fill="#c4effb"/>
        <path id="Trazado_1052920" data-name="Trazado 1052920" d="M44.511,10.812H40.994V7.36a8.58,8.58,0,0,1,1.016.781c.852.873,1.669,1.779,2.5,2.672" transform="translate(5.182 0.93)" fill="#c1e9f4"/>
        <path id="Trazado_1052921" data-name="Trazado 1052921" d="M42.747,49.352a1.375,1.375,0,0,1,.328,0c.149.057.289.134.434.2a1.294,1.294,0,0,1-.387.23,8.835,8.835,0,0,1-1.063.11c-.1.006-.273-.059-.278-.1a.426.426,0,0,1,.1-.328q.586-.483,1.211-.919c.075-.053.223,0,.338,0-.03.11-.028.252-.1.327a5.384,5.384,0,0,1-.588.476" transform="translate(5.281 6.134)" fill="#161616"/>
        <path id="Trazado_1052922" data-name="Trazado 1052922" d="M5.526,3.973a6.414,6.414,0,0,1-.565-.533C4.9,3.364,4.918,3.217,4.9,3.1c.114.01.265-.023.335.038a4.97,4.97,0,0,1,.671.688.409.409,0,0,1,0,.382,2.173,2.173,0,0,1-.478.481c-.081.063-.223.047-.338.068a.866.866,0,0,1,.033-.351,3.022,3.022,0,0,1,.4-.436" transform="translate(0.62 0.392)" fill="#161616"/>
        <path id="Trazado_1052923" data-name="Trazado 1052923" d="M47.792,49.239l-.35-.167a1.517,1.517,0,0,1,.46-.28,10.359,10.359,0,0,1,1.3-.13c.1,0,.208.1.312.161-.095.091-.179.246-.286.264-.428.069-.863.1-1.431.152" transform="translate(5.997 6.151)" fill="#161616"/>
        <path id="Trazado_1052924" data-name="Trazado 1052924" d="M46.741,46.32c-.1-.072-.191-.106-.205-.159-.021-.08-.021-.216.028-.257q.662-.532,1.352-1.032a.285.285,0,0,1,.246.025c.044.024.08.169.057.189-.484.415-.977.819-1.478,1.233" transform="translate(5.881 5.67)" fill="#161616"/>
        <path id="Trazado_1052925" data-name="Trazado 1052925" d="M44.351,48.152c-.11-.093-.2-.133-.21-.187a.3.3,0,0,1,.047-.243q.656-.527,1.336-1.024a.285.285,0,0,1,.246,0c.045.023.087.171.065.189-.487.424-.982.838-1.485,1.26" transform="translate(5.579 5.9)" fill="#161616"/>
        <path id="Trazado_1052926" data-name="Trazado 1052926" d="M44.808,49.536l-.346-.17a1.619,1.619,0,0,1,.473-.279,7.527,7.527,0,0,1,1.18-.118,1.234,1.234,0,0,1,.427.16c-.118.091-.228.24-.358.261-.408.07-.823.092-1.376.146" transform="translate(5.621 6.19)" fill="#161616"/>
        <path id="Trazado_1052927" data-name="Trazado 1052927" d="M49.359,44.418l-.48-.182a2.349,2.349,0,0,1,.286-.378,5.246,5.246,0,0,1,.606-.391c0,.565.008.979-.008,1.392,0,.066-.109.13-.169.195-.071-.072-.182-.132-.206-.217a1.732,1.732,0,0,1-.029-.418" transform="translate(6.179 5.494)" fill="#080706"/>
        <path id="Trazado_1052928" data-name="Trazado 1052928" d="M49.495,7.2c-.3-.28-.6-.554-.877-.849-.056-.059-.027-.2-.036-.3a.844.844,0,0,1,.341.023,1.634,1.634,0,0,0,.569.191c.467.078.2.535.194.841l-.19.093" transform="translate(6.141 0.764)" fill="#161616"/>
        <path id="Trazado_1052929" data-name="Trazado 1052929" d="M49.715,47.046c0,.265.014.529-.009.792-.007.087-.107.164-.164.247-.078-.084-.219-.168-.222-.255-.017-.527-.011-1.057.009-1.585,0-.075.127-.146.2-.22.063.077.175.148.182.229.024.262.009.527.008.792" transform="translate(6.234 5.818)" fill="#010302"/>
        <path id="Trazado_1052930" data-name="Trazado 1052930" d="M45.988,3.231l.93,1.062c-.115.044-.288.158-.336.118a7.069,7.069,0,0,1-.814-.776c-.052-.056.019-.223.034-.339l.186-.065" transform="translate(5.783 0.408)" fill="#212121"/>
        <path id="Trazado_1052931" data-name="Trazado 1052931" d="M46.262,2.569l-.67-.34a2.2,2.2,0,0,1,.674-.2,3.6,3.6,0,0,1,.816.213l-.819.324" transform="translate(5.764 0.257)" fill="#161616"/>
        <path id="Trazado_1052932" data-name="Trazado 1052932" d="M44.275,2.354c.406-.349.614-.422.792-.074.051.1.145.175.19.274.072.16.119.33.178.5a2.775,2.775,0,0,1-.465-.189c-.223-.139-.427-.309-.695-.507" transform="translate(5.597 0.259)" fill="#161616"/>
        <path id="Trazado_1052933" data-name="Trazado 1052933" d="M49.622,5.067a.682.682,0,0,1,0,.225c-.055.152-.134.3-.2.443a1.875,1.875,0,0,1-.217-.449,2.281,2.281,0,0,1-.017-.678,1.182,1.182,0,0,1,.189-.36,1.488,1.488,0,0,1,.233.368,1.676,1.676,0,0,1,.009.452Z" transform="translate(6.215 0.537)" fill="#161616"/>
        <path id="Trazado_1052934" data-name="Trazado 1052934" d="M49.06,3.017c.1-.265.19-.485.278-.705a2.349,2.349,0,0,1,.244.705,2.831,2.831,0,0,1-.205.781c-.1-.253-.206-.507-.318-.781" transform="translate(6.202 0.292)" fill="#161616"/>
        <path id="Trazado_1052935" data-name="Trazado 1052935" d="M48.273,1.9l.74.3a3.019,3.019,0,0,1-.723.2,3.191,3.191,0,0,1-.751-.152l.734-.347" transform="translate(6.01 0.239)" fill="#060706"/>
        <path id="Trazado_1052936" data-name="Trazado 1052936" d="M47.285,4.494l1.022,1.113c-.088.064-.234.2-.253.182a11.463,11.463,0,0,1-.891-.844c-.038-.039.051-.2.123-.452" transform="translate(5.961 0.568)" fill="#080706"/>
        <path id="Trazado_1052937" data-name="Trazado 1052937" d="M3.809,2.737c-.293.255-.565.5-.853.728-.026.02-.144-.075-.22-.117a7.441,7.441,0,0,1,.518-.689.718.718,0,0,1,.384-.136c.03-.006.083.1.17.215" transform="translate(0.346 0.318)" fill="#212121"/>
        <path id="Trazado_1052938" data-name="Trazado 1052938" d="M5.183,4.942c-.463.368-.758.607-1.062.834-.011.008-.117-.11-.178-.17.285-.273.564-.55.862-.808.033-.028.169.061.378.144" transform="translate(0.498 0.605)" fill="#212121"/>
        <path id="Trazado_1052939" data-name="Trazado 1052939" d="M4.446,45.236c-.119.108-.181.2-.268.235a3.574,3.574,0,0,1-.7.2c-.1.015-.215-.079-.323-.124.052-.088.086-.229.16-.256a4.7,4.7,0,0,1,.805-.208c.079-.014.176.082.322.157" transform="translate(0.399 5.698)" fill="#161616"/>
        <path id="Trazado_1052940" data-name="Trazado 1052940" d="M2.765,48.275c.221.317.446.632.652.957.011.018-.193.2-.2.195-.279-.232-.551-.473-.807-.73-.021-.023.079-.166.122-.253l.234-.169" transform="translate(0.304 6.102)" fill="#212121"/>
        <path id="Trazado_1052941" data-name="Trazado 1052941" d="M1.923,47.346c.06-.074.152-.19.246-.305a2.765,2.765,0,0,1,.208.39.9.9,0,0,1,.051.385,2.881,2.881,0,0,1-.131.464,2.51,2.51,0,0,1-.28-.409,2.561,2.561,0,0,1-.093-.525" transform="translate(0.243 5.946)" fill="#161616"/>
        <path id="Trazado_1052942" data-name="Trazado 1052942" d="M6.305,48.8c-.42.253-.75.453-1.086.642a1.028,1.028,0,0,1-.127-.194c.27-.244.547-.482.838-.7.026-.019.157.1.375.252" transform="translate(0.644 6.137)" fill="#161616"/>
        <path id="Trazado_1052943" data-name="Trazado 1052943" d="M4.951,45.079c.273.2.55.4.818.608a.746.746,0,0,1-.13.2c-.323-.122-.643-.252-.953-.4-.041-.02-.054-.18-.02-.243s.143-.084.285-.158" transform="translate(0.587 5.698)" fill="#161616"/>
        <path id="Trazado_1052944" data-name="Trazado 1052944" d="M2.286,46.819c-.054-.089-.17-.215-.146-.252a9.089,9.089,0,0,1,.611-.841c.012-.016.168.083.256.13-.177.3-.353.594-.536.885-.024.037-.1.044-.184.079" transform="translate(0.27 5.78)" fill="#161616"/>
        <path id="Trazado_1052945" data-name="Trazado 1052945" d="M4.3,49.176l.573.279c-.22.083-.437.173-.66.246A.293.293,0,0,1,4,49.681a3.881,3.881,0,0,1-.36-.264c.134-.055.267-.118.4-.161a.775.775,0,0,1,.223,0l.038-.075" transform="translate(0.46 6.216)" fill="#161616"/>
        <path id="Trazado_1052946" data-name="Trazado 1052946" d="M6.07,45.921a4.8,4.8,0,0,1,.371.657,1.554,1.554,0,0,1,.039.529c0,.007-.222.044-.235.017q-.228-.476-.41-.972c-.012-.033.113-.114.235-.231" transform="translate(0.737 5.805)" fill="#161616"/>
        <path id="Trazado_1052947" data-name="Trazado 1052947" d="M6.68,47.548c-.128.282-.253.558-.391.828,0,.006-.22-.07-.216-.093.041-.346.095-.69.167-1.031.008-.037.193-.088.224-.057a1.651,1.651,0,0,1,.216.354" transform="translate(0.768 5.965)" fill="#161616"/>
        <path id="Trazado_1052948" data-name="Trazado 1052948" d="M2.465,3.449a5.99,5.99,0,0,1,.3.81c.017.083-.123.2-.191.3a2.624,2.624,0,0,1-.535-.6c-.037-.079.252-.31.424-.508" transform="translate(0.258 0.436)" fill="#161616"/>
        <path id="Trazado_1052949" data-name="Trazado 1052949" d="M4.608,3.033l-.942-.952A.926.926,0,0,1,4.745,2.9c-.045.045-.091.089-.137.134" transform="translate(0.463 0.262)" fill="#080706"/>
        <path id="Trazado_1052950" data-name="Trazado 1052950" d="M3.088,4.548l.863.866L3.773,5.6c-.464-.1-.663-.484-.911-.817Z" transform="translate(0.362 0.575)" fill="#060706"/>
        <path id="Trazado_1052951" data-name="Trazado 1052951" d="M20.426,39.27a1.72,1.72,0,0,1-.021-.338c.228-1.643-.693-2.6-2.007-3.278a13.566,13.566,0,0,0-6.383-1.309c-.186,0-.372,0-.577,0V22.877c.675,0,1.333-.02,1.987.012a1.127,1.127,0,0,1,.537.275q1.7,1.277,3.392,2.575a1.388,1.388,0,0,0,2.325-1.152c0-.547,0-1.095,0-1.72.43,0,.838,0,1.245,0a2.885,2.885,0,0,0,3.047-3.024q.029-4.8,0-9.6a2.872,2.872,0,0,0-3.06-3.006c-2.974.014-5.947.05-8.921.075-.148,0-.3,0-.446,0A3.81,3.81,0,0,1,14.7,4.147a6.589,6.589,0,0,1,.906-.062q9.548-.005,19.1,0c.15,0,.3.024.449.035a21.245,21.245,0,0,1,.928,2.246c.46,1.586.829,3.2,1.237,4.8-1,0-2.007,0-3.011.008a2.75,2.75,0,0,0-2.858,2.76q-.059,4.829,0,9.659a2.774,2.774,0,0,0,2.792,2.783c.435.021.871,0,1.357,0v.957a3.356,3.356,0,0,0-.424.558,22.29,22.29,0,0,1-4.936,6.831,17.587,17.587,0,0,1-5.328,3.463,14.863,14.863,0,0,1-4.485,1.085" transform="translate(1.446 0.516)" fill="#fdfdfd"/>
        <path id="Trazado_1052952" data-name="Trazado 1052952" d="M19.693,36.768a14.863,14.863,0,0,0,4.485-1.085,17.587,17.587,0,0,0,5.328-3.463,22.29,22.29,0,0,0,4.936-6.831,3.356,3.356,0,0,1,.424-.558c.008.246.024.491.023.737a1.334,1.334,0,0,0,.729,1.311,1.356,1.356,0,0,0,1.535-.2c1.052-.805,2.121-1.589,3.158-2.413a1.621,1.621,0,0,1,1.191-.386c.526.034,1.055.008,1.649.008,0,1.283,0,2.509,0,3.734,0,.417.137.942-.063,1.218s-.739.269-1.131.382a9.759,9.759,0,0,0-6.795,11.822c.027.108.048.219.08.363H17.234c.289-.17.517-.3.742-.437a2.956,2.956,0,0,0,1.7-3.013,9.349,9.349,0,0,1,.017-1.191" transform="translate(2.179 3.018)" fill="#e9eef0"/>
        <path id="Trazado_1052953" data-name="Trazado 1052953" d="M29.984,20.307c-.006-2.46-.033-4.919-.007-7.379a1.909,1.909,0,0,1,2.073-1.814c3.387.019,6.774.057,10.161.082,2.024.015,4.049.02,6.075.028,1.737.006,2.463.719,2.459,2.439,0,1.191-.024,2.381-.036,3.572-.658.362-1.3.768-1.981,1.072s-1.407.5-2.113.751c-.008-1.491-.018-2.983-.021-4.474,0-.335.006-.707-.428-.724-.465-.017-.5.356-.5.723.007.686,0,1.372,0,2.131-.149-.093-.21-.13-.268-.17a2.359,2.359,0,0,0-3.828,1.632,7.97,7.97,0,0,0,.246,1.98l-1.32.284c-.064-.135-.132-.269-.19-.408-.747-1.752-1.476-3.512-2.255-5.25a1.023,1.023,0,0,0-.7-.567c-.242,0-.484.36-.716.574-.05.045-.057.136-.088.206q-1.237,2.884-2.475,5.767c-.394-.024-.791-.029-1.183-.077-.97-.117-1.937-.252-2.906-.381" transform="translate(3.788 1.405)" fill="#fd6b54"/>
        <path id="Trazado_1052954" data-name="Trazado 1052954" d="M2.839,13.926c-.006-1.42-.035-2.842-.008-4.261a1.985,1.985,0,0,1,2.131-1.9q7.046-.056,14.093-.1c1.079-.008,2.159-.029,3.238,0a1.927,1.927,0,0,1,1.9,1.888c.019,2.52,0,5.038-.009,7.558l-3.235.341c-.009-1.493-.034-2.986-.017-4.479.006-.527-.219-.713-.709-.705-.661.011-1.324,0-1.985,0-.722.007-.835.13-.838.875q-.008,2.212-.018,4.422l-2.105-.116c-.008-.151-.024-.3-.024-.452,0-2.117-.014-4.232.007-6.347.006-.543-.181-.749-.728-.719-.659.036-1.321.007-1.982.009-.731,0-.775.044-.777.764q-.014,3.144-.024,6.29l-2.1-.339c-.008-.984-.019-1.969-.021-2.953,0-.4-.151-.661-.589-.663-.8,0-1.59,0-2.386,0A.494.494,0,0,0,6.1,13.6c0,.6-.025,1.211-.037,1.816a3.667,3.667,0,0,1-.746-.2c-.834-.415-1.652-.858-2.477-1.292" transform="translate(0.356 0.966)" fill="#00c43b"/>
        <path id="Trazado_1052955" data-name="Trazado 1052955" d="M13.62,44.945c2.176-.786,3.675-2.03,3.057-4.675.329-.016.528-.034.728-.034q9.036,0,18.072,0c.308,0,.562-.014.731.36a9.575,9.575,0,0,0,3.928,4.36.5.5,0,0,1,.219.326q-12.824,0-25.647-.008a5.8,5.8,0,0,1-1.046-.191l-.041-.135m13.76-2.61c-.888,0-1.775,0-2.663,0-.32,0-.657.027-.665.433s.322.449.647.449q2.663,0,5.325,0c.318,0,.654-.018.662-.431s-.322-.449-.643-.449H27.38" transform="translate(1.722 5.086)" fill="#0065ec"/>
        <path id="Trazado_1052956" data-name="Trazado 1052956" d="M40.5,19.755l1.321-.284c1.14,1.438,2.2,1.6,3.679.662.256.193.458.471.679.484.4.026.411-.344.412-.66,0-.528.014-1.057.021-1.586.706-.246,1.433-.447,2.113-.75s1.324-.711,1.982-1.072c.008,1.89.063,3.783.006,5.67a1.87,1.87,0,0,1-2.038,1.842c-3.046-.027-6.092-.083-9.137-.093a1.861,1.861,0,0,0-1.025.339c-1.138.813-2.231,1.688-3.362,2.514-.2.145-.569.289-.729.2s-.251-.463-.27-.72a16.341,16.341,0,0,1-.008-1.645c.016-.5-.181-.736-.7-.712s-1.06.018-1.589,0a1.91,1.91,0,0,1-1.886-1.883c-.019-.813.009-1.627.016-2.439.969.127,1.936.264,2.906.381.392.047.788.052,1.183.077l.351.556.67-.446,4.431-.226a1.732,1.732,0,0,0,.273.478.683.683,0,0,0,.482.177.487.487,0,0,0,.318-.326,1.478,1.478,0,0,0-.1-.536" transform="translate(3.788 2.092)" fill="#fb534b"/>
        <path id="Trazado_1052957" data-name="Trazado 1052957" d="M2.839,13.221c.825.434,1.643.877,2.477,1.292a3.676,3.676,0,0,0,.745.2c.015,1.168.042,2.336.036,3.5,0,.489.2.681.679.671.7-.014,1.4,0,2.093,0,.6-.006.75-.161.757-.785.009-.716.015-1.433.021-2.148l2.1.339c.01.661.033,1.322.024,1.984a.518.518,0,0,0,.576.6q1.164.014,2.326,0a.518.518,0,0,0,.577-.6c-.01-.509.016-1.019.026-1.529l2.105.116c.006.472.012.943.017,1.415a.538.538,0,0,0,.588.606c.792.006,1.584,0,2.377,0,.4,0,.564-.22.56-.613-.006-.509.015-1.017.025-1.526l3.235-.341c.006.85.036,1.7.011,2.552a1.969,1.969,0,0,1-1.906,1.887c-.547.02-1.1.023-1.646,0-.527-.019-.77.194-.754.733a16.348,16.348,0,0,1-.01,1.758.98.98,0,0,1-.31.694c-.139.088-.5-.044-.685-.181-1.173-.864-2.309-1.776-3.491-2.625a1.961,1.961,0,0,0-1.078-.355c-3.046.009-6.091.063-9.135.1-1.613.017-2.362-.732-2.36-2.351,0-1.8.011-3.594.018-5.391" transform="translate(0.357 1.671)" fill="#00af26"/>
        <path id="Trazado_1052958" data-name="Trazado 1052958" d="M12.85,37.724A13.288,13.288,0,0,1,7.638,36.8a6.616,6.616,0,0,1-1.744-1.123,1.209,1.209,0,0,1,0-1.939,5.564,5.564,0,0,1,1.743-1.12,14.888,14.888,0,0,1,10.538.014,5.228,5.228,0,0,1,1.614,1.019A1.3,1.3,0,0,1,19.8,35.77a5.184,5.184,0,0,1-2.635,1.367c-1.416.3-2.858.49-4.288.728-.008-.047-.017-.093-.025-.141" transform="translate(0.683 4.002)" fill="#f8c36c"/>
        <path id="Trazado_1052959" data-name="Trazado 1052959" d="M50.2,33a8.5,8.5,0,0,1,.3,8.406,8.869,8.869,0,0,1-9.261,4.872,8.964,8.964,0,0,1-7.514-7.424.944.944,0,0,1,0-.169l2.639.221c.026.07.055.139.078.21a6.127,6.127,0,0,0,4.794,4.5,5.944,5.944,0,0,0,6.038-2.03,6.22,6.22,0,0,0,1.112-6.533,3.908,3.908,0,0,0,.418-.374c.472-.553.932-1.115,1.4-1.674" transform="translate(4.263 4.171)" fill="#e8ac55"/>
        <path id="Trazado_1052960" data-name="Trazado 1052960" d="M36.375,39.405l-2.639-.221A8.889,8.889,0,0,1,42.1,29.062a8.792,8.792,0,0,1,7.777,3.852,5.962,5.962,0,0,1,.333.586c-.464.559-.924,1.121-1.4,1.673a4.017,4.017,0,0,1-.418.375c-.072-.133-.148-.264-.215-.4a6.32,6.32,0,0,0-11.806,4.256" transform="translate(4.251 3.673)" fill="#f8c26b"/>
        <path id="Trazado_1052961" data-name="Trazado 1052961" d="M34.656,11.165c-.407-1.6-.777-3.213-1.237-4.8a20.592,20.592,0,0,0-.928-2.246c1.683-.007,3.368-.081,5.046,0A3.737,3.737,0,0,1,41.164,7.6c.108,1.177.019,2.371.019,3.562Z" transform="translate(4.107 0.516)" fill="#e4e8ea"/>
        <path id="Trazado_1052962" data-name="Trazado 1052962" d="M20.305,36.114c.35,1.462-.528,2.282-1.777,2.876a12.447,12.447,0,0,1-4.839,1.061,14.459,14.459,0,0,1-5.642-.733,9.849,9.849,0,0,1-1.571-.769,2.1,2.1,0,0,1-1.007-2.425,15.223,15.223,0,0,0,14.837-.009" transform="translate(0.683 4.565)" fill="#e6aa54"/>
        <path id="Trazado_1052963" data-name="Trazado 1052963" d="M17.307,40.873c.1,1.6-.274,2.231-1.913,2.947A14.208,14.208,0,0,1,8.78,44.8a12.486,12.486,0,0,1-4.09-.85,7.637,7.637,0,0,1-.915-.448,2.178,2.178,0,0,1-1.313-2.63,15.163,15.163,0,0,0,14.845,0" transform="translate(0.305 5.167)" fill="#e6aa54"/>
        <path id="Trazado_1052964" data-name="Trazado 1052964" d="M4.88,37.087c.657,1.961,2.227,2.6,3.851,3.091a16.2,16.2,0,0,0,7.188.413,3.137,3.137,0,0,1,.338-.039c.093,0,.188.008.438.023-.33.229-.549.408-.791.544a10.763,10.763,0,0,1-4.5,1.214,14.56,14.56,0,0,1-6.214-.65,7.94,7.94,0,0,1-2.076-1.115,1.344,1.344,0,0,1-.036-2.336A16.176,16.176,0,0,1,4.88,37.087" transform="translate(0.305 4.688)" fill="#f7c26b"/>
        <path id="Trazado_1052965" data-name="Trazado 1052965" d="M40.039,20.094a1.481,1.481,0,0,1,.1.536.491.491,0,0,1-.318.326.684.684,0,0,1-.483-.177,1.761,1.761,0,0,1-.273-.478,5.836,5.836,0,0,1-.2-.581.682.682,0,0,0-.845-.589c-.5.047-1.016.011-1.525.011-1.4,0-1.4,0-1.854,1.329a.186.186,0,0,0,0,.056l-.671.446c-.117-.186-.233-.372-.35-.556l2.475-5.768c.029-.069.037-.16.088-.206.232-.213.473-.571.715-.574a1.023,1.023,0,0,1,.705.568c.778,1.738,1.508,3.5,2.255,5.25.059.137.126.271.189.408m-1.8-1.836c-.446-1.076-.87-2.1-1.349-3.253-.482,1.177-.9,2.191-1.334,3.253Z" transform="translate(4.249 1.753)" fill="#0a0403"/>
        <path id="Trazado_1052966" data-name="Trazado 1052966" d="M45.312,18.75c-.008.528-.019,1.057-.021,1.585,0,.317-.009.686-.412.66-.22-.014-.424-.292-.679-.484-1.481.938-2.539.776-3.679-.662a7.866,7.866,0,0,1-.246-1.98A2.358,2.358,0,0,1,44.1,16.236c.057.041.119.075.267.17,0-.759.006-1.445,0-2.131,0-.367.032-.74.5-.723.434.017.428.39.429.724,0,1.491.014,2.983.02,4.474m-.963.342c.007-.434-.014-.87.028-1.3a.829.829,0,0,0-.437-.839,1.844,1.844,0,0,0-2.425.17,2.178,2.178,0,0,0,.128,2.647,1.8,1.8,0,0,0,2.489-.1c.135-.128.148-.385.216-.582" transform="translate(5.089 1.713)" fill="#070302"/>
        <path id="Trazado_1052967" data-name="Trazado 1052967" d="M14.275,17.192c-.01.509-.036,1.019-.026,1.529a.518.518,0,0,1-.577.6q-1.162.014-2.326,0a.518.518,0,0,1-.576-.6c.009-.661-.014-1.322-.024-1.984q.012-3.144.024-6.29c0-.72.046-.763.776-.764.661,0,1.325.027,1.984-.009.546-.03.733.176.728.719-.02,2.115-.009,4.231-.007,6.347,0,.151.015.3.024.452m-2.648,1.235h1.765v-7.9H11.627Z" transform="translate(1.359 1.222)" fill="#010302"/>
        <path id="Trazado_1052968" data-name="Trazado 1052968" d="M19.314,16.929c-.01.509-.03,1.017-.025,1.526,0,.393-.157.611-.56.613-.793,0-1.585.006-2.378,0a.537.537,0,0,1-.587-.606q-.007-.708-.018-1.415.01-2.21.019-4.422c0-.746.116-.868.838-.874.661-.007,1.324.007,1.985,0,.49-.008.714.178.709.705-.017,1.493.008,2.986.017,4.479m-.873-4.285H16.665v5.521h1.776Z" transform="translate(1.991 1.484)" fill="#030804"/>
        <path id="Trazado_1052969" data-name="Trazado 1052969" d="M9.284,16.049q-.01,1.075-.02,2.149c-.008.623-.154.779-.758.785-.7.006-1.4-.009-2.093,0-.475.01-.681-.184-.679-.672.006-1.168-.021-2.336-.036-3.5.015-.606.035-1.211.038-1.817a.493.493,0,0,1,.552-.563q1.193,0,2.386,0c.438,0,.588.26.589.665,0,.984.014,1.968.021,2.952m-2.69-2.727v4.752H8.386V13.322Z" transform="translate(0.72 1.571)" fill="#030a05"/>
        <path id="Trazado_1052970" data-name="Trazado 1052970" d="M26.209,42.1h2.663c.321,0,.651.034.643.449s-.345.431-.662.431q-2.663,0-5.325,0c-.324,0-.654-.044-.647-.449s.345-.433.665-.433c.888,0,1.775,0,2.663,0" transform="translate(2.893 5.322)" fill="#00070f"/>
        <path id="Trazado_1052971" data-name="Trazado 1052971" d="M34.519,19.938a.185.185,0,0,1,0-.056c.453-1.329.453-1.329,1.853-1.329.509,0,1.022.036,1.525-.011a.683.683,0,0,1,.846.589,5.556,5.556,0,0,0,.2.581l-4.43.226" transform="translate(4.364 2.343)" fill="#fd6b54"/>
        <path id="Trazado_1052972" data-name="Trazado 1052972" d="M36.083,39.115a6.32,6.32,0,0,1,11.806-4.256c.068.135.143.265.215.4a6.22,6.22,0,0,1-1.112,6.533,5.944,5.944,0,0,1-6.038,2.03,6.128,6.128,0,0,1-4.794-4.5c-.023-.07-.052-.139-.078-.208m11.339-3.064a1.731,1.731,0,0,0-.053-.276,5.441,5.441,0,0,0-10.312,3.463,5.422,5.422,0,1,0,10.365-3.187" transform="translate(4.543 3.964)" fill="#080706"/>
        <path id="Trazado_1052973" data-name="Trazado 1052973" d="M38.023,18.13H35.34c.436-1.062.852-2.076,1.334-3.253.48,1.156.9,2.177,1.349,3.253" transform="translate(4.468 1.88)" fill="#fd6b54"/>
        <path id="Trazado_1052974" data-name="Trazado 1052974" d="M41.547,19.431a2.178,2.178,0,0,1-.13-2.647,1.842,1.842,0,0,1,2.425-.169.827.827,0,0,1,.438.838c-.043.43-.021.866-.028,1.3l-2.706.678" transform="translate(5.187 2.053)" fill="#fd6b54"/>
        <path id="Trazado_1052975" data-name="Trazado 1052975" d="M41.489,19.149l2.706-.678c-.07.2-.082.455-.216.582a1.8,1.8,0,0,1-2.489.1" transform="translate(5.245 2.335)" fill="#fb534b"/>
        <rect id="Rectángulo_407605" data-name="Rectángulo 407605" width="1.765" height="7.897" transform="translate(12.985 11.752)" fill="#fdfdfd"/>
        <rect id="Rectángulo_407606" data-name="Rectángulo 407606" width="1.776" height="5.521" transform="translate(18.656 14.128)" fill="#fbfbfb"/>
        <path id="Trazado_1052976" data-name="Trazado 1052976" d="M6.493,13.222H8.285v4.752H6.493Z" transform="translate(0.821 1.671)" fill="#fdfdfd"/>
        <path id="Trazado_1052977" data-name="Trazado 1052977" d="M36.963,39.141a5.441,5.441,0,0,1,10.312-3.463,1.707,1.707,0,0,1,.053.276c-.2.1-.4.2-.591.3L43.8,37.774l-1.284-.63v-1.5a4.383,4.383,0,0,0,.865.173,1.586,1.586,0,0,0,.549-.232c-.113-.184-.184-.457-.346-.531a4.661,4.661,0,0,0-.916-.246l-.518-.715-.461.649c.029.082-.024.1-.078.119-.945.286-1.415.782-1.442,1.522-.024.683.344,1.126,1.329,1.467.359.124.363.317.3.6l-4.836.695" transform="translate(4.637 4.06)" fill="#fbfbfb"/>
        <path id="Trazado_1052978" data-name="Trazado 1052978" d="M43.768,37.343l2.937-1.52c.2-.1.394-.2.591-.3a5.422,5.422,0,1,1-10.365,3.187l4.836-.695v1.049c-.371-.1-.686-.16-.981-.273s-.581-.118-.632.206a.722.722,0,0,0,.365.569,6.7,6.7,0,0,0,1.123.324c.176.293.306.511.438.73l.6-.772c1.4-.323,1.9-1.337,1.088-2.506" transform="translate(4.669 4.49)" fill="#e7ecee"/>
        <path id="Trazado_1052979" data-name="Trazado 1052979" d="M43.407,37.552c.818,1.169.314,2.183-1.087,2.506-.258.332-.429.552-.6.772-.131-.219-.262-.437-.438-.729a6.706,6.706,0,0,1-1.122-.326.722.722,0,0,1-.365-.569c.05-.324.339-.317.631-.206s.611.172.982.273V38.225c.063-.28.059-.473-.3-.6-.986-.34-1.353-.784-1.328-1.467.026-.74.5-1.236,1.442-1.522.054-.016.106-.037.078-.119q.23-.324.461-.649c.145.2.292.4.517.715a4.689,4.689,0,0,1,.917.246c.162.074.233.347.346.531a1.6,1.6,0,0,1-.549.232,4.3,4.3,0,0,1-.866-.173v1.5l1.284.629m-1.15.3-.137.142V39.21c.458-.041.835-.233.768-.661-.039-.259-.409-.467-.631-.7m-1.008-.991.153-.135V35.486c-.427.087-.79.253-.709.681.048.256.362.463.555.692" transform="translate(5.028 4.282)" fill="#060706"/>
        <path id="Trazado_1052980" data-name="Trazado 1052980" d="M41.994,37.4c.221.231.59.439.631.7.065.428-.31.621-.768.661V37.546l.137-.142" transform="translate(5.291 4.728)" fill="#e4e8ea"/>
        <path id="Trazado_1052981" data-name="Trazado 1052981" d="M41.148,36.678c-.194-.229-.507-.436-.555-.692-.081-.428.282-.595.709-.681v1.238l-.153.135" transform="translate(5.13 4.463)" fill="#e4e8ea"/>
      </g>
    </g>
  </g>
</svg>
