<svg xmlns="http://www.w3.org/2000/svg" xmlns:xlink="http://www.w3.org/1999/xlink" width="190" height="211.926" viewBox="0 0 190 211.926">
  <defs>
    <clipPath id="clip-path">
      <rect id="Rectángulo_407676" data-name="Rectángulo 407676" width="174.646" height="163.902" fill="#5ab4f9"/>
    </clipPath>
    <clipPath id="clip-path-2">
      <rect id="Rectángulo_407747" data-name="Rectángulo 407747" width="190" height="175.598" fill="none"/>
    </clipPath>
    <clipPath id="clip-path-3">
      <rect id="Rectángulo_407746" data-name="Rectángulo 407746" width="190" height="175.597" fill="none"/>
    </clipPath>
    <clipPath id="clip-path-4">
      <rect id="Rectángulo_407728" data-name="Rectángulo 407728" width="27.081" height="19.47" fill="none"/>
    </clipPath>
    <clipPath id="clip-path-5">
      <rect id="Rectángulo_407729" data-name="Rectángulo 407729" width="36.789" height="26.448" fill="none"/>
    </clipPath>
    <clipPath id="clip-path-6">
      <rect id="Rectángulo_407730" data-name="Rectángulo 407730" width="18.204" height="28.49" fill="none"/>
    </clipPath>
    <clipPath id="clip-path-7">
      <rect id="Rectángulo_407744" data-name="Rectángulo 407744" width="27.274" height="12.77" fill="none"/>
    </clipPath>
    <clipPath id="clip-path-8">
      <rect id="Rectángulo_407745" data-name="Rectángulo 407745" width="25.068" height="46.193" fill="none"/>
    </clipPath>
  </defs>
  <g id="Grupo_1180551" data-name="Grupo 1180551" transform="translate(-1125 -35455.734)">
    <g id="Grupo_1180550" data-name="Grupo 1180550" transform="translate(1140.354 35455.734)">
      <g id="Grupo_1180480" data-name="Grupo 1180480" clip-path="url(#clip-path)">
        <path id="Trazado_1053260" data-name="Trazado 1053260" d="M174.646,150.592c0,45.261-39.1,81.951-87.323,81.951S0,195.853,0,150.592,39.1,68.641,87.323,68.641s87.323,36.69,87.323,81.951" transform="translate(0 -68.641)" fill="#5ab4f9"/>
      </g>
    </g>
    <g id="Grupo_1180549" data-name="Grupo 1180549" transform="translate(1125 35492.063)">
      <g id="Grupo_1180548" data-name="Grupo 1180548" clip-path="url(#clip-path-2)">
        <g id="Grupo_1180547" data-name="Grupo 1180547" transform="translate(0 0)">
          <g id="Grupo_1180546" data-name="Grupo 1180546" clip-path="url(#clip-path-3)">
            <path id="Trazado_1053287" data-name="Trazado 1053287" d="M167.358,91.438a10.52,10.52,0,0,0-1.832-1.867,9.344,9.344,0,0,0-1.211-2.473L162.8,84.962a39.114,39.114,0,0,0,4.3-7.938c.429-1.076.818-2.2,1.157-3.34a40.176,40.176,0,0,0,.988-4.1c.169-.905.306-1.829.415-2.749.058-.473.1-.943.126-1.265s.05-.64.083-1.117c.018-.364.032-.723.043-1.053.029-.807.025-1.609.007-2.465a40.168,40.168,0,0,0-1.334-9.2c-.061-.25-.263-.958-.267-.969-.245-.86-.523-1.689-.8-2.446a38.735,38.735,0,0,0-2.535-5.578,38.317,38.317,0,0,0-11.288-12.7,36.264,36.264,0,0,0-7.492-4.09,35.31,35.31,0,0,0-11.912-2.5c-.4-.011-.8-.019-1.19-.019a35.06,35.06,0,0,0-10.517,1.628V18.878a8.237,8.237,0,0,0-8.026-8.43H73.171A18.648,18.648,0,0,0,56.659,0c-.245,0-.48.049-.725.057C55.692.049,55.458,0,55.213,0A18.621,18.621,0,0,0,38.718,10.448H8.026A8.237,8.237,0,0,0,0,18.878V149.016a8.235,8.235,0,0,0,8.026,8.43H31.774c.076.4.177.8.278,1.2.032.151.054.3.094.454.032.121.083.235.119.356.166.568.357,1.129.566,1.685.09.239.169.481.263.712.285.689.6,1.363.955,2.03.043.079.072.17.115.25l.018.023.007.019a22.509,22.509,0,0,0,4.193,5.423,8.172,8.172,0,0,0,.735.738c.13.117.281.2.415.314.321.269.656.507.991.754.458.337.909.674,1.388.973.343.216.7.394,1.056.587.49.273.981.549,1.493.776.4.186.829.326,1.244.481.48.178.952.375,1.442.519.523.155,1.06.254,1.6.364.364.08.721.193,1.092.25.043.008.083,0,.126.011a20.49,20.49,0,0,0,3.018.231,20.879,20.879,0,0,0,10.773-3.022c.436-.261.84-.557,1.247-.845.274-.144.559-.269.829-.428.068-.038.144-.064.213-.106l0,0,.007,0,.014-.011A21.739,21.739,0,0,0,69.4,168.7a23.031,23.031,0,0,0,6.746-11.255h11.79l3.894,2.67v1.738c0,6.805,5.275,12.346,11.761,12.346h34.2c6.482,0,11.761-5.54,11.761-12.346V120.06a12.5,12.5,0,0,0-5.415-10.384,11.887,11.887,0,0,0-2.044-3.162V103.7c.555-.155,1.1-.329,1.644-.534.206-.076.393-.178.595-.258A9.257,9.257,0,0,0,146.2,104.8a10.889,10.889,0,0,0,1.157,2.34l1.475,2.246,17.76,25.835a9.76,9.76,0,0,0,7.881,4.6,8.084,8.084,0,0,0,5-1.731L181.9,136.2l4.691-3.692a8.967,8.967,0,0,0,3.317-5.836,10.936,10.936,0,0,0-2.243-8.04S167.391,91.48,167.358,91.438" transform="translate(0 0)" fill="#fff"/>
            <rect id="Rectángulo_407711" data-name="Rectángulo 407711" width="100.46" height="130.138" transform="translate(14.093 18.878)" fill="#0e2036"/>
            <rect id="Rectángulo_407712" data-name="Rectángulo 407712" width="100.457" height="130.138" transform="translate(8.026 18.878)" fill="#153152"/>
            <rect id="Rectángulo_407713" data-name="Rectángulo 407713" width="88.325" height="117.391" transform="translate(15.265 25.248)" fill="#c4c4c4"/>
            <rect id="Rectángulo_407714" data-name="Rectángulo 407714" width="88.317" height="117.391" transform="translate(12.042 25.248)" fill="#fefefe"/>
            <path id="Trazado_1053288" data-name="Trazado 1053288" d="M53.643,13.7H45.621v-.227A11,11,0,0,0,34.888,2.227,10.992,10.992,0,0,0,24.173,13.471V13.7h-7.51A8.522,8.522,0,0,0,8.356,22.06h53.6a8.53,8.53,0,0,0-8.31-8.362M31.189,10.051a3.722,3.722,0,1,1,7.434,0,3.9,3.9,0,0,1-2.43,3.647H33.615a3.882,3.882,0,0,1-2.426-3.647" transform="translate(21.771 6.206)" fill="#eda73f"/>
            <path id="Trazado_1053289" data-name="Trazado 1053289" d="M53.242,13.7H45.22v-.227A11,11,0,0,0,34.483,2.227,10.986,10.986,0,0,0,23.772,13.471V13.7H16.265a8.52,8.52,0,0,0-8.31,8.362h53.59a8.521,8.521,0,0,0-8.3-8.362M30.788,10.051a3.722,3.722,0,1,1,7.434,0A3.894,3.894,0,0,1,35.789,13.7H33.211a3.879,3.879,0,0,1-2.423-3.647" transform="translate(20.726 6.206)" fill="#ffce3b"/>
            <path id="Trazado_1053290" data-name="Trazado 1053290" d="M10.466,9.137H20.957v3.378H17.449V23.346H13.862V12.515h-3.4Z" transform="translate(27.267 25.466)" fill="#5794d9"/>
            <path id="Trazado_1053291" data-name="Trazado 1053291" d="M17.246,9.137h4.233l4.1,14.209H21.9l-.793-2.484H17.469l-.779,2.484H13.013Zm3.144,8.521-.981-3.806-1.125,3.806Z" transform="translate(33.904 25.465)" fill="#5794d9"/>
            <path id="Trazado_1053292" data-name="Trazado 1053292" d="M20.634,9.137l1.936,3.939,1.943-3.939h3.973L24.361,16.3l4.031,7.044H24.419L22.57,19.54l-1.882,3.806H16.714L20.76,16.3l-4.1-7.165Z" transform="translate(43.407 25.466)" fill="#5794d9"/>
            <path id="Trazado_1053293" data-name="Trazado 1053293" d="M5.815,14.187h6.043c2.4,0,4.139,1.026,4.139,4.56,0,3.378-1.053,3.882-2,4.272L16.328,28.4H12.247l-1.741-5.029L9.4,23.094v5.3H5.815Zm5.578,6.074c.945,0,1-.5,1-1.515,0-.852-.18-1.36-1-1.36H9.417v2.874Z" transform="translate(15.15 39.539)" fill="#5794d9"/>
            <path id="Trazado_1053294" data-name="Trazado 1053294" d="M8.968,17.486c0-2.927,2.134-3.3,3.436-3.3a56.928,56.928,0,0,1,6.046.311V17.66H13.514c-.963,0-.963.564-.963,1.087V19.6l4.972.212v3.128l-4.972.174v.852c0,1.03.613,1.011,1.147,1.011H18.45v3.143c-1.9.273-5.859.329-5.859.329-1.2.038-3.623-.216-3.623-3.185Z" transform="translate(23.365 39.539)" fill="#5794d9"/>
            <path id="Trazado_1053295" data-name="Trazado 1053295" d="M11.773,14.186h10.5v3.378H18.76V28.4H15.173V17.564h-3.4Z" transform="translate(30.673 39.537)" fill="#5794d9"/>
            <path id="Trazado_1053296" data-name="Trazado 1053296" d="M15.013,14.186H18.6v8c0,1.825.04,2.931,1.8,2.931,1.648,0,1.68-1.185,1.68-2.931v-8h3.605v8c0,6.268-3.05,6.309-5.285,6.309-2.513,0-5.379.155-5.379-6.309Z" transform="translate(39.115 39.536)" fill="#5794d9"/>
            <path id="Trazado_1053297" data-name="Trazado 1053297" d="M18.368,14.187h6.043c2.4,0,4.139,1.026,4.139,4.56,0,3.378-1.053,3.882-2,4.272L28.881,28.4H24.8l-1.738-5.029-1.107-.273v5.3H18.368Zm5.578,6.074c.945,0,1-.5,1-1.515,0-.852-.184-1.36-1-1.36H21.97v2.874Z" transform="translate(47.856 39.539)" fill="#5794d9"/>
            <path id="Trazado_1053298" data-name="Trazado 1053298" d="M21.546,14.186h3.62l3.865,7.26v-7.26h3.587V28.4H29.031l-3.883-7.067V28.4h-3.6Z" transform="translate(56.136 39.537)" fill="#5794d9"/>
            <rect id="Rectángulo_407715" data-name="Rectángulo 407715" width="3.944" height="58.771" transform="translate(17.573 77.718)" fill="#e1e1e1"/>
            <rect id="Rectángulo_407716" data-name="Rectángulo 407716" width="3.944" height="58.775" transform="translate(40.467 76.46)" fill="#e1e1e1"/>
            <rect id="Rectángulo_407717" data-name="Rectángulo 407717" width="3.948" height="58.775" transform="translate(66.923 76.46)" fill="#e1e1e1"/>
            <rect id="Rectángulo_407718" data-name="Rectángulo 407718" width="3.948" height="58.775" transform="translate(90.957 76.46)" fill="#e1e1e1"/>
            <rect id="Rectángulo_407719" data-name="Rectángulo 407719" width="77.332" height="4.147" transform="translate(17.573 74.843)" fill="#e1e1e1"/>
            <rect id="Rectángulo_407720" data-name="Rectángulo 407720" width="13.271" height="8.646" transform="translate(24.25 82.845)" fill="#c4c4c4"/>
            <rect id="Rectángulo_407721" data-name="Rectángulo 407721" width="13.271" height="8.646" transform="translate(48.842 82.845)" fill="#c4c4c4"/>
            <rect id="Rectángulo_407722" data-name="Rectángulo 407722" width="13.271" height="8.642" transform="translate(48.842 101.527)" fill="#c4c4c4"/>
            <rect id="Rectángulo_407723" data-name="Rectángulo 407723" width="77.332" height="4.147" transform="translate(17.573 94.009)" fill="#e1e1e1"/>
            <rect id="Rectángulo_407724" data-name="Rectángulo 407724" width="77.332" height="4.143" transform="translate(17.573 113.179)" fill="#e1e1e1"/>
            <rect id="Rectángulo_407725" data-name="Rectángulo 407725" width="75.738" height="4.143" transform="translate(19.166 132.346)" fill="#e1e1e1"/>
            <path id="Trazado_1053299" data-name="Trazado 1053299" d="M63.42,78.1,61.466,79.2l-31.6-61.089,1.94-1.072Z" transform="translate(77.799 47.5)" fill="#6cb880"/>
            <path id="Trazado_1053385" data-name="Trazado 1053385" d="M0,0,35.337-.738l-1.4,68.764L-1.4,68.764Z" transform="matrix(0.879, -0.477, 0.477, 0.879, 76.965, 83.134)" fill="#82de9a"/>
            <path id="Trazado_1053300" data-name="Trazado 1053300" d="M28.875,35.379,46.737,25.184,71.372,72.8,53.518,82.994Zm-6.619-2.045,29.29,56.609,26.435-15.1-29.287-56.6Z" transform="translate(57.985 50.832)" fill="#447a52"/>
            <path id="Trazado_1053301" data-name="Trazado 1053301" d="M29.028,35.646a9.979,9.979,0,0,1,13.859,4.287L33.9,45.064Z" transform="translate(75.629 95.711)" fill="#447a52"/>
            <path id="Trazado_1053302" data-name="Trazado 1053302" d="M27.13,35.426a11.022,11.022,0,0,0,4.11-14.557L22.256,26Z" transform="translate(57.985 58.162)" fill="#447a52"/>
            <path id="Trazado_1053303" data-name="Trazado 1053303" d="M40.218,30.7a11,11,0,0,0-4.1,14.535l8.967-5.124Z" transform="translate(90.877 85.564)" fill="#447a52"/>
            <path id="Trazado_1053304" data-name="Trazado 1053304" d="M40.946,27.668A9.966,9.966,0,0,1,27.1,23.362l8.97-5.124Z" transform="translate(70.608 50.83)" fill="#447a52"/>
            <path id="Trazado_1053305" data-name="Trazado 1053305" d="M33.652,31.407a5.21,5.21,0,0,0-1.94,6.885,4.712,4.712,0,0,0,6.551,2.037,5.211,5.211,0,0,0,1.94-6.885,4.721,4.721,0,0,0-6.551-2.037" transform="translate(81.089 85.82)" fill="#447a52"/>
            <path id="Trazado_1053306" data-name="Trazado 1053306" d="M32.2,26.355A9.718,9.718,0,0,0,28.577,39.2,8.8,8.8,0,0,0,40.807,43a9.74,9.74,0,0,0,3.62-12.853A8.8,8.8,0,0,0,32.2,26.355" transform="translate(71.602 70.237)" fill="#447a52"/>
            <path id="Trazado_1053307" data-name="Trazado 1053307" d="M29.03,22.913A5.21,5.21,0,0,0,27.1,29.8a4.723,4.723,0,0,0,6.551,2.041,5.214,5.214,0,0,0,1.932-6.881,4.715,4.715,0,0,0-6.551-2.045" transform="translate(69.062 62.144)" fill="#447a52"/>
            <path id="Trazado_1053308" data-name="Trazado 1053308" d="M34.1,36.541c-1.936,1.106-3.22.216-4.07-1.325l-1.165.667-.692-1.356,1.168-.67a12.4,12.4,0,0,1-.88-2.7l1.745-.988c.361.9,1.092,2.465,1.449,3.166.425.829.692,1.2,1.449.765l.328-.182c.58-.337.692-.727.3-1.473l-.591-1.147a2.925,2.925,0,0,1,1.41-4.105l.562-.322c2.3-1.318,3.566-.174,4.294,1.242l1.125-.644.7,1.36-1.132.644a8.482,8.482,0,0,1,.88,2.734l-1.716.977c-.249-.595-.891-2.053-1.572-3.367-.306-.6-.689-1.007-1.284-.67l-.393.223c-.487.28-.692.606-.335,1.307l.566,1.1a2.978,2.978,0,0,1-1.312,4.294Z" transform="translate(73.409 73.253)" fill="#75c78a"/>
            <path id="Trazado_1053309" data-name="Trazado 1053309" d="M76.316,61.725,75.1,63.676l-55.426-38L20.89,23.76Z" transform="translate(51.253 66.22)" fill="#6cb880"/>
            <path id="Trazado_1053386" data-name="Trazado 1053386" d="M0,0,36.17-.806,34.644,66.38l-36.17.806Z" transform="matrix(0.547, -0.837, 0.837, 0.547, 51.828, 122.625)" fill="#82de9a"/>
            <path id="Trazado_1053310" data-name="Trazado 1053310" d="M22.054,50.161,33.166,32.283,76.373,61.909,65.258,79.787Zm-6.749,1.5L66.664,86.876,83.111,60.413,31.746,25.2Z" transform="translate(39.875 70.225)" fill="#447a52"/>
            <path id="Trazado_1053311" data-name="Trazado 1053311" d="M27.182,43.53A9.915,9.915,0,0,1,41.308,40.39L35.72,49.384Z" transform="translate(70.819 107.72)" fill="#447a52"/>
            <path id="Trazado_1053312" data-name="Trazado 1053312" d="M23.857,44.67a11.071,11.071,0,0,0-2.964-14.86l-5.588,9Z" transform="translate(39.875 83.081)" fill="#447a52"/>
            <path id="Trazado_1053313" data-name="Trazado 1053313" d="M32.943,32.95a11.048,11.048,0,0,0,2.964,14.834l5.581-8.975Z" transform="translate(81.499 91.832)" fill="#447a52"/>
            <path id="Trazado_1053314" data-name="Trazado 1053314" d="M32.451,31.06a9.924,9.924,0,0,1-14.133,3.117L23.9,25.2Z" transform="translate(47.725 70.227)" fill="#447a52"/>
            <path id="Trazado_1053315" data-name="Trazado 1053315" d="M28.437,37.015a5.241,5.241,0,0,0,1.406,7.029,4.7,4.7,0,0,0,6.692-1.477,5.228,5.228,0,0,0-1.41-7.017,4.7,4.7,0,0,0-6.688,1.466" transform="translate(72.045 96.769)" fill="#447a52"/>
            <path id="Trazado_1053316" data-name="Trazado 1053316" d="M23.677,35.136a9.744,9.744,0,0,0,2.618,13.1A8.754,8.754,0,0,0,38.777,45.49a9.77,9.77,0,0,0-2.628-13.115,8.754,8.754,0,0,0-12.471,2.761" transform="translate(57.851 85.943)" fill="#447a52"/>
            <path id="Trazado_1053317" data-name="Trazado 1053317" d="M20.341,31.734a5.237,5.237,0,0,0,1.406,7.025,4.7,4.7,0,0,0,6.688-1.473,5.242,5.242,0,0,0-1.41-7.025,4.693,4.693,0,0,0-6.684,1.473" transform="translate(50.951 82.039)" fill="#447a52"/>
            <path id="Trazado_1053318" data-name="Trazado 1053318" d="M30.518,42.787c-1.208,1.939-2.736,1.8-4.182.867l-.725,1.159-1.226-.845.736-1.17a11.4,11.4,0,0,1-2-1.943L24.2,39.113c.728.621,2.073,1.632,2.7,2.068.757.515,1.157.708,1.626-.049l.2-.326c.368-.583.285-.988-.4-1.447l-1.035-.716c-1.918-1.314-1.291-3.227-.617-4.313l.343-.564c1.439-2.306,3.065-1.924,4.348-1.049l.7-1.121,1.226.844-.7,1.129a7.991,7.991,0,0,1,2,1.965l-1.071,1.719c-.483-.4-1.7-1.36-2.9-2.181-.544-.371-1.067-.542-1.431.045l-.249.4a.827.827,0,0,0,.3,1.314l1,.682a3.02,3.02,0,0,1,.793,4.435Z" transform="translate(60.244 88.059)" fill="#75c78a"/>
            <path id="Trazado_1053319" data-name="Trazado 1053319" d="M35.75,25.241a14.694,14.694,0,0,0,5.408,19.443L54.253,19.569a13.292,13.292,0,0,0-18.5,5.673" transform="translate(88.762 49.616)" fill="#eda73f"/>
            <path id="Trazado_1053320" data-name="Trazado 1053320" d="M54.54,37.707a14.455,14.455,0,0,1-2.517,3.45,13.459,13.459,0,0,1-4.856,3.151,12.986,12.986,0,0,1-8.757.151,13.207,13.207,0,0,1-2.376-1.076l13.1-25.116c.267.159.537.318.793.492A14.746,14.746,0,0,1,54.54,37.707" transform="translate(93.882 50.913)" fill="#eda73f"/>
            <path id="Trazado_1053321" data-name="Trazado 1053321" d="M53.608,19.218a13.289,13.289,0,0,0-18.5,5.673,14.7,14.7,0,0,0,5.4,19.439A13.3,13.3,0,0,0,59.016,38.65a14.688,14.688,0,0,0-5.408-19.431" transform="translate(87.085 48.634)" fill="#ffce3b"/>
            <path id="Trazado_1053322" data-name="Trazado 1053322" d="M35.457,24.277a12.223,12.223,0,0,0,4.5,16.163l10.9-20.889a11.062,11.062,0,0,0-15.391,4.726" transform="translate(88.741 50.403)" fill="#eda73f"/>
            <path id="Trazado_1053323" data-name="Trazado 1053323" d="M46.594,18.473l-10.9,20.889A11.062,11.062,0,0,0,51.09,34.64a12.223,12.223,0,0,0-4.5-16.167" transform="translate(92.999 51.485)" fill="#f59407"/>
            <path id="Trazado_1053324" data-name="Trazado 1053324" d="M39.541,37.528A10.381,10.381,0,0,1,35.72,23.811,9.4,9.4,0,0,1,48.782,19.8,10.381,10.381,0,0,1,52.6,33.521a9.391,9.391,0,0,1-13.055,4.007M48.58,20.2A8.981,8.981,0,0,0,36.1,24.027a9.918,9.918,0,0,0,3.645,13.107,8.981,8.981,0,0,0,12.478-3.825A9.93,9.93,0,0,0,48.58,20.2" transform="translate(89.985 51.736)" fill="#ffce3b"/>
            <path id="Trazado_1053325" data-name="Trazado 1053325" d="M39.436,21.87c1.183-2.223,2.866-2.178,4.521-1.284l.7-1.341,1.41.826-.707,1.348a11.51,11.51,0,0,1,2.318,1.958l-1.046,1.984c-.851-.6-2.4-1.6-3.133-2.026-.854-.507-1.312-.682-1.763.178l-.2.382c-.357.674-.231,1.094.552,1.553l1.19.693c2.2,1.276,1.658,3.431,1,4.681l-.335.651c-1.4,2.636-3.212,2.367-4.68,1.515l-.674,1.272-1.41-.826.681-1.288a8.872,8.872,0,0,1-2.351-1.988l1.042-1.973c.57.394,1.969,1.344,3.342,2.143.624.371,1.211.5,1.565-.17l.238-.447c.3-.56.31-.992-.418-1.413l-1.147-.663a3.317,3.317,0,0,1-1.2-4.8Z" transform="translate(92.507 53.639)" fill="#ffce3b"/>
            <g id="Grupo_1180533" data-name="Grupo 1180533" transform="translate(120.511 66.555)" opacity="0.3" style="mix-blend-mode: screen;isolation: isolate">
              <g id="Grupo_1180532" data-name="Grupo 1180532">
                <g id="Grupo_1180531" data-name="Grupo 1180531" clip-path="url(#clip-path-4)">
                  <path id="Trazado_1053326" data-name="Trazado 1053326" d="M49.313,17.575,35.818,21.714a14.26,14.26,0,0,0-1.925,2.8l18.47-5.665a13.426,13.426,0,0,0-3.05-1.276" transform="translate(-32.206 -17.573)" fill="#ffce3b"/>
                  <path id="Trazado_1053327" data-name="Trazado 1053327" d="M57.367,18.755l-23.8,7.305a15.013,15.013,0,0,0,.955,7.7L60.507,25.78a14.672,14.672,0,0,0-3.14-7.025" transform="translate(-33.424 -14.285)" fill="#ffce3b"/>
                </g>
              </g>
            </g>
            <path id="Trazado_1053328" data-name="Trazado 1053328" d="M34.76,24.1C29.846,33.523,33.13,45.35,42.1,50.508L59.9,16.387c-8.97-5.162-20.226-1.712-25.14,7.714" transform="translate(84.618 38.991)" fill="#eda73f"/>
            <path id="Trazado_1053329" data-name="Trazado 1053329" d="M60.291,41.03a19.571,19.571,0,0,1-3.411,4.688A18.382,18.382,0,0,1,50.279,50a17.674,17.674,0,0,1-11.9.2,18.01,18.01,0,0,1-3.23-1.462l17.8-34.121c.368.208.725.432,1.071.667a20.022,20.022,0,0,1,6.273,25.74" transform="translate(91.571 40.754)" fill="#eda73f"/>
            <path id="Trazado_1053330" data-name="Trazado 1053330" d="M59.029,15.907C50.055,10.745,38.8,14.2,33.885,23.625s-1.63,21.241,7.344,26.4,20.23,1.708,25.144-7.718S68,21.069,59.029,15.907" transform="translate(82.338 37.656)" fill="#ffce3b"/>
            <path id="Trazado_1053331" data-name="Trazado 1053331" d="M34.366,22.787c-4.088,7.835-1.356,17.67,6.108,21.961l14.8-28.38a15.027,15.027,0,0,0-20.908,6.419" transform="translate(84.59 40.066)" fill="#eda73f"/>
            <path id="Trazado_1053332" data-name="Trazado 1053332" d="M49.488,14.9l-14.8,28.38A15.031,15.031,0,0,0,55.6,36.867,16.61,16.61,0,0,0,49.488,14.9" transform="translate(90.375 41.532)" fill="#f59407"/>
            <path id="Trazado_1053333" data-name="Trazado 1053333" d="M39.9,40.791a14.109,14.109,0,0,1-5.177-18.636,12.755,12.755,0,0,1,17.738-5.442,14.105,14.105,0,0,1,5.181,18.632A12.758,12.758,0,0,1,39.9,40.791M52.185,17.247a12.2,12.2,0,0,0-16.956,5.2,13.479,13.479,0,0,0,4.954,17.807,12.2,12.2,0,0,0,16.956-5.2,13.485,13.485,0,0,0-4.954-17.807" transform="translate(86.283 41.872)" fill="#ffce3b"/>
            <path id="Trazado_1053334" data-name="Trazado 1053334" d="M39.772,19.514c1.6-3.018,3.89-2.954,6.14-1.746l.955-1.814,1.914,1.113L47.819,18.9a15.535,15.535,0,0,1,3.151,2.662l-1.417,2.7c-1.157-.822-3.266-2.17-4.258-2.749-1.161-.693-1.785-.928-2.4.239l-.274.519c-.487.916-.317,1.492.757,2.109l1.608.939c2.982,1.738,2.253,4.658,1.356,6.358l-.465.886c-1.893,3.586-4.352,3.219-6.353,2.06l-.912,1.727L36.7,35.23l.93-1.753a12.2,12.2,0,0,1-3.194-2.7L35.845,28.1c.768.534,2.675,1.825,4.543,2.916.851.5,1.64.678,2.124-.235l.324-.606a1.226,1.226,0,0,0-.573-1.924l-1.554-.9c-3.6-2.1-2.246-5.359-1.633-6.517Z" transform="translate(89.708 44.464)" fill="#ffce3b"/>
            <g id="Grupo_1180536" data-name="Grupo 1180536" transform="translate(113.944 51.813)" opacity="0.3" style="mix-blend-mode: screen;isolation: isolate">
              <g id="Grupo_1180535" data-name="Grupo 1180535">
                <g id="Grupo_1180534" data-name="Grupo 1180534" clip-path="url(#clip-path-5)">
                  <path id="Trazado_1053335" data-name="Trazado 1053335" d="M53.185,13.682,34.848,19.31a19.3,19.3,0,0,0-2.607,3.806l25.09-7.7a17.938,17.938,0,0,0-4.146-1.731" transform="translate(-29.944 -13.681)" fill="#ffce3b"/>
                  <path id="Trazado_1053336" data-name="Trazado 1053336" d="M64.13,15.284,31.8,25.206a20.373,20.373,0,0,0,1.3,10.456l35.3-10.835a19.884,19.884,0,0,0-4.262-9.543" transform="translate(-31.605 -9.216)" fill="#ffce3b"/>
                </g>
              </g>
            </g>
            <path id="Trazado_1053337" data-name="Trazado 1053337" d="M13.359,56.262a13.284,13.284,0,0,0,18.615,5.287L18.392,36.717a14.712,14.712,0,0,0-5.033,19.545" transform="translate(30.082 102.331)" fill="#eda73f"/>
            <path id="Trazado_1053338" data-name="Trazado 1053338" d="M32.06,43.4a14.881,14.881,0,0,1,1.521,10.047,14.434,14.434,0,0,1-4.445,7.926,13.328,13.328,0,0,1-2.109,1.572L13.445,38.118c.27-.159.537-.314.811-.454A13.305,13.305,0,0,1,32.06,43.4" transform="translate(35.029 100.927)" fill="#eda73f"/>
            <path id="Trazado_1053339" data-name="Trazado 1053339" d="M17.753,38.486a14.716,14.716,0,0,0-5.03,19.549,13.286,13.286,0,0,0,18.611,5.283,14.719,14.719,0,0,0,5.033-19.549,13.281,13.281,0,0,0-18.615-5.283" transform="translate(28.424 101.944)" fill="#ffce3b"/>
            <path id="Trazado_1053340" data-name="Trazado 1053340" d="M13.055,53.895A11.04,11.04,0,0,0,28.53,58.288L17.241,37.633a12.24,12.24,0,0,0-4.186,16.262" transform="translate(30.083 104.884)" fill="#eda73f"/>
            <path id="Trazado_1053341" data-name="Trazado 1053341" d="M13.126,38.8,24.418,59.457A12.246,12.246,0,0,0,28.6,43.192,11.05,11.05,0,0,0,13.126,38.8" transform="translate(34.198 103.718)" fill="#f59407"/>
            <path id="Trazado_1053342" data-name="Trazado 1053342" d="M26.431,56.56A9.379,9.379,0,0,1,13.3,52.83a10.4,10.4,0,0,1,3.548-13.8,9.389,9.389,0,0,1,13.134,3.738A10.4,10.4,0,0,1,26.431,56.56M17.064,39.424a9.928,9.928,0,0,0-3.4,13.179,8.963,8.963,0,0,0,12.55,3.567A9.935,9.935,0,0,0,29.61,42.987a8.965,8.965,0,0,0-12.547-3.564" transform="translate(31.328 105.048)" fill="#ffce3b"/>
            <path id="Trazado_1053343" data-name="Trazado 1053343" d="M13.663,45.275c-1.19-2.215-.274-3.708,1.309-4.722l-.721-1.329,1.4-.833.728,1.337a11.233,11.233,0,0,1,2.8-1.06L20.25,40.64c-.93.447-2.549,1.322-3.277,1.753-.862.5-1.24.822-.775,1.674l.206.382c.364.667.768.776,1.547.311l1.183-.7c2.185-1.3,3.656.3,4.323,1.545l.353.648c1.417,2.628.256,4.109-1.208,4.98l.685,1.269-1.406.833-.692-1.28a8.716,8.716,0,0,1-2.841,1.064L17.29,51.156c.613-.307,2.116-1.06,3.486-1.878.624-.371,1.035-.826.674-1.492l-.238-.451c-.306-.545-.649-.788-1.366-.352l-1.143.682c-2.632,1.564-4.06-.579-4.518-1.428Z" transform="translate(34.184 106.994)" fill="#ffce3b"/>
            <g id="Grupo_1180539" data-name="Grupo 1180539" transform="translate(39.857 138.524)" opacity="0.3" style="mix-blend-mode: screen;isolation: isolate">
              <g id="Grupo_1180538" data-name="Grupo 1180538">
                <g id="Grupo_1180537" data-name="Grupo 1180537" clip-path="url(#clip-path-6)">
                  <path id="Trazado_1053344" data-name="Trazado 1053344" d="M14.725,39.158l-3.67,14.254a14.725,14.725,0,0,0,1.276,3.181L17.35,37.086a13.7,13.7,0,0,0-2.625,2.072" transform="translate(-11.055 -35.165)" fill="#ffce3b"/>
                  <path id="Trazado_1053345" data-name="Trazado 1053345" d="M18.741,36.774,12.273,61.913a13.365,13.365,0,0,0,6.749,3.155l7.063-27.448a13.009,13.009,0,0,0-7.344-.844" transform="translate(-7.882 -36.58)" fill="#ffce3b"/>
                </g>
              </g>
            </g>
            <path id="Rectángulo_407731" data-name="Rectángulo 407731" d="M.9,0H31.144a.9.9,0,0,1,.9.9V40.029a.9.9,0,0,1-.9.9H.9a.9.9,0,0,1-.9-.9V.9A.9.9,0,0,1,.9,0Z" transform="translate(105.114 111.222)" fill="#1b1f19"/>
            <path id="Rectángulo_407732" data-name="Rectángulo 407732" d="M.9,0H31.14a.9.9,0,0,1,.9.9V40.029a.9.9,0,0,1-.9.9H.9a.9.9,0,0,1-.9-.9V.9A.9.9,0,0,1,.9,0Z" transform="translate(102.947 111.222)" fill="#153152"/>
            <path id="Trazado_1053346" data-name="Trazado 1053346" d="M58.27,27.363,56.98,25.924l-1.763,1.962-1.759-1.962L51.69,27.886l-1.759-1.962-1.759,1.962-1.763-1.962-1.759,1.962-1.381-1.534-.379-.428-1.763,1.962-1.763-1.962L37.6,27.886l-1.763-1.962-1.756,1.962-1.763-1.962L30.559,27.89l-1.467-1.632L29.1,60.621l1.464,1.632,1.763-1.962,1.759,1.962,1.763-1.962,1.759,1.962,1.759-1.962,1.763,1.962,1.759-1.962.382.42,1.381,1.538,1.759-1.958,1.767,1.958,1.756-1.962L51.7,62.249l1.759-1.962,1.767,1.962,1.759-1.962,1.294,1.443Z" transform="translate(75.795 72.251)" fill="#e1e1e1"/>
            <path id="Trazado_1053347" data-name="Trazado 1053347" d="M57.984,27.363l-1.291-1.439-1.767,1.962-1.752-1.962-1.767,1.962-1.763-1.962-1.763,1.962-1.756-1.962L44.36,27.886l-1.377-1.534-.379-.428-1.763,1.962-1.759-1.962-1.763,1.962-1.763-1.962L33.8,27.886l-1.759-1.962L30.277,27.89,28.81,26.257l0,34.364,1.464,1.632,1.759-1.962L33.8,62.253l1.759-1.962,1.763,1.962,1.759-1.962,1.767,1.962,1.759-1.962.379.42,1.381,1.538,1.759-1.958,1.763,1.958,1.759-1.962,1.763,1.962,1.763-1.962,1.759,1.962,1.759-1.962,1.3,1.443Z" transform="translate(75.06 72.251)" fill="#fefefe"/>
            <rect id="Rectángulo_407733" data-name="Rectángulo 407733" width="6.1" height="2.946" transform="translate(124.887 102.394)" fill="#5794d9"/>
            <rect id="Rectángulo_407734" data-name="Rectángulo 407734" width="6.1" height="2.943" transform="translate(124.691 108.173)" fill="#5794d9"/>
            <path id="Trazado_1053348" data-name="Trazado 1053348" d="M32.773,30.667a3.834,3.834,0,0,0-3.735,3.923V76.384A3.829,3.829,0,0,0,32.773,80.3H47.451V30.667Z" transform="translate(75.655 85.47)" fill="#153152"/>
            <path id="Trazado_1053349" data-name="Trazado 1053349" d="M48.83,30.667H34.145V80.3H48.83a3.829,3.829,0,0,0,3.735-3.916V34.59a3.834,3.834,0,0,0-3.735-3.923" transform="translate(88.961 85.47)" fill="#153152"/>
            <rect id="Rectángulo_407735" data-name="Rectángulo 407735" width="12.781" height="2.944" transform="translate(105.065 102.398)" fill="#5794d9"/>
            <rect id="Rectángulo_407736" data-name="Rectángulo 407736" width="4.811" height="2.946" transform="translate(117.845 102.395)" fill="#5794d9"/>
            <rect id="Rectángulo_407737" data-name="Rectángulo 407737" width="4.813" height="2.943" transform="translate(117.845 108.177)" fill="#5794d9"/>
            <rect id="Rectángulo_407738" data-name="Rectángulo 407738" width="12.781" height="2.943" transform="translate(105.064 108.173)" fill="#5794d9"/>
            <rect id="Rectángulo_407739" data-name="Rectángulo 407739" width="4.813" height="2.943" transform="translate(117.845 113.956)" fill="#5794d9"/>
            <rect id="Rectángulo_407740" data-name="Rectángulo 407740" width="12.781" height="2.941" transform="translate(105.065 113.956)" fill="#5794d9"/>
            <rect id="Rectángulo_407741" data-name="Rectángulo 407741" width="6.1" height="2.944" transform="translate(124.693 113.951)" fill="#5794d9"/>
            <rect id="Rectángulo_407742" data-name="Rectángulo 407742" width="12.44" height="4.83" transform="translate(118.353 125.064)" fill="#5794d9"/>
            <path id="Trazado_1053350" data-name="Trazado 1053350" d="M31.43,30.667a3.834,3.834,0,0,0-3.735,3.923V76.384A3.829,3.829,0,0,0,31.43,80.3H46.111V30.667Z" transform="translate(72.156 85.47)" fill="#193a61"/>
            <path id="Trazado_1053351" data-name="Trazado 1053351" d="M47.487,30.667H32.8V80.3H47.487a3.829,3.829,0,0,0,3.732-3.916V34.59a3.833,3.833,0,0,0-3.732-3.923" transform="translate(85.462 85.47)" fill="#193a61"/>
            <path id="Trazado_1053352" data-name="Trazado 1053352" d="M36.058,36.06H29.975a1.325,1.325,0,0,0-1.294,1.36v3.393a1.324,1.324,0,0,0,1.294,1.356h6.082a1.326,1.326,0,0,0,1.294-1.356V37.42a1.327,1.327,0,0,0-1.294-1.36" transform="translate(74.725 100.5)" fill="#e1e1e1"/>
            <path id="Trazado_1053353" data-name="Trazado 1053353" d="M36.058,38.337H29.975a1.327,1.327,0,0,0-1.294,1.36v3.4a1.326,1.326,0,0,0,1.294,1.356h6.082a1.328,1.328,0,0,0,1.294-1.356V39.7a1.329,1.329,0,0,0-1.294-1.36" transform="translate(74.725 106.846)" fill="#e1e1e1"/>
            <path id="Trazado_1053354" data-name="Trazado 1053354" d="M36.046,40.562H29.964a1.326,1.326,0,0,0-1.291,1.356v3.4a1.326,1.326,0,0,0,1.291,1.356h6.082a1.326,1.326,0,0,0,1.294-1.356v-3.4a1.326,1.326,0,0,0-1.294-1.356" transform="translate(74.704 113.047)" fill="#e1e1e1"/>
            <path id="Trazado_1053355" data-name="Trazado 1053355" d="M38.987,36.051H32.9a1.326,1.326,0,0,0-1.294,1.356v3.4A1.324,1.324,0,0,0,32.9,42.16h6.082A1.326,1.326,0,0,0,40.281,40.8v-3.4a1.328,1.328,0,0,0-1.294-1.356" transform="translate(82.356 100.475)" fill="#e1e1e1"/>
            <path id="Trazado_1053356" data-name="Trazado 1053356" d="M38.987,38.328H32.9a1.326,1.326,0,0,0-1.294,1.356v3.4A1.327,1.327,0,0,0,32.9,44.44h6.082a1.329,1.329,0,0,0,1.294-1.36v-3.4a1.328,1.328,0,0,0-1.294-1.356" transform="translate(82.356 106.821)" fill="#e1e1e1"/>
            <path id="Trazado_1053357" data-name="Trazado 1053357" d="M38.987,40.562H32.9a1.326,1.326,0,0,0-1.294,1.356v3.4A1.326,1.326,0,0,0,32.9,46.67h6.082a1.328,1.328,0,0,0,1.294-1.356v-3.4a1.328,1.328,0,0,0-1.294-1.356" transform="translate(82.356 113.047)" fill="#e1e1e1"/>
            <path id="Trazado_1053358" data-name="Trazado 1053358" d="M41.923,36.051H35.84a1.326,1.326,0,0,0-1.294,1.356v3.4A1.324,1.324,0,0,0,35.84,42.16h6.082A1.326,1.326,0,0,0,43.217,40.8v-3.4a1.328,1.328,0,0,0-1.294-1.356" transform="translate(90.005 100.475)" fill="#e1e1e1"/>
            <path id="Trazado_1053359" data-name="Trazado 1053359" d="M41.923,38.328H35.84a1.326,1.326,0,0,0-1.294,1.356v3.4a1.327,1.327,0,0,0,1.294,1.36h6.082a1.329,1.329,0,0,0,1.294-1.36v-3.4a1.328,1.328,0,0,0-1.294-1.356" transform="translate(90.005 106.821)" fill="#e1e1e1"/>
            <path id="Trazado_1053360" data-name="Trazado 1053360" d="M41.923,40.562H35.84a1.326,1.326,0,0,0-1.294,1.356v3.4A1.326,1.326,0,0,0,35.84,46.67h6.082a1.328,1.328,0,0,0,1.294-1.356v-3.4a1.328,1.328,0,0,0-1.294-1.356" transform="translate(90.005 113.047)" fill="#e1e1e1"/>
            <path id="Trazado_1053361" data-name="Trazado 1053361" d="M35.808,36.06H29.725a1.325,1.325,0,0,0-1.294,1.36v3.393a1.324,1.324,0,0,0,1.294,1.356h6.082A1.323,1.323,0,0,0,37.1,40.813V37.42a1.324,1.324,0,0,0-1.291-1.36" transform="translate(74.074 100.5)" fill="#fff"/>
            <path id="Trazado_1053362" data-name="Trazado 1053362" d="M35.808,38.337H29.725a1.327,1.327,0,0,0-1.294,1.36v3.4a1.326,1.326,0,0,0,1.294,1.356h6.082A1.326,1.326,0,0,0,37.1,43.094V39.7a1.326,1.326,0,0,0-1.291-1.36" transform="translate(74.074 106.846)" fill="#fff"/>
            <path id="Trazado_1053363" data-name="Trazado 1053363" d="M35.8,40.562H29.716a1.326,1.326,0,0,0-1.294,1.356v3.4a1.326,1.326,0,0,0,1.294,1.356H35.8a1.326,1.326,0,0,0,1.291-1.356v-3.4A1.326,1.326,0,0,0,35.8,40.562" transform="translate(74.05 113.047)" fill="#fff"/>
            <path id="Trazado_1053364" data-name="Trazado 1053364" d="M38.738,36.051H32.652a1.331,1.331,0,0,0-1.294,1.356v3.4a1.328,1.328,0,0,0,1.294,1.356h6.086A1.328,1.328,0,0,0,40.033,40.8v-3.4a1.331,1.331,0,0,0-1.294-1.356" transform="translate(81.7 100.475)" fill="#fff"/>
            <path id="Trazado_1053365" data-name="Trazado 1053365" d="M38.738,38.328H32.652a1.331,1.331,0,0,0-1.294,1.356v3.4a1.332,1.332,0,0,0,1.294,1.36h6.086a1.332,1.332,0,0,0,1.294-1.36v-3.4a1.331,1.331,0,0,0-1.294-1.356" transform="translate(81.7 106.821)" fill="#fff"/>
            <path id="Trazado_1053366" data-name="Trazado 1053366" d="M38.738,40.562H32.652a1.331,1.331,0,0,0-1.294,1.356v3.4a1.331,1.331,0,0,0,1.294,1.356h6.086a1.331,1.331,0,0,0,1.294-1.356v-3.4a1.331,1.331,0,0,0-1.294-1.356" transform="translate(81.7 113.047)" fill="#fff"/>
            <path id="Trazado_1053367" data-name="Trazado 1053367" d="M41.673,36.051H35.59A1.326,1.326,0,0,0,34.3,37.407v3.4A1.324,1.324,0,0,0,35.59,42.16h6.082A1.326,1.326,0,0,0,42.967,40.8v-3.4a1.328,1.328,0,0,0-1.294-1.356" transform="translate(89.354 100.475)" fill="#fff"/>
            <path id="Trazado_1053368" data-name="Trazado 1053368" d="M41.673,38.328H35.59A1.326,1.326,0,0,0,34.3,39.684v3.4a1.327,1.327,0,0,0,1.294,1.36h6.082a1.329,1.329,0,0,0,1.294-1.36v-3.4a1.328,1.328,0,0,0-1.294-1.356" transform="translate(89.354 106.821)" fill="#fff"/>
            <path id="Trazado_1053369" data-name="Trazado 1053369" d="M41.673,40.562H35.59A1.326,1.326,0,0,0,34.3,41.918v3.4A1.326,1.326,0,0,0,35.59,46.67h6.082a1.328,1.328,0,0,0,1.294-1.356v-3.4a1.328,1.328,0,0,0-1.294-1.356" transform="translate(89.354 113.047)" fill="#fff"/>
            <path id="Rectángulo_407743" data-name="Rectángulo 407743" d="M.855,0H31.374a.855.855,0,0,1,.855.855V11.916a.854.854,0,0,1-.854.854H.854A.854.854,0,0,1,0,11.916V.855A.855.855,0,0,1,.855,0Z" transform="translate(102.274 119.807)" fill="#5794d9"/>
            <path id="Trazado_1053370" data-name="Trazado 1053370" d="M32.3,33.54l1.154-.75h1.41v6.68H33.44v-5.23L32.3,34.5Z" transform="translate(84.165 91.388)" fill="#fff"/>
            <path id="Trazado_1053371" data-name="Trazado 1053371" d="M33.192,33.047a8.432,8.432,0,0,1,2.83-.258,1.531,1.531,0,0,1,1.6,1.647v.42c0,.667-.206,1.125-.7,1.314.5.193.7.689.7,1.382v.333a1.511,1.511,0,0,1-1.666,1.67,8.172,8.172,0,0,1-2.715-.257l.007-1.113h2.073c.62,0,.869-.027.869-.542v-.2c0-.489-.292-.56-.822-.587l-1.59-.064V35.581l1.59-.091c.6-.03.836-.11.836-.564V34.71c0-.5-.382-.557-.836-.557H33.192Z" transform="translate(86.478 91.368)" fill="#fff"/>
            <path id="Trazado_1053372" data-name="Trazado 1053372" d="M34.608,34c0-.776.314-1.208,1.19-1.208h.88c.847,0,1.161.432,1.161,1.208v1.079c0,.776-.3,1.212-1.179,1.212h-.88c-.851,0-1.172-.436-1.172-1.212Zm1.334,1.284H36.5c.346,0,.389-.159.389-.413V34.2c0-.337-.108-.409-.371-.409H35.96c-.267,0-.389.076-.389.409v.667c0,.261.058.413.371.413m4.078-2.492h.963l-3.861,6.68H36.1Zm-.746,4.37c0-.776.3-1.212,1.183-1.212h.88c.851,0,1.168.436,1.168,1.212v1.079c0,.773-.306,1.208-1.183,1.208h-.883c-.854,0-1.165-.436-1.165-1.208Zm1.334,1.28h.541c.35,0,.407-.155.407-.409v-.667c0-.337-.123-.409-.386-.409h-.548c-.267,0-.389.072-.389.409v.667c0,.265.054.409.375.409" transform="translate(90.167 91.389)" fill="#fff"/>
            <path id="Trazado_1053373" data-name="Trazado 1053373" d="M60.135,33.178A3.018,3.018,0,0,0,58,32.262H31.93A3.165,3.165,0,0,0,28.851,35.5v6.3a3.356,3.356,0,0,0,.451,1.7,3.335,3.335,0,0,1-.934-2.318v-6.3a3.168,3.168,0,0,1,3.079-3.245H57.514a3.04,3.04,0,0,1,2.621,1.545" transform="translate(73.909 88.162)" fill="#447a52"/>
            <g id="Grupo_1180542" data-name="Grupo 1180542" transform="translate(102.33 119.807)" opacity="0.5" style="mix-blend-mode: screen;isolation: isolate">
              <g id="Grupo_1180541" data-name="Grupo 1180541">
                <g id="Grupo_1180540" data-name="Grupo 1180540" clip-path="url(#clip-path-7)">
                  <path id="Trazado_1053374" data-name="Trazado 1053374" d="M36.959,31.636,28.382,41.717A3.246,3.246,0,0,0,29.5,43.69L39.955,31.636Z" transform="translate(-28.384 -31.637)" fill="#91cce1"/>
                  <path id="Trazado_1053375" data-name="Trazado 1053375" d="M40.611,31.636,29.485,44.406H41.649l11.137-12.77Z" transform="translate(-25.511 -31.636)" fill="#91cce1"/>
                </g>
              </g>
            </g>
            <path id="Trazado_1053376" data-name="Trazado 1053376" d="M54.269,35.465l-.671.526-2.8,2.185L49.744,39c-.2.159-.562.008-.79-.337l-.249-.371-.534-.8L47.1,35.889l-.278-.42-.119-.178h0l-3.061-4.6-.26-.386-2.387-3.583-.389-.583a.566.566,0,0,1,.007-.72l.764-.6,2.8-2.189.321-.246c.173-.14.472-.049.656.193l.624.833,1.128,1.5,1.529,2.022L50.8,30.076l.945,1.269.436.572,1.157,1.538.577.765.27.352c.245.329.285.735.083.894" transform="translate(105.468 62.213)" fill="#ebebeb"/>
            <path id="Trazado_1053377" data-name="Trazado 1053377" d="M51.544,30.176l-1.114.871-2.8,2.193-1.493,1.17c-.184.144-.544-.019-.79-.375l-.314-.443-2.152-3.033-.1-.144c-.249-.352-.3-.761-.115-.905l.123-.095,1.384-1.079,2.8-2.193.984-.769.126-.1c.184-.148.541.023.79.375l.1.148.927,1.307,1.54,2.166c.249.352.3.761.112.905" transform="translate(110.857 70.294)" fill="#dbdbdb"/>
            <path id="Trazado_1053378" data-name="Trazado 1053378" d="M70.846,55.072l-1.932,1.519-2.8,2.2-2.4,1.875c-.317.246-1.02-.223-1.594-1.049L44.372,33.8,42.995,31.7c-.4-.6-.53-1.272-.256-1.5l.022-.019.447-.337,1.4-1.091.065-.045,2.74-2.14.065-.045.934-.757.447-.337.018-.019c.274-.2.851.091,1.273.667.022,0,.022.027.022.027l20.208,27.07c.6.776.808,1.651.469,1.894" transform="translate(110.97 70.653)" fill="#153152"/>
            <path id="Trazado_1053379" data-name="Trazado 1053379" d="M50.187,28.936l-.941.735-2.794,2.189-1.345,1.053-.278-.424-.119-.178-3.065-4.594-.256-.386-.144-.216.8-.629.389-.307,2.8-2.185.761-.6.436.572L48.806,27.1l.945,1.265Z" transform="translate(107.46 65.193)" fill="#dbdbdb"/>
            <path id="Trazado_1053380" data-name="Trazado 1053380" d="M50.838,27.929l-.681.534-.916.712-2.8,2.193-.476.375-.847.667-.678.526c-.216.174-.588.049-.815-.273l-2.354-3.321a.681.681,0,0,1-.022-.9l.8-.629,1.208-.947,2.8-2.189.782-.614v0l.8-.625c.224-.17.591-.049.818.276l1.521,2.14.833,1.178a.685.685,0,0,1,.018.9" transform="translate(107.053 65.095)" fill="#153152"/>
            <path id="Trazado_1053381" data-name="Trazado 1053381" d="M67.411,55.723l-2.8,2.185L43.169,27.847l2.74-2.14.061-.045Z" transform="translate(112.471 71.519)" fill="#193a61"/>
            <path id="Trazado_1053382" data-name="Trazado 1053382" d="M79.412,51.015c-.245.47-.5.935-.768,1.39-.09.151-.187.3-.281.451-.108.174-.216.348-.332.519-.148.223-.3.451-.447.663-.112.159-.227.314-.339.47-.087.114-.169.22-.249.337a2.3,2.3,0,0,0-.144.186l-.014.015c-.036.042-.068.091-.108.133-.069.091-.141.186-.213.273-.314.386-.638.765-.97,1.132-.054.057-.115.125-.169.174-.119.133-.234.258-.353.379-.343.356-.7.7-1.064,1.038-.061.053-.123.11-.184.167-.126.114-.249.22-.382.337q-.568.483-1.146.932l-.076.061a1.409,1.409,0,0,0-.13.095c-.087.068-.18.133-.278.2-.043.027-.087.068-.137.1-.108.08-.213.155-.324.231-.3.208-.606.409-.916.606-.072.042-.144.091-.216.14a1.439,1.439,0,0,0-.159.095c-.1.053-.191.11-.285.17-.443.254-.887.5-1.345.72a1.537,1.537,0,0,1-.234.121c-.159.076-.321.159-.476.231-.476.223-.959.42-1.449.61-.083.038-.166.068-.252.1-.108.038-.22.08-.335.117-.065.027-.123.045-.184.064-.512.182-1.035.341-1.561.485-.094.027-.187.045-.278.068s-.195.053-.3.076l-.069.015v0c-.065.023-.133.034-.2.053-.5.117-1.01.216-1.521.3l-.1.015c-.335.053-.678.1-1.017.14-.678.076-1.356.125-2.037.14-.469.011-.934.011-1.406,0l-.032,0c-.079,0-.155,0-.231-.008-.292-.015-.577-.034-.865-.053-.26-.023-.516-.045-.772-.076-.1-.011-.206-.023-.31-.038-.321-.042-.638-.087-.955-.14-.292-.045-.584-.106-.873-.163-.1-.019-.195-.042-.288-.061-.133-.034-.267-.064-.4-.095-.22-.053-.436-.106-.649-.167l-.018,0a.331.331,0,0,1-.079-.027,21.3,21.3,0,0,1-2.116-.678c-.094-.042-.195-.076-.292-.114-.13-.053-.256-.1-.382-.159-.1-.034-.2-.076-.288-.114-.058-.034-.115-.053-.177-.083-.177-.072-.35-.148-.526-.231-.151-.076-.3-.151-.451-.223l-.029-.011c-.166-.08-.332-.167-.494-.254-.555-.288-1.092-.591-1.619-.928-.09-.057-.184-.114-.274-.174l-.285-.186c-.335-.223-.663-.458-.988-.7-.1-.072-.195-.14-.285-.208l-.058-.042c-.523-.409-1.038-.833-1.532-1.276-.058-.053-.112-.1-.169-.151-.065-.064-.13-.117-.187-.174h0a.883.883,0,0,1-.083-.083c-.292-.269-.577-.553-.847-.841a24.25,24.25,0,0,1-1.961-2.295c-.137-.17-.267-.348-.393-.519-.04-.061-.079-.114-.119-.17-.065-.095-.137-.189-.2-.288-.353-.511-.692-1.045-1.01-1.583l-.018-.027c-.036-.068-.076-.129-.108-.2-.166-.28-.317-.568-.469-.856-.2-.371-.386-.742-.566-1.129-.231-.5-.451-1.015-.653-1.534-.177-.451-.339-.905-.49-1.367l-.054-.159c-.036-.114-.072-.227-.108-.345-.068-.208-.123-.417-.184-.629l-.011-.023,0-.03v-.008a2.555,2.555,0,0,1-.079-.28,26.757,26.757,0,0,1-.681-3.439l-.018-.129c-.065-.511-.112-1.026-.144-1.545-.058-.8-.076-1.613-.058-2.439,0-.087,0-.186,0-.273.007-.129.011-.25.014-.379.007-.083.007-.159.011-.239s.007-.178.014-.269c.014-.235.036-.481.058-.72s.043-.47.072-.708l.007-.061.011-.1a26.648,26.648,0,0,1,1.695-6.658c.206-.523.433-1.038.674-1.549.166-.36.346-.716.534-1.064.22-.424.458-.833.7-1.238.047-.083.1-.163.144-.235.18-.307.382-.6.573-.894.058-.076.1-.155.162-.231.209-.3.422-.61.649-.905l.407-.53.126-.148a24.323,24.323,0,0,1,15.774-8.945h0a23.857,23.857,0,0,1,16.336,3.912,25.22,25.22,0,0,1,5.246,4.76,26,26,0,0,1,2.751,4.033c.061.106.115.212.177.322s.1.208.162.307c.065.129.13.25.191.379l.126.246c.389.807.739,1.64,1.049,2.484.04.106.076.212.115.318.076.2.141.413.209.621l.1.318c.213.655.386,1.325.541,2.007.094.424.18.845.256,1.269.065.386.126.788.18,1.182a27.112,27.112,0,0,1,.231,3.522c0,.292-.007.579-.018.867s-.018.595-.036.886l0,.008a26.853,26.853,0,0,1-.811,5.086l-.014.068c-.022.072-.04.136-.058.212-.083.3-.169.606-.263.9-.133.439-.274.867-.429,1.288-.1.265-.2.534-.31.8a24.629,24.629,0,0,1-1.035,2.249m4.918-.689c.339-.852.638-1.719.9-2.605A31.469,31.469,0,0,0,86,44.531c.133-.723.242-1.458.328-2.189.04-.337.076-.674.1-1.015.022-.261.04-.526.058-.791.014-.3.029-.587.036-.882.025-.64.022-1.272.007-1.9a31.93,31.93,0,0,0-1.071-7.317c-.058-.227-.123-.447-.187-.674-.184-.644-.389-1.265-.624-1.886a30.472,30.472,0,0,0-1.976-4.351,29.9,29.9,0,0,0-8.844-9.949,28.354,28.354,0,0,0-5.848-3.189,27.622,27.622,0,0,0-21.668.5,28.791,28.791,0,0,0-6.45,4.052,30.027,30.027,0,0,0-6.616,7.771,31.236,31.236,0,0,0-2.571,5.548c-.011.042-.029.08-.04.121l0,0c-.22.636-.418,1.291-.6,1.958-.133.5-.26.988-.368,1.492A31.925,31.925,0,0,0,28.94,37.7a32.757,32.757,0,0,0,.13,4.048c.036.409.087.822.141,1.223.061.447.137.9.209,1.341.09.47.18.939.288,1.4a31.071,31.071,0,0,0,.952,3.314c.141.42.292.833.454,1.242a30.7,30.7,0,0,0,1.341,2.92c.187.379.386.738.591,1.094a29.741,29.741,0,0,0,1.673,2.59c.061.087.123.17.184.254.177.242.353.481.541.716a29.045,29.045,0,0,0,1.969,2.287c.224.223.447.447.674.67v.008a1.406,1.406,0,0,1,.166.167,29.586,29.586,0,0,0,2.279,1.977c.314.25.635.489.963.72.5.364,1.017.708,1.536,1.03.227.14.454.28.689.42.119.072.245.14.368.212.27.151.537.3.8.439.1.049.2.095.3.148.209.11.418.216.635.314.09.042.18.087.278.129.663.311,1.348.591,2.037.852l.025.008c.094.034.195.072.3.106s.2.072.3.11c.213.068.418.14.631.2a1.049,1.049,0,0,1,.115.042c.681.212,1.374.4,2.077.553a2.615,2.615,0,0,0,.332.076.981.981,0,0,0,.151.034c.205.045.418.083.631.125l.1.019c.483.087.97.163,1.46.223.05,0,.1.015.155.019.123.015.245.03.364.042s.27.03.4.042c.458.038.919.072,1.384.091l.238.011c.151,0,.3.011.454.015h1.02l.054,0c.58-.015,1.154-.045,1.72-.095.227-.015.458-.038.681-.064.155-.015.31-.034.458-.053a26.6,26.6,0,0,0,4.027-.814c.854-.242,1.695-.526,2.517-.845.9-.348,1.774-.75,2.632-1.185.245-.125.487-.254.732-.39.411-.223.818-.462,1.219-.708a29.212,29.212,0,0,0,2.9-2.045c.224-.186.447-.364.667-.553A30.2,30.2,0,0,0,84.33,50.326" transform="translate(75.363 23.449)" fill="#153152"/>
            <path id="Trazado_1053383" data-name="Trazado 1053383" d="M78.441,47.052a27.762,27.762,0,0,0,2.131-9.911,28.238,28.238,0,0,0-.782-7.551,27.812,27.812,0,0,0-.826-2.742c-.05-.136-.1-.28-.151-.409a26.341,26.341,0,0,0-1.1-2.541c-.04-.083-.083-.167-.126-.25a26.508,26.508,0,0,0-8.527-9.8A24.45,24.45,0,0,0,55.965,9.515a24.188,24.188,0,0,0-4.82.311h0A25.3,25.3,0,0,0,34.805,20.179c-.314.443-.617.89-.909,1.36-.126.2-.256.413-.379.617l-.05.083-.238.42c-.26.462-.5.928-.739,1.413-.1.2-.206.417-.3.629v0c-.043.106-.094.208-.137.311l0,0a27.7,27.7,0,0,0-2.279,9.244c-.025.292-.036.576-.05.871,0,.091-.007.186-.011.284l0,.167c-.014.538-.011,1.068.007,1.6l0,0a27.666,27.666,0,0,0,.425,4.041c.079.492.18.985.3,1.469a27.086,27.086,0,0,0,7.607,13.41h0a25.285,25.285,0,0,0,5.8,4.17c.2.106.4.208.6.3a22.61,22.61,0,0,0,2.318.985,22.943,22.943,0,0,0,2.859.856,23.884,23.884,0,0,0,2.553.454c.62.08,1.255.133,1.893.155a1.9,1.9,0,0,0,.256.011c.5.019,1.006.019,1.5.008A25.175,25.175,0,0,0,76.314,51.131c.278-.443.548-.9.808-1.36.072-.125.141-.258.213-.386.141-.269.281-.534.415-.81.249-.5.476-1,.692-1.522m-2.174-24.1h0c.065.121.133.242.195.36.26.481.512.981.743,1.485a25.825,25.825,0,0,1,1.8,5.468,26.524,26.524,0,0,1-.667,13.315c-.159.5-.332.981-.519,1.466l0,0c-.047.14-.1.28-.159.417l0,0c-.083.2-.169.409-.256.606-.213.492-.44.969-.689,1.447A24.778,24.778,0,0,1,70.116,55.6c-.407.326-.822.632-1.247.928a22.925,22.925,0,0,1-13.91,4.135c-.209-.008-.418-.023-.624-.034a22.62,22.62,0,0,1-4.265-.67,22.118,22.118,0,0,1-2.672-.863c-.49-.193-.97-.394-1.446-.621-.209-.1-.425-.208-.638-.314-.606-.311-1.2-.648-1.781-1.015-.606-.375-1.2-.788-1.774-1.219-.609-.466-1.2-.962-1.763-1.481-.126-.125-.256-.239-.375-.356q-.746-.727-1.439-1.511a24.94,24.94,0,0,1-1.612-2.056A25.476,25.476,0,0,1,34.3,46.594c-.18-.4-.353-.807-.523-1.219q-.384-.954-.689-1.943c-.249-.8-.465-1.606-.635-2.427s-.3-1.67-.393-2.518a25.473,25.473,0,0,1-.137-3.647c.011-.424.032-.833.072-1.25.014-.242.032-.492.061-.735.018-.155.032-.307.05-.462.065-.519.148-1.038.242-1.549a25.763,25.763,0,0,1,3.36-8.767c.231-.379.48-.754.736-1.117a2.321,2.321,0,0,1,.151-.22c.274-.386.559-.765.851-1.136l.032-.042c.393-.485.8-.958,1.219-1.413a23.175,23.175,0,0,1,17.8-7.513c.205.008.411.015.609.019v0A23.7,23.7,0,0,1,76.267,22.948" transform="translate(77.366 26.477)" fill="#193a61"/>
            <g id="Grupo_1180545" data-name="Grupo 1180545" transform="translate(110.235 38.229)" opacity="0.34">
              <g id="Grupo_1180544" data-name="Grupo 1180544">
                <g id="Grupo_1180543" data-name="Grupo 1180543" clip-path="url(#clip-path-8)">
                  <path id="Trazado_1053384" data-name="Trazado 1053384" d="M31.505,40.51a24.277,24.277,0,0,1,.642-15.284c2.041-5.162,4.892-9.793,9.662-12.452a21.478,21.478,0,0,1,6.948-2.416,21.029,21.029,0,0,1,3.555-.261c.894.015,2.531.583,3.331.341a25.766,25.766,0,0,0-11.357,6.442,19.812,19.812,0,0,0-4.939,15.8A18.812,18.812,0,0,0,42.1,40.6c1.673,2.605,4.453,3.931,6.129,6.419a9,9,0,0,1,1.835,5.537c-.353,6.014-6.991,3.477-9.872,1.254a25.224,25.224,0,0,1-8.693-13.3" transform="translate(-30.575 -10.096)" fill="#f1f1f1"/>
                </g>
              </g>
            </g>
          </g>
        </g>
      </g>
    </g>
  </g>
</svg>
