<svg xmlns="http://www.w3.org/2000/svg" width="486.571" height="69" viewBox="0 0 486.571 69">
  <g id="Grupo_1180999" data-name="Grupo 1180999" transform="translate(2404.316 15493.742)">
    <path id="Trazado_1053660" data-name="Trazado 1053660" d="M0,0H486.571V69H0Z" transform="translate(-2404.316 -15493.742)" fill="#fff"/>
    <path id="Trazado_1054822" data-name="Trazado 1054822" d="M7.766,10.641H1.438l.219-1.258H7.992ZM7.2,13.883H.875l.219-1.25H7.43ZM17.234,17H15.813l1.672-9.594L14.461,8.469,14.7,7.094,18.922,5.57h.25Zm10.773-3.82h1.531l-.211,1.18H27.8L27.344,17H25.922l.461-2.641H21.352l.164-.93,6.25-7.8h1.547Zm-4.8,0h3.375L27.6,7.586l-.227.328Zm8.18,2.18a.846.846,0,0,1,.633.234.807.807,0,0,1,.242.625.844.844,0,0,1-.258.621.929.929,0,0,1-.625.254.788.788,0,0,1-.859-.828.874.874,0,0,1,.867-.906Zm11.2-6.836a2.818,2.818,0,0,1-.605,1.535,4.041,4.041,0,0,1-1.457,1.129,2.674,2.674,0,0,1,1.09,1.129,2.891,2.891,0,0,1,.293,1.543,3.315,3.315,0,0,1-1.234,2.418,4,4,0,0,1-2.7.879,3.21,3.21,0,0,1-2.336-.914,2.733,2.733,0,0,1-.742-2.25,3.041,3.041,0,0,1,.688-1.707A4.306,4.306,0,0,1,37.227,11.1a2.586,2.586,0,0,1-.9-1.062,2.7,2.7,0,0,1-.23-1.375,3.3,3.3,0,0,1,1.133-2.336,3.577,3.577,0,0,1,2.516-.859,2.908,2.908,0,0,1,2.156.883A2.7,2.7,0,0,1,42.586,8.523Zm-2.078,5.3a1.943,1.943,0,0,0-.375-1.473,1.716,1.716,0,0,0-1.359-.621,2.309,2.309,0,0,0-1.656.613,2.486,2.486,0,0,0-.8,1.621,1.838,1.838,0,0,0,.379,1.453,1.719,1.719,0,0,0,1.34.563,2.323,2.323,0,0,0,1.672-.574A2.381,2.381,0,0,0,40.508,13.828Zm.656-5.281a1.791,1.791,0,0,0-.324-1.328,1.462,1.462,0,0,0-1.168-.57,2,2,0,0,0-1.477.559,2.334,2.334,0,0,0-.7,1.48,1.76,1.76,0,0,0,.332,1.336A1.46,1.46,0,0,0,39,10.563a2,2,0,0,0,1.457-.551A2.285,2.285,0,0,0,41.164,8.547Zm10.219-.023a2.818,2.818,0,0,1-.605,1.535,4.041,4.041,0,0,1-1.457,1.129,2.674,2.674,0,0,1,1.09,1.129,2.891,2.891,0,0,1,.293,1.543,3.315,3.315,0,0,1-1.234,2.418,4,4,0,0,1-2.7.879,3.21,3.21,0,0,1-2.336-.914,2.733,2.733,0,0,1-.742-2.25,3.041,3.041,0,0,1,.688-1.707A4.306,4.306,0,0,1,46.023,11.1a2.586,2.586,0,0,1-.9-1.062,2.7,2.7,0,0,1-.23-1.375,3.3,3.3,0,0,1,1.133-2.336,3.577,3.577,0,0,1,2.516-.859,2.908,2.908,0,0,1,2.156.883A2.7,2.7,0,0,1,51.383,8.523Zm-2.078,5.3a1.943,1.943,0,0,0-.375-1.473,1.716,1.716,0,0,0-1.359-.621,2.309,2.309,0,0,0-1.656.613,2.486,2.486,0,0,0-.8,1.621,1.838,1.838,0,0,0,.379,1.453,1.719,1.719,0,0,0,1.34.563,2.323,2.323,0,0,0,1.672-.574A2.381,2.381,0,0,0,49.3,13.828Zm.656-5.281a1.791,1.791,0,0,0-.324-1.328,1.462,1.462,0,0,0-1.168-.57,2,2,0,0,0-1.477.559,2.334,2.334,0,0,0-.7,1.48,1.76,1.76,0,0,0,.332,1.336,1.46,1.46,0,0,0,1.176.539,2,2,0,0,0,1.457-.551A2.285,2.285,0,0,0,49.961,8.547Zm9.367-2.937L59.2,6.836H58.93a4.137,4.137,0,0,0-2.672.969,6,6,0,0,0-1.719,2.766,3.294,3.294,0,0,1,2.484-1.031,2.57,2.57,0,0,1,1.539.5,2.765,2.765,0,0,1,.941,1.328,4.353,4.353,0,0,1,.207,1.871,4.554,4.554,0,0,1-1.238,2.848,3.4,3.4,0,0,1-2.66,1.074,2.775,2.775,0,0,1-2.078-.93,3.927,3.927,0,0,1-.93-2.406A9.107,9.107,0,0,1,53,11.6a8.049,8.049,0,0,1,2.129-4.453,5.574,5.574,0,0,1,4.043-1.539Zm-2.609,5.125a2.386,2.386,0,0,0-1.422.438,3.076,3.076,0,0,0-1.023,1.156l-.055.523-.016.633a4,4,0,0,0,.2,1.242,1.9,1.9,0,0,0,.578.914,1.413,1.413,0,0,0,.9.32,2,2,0,0,0,1.621-.7A3.357,3.357,0,0,0,58.3,13.3a3.372,3.372,0,0,0-.086-1.289,1.894,1.894,0,0,0-.543-.926A1.441,1.441,0,0,0,56.719,10.734ZM74.836,5.625l-1.312,7.7a4.368,4.368,0,0,1-1.531,2.824,4.5,4.5,0,0,1-3.055,1.02A3.956,3.956,0,0,1,67,16.66a2.9,2.9,0,0,1-1.215-1.352,3.69,3.69,0,0,1-.258-1.98l1.313-7.7h1.445l-1.3,7.717a2.5,2.5,0,0,0,.406,1.88,2.031,2.031,0,0,0,1.633.715,2.812,2.812,0,0,0,2-.645,3.125,3.125,0,0,0,1.027-1.943l1.313-7.725Zm2.938,2.914-.2,1.07a3.333,3.333,0,0,1,2.594-1.219,2.1,2.1,0,0,1,1.766.828,3.217,3.217,0,0,1,.422,2.242L81.43,17H80.016l.93-5.557a2.962,2.962,0,0,0,.008-.71,1.168,1.168,0,0,0-1.289-1.116,2.661,2.661,0,0,0-2.234,1.358L76.383,17H74.969l1.469-8.453ZM85.141,17H83.734L85.2,8.547h1.406ZM86.3,5.461a.774.774,0,0,1,.6.215.8.8,0,0,1,.238.605.834.834,0,0,1-.836.852.779.779,0,0,1-.6-.211.764.764,0,0,1-.227-.594.886.886,0,0,1,.234-.609A.826.826,0,0,1,86.3,5.461Zm1.555,7.3a6.578,6.578,0,0,1,.711-2.328,4.03,4.03,0,0,1,1.367-1.555,3.127,3.127,0,0,1,1.789-.492A2.64,2.64,0,0,1,93.9,9.414L94.711,5h1.414L94.047,17H92.758l.148-.906a3.116,3.116,0,0,1-2.469,1.063,2.335,2.335,0,0,1-1.867-.918,4,4,0,0,1-.75-2.379A7.6,7.6,0,0,1,87.859,12.758Zm1.359.808a2.929,2.929,0,0,0,.4,1.732,1.437,1.437,0,0,0,1.234.632,2.554,2.554,0,0,0,2.18-1.233l.672-3.9A1.754,1.754,0,0,0,92,9.609a2.143,2.143,0,0,0-1.473.5,3.256,3.256,0,0,0-.969,1.475A6.082,6.082,0,0,0,89.219,13.565ZM101.453,17a1.893,1.893,0,0,1-.055-.445l.023-.445a3.465,3.465,0,0,1-2.469,1.047,2.526,2.526,0,0,1-1.816-.707,2.14,2.14,0,0,1-.637-1.73,2.6,2.6,0,0,1,1.176-2.1,5.005,5.005,0,0,1,2.887-.754l1.477.008.094-.672a1.545,1.545,0,0,0-.293-1.2,1.414,1.414,0,0,0-1.113-.457,2.181,2.181,0,0,0-1.285.355,1.513,1.513,0,0,0-.684.98l-1.422.008a2.266,2.266,0,0,1,.578-1.316,3.363,3.363,0,0,1,1.3-.891,4.215,4.215,0,0,1,1.648-.3,2.8,2.8,0,0,1,2.055.8,2.484,2.484,0,0,1,.617,2.043l-.687,4.188-.039.6a2.949,2.949,0,0,0,.094.852l-.016.133Zm-2.219-1.094a2.466,2.466,0,0,0,1.285-.324,3.254,3.254,0,0,0,1.043-.941l.3-1.742-1.07-.008a4.054,4.054,0,0,0-2.047.422,1.554,1.554,0,0,0-.8,1.2,1.21,1.21,0,0,0,.277.988A1.321,1.321,0,0,0,99.234,15.906Zm5.977-3.148a6.578,6.578,0,0,1,.711-2.328,4.03,4.03,0,0,1,1.367-1.555,3.127,3.127,0,0,1,1.789-.492,2.64,2.64,0,0,1,2.172,1.031L112.063,5h1.414L111.4,17h-1.289l.148-.906a3.116,3.116,0,0,1-2.469,1.063,2.335,2.335,0,0,1-1.867-.918,4,4,0,0,1-.75-2.379A7.6,7.6,0,0,1,105.211,12.758Zm1.359.808a2.929,2.929,0,0,0,.4,1.732,1.437,1.437,0,0,0,1.234.632,2.554,2.554,0,0,0,2.18-1.233l.672-3.9a1.754,1.754,0,0,0-1.7-1.186,2.143,2.143,0,0,0-1.473.5,3.256,3.256,0,0,0-.969,1.475A6.082,6.082,0,0,0,106.57,13.565Zm10.719,3.591a3.048,3.048,0,0,1-2.469-1.164,4.006,4.006,0,0,1-.75-2.9l.039-.336a5.624,5.624,0,0,1,.746-2.3,4.339,4.339,0,0,1,1.5-1.566,3.491,3.491,0,0,1,1.906-.5,2.688,2.688,0,0,1,2.047.867,3.566,3.566,0,0,1,.813,2.266,6.62,6.62,0,0,1-.031,1.016l-.086.648h-5.523a2.856,2.856,0,0,0,.379,1.953,1.8,1.8,0,0,0,1.551.836,3.007,3.007,0,0,0,2.313-1.125l.813.688a3.718,3.718,0,0,1-1.371,1.2A3.886,3.886,0,0,1,117.289,17.156Zm.9-7.586a2.066,2.066,0,0,0-1.527.594A4.22,4.22,0,0,0,115.625,12l4.109.008.031-.125a2.313,2.313,0,0,0-.316-1.637A1.488,1.488,0,0,0,118.188,9.57Zm8.977,5.141q.117-.875-.961-1.234l-1.469-.43q-1.859-.641-1.8-2.125a2.341,2.341,0,0,1,1.02-1.832,3.631,3.631,0,0,1,2.27-.7,3.027,3.027,0,0,1,2.082.746,2.363,2.363,0,0,1,.77,1.9l-1.406-.008a1.319,1.319,0,0,0-.4-1.031,1.576,1.576,0,0,0-1.1-.414,2.059,2.059,0,0,0-1.266.359,1.316,1.316,0,0,0-.57.922q-.1.734.9,1.07l.711.2a4.577,4.577,0,0,1,2.063.977,1.865,1.865,0,0,1,.563,1.492,2.37,2.37,0,0,1-.516,1.375,2.948,2.948,0,0,1-1.25.895,4.18,4.18,0,0,1-1.664.285,3.3,3.3,0,0,1-2.219-.785,2.427,2.427,0,0,1-.844-1.98l1.414.008a1.5,1.5,0,0,0,.453,1.141,1.732,1.732,0,0,0,1.242.43,2.436,2.436,0,0,0,1.336-.324A1.247,1.247,0,0,0,127.164,14.711ZM139.1,17a1.894,1.894,0,0,1-.055-.445l.023-.445a3.465,3.465,0,0,1-2.469,1.047,2.526,2.526,0,0,1-1.816-.707,2.14,2.14,0,0,1-.637-1.73,2.6,2.6,0,0,1,1.176-2.1,5.005,5.005,0,0,1,2.887-.754l1.477.008.094-.672a1.545,1.545,0,0,0-.293-1.2,1.414,1.414,0,0,0-1.113-.457,2.181,2.181,0,0,0-1.285.355,1.513,1.513,0,0,0-.684.98l-1.422.008a2.266,2.266,0,0,1,.578-1.316,3.363,3.363,0,0,1,1.3-.891,4.215,4.215,0,0,1,1.648-.3,2.8,2.8,0,0,1,2.055.8,2.484,2.484,0,0,1,.617,2.043l-.687,4.188-.039.6a2.949,2.949,0,0,0,.094.852l-.016.133Zm-2.219-1.094a2.466,2.466,0,0,0,1.285-.324,3.254,3.254,0,0,0,1.043-.941l.3-1.742-1.07-.008a4.054,4.054,0,0,0-2.047.422,1.554,1.554,0,0,0-.8,1.2,1.21,1.21,0,0,0,.277.988A1.321,1.321,0,0,0,136.883,15.906Zm12.563-.883,3.047-6.477h1.492L149.727,17h-1.078l-1.656-8.453h1.391Zm8.18,2.133a3.048,3.048,0,0,1-2.469-1.164,4.006,4.006,0,0,1-.75-2.9l.039-.336a5.624,5.624,0,0,1,.746-2.3,4.339,4.339,0,0,1,1.5-1.566,3.491,3.491,0,0,1,1.906-.5,2.688,2.688,0,0,1,2.047.867,3.566,3.566,0,0,1,.813,2.266,6.621,6.621,0,0,1-.031,1.016l-.086.648h-5.523a2.855,2.855,0,0,0,.379,1.953,1.8,1.8,0,0,0,1.551.836,3.007,3.007,0,0,0,2.313-1.125l.813.688a3.718,3.718,0,0,1-1.371,1.2A3.886,3.886,0,0,1,157.625,17.156Zm.9-7.586a2.066,2.066,0,0,0-1.527.594A4.22,4.22,0,0,0,155.961,12l4.109.008.031-.125a2.313,2.313,0,0,0-.316-1.637A1.488,1.488,0,0,0,158.523,9.57Zm6.547-1.031-.2,1.07a3.333,3.333,0,0,1,2.594-1.219,2.1,2.1,0,0,1,1.766.828,3.217,3.217,0,0,1,.422,2.242L168.727,17h-1.414l.93-5.557a2.962,2.962,0,0,0,.008-.71,1.168,1.168,0,0,0-1.289-1.116,2.661,2.661,0,0,0-2.234,1.358L163.68,17h-1.414l1.469-8.453Zm6.242,4.219a6.578,6.578,0,0,1,.711-2.328,4.03,4.03,0,0,1,1.367-1.555,3.127,3.127,0,0,1,1.789-.492,2.64,2.64,0,0,1,2.172,1.031L178.164,5h1.414L177.5,17h-1.289l.148-.906a3.116,3.116,0,0,1-2.469,1.063,2.335,2.335,0,0,1-1.867-.918,4,4,0,0,1-.75-2.379A7.6,7.6,0,0,1,171.313,12.758Zm1.359.808a2.929,2.929,0,0,0,.4,1.732,1.437,1.437,0,0,0,1.234.632,2.554,2.554,0,0,0,2.18-1.233l.672-3.9a1.754,1.754,0,0,0-1.7-1.186,2.143,2.143,0,0,0-1.473.5,3.256,3.256,0,0,0-.969,1.475A6.082,6.082,0,0,0,172.672,13.565Zm10.719,3.591a3.048,3.048,0,0,1-2.469-1.164,4.006,4.006,0,0,1-.75-2.9l.039-.336a5.624,5.624,0,0,1,.746-2.3,4.339,4.339,0,0,1,1.5-1.566,3.491,3.491,0,0,1,1.906-.5,2.688,2.688,0,0,1,2.047.867,3.566,3.566,0,0,1,.813,2.266,6.621,6.621,0,0,1-.031,1.016l-.086.648h-5.523a2.855,2.855,0,0,0,.379,1.953,1.8,1.8,0,0,0,1.551.836,3.007,3.007,0,0,0,2.313-1.125l.813.688a3.718,3.718,0,0,1-1.371,1.2A3.886,3.886,0,0,1,183.391,17.156Zm.9-7.586a2.066,2.066,0,0,0-1.527.594A4.22,4.22,0,0,0,181.727,12l4.109.008.031-.125a2.313,2.313,0,0,0-.316-1.637A1.488,1.488,0,0,0,184.289,9.57Zm9,.266-.664-.07a2.42,2.42,0,0,0-2.141,1.227L189.445,17h-1.414L189.5,8.547l1.367-.008-.211.984a2.527,2.527,0,0,1,2.117-1.148,2.594,2.594,0,0,1,.672.117Z" transform="translate(-2147.746 -15466.742)" fill="#12263f"/>
    <path id="Trazado_1054824" data-name="Trazado 1054824" d="M29.065,14.016a1.492,1.492,0,0,0-.336-1.172,3.358,3.358,0,0,0-1.4-.879,5.768,5.768,0,0,1-1.574-.855,2.767,2.767,0,0,1-1.047-2.477,3.194,3.194,0,0,1,.926-2.121,3.714,3.714,0,0,1,2.223-1.02l.3-1.711H29.3l-.312,1.734a2.462,2.462,0,0,1,1.723,1.168,4.053,4.053,0,0,1,.449,2.441h-1.4a2.932,2.932,0,0,0-.34-1.767,1.378,1.378,0,0,0-1.184-.639,2.048,2.048,0,0,0-1.457.5A2.074,2.074,0,0,0,26.112,8.6,1.587,1.587,0,0,0,26.4,9.755a3.328,3.328,0,0,0,1.434.912,6.052,6.052,0,0,1,1.625.891,2.817,2.817,0,0,1,.809,1.066,2.96,2.96,0,0,1,.2,1.375,3.128,3.128,0,0,1-1,2.156,4.027,4.027,0,0,1-2.371.977l-.266,1.492H25.706l.273-1.508a2.754,2.754,0,0,1-1.937-1.1,3.586,3.586,0,0,1-.57-2.367h1.414a2.319,2.319,0,0,0,.371,1.633,1.651,1.651,0,0,0,1.379.625,2.554,2.554,0,0,0,1.66-.5A1.977,1.977,0,0,0,29.065,14.016ZM39.026,17H31.784l.172-1.1,4.2-4.078.766-.758a4.483,4.483,0,0,0,1.461-2.437,1.807,1.807,0,0,0-.336-1.4,1.58,1.58,0,0,0-1.234-.574,2.328,2.328,0,0,0-1.711.6,2.745,2.745,0,0,0-.836,1.723l-1.4.008a3.956,3.956,0,0,1,.645-1.855,3.59,3.59,0,0,1,1.43-1.242,4.108,4.108,0,0,1,1.926-.41,3.156,3.156,0,0,1,2.246.855,2.535,2.535,0,0,1,.715,2.137A5.445,5.445,0,0,1,38.1,11.617l-.719.727L33.721,15.82h5.492Zm4.625-6.391.938.008a2.769,2.769,0,0,0,1.738-.543A2.058,2.058,0,0,0,47.135,8.6,1.814,1.814,0,0,0,46.8,7.176a1.613,1.613,0,0,0-1.273-.535,2.175,2.175,0,0,0-1.512.52A2.294,2.294,0,0,0,43.252,8.6l-1.4.008a3.241,3.241,0,0,1,1.2-2.285A3.8,3.8,0,0,1,45.6,5.461a3.04,3.04,0,0,1,2.246.895,2.838,2.838,0,0,1,.707,2.277,2.631,2.631,0,0,1-.617,1.469,4.111,4.111,0,0,1-1.516,1.1,2.248,2.248,0,0,1,1.156.988,2.757,2.757,0,0,1,.32,1.582A3.491,3.491,0,0,1,46.67,16.25,3.844,3.844,0,0,1,44,17.156a3.234,3.234,0,0,1-2.328-.906,2.874,2.874,0,0,1-.8-2.258L42.284,14a1.9,1.9,0,0,0,.422,1.41,1.8,1.8,0,0,0,1.359.566,2.273,2.273,0,0,0,1.664-.57,2.38,2.38,0,0,0,.758-1.609,1.741,1.741,0,0,0-.422-1.449,2.127,2.127,0,0,0-1.516-.551l-1.086-.008Zm6.828,4.75a.846.846,0,0,1,.633.234.807.807,0,0,1,.242.625.844.844,0,0,1-.258.621.929.929,0,0,1-.625.254.788.788,0,0,1-.859-.828.874.874,0,0,1,.867-.906Zm6.57,1.8a2.567,2.567,0,0,1-2.156-1.02,4.526,4.526,0,0,1-.656-2.848q.016-.578.086-1.141l.281-1.9a7.043,7.043,0,0,1,1.43-3.625,3.418,3.418,0,0,1,2.781-1.156,2.6,2.6,0,0,1,2.168,1,4.426,4.426,0,0,1,.66,2.8q-.023.586-.094,1.148l-.273,1.836a7.463,7.463,0,0,1-1.461,3.758A3.4,3.4,0,0,1,57.049,17.156Zm3.133-7a12.092,12.092,0,0,0,.1-1.469Q60.245,6.7,58.745,6.648a2.053,2.053,0,0,0-1.77.809,5.606,5.606,0,0,0-.941,2.66L55.7,12.383a11.525,11.525,0,0,0-.1,1.477q.039,2.07,1.531,2.125a2.007,2.007,0,0,0,1.715-.766,5.429,5.429,0,0,0,.965-2.578ZM70.471,8.523a2.818,2.818,0,0,1-.605,1.535,4.041,4.041,0,0,1-1.457,1.129,2.674,2.674,0,0,1,1.09,1.129,2.891,2.891,0,0,1,.293,1.543,3.315,3.315,0,0,1-1.234,2.418,4,4,0,0,1-2.7.879,3.21,3.21,0,0,1-2.336-.914,2.733,2.733,0,0,1-.742-2.25,3.041,3.041,0,0,1,.688-1.707A4.306,4.306,0,0,1,65.112,11.1a2.586,2.586,0,0,1-.9-1.062,2.7,2.7,0,0,1-.23-1.375,3.3,3.3,0,0,1,1.133-2.336,3.577,3.577,0,0,1,2.516-.859,2.908,2.908,0,0,1,2.156.883A2.7,2.7,0,0,1,70.471,8.523Zm-2.078,5.3a1.943,1.943,0,0,0-.375-1.473,1.716,1.716,0,0,0-1.359-.621A2.309,2.309,0,0,0,65,12.348a2.486,2.486,0,0,0-.8,1.621,1.838,1.838,0,0,0,.379,1.453,1.719,1.719,0,0,0,1.34.563A2.323,2.323,0,0,0,67.6,15.41,2.381,2.381,0,0,0,68.393,13.828Zm.656-5.281a1.791,1.791,0,0,0-.324-1.328,1.462,1.462,0,0,0-1.168-.57,2,2,0,0,0-1.477.559,2.334,2.334,0,0,0-.7,1.48,1.76,1.76,0,0,0,.332,1.336,1.46,1.46,0,0,0,1.176.539,2,2,0,0,0,1.457-.551A2.285,2.285,0,0,0,69.049,8.547ZM78.377,17H71.135l.172-1.1,4.2-4.078.766-.758a4.483,4.483,0,0,0,1.461-2.437,1.807,1.807,0,0,0-.336-1.4,1.58,1.58,0,0,0-1.234-.574,2.328,2.328,0,0,0-1.711.6,2.745,2.745,0,0,0-.836,1.723l-1.4.008a3.956,3.956,0,0,1,.645-1.855,3.59,3.59,0,0,1,1.43-1.242,4.108,4.108,0,0,1,1.926-.41,3.156,3.156,0,0,1,2.246.855,2.535,2.535,0,0,1,.715,2.137,5.445,5.445,0,0,1-1.727,3.156l-.719.727L73.073,15.82h5.492Zm2.656-1.641a.846.846,0,0,1,.633.234.807.807,0,0,1,.242.625.844.844,0,0,1-.258.621.929.929,0,0,1-.625.254.788.788,0,0,1-.859-.828.874.874,0,0,1,.867-.906Zm9.578-2.18h1.531l-.211,1.18H90.409L89.948,17H88.526l.461-2.641H83.956l.164-.93,6.25-7.8h1.547Zm-4.8,0H89.19l1.016-5.594-.227.328ZM99.143,12a4.055,4.055,0,0,1-1.227.91,2.873,2.873,0,0,1-1.289.285,2.51,2.51,0,0,1-1.535-.508,2.8,2.8,0,0,1-.93-1.352,4.479,4.479,0,0,1-.2-1.875A5.054,5.054,0,0,1,94.6,7.4a3.87,3.87,0,0,1,1.387-1.449,3.4,3.4,0,0,1,1.887-.48A2.682,2.682,0,0,1,100,6.453a4.206,4.206,0,0,1,.836,2.555,10.638,10.638,0,0,1-.2,2.078,7.885,7.885,0,0,1-2.035,4.4,5.523,5.523,0,0,1-3.9,1.527h-.352l.125-1.227h.289a4.246,4.246,0,0,0,2.754-.939A5.616,5.616,0,0,0,99.143,12Zm-2.219,0a2.257,2.257,0,0,0,1.367-.4A3.4,3.4,0,0,0,99.37,10.43l.063-.57.023-.633a3.661,3.661,0,0,0-.449-1.867,1.412,1.412,0,0,0-1.2-.687,2,2,0,0,0-1.652.746,3.381,3.381,0,0,0-.793,1.965,3.778,3.778,0,0,0,.016.969,2.464,2.464,0,0,0,.281.867A1.412,1.412,0,0,0,96.924,12Zm13.539-5.484L104.284,17h-1.547l6.148-10.187h-5.937l.188-1.187H110.6Zm-.227,12.758-.812-.586a5.16,5.16,0,0,0,1.125-2.219l.2-1.18h1.383l-.164,1.055A4.521,4.521,0,0,1,110.237,19.273Zm6.883-2.117a2.567,2.567,0,0,1-2.156-1.02,4.526,4.526,0,0,1-.656-2.848q.016-.578.086-1.141l.281-1.9a7.043,7.043,0,0,1,1.43-3.625,3.418,3.418,0,0,1,2.781-1.156,2.6,2.6,0,0,1,2.168,1,4.426,4.426,0,0,1,.66,2.8q-.023.586-.094,1.148l-.273,1.836a7.463,7.463,0,0,1-1.461,3.758A3.4,3.4,0,0,1,117.12,17.156Zm3.133-7a12.092,12.092,0,0,0,.1-1.469q-.039-1.984-1.539-2.039a2.053,2.053,0,0,0-1.77.809,5.606,5.606,0,0,0-.941,2.66l-.336,2.266a11.525,11.525,0,0,0-.1,1.477q.039,2.07,1.531,2.125a2.007,2.007,0,0,0,1.715-.766,5.429,5.429,0,0,0,.965-2.578Zm5.664,7a2.567,2.567,0,0,1-2.156-1.02,4.526,4.526,0,0,1-.656-2.848q.016-.578.086-1.141l.281-1.9a7.043,7.043,0,0,1,1.43-3.625,3.418,3.418,0,0,1,2.781-1.156,2.6,2.6,0,0,1,2.168,1,4.426,4.426,0,0,1,.66,2.8q-.023.586-.094,1.148l-.273,1.836a7.463,7.463,0,0,1-1.461,3.758A3.4,3.4,0,0,1,125.916,17.156Zm3.133-7a12.092,12.092,0,0,0,.1-1.469q-.039-1.984-1.539-2.039a2.053,2.053,0,0,0-1.77.809,5.606,5.606,0,0,0-.941,2.66l-.336,2.266a11.525,11.525,0,0,0-.1,1.477q.039,2.07,1.531,2.125a2.007,2.007,0,0,0,1.715-.766,5.429,5.429,0,0,0,.965-2.578Z" transform="translate(-2347.994 -15480.242)" fill="#12263f"/>
    <path id="Trazado_1054823" data-name="Trazado 1054823" d="M60.078,10.609l.938.008a2.769,2.769,0,0,0,1.738-.543A2.058,2.058,0,0,0,63.563,8.6a1.814,1.814,0,0,0-.336-1.426,1.613,1.613,0,0,0-1.273-.535,2.175,2.175,0,0,0-1.512.52A2.294,2.294,0,0,0,59.68,8.6l-1.4.008a3.241,3.241,0,0,1,1.2-2.285,3.8,3.8,0,0,1,2.543-.863,3.04,3.04,0,0,1,2.246.895,2.838,2.838,0,0,1,.707,2.277,2.631,2.631,0,0,1-.617,1.469,4.111,4.111,0,0,1-1.516,1.1A2.248,2.248,0,0,1,64,12.191a2.757,2.757,0,0,1,.32,1.582A3.491,3.491,0,0,1,63.1,16.25a3.844,3.844,0,0,1-2.668.906A3.234,3.234,0,0,1,58.1,16.25a2.874,2.874,0,0,1-.8-2.258L58.711,14a1.9,1.9,0,0,0,.422,1.41,1.8,1.8,0,0,0,1.359.566,2.273,2.273,0,0,0,1.664-.57,2.38,2.38,0,0,0,.758-1.609,1.741,1.741,0,0,0-.422-1.449,2.127,2.127,0,0,0-1.516-.551l-1.086-.008Zm6.828,4.75a.846.846,0,0,1,.633.234.807.807,0,0,1,.242.625.844.844,0,0,1-.258.621.929.929,0,0,1-.625.254.788.788,0,0,1-.859-.828.874.874,0,0,1,.867-.906Zm6.57,1.8a2.567,2.567,0,0,1-2.156-1.02,4.526,4.526,0,0,1-.656-2.848q.016-.578.086-1.141l.281-1.9a7.043,7.043,0,0,1,1.43-3.625,3.418,3.418,0,0,1,2.781-1.156,2.6,2.6,0,0,1,2.168,1,4.426,4.426,0,0,1,.66,2.8q-.023.586-.094,1.148L77.7,12.25a7.463,7.463,0,0,1-1.461,3.758A3.4,3.4,0,0,1,73.477,17.156Zm3.133-7a12.092,12.092,0,0,0,.1-1.469Q76.672,6.7,75.172,6.648a2.053,2.053,0,0,0-1.77.809,5.606,5.606,0,0,0-.941,2.66l-.336,2.266a11.525,11.525,0,0,0-.1,1.477q.039,2.07,1.531,2.125a2.007,2.007,0,0,0,1.715-.766,5.429,5.429,0,0,0,.965-2.578Zm5.664,7a2.567,2.567,0,0,1-2.156-1.02,4.526,4.526,0,0,1-.656-2.848q.016-.578.086-1.141l.281-1.9a7.043,7.043,0,0,1,1.43-3.625,3.418,3.418,0,0,1,2.781-1.156,2.6,2.6,0,0,1,2.168,1,4.426,4.426,0,0,1,.66,2.8q-.023.586-.094,1.148L86.5,12.25a7.463,7.463,0,0,1-1.461,3.758A3.4,3.4,0,0,1,82.273,17.156Zm3.133-7a12.092,12.092,0,0,0,.1-1.469Q85.469,6.7,83.969,6.648a2.053,2.053,0,0,0-1.77.809,5.606,5.606,0,0,0-.941,2.66l-.336,2.266a11.525,11.525,0,0,0-.1,1.477q.039,2.07,1.531,2.125a2.007,2.007,0,0,0,1.715-.766,5.429,5.429,0,0,0,.965-2.578Zm5.664,7a2.567,2.567,0,0,1-2.156-1.02,4.526,4.526,0,0,1-.656-2.848q.016-.578.086-1.141l.281-1.9a7.043,7.043,0,0,1,1.43-3.625,3.418,3.418,0,0,1,2.781-1.156,2.6,2.6,0,0,1,2.168,1,4.426,4.426,0,0,1,.66,2.8q-.023.586-.094,1.148L95.3,12.25a7.463,7.463,0,0,1-1.461,3.758A3.4,3.4,0,0,1,91.07,17.156Zm3.133-7a12.092,12.092,0,0,0,.1-1.469Q94.266,6.7,92.766,6.648A2.053,2.053,0,0,0,91,7.457a5.606,5.606,0,0,0-.941,2.66l-.336,2.266a11.525,11.525,0,0,0-.1,1.477q.039,2.07,1.531,2.125a2.007,2.007,0,0,0,1.715-.766,5.429,5.429,0,0,0,.965-2.578Zm1.906,9.117-.812-.586a5.16,5.16,0,0,0,1.125-2.219l.2-1.18h1.383l-.164,1.055A4.521,4.521,0,0,1,96.109,19.273Zm6.883-2.117a2.567,2.567,0,0,1-2.156-1.02,4.526,4.526,0,0,1-.656-2.848q.016-.578.086-1.141l.281-1.9a7.043,7.043,0,0,1,1.43-3.625,3.418,3.418,0,0,1,2.781-1.156,2.6,2.6,0,0,1,2.168,1,4.426,4.426,0,0,1,.66,2.8q-.023.586-.094,1.148l-.273,1.836a7.463,7.463,0,0,1-1.461,3.758A3.4,3.4,0,0,1,102.992,17.156Zm3.133-7a12.092,12.092,0,0,0,.1-1.469q-.039-1.984-1.539-2.039a2.053,2.053,0,0,0-1.77.809,5.606,5.606,0,0,0-.941,2.66l-.336,2.266a11.525,11.525,0,0,0-.1,1.477q.039,2.07,1.531,2.125a2.007,2.007,0,0,0,1.715-.766,5.429,5.429,0,0,0,.965-2.578Zm5.664,7a2.567,2.567,0,0,1-2.156-1.02,4.526,4.526,0,0,1-.656-2.848q.016-.578.086-1.141l.281-1.9a7.043,7.043,0,0,1,1.43-3.625,3.418,3.418,0,0,1,2.781-1.156,2.6,2.6,0,0,1,2.168,1,4.426,4.426,0,0,1,.66,2.8q-.023.586-.094,1.148l-.273,1.836a7.463,7.463,0,0,1-1.461,3.758A3.4,3.4,0,0,1,111.789,17.156Zm3.133-7a12.092,12.092,0,0,0,.1-1.469q-.039-1.984-1.539-2.039a2.053,2.053,0,0,0-1.77.809,5.606,5.606,0,0,0-.941,2.66l-.336,2.266a11.525,11.525,0,0,0-.1,1.477q.039,2.07,1.531,2.125a2.007,2.007,0,0,0,1.715-.766,5.429,5.429,0,0,0,.965-2.578Zm9.8,2.6h-3.711l.211-1.18h3.711ZM133.82,17H132.4l1.672-9.594-3.023,1.063.242-1.375,4.219-1.523h.25Zm5.359-1.641a.846.846,0,0,1,.633.234.807.807,0,0,1,.242.625.844.844,0,0,1-.258.621.929.929,0,0,1-.625.254.788.788,0,0,1-.859-.828.874.874,0,0,1,.867-.906Zm9.578-2.18h1.531l-.211,1.18h-1.523L148.094,17h-1.422l.461-2.641H142.1l.164-.93,6.25-7.8h1.547Zm-4.8,0h3.375l1.016-5.594-.227.328Zm13.594,0h1.531l-.211,1.18h-1.523L156.891,17h-1.422l.461-2.641H150.9l.164-.93,6.25-7.8h1.547Zm-4.8,0h3.375l1.016-5.594-.227.328ZM166.086,12a4.055,4.055,0,0,1-1.227.91,2.873,2.873,0,0,1-1.289.285,2.51,2.51,0,0,1-1.535-.508,2.8,2.8,0,0,1-.93-1.352,4.479,4.479,0,0,1-.2-1.875,5.054,5.054,0,0,1,.633-2.062,3.87,3.87,0,0,1,1.387-1.449,3.4,3.4,0,0,1,1.887-.48,2.682,2.682,0,0,1,2.133.984,4.206,4.206,0,0,1,.836,2.555,10.639,10.639,0,0,1-.2,2.078,7.885,7.885,0,0,1-2.035,4.4,5.523,5.523,0,0,1-3.9,1.527H161.3l.125-1.227h.289a4.246,4.246,0,0,0,2.754-.939A5.616,5.616,0,0,0,166.086,12Zm-2.219,0a2.257,2.257,0,0,0,1.367-.4,3.4,3.4,0,0,0,1.078-1.168l.063-.57.023-.633a3.661,3.661,0,0,0-.449-1.867,1.412,1.412,0,0,0-1.2-.687,2,2,0,0,0-1.652.746,3.381,3.381,0,0,0-.793,1.965,3.778,3.778,0,0,0,.016.969,2.464,2.464,0,0,0,.281.867A1.412,1.412,0,0,0,163.867,12Zm4.516,7.273-.812-.586a5.16,5.16,0,0,0,1.125-2.219l.2-1.18h1.383l-.164,1.055A4.521,4.521,0,0,1,168.383,19.273Zm6.445-8.664.938.008a2.769,2.769,0,0,0,1.738-.543,2.058,2.058,0,0,0,.809-1.473,1.814,1.814,0,0,0-.336-1.426,1.613,1.613,0,0,0-1.273-.535,2.175,2.175,0,0,0-1.512.52A2.294,2.294,0,0,0,174.43,8.6l-1.4.008a3.241,3.241,0,0,1,1.2-2.285,3.8,3.8,0,0,1,2.543-.863,3.04,3.04,0,0,1,2.246.895,2.838,2.838,0,0,1,.707,2.277,2.631,2.631,0,0,1-.617,1.469,4.111,4.111,0,0,1-1.516,1.1,2.248,2.248,0,0,1,1.156.988,2.757,2.757,0,0,1,.32,1.582,3.491,3.491,0,0,1-1.223,2.477,3.844,3.844,0,0,1-2.668.906,3.234,3.234,0,0,1-2.328-.906,2.873,2.873,0,0,1-.8-2.258l1.414.008a1.9,1.9,0,0,0,.422,1.41,1.8,1.8,0,0,0,1.359.566,2.273,2.273,0,0,0,1.664-.57,2.38,2.38,0,0,0,.758-1.609,1.741,1.741,0,0,0-.422-1.449,2.127,2.127,0,0,0-1.516-.551l-1.086-.008Zm13.859-2.086a2.818,2.818,0,0,1-.605,1.535,4.041,4.041,0,0,1-1.457,1.129,2.674,2.674,0,0,1,1.09,1.129,2.891,2.891,0,0,1,.293,1.543,3.315,3.315,0,0,1-1.234,2.418,4,4,0,0,1-2.7.879,3.21,3.21,0,0,1-2.336-.914,2.733,2.733,0,0,1-.742-2.25,3.041,3.041,0,0,1,.688-1.707,4.306,4.306,0,0,1,1.641-1.184,2.586,2.586,0,0,1-.9-1.062,2.7,2.7,0,0,1-.23-1.375,3.3,3.3,0,0,1,1.133-2.336,3.577,3.577,0,0,1,2.516-.859A2.908,2.908,0,0,1,188,6.352,2.7,2.7,0,0,1,188.688,8.523Zm-2.078,5.3a1.943,1.943,0,0,0-.375-1.473,1.716,1.716,0,0,0-1.359-.621,2.309,2.309,0,0,0-1.656.613,2.487,2.487,0,0,0-.8,1.621,1.838,1.838,0,0,0,.379,1.453,1.719,1.719,0,0,0,1.34.563,2.323,2.323,0,0,0,1.672-.574A2.381,2.381,0,0,0,186.609,13.828Zm.656-5.281a1.791,1.791,0,0,0-.324-1.328,1.462,1.462,0,0,0-1.168-.57,2,2,0,0,0-1.477.559,2.334,2.334,0,0,0-.7,1.48,1.76,1.76,0,0,0,.332,1.336,1.46,1.46,0,0,0,1.176.539,2,2,0,0,0,1.457-.551A2.285,2.285,0,0,0,187.266,8.547Z" transform="translate(-2393.746 -15453.242)" fill="#12263f"/>
    <path id="Trazado_1053281" data-name="Trazado 1053281" d="M-20.551.572H196.3" transform="translate(-2358.939 -15457.242)" fill="none" stroke="#707070" stroke-width="1"/>
  </g>
</svg>
