<svg xmlns="http://www.w3.org/2000/svg" xmlns:xlink="http://www.w3.org/1999/xlink" width="108" height="108" viewBox="0 0 108 108">
  <defs>
    <filter id="Trazado_896985" x="0" y="0" width="108" height="108" filterUnits="userSpaceOnUse">
      <feOffset dy="3" input="SourceAlpha"/>
      <feGaussianBlur stdDeviation="3" result="blur"/>
      <feFlood flood-opacity="0.161"/>
      <feComposite operator="in" in2="blur"/>
      <feComposite in="SourceGraphic"/>
    </filter>
  </defs>
  <g id="Grupo_1178813" data-name="Grupo 1178813" transform="translate(-200.708 -2966.492)">
    <g id="Grupo_1178600" data-name="Grupo 1178600" transform="translate(-0.051 -249.508)">
      <g id="Grupo_1177410" data-name="Grupo 1177410" transform="translate(-0.094 1727.448)">
        <g id="Grupo_1176700" data-name="Grupo 1176700" transform="translate(209.853 1494.552)">
          <g id="Grupo_1111318" data-name="Grupo 1111318" transform="translate(0 0)">
            <g id="Grupo_1109826" data-name="Grupo 1109826">
              <g id="Grupo_1098742" data-name="Grupo 1098742">
                <g transform="matrix(1, 0, 0, 1, -9, -6)" filter="url(#Trazado_896985)">
                  <g id="Trazado_896985-2" data-name="Trazado 896985" transform="translate(9 6)" fill="#f2ecfd" opacity="0.859">
                    <path d="M 45 88.00010681152344 C 39.19416046142578 88.00010681152344 33.56304168701172 86.86346435546875 28.2630672454834 84.62177276611328 C 23.14290618896484 82.45613098144531 18.54409408569336 79.35540008544922 14.59441375732422 75.40570831298828 C 10.64472007751465 71.45601654052734 7.543986797332764 66.85721588134766 5.378333568572998 61.73704147338867 C 3.136640071868896 56.43708038330078 2 50.80596160888672 2 45.00011825561523 C 2 39.19416046142578 3.136640071868896 33.56304168701172 5.378333568572998 28.26308059692383 C 7.543986797332764 23.14290618896484 10.64472007751465 18.54409408569336 14.59441375732422 14.59441375732422 C 18.54409408569336 10.64472007751465 23.14290618896484 7.543986797332764 28.26308059692383 5.378333568572998 C 33.56304168701172 3.136640071868896 39.19416046142578 2 45 2 C 50.80583953857422 2 56.43695831298828 3.136640071868896 61.73691940307617 5.378333568572998 C 66.85709381103516 7.543986797332764 71.45590972900391 10.64472007751465 75.40558624267578 14.59441375732422 C 79.35527801513672 18.54409408569336 82.45601654052734 23.14290618896484 84.62166595458984 28.26308059692383 C 86.86335754394531 33.56304168701172 88 39.19416046142578 88 45 C 88 50.80596160888672 86.86335754394531 56.43708038330078 84.62166595458984 61.73704147338867 C 82.45601654052734 66.85721588134766 79.35527801513672 71.45601654052734 75.40558624267578 75.40570831298828 C 71.45590972900391 79.35540008544922 66.85709381103516 82.45613098144531 61.73693466186523 84.62177276611328 C 56.43695831298828 86.86346435546875 50.80583953857422 88.00010681152344 45 88.00010681152344 Z" stroke="none"/>
                    <path d="M 45 3.999992370605469 C 39.46327590942383 3.999992370605469 34.09429168701172 5.083465576171875 29.04218292236328 7.220329284667969 C 24.160400390625 9.285148620605469 19.77527618408203 12.24195861816406 16.00861358642578 16.00862121582031 C 12.24196624755859 19.77528381347656 9.28515625 24.16040802001953 7.2203369140625 29.04217529296875 C 5.083473205566406 34.09428405761719 4 39.46328353881836 4 45.00011444091797 C 4 50.53683853149414 5.083473205566406 55.90582275390625 7.2203369140625 60.95793151855469 C 9.28515625 65.83971405029297 12.24195098876953 70.22482299804688 16.00861358642578 73.99148559570312 C 19.77527618408203 77.75814819335938 24.160400390625 80.71494293212891 29.04216766357422 82.77976226806641 C 34.09427642822266 84.9166259765625 39.46327590942383 86.00009918212891 45 86.00009918212891 C 50.53672409057617 86.00009918212891 55.90572357177734 84.9166259765625 60.95783233642578 82.77976226806641 C 65.839599609375 80.71494293212891 70.22472381591797 77.75814819335938 73.99138641357422 73.99148559570312 C 77.75804901123047 70.22482299804688 80.71484375 65.83971405029297 82.7796630859375 60.95793151855469 C 84.91651916503906 55.90582275390625 86 50.53683853149414 86 45.00000762939453 C 86 39.46328353881836 84.91651916503906 34.09428405761719 82.7796630859375 29.04217529296875 C 80.71484375 24.16040802001953 77.75803375244141 19.77528381347656 73.99138641357422 16.00862121582031 C 70.22472381591797 12.24195861816406 65.839599609375 9.285148620605469 60.95781707763672 7.220329284667969 C 55.90570831298828 5.083465576171875 50.53672409057617 3.999992370605469 45 3.999992370605469 M 45 -7.62939453125e-06 C 69.85281372070312 -7.62939453125e-06 90 20.14719390869141 90 45.00000762939453 L 90 45.00011444091797 C 90 69.85292816162109 69.85281372070312 90.00009918212891 45 90.00009918212891 C 20.14718627929688 90.00009918212891 0 69.85292816162109 0 45.00011444091797 L 0 45.00000762939453 C 0 20.14719390869141 20.14718627929688 -7.62939453125e-06 45 -7.62939453125e-06 Z" stroke="none" fill="#5b39a6"/>
                  </g>
                </g>
              </g>
            </g>
          </g>
        </g>
      </g>
    </g>
    <g id="money-growth_16608477" transform="translate(227.697 2984.247)">
      <g id="color" transform="translate(6.524 2.524)">
        <path id="Trazado_1034044" data-name="Trazado 1034044" d="M46.974,33.219A3.069,3.069,0,0,1,43.9,36.292H9.073a3.073,3.073,0,0,1,0-6.146,3.073,3.073,0,1,1,0-6.146H43.9a3.073,3.073,0,1,1,0,6.146A3.069,3.069,0,0,1,46.974,33.219Z" transform="translate(-6 21.071)" fill="#ffc943"/>
        <path id="Trazado_1034045" data-name="Trazado 1034045" d="M25.292,8.146v16a12.211,12.211,0,0,0-12.292,0v-16L19.146,2Z" transform="translate(1.341 -2)" fill="#43b3ff"/>
        <path id="Trazado_1034046" data-name="Trazado 1034046" d="M24.39,40.779H8V18.243L18.243,8v9.854A12.284,12.284,0,0,0,24.39,40.779Z" transform="translate(-3.903 4.292)" fill="#11d96e"/>
        <path id="Trazado_1034047" data-name="Trazado 1034047" d="M34.584,24.292A12.292,12.292,0,1,1,16.146,13.659a12.211,12.211,0,0,1,12.292,0A12.261,12.261,0,0,1,34.584,24.292Z" transform="translate(-1.805 8.487)" fill="#ffc943"/>
        <path id="Trazado_1034048" data-name="Trazado 1034048" d="M32.39,18.243V40.779H16a12.284,12.284,0,0,0,6.146-22.925V8Z" transform="translate(4.487 4.292)" fill="#11d96e"/>
      </g>
      <g id="line" transform="translate(5.5 1.5)">
        <path id="Trazado_1034049" data-name="Trazado 1034049" d="M14.524,24.743a1.024,1.024,0,0,0,0,2.049H17.6v1.024a1.024,1.024,0,0,0,2.049,0V26.792H20.67a3.073,3.073,0,1,0,0-6.146H19.646V18.6h3.073a1.024,1.024,0,1,0,0-2.049H19.646V15.524a1.024,1.024,0,0,0-2.049,0v1.024H16.573a3.073,3.073,0,0,0,0,6.146H17.6v2.049Zm6.146-2.049a1.024,1.024,0,1,1,0,2.049H19.646V22.695Zm-4.1-2.049a1.024,1.024,0,1,1,0-2.049H17.6v2.049Z" transform="translate(2.89 12.133)"/>
        <path id="Trazado_1034050" data-name="Trazado 1034050" d="M48.523,40.182a4.1,4.1,0,0,0-4.1-4.1H34.075A13.3,13.3,0,0,0,27.011,11.5a12.975,12.975,0,0,0-5.8,1.335,1.024,1.024,0,0,0,.906,1.837,10.958,10.958,0,0,1,4.894-1.123A11.268,11.268,0,1,1,15.743,24.817a10.961,10.961,0,0,1,1.123-4.894,1.024,1.024,0,1,0-1.837-.906,12.975,12.975,0,0,0-1.335,5.8,13.307,13.307,0,0,0,6.252,11.268H9.6a4.08,4.08,0,0,0-2.681,7.17A4.08,4.08,0,0,0,9.6,50.425H44.425a4.08,4.08,0,0,0,2.681-7.17,4.072,4.072,0,0,0,1.416-3.073Zm-40.974,0A2.051,2.051,0,0,1,9.6,38.133H30.084a2.049,2.049,0,0,1,0,4.1H9.6A2.051,2.051,0,0,1,7.549,40.182ZM29.06,48.376H9.6a2.049,2.049,0,0,1,0-4.1H30.084a2.049,2.049,0,0,1,0,4.1Zm17.414-2.049a2.051,2.051,0,0,1-2.049,2.049H33.612a3.966,3.966,0,0,0,0-4.1H44.425A2.051,2.051,0,0,1,46.474,46.328Zm-12.862-4.1a3.966,3.966,0,0,0,0-4.1H44.425a2.049,2.049,0,0,1,0,4.1Z" transform="translate(-5.5 8.987)"/>
        <path id="Trazado_1034051" data-name="Trazado 1034051" d="M33.957,11.443a1.024,1.024,0,0,0,1.448-1.448L33.359,7.947l0,0L27.211,1.8a1.024,1.024,0,0,0-1.448,0L19.618,7.945l0,0L17.568,9.995a1.024,1.024,0,0,0,1.448,1.448l.3-.3v3.249L9.374,24.335l0,0L6.3,27.409a1.024,1.024,0,1,0,1.448,1.448l1.324-1.324V43.5a1.024,1.024,0,1,0,2.049,0V25.484l8.195-8.195v1.625a1.024,1.024,0,1,0,2.049,0V9.095l5.122-5.122,5.122,5.122v9.819a1.024,1.024,0,1,0,2.049,0V17.289l8.195,8.195V43.5a1.024,1.024,0,1,0,2.049,0V27.533l1.324,1.324a1.024,1.024,0,0,0,1.448-1.448L43.6,24.337l0,0-9.942-9.942V11.143l.3.3Z" transform="translate(-4.976 -1.5)"/>
        <circle id="Elipse_12930" data-name="Elipse 12930" cx="1.024" cy="1.024" r="1.024" transform="translate(11.794 24.086)"/>
      </g>
    </g>
  </g>
</svg>
