<svg xmlns="http://www.w3.org/2000/svg" xmlns:xlink="http://www.w3.org/1999/xlink" width="113" height="113" viewBox="0 0 113 113">
  <defs>
    <filter id="Trazado_896985" x="0" y="0" width="113" height="113" filterUnits="userSpaceOnUse">
      <feOffset dy="3" input="SourceAlpha"/>
      <feGaussianBlur stdDeviation="3" result="blur"/>
      <feFlood flood-opacity="0.161"/>
      <feComposite operator="in" in2="blur"/>
      <feComposite in="SourceGraphic"/>
    </filter>
  </defs>
  <g id="Grupo_1111348" data-name="Grupo 1111348" transform="translate(9 6)">
    <g id="Grupo_1111319" data-name="Grupo 1111319" transform="translate(0 0)">
      <g id="Grupo_1109827" data-name="Grupo 1109827">
        <g id="Grupo_1098742" data-name="Grupo 1098742">
          <g transform="matrix(1, 0, 0, 1, -9, -6)" filter="url(#Trazado_896985)">
            <g id="Trazado_896985-2" data-name="Trazado 896985" transform="translate(9 6)" fill="#5ab4f9" opacity="0.859">
              <path d="M 47.49993515014648 93.5 C 41.28932189941406 93.5 35.26528167724609 92.28396606445312 29.59514808654785 89.88571929931641 C 24.1176815032959 87.56893920898438 19.1981086730957 84.25196838378906 14.97306823730469 80.02693176269531 C 10.74802875518799 75.80188751220703 7.431055068969727 70.88231658935547 5.11428165435791 65.40484619140625 C 2.716028451919556 59.73471450805664 1.500001788139343 53.71067428588867 1.500001788139343 47.50006103515625 C 1.500001788139343 41.2893180847168 2.716028451919556 35.26527786254883 5.11428165435791 29.59514236450195 C 7.431055068969727 24.11768913269043 10.74802875518799 19.1981029510498 14.97306823730469 14.97306251525879 C 19.1981086730957 10.74802303314209 24.1176815032959 7.431049346923828 29.59514808654785 5.114289283752441 C 35.26528167724609 2.716022968292236 41.28932189941406 1.499996185302734 47.49993515014648 1.499996185302734 C 53.71054840087891 1.499996185302734 59.73458862304688 2.716022968292236 65.40472412109375 5.114289283752441 C 70.88218688964844 7.431049346923828 75.80176544189453 10.74802303314209 80.02680206298828 14.97306251525879 C 84.25183868408203 19.1981029510498 87.56881713867188 24.11768913269043 89.88558959960938 29.59514236450195 C 92.28384399414062 35.26527786254883 93.49987030029297 41.2893180847168 93.49987030029297 47.49993133544922 C 93.49987030029297 53.71067428588867 92.28384399414062 59.73471450805664 89.88558959960938 65.40484619140625 C 87.56881713867188 70.88231658935547 84.25183868408203 75.80188751220703 80.02680206298828 80.02693176269531 C 75.80176544189453 84.25196838378906 70.88218688964844 87.56893920898438 65.40472412109375 89.88571929931641 C 59.73458862304688 92.28396606445312 53.71054840087891 93.5 47.49993515014648 93.5 Z" stroke="none"/>
              <path d="M 47.49993515014648 2.999992370605469 C 41.49116516113281 2.999992370605469 35.66371917724609 4.1761474609375 30.17947387695312 6.495796203613281 C 24.88081359863281 8.736930847167969 20.12149047851562 11.94596862792969 16.03372192382812 16.03372192382812 C 11.94596862792969 20.12149047851562 8.7369384765625 24.88081359863281 6.495796203613281 30.17947387695312 C 4.1761474609375 35.66371917724609 3 41.49116516113281 3 47.50005722045898 C 3 53.50882720947266 4.1761474609375 59.33627319335938 6.495796203613281 64.82051849365234 C 8.7369384765625 70.11917877197266 11.94596862792969 74.87850189208984 16.03372192382812 78.96627044677734 C 20.12149047851562 83.05402374267578 24.88081359863281 86.2630615234375 30.17947387695312 88.50419616699219 C 35.66371917724609 90.82384490966797 41.49116516113281 92 47.49993515014648 92 C 53.50870513916016 92 59.33615112304688 90.82384490966797 64.82039642333984 88.50419616699219 C 70.11905670166016 86.2630615234375 74.87837982177734 83.05402374267578 78.96614837646484 78.96627044677734 C 83.05390167236328 74.87850189208984 86.26293182373047 70.11917877197266 88.50407409667969 64.82051849365234 C 90.82372283935547 59.33627319335938 91.99987030029297 53.50882720947266 91.99987030029297 47.49993515014648 C 91.99987030029297 41.49116516113281 90.82372283935547 35.66371917724609 88.50407409667969 30.17947387695312 C 86.26293182373047 24.88081359863281 83.05390167236328 20.12149047851562 78.96614837646484 16.03372192382812 C 74.87837982177734 11.94596862792969 70.11905670166016 8.736930847167969 64.82039642333984 6.495796203613281 C 59.33615112304688 4.1761474609375 53.50870513916016 2.999992370605469 47.49993515014648 2.999992370605469 M 47.49993515014648 -7.62939453125e-06 C 73.73342895507812 -7.62939453125e-06 94.99987030029297 21.26644134521484 94.99987030029297 47.49993515014648 L 94.99987030029297 47.50005722045898 C 94.99987030029297 73.73355102539062 73.73342895507812 95 47.49993515014648 95 C 21.26644134521484 95 0 73.73355102539062 0 47.50005722045898 L 0 47.49993515014648 C 0 21.26644134521484 21.26644134521484 -7.62939453125e-06 47.49993515014648 -7.62939453125e-06 Z" stroke="none" fill="#fff"/>
            </g>
          </g>
          <g id="Rectángulo_400907" data-name="Rectángulo 400907" transform="translate(0)" fill="none" stroke="#fff" stroke-width="3">
            <rect width="95" height="95" rx="47.5" stroke="none"/>
            <rect x="1.5" y="1.5" width="92" height="92" rx="46" fill="none"/>
          </g>
        </g>
      </g>
    </g>
    <g id="analysis_11063540" transform="translate(17.927 17.806)">
      <g id="Grupo_1178796" data-name="Grupo 1178796" transform="translate(0.932 0.932)">
        <g id="Grupo_1178793" data-name="Grupo 1178793" transform="translate(16.155 16.1)">
          <circle id="Elipse_12921" data-name="Elipse 12921" cx="10.122" cy="10.122" r="10.122" fill="#fdb800"/>
          <circle id="Elipse_12922" data-name="Elipse 12922" cx="7.178" cy="7.178" r="7.178" transform="translate(2.945 2.945)" fill="#ffda2d"/>
        </g>
        <g id="Grupo_1178794" data-name="Grupo 1178794" transform="translate(0)">
          <path id="Trazado_1033993" data-name="Trazado 1033993" d="M10.557,189.792a26.368,26.368,0,0,0,2.216,16.832L24.4,199.913a12.866,12.866,0,0,1-.984-4.952,13.029,13.029,0,0,1,.111-1.7Z" transform="translate(-10.048 -168.739)" fill="#fc685b" fill-rule="evenodd"/>
          <path id="Trazado_1033994" data-name="Trazado 1033994" d="M191.309,297.385a26.312,26.312,0,0,0,30.073-17.36l-12.967-3.474a12.929,12.929,0,0,1-13.631,7.869Z" transform="translate(-170.201 -245.394)" fill="#72d561" fill-rule="evenodd"/>
          <path id="Trazado_1033995" data-name="Trazado 1033995" d="M47.863,308.333a26.347,26.347,0,0,0,13.466,10.339L64.8,305.705a12.955,12.955,0,0,1-5.317-4.083Z" transform="translate(-43.46 -267.547)" fill="#ffda2d" fill-rule="evenodd"/>
          <path id="Trazado_1033996" data-name="Trazado 1033996" d="M45.089,9A26.293,26.293,0,0,0,21.863,26.816L34.828,30.29a12.926,12.926,0,0,1,10.261-7.871Z" transform="translate(-20.487 -9.001)" fill="#b4d2d7" fill-rule="evenodd"/>
          <path id="Trazado_1033997" data-name="Trazado 1033997" d="M274.187,40.394A26.294,26.294,0,0,0,250.095,9V22.42a12.921,12.921,0,0,1,11.126,14.5Z" transform="translate(-222.142 -9.002)" fill="#64b5f6" fill-rule="evenodd"/>
        </g>
        <g id="Grupo_1178795" data-name="Grupo 1178795" transform="translate(25.66 25.868)">
          <path id="Trazado_1033998" data-name="Trazado 1033998" d="M387.281,390.667l1.776-1.9-3.59-3.59-1.9,1.771Z" transform="translate(-365.729 -367.242)" fill="#7a8c98" fill-rule="evenodd"/>
          <ellipse id="Elipse_12923" data-name="Elipse 12923" cx="10.882" cy="10.882" rx="10.882" ry="10.882" transform="translate(0 2.155) rotate(-5.682)" fill="#8d9ca8"/>
          <path id="Trazado_1033999" data-name="Trazado 1033999" d="M271.418,264.41a8.054,8.054,0,1,1-8.054,8.054A8.054,8.054,0,0,1,271.418,264.41Z" transform="translate(-259.526 -260.536)" fill="#e6f8ff" fill-rule="evenodd"/>
          <path id="Trazado_1034000" data-name="Trazado 1034000" d="M407.446,406.13l-2.363,2.363a.628.628,0,0,0,0,.887l7.2,7.2a2.3,2.3,0,0,0,3.25-3.25l-7.2-7.2a.628.628,0,0,0-.887,0Z" transform="translate(-384.581 -385.592)" fill="#da8c36" fill-rule="evenodd"/>
          <path id="Trazado_1034001" data-name="Trazado 1034001" d="M405.084,409.38l1.649,1.65,3.25-3.25-1.649-1.649a.628.628,0,0,0-.887,0l-2.363,2.363A.628.628,0,0,0,405.084,409.38Z" transform="translate(-384.581 -385.592)" fill="#c97629" fill-rule="evenodd"/>
        </g>
      </g>
      <path id="Trazado_1034002" data-name="Trazado 1034002" d="M40.526,32.606A7.123,7.123,0,1,1,33.4,39.73,7.131,7.131,0,0,1,40.526,32.606Zm0,16.108a8.986,8.986,0,1,0-8.985-8.985,9,9,0,0,0,8.985,8.985Zm18.4,9.415a1.374,1.374,0,0,1-1.932,0L52.1,53.239l1.932-1.932,4.89,4.89A1.367,1.367,0,0,1,58.926,58.13Zm-6.982-8.915-1.933,1.932.775.776,1.933-1.932Zm-3.333-.88q.269-.252.521-.519l.788.788-.519.519ZM25.243,53.185a25.626,25.626,0,0,0,4.008.316,25.294,25.294,0,0,0,9.957-2.032,11.841,11.841,0,0,1-10.277-9.474q-.34-.007-.681-.031ZM20.06,28.156a9.2,9.2,0,0,0,8.9,9.183q.114-.547.276-1.075a8.109,8.109,0,1,1,8.13-8.108c0,.064,0,.128-.006.192q.533-.149,1.085-.248a9.19,9.19,0,0,0-18.38.056ZM29.251,34.4a6.254,6.254,0,0,0,.756-.048,11.9,11.9,0,0,1,5.421-5.281,6.163,6.163,0,0,0,.07-.918A6.246,6.246,0,1,0,29.251,34.4Zm21.225,5.327a9.95,9.95,0,1,0-9.951,9.95,9.961,9.961,0,0,0,9.951-9.95ZM31.859,14.557V2.945A25.361,25.361,0,0,1,54.28,32.163L47.8,30.426A11.765,11.765,0,0,0,43.094,28.2c0-.014,0-.028,0-.042a13.874,13.874,0,0,0-11.236-13.6ZM52.935,37.2c-.2.512-.41,1.018-.638,1.516a11.726,11.726,0,0,0-.287-1.763Zm7.309,17.679L52.6,47.238a.934.934,0,0,0-1.319,0l-.048.048-.933-.934a11.772,11.772,0,0,0,1.42-2.855,27.089,27.089,0,0,0,3.313-6.635.933.933,0,0,0-.642-1.2l-3.121-.836a11.849,11.849,0,0,0-1.039-1.819l4.541,1.217a.93.93,0,0,0,1.155-.718,27.46,27.46,0,0,0,.528-5.351A27.209,27.209,0,0,0,30.985,1a.93.93,0,0,0-.99.93V15.351a.93.93,0,0,0,.812.923,12,12,0,0,1,10.42,11.662q-.348-.021-.7-.021l-.223,0A11.054,11.054,0,1,0,28.725,39.2c-.008.176-.013.353-.013.532,0,.132,0,.263.008.394-.349-.015-.7-.044-1.043-.09a.931.931,0,0,0-1.022.682L23.181,53.682a.932.932,0,0,0,.718,1.154,27.378,27.378,0,0,0,5.352.527A27.1,27.1,0,0,0,44,51.02a11.768,11.768,0,0,0,3.146-1.514l.933.934-.048.048a.932.932,0,0,0,0,1.317l7.642,7.641a3.235,3.235,0,0,0,4.567,0,3.234,3.234,0,0,0,0-4.567Zm-28.4-25.23a2.431,2.431,0,0,1-1.662,2.3v.468a.931.931,0,1,1-1.863,0v-.428a2.447,2.447,0,0,1-1.339-.925.932.932,0,1,1,1.51-1.091.565.565,0,0,0,.456.236h.47a.563.563,0,1,0,0-1.126h-.334a2.426,2.426,0,0,1-.764-4.729v-.469a.931.931,0,1,1,1.863,0v.429a2.447,2.447,0,0,1,1.338.925.931.931,0,1,1-1.509,1.092.569.569,0,0,0-.458-.236h-.47a.563.563,0,0,0,0,1.126h.334A2.429,2.429,0,0,1,31.845,29.65Zm-5.2-26.705V14.557a13.88,13.88,0,0,0-9.854,7.56L5.568,19.11A25.223,25.223,0,0,1,26.644,2.945ZM4.109,20.648a.93.93,0,0,1-.642-1.2A27.224,27.224,0,0,1,27.516,1a.932.932,0,0,1,.991.93V15.351a.931.931,0,0,1-.813.923,12,12,0,0,0-9.518,7.3.933.933,0,0,1-.86.575.957.957,0,0,1-.242-.032Zm2,17.857L16.169,32.7a13.775,13.775,0,0,1-.762-4.542c0-.332.013-.667.036-1L4.221,24.147a25.669,25.669,0,0,0-.315,4.008A25.07,25.07,0,0,0,6.109,38.506ZM18.183,32.75a.933.933,0,0,1-.394,1.164L6.166,40.625a.943.943,0,0,1-.466.125.96.96,0,0,1-.269-.039.932.932,0,0,1-.566-.479A26.93,26.93,0,0,1,2.042,28.156,27.462,27.462,0,0,1,2.57,22.8a.931.931,0,0,1,1.155-.717L16.691,25.56a.932.932,0,0,1,.682,1.021,12.1,12.1,0,0,0-.1,1.574A11.913,11.913,0,0,0,18.183,32.75Zm2.023,19.088A25.544,25.544,0,0,1,8.721,43.019L18.78,37.211a13.9,13.9,0,0,0,4.432,3.4Zm4.468-12.607a.93.93,0,0,1,.544,1.1L21.744,53.3a.937.937,0,0,1-.461.581.924.924,0,0,1-.439.109.934.934,0,0,1-.3-.049A27.378,27.378,0,0,1,6.6,43.236a.932.932,0,0,1,.31-1.324L18.536,35.2a.933.933,0,0,1,1.2.24,12.034,12.034,0,0,0,4.934,3.791Z" transform="translate(-2.042 -1.001)" fill-rule="evenodd"/>
    </g>
  </g>
</svg>
