<svg xmlns="http://www.w3.org/2000/svg" xmlns:xlink="http://www.w3.org/1999/xlink" width="140.517" height="94" viewBox="0 0 140.517 94">
  <defs>
    <clipPath id="clip-path">
      <rect id="Rectángulo_406875" data-name="Rectángulo 406875" width="95" height="94" transform="translate(-0.101 0.387)" fill="none"/>
    </clipPath>
  </defs>
  <g id="Grupo_1178867" data-name="Grupo 1178867" transform="translate(-189.381 -6584.387)">
    <path id="Trazado_906847" data-name="Trazado 906847" d="M74.822,18.558a38.753,38.753,0,0,1-17.283-7.033C49.9,5.993,33.929-3.421,18.689,1.268-2.331,7.736-2.425,26.446,3.05,36.61S47.353,76.537,97.689,71.8c45.044-4.238,53.821-52.746,29.8-61.524C106.65,2.664,99.542,22.062,74.822,18.558" transform="translate(189.381 6601.497)" fill="#f6f6f6"/>
    <g id="Grupo_1178866" data-name="Grupo 1178866" transform="translate(221.152 6584)">
      <g id="Grupo_1178865" data-name="Grupo 1178865" transform="translate(0 0)" clip-path="url(#clip-path)">
        <path id="Trazado_1034076" data-name="Trazado 1034076" d="M104.788,95.381H52.318a3,3,0,0,1,.645-.177,63.239,63.239,0,0,0,13.972-2.051,24.1,24.1,0,0,0,9.453-4.437,6.254,6.254,0,0,0,2.6-4.709c.052-3.541.015-7.083.015-10.685.215-.1.523-.23.829-.37a16.084,16.084,0,0,0,5.128-3.4A6.284,6.284,0,0,0,86.8,64.962c-.039-2.84-.015-5.68-.008-8.52a5.465,5.465,0,0,0-1.014-3.3c-2.157-2.971-5.361-4.271-8.657-5.485L76.7,48.694l-1.643-.572c.173-.175.344-.352.52-.524,7-6.79,9.839-15.008,8.266-24.637A27.134,27.134,0,1,0,31.013,35.076a27.465,27.465,0,0,0,8.224,13.052l-1.658.565-.434-1.027a20.12,20.12,0,0,0-7.579,4.2,5.965,5.965,0,0,0-2.065,4.3c-.028,3.51-.009,7.021-.009,10.345-1.782,1.137-3.615,2.15-5.267,3.4a6.29,6.29,0,0,0-2.538,5.481c.079,2.59.072,5.186,0,7.777a6.646,6.646,0,0,0,2.421,5.364,18.885,18.885,0,0,0,6.151,3.489,58.356,58.356,0,0,0,16.833,3.163,6.218,6.218,0,0,1,.921.2M22.782,8.4v2.866h2.529V8.384h2.863V5.757H25.31V2.92H22.717V5.787H19.857V8.4Zm1.874,39.73h2.83V45.512H24.61V42.73H22.036v2.827H19.176v2.628H22.07v2.83h2.585Zm64.967-5.424v2.848H86.776v2.615h2.855v2.868H92.25v-2.9h2.857V45.515H92.214V42.706Z" transform="translate(-9.773 -1.016)" fill="#fdfdfd"/>
        <path id="Trazado_1034077" data-name="Trazado 1034077" d="M66.738,239.043a6.215,6.215,0,0,0-.921-.2,58.36,58.36,0,0,1-16.833-3.163,18.884,18.884,0,0,1-6.151-3.489,6.645,6.645,0,0,1-2.421-5.364c.07-2.591.077-5.187,0-7.777a6.29,6.29,0,0,1,2.538-5.481c1.652-1.253,3.486-2.266,5.267-3.4,0-3.324-.02-6.835.008-10.345a5.965,5.965,0,0,1,2.065-4.3,20.118,20.118,0,0,1,7.579-4.2l.434,1.027.394,1.4a11.928,11.928,0,0,0-1.609.63,35.016,35.016,0,0,0-4.874,2.94c-1.952,1.586-1.915,3.477.006,5.1a17.551,17.551,0,0,0,3.97,2.486,43.307,43.307,0,0,0,13.587,3.321,74.9,74.9,0,0,0,16.078.012,46.624,46.624,0,0,0,13.266-3.121,12.426,12.426,0,0,0,4.9-3.213c1.2-1.422,1.257-2.824-.063-4.128a16.813,16.813,0,0,0-3.322-2.453,35.514,35.514,0,0,0-3.608-1.637l.39-1.338.42-1.039c3.3,1.214,6.5,2.514,8.657,5.485a5.466,5.466,0,0,1,1.014,3.3c-.006,2.84-.03,5.68.008,8.52a6.284,6.284,0,0,1-1.841,4.589,16.085,16.085,0,0,1-5.128,3.4c-.306.14-.614.274-.829.37,0,3.6.037,7.143-.014,10.684a6.253,6.253,0,0,1-2.6,4.709,24.106,24.106,0,0,1-9.453,4.438,63.238,63.238,0,0,1-13.971,2.051,3,3,0,0,0-.645.177Zm38.155-34.171c-1.25.733-2.4,1.519-3.637,2.111-5.491,2.621-11.393,3.569-17.382,4.039a73.319,73.319,0,0,1-19.19-.918c-4.846-.9-9.577-2.15-13.612-5.2-.054-.041-.159-.016-.263-.023v3.088a5.362,5.362,0,0,0,3.888,5.394v-2.209h2.577v1.359c0,2.256-.006,2.276,2.191,2.946,1.274.389,2.572.7,3.98,1.078v-2.859h2.589v3.374l6.168.727v-3.008h2.617v3.078h6.169v-3.11h2.587v3.047l6.169-.746v-3.379h2.584v2.95c2.006-.62,3.861-1.174,5.7-1.79.2-.069.4-.491.409-.758.049-.971.019-1.947.019-2.93h2.593v2.241c3.337-1.386,4.064-3.015,3.85-8.507M84.546,235.025c1.994-.615,3.877-1.178,5.742-1.8.185-.061.351-.463.362-.714.041-.977.017-1.957.017-2.942h2.6v2.383c.764-.529,1.385-.919,1.961-1.366a3.983,3.983,0,0,0,1.841-2.677c.126-1.519.031-3.057.031-4.625-1.194.708-2.286,1.449-3.457,2.032a40.852,40.852,0,0,1-12.309,3.529,77.3,77.3,0,0,1-19.772.355,46.242,46.242,0,0,1-13.46-3.173c-1.734-.744-3.359-1.741-5.085-2.65,0,1.143,0,2.336,0,3.528a5.349,5.349,0,0,0,3.91,4.819v-2.133H49.49c0,1.017-.025,1.971.017,2.922.011.25.178.649.363.711,1.865.617,3.748,1.179,5.776,1.8v-2.96h2.581c0,.959-.021,1.853.015,2.746.009.226.175.62.312.64,1.909.275,3.825.5,5.851.748v-3.034h2.634v3.1H73.2v-3.119H75.8v3.046l6.155-.727v-3.39h2.6ZM97.1,217.95c-.969.256-1.868.47-2.749.742-.223.069-.4.309-.58.491a11.7,11.7,0,0,1-2.243,2.225,19.491,19.491,0,0,1-4.285,1.669,57.5,57.5,0,0,1-13.365,1.787c-7.274.258-14.507-.035-21.586-1.951a11.419,11.419,0,0,1-4.954-2.378,2.832,2.832,0,0,1,.016-4.514,14.1,14.1,0,0,1,2.253-1.428,13.525,13.525,0,0,1,1.3-.581c-.417-.4-.708-.725-1.045-.989a.768.768,0,0,0-.6-.17,13.66,13.66,0,0,0-5.163,3.164c-1.434,1.532-1.472,3.1.064,4.554a14.608,14.608,0,0,0,3.309,2.323,37.056,37.056,0,0,0,11.58,3.367,74.582,74.582,0,0,0,21.139.144,38.3,38.3,0,0,0,12.078-3.308,21.683,21.683,0,0,0,3.8-2.582A2.833,2.833,0,0,0,97.1,217.95m-8.933,2.269-.057-.315c-.652.069-1.3.142-1.957.205a79.881,79.881,0,0,1-17.829-.164,45.216,45.216,0,0,1-14.133-3.786,1.15,1.15,0,0,0-.773-.133,34.973,34.973,0,0,0-3.765,1.488c-1.049.522-1.066,1.029-.01,1.5a26.385,26.385,0,0,0,5.1,1.832,78.285,78.285,0,0,0,28.158.531c1.772-.266,3.509-.765,5.262-1.157" transform="translate(-30.497 -144.678)" fill="#040301"/>
        <path id="Trazado_1034078" data-name="Trazado 1034078" d="M91.246,48.658a27.466,27.466,0,0,1-8.224-13.052,27.134,27.134,0,1,1,52.829-12.115c1.573,9.629-1.27,17.848-8.266,24.637-.177.171-.347.349-.52.524l-5.326,3.68c-.2.078-.4.142-.595.236a27.015,27.015,0,0,1-16.645,2.4,30.711,30.711,0,0,1-7.944-2.633l-5.309-3.674m17.9-44.934a42.36,42.36,0,0,0-5.136.508A24.511,24.511,0,0,0,90.889,44.588a23.467,23.467,0,0,0,18.26,8.134,41.667,41.667,0,0,0,4.957-.462,24.52,24.52,0,0,0,13.177-40.538,23.44,23.44,0,0,0-18.132-8" transform="translate(-61.782 -1.546)" fill="#040402"/>
        <path id="Trazado_1034079" data-name="Trazado 1034079" d="M121.913,196.882l5.326-3.68,1.643.573-.39,1.338a35.535,35.535,0,0,1,3.609,1.637,16.817,16.817,0,0,1,3.322,2.453c1.32,1.3,1.268,2.706.063,4.128a12.43,12.43,0,0,1-4.9,3.213,46.633,46.633,0,0,1-13.266,3.121,74.9,74.9,0,0,1-16.078-.012,43.294,43.294,0,0,1-13.587-3.321,17.555,17.555,0,0,1-3.97-2.486c-1.921-1.624-1.957-3.515-.006-5.1a35,35,0,0,1,4.874-2.94,11.971,11.971,0,0,1,1.609-.631l-.394-1.4,1.658-.565,5.309,3.674-2.527.42-.4-1.475c-2.041.779-4.025,1.439-5.921,2.293a3.486,3.486,0,0,0-2.385,3.149c0,1.63,1.148,2.518,2.431,3.228a23.07,23.07,0,0,0,7.02,2.224,81.864,81.864,0,0,0,20.018,1.059,49.094,49.094,0,0,0,12.575-2.018,16.079,16.079,0,0,0,4.425-2.2c1.688-1.232,1.615-3.255.017-4.6-2.067-1.745-4.619-2.327-7.2-2.907l-.333,1.249-2.528-.42" transform="translate(-61.957 -146.096)" fill="#f7c83c"/>
        <path id="Trazado_1034080" data-name="Trazado 1034080" d="M44.037,16.19H41.112V13.576h2.859V10.709h2.593v2.838h2.864v2.627H46.566v2.883H44.037Z" transform="translate(-31.028 -8.806)" fill="#060606"/>
        <path id="Trazado_1034081" data-name="Trazado 1034081" d="M43.842,176.834v2.884H41.257v-2.83H38.363V174.26h2.859v-2.827H43.8v2.782h2.875v2.619Z" transform="translate(-28.96 -129.72)" fill="#050505"/>
        <path id="Trazado_1034082" data-name="Trazado 1034082" d="M314.126,171.338h2.592v2.808h2.893v2.627h-2.857v2.9h-2.619V176.8H311.28v-2.615h2.845Z" transform="translate(-234.277 -129.648)" fill="#050505"/>
        <path id="Trazado_1034083" data-name="Trazado 1034083" d="M136.482,246.046c.214,5.492-.513,7.121-3.85,8.507v-2.241h-2.593c0,.983.029,1.958-.019,2.93-.013.268-.2.689-.409.758-1.834.616-3.69,1.17-5.7,1.79v-2.951H121.33v3.379l-6.169.746v-3.047h-2.587v3.11h-6.169v-3.078h-2.617v3.008l-6.168-.727v-3.374H95.033v2.859c-1.408-.378-2.706-.689-3.98-1.078-2.2-.67-2.191-.691-2.191-2.946v-1.359H86.284v2.209a5.362,5.362,0,0,1-3.888-5.394v-3.087c.1.007.209-.018.263.023,4.036,3.047,8.767,4.3,13.612,5.2a73.317,73.317,0,0,0,19.19.918c5.989-.47,11.891-1.418,17.382-4.039,1.24-.592,2.387-1.379,3.637-2.111" transform="translate(-62.086 -185.851)" fill="#fa9722"/>
        <path id="Trazado_1034084" data-name="Trazado 1034084" d="M92.489,332.126v-2.95h-2.6v3.39l-6.155.728v-3.047H81.145v3.119H74.982v-3.1H72.348V333.3c-2.026-.25-3.943-.473-5.851-.748-.137-.02-.3-.414-.312-.64-.036-.892-.015-1.787-.015-2.746H63.589v2.96c-2.028-.623-3.912-1.185-5.777-1.8-.185-.061-.352-.461-.363-.71-.042-.951-.017-1.906-.017-2.923H54.875v2.133a5.349,5.349,0,0,1-3.91-4.819c0-1.192,0-2.385,0-3.528,1.727.909,3.352,1.906,5.085,2.65a46.25,46.25,0,0,0,13.46,3.174,77.307,77.307,0,0,0,19.772-.355,40.856,40.856,0,0,0,12.309-3.53c1.171-.583,2.263-1.324,3.457-2.031,0,1.568.1,3.106-.031,4.625a3.982,3.982,0,0,1-1.841,2.677c-.576.448-1.2.837-1.961,1.366v-2.383H98.61c0,.986.025,1.965-.017,2.942-.011.251-.177.652-.362.714-1.865.619-3.748,1.182-5.742,1.8" transform="translate(-38.44 -241.779)" fill="#fa9722"/>
        <path id="Trazado_1034085" data-name="Trazado 1034085" d="M105.011,283.3a2.832,2.832,0,0,1-1.038,2.562,21.693,21.693,0,0,1-3.8,2.582A38.31,38.31,0,0,1,88.1,291.752a74.581,74.581,0,0,1-21.139-.144,37.056,37.056,0,0,1-11.58-3.366,14.618,14.618,0,0,1-3.31-2.323c-1.536-1.449-1.5-3.022-.063-4.554a13.653,13.653,0,0,1,5.163-3.164.767.767,0,0,1,.6.17c.338.264.629.587,1.046.989a13.464,13.464,0,0,0-1.3.581,14.082,14.082,0,0,0-2.253,1.428,2.832,2.832,0,0,0-.016,4.514,11.42,11.42,0,0,0,4.954,2.379c7.079,1.916,14.312,2.21,21.586,1.951a57.5,57.5,0,0,0,13.365-1.787,19.489,19.489,0,0,0,4.285-1.669,11.709,11.709,0,0,0,2.243-2.224c.179-.182.357-.422.58-.491.881-.272,1.78-.486,2.749-.742" transform="translate(-38.409 -210.027)" fill="#f7c83b"/>
        <path id="Trazado_1034086" data-name="Trazado 1034086" d="M113.837,295.189c-1.753.392-3.49.891-5.262,1.157a78.285,78.285,0,0,1-28.158-.531,26.381,26.381,0,0,1-5.1-1.832c-1.056-.469-1.039-.976.01-1.5A34.982,34.982,0,0,1,79.088,291a1.15,1.15,0,0,1,.773.133,45.215,45.215,0,0,0,14.133,3.786,79.882,79.882,0,0,0,17.829.164c.653-.063,1.3-.136,1.957-.205l.057.315" transform="translate(-56.168 -219.648)" fill="#f8a431"/>
        <path id="Trazado_1034087" data-name="Trazado 1034087" d="M191.629,11.819a23.441,23.441,0,0,1,18.132,8,24.52,24.52,0,0,1-13.177,40.538,41.666,41.666,0,0,1-4.957.462q0-2.242,0-4.484c1.011-.1,2.029-.157,3.031-.313a19.93,19.93,0,0,0,7.645-36.549,20.935,20.935,0,0,0-10.678-3.162q0-2.244,0-4.489" transform="translate(-144.261 -9.641)" fill="#fbc932"/>
        <path id="Trazado_1034088" data-name="Trazado 1034088" d="M117.021,56.333q0,2.242,0,4.484a23.466,23.466,0,0,1-18.26-8.134,24.511,24.511,0,0,1,13.125-40.355,42.406,42.406,0,0,1,5.136-.509q0,2.244,0,4.489c-1.2.127-2.4.2-3.586.389C103.157,18.372,95.7,28.732,97.225,39.027a20.2,20.2,0,0,0,19.8,17.306" transform="translate(-69.655 -9.642)" fill="#fbd840"/>
        <path id="Trazado_1034089" data-name="Trazado 1034089" d="M112.132,208.481l2.527-.42a30.7,30.7,0,0,0,7.944,2.633,27.014,27.014,0,0,0,16.645-2.4c.191-.094.4-.158.595-.236l2.528.42-.21,1.236c.314.083.613.138.9.242,1.556.57,3.145,1.069,4.647,1.758,1.014.466.973.875.043,1.471a5.54,5.54,0,0,1-1.313.667,50,50,0,0,1-4.963,1.425,78.045,78.045,0,0,1-20.094,1.067,49.042,49.042,0,0,1-11.3-1.786,18.7,18.7,0,0,1-3.152-1.289c-1.15-.595-1.137-.974-.047-1.617a9.713,9.713,0,0,1,1.752-.82c1.216-.419,2.454-.773,3.709-1.162l-.2-1.192" transform="translate(-79.886 -157.274)" fill="#fba631"/>
        <path id="Trazado_1034090" data-name="Trazado 1034090" d="M104.131,205.278l.2,1.192c-1.256.389-2.494.744-3.709,1.162a9.712,9.712,0,0,0-1.752.82c-1.09.643-1.1,1.022.047,1.617a18.7,18.7,0,0,0,3.152,1.289,49.043,49.043,0,0,0,11.3,1.786,78.044,78.044,0,0,0,20.094-1.067,49.987,49.987,0,0,0,4.963-1.425,5.541,5.541,0,0,0,1.313-.667c.93-.6.97-1.006-.043-1.471-1.5-.69-3.091-1.188-4.647-1.758-.282-.1-.582-.158-.9-.242l.21-1.236.333-1.249c2.585.58,5.137,1.161,7.2,2.907,1.6,1.349,1.67,3.373-.017,4.6a16.068,16.068,0,0,1-4.425,2.2,49.083,49.083,0,0,1-12.575,2.018,81.865,81.865,0,0,1-20.018-1.059,23.066,23.066,0,0,1-7.019-2.224c-1.283-.71-2.435-1.6-2.431-3.228a3.485,3.485,0,0,1,2.385-3.149c1.9-.854,3.88-1.514,5.921-2.293l.4,1.475" transform="translate(-71.886 -154.072)" fill="#050401"/>
        <path id="Trazado_1034091" data-name="Trazado 1034091" d="M130.906,69.967a20.2,20.2,0,0,1-19.8-17.306c-1.524-10.3,5.932-20.655,16.209-22.33,1.185-.193,2.39-.262,3.586-.389A20.933,20.933,0,0,1,141.583,33.1a19.93,19.93,0,0,1-7.645,36.549c-1,.156-2.021.211-3.032.313m0-37.342a1.529,1.529,0,0,0-.273-.035c-6.619.308-11.736,3.243-14.916,9.059a16.394,16.394,0,0,0,.516,17.484,16.52,16.52,0,0,0,14.677,8.125c.739-.026,1.485.007,2.215-.085a17.329,17.329,0,0,0,12.995-25.5c-3.28-5.893-8.429-8.91-15.213-9.044" transform="translate(-83.539 -23.275)" fill="#050301"/>
        <path id="Trazado_1034092" data-name="Trazado 1034092" d="M191.622,40.771c6.784.134,11.933,3.151,15.213,9.044a17.329,17.329,0,0,1-12.995,25.5c-.73.093-1.476.06-2.215.085q0-3.079,0-6.157l1.315-.1V66.026c.233-.057.409-.093.581-.143a4.616,4.616,0,0,0-.337-8.985,13.674,13.674,0,0,0-1.559-.144q0-1.99,0-3.979c2.275-.122,2.275-.122,2.816,2.594h2.417c.341-3.028-.855-4.64-3.959-5.324V47.034l-1.275-.068v-6.2" transform="translate(-144.258 -31.422)" fill="#fc9823"/>
        <path id="Trazado_1034093" data-name="Trazado 1034093" d="M138.576,69.137q0,3.079,0,6.157A16.519,16.519,0,0,1,123.9,67.17a16.394,16.394,0,0,1-.516-17.484c3.18-5.816,8.3-8.751,14.916-9.059a1.529,1.529,0,0,1,.273.035v6.2l-1.3.087c0,.8-.041,1.544.013,2.276.046.626-.139.877-.785,1.065a4.522,4.522,0,0,0-3.193,4.74,4.181,4.181,0,0,0,3.891,4.1c.456.07.915.13,1.372.194l0,4c-2.257.141-2.291.109-2.807-2.6h-2.414c-.373,3,.8,4.587,3.951,5.329v3.013l1.272.08" transform="translate(-91.212 -31.313)" fill="#fca732"/>
        <path id="Trazado_1034094" data-name="Trazado 1034094" d="M175.555,88.063l-1.272-.08V84.97c-3.15-.742-4.325-2.33-3.951-5.329h2.414c.515,2.712.55,2.744,2.807,2.6,1.9.119,3.079-1.077,2.592-2.632-.312-1-1.141-1.433-2.589-1.368-.457-.064-.915-.124-1.372-.194a4.181,4.181,0,0,1-3.891-4.1,4.522,4.522,0,0,1,3.193-4.74c.646-.188.831-.44.785-1.065-.054-.732-.013-1.471-.013-2.276l1.3-.087,1.275.068v3.011c3.1.684,4.3,2.3,3.959,5.324h-2.417c-.541-2.716-.541-2.716-2.816-2.594-.122-.011-.244-.03-.366-.031a2.086,2.086,0,0,0-2.327,1.942c-.1,1.194.424,1.751,1.876,1.994.269.045.544.05.816.074a13.677,13.677,0,0,1,1.559.144,4.616,4.616,0,0,1,.337,8.985c-.172.051-.348.086-.581.143v3.121l-1.315.1" transform="translate(-128.19 -50.238)" fill="#050301"/>
        <path id="Trazado_1034095" data-name="Trazado 1034095" d="M183.412,93.119c-.272-.024-.548-.029-.816-.074-1.453-.243-1.973-.8-1.876-1.994a2.086,2.086,0,0,1,2.327-1.942c.122,0,.244.02.366.031q0,1.99,0,3.979" transform="translate(-136.047 -67.787)" fill="#f9a531"/>
        <path id="Trazado_1034096" data-name="Trazado 1034096" d="M191.612,116.075c1.448-.065,2.277.373,2.589,1.368.487,1.555-.691,2.752-2.592,2.632q0-2,0-4" transform="translate(-144.248 -88.068)" fill="#f79522"/>
      </g>
    </g>
  </g>
</svg>
