<svg xmlns="http://www.w3.org/2000/svg" width="1153.418" height="370" viewBox="0 0 1153.418 370">
  <g id="Grupo_1181005" data-name="Grupo 1181005" transform="translate(-220.568 -8232)">
    <g id="Trazado_1034073" data-name="Trazado 1034073" transform="translate(221.051 8282.547)" fill="#fff">
      <path d="M 1152.385375976562 318.5 L 0.5000555515289307 318.5 L 0.5000555515289307 0.5 L 1152.385375976562 0.5 L 1152.385375976562 318.5 Z" stroke="none"/>
      <path d="M 0.9998779296875 1 L 0.9998779296875 318 L 1151.88525390625 318 L 1151.88525390625 1 L 0.9998779296875 1 M -0.0001220703125 0 L 1152.88525390625 0 L 1152.88525390625 319 L -0.0001220703125 319 L -0.0001220703125 0 Z" stroke="none" fill="#d6d6d6"/>
    </g>
    <path id="Trazado_1034067" data-name="Trazado 1034067" d="M0,0V319" transform="translate(355.738 8281.547)" fill="none" stroke="#d6d6d6" stroke-linecap="round" stroke-width="1"/>
    <path id="Trazado_1034053" data-name="Trazado 1034053" d="M0,0H1152.885V50H0Z" transform="translate(221.051 8232.547)" fill="#fd9826"/>
    <path id="Trazado_1034072" data-name="Trazado 1034072" d="M0,0V368.392" transform="translate(616.363 8232.5)" fill="none" stroke="#d6d6d6" stroke-linecap="round" stroke-width="1"/>
    <path id="Trazado_1034068" data-name="Trazado 1034068" d="M0,0H1153.368V50H0Z" transform="translate(220.568 8372.142)" fill="#e8e8e8"/>
    <path id="Trazado_1034054" data-name="Trazado 1034054" d="M-149.369-10636H1003.567" transform="translate(370.369 18965.188)" fill="none" stroke="#d6d6d6" stroke-width="1"/>
    <path id="Trazado_1034069" data-name="Trazado 1034069" d="M-149.369-10636H1003.567" transform="translate(370.42 19103.188)" fill="none" stroke="#d6d6d6" stroke-width="1"/>
    <path id="Trazado_1034056" data-name="Trazado 1034056" d="M-149.369-10636H1003.516" transform="translate(370.42 19147.469)" fill="none" stroke="#d6d6d6" stroke-width="1"/>
    <path id="Trazado_1034070" data-name="Trazado 1034070" d="M-63.3-10635.879H1088.516" transform="translate(285.42 19192.469)" fill="none" stroke="#d6d6d6" stroke-width="1"/>
    <path id="Trazado_1054851" data-name="Trazado 1054851" d="M0,0V317.953" transform="translate(485.738 8282.547)" fill="none" stroke="#d6d6d6" stroke-linecap="round" stroke-width="1"/>
    <path id="Trazado_1054852" data-name="Trazado 1054852" d="M0,0V368" transform="translate(746.676 8232.5)" fill="none" stroke="#d6d6d6" stroke-linecap="round" stroke-width="1"/>
    <path id="Trazado_1054857" data-name="Trazado 1054857" d="M0,0V179" transform="translate(905.676 8421.5)" fill="none" stroke="#d6d6d6" stroke-linecap="round" stroke-width="1"/>
    <path id="Trazado_1054861" data-name="Trazado 1054861" d="M0,0V179.357" transform="translate(1184.676 8422.143)" fill="none" stroke="#d6d6d6" stroke-linecap="round" stroke-width="1"/>
    <path id="Trazado_1054849" data-name="Trazado 1054849" d="M3.359-4.008V0H1.016V-11.375H5.453a5.134,5.134,0,0,1,2.254.469A3.454,3.454,0,0,1,9.2-9.574a3.714,3.714,0,0,1,.523,1.965A3.266,3.266,0,0,1,8.582-4.973a4.767,4.767,0,0,1-3.168.965Zm0-1.9H5.453a2.059,2.059,0,0,0,1.418-.437,1.591,1.591,0,0,0,.488-1.25,1.876,1.876,0,0,0-.492-1.352,1.839,1.839,0,0,0-1.359-.531H3.359ZM15.547-4.164H13.68V0H11.336V-11.375h4.227a4.778,4.778,0,0,1,3.109.9,3.1,3.1,0,0,1,1.094,2.539A3.5,3.5,0,0,1,19.262-6a3.437,3.437,0,0,1-1.527,1.238L20.2-.109V0H17.68Zm-1.867-1.9H15.57a1.936,1.936,0,0,0,1.367-.449,1.606,1.606,0,0,0,.484-1.238,1.719,1.719,0,0,0-.457-1.266,1.9,1.9,0,0,0-1.4-.461H13.68Zm17.211.633A6.867,6.867,0,0,1,30.3-2.484,4.472,4.472,0,0,1,28.6-.531a4.7,4.7,0,0,1-2.535.688,4.732,4.732,0,0,1-2.523-.68A4.515,4.515,0,0,1,21.82-2.465a6.67,6.67,0,0,1-.617-2.9V-5.93a6.831,6.831,0,0,1,.605-2.957,4.508,4.508,0,0,1,1.711-1.961,4.706,4.706,0,0,1,2.527-.684,4.706,4.706,0,0,1,2.527.684,4.508,4.508,0,0,1,1.711,1.961,6.811,6.811,0,0,1,.605,2.949Zm-2.375-.516a4.787,4.787,0,0,0-.641-2.719,2.088,2.088,0,0,0-1.828-.93,2.088,2.088,0,0,0-1.82.918,4.732,4.732,0,0,0-.648,2.691v.555a4.847,4.847,0,0,0,.641,2.7,2.082,2.082,0,0,0,1.844.961,2.064,2.064,0,0,0,1.813-.926,4.819,4.819,0,0,0,.641-2.7ZM32.594,0V-11.375h3.5a5.315,5.315,0,0,1,2.684.676,4.712,4.712,0,0,1,1.848,1.922,5.928,5.928,0,0,1,.664,2.832v.523a5.945,5.945,0,0,1-.652,2.82A4.672,4.672,0,0,1,38.8-.687,5.355,5.355,0,0,1,36.117,0Zm2.344-9.477v7.594H36.07a2.545,2.545,0,0,0,2.1-.9,4.06,4.06,0,0,0,.742-2.57v-.6A4.124,4.124,0,0,0,38.2-8.582a2.537,2.537,0,0,0-2.1-.895Zm16.664-1.9v7.492A3.836,3.836,0,0,1,50.434-.93,4.5,4.5,0,0,1,47.242.156,4.553,4.553,0,0,1,44.078-.9a3.77,3.77,0,0,1-1.2-2.9v-7.578h2.344v7.508a2.167,2.167,0,0,0,.535,1.629,2.054,2.054,0,0,0,1.48.512q1.977,0,2.008-2.078v-7.57ZM62.453-3.789A4.025,4.025,0,0,1,61.1-.9,4.76,4.76,0,0,1,57.875.156a4.28,4.28,0,0,1-3.441-1.473A6.038,6.038,0,0,1,53.18-5.359v-.7a6.819,6.819,0,0,1,.578-2.891,4.332,4.332,0,0,1,1.652-1.918,4.629,4.629,0,0,1,2.5-.668,4.637,4.637,0,0,1,3.172,1.055,4.326,4.326,0,0,1,1.391,2.961H60.125a2.376,2.376,0,0,0-.613-1.6,2.271,2.271,0,0,0-1.605-.5,1.991,1.991,0,0,0-1.754.84,4.707,4.707,0,0,0-.6,2.605V-5.3a5.038,5.038,0,0,0,.559,2.7,1.954,1.954,0,0,0,1.762.852,2.314,2.314,0,0,0,1.621-.5,2.241,2.241,0,0,0,.613-1.535Zm9.875-5.687H68.844V0H66.5V-9.477H63.063v-1.9h9.266ZM82.789-5.43A6.867,6.867,0,0,1,82.2-2.484,4.472,4.472,0,0,1,80.5-.531a4.7,4.7,0,0,1-2.535.688,4.732,4.732,0,0,1-2.523-.68,4.515,4.515,0,0,1-1.719-1.941,6.67,6.67,0,0,1-.617-2.9V-5.93a6.831,6.831,0,0,1,.605-2.957,4.508,4.508,0,0,1,1.711-1.961,4.706,4.706,0,0,1,2.527-.684,4.706,4.706,0,0,1,2.527.684,4.508,4.508,0,0,1,1.711,1.961,6.811,6.811,0,0,1,.605,2.949Zm-2.375-.516a4.787,4.787,0,0,0-.641-2.719,2.088,2.088,0,0,0-1.828-.93,2.088,2.088,0,0,0-1.82.918,4.732,4.732,0,0,0-.648,2.691v.555a4.847,4.847,0,0,0,.641,2.7,2.082,2.082,0,0,0,1.844.961,2.064,2.064,0,0,0,1.813-.926,4.819,4.819,0,0,0,.641-2.7ZM9.945,42.211A4.025,4.025,0,0,1,8.59,45.1a4.76,4.76,0,0,1-3.223,1.055,4.281,4.281,0,0,1-3.441-1.473A6.038,6.038,0,0,1,.672,40.641v-.7a6.819,6.819,0,0,1,.578-2.891A4.332,4.332,0,0,1,2.9,35.137a4.629,4.629,0,0,1,2.5-.668A4.637,4.637,0,0,1,8.57,35.523a4.326,4.326,0,0,1,1.391,2.961H7.617A2.376,2.376,0,0,0,7,36.887a2.271,2.271,0,0,0-1.605-.5,1.991,1.991,0,0,0-1.754.84,4.707,4.707,0,0,0-.6,2.605V40.7a5.038,5.038,0,0,0,.559,2.7,1.954,1.954,0,0,0,1.762.852,2.314,2.314,0,0,0,1.621-.5A2.241,2.241,0,0,0,7.6,42.211Zm7.961,1.445H13.8L13.016,46H10.523l4.234-11.375H16.93L21.188,46H18.7Zm-3.477-1.9h2.844L15.844,37.5ZM31.5,46H29.156l-4.562-7.484V46H22.25V34.625h2.344l4.57,7.5v-7.5H31.5Zm10.609-9.477H38.625V46H36.281V36.523H32.844v-1.9h9.266ZM45.938,46H43.594V34.625h2.344Zm2.172,0V34.625h3.5a5.315,5.315,0,0,1,2.684.676,4.712,4.712,0,0,1,1.848,1.922,5.928,5.928,0,0,1,.664,2.832v.523a5.945,5.945,0,0,1-.652,2.82,4.672,4.672,0,0,1-1.84,1.914,5.355,5.355,0,0,1-2.68.688Zm2.344-9.477v7.594h1.133a2.545,2.545,0,0,0,2.1-.9,4.06,4.06,0,0,0,.742-2.57v-.6a4.124,4.124,0,0,0-.719-2.629,2.537,2.537,0,0,0-2.1-.895ZM64.93,43.656H60.82L60.039,46H57.547l4.234-11.375h2.172L68.211,46H65.719Zm-3.477-1.9H64.3L62.867,37.5ZM69.273,46V34.625h3.5a5.315,5.315,0,0,1,2.684.676A4.712,4.712,0,0,1,77.3,37.223a5.928,5.928,0,0,1,.664,2.832v.523a5.945,5.945,0,0,1-.652,2.82,4.672,4.672,0,0,1-1.84,1.914A5.355,5.355,0,0,1,72.8,46Zm2.344-9.477v7.594H72.75a2.545,2.545,0,0,0,2.1-.9,4.06,4.06,0,0,0,.742-2.57v-.6a4.124,4.124,0,0,0-.719-2.629,2.537,2.537,0,0,0-2.1-.895Zm-62.039,184H6.094V230H3.75v-9.477H.313v-1.9H9.578Zm10.461,4.047a6.867,6.867,0,0,1-.594,2.945,4.472,4.472,0,0,1-1.7,1.953,4.7,4.7,0,0,1-2.535.688,4.732,4.732,0,0,1-2.523-.68,4.515,4.515,0,0,1-1.719-1.941,6.67,6.67,0,0,1-.617-2.9v-.562a6.831,6.831,0,0,1,.605-2.957,4.508,4.508,0,0,1,1.711-1.961,4.706,4.706,0,0,1,2.527-.684,4.706,4.706,0,0,1,2.527.684,4.508,4.508,0,0,1,1.711,1.961,6.811,6.811,0,0,1,.605,2.949Zm-2.375-.516a4.787,4.787,0,0,0-.641-2.719,2.088,2.088,0,0,0-1.828-.93,2.088,2.088,0,0,0-1.82.918,4.732,4.732,0,0,0-.648,2.691v.555a4.847,4.847,0,0,0,.641,2.7,2.082,2.082,0,0,0,1.844.961,2.064,2.064,0,0,0,1.813-.926,4.819,4.819,0,0,0,.641-2.7Zm11.977-3.531H26.156V230H23.813v-9.477H20.375v-1.9h9.266Zm6.82,7.133H32.352L31.57,230H29.078l4.234-11.375h2.172L39.742,230H37.25Zm-3.477-1.9h2.844L34.4,221.5Zm10.164,2.359h4.977V230H40.8V218.625h2.344Z" transform="translate(246.052 8311.811)" fill="#12263f"/>
    <path id="Trazado_1054850" data-name="Trazado 1054850" d="M7.859-4.93h-4.5v3.047H8.641V0H1.016V-11.375H8.625v1.9H3.359v2.711h4.5Zm5.219-6.445L16-3.125l2.906-8.25h3.078V0H19.633V-3.109l.234-5.367L16.8,0H15.188L12.125-8.469l.234,5.359V0H10.016V-11.375Zm13.3,7.367V0H24.031V-11.375h4.438a5.134,5.134,0,0,1,2.254.469,3.454,3.454,0,0,1,1.5,1.332,3.714,3.714,0,0,1,.523,1.965A3.266,3.266,0,0,1,31.6-4.973a4.767,4.767,0,0,1-3.168.965Zm0-1.9h2.094a2.059,2.059,0,0,0,1.418-.437,1.591,1.591,0,0,0,.488-1.25,1.876,1.876,0,0,0-.492-1.352,1.839,1.839,0,0,0-1.359-.531H26.375ZM39.383-2.344H35.273L34.492,0H32l4.234-11.375h2.172L42.664,0H40.172Zm-3.477-1.9H38.75L37.32-8.5ZM52.977,0H50.633L46.07-7.484V0H43.727V-11.375H46.07l4.57,7.5v-7.5h2.336Zm8.469-2.344H57.336L56.555,0H54.063L58.3-11.375h2.172L64.727,0H62.234Zm-3.477-1.9h2.844L59.383-8.5ZM65.789,0V-11.375h3.5a5.315,5.315,0,0,1,2.684.676A4.712,4.712,0,0,1,73.82-8.777a5.928,5.928,0,0,1,.664,2.832v.523a5.945,5.945,0,0,1-.652,2.82,4.672,4.672,0,0,1-1.84,1.914A5.355,5.355,0,0,1,69.313,0Zm2.344-9.477v7.594h1.133a2.545,2.545,0,0,0,2.1-.9,4.06,4.06,0,0,0,.742-2.57v-.6a4.124,4.124,0,0,0-.719-2.629,2.537,2.537,0,0,0-2.1-.895ZM82.609-2.344H78.5L77.719,0H75.227l4.234-11.375h2.172L85.891,0H83.4Zm-3.477-1.9h2.844L80.547-8.5ZM76.977,226.039h-4.4v-1.82h4.4Z" transform="translate(378.052 8312.811)" fill="#12263f"/>
    <path id="Trazado_1054848" data-name="Trazado 1054848" d="M-72.224-2.391h-4.228L-77.19,0h-3.3l4.693-12.8h2.9L-68.164,0h-3.313Zm-3.489-2.382h2.751l-1.38-4.438Zm11.566,2.4h5.37V0h-8.455V-12.8h3.085ZM-53.424-12.8l2.856,8.9,2.848-8.9h4.061V0h-3.094V-2.988l.3-6.117L-49.548,0h-2.039l-3.1-9.114.3,6.126V0h-3.085V-12.8ZM-34.431-2.391h-4.228L-39.4,0h-3.3L-38-12.8h2.9L-30.371,0h-3.313ZM-37.92-4.772h2.751l-1.38-4.438Zm18.835.439a4.673,4.673,0,0,1-.721,2.36,4.35,4.35,0,0,1-1.85,1.586,6.3,6.3,0,0,1-2.72.563,5.025,5.025,0,0,1-3.973-1.644A6.786,6.786,0,0,1-29.8-6.108v-.633a7.746,7.746,0,0,1,.655-3.292,4.961,4.961,0,0,1,1.885-2.18,5.26,5.26,0,0,1,2.848-.769,5.516,5.516,0,0,1,3.744,1.226,4.844,4.844,0,0,1,1.608,3.379h-3.076a2.292,2.292,0,0,0-.589-1.679,2.422,2.422,0,0,0-1.687-.51A1.843,1.843,0,0,0-26.1-9.7a5.536,5.536,0,0,0-.562,2.751v.905a6.126,6.126,0,0,0,.514,2.927,1.882,1.882,0,0,0,1.771.879,2.369,2.369,0,0,0,1.626-.5,2.126,2.126,0,0,0,.6-1.591Zm9.4-1.1h-4.852v3.059h5.73V0h-8.815V-12.8h8.833v2.382h-5.748v2.7H-9.69ZM3.133,0H.066L-4.469-7.963V0H-7.554V-12.8h3.085L.057-4.834V-12.8H3.133Zm9.888-5.432H8.169v3.059H13.9V0H5.084V-12.8h8.833v2.382H8.169v2.7h4.852ZM21.757-3.4a1.268,1.268,0,0,0-.479-1.055A5.954,5.954,0,0,0,19.6-5.238a16.147,16.147,0,0,1-1.969-.782q-2.487-1.222-2.487-3.357a3.011,3.011,0,0,1,.62-1.876,4.008,4.008,0,0,1,1.753-1.266,6.823,6.823,0,0,1,2.549-.453,5.969,5.969,0,0,1,2.474.492,3.917,3.917,0,0,1,1.7,1.4A3.661,3.661,0,0,1,24.842-9H21.766a1.547,1.547,0,0,0-.479-1.213,1.867,1.867,0,0,0-1.3-.431,2.106,2.106,0,0,0-1.305.365,1.119,1.119,0,0,0-.479.927,1.127,1.127,0,0,0,.527.892,6.65,6.65,0,0,0,1.854.826,11.36,11.36,0,0,1,2.18.918,3.663,3.663,0,0,1,2.074,3.3A3.125,3.125,0,0,1,23.577-.782,5.629,5.629,0,0,1,20.1.176a6.888,6.888,0,0,1-2.817-.558,4.247,4.247,0,0,1-1.9-1.529,3.985,3.985,0,0,1-.637-2.237h3.094a1.963,1.963,0,0,0,.532,1.516,2.513,2.513,0,0,0,1.727.488,1.985,1.985,0,0,0,1.208-.33A1.088,1.088,0,0,0,21.757-3.4Zm17.086-2.03H33.992v3.059h5.73V0H30.907V-12.8H39.74v2.382H33.992v2.7h4.852ZM35.969-16.225H39.1l-2.443,2.76-2.417,0Zm9.782,7.682L47.843-12.8h3.524L47.791-6.451,51.464,0H47.9L45.751-4.333,43.6,0H40.047l3.665-6.451L40.144-12.8H43.66ZM55.753,0H52.677V-12.8h3.076Zm12.19-10.415H64.1V0H61.018V-10.415H57.248V-12.8h10.7Zm11.892,4.28a7.546,7.546,0,0,1-.694,3.313A5.132,5.132,0,0,1,77.168-.6a5.494,5.494,0,0,1-2.914.778,5.572,5.572,0,0,1-2.9-.751,5.123,5.123,0,0,1-1.973-2.149,7.329,7.329,0,0,1-.743-3.208v-.721a7.58,7.58,0,0,1,.69-3.318,5.119,5.119,0,0,1,1.978-2.219,5.533,5.533,0,0,1,2.931-.782,5.479,5.479,0,0,1,2.9.773A5.211,5.211,0,0,1,79.119-10a7.362,7.362,0,0,1,.716,3.274ZM76.7-6.671a5.381,5.381,0,0,0-.637-2.9,2.044,2.044,0,0,0-1.824-.989q-2.32,0-2.452,3.48l-.009.94A5.535,5.535,0,0,0,72.4-3.243a2.041,2.041,0,0,0,1.854,1.011,2.016,2.016,0,0,0,1.8-.993A5.383,5.383,0,0,0,76.7-6.082Z" transform="translate(430.738 8263)" fill="#12263f"/>
    <path id="Trazado_1054853" data-name="Trazado 1054853" d="M-80.055-3.852a4.154,4.154,0,0,1-.641,2.1A3.866,3.866,0,0,1-82.34-.344a5.6,5.6,0,0,1-2.418.5A4.467,4.467,0,0,1-88.289-1.3,6.032,6.032,0,0,1-89.578-5.43v-.562A6.885,6.885,0,0,1-89-8.918a4.41,4.41,0,0,1,1.676-1.937,4.676,4.676,0,0,1,2.531-.684,4.9,4.9,0,0,1,3.328,1.09,4.306,4.306,0,0,1,1.43,3h-2.734a2.037,2.037,0,0,0-.523-1.492,2.153,2.153,0,0,0-1.5-.453,1.638,1.638,0,0,0-1.5.766,4.921,4.921,0,0,0-.5,2.445v.8a5.445,5.445,0,0,0,.457,2.6,1.672,1.672,0,0,0,1.574.781,2.106,2.106,0,0,0,1.445-.445,1.89,1.89,0,0,0,.531-1.414Zm10.93-1.6a6.708,6.708,0,0,1-.617,2.945A4.561,4.561,0,0,1-71.5-.535a4.884,4.884,0,0,1-2.59.691,4.953,4.953,0,0,1-2.578-.668,4.554,4.554,0,0,1-1.754-1.91,6.515,6.515,0,0,1-.66-2.852v-.641a6.738,6.738,0,0,1,.613-2.949,4.55,4.55,0,0,1,1.758-1.973,4.918,4.918,0,0,1,2.605-.7,4.87,4.87,0,0,1,2.578.688,4.632,4.632,0,0,1,1.762,1.957,6.544,6.544,0,0,1,.637,2.91Zm-2.789-.477A4.783,4.783,0,0,0-72.48-8.5,1.817,1.817,0,0,0-74.1-9.383q-2.062,0-2.18,3.094l-.008.836a4.92,4.92,0,0,0,.555,2.57,1.814,1.814,0,0,0,1.648.9,1.792,1.792,0,0,0,1.6-.883,4.785,4.785,0,0,0,.57-2.539Zm10.07,2.906a1.127,1.127,0,0,0-.426-.937,5.292,5.292,0,0,0-1.5-.7,14.353,14.353,0,0,1-1.75-.7,3.314,3.314,0,0,1-2.211-2.984A2.676,2.676,0,0,1-67.176-10a3.562,3.562,0,0,1,1.559-1.125,6.065,6.065,0,0,1,2.266-.4,5.305,5.305,0,0,1,2.2.438,3.482,3.482,0,0,1,1.512,1.246A3.254,3.254,0,0,1-59.1-8h-2.734a1.375,1.375,0,0,0-.426-1.078,1.66,1.66,0,0,0-1.152-.383,1.872,1.872,0,0,0-1.16.324A1,1,0,0,0-65-8.312a1,1,0,0,0,.469.793,5.911,5.911,0,0,0,1.648.734,10.1,10.1,0,0,1,1.938.816A3.256,3.256,0,0,1-59.1-3.039,2.778,2.778,0,0,1-60.227-.7a5,5,0,0,1-3.086.852,6.122,6.122,0,0,1-2.5-.5A3.775,3.775,0,0,1-67.5-1.7a3.542,3.542,0,0,1-.566-1.988h2.75a1.745,1.745,0,0,0,.473,1.348,2.234,2.234,0,0,0,1.535.434A1.765,1.765,0,0,0-62.238-2.2.967.967,0,0,0-61.844-3.023Zm13.078-6.234H-52.18V0h-2.742V-9.258h-3.352v-2.117h9.508Zm10.57,3.8a6.708,6.708,0,0,1-.617,2.945A4.561,4.561,0,0,1-40.566-.535a4.884,4.884,0,0,1-2.59.691,4.953,4.953,0,0,1-2.578-.668,4.554,4.554,0,0,1-1.754-1.91,6.515,6.515,0,0,1-.66-2.852v-.641a6.737,6.737,0,0,1,.613-2.949,4.55,4.55,0,0,1,1.758-1.973,4.918,4.918,0,0,1,2.605-.7,4.87,4.87,0,0,1,2.578.688,4.632,4.632,0,0,1,1.762,1.957,6.544,6.544,0,0,1,.637,2.91Zm-2.789-.477A4.783,4.783,0,0,0-41.551-8.5a1.817,1.817,0,0,0-1.621-.879q-2.062,0-2.18,3.094l-.008.836a4.92,4.92,0,0,0,.555,2.57,1.814,1.814,0,0,0,1.648.9,1.792,1.792,0,0,0,1.6-.883,4.785,4.785,0,0,0,.57-2.539ZM-29.2-11.375l2.539,7.914,2.531-7.914h3.609V0h-2.75V-2.656L-23-8.094-25.75,0h-1.812L-30.32-8.1l.266,5.445V0H-32.8V-11.375Zm16.883,9.25H-16.07L-16.727,0h-2.93l4.172-11.375h2.578L-8.7,0h-2.945Zm-3.1-2.117h2.445L-14.2-8.187ZM.117-9.258H-3.3V0H-6.039V-9.258H-9.391v-2.117H.117Zm8.211,4.43H4.016v2.719H9.109V0H1.273V-11.375H9.125v2.117H4.016v2.4H8.328Zm6.125.8H12.969V0H10.227V-11.375H14.7a5,5,0,0,1,3.164.9,3.041,3.041,0,0,1,1.141,2.536,3.693,3.693,0,0,1-.48,1.967,3.41,3.41,0,0,1-1.5,1.264L19.4-.117V0H16.461ZM12.969-6.133H14.7a1.557,1.557,0,0,0,1.176-.411,1.59,1.59,0,0,0,.395-1.147,1.608,1.608,0,0,0-.4-1.155A1.542,1.542,0,0,0,14.7-9.266H12.969ZM23.586,0H20.852V-11.375h2.734Zm8.367-2.125H28.2L27.539,0h-2.93l4.172-11.375h2.578L35.563,0H32.617Zm-3.1-2.117H31.3L30.07-8.187Zm14.266.383V0H40.375V-11.375h4.539a5.287,5.287,0,0,1,2.309.48,3.621,3.621,0,0,1,1.555,1.367,3.734,3.734,0,0,1,.551,2.012,3.291,3.291,0,0,1-1.191,2.66,4.943,4.943,0,0,1-3.27,1Zm0-2.117h1.8a1.7,1.7,0,0,0,1.215-.4A1.48,1.48,0,0,0,46.547-7.5a1.83,1.83,0,0,0-.43-1.273,1.522,1.522,0,0,0-1.172-.484H43.117Zm11.9,1.953H53.531V0H50.789V-11.375h4.477a5,5,0,0,1,3.164.9A3.041,3.041,0,0,1,59.57-7.941a3.693,3.693,0,0,1-.48,1.967,3.41,3.41,0,0,1-1.5,1.264L59.961-.117V0H57.023ZM53.531-6.133h1.734a1.557,1.557,0,0,0,1.176-.411,1.59,1.59,0,0,0,.395-1.147,1.608,1.608,0,0,0-.4-1.155,1.542,1.542,0,0,0-1.172-.419H53.531ZM64.148,0H61.414V-11.375h2.734Zm5.508-11.375L72.2-3.461l2.531-7.914h3.609V0h-2.75V-2.656l.266-5.437L73.1,0H71.289L68.531-8.1,68.8-2.656V0H66.055V-11.375Zm16.883,9.25H82.781L82.125,0H79.2l4.172-11.375h2.578L90.148,0H87.2Zm-3.1-2.117h2.445L84.656-8.187Z" transform="translate(350.738 8404)" fill="#12263f"/>
    <path id="Trazado_1054854" data-name="Trazado 1054854" d="M-35.875-3.852a4.154,4.154,0,0,1-.641,2.1A3.866,3.866,0,0,1-38.16-.344a5.6,5.6,0,0,1-2.418.5A4.467,4.467,0,0,1-44.109-1.3,6.032,6.032,0,0,1-45.4-5.43v-.562a6.885,6.885,0,0,1,.582-2.926,4.41,4.41,0,0,1,1.676-1.937,4.676,4.676,0,0,1,2.531-.684,4.9,4.9,0,0,1,3.328,1.09,4.306,4.306,0,0,1,1.43,3h-2.734a2.037,2.037,0,0,0-.523-1.492,2.153,2.153,0,0,0-1.5-.453,1.638,1.638,0,0,0-1.5.766,4.921,4.921,0,0,0-.5,2.445v.8a5.445,5.445,0,0,0,.457,2.6,1.672,1.672,0,0,0,1.574.781,2.106,2.106,0,0,0,1.445-.445A1.89,1.89,0,0,0-38.6-3.852Zm10.93-1.6a6.708,6.708,0,0,1-.617,2.945A4.561,4.561,0,0,1-27.316-.535a4.884,4.884,0,0,1-2.59.691,4.953,4.953,0,0,1-2.578-.668,4.554,4.554,0,0,1-1.754-1.91,6.515,6.515,0,0,1-.66-2.852v-.641a6.737,6.737,0,0,1,.613-2.949,4.55,4.55,0,0,1,1.758-1.973,4.918,4.918,0,0,1,2.605-.7,4.87,4.87,0,0,1,2.578.688,4.632,4.632,0,0,1,1.762,1.957,6.544,6.544,0,0,1,.637,2.91Zm-2.789-.477A4.783,4.783,0,0,0-28.3-8.5a1.817,1.817,0,0,0-1.621-.879q-2.062,0-2.18,3.094l-.008.836a4.92,4.92,0,0,0,.555,2.57,1.814,1.814,0,0,0,1.648.9,1.792,1.792,0,0,0,1.6-.883,4.785,4.785,0,0,0,.57-2.539Zm10.07,2.906a1.127,1.127,0,0,0-.426-.937,5.292,5.292,0,0,0-1.5-.7,14.353,14.353,0,0,1-1.75-.7,3.314,3.314,0,0,1-2.211-2.984A2.676,2.676,0,0,1-23-10a3.562,3.562,0,0,1,1.559-1.125,6.065,6.065,0,0,1,2.266-.4,5.305,5.305,0,0,1,2.2.438,3.482,3.482,0,0,1,1.512,1.246A3.254,3.254,0,0,1-14.922-8h-2.734a1.375,1.375,0,0,0-.426-1.078,1.66,1.66,0,0,0-1.152-.383,1.872,1.872,0,0,0-1.16.324,1,1,0,0,0-.426.824,1,1,0,0,0,.469.793,5.911,5.911,0,0,0,1.648.734,10.1,10.1,0,0,1,1.938.816,3.256,3.256,0,0,1,1.844,2.93A2.778,2.778,0,0,1-16.047-.7a5,5,0,0,1-3.086.852,6.122,6.122,0,0,1-2.5-.5A3.775,3.775,0,0,1-23.324-1.7a3.542,3.542,0,0,1-.566-1.988h2.75a1.744,1.744,0,0,0,.473,1.348,2.234,2.234,0,0,0,1.535.434A1.765,1.765,0,0,0-18.059-2.2.967.967,0,0,0-17.664-3.023ZM-4.586-9.258H-8V0h-2.742V-9.258h-3.352v-2.117h9.508Zm10.57,3.8a6.708,6.708,0,0,1-.617,2.945A4.561,4.561,0,0,1,3.613-.535a4.884,4.884,0,0,1-2.59.691A4.953,4.953,0,0,1-1.555-.512a4.554,4.554,0,0,1-1.754-1.91,6.515,6.515,0,0,1-.66-2.852v-.641a6.737,6.737,0,0,1,.613-2.949A4.55,4.55,0,0,1-1.6-10.836a4.918,4.918,0,0,1,2.605-.7,4.87,4.87,0,0,1,2.578.688A4.632,4.632,0,0,1,5.348-8.887a6.544,6.544,0,0,1,.637,2.91ZM3.2-5.93A4.783,4.783,0,0,0,2.629-8.5a1.817,1.817,0,0,0-1.621-.879q-2.062,0-2.18,3.094l-.008.836a4.92,4.92,0,0,0,.555,2.57,1.814,1.814,0,0,0,1.648.9,1.792,1.792,0,0,0,1.6-.883A4.785,4.785,0,0,0,3.2-5.406Zm11.789-5.445,2.539,7.914,2.531-7.914h3.609V0h-2.75V-2.656l.266-5.437L18.43,0H16.617L13.859-8.1l.266,5.445V0H11.383V-11.375ZM35.039-5.453a6.708,6.708,0,0,1-.617,2.945A4.561,4.561,0,0,1,32.668-.535a4.884,4.884,0,0,1-2.59.691A4.953,4.953,0,0,1,27.5-.512a4.554,4.554,0,0,1-1.754-1.91,6.515,6.515,0,0,1-.66-2.852v-.641A6.737,6.737,0,0,1,25.7-8.863a4.55,4.55,0,0,1,1.758-1.973,4.918,4.918,0,0,1,2.605-.7,4.87,4.87,0,0,1,2.578.688A4.632,4.632,0,0,1,34.4-8.887a6.544,6.544,0,0,1,.637,2.91ZM32.25-5.93A4.783,4.783,0,0,0,31.684-8.5a1.817,1.817,0,0,0-1.621-.879q-2.062,0-2.18,3.094l-.008.836a4.92,4.92,0,0,0,.555,2.57,1.814,1.814,0,0,0,1.648.9,1.792,1.792,0,0,0,1.6-.883,4.785,4.785,0,0,0,.57-2.539ZM36.453,0V-11.375h3.664a5.39,5.39,0,0,1,2.711.684,4.805,4.805,0,0,1,1.879,1.93,5.826,5.826,0,0,1,.684,2.793v.523a5.86,5.86,0,0,1-.66,2.8A4.826,4.826,0,0,1,42.871-.707,5.271,5.271,0,0,1,40.2,0ZM39.2-9.258v7.148h.953a2.133,2.133,0,0,0,1.813-.84,4.116,4.116,0,0,0,.633-2.5v-.492a4.082,4.082,0,0,0-.633-2.484,2.17,2.17,0,0,0-1.844-.836Z" transform="translate(616.738 8404)" fill="#12263f"/>
    <path id="Trazado_1054860" data-name="Trazado 1054860" d="M-64.082-3.852a4.154,4.154,0,0,1-.641,2.1,3.866,3.866,0,0,1-1.645,1.41,5.6,5.6,0,0,1-2.418.5A4.467,4.467,0,0,1-72.316-1.3,6.032,6.032,0,0,1-73.605-5.43v-.562a6.885,6.885,0,0,1,.582-2.926,4.41,4.41,0,0,1,1.676-1.937,4.676,4.676,0,0,1,2.531-.684,4.9,4.9,0,0,1,3.328,1.09,4.306,4.306,0,0,1,1.43,3h-2.734a2.037,2.037,0,0,0-.523-1.492,2.153,2.153,0,0,0-1.5-.453,1.638,1.638,0,0,0-1.5.766,4.921,4.921,0,0,0-.5,2.445v.8a5.445,5.445,0,0,0,.457,2.6,1.672,1.672,0,0,0,1.574.781,2.106,2.106,0,0,0,1.445-.445,1.89,1.89,0,0,0,.531-1.414Zm10.93-1.6a6.708,6.708,0,0,1-.617,2.945A4.561,4.561,0,0,1-55.523-.535a4.884,4.884,0,0,1-2.59.691,4.953,4.953,0,0,1-2.578-.668,4.554,4.554,0,0,1-1.754-1.91,6.515,6.515,0,0,1-.66-2.852v-.641a6.737,6.737,0,0,1,.613-2.949,4.55,4.55,0,0,1,1.758-1.973,4.918,4.918,0,0,1,2.605-.7,4.87,4.87,0,0,1,2.578.688,4.632,4.632,0,0,1,1.762,1.957,6.544,6.544,0,0,1,.637,2.91Zm-2.789-.477A4.783,4.783,0,0,0-56.508-8.5a1.817,1.817,0,0,0-1.621-.879q-2.062,0-2.18,3.094l-.008.836a4.92,4.92,0,0,0,.555,2.57,1.814,1.814,0,0,0,1.648.9,1.792,1.792,0,0,0,1.6-.883,4.785,4.785,0,0,0,.57-2.539Zm10.07,2.906a1.127,1.127,0,0,0-.426-.937,5.292,5.292,0,0,0-1.5-.7,14.353,14.353,0,0,1-1.75-.7,3.314,3.314,0,0,1-2.211-2.984A2.676,2.676,0,0,1-51.2-10a3.562,3.562,0,0,1,1.559-1.125,6.065,6.065,0,0,1,2.266-.4,5.305,5.305,0,0,1,2.2.438,3.482,3.482,0,0,1,1.512,1.246A3.254,3.254,0,0,1-43.129-8h-2.734a1.375,1.375,0,0,0-.426-1.078,1.66,1.66,0,0,0-1.152-.383,1.872,1.872,0,0,0-1.16.324,1,1,0,0,0-.426.824,1,1,0,0,0,.469.793,5.911,5.911,0,0,0,1.648.734,10.1,10.1,0,0,1,1.938.816,3.256,3.256,0,0,1,1.844,2.93A2.778,2.778,0,0,1-44.254-.7,5,5,0,0,1-47.34.156a6.122,6.122,0,0,1-2.5-.5A3.775,3.775,0,0,1-51.531-1.7,3.542,3.542,0,0,1-52.1-3.687h2.75a1.744,1.744,0,0,0,.473,1.348,2.234,2.234,0,0,0,1.535.434A1.765,1.765,0,0,0-46.266-2.2.967.967,0,0,0-45.871-3.023Zm13.078-6.234h-3.414V0h-2.742V-9.258H-42.3v-2.117h9.508Zm10.57,3.8a6.708,6.708,0,0,1-.617,2.945A4.561,4.561,0,0,1-24.594-.535a4.884,4.884,0,0,1-2.59.691,4.953,4.953,0,0,1-2.578-.668,4.554,4.554,0,0,1-1.754-1.91,6.515,6.515,0,0,1-.66-2.852v-.641a6.737,6.737,0,0,1,.613-2.949A4.55,4.55,0,0,1-29.8-10.836a4.918,4.918,0,0,1,2.605-.7,4.87,4.87,0,0,1,2.578.688,4.632,4.632,0,0,1,1.762,1.957,6.544,6.544,0,0,1,.637,2.91Zm-2.789-.477A4.783,4.783,0,0,0-25.578-8.5,1.817,1.817,0,0,0-27.2-9.383q-2.062,0-2.18,3.094l-.008.836a4.92,4.92,0,0,0,.555,2.57,1.814,1.814,0,0,0,1.648.9,1.792,1.792,0,0,0,1.6-.883,4.785,4.785,0,0,0,.57-2.539ZM-13.9,0h-2.734V-11.375H-13.9ZM-2.5,0H-5.223L-9.254-7.078V0H-12V-11.375h2.742L-5.23-4.3v-7.078H-2.5ZM-.762,0V-11.375H2.9a5.39,5.39,0,0,1,2.711.684,4.805,4.805,0,0,1,1.879,1.93,5.826,5.826,0,0,1,.684,2.793v.523a5.86,5.86,0,0,1-.66,2.8A4.826,4.826,0,0,1,5.656-.707,5.271,5.271,0,0,1,2.98,0ZM1.98-9.258v7.148h.953a2.133,2.133,0,0,0,1.813-.84,4.116,4.116,0,0,0,.633-2.5v-.492a4.082,4.082,0,0,0-.633-2.484A2.17,2.17,0,0,0,2.9-9.258ZM12.5,0H9.77V-11.375H12.5Zm6.133-4.023H17.152V0H14.41V-11.375h4.477a5,5,0,0,1,3.164.9,3.041,3.041,0,0,1,1.141,2.536,3.693,3.693,0,0,1-.48,1.967,3.41,3.41,0,0,1-1.5,1.264L23.582-.117V0H20.645ZM17.152-6.133h1.734a1.557,1.557,0,0,0,1.176-.411,1.59,1.59,0,0,0,.395-1.147,1.608,1.608,0,0,0-.4-1.155,1.542,1.542,0,0,0-1.172-.419H17.152Zm14.75,1.3H27.59v2.719h5.094V0H24.848V-11.375H32.7v2.117H27.59v2.4H31.9ZM43-3.852a4.154,4.154,0,0,1-.641,2.1,3.866,3.866,0,0,1-1.645,1.41,5.6,5.6,0,0,1-2.418.5A4.467,4.467,0,0,1,34.77-1.3,6.032,6.032,0,0,1,33.48-5.43v-.562a6.885,6.885,0,0,1,.582-2.926,4.41,4.41,0,0,1,1.676-1.937,4.676,4.676,0,0,1,2.531-.684,4.9,4.9,0,0,1,3.328,1.09,4.306,4.306,0,0,1,1.43,3H40.293a2.037,2.037,0,0,0-.523-1.492,2.153,2.153,0,0,0-1.5-.453,1.638,1.638,0,0,0-1.5.766,4.921,4.921,0,0,0-.5,2.445v.8a5.445,5.445,0,0,0,.457,2.6,1.672,1.672,0,0,0,1.574.781,2.106,2.106,0,0,0,1.445-.445,1.89,1.89,0,0,0,.531-1.414ZM53-9.258H49.59V0H46.848V-9.258H43.5v-2.117H53Zm10.57,3.8a6.708,6.708,0,0,1-.617,2.945A4.561,4.561,0,0,1,61.2-.535a4.884,4.884,0,0,1-2.59.691,4.953,4.953,0,0,1-2.578-.668,4.554,4.554,0,0,1-1.754-1.91,6.515,6.515,0,0,1-.66-2.852v-.641a6.737,6.737,0,0,1,.613-2.949,4.55,4.55,0,0,1,1.758-1.973,4.918,4.918,0,0,1,2.605-.7,4.87,4.87,0,0,1,2.578.688,4.632,4.632,0,0,1,1.762,1.957,6.544,6.544,0,0,1,.637,2.91ZM60.785-5.93A4.783,4.783,0,0,0,60.219-8.5,1.817,1.817,0,0,0,58.6-9.383q-2.062,0-2.18,3.094l-.008.836a4.92,4.92,0,0,0,.555,2.57,1.814,1.814,0,0,0,1.648.9,1.792,1.792,0,0,0,1.6-.883,4.785,4.785,0,0,0,.57-2.539Zm10.07,2.906a1.127,1.127,0,0,0-.426-.937,5.292,5.292,0,0,0-1.5-.7,14.353,14.353,0,0,1-1.75-.7,3.314,3.314,0,0,1-2.211-2.984A2.676,2.676,0,0,1,65.523-10a3.562,3.562,0,0,1,1.559-1.125,6.065,6.065,0,0,1,2.266-.4,5.305,5.305,0,0,1,2.2.438,3.482,3.482,0,0,1,1.512,1.246A3.254,3.254,0,0,1,73.6-8H70.863a1.375,1.375,0,0,0-.426-1.078,1.66,1.66,0,0,0-1.152-.383,1.872,1.872,0,0,0-1.16.324,1,1,0,0,0-.426.824,1,1,0,0,0,.469.793,5.911,5.911,0,0,0,1.648.734,10.1,10.1,0,0,1,1.938.816A3.256,3.256,0,0,1,73.6-3.039,2.778,2.778,0,0,1,72.473-.7a5,5,0,0,1-3.086.852,6.122,6.122,0,0,1-2.5-.5A3.775,3.775,0,0,1,65.2-1.7a3.542,3.542,0,0,1-.566-1.988h2.75a1.745,1.745,0,0,0,.473,1.348,2.234,2.234,0,0,0,1.535.434A1.765,1.765,0,0,0,70.461-2.2.967.967,0,0,0,70.855-3.023Z" transform="translate(1091.738 8404)" fill="#12263f"/>
    <path id="Trazado_1054863" data-name="Trazado 1054863" d="M9.578-9.477H6.094V0H3.75V-9.477H.313v-1.9H9.578ZM20.039-5.43a6.867,6.867,0,0,1-.594,2.945,4.472,4.472,0,0,1-1.7,1.953,4.7,4.7,0,0,1-2.535.688,4.732,4.732,0,0,1-2.523-.68,4.515,4.515,0,0,1-1.719-1.941,6.67,6.67,0,0,1-.617-2.9V-5.93a6.831,6.831,0,0,1,.605-2.957,4.508,4.508,0,0,1,1.711-1.961,4.706,4.706,0,0,1,2.527-.684,4.706,4.706,0,0,1,2.527.684,4.508,4.508,0,0,1,1.711,1.961,6.811,6.811,0,0,1,.605,2.949Zm-2.375-.516a4.787,4.787,0,0,0-.641-2.719,2.088,2.088,0,0,0-1.828-.93,2.088,2.088,0,0,0-1.82.918,4.732,4.732,0,0,0-.648,2.691v.555a4.847,4.847,0,0,0,.641,2.7,2.082,2.082,0,0,0,1.844.961,2.064,2.064,0,0,0,1.813-.926,4.819,4.819,0,0,0,.641-2.7ZM29.641-9.477H26.156V0H23.813V-9.477H20.375v-1.9h9.266Zm6.82,7.133H32.352L31.57,0H29.078l4.234-11.375h2.172L39.742,0H37.25Zm-3.477-1.9h2.844L34.4-8.5ZM43.148-1.883h4.977V0H40.8V-11.375h2.344Z" transform="translate(502.051 8542)" fill="#12263f"/>
    <path id="Trazado_1054864" data-name="Trazado 1054864" d="M9.578-9.477H6.094V0H3.75V-9.477H.313v-1.9H9.578ZM20.039-5.43a6.867,6.867,0,0,1-.594,2.945,4.472,4.472,0,0,1-1.7,1.953,4.7,4.7,0,0,1-2.535.688,4.732,4.732,0,0,1-2.523-.68,4.515,4.515,0,0,1-1.719-1.941,6.67,6.67,0,0,1-.617-2.9V-5.93a6.831,6.831,0,0,1,.605-2.957,4.508,4.508,0,0,1,1.711-1.961,4.706,4.706,0,0,1,2.527-.684,4.706,4.706,0,0,1,2.527.684,4.508,4.508,0,0,1,1.711,1.961,6.811,6.811,0,0,1,.605,2.949Zm-2.375-.516a4.787,4.787,0,0,0-.641-2.719,2.088,2.088,0,0,0-1.828-.93,2.088,2.088,0,0,0-1.82.918,4.732,4.732,0,0,0-.648,2.691v.555a4.847,4.847,0,0,0,.641,2.7,2.082,2.082,0,0,0,1.844.961,2.064,2.064,0,0,0,1.813-.926,4.819,4.819,0,0,0,.641-2.7ZM29.641-9.477H26.156V0H23.813V-9.477H20.375v-1.9h9.266Zm6.82,7.133H32.352L31.57,0H29.078l4.234-11.375h2.172L39.742,0H37.25Zm-3.477-1.9h2.844L34.4-8.5ZM43.148-1.883h4.977V0H40.8V-11.375h2.344ZM9.578,36.523H6.094V46H3.75V36.523H.313v-1.9H9.578ZM20.039,40.57a6.867,6.867,0,0,1-.594,2.945,4.472,4.472,0,0,1-1.7,1.953,4.7,4.7,0,0,1-2.535.688,4.732,4.732,0,0,1-2.523-.68,4.515,4.515,0,0,1-1.719-1.941,6.67,6.67,0,0,1-.617-2.9V40.07a6.831,6.831,0,0,1,.605-2.957,4.508,4.508,0,0,1,1.711-1.961,4.706,4.706,0,0,1,2.527-.684,4.706,4.706,0,0,1,2.527.684,4.508,4.508,0,0,1,1.711,1.961,6.811,6.811,0,0,1,.605,2.949Zm-2.375-.516a4.787,4.787,0,0,0-.641-2.719,2.088,2.088,0,0,0-1.828-.93,2.088,2.088,0,0,0-1.82.918,4.732,4.732,0,0,0-.648,2.691v.555a4.847,4.847,0,0,0,.641,2.7,2.082,2.082,0,0,0,1.844.961,2.064,2.064,0,0,0,1.813-.926,4.819,4.819,0,0,0,.641-2.7Zm11.977-3.531H26.156V46H23.813V36.523H20.375v-1.9h9.266Zm6.82,7.133H32.352L31.57,46H29.078l4.234-11.375h2.172L39.742,46H37.25Zm-3.477-1.9h2.844L34.4,37.5Zm10.164,2.359h4.977V46H40.8V34.625h2.344Zm19.3.445a4.068,4.068,0,0,1-1.789,1.176,7.492,7.492,0,0,1-2.562.418,5.076,5.076,0,0,1-2.59-.645,4.3,4.3,0,0,1-1.719-1.871,6.585,6.585,0,0,1-.621-2.883v-.773a6.994,6.994,0,0,1,.574-2.949A4.248,4.248,0,0,1,55.4,35.129a5.453,5.453,0,0,1,5.7.3,4.123,4.123,0,0,1,1.352,2.809H60.172a2.268,2.268,0,0,0-.691-1.43,2.208,2.208,0,0,0-1.473-.453,2.078,2.078,0,0,0-1.82.9,4.724,4.724,0,0,0-.633,2.672v.727a4.5,4.5,0,0,0,.68,2.7,2.327,2.327,0,0,0,1.992.914,2.6,2.6,0,0,0,1.883-.562V41.75H57.977V40.023h4.477ZM71.2,41.07H66.7v3.047h5.281V46H64.352V34.625h7.609v1.9H66.7v2.711h4.5ZM82.6,46H80.258L75.7,38.516V46H73.352V34.625H75.7l4.57,7.5v-7.5H82.6Zm8.891-4.93h-4.5v3.047h5.281V46H84.648V34.625h7.609v1.9H86.992v2.711h4.5Zm6.367.766H95.992V46H93.648V34.625h4.227a4.778,4.778,0,0,1,3.109.9,3.1,3.1,0,0,1,1.094,2.539,3.5,3.5,0,0,1-.5,1.941,3.437,3.437,0,0,1-1.527,1.238l2.461,4.648V46H99.992Zm-1.867-1.9h1.891a1.936,1.936,0,0,0,1.367-.449,1.606,1.606,0,0,0,.484-1.238,1.719,1.719,0,0,0-.457-1.266,1.9,1.9,0,0,0-1.4-.461H95.992Zm14.289,3.719h-4.109L105.391,46H102.9l4.234-11.375H109.3L113.563,46H111.07Zm-3.477-1.9h2.844l-1.43-4.258Zm10.164,2.359h4.977V46h-7.32V34.625h2.344Z" transform="translate(763.051 8542)" fill="#12263f"/>
    <path id="Trazado_1054865" data-name="Trazado 1054865" d="M5.258-3.961H.859v-1.82h4.4Z" transform="translate(719.051 8542)" fill="#12263f"/>
    <path id="Trazado_1054862" data-name="Trazado 1054862" d="M5.7,0H4.242V-9.633L1.328-8.562V-9.875L5.469-11.43H5.7ZM17.063-4.852A6.61,6.61,0,0,1,16.2-1.078,3.084,3.084,0,0,1,13.484.156a3.107,3.107,0,0,1-2.7-1.207,6.274,6.274,0,0,1-.906-3.605v-1.93a6.463,6.463,0,0,1,.867-3.727,3.108,3.108,0,0,1,2.719-1.219,3.136,3.136,0,0,1,2.7,1.176,6.237,6.237,0,0,1,.891,3.629ZM15.617-6.828A5.3,5.3,0,0,0,15.1-9.5a1.775,1.775,0,0,0-1.633-.84,1.751,1.751,0,0,0-1.617.836,5.171,5.171,0,0,0-.523,2.57v2.313A5.381,5.381,0,0,0,11.863-1.9a1.771,1.771,0,0,0,1.621.879,1.747,1.747,0,0,0,1.59-.828,5.186,5.186,0,0,0,.543-2.609Zm10.43,1.977a6.61,6.61,0,0,1-.867,3.773A3.084,3.084,0,0,1,22.469.156a3.107,3.107,0,0,1-2.7-1.207,6.274,6.274,0,0,1-.906-3.605v-1.93a6.463,6.463,0,0,1,.867-3.727,3.108,3.108,0,0,1,2.719-1.219,3.136,3.136,0,0,1,2.7,1.176,6.237,6.237,0,0,1,.891,3.629ZM24.6-6.828A5.3,5.3,0,0,0,24.086-9.5a1.775,1.775,0,0,0-1.633-.84,1.751,1.751,0,0,0-1.617.836,5.171,5.171,0,0,0-.523,2.57v2.313A5.381,5.381,0,0,0,20.848-1.9a1.771,1.771,0,0,0,1.621.879,1.747,1.747,0,0,0,1.59-.828A5.186,5.186,0,0,0,24.6-4.461ZM32.648,0H31.2V-9.633l-2.914,1.07V-9.875l4.141-1.555h.227Z" transform="translate(1265.052 8312)" fill="#12263f"/>
    <path id="Trazado_1054855" data-name="Trazado 1054855" d="M11.734,11.57a6.867,6.867,0,0,1-.594,2.945,4.472,4.472,0,0,1-1.7,1.953,4.7,4.7,0,0,1-2.535.688,4.732,4.732,0,0,1-2.523-.68,4.515,4.515,0,0,1-1.719-1.941,6.67,6.67,0,0,1-.617-2.9V11.07a6.831,6.831,0,0,1,.605-2.957A4.508,4.508,0,0,1,4.363,6.152a4.706,4.706,0,0,1,2.527-.684,4.706,4.706,0,0,1,2.527.684,4.508,4.508,0,0,1,1.711,1.961,6.811,6.811,0,0,1,.605,2.949Zm-2.375-.516a4.787,4.787,0,0,0-.641-2.719,2.088,2.088,0,0,0-1.828-.93,2.088,2.088,0,0,0-1.82.918,4.732,4.732,0,0,0-.648,2.691v.555a4.847,4.847,0,0,0,.641,2.7,2.082,2.082,0,0,0,1.844.961,2.064,2.064,0,0,0,1.813-.926,4.819,4.819,0,0,0,.641-2.7Zm8.289,1.781H15.781V17H13.438V5.625h4.227a4.778,4.778,0,0,1,3.109.9,3.1,3.1,0,0,1,1.094,2.539,3.5,3.5,0,0,1-.5,1.941,3.437,3.437,0,0,1-1.527,1.238L22.3,16.891V17H19.781Zm-1.867-1.9h1.891a1.936,1.936,0,0,0,1.367-.449,1.606,1.606,0,0,0,.484-1.238,1.719,1.719,0,0,0-.457-1.266,1.9,1.9,0,0,0-1.4-.461H15.781ZM23.648,17V5.625h3.5a5.315,5.315,0,0,1,2.684.676A4.712,4.712,0,0,1,31.68,8.223a5.928,5.928,0,0,1,.664,2.832v.523a5.945,5.945,0,0,1-.652,2.82,4.672,4.672,0,0,1-1.84,1.914,5.355,5.355,0,0,1-2.68.688Zm2.344-9.477v7.594h1.133a2.545,2.545,0,0,0,2.1-.9,4.06,4.06,0,0,0,.742-2.57v-.6a4.124,4.124,0,0,0-.719-2.629,2.537,2.537,0,0,0-2.1-.895Zm14.9,4.547h-4.5v3.047h5.281V17H34.047V5.625h7.609v1.9H36.391v2.711h4.5ZM52.3,17H49.953L45.391,9.516V17H43.047V5.625h2.344l4.57,7.5v-7.5H52.3Zm6.031,0V5.625h3.5a5.315,5.315,0,0,1,2.684.676,4.712,4.712,0,0,1,1.848,1.922,5.928,5.928,0,0,1,.664,2.832v.523a5.945,5.945,0,0,1-.652,2.82,4.672,4.672,0,0,1-1.84,1.914,5.355,5.355,0,0,1-2.68.688Zm2.344-9.477v7.594H61.8a2.545,2.545,0,0,0,2.1-.9,4.06,4.06,0,0,0,.742-2.57v-.6a4.124,4.124,0,0,0-.719-2.629,2.537,2.537,0,0,0-2.1-.895Zm14.9,4.547h-4.5v3.047h5.281V17H68.727V5.625h7.609v1.9H71.07v2.711h4.5Zm8.484.922V17H81.711V5.625h4.438a5.134,5.134,0,0,1,2.254.469,3.454,3.454,0,0,1,1.5,1.332,3.714,3.714,0,0,1,.523,1.965,3.266,3.266,0,0,1-1.145,2.637,4.767,4.767,0,0,1-3.168.965Zm0-1.9h2.094a2.059,2.059,0,0,0,1.418-.437,1.591,1.591,0,0,0,.488-1.25,1.876,1.876,0,0,0-.492-1.352A1.839,1.839,0,0,0,86.2,7.523H84.055Zm12.188,1.742H94.375V17H92.031V5.625h4.227a4.778,4.778,0,0,1,3.109.9,3.1,3.1,0,0,1,1.094,2.539,3.5,3.5,0,0,1-.5,1.941,3.437,3.437,0,0,1-1.527,1.238l2.461,4.648V17H98.375Zm-1.867-1.9h1.891a1.936,1.936,0,0,0,1.367-.449,1.606,1.606,0,0,0,.484-1.238,1.719,1.719,0,0,0-.457-1.266,1.9,1.9,0,0,0-1.4-.461H94.375Zm17.211.633a6.867,6.867,0,0,1-.594,2.945,4.472,4.472,0,0,1-1.7,1.953,5.021,5.021,0,0,1-5.059.008,4.515,4.515,0,0,1-1.719-1.941,6.67,6.67,0,0,1-.617-2.9V11.07a6.831,6.831,0,0,1,.605-2.957,4.508,4.508,0,0,1,1.711-1.961,5.014,5.014,0,0,1,5.055,0,4.508,4.508,0,0,1,1.711,1.961,6.811,6.811,0,0,1,.605,2.949Zm-2.375-.516a4.787,4.787,0,0,0-.641-2.719,2.263,2.263,0,0,0-3.648-.012,4.732,4.732,0,0,0-.648,2.691v.555a4.847,4.847,0,0,0,.641,2.7,2.243,2.243,0,0,0,3.656.035,4.819,4.819,0,0,0,.641-2.7ZM113.289,17V5.625h3.5a5.315,5.315,0,0,1,2.684.676,4.712,4.712,0,0,1,1.848,1.922,5.928,5.928,0,0,1,.664,2.832v.523a5.945,5.945,0,0,1-.652,2.82,4.672,4.672,0,0,1-1.84,1.914,5.355,5.355,0,0,1-2.68.688Zm2.344-9.477v7.594h1.133a2.545,2.545,0,0,0,2.1-.9,4.06,4.06,0,0,0,.742-2.57v-.6a4.124,4.124,0,0,0-.719-2.629,2.537,2.537,0,0,0-2.1-.895Zm16.664-1.9v7.492a3.836,3.836,0,0,1-1.168,2.953,4.5,4.5,0,0,1-3.191,1.086,4.553,4.553,0,0,1-3.164-1.055,3.77,3.77,0,0,1-1.2-2.9V5.625h2.344v7.508a2.167,2.167,0,0,0,.535,1.629,2.054,2.054,0,0,0,1.48.512q1.977,0,2.008-2.078V5.625Zm10.852,7.586a4.025,4.025,0,0,1-1.355,2.891,4.76,4.76,0,0,1-3.223,1.055,4.281,4.281,0,0,1-3.441-1.473,6.038,6.038,0,0,1-1.254-4.043v-.7a6.819,6.819,0,0,1,.578-2.891,4.332,4.332,0,0,1,1.652-1.918,5.164,5.164,0,0,1,5.668.387,4.326,4.326,0,0,1,1.391,2.961H140.82a2.376,2.376,0,0,0-.613-1.6,2.271,2.271,0,0,0-1.605-.5,1.991,1.991,0,0,0-1.754.84,4.707,4.707,0,0,0-.6,2.605V11.7a5.038,5.038,0,0,0,.559,2.7,1.954,1.954,0,0,0,1.762.852,2.314,2.314,0,0,0,1.621-.5,2.241,2.241,0,0,0,.613-1.535Zm10.469,0a4.025,4.025,0,0,1-1.355,2.891,4.76,4.76,0,0,1-3.223,1.055,4.281,4.281,0,0,1-3.441-1.473,6.038,6.038,0,0,1-1.254-4.043v-.7a6.819,6.819,0,0,1,.578-2.891,4.332,4.332,0,0,1,1.652-1.918,5.164,5.164,0,0,1,5.668.387,4.326,4.326,0,0,1,1.391,2.961h-2.344a2.376,2.376,0,0,0-.613-1.6,2.271,2.271,0,0,0-1.605-.5,1.991,1.991,0,0,0-1.754.84,4.707,4.707,0,0,0-.6,2.605V11.7a5.038,5.038,0,0,0,.559,2.7,1.954,1.954,0,0,0,1.762.852,2.314,2.314,0,0,0,1.621-.5,2.241,2.241,0,0,0,.613-1.535ZM157.648,17H155.3V5.625h2.344Zm11.516-5.43a6.867,6.867,0,0,1-.594,2.945,4.471,4.471,0,0,1-1.7,1.953,5.021,5.021,0,0,1-5.059.008,4.515,4.515,0,0,1-1.719-1.941,6.67,6.67,0,0,1-.617-2.9V11.07a6.831,6.831,0,0,1,.605-2.957,4.508,4.508,0,0,1,1.711-1.961,5.014,5.014,0,0,1,5.055,0,4.508,4.508,0,0,1,1.711,1.961,6.811,6.811,0,0,1,.605,2.949Zm-2.375-.516a4.787,4.787,0,0,0-.641-2.719,2.263,2.263,0,0,0-3.648-.012,4.732,4.732,0,0,0-.648,2.691v.555a4.847,4.847,0,0,0,.641,2.7,2.243,2.243,0,0,0,3.656.035,4.819,4.819,0,0,0,.641-2.7Zm-2.016-8.477h2.461L165.07,5h-1.836ZM180.117,17h-2.344l-4.562-7.484V17h-2.344V5.625h2.344l4.57,7.5v-7.5h2.336ZM195.4,17h-2.344l-4.562-7.484V17h-2.344V5.625h2.344l4.57,7.5v-7.5H195.4Zm6-9.375a2.077,2.077,0,0,1,.633-1.523,2.041,2.041,0,0,1,1.492-.633A2,2,0,0,1,205,6.1a2.093,2.093,0,0,1,.621,1.527,2.107,2.107,0,0,1-2.094,2.125,2.082,2.082,0,0,1-1.484-.613A2.01,2.01,0,0,1,201.4,7.625Zm2.125.969a.913.913,0,0,0,.684-.277.953.953,0,0,0,.27-.691,1.011,1.011,0,0,0-.27-.7.883.883,0,0,0-.684-.3.92.92,0,0,0-.7.3.988.988,0,0,0-.281.7.929.929,0,0,0,.285.688A.948.948,0,0,0,203.523,8.594Z" transform="translate(777.052 8297)" fill="#12263f"/>
    <path id="Trazado_1054856" data-name="Trazado 1054856" d="M9.625,5.625v7.492A3.836,3.836,0,0,1,8.457,16.07a4.5,4.5,0,0,1-3.191,1.086A4.553,4.553,0,0,1,2.1,16.1a3.77,3.77,0,0,1-1.2-2.9V5.625H3.25v7.508a2.167,2.167,0,0,0,.535,1.629,2.054,2.054,0,0,0,1.48.512q1.977,0,2.008-2.078V5.625ZM20.8,17H18.453L13.891,9.516V17H11.547V5.625h2.344l4.57,7.5v-7.5H20.8Zm4.539,0H22.992V5.625h2.344Zm2.172,0V5.625h3.5a5.315,5.315,0,0,1,2.684.676,4.712,4.712,0,0,1,1.848,1.922,5.928,5.928,0,0,1,.664,2.832v.523a5.945,5.945,0,0,1-.652,2.82,4.672,4.672,0,0,1-1.84,1.914,5.355,5.355,0,0,1-2.68.688Zm2.344-9.477v7.594h1.133a2.545,2.545,0,0,0,2.1-.9,4.06,4.06,0,0,0,.742-2.57v-.6a4.124,4.124,0,0,0-.719-2.629,2.537,2.537,0,0,0-2.1-.895Zm14.477,7.133H40.219L39.438,17H36.945L41.18,5.625h2.172L47.609,17H45.117Zm-3.477-1.9H43.7L42.266,8.5ZM48.672,17V5.625h3.5a5.315,5.315,0,0,1,2.684.676A4.712,4.712,0,0,1,56.7,8.223a5.928,5.928,0,0,1,.664,2.832v.523a5.945,5.945,0,0,1-.652,2.82,4.672,4.672,0,0,1-1.84,1.914A5.355,5.355,0,0,1,52.2,17Zm2.344-9.477v7.594h1.133a2.545,2.545,0,0,0,2.1-.9,4.06,4.06,0,0,0,.742-2.57v-.6a4.124,4.124,0,0,0-.719-2.629,2.537,2.537,0,0,0-2.1-.895Zm14.9,4.547h-4.5v3.047H66.7V17H59.07V5.625H66.68v1.9H61.414v2.711h4.5Zm8.055,1.945A1.2,1.2,0,0,0,73.5,13a6.148,6.148,0,0,0-1.687-.75,11.963,11.963,0,0,1-1.93-.777,3.153,3.153,0,0,1-1.937-2.82A2.747,2.747,0,0,1,68.465,7a3.389,3.389,0,0,1,1.492-1.129,5.616,5.616,0,0,1,2.184-.406,5.112,5.112,0,0,1,2.172.441,3.458,3.458,0,0,1,1.48,1.246,3.261,3.261,0,0,1,.527,1.828H73.977a1.534,1.534,0,0,0-.492-1.215A2.023,2.023,0,0,0,72.1,7.336a2.162,2.162,0,0,0-1.336.363,1.146,1.146,0,0,0-.477.957,1.1,1.1,0,0,0,.559.93,6.311,6.311,0,0,0,1.645.7,7.106,7.106,0,0,1,2.914,1.492A2.972,2.972,0,0,1,76.32,14,2.737,2.737,0,0,1,75.2,16.316a4.891,4.891,0,0,1-3.008.84,5.808,5.808,0,0,1-2.391-.48,3.783,3.783,0,0,1-1.645-1.316,3.371,3.371,0,0,1-.566-1.937h2.352q0,1.883,2.25,1.883a2.189,2.189,0,0,0,1.3-.34A1.106,1.106,0,0,0,73.969,14.016ZM89.984,7.523H86.5V17H84.156V7.523H80.719v-1.9h9.266Zm8.18,4.547h-4.5v3.047h5.281V17H91.32V5.625H98.93v1.9H93.664v2.711h4.5Zm6.367.766h-1.867V17H100.32V5.625h4.227a4.778,4.778,0,0,1,3.109.9,3.1,3.1,0,0,1,1.094,2.539,3.5,3.5,0,0,1-.5,1.941,3.437,3.437,0,0,1-1.527,1.238l2.461,4.648V17h-2.516Zm-1.867-1.9h1.891a1.936,1.936,0,0,0,1.367-.449,1.606,1.606,0,0,0,.484-1.238,1.719,1.719,0,0,0-.457-1.266,1.9,1.9,0,0,0-1.4-.461h-1.883Zm10.93-5.312,2.922,8.25,2.906-8.25H122.5V17h-2.352V13.891l.234-5.367L117.313,17H115.7l-3.062-8.469.234,5.359V17h-2.344V5.625ZM127.039,17H124.7V5.625h2.344Zm11.422,0h-2.344l-4.562-7.484V17h-2.344V5.625h2.344l4.57,7.5v-7.5h2.336Zm8.469-2.344H142.82L142.039,17h-2.492l4.234-11.375h2.172L150.211,17h-2.492Zm-3.477-1.9H146.3L144.867,8.5ZM151.273,17V5.625h3.5a5.315,5.315,0,0,1,2.684.676A4.712,4.712,0,0,1,159.3,8.223a5.928,5.928,0,0,1,.664,2.832v.523a5.945,5.945,0,0,1-.652,2.82,4.672,4.672,0,0,1-1.84,1.914A5.355,5.355,0,0,1,154.8,17Zm2.344-9.477v7.594h1.133a2.545,2.545,0,0,0,2.1-.9,4.06,4.06,0,0,0,.742-2.57v-.6a4.124,4.124,0,0,0-.719-2.629,2.537,2.537,0,0,0-2.1-.895Zm14.477,7.133h-4.109L163.2,17h-2.492l4.234-11.375h2.172L171.375,17h-2.492Zm-3.477-1.9h2.844L166.031,8.5Zm13.719,1.258a1.2,1.2,0,0,0-.469-1.02,6.148,6.148,0,0,0-1.687-.75,11.962,11.962,0,0,1-1.93-.777,3.153,3.153,0,0,1-1.937-2.82A2.747,2.747,0,0,1,172.832,7a3.389,3.389,0,0,1,1.492-1.129,5.616,5.616,0,0,1,2.184-.406,5.112,5.112,0,0,1,2.172.441,3.458,3.458,0,0,1,1.48,1.246,3.261,3.261,0,0,1,.527,1.828h-2.344a1.534,1.534,0,0,0-.492-1.215,2.023,2.023,0,0,0-1.383-.434,2.162,2.162,0,0,0-1.336.363,1.146,1.146,0,0,0-.477.957,1.1,1.1,0,0,0,.559.93,6.311,6.311,0,0,0,1.645.7,7.106,7.106,0,0,1,2.914,1.492A2.972,2.972,0,0,1,180.688,14a2.737,2.737,0,0,1-1.117,2.316,4.891,4.891,0,0,1-3.008.84,5.808,5.808,0,0,1-2.391-.48,3.783,3.783,0,0,1-1.645-1.316,3.371,3.371,0,0,1-.566-1.937h2.352q0,1.883,2.25,1.883a2.189,2.189,0,0,0,1.3-.34A1.106,1.106,0,0,0,178.336,14.016Z" transform="translate(777.052 8342.066)" fill="#12263f"/>
    <path id="Trazado_1054859" data-name="Trazado 1054859" d="M-62.552,0h-3.067V-5.344h-4.544V0h-3.085V-12.8h3.085v5.08h4.544V-12.8h3.067Zm12.788-6.135a7.546,7.546,0,0,1-.694,3.313A5.132,5.132,0,0,1-52.431-.6a5.494,5.494,0,0,1-2.914.778,5.572,5.572,0,0,1-2.9-.751,5.123,5.123,0,0,1-1.973-2.149,7.329,7.329,0,0,1-.743-3.208v-.721a7.58,7.58,0,0,1,.69-3.318,5.119,5.119,0,0,1,1.978-2.219,5.533,5.533,0,0,1,2.931-.782,5.479,5.479,0,0,1,2.9.773A5.211,5.211,0,0,1-50.48-10a7.362,7.362,0,0,1,.716,3.274ZM-52.9-6.671a5.381,5.381,0,0,0-.637-2.9,2.044,2.044,0,0,0-1.824-.989q-2.32,0-2.452,3.48l-.009.94A5.535,5.535,0,0,0-57.2-3.243a2.041,2.041,0,0,0,1.854,1.011,2.016,2.016,0,0,0,1.8-.993A5.383,5.383,0,0,0-52.9-6.082Zm9.826-6.126H-40v8.78a4.2,4.2,0,0,1-.567,2.18A3.87,3.87,0,0,1-42.148-.352a4.835,4.835,0,0,1-2.263.527A4.661,4.661,0,0,1-47.663-.879a3.833,3.833,0,0,1-1.16-2.988h3.094a2.113,2.113,0,0,0,.3,1.274,1.2,1.2,0,0,0,1.015.4,1.148,1.148,0,0,0,.989-.479,2.251,2.251,0,0,0,.347-1.34ZM-30.788-2.391h-4.228L-35.754,0h-3.3l4.693-12.8h2.9L-26.728,0h-3.313Zm-3.489-2.382h2.751l-1.38-4.438ZM-21.313,0V-12.8h4.122a6.064,6.064,0,0,1,3.05.769,5.406,5.406,0,0,1,2.114,2.171,6.554,6.554,0,0,1,.769,3.142v.589A6.592,6.592,0,0,1-12-2.975,5.429,5.429,0,0,1-14.093-.8,5.93,5.93,0,0,1-17.1,0Zm3.085-10.415v8.042h1.072a2.4,2.4,0,0,0,2.039-.945,4.63,4.63,0,0,0,.712-2.808V-6.68a4.592,4.592,0,0,0-.712-2.795,2.442,2.442,0,0,0-2.074-.94ZM-1.74-5.432H-6.592v3.059h5.73V0H-9.677V-12.8H-.844v2.382H-6.592v2.7H-1.74Zm16.972,1.1a4.673,4.673,0,0,1-.721,2.36,4.35,4.35,0,0,1-1.85,1.586A6.3,6.3,0,0,1,9.94.176,5.025,5.025,0,0,1,5.968-1.468a6.786,6.786,0,0,1-1.45-4.641v-.633a7.746,7.746,0,0,1,.655-3.292,4.961,4.961,0,0,1,1.885-2.18,5.26,5.26,0,0,1,2.848-.769,5.516,5.516,0,0,1,3.744,1.226,4.844,4.844,0,0,1,1.608,3.379H12.182a2.292,2.292,0,0,0-.589-1.679,2.422,2.422,0,0,0-1.687-.51A1.843,1.843,0,0,0,8.218-9.7a5.536,5.536,0,0,0-.562,2.751v.905A6.125,6.125,0,0,0,8.169-3.12a1.882,1.882,0,0,0,1.771.879,2.369,2.369,0,0,0,1.626-.5,2.126,2.126,0,0,0,.6-1.591Zm12.3-1.8a7.546,7.546,0,0,1-.694,3.313A5.132,5.132,0,0,1,24.86-.6a5.494,5.494,0,0,1-2.914.778,5.572,5.572,0,0,1-2.9-.751,5.123,5.123,0,0,1-1.973-2.149,7.329,7.329,0,0,1-.743-3.208v-.721a7.58,7.58,0,0,1,.69-3.318A5.119,5.119,0,0,1,19-12.19a5.533,5.533,0,0,1,2.931-.782,5.479,5.479,0,0,1,2.9.773A5.211,5.211,0,0,1,26.811-10a7.362,7.362,0,0,1,.716,3.274ZM24.39-6.671a5.381,5.381,0,0,0-.637-2.9,2.044,2.044,0,0,0-1.824-.989q-2.32,0-2.452,3.48l-.009.94a5.535,5.535,0,0,0,.624,2.892,2.041,2.041,0,0,0,1.854,1.011,2.016,2.016,0,0,0,1.8-.993,5.383,5.383,0,0,0,.642-2.856ZM35.719-3.4a1.268,1.268,0,0,0-.479-1.055,5.954,5.954,0,0,0-1.683-.782,16.147,16.147,0,0,1-1.969-.782Q29.1-7.242,29.1-9.378a3.011,3.011,0,0,1,.62-1.876,4.008,4.008,0,0,1,1.753-1.266,6.823,6.823,0,0,1,2.549-.453,5.969,5.969,0,0,1,2.474.492,3.917,3.917,0,0,1,1.7,1.4A3.661,3.661,0,0,1,38.8-9H35.728a1.547,1.547,0,0,0-.479-1.213,1.867,1.867,0,0,0-1.3-.431,2.106,2.106,0,0,0-1.305.365,1.119,1.119,0,0,0-.479.927,1.127,1.127,0,0,0,.527.892,6.65,6.65,0,0,0,1.854.826,11.36,11.36,0,0,1,2.18.918,3.663,3.663,0,0,1,2.074,3.3A3.125,3.125,0,0,1,37.538-.782a5.629,5.629,0,0,1-3.472.958A6.888,6.888,0,0,1,31.25-.382a4.247,4.247,0,0,1-1.9-1.529,3.985,3.985,0,0,1-.637-2.237h3.094a1.963,1.963,0,0,0,.532,1.516,2.513,2.513,0,0,0,1.727.488,1.985,1.985,0,0,0,1.208-.33A1.088,1.088,0,0,0,35.719-3.4Zm14.713-7.014H46.591V0H43.506V-10.415H39.735V-12.8h10.7Zm11.892,4.28a7.546,7.546,0,0,1-.694,3.313A5.132,5.132,0,0,1,59.656-.6a5.494,5.494,0,0,1-2.914.778,5.572,5.572,0,0,1-2.9-.751,5.123,5.123,0,0,1-1.973-2.149,7.329,7.329,0,0,1-.743-3.208v-.721a7.58,7.58,0,0,1,.69-3.318,5.119,5.119,0,0,1,1.978-2.219,5.533,5.533,0,0,1,2.931-.782,5.479,5.479,0,0,1,2.9.773A5.211,5.211,0,0,1,61.607-10a7.362,7.362,0,0,1,.716,3.274Zm-3.138-.536a5.381,5.381,0,0,0-.637-2.9,2.044,2.044,0,0,0-1.824-.989q-2.32,0-2.452,3.48l-.009.94a5.535,5.535,0,0,0,.624,2.892,2.041,2.041,0,0,0,1.854,1.011,2.016,2.016,0,0,0,1.8-.993,5.383,5.383,0,0,0,.642-2.856ZM70.515-3.4a1.268,1.268,0,0,0-.479-1.055,5.954,5.954,0,0,0-1.683-.782,16.147,16.147,0,0,1-1.969-.782Q63.9-7.242,63.9-9.378a3.011,3.011,0,0,1,.62-1.876A4.008,4.008,0,0,1,66.27-12.52a6.823,6.823,0,0,1,2.549-.453,5.969,5.969,0,0,1,2.474.492,3.917,3.917,0,0,1,1.7,1.4A3.661,3.661,0,0,1,73.6-9H70.523a1.547,1.547,0,0,0-.479-1.213,1.867,1.867,0,0,0-1.3-.431,2.106,2.106,0,0,0-1.305.365,1.119,1.119,0,0,0-.479.927,1.127,1.127,0,0,0,.527.892,6.65,6.65,0,0,0,1.854.826,11.36,11.36,0,0,1,2.18.918,3.663,3.663,0,0,1,2.074,3.3A3.125,3.125,0,0,1,72.334-.782a5.629,5.629,0,0,1-3.472.958,6.888,6.888,0,0,1-2.817-.558,4.247,4.247,0,0,1-1.9-1.529,3.985,3.985,0,0,1-.637-2.237H66.6a1.963,1.963,0,0,0,.532,1.516,2.513,2.513,0,0,0,1.727.488,1.985,1.985,0,0,0,1.208-.33A1.088,1.088,0,0,0,70.515-3.4Z" transform="translate(1045.052 8263)" fill="#12263f"/>
    <path id="Trazado_1054858" data-name="Trazado 1054858" d="M0,0V48" transform="translate(904.842 8234.5)" fill="none" stroke="#d6d6d6" stroke-linecap="round" stroke-width="1"/>
    <path id="Trazado_1034071" data-name="Trazado 1034071" d="M0-48.724V90.037" transform="translate(1184.01 8281.547)" fill="none" stroke="#d6d6d6" stroke-linecap="round" stroke-width="1"/>
  </g>
</svg>
