<svg xmlns="http://www.w3.org/2000/svg" xmlns:xlink="http://www.w3.org/1999/xlink" width="400" height="381" viewBox="0 0 400 381">
  <defs>
    <clipPath id="clip-path">
      <rect id="Rectángulo_407841" data-name="Rectángulo 407841" width="400" height="381" transform="translate(1020.106 1939.109)" fill="#fff" stroke="#707070" stroke-width="1" stroke-dasharray="2"/>
    </clipPath>
    <clipPath id="clip-path-2">
      <rect id="Rectángulo_407840" data-name="Rectángulo 407840" width="400" height="400" fill="none" stroke="rgba(0,0,0,0)" stroke-width="1" stroke-dasharray="2"/>
    </clipPath>
  </defs>
  <g id="Enmascarar_grupo_1098782" data-name="Enmascarar grupo 1098782" transform="translate(-1020.106 -1939.109)" clip-path="url(#clip-path)">
    <g id="Grupo_1180713" data-name="Grupo 1180713" transform="translate(1020.106 1939.109)">
      <rect id="Rectángulo_407839" data-name="Rectángulo 407839" width="400" height="400" fill="#8454ee" stroke="rgba(0,0,0,0)" stroke-width="1" stroke-dasharray="2"/>
      <g id="Grupo_1180712" data-name="Grupo 1180712">
        <g id="Grupo_1180711" data-name="Grupo 1180711" clip-path="url(#clip-path-2)">
          <path id="Trazado_1053661" data-name="Trazado 1053661" d="M69.13,455.547a3.015,3.015,0,1,1-3.015,3.015,3.015,3.015,0,0,1,3.015-3.015" transform="translate(-13.237 -91.206)" fill="#a0a8fb" stroke="rgba(0,0,0,0)" stroke-width="1" stroke-dasharray="2"/>
          <path id="Trazado_1053662" data-name="Trazado 1053662" d="M99.319,455.547a3.015,3.015,0,1,1-3.015,3.015,3.015,3.015,0,0,1,3.015-3.015" transform="translate(-19.281 -91.206)" fill="#a0a8fb" stroke="rgba(0,0,0,0)" stroke-width="1" stroke-dasharray="2"/>
          <path id="Trazado_1053663" data-name="Trazado 1053663" d="M129.507,455.547a3.015,3.015,0,1,1-3.015,3.015,3.015,3.015,0,0,1,3.015-3.015" transform="translate(-25.325 -91.206)" fill="#a0a8fb" stroke="rgba(0,0,0,0)" stroke-width="1" stroke-dasharray="2"/>
          <path id="Trazado_1053664" data-name="Trazado 1053664" d="M159.7,455.547a3.015,3.015,0,1,1-3.015,3.015,3.015,3.015,0,0,1,3.015-3.015" transform="translate(-31.37 -91.206)" fill="#a0a8fb" stroke="rgba(0,0,0,0)" stroke-width="1" stroke-dasharray="2"/>
          <path id="Trazado_1053665" data-name="Trazado 1053665" d="M69.13,425.358a3.015,3.015,0,1,1-3.015,3.015,3.015,3.015,0,0,1,3.015-3.015" transform="translate(-13.237 -85.162)" fill="#a0a8fb" stroke="rgba(0,0,0,0)" stroke-width="1" stroke-dasharray="2"/>
          <path id="Trazado_1053666" data-name="Trazado 1053666" d="M99.319,425.358a3.015,3.015,0,1,1-3.015,3.015,3.015,3.015,0,0,1,3.015-3.015" transform="translate(-19.281 -85.162)" fill="#a0a8fb" stroke="rgba(0,0,0,0)" stroke-width="1" stroke-dasharray="2"/>
          <path id="Trazado_1053667" data-name="Trazado 1053667" d="M129.507,425.358a3.015,3.015,0,1,1-3.015,3.015,3.015,3.015,0,0,1,3.015-3.015" transform="translate(-25.325 -85.162)" fill="#a0a8fb" stroke="rgba(0,0,0,0)" stroke-width="1" stroke-dasharray="2"/>
          <path id="Trazado_1053668" data-name="Trazado 1053668" d="M159.7,425.358a3.015,3.015,0,1,1-3.015,3.015,3.015,3.015,0,0,1,3.015-3.015" transform="translate(-31.37 -85.162)" fill="#a0a8fb" stroke="rgba(0,0,0,0)" stroke-width="1" stroke-dasharray="2"/>
          <path id="Trazado_1053669" data-name="Trazado 1053669" d="M69.13,395.169a3.015,3.015,0,1,1-3.015,3.015,3.015,3.015,0,0,1,3.015-3.015" transform="translate(-13.237 -79.118)" fill="#a0a8fb" stroke="rgba(0,0,0,0)" stroke-width="1" stroke-dasharray="2"/>
          <path id="Trazado_1053670" data-name="Trazado 1053670" d="M99.319,395.169a3.015,3.015,0,1,1-3.015,3.015,3.015,3.015,0,0,1,3.015-3.015" transform="translate(-19.281 -79.118)" fill="#a0a8fb" stroke="rgba(0,0,0,0)" stroke-width="1" stroke-dasharray="2"/>
          <path id="Trazado_1053671" data-name="Trazado 1053671" d="M129.507,395.169a3.015,3.015,0,1,1-3.015,3.015,3.015,3.015,0,0,1,3.015-3.015" transform="translate(-25.325 -79.118)" fill="#a0a8fb" stroke="rgba(0,0,0,0)" stroke-width="1" stroke-dasharray="2"/>
          <path id="Trazado_1053672" data-name="Trazado 1053672" d="M159.7,395.169a3.015,3.015,0,1,1-3.015,3.015,3.015,3.015,0,0,1,3.015-3.015" transform="translate(-31.37 -79.118)" fill="#a0a8fb" stroke="rgba(0,0,0,0)" stroke-width="1" stroke-dasharray="2"/>
          <path id="Trazado_1053673" data-name="Trazado 1053673" d="M190.742,455.547a3.015,3.015,0,1,1-3.015,3.015,3.015,3.015,0,0,1,3.015-3.015" transform="translate(-37.585 -91.206)" fill="#a0a8fb" stroke="rgba(0,0,0,0)" stroke-width="1" stroke-dasharray="2"/>
          <path id="Trazado_1053674" data-name="Trazado 1053674" d="M220.931,455.547a3.015,3.015,0,1,1-3.015,3.015,3.015,3.015,0,0,1,3.015-3.015" transform="translate(-43.63 -91.206)" fill="#a0a8fb" stroke="rgba(0,0,0,0)" stroke-width="1" stroke-dasharray="2"/>
          <path id="Trazado_1053675" data-name="Trazado 1053675" d="M190.742,425.358a3.015,3.015,0,1,1-3.015,3.015,3.015,3.015,0,0,1,3.015-3.015" transform="translate(-37.585 -85.162)" fill="#a0a8fb" stroke="rgba(0,0,0,0)" stroke-width="1" stroke-dasharray="2"/>
          <path id="Trazado_1053676" data-name="Trazado 1053676" d="M220.931,425.358a3.015,3.015,0,1,1-3.015,3.015,3.015,3.015,0,0,1,3.015-3.015" transform="translate(-43.63 -85.162)" fill="#a0a8fb" stroke="rgba(0,0,0,0)" stroke-width="1" stroke-dasharray="2"/>
          <path id="Trazado_1053677" data-name="Trazado 1053677" d="M190.742,395.169a3.015,3.015,0,1,1-3.015,3.015,3.015,3.015,0,0,1,3.015-3.015" transform="translate(-37.585 -79.118)" fill="#a0a8fb" stroke="rgba(0,0,0,0)" stroke-width="1" stroke-dasharray="2"/>
          <path id="Trazado_1053678" data-name="Trazado 1053678" d="M220.931,395.169a3.015,3.015,0,1,1-3.015,3.015,3.015,3.015,0,0,1,3.015-3.015" transform="translate(-43.63 -79.118)" fill="#a0a8fb" stroke="rgba(0,0,0,0)" stroke-width="1" stroke-dasharray="2"/>
          <path id="Trazado_1053679" data-name="Trazado 1053679" d="M384.054,287.969c-5.335,19.259-13.117,38.078-24.5,54.585-11.037,16.02-25.641,29.9-43.5,37.958-16.908,7.63-36.366,10.461-54.577,6.358a66.271,66.271,0,0,1-25.113-11.4c-8.27-6.182-14.908-14.164-21-22.418-12.069-16.356-23.2-35.439-42.269-44.548-19.963-9.533-42-.824-62.767-5.535A38.775,38.775,0,0,1,88.309,289.12c-5.247-6.654-8.5-14.684-10.549-22.85a119.894,119.894,0,0,1-3.231-26.529,247.444,247.444,0,0,1,1.392-32.655,254.4,254.4,0,0,1,5.031-29.632q.708-4.5,1.624-8.966a186.512,186.512,0,0,1,21.93-57.9,164.021,164.021,0,0,1,36.75-43.228,136.236,136.236,0,0,1,51.01-26.529A144.121,144.121,0,0,1,253.921,38.4a153.477,153.477,0,0,1,57.5,22.61,170.911,170.911,0,0,1,42.333,39.685,188.535,188.535,0,0,1,27.7,51.466,210.87,210.87,0,0,1,11.6,67.182,245.077,245.077,0,0,1-9.006,68.63" transform="translate(-14.907 -7.243)" fill="#dce2fd" stroke="rgba(0,0,0,0)" stroke-width="1" stroke-dasharray="2"/>
          <path id="Trazado_1053680" data-name="Trazado 1053680" d="M87.892,153.78a30.812,30.812,0,1,1-38.411-20.574A30.818,30.818,0,0,1,87.892,153.78" transform="translate(-5.522 -26.404)" fill="#e8a03f" stroke="rgba(0,0,0,0)" stroke-width="1" stroke-dasharray="2"/>
          <path id="Trazado_1053681" data-name="Trazado 1053681" d="M84.26,156.555a25.672,25.672,0,1,1-32-17.142,25.7,25.7,0,0,1,32,17.142" transform="translate(-6.81 -27.692)" fill="#ecb45e" stroke="rgba(0,0,0,0)" stroke-width="1" stroke-dasharray="2"/>
          <path id="Trazado_1053682" data-name="Trazado 1053682" d="M70.92,180.262l1.572,5.2-6.606,2-1.5-4.967c-4.771,1.134-9.7,1.246-13.036.361l1.125-9.135a23.506,23.506,0,0,0,11.73-.274c3.14-.949,4.065-1.946,3.725-3.071-1.248-4.124-18.374,4.686-22.072-7.542-1.6-5.3.893-10.911,8.252-14.311l-1.544-5.108,6.606-2,1.516,5.013a25.571,25.571,0,0,1,10.335-.156l-.9,9.018a21.138,21.138,0,0,0-9.873.325c-3.234.978-3.98,2.228-3.64,3.354,1.19,3.934,18.331-4.828,21.987,7.26,1.529,5.059-.793,10.572-7.672,14.035" transform="translate(-9.088 -28.313)" fill="#e8a03f" stroke="rgba(0,0,0,0)" stroke-width="1" stroke-dasharray="2"/>
          <path id="Trazado_1053683" data-name="Trazado 1053683" d="M42.145,127.06q-4.512-8.61-9.026-17.22c-.477-.912-1.859-.1-1.38.808l9.025,17.219c.478.913,1.86.1,1.381-.807" transform="translate(-6.335 -21.911)" fill="#222a40" stroke="rgba(0,0,0,0)" stroke-width="1" stroke-dasharray="2"/>
          <path id="Trazado_1053684" data-name="Trazado 1053684" d="M32.066,134.288l-12.289-7.531c-.881-.54-1.684.844-.808,1.381l12.29,7.531c.88.539,1.684-.844.807-1.381" transform="translate(-3.722 -25.354)" fill="#222a40" stroke="rgba(0,0,0,0)" stroke-width="1" stroke-dasharray="2"/>
          <path id="Trazado_1053685" data-name="Trazado 1053685" d="M54.775,106.43c-.111-1.011-1.712-1.024-1.6,0l1.687,15.327c.112,1.013,1.712,1.024,1.6,0L54.775,106.43" transform="translate(-10.645 -21.156)" fill="#222a40" stroke="rgba(0,0,0,0)" stroke-width="1" stroke-dasharray="2"/>
          <path id="Trazado_1053686" data-name="Trazado 1053686" d="M401.913,89.755c0,17.3-17.06,31.333-38.111,31.333q-1.665,0-3.291-.12a10.118,10.118,0,0,0-6.25,1.706c-7.9,5.167-18.038,5.854-18.038,5.854.079-.053.146-.106.225-.159a10.33,10.33,0,0,0,.383-16.492c-6.885-5.655-11.14-13.48-11.14-22.122,0-17.311,17.06-31.332,38.112-31.332s38.111,14.021,38.111,31.332" transform="translate(-65.207 -11.697)" fill="#a0a8fb" stroke="rgba(0,0,0,0)" stroke-width="1" stroke-dasharray="2"/>
          <path id="Trazado_1053687" data-name="Trazado 1053687" d="M379.1,84.081a23.1,23.1,0,1,1-28.793-15.422A23.1,23.1,0,0,1,379.1,84.081" transform="translate(-66.849 -13.547)" fill="#e8a03f" stroke="rgba(0,0,0,0)" stroke-width="1" stroke-dasharray="2"/>
          <path id="Trazado_1053688" data-name="Trazado 1053688" d="M376.379,86.162a19.244,19.244,0,1,1-23.99-12.849,19.262,19.262,0,0,1,23.99,12.849" transform="translate(-67.815 -14.513)" fill="#ecb45e" stroke="rgba(0,0,0,0)" stroke-width="1" stroke-dasharray="2"/>
          <path id="Trazado_1053689" data-name="Trazado 1053689" d="M366.379,103.933l1.179,3.9-4.952,1.5-1.126-3.723a21.594,21.594,0,0,1-9.772.27l.844-6.848a17.622,17.622,0,0,0,8.794-.206c2.354-.712,3.047-1.458,2.792-2.3-.935-3.092-13.773,3.513-16.545-5.654-1.2-3.969.67-8.179,6.186-10.727L352.62,76.31l4.952-1.5,1.137,3.758a19.164,19.164,0,0,1,7.747-.117l-.677,6.76a15.845,15.845,0,0,0-7.4.244c-2.424.733-2.983,1.67-2.728,2.514.892,2.949,13.741-3.619,16.481,5.442,1.147,3.793-.594,7.924-5.751,10.52" transform="translate(-69.523 -14.978)" fill="#e8a03f" stroke="rgba(0,0,0,0)" stroke-width="1" stroke-dasharray="2"/>
          <path id="Trazado_1053690" data-name="Trazado 1053690" d="M383.189,118.268l-13.21-13.209,6.133-6.132L383.189,106l18.553-18.552,6.133,6.133Z" transform="translate(-74.075 -17.509)" fill="#5b39a6" stroke="rgba(0,0,0,0)" stroke-width="1" stroke-dasharray="2"/>
          <path id="Trazado_1053691" data-name="Trazado 1053691" d="M95.453,86.578c3.933,18.93,25.794,30.409,48.831,25.622q1.821-.379,3.573-.878a11.311,11.311,0,0,1,7.228.444c9.823,3.857,21.071,2.3,21.071,2.3-.1-.04-.183-.082-.282-.122-7.067-3.012-8.988-11.966-4.169-17.961,6.249-7.755,9.126-17.283,7.161-26.741-3.937-18.945-25.794-30.409-48.831-25.622S91.516,67.634,95.453,86.578" transform="translate(-18.988 -8.517)" fill="#a0a8fb" stroke="rgba(0,0,0,0)" stroke-width="1" stroke-dasharray="2"/>
          <path id="Trazado_1053692" data-name="Trazado 1053692" d="M167.183,64.9l-4.724,15.491-3.609-3.865-16.288,15.2L136,84.694,124.529,95.409l-5.321-5.7-7.836,7.306-3.534-3.785,11.621-10.841,5.32,5.7,11.475-10.7,6.557,7.021,12.5-11.665-3.909-4.186Z" transform="translate(-21.591 -12.994)" fill="#5b39a6" stroke="rgba(0,0,0,0)" stroke-width="1" stroke-dasharray="2"/>
          <path id="Trazado_1053693" data-name="Trazado 1053693" d="M91.809,223.7l11.554,10.1c-4.649,2.428-14.989,8.483-19.1,16.064l-5.326-10.721-15.11-7.962s-20.609-5.517-21.771-6.505c-1.162-1.006-7.807-9.42-7.807-9.42l-10.825-8.83c4.858-4.3,9.142-.972,9.142-.972a6.077,6.077,0,0,1,4.58-.8c2.5.642,10.045,6.593,10.045,6.593l21.633,5.62L56.767,206.181a4.737,4.737,0,0,1,6.176-2.567s21.51,7.876,23.714,10.686c2.22,2.81,5.152,9.4,5.152,9.4" transform="translate(-4.69 -40.697)" fill="#e48c59" stroke="rgba(0,0,0,0)" stroke-width="1" stroke-dasharray="2"/>
          <path id="Trazado_1053694" data-name="Trazado 1053694" d="M58.039,222.7a.592.592,0,0,1-.21-.038l-12.9-4.822a.59.59,0,0,1-.135-.071c-.4-.28-9.766-6.865-10.828-7.744a10.671,10.671,0,0,1-1.931-2.189.6.6,0,0,1,.041-.7l1.808-2.214a.6.6,0,1,1,.929.758l-1.52,1.863a9.178,9.178,0,0,0,1.439,1.56c.981.813,9.852,7.053,10.69,7.643l12.829,4.8a.6.6,0,0,1-.21,1.161" transform="translate(-6.395 -40.984)" fill="#222a40" stroke="rgba(0,0,0,0)" stroke-width="1" stroke-dasharray="2"/>
          <path id="Trazado_1053695" data-name="Trazado 1053695" d="M55.9,228.834a.6.6,0,0,1-.227-.045c-.362-.148-8.893-3.645-10.511-4.622-1.6-.969-8.326-5.918-8.611-6.128a.6.6,0,1,1,.711-.965c.07.05,6.965,5.127,8.52,6.066,1.54.929,10.258,4.5,10.346,4.54a.6.6,0,0,1-.228,1.155" transform="translate(-7.269 -43.437)" fill="#222a40" stroke="rgba(0,0,0,0)" stroke-width="1" stroke-dasharray="2"/>
          <path id="Trazado_1053696" data-name="Trazado 1053696" d="M128.251,244.733q-7.39.728-14.746,1.509a70.453,70.453,0,0,1,6.783-4.18c1.579-.157,3.175-.33,4.771-.469Z" transform="translate(-22.725 -48.37)" fill="#a0a8fb" stroke="rgba(0,0,0,0)" stroke-width="1" stroke-dasharray="2"/>
          <path id="Trazado_1053697" data-name="Trazado 1053697" d="M256.226,200.143l-1.18,3.244-.382-3.158c.521-.017,1.041-.052,1.561-.086" transform="translate(-50.987 -40.071)" fill="#7f85fa" stroke="rgba(0,0,0,0)" stroke-width="1" stroke-dasharray="2"/>
          <path id="Trazado_1053698" data-name="Trazado 1053698" d="M332.981,235.373l-27.721-2.411-2.186,14.693-.521,3.5-4.77,32.249-.538,3.539-1.977,13.375h-.018v.034l-1.8,12.178,1.718,18.006.329,3.469,1.318,13.965s-.868.451-2.463,1.214c-9.125,4.406-41.963,19.238-69.39,19.03-25.189-.191-46.716-14.954-54.87-21.355-2.255-1.787-3.486-2.914-3.486-2.914l1.336-8.986.521-3.435,2.012-13.461s-15.439.815-22.032-7.061c-.659-.8-1.717-2.116-3.053-3.834-.729-.919-1.544-1.977-2.446-3.14-7.651-9.888-20.766-27.235-30.861-40.645-.85-1.145-1.683-2.238-2.5-3.313-6.731-8.952-11.6-15.457-11.6-15.457a15.687,15.687,0,0,1,1.214-2.862c2.394-4.424,6.921-8.344,11.207-11.293a70.379,70.379,0,0,1,6.783-4.181c.4-.208.763-.416,1.11-.589,1.44-.763,2.342-1.18,2.342-1.18l1.318,1.3,3.192,3.14,27.479,27.062s3.035-14.485,6.783-30.323c.26-1.18.555-2.359.833-3.539,1.925-8.015,3.989-16.116,5.915-22.656.364-1.249.711-2.429,1.058-3.539,1.631-5.187,3.1-8.917,4.216-10.027,5.308-5.308,36.222-12.768,36.222-12.768-1.752,6.505,6.678,19.759,6.678,19.759,1.128-6.089,7.3-13.9,7.3-13.9l1.665,13.722.382,3.158,1.18-3.244,4.129-11.38s2.931,3.5,5.083,10.86c.312,1.058.607,2.186.867,3.417a2,2,0,0,1,.087.347s.278-.139.763-.4c1.2-.607,3.713-1.96,6.869-3.851,8.865-5.343,22.743-15.041,26.074-25.137a24.23,24.23,0,0,0-1.527-3.609c4.979-.85,10.564,2.914,10.564,2.914s17.972,10.426,37.4,21.685c1.822,1.041,3.643,2.1,5.465,3.157,13.34,7.7,26.628,15.388,34.643,19.95,2.515,1.44,4.51,2.585,5.829,3.314.312.174.589.33.815.451Z" transform="translate(-19.616 -32.592)" fill="#7f85fa" stroke="rgba(0,0,0,0)" stroke-width="1" stroke-dasharray="2"/>
          <path id="Trazado_1053699" data-name="Trazado 1053699" d="M306.942,395.271l16.445,82.7H239.009L234.221,463.5,230.8,477.967H160.876l21.806-85.02c8.153,6.4,29.681,21.163,54.869,21.354,27.427.208,60.266-14.624,69.39-19.03" transform="translate(-32.209 -78.673)" fill="#222a40" stroke="rgba(0,0,0,0)" stroke-width="1" stroke-dasharray="2"/>
          <path id="Trazado_1053700" data-name="Trazado 1053700" d="M300,160.321a24.23,24.23,0,0,1,1.527,3.609c-5,15.144-33.706,29.387-33.706,29.387-2.1-9.923-6.037-14.624-6.037-14.624,17.434-11.172,24.911-22.344,24.911-22.344l-.781-6.505c7.546.087,11.987,6.332,14.086,10.478" transform="translate(-52.412 -30)" fill="#a0a8fb" stroke="rgba(0,0,0,0)" stroke-width="1" stroke-dasharray="2"/>
          <path id="Trazado_1053701" data-name="Trazado 1053701" d="M274.045,125c-5.308,12.438-17.8,17.261-20.314,18.667-1.718.937-6.939,1.735-11.762,1.838-.347.018-.694.018-1.041.018-3.349,0-6.35-.364-7.616-1.3-3.21-2.326-8.969-16.064-10.669-24.166-1.422-6.782-.919-27.513-.729-34,8.709,4.667,22.621-7.684,22.621-7.684s-6.332,8.448-1.683,8.812,22.066-8.812,22.066-8.812c0,10.494,8.552,17.52,8.552,17.52.729-2.2,5.17-4.25,5.17-4.25a8.435,8.435,0,0,1,3.418-.052,9.145,9.145,0,0,1,4.927,3.037,10.4,10.4,0,0,1,1.092,1.544,12.833,12.833,0,0,1,1.457,7.476,15.428,15.428,0,0,1-5.013,9.853,15.143,15.143,0,0,1-8.379,3.765c-.07.538-.157,1.058-.261,1.579A28.337,28.337,0,0,1,274.045,125" transform="translate(-44.382 -15.692)" fill="#e48c59" stroke="rgba(0,0,0,0)" stroke-width="1" stroke-dasharray="2"/>
          <path id="Trazado_1053702" data-name="Trazado 1053702" d="M282.7,145.665l.781,6.505S276,163.342,258.57,174.514l-5.308,14.623-2.047-16.879s-4.232-3.435-5.464-6.35c31.728.122,33.082-29.612,33.117-30.774a28.4,28.4,0,0,0,1.839-6.158Z" transform="translate(-49.202 -25.823)" fill="#e48c59" stroke="rgba(0,0,0,0)" stroke-width="1" stroke-dasharray="2"/>
          <path id="Trazado_1053703" data-name="Trazado 1053703" d="M258.552,155.343c2.515-1.405,15.006-6.228,20.314-18.666-.034,1.163-1.388,30.9-33.116,30.775l1.041-10.27c4.823-.1,10.045-.9,11.762-1.839" transform="translate(-49.202 -27.364)" fill="#222a40" stroke="rgba(0,0,0,0)" stroke-width="1" stroke-dasharray="2"/>
          <path id="Trazado_1053704" data-name="Trazado 1053704" d="M243.558,172.585c1.232,2.914,5.464,6.35,5.464,6.35s-6.175,7.806-7.3,13.895c0,0-8.431-13.253-6.679-19.759a13.373,13.373,0,0,1,8.518-10.252v-.486c.347,0,.694,0,1.041-.018Z" transform="translate(-47.01 -32.498)" fill="#a0a8fb" stroke="rgba(0,0,0,0)" stroke-width="1" stroke-dasharray="2"/>
          <path id="Trazado_1053705" data-name="Trazado 1053705" d="M283.925,87.53A9.151,9.151,0,0,0,279,84.494a8.406,8.406,0,0,0-3.417.052s-4.441,2.047-5.169,4.25c0,0-8.553-7.025-8.553-17.521,0,0-17.417,9.177-22.066,8.813s1.683-8.813,1.683-8.813-13.912,12.352-22.621,7.685c-2.081-1.128-3.885-3.226-5.1-6.713,0,0-8.57-14.832-7.234-20.262,1.284-5.308,17.174,1.475,17.9,1.787-.122-.485-2.082-7.7-.5-9.992,1.648-2.343,11.415,3.087,14.555,2.654.589-.086,1.735-.3,3.226-.573,6.453-1.232,19.585-3.781,23.888-2.671,5.308,1.388,6.28,10.478,6.28,10.478s10.668,1.093,13.01,5.673c2.359,4.58-.954,28.189-.954,28.189" transform="translate(-41.32 -8.592)" fill="#222a40" stroke="rgba(0,0,0,0)" stroke-width="1" stroke-dasharray="2"/>
          <path id="Trazado_1053706" data-name="Trazado 1053706" d="M337.7,196.858,252.85,201.7l-.85.053c-.486.034-.972.052-1.457.086q-4.892.287-9.784.555-28.78,1.665-57.542,3.3c.365-1.248.712-2.428,1.058-3.539l28.294-1.613c6.28-.364,12.56-.711,18.84-1.075l8.951-.521.382,3.158,1.18-3.244,9.211-.521c2.862-.157,5.725-.33,8.587-.486l40-2.29q16.264-.911,32.51-1.856c1.821,1.041,3.643,2.1,5.464,3.158" transform="translate(-36.682 -38.781)" fill="#a0a8fb" stroke="rgba(0,0,0,0)" stroke-width="1" stroke-dasharray="2"/>
          <path id="Trazado_1053707" data-name="Trazado 1053707" d="M376.479,225.906q-19,.494-37.956,1.232c-6.228.243-12.421.5-18.649.8h-.017q-50.872,2.237-101.622,6.123-21.754,1.64-43.456,3.609c.26-1.18.555-2.359.833-3.539q55.165-4.944,110.469-8,42.259-2.315,84.569-3.539c2.515,1.44,4.511,2.585,5.829,3.314" transform="translate(-34.993 -44.566)" fill="#a0a8fb" stroke="rgba(0,0,0,0)" stroke-width="1" stroke-dasharray="2"/>
          <path id="Trazado_1053708" data-name="Trazado 1053708" d="M291.929,269.8c4.683-.3,9.367-.607,14.051-.9l-.521,3.5q-40.489,2.6-80.943,5.187-54.774,3.539-109.532,7.043c-.85-1.145-1.683-2.238-2.5-3.314l43.126-2.758,16.185-1.041q60.057-3.877,120.131-7.72" transform="translate(-22.521 -53.837)" fill="#a0a8fb" stroke="rgba(0,0,0,0)" stroke-width="1" stroke-dasharray="2"/>
          <path id="Trazado_1053709" data-name="Trazado 1053709" d="M289.662,316.189c6.453-.868,12.924-1.717,19.377-2.585l-.538,3.539-83.215,11.085q-34.322,4.579-68.644,9.142c-.729-.92-1.544-1.978-2.446-3.14q10.669-1.431,21.32-2.845,57.064-7.6,114.146-15.2" transform="translate(-30.872 -62.788)" fill="#a0a8fb" stroke="rgba(0,0,0,0)" stroke-width="1" stroke-dasharray="2"/>
          <path id="Trazado_1053710" data-name="Trazado 1053710" d="M313.007,376.005q-63.752,1.952-127.556.954l.521-3.435q7.26.1,14.485.174,56.128.572,112.221-1.162Z" transform="translate(-37.13 -74.587)" fill="#a0a8fb" stroke="rgba(0,0,0,0)" stroke-width="1" stroke-dasharray="2"/>
          <path id="Trazado_1053711" data-name="Trazado 1053711" d="M239.748,100.278a33.122,33.122,0,0,1,2.058,11.773c-.114,6.448-3.9,10.436-6.01,10.047s-5.994-3.317-5.63-6.648a13.8,13.8,0,0,1,2.5-4c1.65-1.762,7.083-11.17,7.083-11.17" transform="translate(-46.077 -20.077)" fill="#e07045" stroke="rgba(0,0,0,0)" stroke-width="1" stroke-dasharray="2"/>
          <path id="Trazado_1053712" data-name="Trazado 1053712" d="M238.159,123.179a.61.61,0,0,1-.2-.034,18.073,18.073,0,0,1-7.688-5.336,4.059,4.059,0,0,1,.037-5.145,86.811,86.811,0,0,0,9.8-15.34.6.6,0,1,1,1.073.536,87.865,87.865,0,0,1-9.933,15.552,2.858,2.858,0,0,0-.059,3.621,16.85,16.85,0,0,0,7.176,4.982.6.6,0,0,1-.2,1.165" transform="translate(-45.923 -19.419)" fill="#222a40" stroke="rgba(0,0,0,0)" stroke-width="1" stroke-dasharray="2"/>
          <path id="Trazado_1053713" data-name="Trazado 1053713" d="M254.086,101.285a3.845,3.845,0,1,0,3.478-4.643,4.123,4.123,0,0,0-3.478,4.643" transform="translate(-50.868 -19.347)" fill="#222a40" stroke="rgba(0,0,0,0)" stroke-width="1" stroke-dasharray="2"/>
          <path id="Trazado_1053714" data-name="Trazado 1053714" d="M224.211,103.474a3.844,3.844,0,1,0,3.478-4.643,4.121,4.121,0,0,0-3.478,4.643" transform="translate(-44.887 -19.785)" fill="#222a40" stroke="rgba(0,0,0,0)" stroke-width="1" stroke-dasharray="2"/>
          <path id="Trazado_1053715" data-name="Trazado 1053715" d="M254.894,85.286a27.3,27.3,0,0,1,9.56,1.822,2.526,2.526,0,0,1,1.26,1.411,2.57,2.57,0,0,1-.11,1.947,2.538,2.538,0,0,1-1.412,1.259,2.836,2.836,0,0,1-1.947-.111c-.166-.063-.334-.12-.5-.181a24.054,24.054,0,0,0-5.77-1.119c-.238-.01-.475-.022-.713-.024a2.685,2.685,0,0,1-1.823-.6,2.51,2.51,0,0,1,1.457-4.4" transform="translate(-50.569 -17.075)" fill="#222a40" stroke="rgba(0,0,0,0)" stroke-width="1" stroke-dasharray="2"/>
          <path id="Trazado_1053716" data-name="Trazado 1053716" d="M220.484,93.626a2.532,2.532,0,0,0,1.58,1.041,2.84,2.84,0,0,0,1.91-.394c.155-.087.313-.168.469-.252a24.091,24.091,0,0,1,5.546-1.948c.234-.043.467-.09.7-.127a2.685,2.685,0,0,0,1.716-.863,2.509,2.509,0,0,0-2.082-4.141,27.293,27.293,0,0,0-9.194,3.2" transform="translate(-44.144 -17.402)" fill="#222a40" stroke="rgba(0,0,0,0)" stroke-width="1" stroke-dasharray="2"/>
          <path id="Trazado_1053717" data-name="Trazado 1053717" d="M235.311,138.055c1.563,2.451,5.377,6.776,12.174,5.121,6.206-1.486,7.332-7.405,7.462-10.433a1.353,1.353,0,0,0-1.712-1.384l-17.115,4.7a1.334,1.334,0,0,0-.809,2" transform="translate(-47.071 -26.29)" fill="#fff" stroke="rgba(0,0,0,0)" stroke-width="1" stroke-dasharray="2"/>
          <path id="Trazado_1053718" data-name="Trazado 1053718" d="M291.373,117.233h-.011a.6.6,0,0,1-.589-.61,20.362,20.362,0,0,1,6.617-14.516.6.6,0,1,1,.8.892,19.138,19.138,0,0,0-6.22,13.645.6.6,0,0,1-.6.589" transform="translate(-58.216 -20.412)" fill="#222a40" stroke="rgba(0,0,0,0)" stroke-width="1" stroke-dasharray="2"/>
          <path id="Trazado_1053719" data-name="Trazado 1053719" d="M290.377,51.9a.6.6,0,0,1-.6-.565,27.418,27.418,0,0,0-2.183-9.219.6.6,0,0,1,1.1-.473,28.634,28.634,0,0,1,2.279,9.621.6.6,0,0,1-.563.634l-.037,0" transform="translate(-57.571 -8.264)" fill="#222a40" stroke="rgba(0,0,0,0)" stroke-width="1" stroke-dasharray="2"/>
          <path id="Trazado_1053720" data-name="Trazado 1053720" d="M293.641,50.747l-.059,0a.6.6,0,0,1-.538-.656,24.77,24.77,0,0,0-.608-8.372.6.6,0,0,1,1.165-.288,25.977,25.977,0,0,1,.636,8.777.6.6,0,0,1-.6.541" transform="translate(-58.546 -8.203)" fill="#222a40" stroke="rgba(0,0,0,0)" stroke-width="1" stroke-dasharray="2"/>
          <path id="Trazado_1053721" data-name="Trazado 1053721" d="M341.847,480.406a.6.6,0,0,1-.589-.489l-14.343-77.071a.6.6,0,1,1,1.18-.22l14.342,77.07a.6.6,0,0,1-.479.7.587.587,0,0,1-.111.01" transform="translate(-65.451 -80.513)" fill="#0f1626" stroke="rgba(0,0,0,0)" stroke-width="1" stroke-dasharray="2"/>
          <path id="Trazado_1053722" data-name="Trazado 1053722" d="M346.436,239.288a.6.6,0,0,1-.461-.216L323.47,212.067a.6.6,0,0,1,.922-.768L346.9,238.3a.6.6,0,0,1-.461.984" transform="translate(-64.735 -42.261)" fill="#222a40" stroke="rgba(0,0,0,0)" stroke-width="1" stroke-dasharray="2"/>
          <path id="Trazado_1053723" data-name="Trazado 1053723" d="M343.5,246.607a.6.6,0,0,1-.366-.125l-18.969-14.628a.6.6,0,1,1,.733-.95l18.969,14.628a.6.6,0,0,1-.367,1.075" transform="translate(-64.856 -46.205)" fill="#222a40" stroke="rgba(0,0,0,0)" stroke-width="1" stroke-dasharray="2"/>
          <path id="Trazado_1053724" data-name="Trazado 1053724" d="M219.355,78.6a.6.6,0,0,1-.277-.067,29.836,29.836,0,0,1-15.662-22.7c-.194-1.66-.288-4.063,1.148-5.744a5.567,5.567,0,0,1,3.974-1.788,12.361,12.361,0,0,1,4.126.645,39.2,39.2,0,0,1,12.384,6.208.6.6,0,1,1-.718.961A37.992,37.992,0,0,0,212.324,50.1a11.372,11.372,0,0,0-3.724-.6,4.378,4.378,0,0,0-3.125,1.368c-1.129,1.325-1.036,3.389-.867,4.826A28.618,28.618,0,0,0,219.632,77.47a.6.6,0,0,1-.278,1.132" transform="translate(-40.705 -9.668)" fill="#222a40" stroke="rgba(0,0,0,0)" stroke-width="1" stroke-dasharray="2"/>
          <path id="Trazado_1053725" data-name="Trazado 1053725" d="M229.978,55.968a.6.6,0,0,1-.468-.224,24.741,24.741,0,0,1-4.824-10.016c-.6-2.679-.158-4.747,1.248-5.821,1.582-1.206,3.717-.733,5.186-.271A32.161,32.161,0,0,1,243.065,46.5a.6.6,0,1,1-.808.886,30.968,30.968,0,0,0-11.5-6.609c-1.931-.607-3.232-.581-4.1.08-1.367,1.044-1.092,3.333-.805,4.6a23.533,23.533,0,0,0,4.588,9.527.6.6,0,0,1-.467.976" transform="translate(-44.932 -7.837)" fill="#222a40" stroke="rgba(0,0,0,0)" stroke-width="1" stroke-dasharray="2"/>
          <path id="Trazado_1053726" data-name="Trazado 1053726" d="M240.471,471.589a.6.6,0,0,1-.575-.429l-7.512-25.27-39.9-14.364a.6.6,0,0,1,.406-1.129l40.186,14.467a.6.6,0,0,1,.372.393l7.6,25.56a.6.6,0,0,1-.4.746.607.607,0,0,1-.171.025" transform="translate(-38.458 -86.164)" fill="#0f1626" stroke="rgba(0,0,0,0)" stroke-width="1" stroke-dasharray="2"/>
          <path id="Trazado_1053727" data-name="Trazado 1053727" d="M229.216,452.918h-.023c-32.035-1.211-32.408-1.391-32.549-1.46a.6.6,0,0,1,.417-1.12c1.1.163,19.8.913,32.178,1.381a.6.6,0,0,1-.022,1.2" transform="translate(-39.303 -90.159)" fill="#0f1626" stroke="rgba(0,0,0,0)" stroke-width="1" stroke-dasharray="2"/>
          <path id="Trazado_1053728" data-name="Trazado 1053728" d="M402.953,306.42a36.764,36.764,0,0,1-12.31,20.655l-3.846-6.21a31.051,31.051,0,0,0-19.576,7.19l1.2,7.768a56.071,56.071,0,0,1-12.966-.259c-1.27-.154-2.579-.37-3.876-.622-.735-.158-1.485-.3-2.239-.473l-9.176-2.1-4.008-.927q.711-.4,1.324-.788a3.427,3.427,0,0,0,.716-.525,6.558,6.558,0,0,0,1.384-8.518l-2.647-4.292-3.528-5.707a31.119,31.119,0,0,0-19.572,7.223l1.088,7.027a52.209,52.209,0,0,1-12.218-6.655,38.5,38.5,0,0,1-13.66-17.458,36.246,36.246,0,0,1-1.849-17.866c.187-1.273.424-2.551.724-3.869a46.114,46.114,0,0,1,14.626-24.32,46.069,46.069,0,0,1,5.811-4.308,44.983,44.983,0,0,1,6.01-3.174,45.657,45.657,0,0,1,28.677-2.722l25.374,5.825a46.122,46.122,0,0,1,34.539,55.106" transform="translate(-57.424 -48.917)" fill="#a0a8fb" stroke="rgba(0,0,0,0)" stroke-width="1" stroke-dasharray="2"/>
          <path id="Trazado_1053729" data-name="Trazado 1053729" d="M413.092,350.018a6.58,6.58,0,0,1-2.107,9.038,39.769,39.769,0,0,1-14.368,5.508,6.562,6.562,0,0,1-7.451-5.531l-.623-4.051-1.188-7.763a31.089,31.089,0,0,1,19.568-7.2l3.845,6.223Z" transform="translate(-77.553 -68.076)" fill="#5b39a6" stroke="rgba(0,0,0,0)" stroke-width="1" stroke-dasharray="2"/>
          <path id="Trazado_1053730" data-name="Trazado 1053730" d="M427.452,270.233a11.845,11.845,0,0,1-3.022,5.808A45.273,45.273,0,0,0,420.2,270a9.3,9.3,0,0,0,6.9-9.712,24.531,24.531,0,0,1,.347,9.942" transform="translate(-84.13 -52.114)" fill="#7c72fa" stroke="rgba(0,0,0,0)" stroke-width="1" stroke-dasharray="2"/>
          <path id="Trazado_1053731" data-name="Trazado 1053731" d="M387.654,256.192l-.434,1.926-3.73-.85-5.863-1.353-18.319-4.2-5.829-1.336-4.007-.92.433-1.925,2.255.52,4.944,1.128,23.627,5.413,4.927,1.144Z" transform="translate(-69.969 -49.56)" fill="#222a40" stroke="rgba(0,0,0,0)" stroke-width="1" stroke-dasharray="2"/>
          <path id="Trazado_1053732" data-name="Trazado 1053732" d="M364.939,356.986c1.292.246,2.591.458,3.869.614-2.271,2.534-6.893,3.641-9.629,1.733a36.223,36.223,0,0,1-5.659-4.933l9.175,2.105c.745.171,1.495.326,2.244.481" transform="translate(-70.779 -70.955)" fill="#7c72fa" stroke="rgba(0,0,0,0)" stroke-width="1" stroke-dasharray="2"/>
          <path id="Trazado_1053733" data-name="Trazado 1053733" d="M368.951,256.546s-.473,9.5-2.82,12.287c-2.334,2.809-10.139.984-10.139.984l-5.075-7.478s1.844-8.858,4.272-8.95c2.439-.071,13.762,3.158,13.762,3.158" transform="translate(-70.258 -50.731)" fill="#5b39a6" stroke="rgba(0,0,0,0)" stroke-width="1" stroke-dasharray="2"/>
          <path id="Trazado_1053734" data-name="Trazado 1053734" d="M346.341,338.458a6.572,6.572,0,0,1-1.376,8.523,5.4,5.4,0,0,1-.716.518c-.418.262-.853.521-1.324.788A38.855,38.855,0,0,1,329.866,353a6.54,6.54,0,0,1-7.438-5.511l-.73-4.775-.016,0-1.081-7.039a31.071,31.071,0,0,1,19.572-7.215l3.52,5.7Z" transform="translate(-64.188 -65.762)" fill="#5b39a6" stroke="rgba(0,0,0,0)" stroke-width="1" stroke-dasharray="2"/>
          <path id="Trazado_1053735" data-name="Trazado 1053735" d="M342.17,270.74c2.091.48,3.271,3.071,2.65,5.778s-2.809,4.508-4.9,4.029-3.275-3.055-2.654-5.762,2.812-4.525,4.9-4.045" transform="translate(-67.492 -54.19)" fill="#222a40" stroke="rgba(0,0,0,0)" stroke-width="1" stroke-dasharray="2"/>
          <path id="Trazado_1053736" data-name="Trazado 1053736" d="M325.645,296.563c-.046.348-.107.692-.173,1.053-1.9,8.283-10.412,8.566-20.3,6.3-9.6-2.2-16.952-5.988-15.683-13.751.039-.247.1-.506.158-.765,1.454-6.338,6.027-12.882,12.554-14.559a6.827,6.827,0,0,1,.848-.2,13.477,13.477,0,0,1,5.6.141c9.433,2.165,17.912,13.478,17,21.681a.2.2,0,0,1-.006.1m-12.81-.687c1.556.358,3.326-1.557,3.948-4.264.617-2.69-.142-5.185-1.7-5.543s-3.326,1.558-3.944,4.248c-.621,2.707.138,5.2,1.694,5.559m-11.722-7.808c.621-2.707-.122-5.2-1.677-5.555s-3.326,1.558-3.948,4.264.142,5.186,1.7,5.543,3.306-1.544,3.928-4.252" transform="translate(-57.931 -54.941)" fill="#5b39a6" stroke="rgba(0,0,0,0)" stroke-width="1" stroke-dasharray="2"/>
          <path id="Trazado_1053737" data-name="Trazado 1053737" d="M322.185,294.519c-.621,2.707-2.392,4.621-3.948,4.264s-2.315-2.852-1.693-5.559c.617-2.691,2.387-4.605,3.944-4.248s2.314,2.851,1.7,5.543" transform="translate(-63.333 -57.848)" fill="#222a40" stroke="rgba(0,0,0,0)" stroke-width="1" stroke-dasharray="2"/>
          <path id="Trazado_1053738" data-name="Trazado 1053738" d="M300.413,333.585l-4.4,6.38A6.574,6.574,0,0,1,286.9,341.7a39.81,39.81,0,0,1-10.527-11.237,6.544,6.544,0,0,1,2.039-9.036l8.333-5.306a38.592,38.592,0,0,0,13.669,17.468" transform="translate(-55.129 -63.291)" fill="#5b39a6" stroke="rgba(0,0,0,0)" stroke-width="1" stroke-dasharray="2"/>
          <path id="Trazado_1053739" data-name="Trazado 1053739" d="M316.13,240.3c1.891.98,1,5.367.751,6.469a46.61,46.61,0,0,0-11.82,7.492l-.285-.321c-.081-.019-4.356-1.017-5.227-4.51-.876-3.545,2.819-12.287,2.819-12.287s11.614,2.033,13.762,3.158" transform="translate(-59.947 -47.479)" fill="#5b39a6" stroke="rgba(0,0,0,0)" stroke-width="1" stroke-dasharray="2"/>
          <path id="Trazado_1053740" data-name="Trazado 1053740" d="M309.62,268.424a6.25,6.25,0,0,1-.7,1.768c-1.912,1.268-3.361,2.079-3.361,2.079a6.647,6.647,0,0,0-.847.2c-2.091-.48-3.271-3.071-2.65-5.778a6,6,0,0,1,1.573-2.915,3.611,3.611,0,0,1,3.327-1.113c2.091.479,3.274,3.054,2.654,5.762" transform="translate(-60.444 -52.573)" fill="#222a40" stroke="rgba(0,0,0,0)" stroke-width="1" stroke-dasharray="2"/>
          <path id="Trazado_1053741" data-name="Trazado 1053741" d="M300.919,284.529c1.556.357,2.3,2.848,1.676,5.555s-2.371,4.609-3.927,4.252-2.318-2.835-1.7-5.543,2.391-4.621,3.948-4.264" transform="translate(-59.414 -56.958)" fill="#222a40" stroke="rgba(0,0,0,0)" stroke-width="1" stroke-dasharray="2"/>
          <path id="Trazado_1053742" data-name="Trazado 1053742" d="M328.933,295.3a.479.479,0,0,1-.067,0,.6.6,0,0,1-.529-.662c.905-8.168-7.6-18.977-16.542-21.03a13.183,13.183,0,0,0-3.892-.323,12.713,12.713,0,0,0-1.465.187.6.6,0,0,1-.382-1.123c2.207-1.141,8.2-4.522,9.4-6.444a.6.6,0,0,1,1.018.636c-1.061,1.7-4.825,4.051-7.388,5.517a14.921,14.921,0,0,1,2.982.38c9.45,2.168,18.428,13.648,17.465,22.332a.6.6,0,0,1-.6.533" transform="translate(-61.211 -53.181)" fill="#222a40" stroke="rgba(0,0,0,0)" stroke-width="1" stroke-dasharray="2"/>
          <path id="Trazado_1053743" data-name="Trazado 1053743" d="M423,323.353a.6.6,0,0,1-.493-.941,33.233,33.233,0,0,0,.154-37.571.6.6,0,0,1,.992-.675,34.434,34.434,0,0,1-.159,38.929.6.6,0,0,1-.494.258" transform="translate(-84.57 -56.841)" fill="#222a40" stroke="rgba(0,0,0,0)" stroke-width="1" stroke-dasharray="2"/>
          <path id="Trazado_1053744" data-name="Trazado 1053744" d="M354.926,264.708H354.9a.6.6,0,0,1-.577-.621c.1-2.691,2.443-4.686,4.7-5.266a11.2,11.2,0,0,1,7.011.814.6.6,0,0,1-.445,1.114,10.066,10.066,0,0,0-6.267-.766c-1.828.469-3.719,2.045-3.8,4.148a.6.6,0,0,1-.6.577" transform="translate(-70.94 -51.767)" fill="#222a40" stroke="rgba(0,0,0,0)" stroke-width="1" stroke-dasharray="2"/>
          <path id="Trazado_1053745" data-name="Trazado 1053745" d="M314.78,248.144a.6.6,0,0,1-.6-.537,6.088,6.088,0,0,0-6.664-5.413A.6.6,0,0,1,307.4,241a7.286,7.286,0,0,1,7.978,6.48.6.6,0,0,1-.533.66.576.576,0,0,1-.064,0" transform="translate(-61.438 -48.244)" fill="#222a40" stroke="rgba(0,0,0,0)" stroke-width="1" stroke-dasharray="2"/>
          <path id="Trazado_1053746" data-name="Trazado 1053746" d="M428.1,249.972a53.652,53.652,0,0,1-2.2,6.35c-.434,1.092-.9,2.272-1.44,3.556-3.226,7.928-8.031,19.082-12.265,28.745-.555,1.266-1.092,2.48-1.613,3.677v.018c-4.112,9.35-7.32,16.5-7.32,16.5-.833-.122-1.648-.26-2.446-.434a36.039,36.039,0,0,1-19.048-11.346c-.261-.294-.486-.572-.677-.8-.486-.59-.729-.937-.729-.937l.485-2.5,5.95-30.514.677-3.5,2.047-10.5,28.935-20.99c9.4,5.187,10.86,16.654,9.645,22.673" transform="translate(-76.153 -45.508)" fill="#7f85fa" stroke="rgba(0,0,0,0)" stroke-width="1" stroke-dasharray="2"/>
          <path id="Trazado_1053747" data-name="Trazado 1053747" d="M374.612,314.493a36.039,36.039,0,0,0,19.048,11.345s-13.74,29.005-17.643,28.953c-3.9-.034-19.447-1.2-21.06-2.966-1.6-1.769-2.168-5.62-2.168-5.62s18.094-1.128,18.094-1.527c0-.417-6.523-11.9-6.523-11.9s-11.97,2.846-15.821,2.411c-3.643-.433-3.886-4.042-3.9-4.458V330.7h.017l27.114-10.581Z" transform="translate(-69.001 -62.966)" fill="#e48c59" stroke="rgba(0,0,0,0)" stroke-width="1" stroke-dasharray="2"/>
          <path id="Trazado_1053748" data-name="Trazado 1053748" d="M412.191,303.973c-.555,1.267-1.092,2.482-1.613,3.678v.018q-12.933,1.692-25.865,3.435c-1.215.155-2.411.329-3.625.485-.486-.589-.729-.936-.729-.936l.485-2.5q15.664-2.083,31.347-4.181" transform="translate(-76.153 -60.859)" fill="#a0a8fb" stroke="rgba(0,0,0,0)" stroke-width="1" stroke-dasharray="2"/>
          <path id="Trazado_1053749" data-name="Trazado 1053749" d="M427.507,263.587c-.434,1.093-.9,2.272-1.44,3.557q-13.088.858-26.178,1.682l-11.484.729.677-3.5q19.2-1.222,38.426-2.463" transform="translate(-77.764 -52.774)" fill="#a0a8fb" stroke="rgba(0,0,0,0)" stroke-width="1" stroke-dasharray="2"/>
          <path id="Trazado_1053750" data-name="Trazado 1053750" d="M375.838,248.818c-.092.081-.2.162-.289.231a13.547,13.547,0,0,1-1.443,1.016l-3.9-.9-12.193-2.794-3.88-.889a12.2,12.2,0,0,1-.877-1.548,14.657,14.657,0,1,1,22.584,4.884" transform="translate(-70.436 -44.629)" fill="#e8a03f" stroke="rgba(0,0,0,0)" stroke-width="1" stroke-dasharray="2"/>
          <path id="Trazado_1053751" data-name="Trazado 1053751" d="M374.881,247.561a11.626,11.626,0,0,1-2,1.34,10.4,10.4,0,0,1-2.067.877l-12.193-2.794a9.63,9.63,0,0,1-.935-.993,7.824,7.824,0,0,1-.531-.693,12.209,12.209,0,1,1,17.723,2.263" transform="translate(-71.048 -45.242)" fill="#ecb45e" stroke="rgba(0,0,0,0)" stroke-width="1" stroke-dasharray="2"/>
          <path id="Trazado_1053752" data-name="Trazado 1053752" d="M353.238,194.669a13.676,13.676,0,1,1-18.765-4.681,13.678,13.678,0,0,1,18.765,4.681" transform="translate(-65.637 -37.647)" fill="#e8a03f" stroke="rgba(0,0,0,0)" stroke-width="1" stroke-dasharray="2"/>
          <path id="Trazado_1053753" data-name="Trazado 1053753" d="M351.855,196.416a11.395,11.395,0,1,1-15.635-3.9,11.405,11.405,0,0,1,15.635,3.9" transform="translate(-66.209 -38.219)" fill="#ecb45e" stroke="rgba(0,0,0,0)" stroke-width="1" stroke-dasharray="2"/>
          <path id="Trazado_1053754" data-name="Trazado 1053754" d="M394.588,188.368a10.209,10.209,0,1,1-14.009-3.494,10.212,10.212,0,0,1,14.009,3.494" transform="translate(-75.205 -36.722)" fill="#e8a03f" stroke="rgba(0,0,0,0)" stroke-width="1" stroke-dasharray="2"/>
          <path id="Trazado_1053755" data-name="Trazado 1053755" d="M393.556,189.671a8.506,8.506,0,1,1-11.672-2.912,8.514,8.514,0,0,1,11.672,2.912" transform="translate(-75.632 -37.149)" fill="#ecb45e" stroke="rgba(0,0,0,0)" stroke-width="1" stroke-dasharray="2"/>
          <path id="Trazado_1053756" data-name="Trazado 1053756" d="M188.469,331.074a.535.535,0,0,1-.1-.009.6.6,0,0,1-.491-.691l6.74-39.731V225.35a.6.6,0,0,1,1.2,0v65.344a.522.522,0,0,1-.009.1l-6.749,39.78a.6.6,0,0,1-.59.5" transform="translate(-37.614 -44.998)" fill="#222a40" stroke="rgba(0,0,0,0)" stroke-width="1" stroke-dasharray="2"/>
        </g>
      </g>
    </g>
  </g>
</svg>
