<svg xmlns="http://www.w3.org/2000/svg" width="1093.61" height="434.135" viewBox="0 0 1093.61 434.135">
  <g id="Grupo_1181027" data-name="Grupo 1181027" transform="translate(6990.075 -8797.879)">
    <path id="Trazado_1034149" data-name="Trazado 1034149" d="M0,0H1093.565V117.74H0Z" transform="translate(-6990.075 9113.842)" fill="#f6f6f6"/>
    <path id="Trazado_1055830" data-name="Trazado 1055830" d="M0,0H1093.458V39.247H0Z" transform="translate(-6989.967 9153.088)" fill="#fff"/>
    <path id="Trazado_1055825" data-name="Trazado 1055825" d="M0,0H1093.458V39.247H0Z" transform="translate(-6990.021 9035.973)" fill="#f6f6f6"/>
    <path id="Trazado_1055829" data-name="Trazado 1055829" d="M-58.424-2.425a.977.977,0,0,0-.381-.828,5,5,0,0,0-1.371-.609,9.72,9.72,0,0,1-1.568-.632,2.562,2.562,0,0,1-1.574-2.292A2.232,2.232,0,0,1-62.9-8.122a2.753,2.753,0,0,1,1.212-.917,4.563,4.563,0,0,1,1.774-.33,4.154,4.154,0,0,1,1.765.359A2.81,2.81,0,0,1-56.942-8a2.649,2.649,0,0,1,.428,1.485h-1.9a1.246,1.246,0,0,0-.4-.987,1.644,1.644,0,0,0-1.124-.352,1.756,1.756,0,0,0-1.085.3.931.931,0,0,0-.387.778.892.892,0,0,0,.454.755,5.128,5.128,0,0,0,1.336.571A5.773,5.773,0,0,1-57.256-4.24a2.415,2.415,0,0,1,.743,1.8,2.224,2.224,0,0,1-.908,1.882,3.974,3.974,0,0,1-2.444.682,4.719,4.719,0,0,1-1.942-.39,3.074,3.074,0,0,1-1.336-1.07,2.739,2.739,0,0,1-.46-1.574h1.911q0,1.53,1.828,1.53a1.778,1.778,0,0,0,1.06-.276A.9.9,0,0,0-58.424-2.425Zm10.194-6.817v6.087a3.117,3.117,0,0,1-.949,2.4,3.659,3.659,0,0,1-2.593.882A3.7,3.7,0,0,1-54.342-.73a3.063,3.063,0,0,1-.971-2.355V-9.242h1.9v6.1a1.761,1.761,0,0,0,.435,1.323,1.669,1.669,0,0,0,1.2.416q1.606,0,1.631-1.688V-9.242ZM-46.668,0V-9.242h3.237a4.251,4.251,0,0,1,2.552.644,2.2,2.2,0,0,1,.87,1.888,2.088,2.088,0,0,1-.349,1.2,2.017,2.017,0,0,1-.971.759,1.951,1.951,0,0,1,1.12.717,2.121,2.121,0,0,1,.409,1.32A2.439,2.439,0,0,1-40.65-.7a3.829,3.829,0,0,1-2.425.7Zm1.9-4.024V-1.53h1.631a1.574,1.574,0,0,0,1.051-.321,1.1,1.1,0,0,0,.378-.885,1.161,1.161,0,0,0-1.314-1.289Zm0-1.346h1.409q1.441-.025,1.441-1.149a1.062,1.062,0,0,0-.365-.9A1.92,1.92,0,0,0-43.431-7.7h-1.333ZM-31.586-7.7h-2.831V0h-1.9V-7.7h-2.793V-9.242h7.528Zm8.5,3.288a5.579,5.579,0,0,1-.482,2.393A3.633,3.633,0,0,1-24.949-.432a3.819,3.819,0,0,1-2.06.559,3.845,3.845,0,0,1-2.05-.552A3.669,3.669,0,0,1-30.456-2a5.42,5.42,0,0,1-.5-2.358v-.457a5.55,5.55,0,0,1,.492-2.4,3.663,3.663,0,0,1,1.39-1.593,3.824,3.824,0,0,1,2.053-.555,3.824,3.824,0,0,1,2.053.555,3.663,3.663,0,0,1,1.39,1.593,5.534,5.534,0,0,1,.492,2.4Zm-1.93-.419a3.889,3.889,0,0,0-.521-2.209,1.7,1.7,0,0,0-1.485-.755,1.7,1.7,0,0,0-1.479.746,3.845,3.845,0,0,0-.527,2.187v.451a3.938,3.938,0,0,0,.521,2.2,1.692,1.692,0,0,0,1.5.781,1.677,1.677,0,0,0,1.473-.752,3.915,3.915,0,0,0,.521-2.193ZM-15.285-7.7h-2.831V0h-1.9V-7.7h-2.793V-9.242h7.528Zm5.542,5.8h-3.339L-13.717,0h-2.025l3.44-9.242h1.765L-7.078,0H-9.1Zm-2.825-1.542h2.311l-1.162-3.459ZM-4.31-1.53H-.267V0H-6.214V-9.242h1.9ZM-17.71,39h-1.9V29.758h1.9Zm5.18-2.292,2.095-6.951h2.12L-11.534,39h-1.987l-3.206-9.242h2.114ZM-2.7,37.1H-6.043L-6.678,39H-8.7l3.44-9.242H-3.5L-.038,39H-2.063Zm-2.825-1.542h2.311L-4.38,32.094ZM-31.586,70.3h-2.831V78h-1.9V70.3h-2.793V68.758h7.528Zm8.5,3.288a5.579,5.579,0,0,1-.482,2.393,3.633,3.633,0,0,1-1.381,1.587,3.819,3.819,0,0,1-2.06.559,3.845,3.845,0,0,1-2.05-.552A3.669,3.669,0,0,1-30.456,76a5.42,5.42,0,0,1-.5-2.358v-.457a5.55,5.55,0,0,1,.492-2.4,3.663,3.663,0,0,1,1.39-1.593,3.824,3.824,0,0,1,2.053-.555,3.824,3.824,0,0,1,2.053.555,3.663,3.663,0,0,1,1.39,1.593,5.534,5.534,0,0,1,.492,2.4Zm-1.93-.419a3.889,3.889,0,0,0-.521-2.209,1.7,1.7,0,0,0-1.485-.755,1.7,1.7,0,0,0-1.479.746,3.845,3.845,0,0,0-.527,2.187v.451a3.938,3.938,0,0,0,.521,2.2,1.692,1.692,0,0,0,1.5.781,1.677,1.677,0,0,0,1.473-.752,3.915,3.915,0,0,0,.521-2.193Zm9.731-2.869h-2.831V78h-1.9V70.3h-2.793V68.758h7.528Zm5.542,5.8h-3.339l-.635,1.9h-2.025l3.44-9.242h1.765L-7.078,78H-9.1Zm-2.825-1.542h2.311l-1.162-3.459ZM-4.31,76.47H-.267V78H-6.214V68.758h1.9Z" transform="translate(-6098.998 9137.838)" fill="#12263f"/>
    <path id="Trazado_1055827" data-name="Trazado 1055827" d="M-206.977-2.984A1.2,1.2,0,0,0-207.445-4a6.148,6.148,0,0,0-1.687-.75,11.962,11.962,0,0,1-1.93-.777A3.153,3.153,0,0,1-213-8.352,2.747,2.747,0,0,1-212.48-10a3.389,3.389,0,0,1,1.492-1.129,5.616,5.616,0,0,1,2.184-.406,5.112,5.112,0,0,1,2.172.441,3.458,3.458,0,0,1,1.48,1.246,3.261,3.261,0,0,1,.527,1.828h-2.344a1.534,1.534,0,0,0-.492-1.215,2.023,2.023,0,0,0-1.383-.434,2.162,2.162,0,0,0-1.336.363,1.146,1.146,0,0,0-.477.957,1.1,1.1,0,0,0,.559.93,6.311,6.311,0,0,0,1.645.7,7.106,7.106,0,0,1,2.914,1.492A2.972,2.972,0,0,1-204.625-3a2.737,2.737,0,0,1-1.117,2.316,4.891,4.891,0,0,1-3.008.84,5.808,5.808,0,0,1-2.391-.48,3.783,3.783,0,0,1-1.645-1.316,3.371,3.371,0,0,1-.566-1.937H-211q0,1.883,2.25,1.883a2.189,2.189,0,0,0,1.3-.34A1.106,1.106,0,0,0-206.977-2.984ZM-196.2-4.93h-4.5v3.047h5.281V0h-7.625V-11.375h7.609v1.9H-200.7v2.711h4.5Zm6.367.766H-191.7V0h-2.344V-11.375h4.227a4.778,4.778,0,0,1,3.109.9,3.1,3.1,0,0,1,1.094,2.539,3.5,3.5,0,0,1-.5,1.941,3.437,3.437,0,0,1-1.527,1.238l2.461,4.648V0H-187.7Zm-1.867-1.9h1.891a1.936,1.936,0,0,0,1.367-.449,1.606,1.606,0,0,0,.484-1.238,1.719,1.719,0,0,0-.457-1.266,1.9,1.9,0,0,0-1.4-.461H-191.7Zm11.922,3.242,2.578-8.555h2.609L-178.547,0h-2.445l-3.945-11.375h2.6Zm8.75,2.82h-2.344V-11.375h2.344Zm11.1-3.789A4.025,4.025,0,0,1-161.277-.9,4.76,4.76,0,0,1-164.5.156a4.281,4.281,0,0,1-3.441-1.473A6.038,6.038,0,0,1-169.2-5.359v-.7a6.819,6.819,0,0,1,.578-2.891,4.332,4.332,0,0,1,1.652-1.918,4.629,4.629,0,0,1,2.5-.668,4.637,4.637,0,0,1,3.172,1.055,4.326,4.326,0,0,1,1.391,2.961h-2.344a2.376,2.376,0,0,0-.613-1.6,2.271,2.271,0,0,0-1.605-.5,1.991,1.991,0,0,0-1.754.84,4.707,4.707,0,0,0-.6,2.605V-5.3a5.038,5.038,0,0,0,.559,2.7,1.954,1.954,0,0,0,1.762.852,2.314,2.314,0,0,0,1.621-.5,2.241,2.241,0,0,0,.613-1.535ZM-155.891,0h-2.344V-11.375h2.344Zm11.516-5.43a6.867,6.867,0,0,1-.594,2.945,4.471,4.471,0,0,1-1.7,1.953A4.7,4.7,0,0,1-149.2.156a4.732,4.732,0,0,1-2.523-.68,4.515,4.515,0,0,1-1.719-1.941,6.67,6.67,0,0,1-.617-2.9V-5.93a6.831,6.831,0,0,1,.605-2.957,4.508,4.508,0,0,1,1.711-1.961,4.706,4.706,0,0,1,2.527-.684,4.706,4.706,0,0,1,2.527.684,4.508,4.508,0,0,1,1.711,1.961,6.811,6.811,0,0,1,.605,2.949Zm-2.375-.516a4.787,4.787,0,0,0-.641-2.719,2.088,2.088,0,0,0-1.828-.93,2.088,2.088,0,0,0-1.82.918,4.732,4.732,0,0,0-.648,2.691v.555a4.847,4.847,0,0,0,.641,2.7,2.082,2.082,0,0,0,1.844.961,2.064,2.064,0,0,0,1.813-.926,4.819,4.819,0,0,0,.641-2.7ZM-138.687,0V-11.375h3.5a5.315,5.315,0,0,1,2.684.676,4.712,4.712,0,0,1,1.848,1.922,5.928,5.928,0,0,1,.664,2.832v.523a5.945,5.945,0,0,1-.652,2.82,4.672,4.672,0,0,1-1.84,1.914,5.355,5.355,0,0,1-2.68.688Zm2.344-9.477v7.594h1.133a2.545,2.545,0,0,0,2.1-.9,4.06,4.06,0,0,0,.742-2.57v-.6a4.124,4.124,0,0,0-.719-2.629,2.537,2.537,0,0,0-2.1-.895Zm14.9,4.547h-4.5v3.047h5.281V0h-7.625V-11.375h7.609v1.9h-5.266v2.711h4.5Zm12.984,0h-4.5v3.047h5.281V0H-115.3V-11.375h7.609v1.9h-5.266v2.711h4.5ZM-97.055,0H-99.4l-4.562-7.484V0H-106.3V-11.375h2.344l4.57,7.5v-7.5h2.336Zm8.891-4.93h-4.5v3.047h5.281V0h-7.625V-11.375H-87.4v1.9h-5.266v2.711h4.5Zm6.367.766h-1.867V0h-2.344V-11.375h4.227a4.778,4.778,0,0,1,3.109.9,3.1,3.1,0,0,1,1.094,2.539A3.5,3.5,0,0,1-78.082-6a3.437,3.437,0,0,1-1.527,1.238l2.461,4.648V0h-2.516Zm-1.867-1.9h1.891a1.936,1.936,0,0,0,1.367-.449,1.606,1.606,0,0,0,.484-1.238,1.719,1.719,0,0,0-.457-1.266,1.9,1.9,0,0,0-1.4-.461h-1.883ZM-66.8-1.437A4.068,4.068,0,0,1-68.586-.262a7.492,7.492,0,0,1-2.562.418,5.076,5.076,0,0,1-2.59-.645,4.3,4.3,0,0,1-1.719-1.871,6.585,6.585,0,0,1-.621-2.883v-.773A6.994,6.994,0,0,1-75.5-8.965a4.248,4.248,0,0,1,1.656-1.906,4.771,4.771,0,0,1,2.535-.66,4.751,4.751,0,0,1,3.164.965A4.123,4.123,0,0,1-66.8-7.758h-2.281a2.268,2.268,0,0,0-.691-1.43,2.208,2.208,0,0,0-1.473-.453,2.078,2.078,0,0,0-1.82.9A4.724,4.724,0,0,0-73.7-6.07v.727a4.5,4.5,0,0,0,.68,2.7,2.327,2.327,0,0,0,1.992.914,2.6,2.6,0,0,0,1.883-.562V-4.25h-2.133V-5.977H-66.8ZM-62.406,0H-64.75V-11.375h2.344Zm-.727-14.445h2.461l-2.164,2.422h-1.836Zm9.32,12.1h-4.109L-58.7,0H-61.2l4.234-11.375h2.172L-50.531,0h-2.492Zm-3.477-1.9h2.844L-55.875-8.5ZM-45.484,0V-11.375h3.5A5.315,5.315,0,0,1-39.3-10.7a4.712,4.712,0,0,1,1.848,1.922,5.928,5.928,0,0,1,.664,2.832v.523a5.945,5.945,0,0,1-.652,2.82,4.672,4.672,0,0,1-1.84,1.914A5.355,5.355,0,0,1-41.961,0Zm2.344-9.477v7.594h1.133a2.545,2.545,0,0,0,2.1-.9,4.06,4.06,0,0,0,.742-2.57v-.6a4.124,4.124,0,0,0-.719-2.629,2.537,2.537,0,0,0-2.1-.895Zm14.9,4.547h-4.5v3.047h5.281V0h-7.625V-11.375h7.609v1.9h-5.266v2.711h4.5Zm4.5,3.047h4.977V0h-7.32V-11.375h2.344ZM-6.023-4.7A5.762,5.762,0,0,1-7-1.094,3.409,3.409,0,0,1-9.859.156,3.433,3.433,0,0,1-12.7-1.07a5.594,5.594,0,0,1-1.008-3.516V-6.68a5.687,5.687,0,0,1,.988-3.617,3.434,3.434,0,0,1,2.848-1.234,3.437,3.437,0,0,1,2.844,1.223A5.576,5.576,0,0,1-6.023-6.8Zm-2.258-2.3a4.165,4.165,0,0,0-.387-2.061,1.307,1.307,0,0,0-1.207-.645,1.284,1.284,0,0,0-1.176.614,3.9,3.9,0,0,0-.4,1.92v2.768a4.372,4.372,0,0,0,.379,2.068,1.29,1.29,0,0,0,1.215.676,1.268,1.268,0,0,0,1.2-.649A4.268,4.268,0,0,0-8.281-4.3ZM.984,0H-1.273V-8.7l-2.7.836V-9.7L.742-11.391H.984ZM15.328-2.344H11.219L10.438,0H7.945L12.18-11.375h2.172L18.609,0H16.117Zm-3.477-1.9H14.7L13.266-8.5ZM22.016-1.883h4.977V0h-7.32V-11.375h2.344Zm12.359-4.8h1.2a1.7,1.7,0,0,0,1.273-.43,1.574,1.574,0,0,0,.414-1.141,1.392,1.392,0,0,0-.41-1.07,1.59,1.59,0,0,0-1.129-.383,1.666,1.666,0,0,0-1.086.355,1.137,1.137,0,0,0-.437.926H31.945a2.777,2.777,0,0,1,.48-1.6,3.2,3.2,0,0,1,1.344-1.105,4.485,4.485,0,0,1,1.9-.4,4.253,4.253,0,0,1,2.828.863,2.945,2.945,0,0,1,1.023,2.379,2.394,2.394,0,0,1-.477,1.438A3.1,3.1,0,0,1,37.8-5.844,2.826,2.826,0,0,1,39.23-4.812,2.8,2.8,0,0,1,39.7-3.187,2.994,2.994,0,0,1,38.6-.758a4.445,4.445,0,0,1-2.926.914,4.214,4.214,0,0,1-2.785-.9A2.934,2.934,0,0,1,31.8-3.117h2.258a1.308,1.308,0,0,0,.48,1.047,1.771,1.771,0,0,0,1.184.406,1.779,1.779,0,0,0,1.262-.426,1.47,1.47,0,0,0,.457-1.129q0-1.7-1.875-1.7h-1.2ZM48.914-4.7a5.762,5.762,0,0,1-.977,3.609A3.409,3.409,0,0,1,45.078.156,3.433,3.433,0,0,1,42.234-1.07a5.594,5.594,0,0,1-1.008-3.516V-6.68a5.687,5.687,0,0,1,.988-3.617,3.434,3.434,0,0,1,2.848-1.234,3.437,3.437,0,0,1,2.844,1.223A5.576,5.576,0,0,1,48.914-6.8Zm-2.258-2.3a4.165,4.165,0,0,0-.387-2.061,1.307,1.307,0,0,0-1.207-.645,1.284,1.284,0,0,0-1.176.614,3.9,3.9,0,0,0-.4,1.92v2.768a4.372,4.372,0,0,0,.379,2.068,1.29,1.29,0,0,0,1.215.676,1.268,1.268,0,0,0,1.2-.649A4.268,4.268,0,0,0,46.656-4.3ZM54.664,0V-11.375h3.5a5.315,5.315,0,0,1,2.684.676A4.712,4.712,0,0,1,62.7-8.777a5.928,5.928,0,0,1,.664,2.832v.523a5.945,5.945,0,0,1-.652,2.82,4.672,4.672,0,0,1-1.84,1.914A5.355,5.355,0,0,1,58.188,0Zm2.344-9.477v7.594h1.133a2.545,2.545,0,0,0,2.1-.9,4.06,4.06,0,0,0,.742-2.57v-.6a4.124,4.124,0,0,0-.719-2.629,2.537,2.537,0,0,0-2.1-.895Zm14.9,4.547h-4.5v3.047h5.281V0H65.063V-11.375h7.609v1.9H67.406v2.711h4.5ZM83.945-2.984A1.2,1.2,0,0,0,83.477-4a6.148,6.148,0,0,0-1.687-.75,11.963,11.963,0,0,1-1.93-.777,3.153,3.153,0,0,1-1.937-2.82A2.747,2.747,0,0,1,78.441-10a3.389,3.389,0,0,1,1.492-1.129,5.616,5.616,0,0,1,2.184-.406,5.112,5.112,0,0,1,2.172.441,3.458,3.458,0,0,1,1.48,1.246A3.261,3.261,0,0,1,86.3-8.016H83.953a1.534,1.534,0,0,0-.492-1.215,2.023,2.023,0,0,0-1.383-.434,2.162,2.162,0,0,0-1.336.363,1.146,1.146,0,0,0-.477.957,1.1,1.1,0,0,0,.559.93,6.311,6.311,0,0,0,1.645.7,7.106,7.106,0,0,1,2.914,1.492A2.972,2.972,0,0,1,86.3-3,2.737,2.737,0,0,1,85.18-.684a4.891,4.891,0,0,1-3.008.84,5.808,5.808,0,0,1-2.391-.48,3.783,3.783,0,0,1-1.645-1.316,3.371,3.371,0,0,1-.566-1.937h2.352q0,1.883,2.25,1.883a2.189,2.189,0,0,0,1.3-.34A1.106,1.106,0,0,0,83.945-2.984ZM94.727-4.93h-4.5v3.047h5.281V0H87.883V-11.375h7.609v1.9H90.227v2.711h4.5Zm4.5.922V0H96.883V-11.375h4.438a5.134,5.134,0,0,1,2.254.469,3.454,3.454,0,0,1,1.5,1.332,3.714,3.714,0,0,1,.523,1.965,3.266,3.266,0,0,1-1.145,2.637,4.767,4.767,0,0,1-3.168.965Zm0-1.9h2.094a2.059,2.059,0,0,0,1.418-.437,1.591,1.591,0,0,0,.488-1.25,1.876,1.876,0,0,0-.492-1.352,1.839,1.839,0,0,0-1.359-.531H99.227Zm16.539-3.57h-3.484V0h-2.344V-9.477H106.5v-1.9h9.266ZM119.594,0H117.25V-11.375h2.344Zm9.016-4.93h-4.5v3.047h5.281V0h-7.625V-11.375h7.609v1.9h-5.266v2.711h4.5Zm5.219-6.445,2.922,8.25,2.906-8.25h3.078V0h-2.352V-3.109l.234-5.367L137.547,0h-1.609l-3.062-8.469.234,5.359V0h-2.344V-11.375ZM144.781,0V-11.375h3.984a5.232,5.232,0,0,1,3.141.793,2.711,2.711,0,0,1,1.07,2.324,2.57,2.57,0,0,1-.43,1.473,2.482,2.482,0,0,1-1.2.934,2.4,2.4,0,0,1,1.379.883,2.61,2.61,0,0,1,.5,1.625,3,3,0,0,1-1.047,2.484A4.713,4.713,0,0,1,149.2,0Zm2.344-4.953v3.07h2.008a1.938,1.938,0,0,0,1.293-.395,1.353,1.353,0,0,0,.465-1.09,1.428,1.428,0,0,0-1.617-1.586Zm0-1.656h1.734q1.773-.031,1.773-1.414a1.307,1.307,0,0,0-.449-1.113,2.363,2.363,0,0,0-1.418-.34h-1.641ZM159.2-4.164h-1.867V0h-2.344V-11.375h4.227a4.778,4.778,0,0,1,3.109.9,3.1,3.1,0,0,1,1.094,2.539,3.5,3.5,0,0,1-.5,1.941,3.437,3.437,0,0,1-1.527,1.238l2.461,4.648V0h-2.516Zm-1.867-1.9h1.891a1.936,1.936,0,0,0,1.367-.449,1.606,1.606,0,0,0,.484-1.238,1.719,1.719,0,0,0-.457-1.266,1.9,1.9,0,0,0-1.4-.461h-1.883ZM172.047-4.93h-4.5v3.047h5.281V0H165.2V-11.375h7.609v1.9h-5.266v2.711h4.5ZM185.742,0h-7.8V-1.547l3.68-3.922a9.078,9.078,0,0,0,1.121-1.445,2.322,2.322,0,0,0,.363-1.172,1.738,1.738,0,0,0-.383-1.191,1.382,1.382,0,0,0-1.094-.434,1.49,1.49,0,0,0-1.207.527,2.089,2.089,0,0,0-.441,1.387h-2.266a3.729,3.729,0,0,1,.5-1.9,3.5,3.5,0,0,1,1.4-1.348,4.262,4.262,0,0,1,2.055-.488,4.036,4.036,0,0,1,2.73.844,2.985,2.985,0,0,1,.973,2.383,3.825,3.825,0,0,1-.437,1.719,9.552,9.552,0,0,1-1.5,2.039L180.852-1.82h4.891Zm9.039-4.7a5.762,5.762,0,0,1-.977,3.609,3.409,3.409,0,0,1-2.859,1.25A3.433,3.433,0,0,1,188.1-1.07a5.594,5.594,0,0,1-1.008-3.516V-6.68a5.687,5.687,0,0,1,.988-3.617,3.434,3.434,0,0,1,2.848-1.234,3.437,3.437,0,0,1,2.844,1.223A5.576,5.576,0,0,1,194.781-6.8Zm-2.258-2.3a4.165,4.165,0,0,0-.387-2.061,1.307,1.307,0,0,0-1.207-.645,1.284,1.284,0,0,0-1.176.614,3.9,3.9,0,0,0-.4,1.92v2.768a4.372,4.372,0,0,0,.379,2.068,1.29,1.29,0,0,0,1.215.676,1.268,1.268,0,0,0,1.2-.649,4.268,4.268,0,0,0,.383-1.986ZM204.1,0h-7.8V-1.547l3.68-3.922a9.078,9.078,0,0,0,1.121-1.445,2.322,2.322,0,0,0,.363-1.172,1.738,1.738,0,0,0-.383-1.191,1.382,1.382,0,0,0-1.094-.434,1.49,1.49,0,0,0-1.207.527,2.089,2.089,0,0,0-.441,1.387h-2.266a3.729,3.729,0,0,1,.5-1.9,3.5,3.5,0,0,1,1.4-1.348,4.262,4.262,0,0,1,2.055-.488,4.036,4.036,0,0,1,2.73.844,2.985,2.985,0,0,1,.973,2.383,3.825,3.825,0,0,1-.437,1.719,9.552,9.552,0,0,1-1.5,2.039L199.211-1.82H204.1Zm9.039-4.7a5.762,5.762,0,0,1-.977,3.609A3.409,3.409,0,0,1,209.3.156a3.433,3.433,0,0,1-2.844-1.227,5.594,5.594,0,0,1-1.008-3.516V-6.68a5.687,5.687,0,0,1,.988-3.617,3.434,3.434,0,0,1,2.848-1.234,3.437,3.437,0,0,1,2.844,1.223A5.576,5.576,0,0,1,213.141-6.8Zm-2.258-2.3a4.165,4.165,0,0,0-.387-2.061,1.307,1.307,0,0,0-1.207-.645,1.284,1.284,0,0,0-1.176.614,3.9,3.9,0,0,0-.4,1.92v2.768a4.372,4.372,0,0,0,.379,2.068,1.29,1.29,0,0,0,1.215.676,1.268,1.268,0,0,0,1.2-.649,4.268,4.268,0,0,0,.383-1.986Z" transform="translate(-6757.636 9058.709)" fill="#12263f"/>
    <path id="Trazado_1034198" data-name="Trazado 1034198" d="M0,0H1093.124V238H0Z" transform="translate(-6989.589 8798.338)" fill="#fff"/>
    <path id="Trazado_1034195" data-name="Trazado 1034195" d="M0,0H1093.565V59.665H0Z" transform="translate(-6990.075 8798.338)" fill="#fd9826"/>
    <path id="Trazado_1034197" data-name="Trazado 1034197" d="M0,0H1093.565V59.665H0Z" transform="translate(-6990.075 8917.668)" fill="#fd9826"/>
    <path id="Trazado_1055831" data-name="Trazado 1055831" d="M0,0V177" transform="translate(-6083.87 8800.338)" fill="none"/>
    <path id="Trazado_1055812" data-name="Trazado 1055812" d="M69.226,12.07h-4.5v3.047h5.281V17H62.382V5.625h7.609v1.9H64.726v2.711h4.5ZM80.632,17H78.289L73.726,9.516V17H71.382V5.625h2.344l4.57,7.5v-7.5h2.336Zm8.891-4.93h-4.5v3.047H90.3V17H82.679V5.625h7.609v1.9H85.023v2.711h4.5Zm4.5,3.047H99V17h-7.32V5.625h2.344Zm19.234-1.906A4.025,4.025,0,0,1,111.9,16.1a4.76,4.76,0,0,1-3.223,1.055,4.28,4.28,0,0,1-3.441-1.473,6.038,6.038,0,0,1-1.254-4.043v-.7a6.819,6.819,0,0,1,.578-2.891,4.332,4.332,0,0,1,1.652-1.918,5.164,5.164,0,0,1,5.668.387,4.326,4.326,0,0,1,1.391,2.961h-2.344a2.376,2.376,0,0,0-.613-1.6,2.271,2.271,0,0,0-1.605-.5,1.991,1.991,0,0,0-1.754.84,4.707,4.707,0,0,0-.6,2.605V11.7a5.038,5.038,0,0,0,.559,2.7,1.954,1.954,0,0,0,1.762.852,2.314,2.314,0,0,0,1.621-.5,2.241,2.241,0,0,0,.613-1.535ZM124.14,11.57a6.867,6.867,0,0,1-.594,2.945,4.472,4.472,0,0,1-1.7,1.953,5.021,5.021,0,0,1-5.059.008,4.515,4.515,0,0,1-1.719-1.941,6.67,6.67,0,0,1-.617-2.9V11.07a6.831,6.831,0,0,1,.605-2.957,4.508,4.508,0,0,1,1.711-1.961,5.014,5.014,0,0,1,5.055,0,4.508,4.508,0,0,1,1.711,1.961,6.811,6.811,0,0,1,.605,2.949Zm-2.375-.516a4.787,4.787,0,0,0-.641-2.719,2.263,2.263,0,0,0-3.648-.012,4.732,4.732,0,0,0-.648,2.691v.555a4.847,4.847,0,0,0,.641,2.7,2.243,2.243,0,0,0,3.656.035,4.819,4.819,0,0,0,.641-2.7ZM125.843,17V5.625h3.5a5.315,5.315,0,0,1,2.684.676,4.712,4.712,0,0,1,1.848,1.922,5.928,5.928,0,0,1,.664,2.832v.523a5.945,5.945,0,0,1-.652,2.82,4.672,4.672,0,0,1-1.84,1.914,5.355,5.355,0,0,1-2.68.688Zm2.344-9.477v7.594h1.133a2.545,2.545,0,0,0,2.1-.9,4.06,4.06,0,0,0,.742-2.57v-.6a4.125,4.125,0,0,0-.719-2.629,2.537,2.537,0,0,0-2.1-.895Zm14.9,4.547h-4.5v3.047h5.281V17h-7.625V5.625h7.609v1.9h-5.266v2.711h4.5ZM154.492,17h-2.344l-4.562-7.484V17h-2.344V5.625h2.344l4.57,7.5v-7.5h2.336Zm7.945-2.984a1.2,1.2,0,0,0-.469-1.02,6.148,6.148,0,0,0-1.687-.75,11.962,11.962,0,0,1-1.93-.777,3.153,3.153,0,0,1-1.937-2.82A2.747,2.747,0,0,1,156.933,7a3.389,3.389,0,0,1,1.492-1.129,5.616,5.616,0,0,1,2.184-.406,5.112,5.112,0,0,1,2.172.441,3.458,3.458,0,0,1,1.48,1.246,3.261,3.261,0,0,1,.527,1.828h-2.344a1.534,1.534,0,0,0-.492-1.215,2.023,2.023,0,0,0-1.383-.434,2.162,2.162,0,0,0-1.336.363,1.146,1.146,0,0,0-.477.957,1.1,1.1,0,0,0,.559.93,6.311,6.311,0,0,0,1.645.7,7.106,7.106,0,0,1,2.914,1.492A2.972,2.972,0,0,1,164.789,14a2.737,2.737,0,0,1-1.117,2.316,4.891,4.891,0,0,1-3.008.84,5.808,5.808,0,0,1-2.391-.48,3.783,3.783,0,0,1-1.645-1.316,3.371,3.371,0,0,1-.566-1.937h2.352q0,1.883,2.25,1.883a2.189,2.189,0,0,0,1.3-.34A1.106,1.106,0,0,0,162.437,14.016Zm10.359.641h-4.109L167.906,17h-2.492l4.234-11.375h2.172L176.078,17h-2.492Zm-3.477-1.9h2.844L170.734,8.5Z" transform="translate(-6823 8818.01)" fill="#12263f"/>
    <path id="Trazado_1055813" data-name="Trazado 1055813" d="M7.859,12.07h-4.5v3.047H8.641V17H1.016V5.625H8.625v1.9H3.359v2.711h4.5Zm5.219-6.445L16,13.875l2.906-8.25h3.078V17H19.633V13.891l.234-5.367L16.8,17H15.188L12.125,8.531l.234,5.359V17H10.016V5.625Zm13.3,7.367V17H24.031V5.625h4.438a5.134,5.134,0,0,1,2.254.469,3.454,3.454,0,0,1,1.5,1.332,3.714,3.714,0,0,1,.523,1.965A3.266,3.266,0,0,1,31.6,12.027a4.767,4.767,0,0,1-3.168.965Zm0-1.9h2.094a2.059,2.059,0,0,0,1.418-.437,1.591,1.591,0,0,0,.488-1.25,1.876,1.876,0,0,0-.492-1.352,1.839,1.839,0,0,0-1.359-.531H26.375Zm13.008,3.563H35.273L34.492,17H32L36.234,5.625h2.172L42.664,17H40.172Zm-3.477-1.9H38.75L37.32,8.5ZM52.977,17H50.633L46.07,9.516V17H43.727V5.625H46.07l4.57,7.5v-7.5h2.336Zm8.469-2.344H57.336L56.555,17H54.063L58.3,5.625h2.172L64.727,17H62.234Zm-3.477-1.9h2.844L59.383,8.5ZM65.789,17V5.625h3.5a5.315,5.315,0,0,1,2.684.676A4.712,4.712,0,0,1,73.82,8.223a5.928,5.928,0,0,1,.664,2.832v.523a5.945,5.945,0,0,1-.652,2.82,4.672,4.672,0,0,1-1.84,1.914,5.355,5.355,0,0,1-2.68.688Zm2.344-9.477v7.594h1.133a2.545,2.545,0,0,0,2.1-.9,4.06,4.06,0,0,0,.742-2.57v-.6a4.124,4.124,0,0,0-.719-2.629,2.537,2.537,0,0,0-2.1-.895Zm14.477,7.133H78.5L77.719,17H75.227L79.461,5.625h2.172L85.891,17H83.4Zm-3.477-1.9h2.844L80.547,8.5Zm10.3,2.359h5.734V17H86.508V15.625l5.625-8.1H86.516v-1.9h8.531V6.969Zm16.352-3.547a6.867,6.867,0,0,1-.594,2.945,4.472,4.472,0,0,1-1.7,1.953,5.021,5.021,0,0,1-5.059.008,4.515,4.515,0,0,1-1.719-1.941,6.67,6.67,0,0,1-.617-2.9V11.07a6.831,6.831,0,0,1,.605-2.957,4.508,4.508,0,0,1,1.711-1.961,5.014,5.014,0,0,1,5.055,0,4.508,4.508,0,0,1,1.711,1.961,6.811,6.811,0,0,1,.605,2.949Zm-2.375-.516a4.787,4.787,0,0,0-.641-2.719,2.263,2.263,0,0,0-3.648-.012,4.732,4.732,0,0,0-.648,2.691v.555a4.847,4.847,0,0,0,.641,2.7,2.243,2.243,0,0,0,3.656.035,4.819,4.819,0,0,0,.641-2.7Zm10.406,4.063H118.8V17h-7.32V5.625h2.344ZM127.1,7.523h-3.484V17h-2.344V7.523h-3.437v-1.9H127.1ZM128.438,17V5.625h3.5a5.315,5.315,0,0,1,2.684.676,4.712,4.712,0,0,1,1.848,1.922,5.928,5.928,0,0,1,.664,2.832v.523a5.945,5.945,0,0,1-.652,2.82,4.672,4.672,0,0,1-1.84,1.914,5.355,5.355,0,0,1-2.68.688Zm2.344-9.477v7.594h1.133a2.545,2.545,0,0,0,2.1-.9,4.06,4.06,0,0,0,.742-2.57v-.6a4.124,4.124,0,0,0-.719-2.629,2.537,2.537,0,0,0-2.1-.895Zm14.477,7.133h-4.109L140.367,17h-2.492l4.234-11.375h2.172L148.539,17h-2.492Zm-3.477-1.9h2.844L143.2,8.5Z" transform="translate(-6923 8877.84)" fill="#12263f"/>
    <path id="Trazado_1055818" data-name="Trazado 1055818" d="M58.32,12.352h-4.5V17H51.476V5.625h7.406v1.9H53.82v2.938h4.5Zm6.133.484H62.585V17H60.242V5.625h4.227a4.778,4.778,0,0,1,3.109.9,3.1,3.1,0,0,1,1.094,2.539,3.5,3.5,0,0,1-.5,1.941,3.437,3.437,0,0,1-1.527,1.238L69.1,16.891V17H66.585Zm-1.867-1.9h1.891a1.936,1.936,0,0,0,1.367-.449,1.606,1.606,0,0,0,.484-1.238,1.719,1.719,0,0,0-.457-1.266,1.9,1.9,0,0,0-1.4-.461H62.585Zm14.289,3.719H72.765L71.984,17H69.492L73.726,5.625H75.9L80.156,17H77.664Zm-3.477-1.9h2.844L74.812,8.5ZM85.2,17V5.625h3.5a5.315,5.315,0,0,1,2.684.676,4.712,4.712,0,0,1,1.848,1.922,5.928,5.928,0,0,1,.664,2.832v.523a5.945,5.945,0,0,1-.652,2.82,4.672,4.672,0,0,1-1.84,1.914,5.355,5.355,0,0,1-2.68.688Zm2.344-9.477v7.594h1.133a2.545,2.545,0,0,0,2.1-.9,4.06,4.06,0,0,0,.742-2.57v-.6A4.124,4.124,0,0,0,90.8,8.418a2.537,2.537,0,0,0-2.1-.895Zm14.9,4.547h-4.5v3.047h5.281V17H95.6V5.625h7.609v1.9H97.945v2.711h4.5Zm10.344,2.109,2.578-8.555h2.609L114.015,17H111.57L107.625,5.625h2.6Zm13.1-2.109h-4.5v3.047h5.281V17h-7.625V5.625h7.609v1.9H121.39v2.711h4.5ZM137.3,17h-2.344L130.39,9.516V17h-2.344V5.625h2.344l4.57,7.5v-7.5H137.3Zm10.609-9.477h-3.484V17h-2.344V7.523H138.64v-1.9h9.266Zm6.82,7.133h-4.109L149.835,17h-2.492l4.234-11.375h2.172L158.007,17h-2.492Zm-3.477-1.9h2.844L152.664,8.5ZM172.3,17H169.96L165.4,9.516V17h-2.344V5.625H165.4l4.57,7.5v-7.5H172.3Zm1.547-4.3a5.013,5.013,0,0,1,.484-2.242A3.546,3.546,0,0,1,175.73,8.93a4.069,4.069,0,0,1,2.113-.539,3.849,3.849,0,0,1,2.793,1.047,4.2,4.2,0,0,1,1.207,2.844l.016.578a4.418,4.418,0,0,1-1.086,3.121,4.209,4.209,0,0,1-5.832,0,4.5,4.5,0,0,1-1.09-3.187Zm2.258.16a3.16,3.16,0,0,0,.453,1.843,1.628,1.628,0,0,0,2.578.008,3.457,3.457,0,0,0,.461-2.015,3.128,3.128,0,0,0-.461-1.831,1.5,1.5,0,0,0-1.3-.649,1.474,1.474,0,0,0-1.281.646A3.516,3.516,0,0,0,176.109,12.856Zm7.258,3.035a1.137,1.137,0,0,1,.363-.875,1.412,1.412,0,0,1,1.828,0,1.137,1.137,0,0,1,.363.875,1.121,1.121,0,0,1-.359.863,1.435,1.435,0,0,1-1.836,0A1.121,1.121,0,0,1,183.367,15.891Z" transform="translate(-6359.396 8823.67)" fill="#12263f"/>
    <path id="Trazado_1055819" data-name="Trazado 1055819" d="M67.128,12.352h-4.5V17H60.285V5.625h7.406v1.9H62.628v2.938h4.5Zm8.766-.281h-4.5v3.047h5.281V17H69.05V5.625H76.66v1.9H71.394v2.711h4.5ZM86.98,13.211A4.025,4.025,0,0,1,85.625,16.1,4.76,4.76,0,0,1,82.4,17.156a4.28,4.28,0,0,1-3.441-1.473,6.038,6.038,0,0,1-1.254-4.043v-.7a6.819,6.819,0,0,1,.578-2.891,4.332,4.332,0,0,1,1.652-1.918,5.164,5.164,0,0,1,5.668.387A4.326,4.326,0,0,1,87,9.484H84.652a2.376,2.376,0,0,0-.613-1.6,2.271,2.271,0,0,0-1.605-.5,1.991,1.991,0,0,0-1.754.84,4.707,4.707,0,0,0-.6,2.605V11.7a5.038,5.038,0,0,0,.559,2.7,1.954,1.954,0,0,0,1.762.852,2.314,2.314,0,0,0,1.621-.5,2.241,2.241,0,0,0,.613-1.535ZM97.777,17H95.433V12.125h-4.57V17H88.519V5.625h2.344v4.609h4.57V5.625h2.344Zm8.609-2.344h-4.109L101.5,17H99l4.234-11.375h2.172L109.667,17h-2.492Zm-3.477-1.9h2.844L104.324,8.5Zm18.648-.687h-4.5v3.047h5.281V17h-7.625V5.625h7.609v1.9h-5.266v2.711h4.5Zm5.219-6.445,2.922,8.25,2.906-8.25h3.078V17h-2.352V13.891l.234-5.367L130.5,17h-1.609l-3.063-8.469.234,5.359V17h-2.344V5.625ZM140.222,17h-2.344V5.625h2.344Zm8.07-2.984a1.2,1.2,0,0,0-.469-1.02,6.148,6.148,0,0,0-1.687-.75,11.962,11.962,0,0,1-1.93-.777,3.153,3.153,0,0,1-1.937-2.82A2.747,2.747,0,0,1,142.789,7a3.389,3.389,0,0,1,1.492-1.129,5.616,5.616,0,0,1,2.184-.406,5.112,5.112,0,0,1,2.172.441,3.458,3.458,0,0,1,1.48,1.246,3.261,3.261,0,0,1,.527,1.828H148.3a1.534,1.534,0,0,0-.492-1.215,2.023,2.023,0,0,0-1.383-.434,2.162,2.162,0,0,0-1.336.363,1.146,1.146,0,0,0-.477.957,1.1,1.1,0,0,0,.559.93,6.311,6.311,0,0,0,1.645.7,7.106,7.106,0,0,1,2.914,1.492A2.972,2.972,0,0,1,150.644,14a2.737,2.737,0,0,1-1.117,2.316,4.891,4.891,0,0,1-3.008.84,5.808,5.808,0,0,1-2.391-.48,3.783,3.783,0,0,1-1.645-1.316,3.371,3.371,0,0,1-.566-1.937h2.352q0,1.883,2.25,1.883a2.189,2.189,0,0,0,1.3-.34A1.106,1.106,0,0,0,148.292,14.016ZM154.722,17h-2.344V5.625h2.344Zm11.516-5.43a6.867,6.867,0,0,1-.594,2.945,4.471,4.471,0,0,1-1.7,1.953,5.021,5.021,0,0,1-5.059.008,4.515,4.515,0,0,1-1.719-1.941,6.67,6.67,0,0,1-.617-2.9V11.07a6.831,6.831,0,0,1,.605-2.957,4.508,4.508,0,0,1,1.711-1.961,5.014,5.014,0,0,1,5.055,0,4.508,4.508,0,0,1,1.711,1.961,6.811,6.811,0,0,1,.605,2.949Zm-2.375-.516a4.787,4.787,0,0,0-.641-2.719,2.263,2.263,0,0,0-3.648-.012,4.732,4.732,0,0,0-.648,2.691v.555a4.847,4.847,0,0,0,.641,2.7,2.243,2.243,0,0,0,3.656.035,4.819,4.819,0,0,0,.641-2.7Zm-2.016-8.477h2.461L162.144,5h-1.836ZM177.191,17h-2.344l-4.562-7.484V17h-2.344V5.625h2.344l4.57,7.5v-7.5h2.336Z" transform="translate(-6359.396 8878.506)" fill="#12263f"/>
    <path id="Trazado_1055834" data-name="Trazado 1055834" d="M22.765,10.313h1.2a1.7,1.7,0,0,0,1.273-.43,1.574,1.574,0,0,0,.414-1.141,1.392,1.392,0,0,0-.41-1.07,1.59,1.59,0,0,0-1.129-.383,1.666,1.666,0,0,0-1.086.355,1.137,1.137,0,0,0-.437.926H20.335a2.777,2.777,0,0,1,.48-1.6,3.2,3.2,0,0,1,1.344-1.105,4.485,4.485,0,0,1,1.9-.4,4.253,4.253,0,0,1,2.828.863,2.945,2.945,0,0,1,1.023,2.379,2.394,2.394,0,0,1-.477,1.438,3.1,3.1,0,0,1-1.25,1.008,2.826,2.826,0,0,1,1.434,1.031,2.8,2.8,0,0,1,.473,1.625,2.994,2.994,0,0,1-1.105,2.43,4.445,4.445,0,0,1-2.926.914,4.214,4.214,0,0,1-2.785-.9,2.934,2.934,0,0,1-1.082-2.375h2.258a1.308,1.308,0,0,0,.48,1.047,2,2,0,0,0,2.445-.02,1.47,1.47,0,0,0,.457-1.129q0-1.7-1.875-1.7h-1.2Zm9.18,0h1.2a1.7,1.7,0,0,0,1.273-.43,1.574,1.574,0,0,0,.414-1.141,1.392,1.392,0,0,0-.41-1.07A1.59,1.59,0,0,0,33.3,7.289a1.666,1.666,0,0,0-1.086.355,1.137,1.137,0,0,0-.437.926H29.515a2.777,2.777,0,0,1,.48-1.6,3.2,3.2,0,0,1,1.344-1.105,4.485,4.485,0,0,1,1.9-.4,4.253,4.253,0,0,1,2.828.863,2.945,2.945,0,0,1,1.023,2.379,2.394,2.394,0,0,1-.477,1.438,3.1,3.1,0,0,1-1.25,1.008A2.826,2.826,0,0,1,36.8,12.188a2.8,2.8,0,0,1,.473,1.625,2.994,2.994,0,0,1-1.105,2.43,4.445,4.445,0,0,1-2.926.914,4.214,4.214,0,0,1-2.785-.9,2.934,2.934,0,0,1-1.082-2.375h2.258a1.308,1.308,0,0,0,.48,1.047,2,2,0,0,0,2.445-.02,1.47,1.47,0,0,0,.457-1.129q0-1.7-1.875-1.7h-1.2ZM46.624,17h-7.8V15.453l3.68-3.922a9.078,9.078,0,0,0,1.121-1.445,2.322,2.322,0,0,0,.363-1.172,1.738,1.738,0,0,0-.383-1.191,1.382,1.382,0,0,0-1.094-.434,1.49,1.49,0,0,0-1.207.527A2.089,2.089,0,0,0,40.866,9.2H38.6a3.729,3.729,0,0,1,.5-1.9,3.5,3.5,0,0,1,1.4-1.348,4.262,4.262,0,0,1,2.055-.488,4.036,4.036,0,0,1,2.73.844A2.985,2.985,0,0,1,46.257,8.7a3.825,3.825,0,0,1-.437,1.719,9.551,9.551,0,0,1-1.5,2.039L41.733,15.18h4.891Zm9.18,0h-7.8V15.453l3.68-3.922a9.078,9.078,0,0,0,1.121-1.445,2.322,2.322,0,0,0,.363-1.172,1.738,1.738,0,0,0-.383-1.191,1.382,1.382,0,0,0-1.094-.434,1.49,1.49,0,0,0-1.207.527A2.089,2.089,0,0,0,50.046,9.2H47.78a3.729,3.729,0,0,1,.5-1.9,3.5,3.5,0,0,1,1.4-1.348,4.262,4.262,0,0,1,2.055-.488,4.036,4.036,0,0,1,2.73.844A2.985,2.985,0,0,1,55.436,8.7,3.825,3.825,0,0,1,55,10.414a9.551,9.551,0,0,1-1.5,2.039L50.913,15.18H55.8Z" transform="translate(-6023.183 8820.67)" fill="#12263f"/>
    <path id="Trazado_1055833" data-name="Trazado 1055833" d="M5.764,10.313h1.2a1.7,1.7,0,0,0,1.273-.43,1.574,1.574,0,0,0,.414-1.141,1.392,1.392,0,0,0-.41-1.07,1.59,1.59,0,0,0-1.129-.383,1.666,1.666,0,0,0-1.086.355,1.137,1.137,0,0,0-.437.926H3.335a2.777,2.777,0,0,1,.48-1.6A3.2,3.2,0,0,1,5.159,5.867a4.485,4.485,0,0,1,1.9-.4,4.253,4.253,0,0,1,2.828.863,2.945,2.945,0,0,1,1.023,2.379,2.394,2.394,0,0,1-.477,1.438,3.1,3.1,0,0,1-1.25,1.008,2.826,2.826,0,0,1,1.434,1.031,2.8,2.8,0,0,1,.473,1.625,2.994,2.994,0,0,1-1.105,2.43,4.445,4.445,0,0,1-2.926.914,4.214,4.214,0,0,1-2.785-.9,2.934,2.934,0,0,1-1.082-2.375H5.452a1.308,1.308,0,0,0,.48,1.047,1.771,1.771,0,0,0,1.184.406,1.779,1.779,0,0,0,1.262-.426,1.47,1.47,0,0,0,.457-1.129q0-1.7-1.875-1.7h-1.2ZM20.3,12.3a5.763,5.763,0,0,1-.977,3.609,3.409,3.409,0,0,1-2.859,1.25,3.433,3.433,0,0,1-2.844-1.227,5.594,5.594,0,0,1-1.008-3.516V10.32A5.687,5.687,0,0,1,13.6,6.7a3.434,3.434,0,0,1,2.848-1.234A3.437,3.437,0,0,1,19.3,6.691,5.576,5.576,0,0,1,20.3,10.2Zm-2.258-2.3a4.165,4.165,0,0,0-.387-2.061,1.307,1.307,0,0,0-1.207-.645,1.284,1.284,0,0,0-1.176.614,3.9,3.9,0,0,0-.4,1.92v2.768a4.372,4.372,0,0,0,.379,2.068,1.29,1.29,0,0,0,1.215.676,1.268,1.268,0,0,0,1.2-.649,4.268,4.268,0,0,0,.383-1.986Zm4.586,7.982h-1.68L25.139,5.625h1.68ZM35.46,12.3a5.762,5.762,0,0,1-.977,3.609,3.409,3.409,0,0,1-2.859,1.25A3.433,3.433,0,0,1,28.78,15.93a5.594,5.594,0,0,1-1.008-3.516V10.32A5.687,5.687,0,0,1,28.76,6.7a3.434,3.434,0,0,1,2.848-1.234,3.437,3.437,0,0,1,2.844,1.223A5.576,5.576,0,0,1,35.46,10.2ZM33.2,9.995a4.165,4.165,0,0,0-.387-2.061,1.307,1.307,0,0,0-1.207-.645,1.284,1.284,0,0,0-1.176.614,3.9,3.9,0,0,0-.4,1.92v2.768a4.373,4.373,0,0,0,.379,2.068,1.29,1.29,0,0,0,1.215.676,1.268,1.268,0,0,0,1.2-.649A4.268,4.268,0,0,0,33.2,12.7Zm9.063,2.458a2.851,2.851,0,0,1-2.062.867,3.049,3.049,0,0,1-2.414-1.035,4.091,4.091,0,0,1-.906-2.793,4.357,4.357,0,0,1,.488-2.051,3.582,3.582,0,0,1,1.363-1.453,3.782,3.782,0,0,1,1.969-.52,3.617,3.617,0,0,1,2,.563,3.7,3.7,0,0,1,1.359,1.617,5.806,5.806,0,0,1,.492,2.414V10.9a6.579,6.579,0,0,1-1.414,4.469A5.346,5.346,0,0,1,39.131,17.1l-.555.008V15.227l.5-.008Q42.022,15.086,42.264,12.453Zm-1.508-.859a1.579,1.579,0,0,0,.941-.281,1.879,1.879,0,0,0,.6-.68V9.7a3.1,3.1,0,0,0-.437-1.781,1.358,1.358,0,0,0-1.172-.633,1.318,1.318,0,0,0-1.117.621,2.641,2.641,0,0,0-.437,1.559A2.57,2.57,0,0,0,39.557,11,1.387,1.387,0,0,0,40.756,11.594Zm6.211,6.383h-1.68L49.475,5.625h1.68ZM59.936,17h-7.8V15.453l3.68-3.922a9.078,9.078,0,0,0,1.121-1.445A2.322,2.322,0,0,0,57.3,8.914a1.738,1.738,0,0,0-.383-1.191,1.382,1.382,0,0,0-1.094-.434,1.49,1.49,0,0,0-1.207.527A2.089,2.089,0,0,0,54.178,9.2H51.913a3.729,3.729,0,0,1,.5-1.9,3.5,3.5,0,0,1,1.4-1.348,4.262,4.262,0,0,1,2.055-.488,4.036,4.036,0,0,1,2.73.844A2.985,2.985,0,0,1,59.569,8.7a3.825,3.825,0,0,1-.437,1.719,9.551,9.551,0,0,1-1.5,2.039L55.045,15.18h4.891Zm9.039-4.7A5.763,5.763,0,0,1,68,15.906a3.9,3.9,0,0,1-5.7.023,5.594,5.594,0,0,1-1.008-3.516V10.32A5.687,5.687,0,0,1,62.276,6.7a3.91,3.91,0,0,1,5.691-.012A5.576,5.576,0,0,1,68.975,10.2Zm-2.258-2.3a4.165,4.165,0,0,0-.387-2.061,1.307,1.307,0,0,0-1.207-.645,1.284,1.284,0,0,0-1.176.614,3.9,3.9,0,0,0-.4,1.92v2.768a4.372,4.372,0,0,0,.379,2.068,1.29,1.29,0,0,0,1.215.676,1.268,1.268,0,0,0,1.2-.649,4.268,4.268,0,0,0,.383-1.986ZM78.3,17H70.5V15.453l3.68-3.922A9.078,9.078,0,0,0,75.3,10.086a2.322,2.322,0,0,0,.363-1.172,1.738,1.738,0,0,0-.383-1.191,1.382,1.382,0,0,0-1.094-.434,1.49,1.49,0,0,0-1.207.527A2.089,2.089,0,0,0,72.538,9.2H70.272a3.729,3.729,0,0,1,.5-1.9,3.5,3.5,0,0,1,1.4-1.348,4.262,4.262,0,0,1,2.055-.488,4.036,4.036,0,0,1,2.73.844A2.985,2.985,0,0,1,77.928,8.7a3.825,3.825,0,0,1-.437,1.719,9.551,9.551,0,0,1-1.5,2.039L73.4,15.18H78.3Zm9.039-4.7a5.763,5.763,0,0,1-.977,3.609,3.9,3.9,0,0,1-5.7.023,5.594,5.594,0,0,1-1.008-3.516V10.32A5.687,5.687,0,0,1,80.635,6.7a3.91,3.91,0,0,1,5.691-.012A5.576,5.576,0,0,1,87.335,10.2Zm-2.258-2.3a4.165,4.165,0,0,0-.387-2.061,1.307,1.307,0,0,0-1.207-.645,1.284,1.284,0,0,0-1.176.614,3.9,3.9,0,0,0-.4,1.92v2.768a4.373,4.373,0,0,0,.379,2.068,1.29,1.29,0,0,0,1.215.676,1.268,1.268,0,0,0,1.2-.649,4.268,4.268,0,0,0,.383-1.986Z" transform="translate(-6030.183 8879.338)" fill="#12263f"/>
    <path id="Trazado_1034201" data-name="Trazado 1034201" d="M1093.565,59h0Z" transform="translate(-6990.03 9095.338)" fill="#fd9826"/>
    <path id="Trazado_1055826" data-name="Trazado 1055826" d="M0,0H1092.683" transform="translate(-6989.589 9035.838)" fill="none"/>
    <path id="Trazado_1055816" data-name="Trazado 1055816" d="M10.266,17H7.922L3.359,9.516V17H1.016V5.625H3.359l4.57,7.5v-7.5h2.336ZM14.8,17H12.461V5.625H14.8ZM25.539,7.523H22.055V17H19.711V7.523H16.273v-1.9h9.266ZM37.563,8.648a2.646,2.646,0,0,1-.414,1.469,2.98,2.98,0,0,1-1.141,1.023,3.3,3.3,0,0,1,1.313,1.1,2.816,2.816,0,0,1,.484,1.645,2.981,2.981,0,0,1-1.031,2.395,4.183,4.183,0,0,1-2.8.879,4.2,4.2,0,0,1-2.812-.883,2.974,2.974,0,0,1-1.039-2.391,2.834,2.834,0,0,1,.484-1.648,3.239,3.239,0,0,1,1.3-1.094,2.95,2.95,0,0,1-1.137-1.023,2.664,2.664,0,0,1-.41-1.469,2.948,2.948,0,0,1,.969-2.316,3.814,3.814,0,0,1,2.633-.863,3.839,3.839,0,0,1,2.629.855A2.937,2.937,0,0,1,37.563,8.648Zm-2.023,5.07a1.638,1.638,0,0,0-.43-1.187,1.719,1.719,0,0,0-2.3,0,1.635,1.635,0,0,0-.43,1.191,1.634,1.634,0,0,0,.422,1.172,1.762,1.762,0,0,0,2.324.016A1.631,1.631,0,0,0,35.539,13.719ZM35.3,8.758a1.563,1.563,0,0,0-.352-1.066,1.43,1.43,0,0,0-1.977-.012,1.553,1.553,0,0,0-.352,1.078,1.633,1.633,0,0,0,.352,1.094,1.391,1.391,0,0,0,1.98,0A1.645,1.645,0,0,0,35.3,8.758Zm10.148-3.25V7.367h-.219a3.836,3.836,0,0,0-2.465.8,3.238,3.238,0,0,0-1.121,2.148,3.075,3.075,0,0,1,2.289-.922A2.9,2.9,0,0,1,46.3,10.453a4.259,4.259,0,0,1,.875,2.8,4.19,4.19,0,0,1-.48,2.008,3.446,3.446,0,0,1-1.359,1.4,3.949,3.949,0,0,1-1.988.5,3.689,3.689,0,0,1-2.9-1.25,4.852,4.852,0,0,1-1.105-3.336v-.812a7.3,7.3,0,0,1,.7-3.27,5.127,5.127,0,0,1,2.008-2.2,5.884,5.884,0,0,1,3.035-.785Zm-2.2,5.7a1.8,1.8,0,0,0-.992.285,1.715,1.715,0,0,0-.656.753v.686a3.04,3.04,0,0,0,.445,1.766,1.439,1.439,0,0,0,1.25.635,1.423,1.423,0,0,0,1.176-.573,2.337,2.337,0,0,0,.449-1.485,2.333,2.333,0,0,0-.453-1.5A1.477,1.477,0,0,0,43.25,11.211ZM56.164,12.3a5.762,5.762,0,0,1-.977,3.609,3.9,3.9,0,0,1-5.7.023,5.594,5.594,0,0,1-1.008-3.516V10.32A5.687,5.687,0,0,1,49.465,6.7a3.91,3.91,0,0,1,5.691-.012A5.576,5.576,0,0,1,56.164,10.2Zm-2.258-2.3a4.165,4.165,0,0,0-.387-2.061,1.307,1.307,0,0,0-1.207-.645,1.284,1.284,0,0,0-1.176.614,3.9,3.9,0,0,0-.4,1.92v2.768a4.372,4.372,0,0,0,.379,2.068,1.29,1.29,0,0,0,1.215.676,1.268,1.268,0,0,0,1.2-.649,4.268,4.268,0,0,0,.383-1.986ZM63.172,17H60.914V8.3l-2.7.836V7.3L62.93,5.609h.242Zm11.352-4.7a5.763,5.763,0,0,1-.977,3.609,3.9,3.9,0,0,1-5.7.023,5.594,5.594,0,0,1-1.008-3.516V10.32A5.687,5.687,0,0,1,67.824,6.7a3.91,3.91,0,0,1,5.691-.012A5.576,5.576,0,0,1,74.523,10.2Zm-2.258-2.3a4.165,4.165,0,0,0-.387-2.061,1.307,1.307,0,0,0-1.207-.645A1.284,1.284,0,0,0,69.5,7.9a3.9,3.9,0,0,0-.4,1.92v2.768a4.373,4.373,0,0,0,.379,2.068,1.29,1.29,0,0,0,1.215.676,1.268,1.268,0,0,0,1.2-.649,4.268,4.268,0,0,0,.383-1.986ZM83.7,12.3a5.763,5.763,0,0,1-.977,3.609,3.9,3.9,0,0,1-5.7.023,5.594,5.594,0,0,1-1.008-3.516V10.32A5.687,5.687,0,0,1,77,6.7,3.91,3.91,0,0,1,82.7,6.691,5.576,5.576,0,0,1,83.7,10.2Zm-2.258-2.3a4.165,4.165,0,0,0-.387-2.061,1.307,1.307,0,0,0-1.207-.645,1.284,1.284,0,0,0-1.176.614,3.9,3.9,0,0,0-.4,1.92v2.768a4.373,4.373,0,0,0,.379,2.068,1.29,1.29,0,0,0,1.215.676,1.268,1.268,0,0,0,1.2-.649,4.268,4.268,0,0,0,.383-1.986Z" transform="translate(-6923 8937.508)" fill="#12263f"/>
    <path id="Trazado_1055815" data-name="Trazado 1055815" d="M31.654,12.836H29.787V17H27.443V5.625H31.67a4.778,4.778,0,0,1,3.109.9,3.1,3.1,0,0,1,1.094,2.539,3.5,3.5,0,0,1-.5,1.941,3.437,3.437,0,0,1-1.527,1.238L36.3,16.891V17H33.787Zm-1.867-1.9h1.891a1.936,1.936,0,0,0,1.367-.449,1.606,1.606,0,0,0,.484-1.238,1.719,1.719,0,0,0-.457-1.266,1.9,1.9,0,0,0-1.4-.461H29.787Zm12.078,1.9H40V17H37.654V5.625h4.227a4.778,4.778,0,0,1,3.109.9,3.1,3.1,0,0,1,1.094,2.539A3.5,3.5,0,0,1,45.58,11a3.437,3.437,0,0,1-1.527,1.238l2.461,4.648V17H44ZM40,10.938h1.891a1.936,1.936,0,0,0,1.367-.449A1.606,1.606,0,0,0,43.74,9.25a1.719,1.719,0,0,0-.457-1.266,1.9,1.9,0,0,0-1.4-.461H40ZM50.357,17H48.014V5.625h2.344Z" transform="translate(-6541.975 8879.992)" fill="#12263f"/>
    <path id="Trazado_1035692" data-name="Trazado 1035692" d="M0,0H1092.683V59H0Z" transform="translate(-6990.03 8976.379)" fill="#feead4"/>
    <path id="Trazado_1055824" data-name="Trazado 1055824" d="M17.781,13.211A4.025,4.025,0,0,1,16.426,16.1,4.76,4.76,0,0,1,13.2,17.156a4.28,4.28,0,0,1-3.441-1.473,6.038,6.038,0,0,1-1.254-4.043v-.7a6.819,6.819,0,0,1,.578-2.891,4.332,4.332,0,0,1,1.652-1.918,4.629,4.629,0,0,1,2.5-.668,4.637,4.637,0,0,1,3.172,1.055A4.326,4.326,0,0,1,17.8,9.484H15.453a2.376,2.376,0,0,0-.613-1.6,2.271,2.271,0,0,0-1.605-.5,1.991,1.991,0,0,0-1.754.84,4.707,4.707,0,0,0-.6,2.605V11.7a5.038,5.038,0,0,0,.559,2.7,1.954,1.954,0,0,0,1.762.852,2.314,2.314,0,0,0,1.621-.5,2.241,2.241,0,0,0,.613-1.535ZM28.664,11.57a6.867,6.867,0,0,1-.594,2.945,4.472,4.472,0,0,1-1.7,1.953,5.021,5.021,0,0,1-5.059.008,4.515,4.515,0,0,1-1.719-1.941,6.67,6.67,0,0,1-.617-2.9V11.07a6.831,6.831,0,0,1,.605-2.957,4.508,4.508,0,0,1,1.711-1.961,5.014,5.014,0,0,1,5.055,0,4.508,4.508,0,0,1,1.711,1.961,6.811,6.811,0,0,1,.605,2.949Zm-2.375-.516a4.787,4.787,0,0,0-.641-2.719A2.263,2.263,0,0,0,22,8.324a4.732,4.732,0,0,0-.648,2.691v.555a4.847,4.847,0,0,0,.641,2.7,2.243,2.243,0,0,0,3.656.035,4.819,4.819,0,0,0,.641-2.7ZM39.617,17H37.273L32.711,9.516V17H30.367V5.625h2.344l4.57,7.5v-7.5h2.336Zm10.977-3.789A4.025,4.025,0,0,1,49.238,16.1a4.76,4.76,0,0,1-3.223,1.055,4.28,4.28,0,0,1-3.441-1.473,6.038,6.038,0,0,1-1.254-4.043v-.7A6.819,6.819,0,0,1,41.9,8.055a4.332,4.332,0,0,1,1.652-1.918,5.164,5.164,0,0,1,5.668.387,4.326,4.326,0,0,1,1.391,2.961H48.266a2.376,2.376,0,0,0-.613-1.6,2.271,2.271,0,0,0-1.605-.5,1.991,1.991,0,0,0-1.754.84,4.707,4.707,0,0,0-.6,2.605V11.7a5.038,5.038,0,0,0,.559,2.7,1.954,1.954,0,0,0,1.762.852,2.314,2.314,0,0,0,1.621-.5,2.241,2.241,0,0,0,.613-1.535Zm8.383-1.141h-4.5v3.047h5.281V17H52.133V5.625h7.609v1.9H54.477v2.711h4.5Zm4.5.922V17H61.133V5.625H65.57a5.134,5.134,0,0,1,2.254.469,3.454,3.454,0,0,1,1.5,1.332,3.714,3.714,0,0,1,.523,1.965A3.266,3.266,0,0,1,68.7,12.027a4.767,4.767,0,0,1-3.168.965Zm0-1.9H65.57a2.059,2.059,0,0,0,1.418-.437,1.591,1.591,0,0,0,.488-1.25,1.876,1.876,0,0,0-.492-1.352,1.839,1.839,0,0,0-1.359-.531H63.477Zm16.539-3.57H76.531V17H74.188V7.523H70.75v-1.9h9.266ZM90.477,11.57a6.867,6.867,0,0,1-.594,2.945,4.472,4.472,0,0,1-1.7,1.953,5.021,5.021,0,0,1-5.059.008,4.515,4.515,0,0,1-1.719-1.941,6.67,6.67,0,0,1-.617-2.9V11.07a6.831,6.831,0,0,1,.605-2.957,4.508,4.508,0,0,1,1.711-1.961,5.014,5.014,0,0,1,5.055,0,4.508,4.508,0,0,1,1.711,1.961,6.811,6.811,0,0,1,.605,2.949ZM88.1,11.055a4.787,4.787,0,0,0-.641-2.719,2.263,2.263,0,0,0-3.648-.012,4.732,4.732,0,0,0-.648,2.691v.555a4.847,4.847,0,0,0,.641,2.7,2.243,2.243,0,0,0,3.656.035,4.819,4.819,0,0,0,.641-2.7Z" transform="translate(-6782.782 8998.379)" fill="#12263f"/>
    <path id="Trazado_1055832" data-name="Trazado 1055832" d="M6.011,14.18,8.589,5.625H11.2L7.238,17H4.792L.847,5.625h2.6Zm12.094.477H14L13.214,17H10.722L14.956,5.625h2.172L21.386,17H18.894Zm-3.477-1.9h2.844L16.042,8.5Zm10.164,2.359h4.977V17h-7.32V5.625h2.344ZM39.956,11.57a6.867,6.867,0,0,1-.594,2.945,4.472,4.472,0,0,1-1.7,1.953,5.021,5.021,0,0,1-5.059.008,4.515,4.515,0,0,1-1.719-1.941,6.67,6.67,0,0,1-.617-2.9V11.07a6.831,6.831,0,0,1,.605-2.957,4.508,4.508,0,0,1,1.711-1.961,5.014,5.014,0,0,1,5.055,0,4.508,4.508,0,0,1,1.711,1.961,6.811,6.811,0,0,1,.605,2.949Zm-2.375-.516a4.787,4.787,0,0,0-.641-2.719,2.263,2.263,0,0,0-3.648-.012,4.732,4.732,0,0,0-.648,2.691v.555a4.847,4.847,0,0,0,.641,2.7,2.243,2.243,0,0,0,3.656.035,4.819,4.819,0,0,0,.641-2.7Zm8.289,1.781H44V17H41.659V5.625h4.227a4.778,4.778,0,0,1,3.109.9,3.1,3.1,0,0,1,1.094,2.539,3.5,3.5,0,0,1-.5,1.941,3.437,3.437,0,0,1-1.527,1.238l2.461,4.648V17H48ZM44,10.938h1.891a1.936,1.936,0,0,0,1.367-.449,1.606,1.606,0,0,0,.484-1.238,1.719,1.719,0,0,0-.457-1.266,1.9,1.9,0,0,0-1.4-.461H44ZM63.949,7.523H60.464V17H58.12V7.523H54.683v-1.9h9.266ZM74.409,11.57a6.867,6.867,0,0,1-.594,2.945,4.472,4.472,0,0,1-1.7,1.953,5.021,5.021,0,0,1-5.059.008,4.515,4.515,0,0,1-1.719-1.941,6.67,6.67,0,0,1-.617-2.9V11.07a6.831,6.831,0,0,1,.605-2.957,4.508,4.508,0,0,1,1.711-1.961,5.014,5.014,0,0,1,5.055,0A4.508,4.508,0,0,1,73.8,8.113a6.811,6.811,0,0,1,.605,2.949Zm-2.375-.516a4.787,4.787,0,0,0-.641-2.719,2.263,2.263,0,0,0-3.648-.012,4.732,4.732,0,0,0-.648,2.691v.555a4.847,4.847,0,0,0,.641,2.7,2.243,2.243,0,0,0,3.656.035,4.819,4.819,0,0,0,.641-2.7ZM84.011,7.523H80.527V17H78.183V7.523H74.745v-1.9h9.266Zm6.82,7.133H86.722L85.941,17H83.449L87.683,5.625h2.172L94.113,17H91.62Zm-3.477-1.9H90.2L88.769,8.5Zm10.164,2.359H102.5V17h-7.32V5.625h2.344Z" transform="translate(-6039.394 8996.664)" fill="#12263f"/>
    <path id="Trazado_1055828" data-name="Trazado 1055828" d="M0,0H1093.458V39.247H0Z" transform="translate(-6990.021 9074.596)" fill="#fff"/>
    <path id="Trazado_1055817" data-name="Trazado 1055817" d="M0,0V179" transform="translate(-6402.239 8797.879)" fill="none" stroke="#dcdcdc" stroke-width="1"/>
    <path id="Trazado_1035693" data-name="Trazado 1035693" d="M0,0V433.7" transform="translate(-6083.87 8797.879)" fill="none" stroke="#ededee" stroke-width="1"/>
    <path id="Trazado_1055814" data-name="Trazado 1055814" d="M0,0V119" transform="translate(-6616.542 8857.879)" fill="none" stroke="#e2e2e2" stroke-width="1"/>
    <path id="Trazado_1055820" data-name="Trazado 1055820" d="M0,0V255.141" transform="translate(-6477.201 8976.873)" fill="none" stroke="#e0e0e0" stroke-width="1"/>
    <path id="Trazado_1055821" data-name="Trazado 1055821" d="M0,0V255.176" transform="translate(-6425.168 8976.838)" fill="none" stroke="#e0e0e0" stroke-width="1"/>
    <path id="Trazado_1055822" data-name="Trazado 1055822" d="M0,0V253.023" transform="translate(-6373.136 8977.269)" fill="none" stroke="#e0e0e0" stroke-width="1"/>
    <path id="Trazado_1055823" data-name="Trazado 1055823" d="M0,0V253.023" transform="translate(-6321.104 8978.56)" fill="none" stroke="#e0e0e0" stroke-width="1"/>
    <path id="Trazado_1055835" data-name="Trazado 1055835" d="M26.4,14.07a1.626,1.626,0,0,0-.5-1.211,4.508,4.508,0,0,0-1.7-.891,5.447,5.447,0,0,1-2.426-1.324,2.921,2.921,0,0,1-.762-2.074,3,3,0,0,1,.746-2.1,3.17,3.17,0,0,1,2.051-.977V3.781h1.164V5.5a3.011,3.011,0,0,1,2.043,1.1,3.959,3.959,0,0,1,.73,2.523H26.31a2.721,2.721,0,0,0-.523-1.756,1.72,1.72,0,0,0-1.414-.651A1.951,1.951,0,0,0,22.95,7.2a1.791,1.791,0,0,0-.492,1.342,1.636,1.636,0,0,0,.52,1.272,4.786,4.786,0,0,0,1.711.861,7.2,7.2,0,0,1,1.859.852,2.991,2.991,0,0,1,.984,1.082,3.128,3.128,0,0,1,.316,1.445,2.9,2.9,0,0,1-.793,2.125,3.516,3.516,0,0,1-2.223.953v1.492H23.677V17.133A3.369,3.369,0,0,1,21.4,16.1a3.493,3.493,0,0,1-.824-2.449h1.445a2.3,2.3,0,0,0,.57,1.672,2.153,2.153,0,0,0,1.617.586,2.426,2.426,0,0,0,1.609-.492A1.662,1.662,0,0,0,26.4,14.07Zm13.3-.891h1.578v1.18H39.708V17H38.255V14.359h-5.18v-.852l5.094-7.883h1.539Zm-4.992,0h3.539V7.6l-.172.313Zm15.008-1.031a6.61,6.61,0,0,1-.867,3.773,3.084,3.084,0,0,1-2.711,1.234,3.107,3.107,0,0,1-2.7-1.207,6.274,6.274,0,0,1-.906-3.605v-1.93a6.463,6.463,0,0,1,.867-3.727A3.108,3.108,0,0,1,46.13,5.469a3.136,3.136,0,0,1,2.7,1.176,6.237,6.237,0,0,1,.891,3.629Zm-1.445-1.977A5.3,5.3,0,0,0,47.763,7.5a1.775,1.775,0,0,0-1.633-.84,1.751,1.751,0,0,0-1.617.836,5.171,5.171,0,0,0-.523,2.57v2.313a5.381,5.381,0,0,0,.535,2.723,1.771,1.771,0,0,0,1.621.879,1.747,1.747,0,0,0,1.59-.828,5.186,5.186,0,0,0,.543-2.609Zm10.43,1.977a6.61,6.61,0,0,1-.867,3.773,3.6,3.6,0,0,1-5.406.027,6.274,6.274,0,0,1-.906-3.605v-1.93A6.463,6.463,0,0,1,52.4,6.688a3.668,3.668,0,0,1,5.422-.043,6.237,6.237,0,0,1,.891,3.629Zm-1.445-1.977A5.3,5.3,0,0,0,56.747,7.5a1.775,1.775,0,0,0-1.633-.84,1.751,1.751,0,0,0-1.617.836,5.171,5.171,0,0,0-.523,2.57v2.313a5.381,5.381,0,0,0,.535,2.723,1.771,1.771,0,0,0,1.621.879,1.747,1.747,0,0,0,1.59-.828,5.186,5.186,0,0,0,.543-2.609Zm3.477,6.07a.905.905,0,0,1,.223-.625.848.848,0,0,1,.668-.25.874.874,0,0,1,.676.25.887.887,0,0,1,.23.625.839.839,0,0,1-.23.6.89.89,0,0,1-.676.242.8.8,0,0,1-.891-.844ZM71.9,12.148a6.61,6.61,0,0,1-.867,3.773,3.6,3.6,0,0,1-5.406.027,6.274,6.274,0,0,1-.906-3.605v-1.93a6.463,6.463,0,0,1,.867-3.727,3.668,3.668,0,0,1,5.422-.043,6.237,6.237,0,0,1,.891,3.629Zm-1.445-1.977A5.3,5.3,0,0,0,69.943,7.5a1.775,1.775,0,0,0-1.633-.84,1.751,1.751,0,0,0-1.617.836,5.171,5.171,0,0,0-.523,2.57v2.313A5.381,5.381,0,0,0,66.7,15.1a1.771,1.771,0,0,0,1.621.879,1.747,1.747,0,0,0,1.59-.828,5.186,5.186,0,0,0,.543-2.609Zm10.43,1.977a6.61,6.61,0,0,1-.867,3.773,3.6,3.6,0,0,1-5.406.027,6.274,6.274,0,0,1-.906-3.605v-1.93a6.463,6.463,0,0,1,.867-3.727A3.668,3.668,0,0,1,80,6.645a6.237,6.237,0,0,1,.891,3.629Zm-1.445-1.977A5.3,5.3,0,0,0,78.927,7.5a1.775,1.775,0,0,0-1.633-.84,1.751,1.751,0,0,0-1.617.836,5.171,5.171,0,0,0-.523,2.57v2.313a5.381,5.381,0,0,0,.535,2.723,1.771,1.771,0,0,0,1.621.879,1.747,1.747,0,0,0,1.59-.828,5.186,5.186,0,0,0,.543-2.609Zm10.43,1.977a6.61,6.61,0,0,1-.867,3.773,3.6,3.6,0,0,1-5.406.027,6.274,6.274,0,0,1-.906-3.605v-1.93a6.463,6.463,0,0,1,.867-3.727,3.668,3.668,0,0,1,5.422-.043,6.237,6.237,0,0,1,.891,3.629Zm-1.445-1.977A5.3,5.3,0,0,0,87.911,7.5a1.775,1.775,0,0,0-1.633-.84,1.751,1.751,0,0,0-1.617.836,5.171,5.171,0,0,0-.523,2.57v2.313a5.381,5.381,0,0,0,.535,2.723,1.771,1.771,0,0,0,1.621.879,1.747,1.747,0,0,0,1.59-.828,5.186,5.186,0,0,0,.543-2.609Zm2.039,41.586H86.653v-1.18h3.813ZM26.4,92.07a1.626,1.626,0,0,0-.5-1.211,4.508,4.508,0,0,0-1.7-.891,5.447,5.447,0,0,1-2.426-1.324,2.921,2.921,0,0,1-.762-2.074,3,3,0,0,1,.746-2.1,3.17,3.17,0,0,1,2.051-.977V81.781h1.164V83.5a3.011,3.011,0,0,1,2.043,1.1,3.959,3.959,0,0,1,.73,2.523H26.31a2.721,2.721,0,0,0-.523-1.756,1.72,1.72,0,0,0-1.414-.651,1.951,1.951,0,0,0-1.422.481,1.791,1.791,0,0,0-.492,1.342,1.636,1.636,0,0,0,.52,1.272,4.786,4.786,0,0,0,1.711.861,7.2,7.2,0,0,1,1.859.852,2.991,2.991,0,0,1,.984,1.082,3.128,3.128,0,0,1,.316,1.445,2.9,2.9,0,0,1-.793,2.125,3.516,3.516,0,0,1-2.223.953v1.492H23.677V95.133A3.369,3.369,0,0,1,21.4,94.1a3.493,3.493,0,0,1-.824-2.449h1.445a2.3,2.3,0,0,0,.57,1.672,2.153,2.153,0,0,0,1.617.586,2.426,2.426,0,0,0,1.609-.492A1.662,1.662,0,0,0,26.4,92.07Zm13.3-.891h1.578v1.18H39.708V95H38.255V92.359h-5.18v-.852l5.094-7.883h1.539Zm-4.992,0h3.539V85.6l-.172.313Zm15.008-1.031a6.61,6.61,0,0,1-.867,3.773,3.084,3.084,0,0,1-2.711,1.234,3.107,3.107,0,0,1-2.7-1.207,6.274,6.274,0,0,1-.906-3.605v-1.93a6.463,6.463,0,0,1,.867-3.727,3.108,3.108,0,0,1,2.719-1.219,3.136,3.136,0,0,1,2.7,1.176,6.237,6.237,0,0,1,.891,3.629Zm-1.445-1.977a5.3,5.3,0,0,0-.516-2.676,1.775,1.775,0,0,0-1.633-.84,1.751,1.751,0,0,0-1.617.836,5.171,5.171,0,0,0-.523,2.57v2.313a5.381,5.381,0,0,0,.535,2.723,1.771,1.771,0,0,0,1.621.879,1.747,1.747,0,0,0,1.59-.828,5.186,5.186,0,0,0,.543-2.609Zm10.43,1.977a6.61,6.61,0,0,1-.867,3.773,3.6,3.6,0,0,1-5.406.027,6.274,6.274,0,0,1-.906-3.605v-1.93a6.463,6.463,0,0,1,.867-3.727,3.668,3.668,0,0,1,5.422-.043,6.237,6.237,0,0,1,.891,3.629Zm-1.445-1.977a5.3,5.3,0,0,0-.516-2.676,1.775,1.775,0,0,0-1.633-.84,1.751,1.751,0,0,0-1.617.836,5.171,5.171,0,0,0-.523,2.57v2.313a5.381,5.381,0,0,0,.535,2.723,1.771,1.771,0,0,0,1.621.879,1.747,1.747,0,0,0,1.59-.828,5.186,5.186,0,0,0,.543-2.609Zm3.477,6.07a.905.905,0,0,1,.223-.625.848.848,0,0,1,.668-.25.874.874,0,0,1,.676.25.887.887,0,0,1,.23.625.839.839,0,0,1-.23.6.89.89,0,0,1-.676.242.8.8,0,0,1-.891-.844ZM71.9,90.148a6.61,6.61,0,0,1-.867,3.773,3.6,3.6,0,0,1-5.406.027,6.274,6.274,0,0,1-.906-3.605v-1.93a6.463,6.463,0,0,1,.867-3.727,3.668,3.668,0,0,1,5.422-.043,6.237,6.237,0,0,1,.891,3.629Zm-1.445-1.977a5.3,5.3,0,0,0-.516-2.676,1.775,1.775,0,0,0-1.633-.84,1.751,1.751,0,0,0-1.617.836,5.171,5.171,0,0,0-.523,2.57v2.313A5.381,5.381,0,0,0,66.7,93.1a1.771,1.771,0,0,0,1.621.879,1.747,1.747,0,0,0,1.59-.828,5.186,5.186,0,0,0,.543-2.609Zm10.43,1.977a6.61,6.61,0,0,1-.867,3.773,3.6,3.6,0,0,1-5.406.027,6.274,6.274,0,0,1-.906-3.605v-1.93a6.463,6.463,0,0,1,.867-3.727A3.668,3.668,0,0,1,80,84.645a6.237,6.237,0,0,1,.891,3.629Zm-1.445-1.977a5.3,5.3,0,0,0-.516-2.676,1.775,1.775,0,0,0-1.633-.84,1.751,1.751,0,0,0-1.617.836,5.171,5.171,0,0,0-.523,2.57v2.313a5.381,5.381,0,0,0,.535,2.723,1.771,1.771,0,0,0,1.621.879,1.747,1.747,0,0,0,1.59-.828,5.186,5.186,0,0,0,.543-2.609Zm10.43,1.977a6.61,6.61,0,0,1-.867,3.773,3.6,3.6,0,0,1-5.406.027,6.274,6.274,0,0,1-.906-3.605v-1.93a6.463,6.463,0,0,1,.867-3.727,3.668,3.668,0,0,1,5.422-.043,6.237,6.237,0,0,1,.891,3.629Zm-1.445-1.977a5.3,5.3,0,0,0-.516-2.676,1.775,1.775,0,0,0-1.633-.84,1.751,1.751,0,0,0-1.617.836,5.171,5.171,0,0,0-.523,2.57v2.313a5.381,5.381,0,0,0,.535,2.723,1.771,1.771,0,0,0,1.621.879,1.747,1.747,0,0,0,1.59-.828,5.186,5.186,0,0,0,.543-2.609Zm2.039,41.586H86.653v-1.18h3.813ZM26.4,170.07a1.626,1.626,0,0,0-.5-1.211,4.508,4.508,0,0,0-1.7-.891,5.447,5.447,0,0,1-2.426-1.324,2.92,2.92,0,0,1-.762-2.074,3,3,0,0,1,.746-2.1,3.17,3.17,0,0,1,2.051-.977v-1.711h1.164V161.5a3.011,3.011,0,0,1,2.043,1.1,3.959,3.959,0,0,1,.73,2.523H26.31a2.721,2.721,0,0,0-.523-1.756,1.72,1.72,0,0,0-1.414-.651,1.951,1.951,0,0,0-1.422.481,1.791,1.791,0,0,0-.492,1.342,1.636,1.636,0,0,0,.52,1.272,4.786,4.786,0,0,0,1.711.861,7.2,7.2,0,0,1,1.859.852,2.991,2.991,0,0,1,.984,1.082,3.128,3.128,0,0,1,.316,1.445,2.9,2.9,0,0,1-.793,2.125,3.516,3.516,0,0,1-2.223.953v1.492H23.677v-1.492A3.369,3.369,0,0,1,21.4,172.1a3.493,3.493,0,0,1-.824-2.449h1.445a2.3,2.3,0,0,0,.57,1.672,2.153,2.153,0,0,0,1.617.586,2.426,2.426,0,0,0,1.609-.492A1.662,1.662,0,0,0,26.4,170.07Zm13.3-.891h1.578v1.18H39.708V173H38.255v-2.641h-5.18v-.852l5.094-7.883h1.539Zm-4.992,0h3.539V163.6l-.172.313Zm15.008-1.031a6.61,6.61,0,0,1-.867,3.773,3.084,3.084,0,0,1-2.711,1.234,3.107,3.107,0,0,1-2.7-1.207,6.274,6.274,0,0,1-.906-3.605v-1.93a6.463,6.463,0,0,1,.867-3.727,3.108,3.108,0,0,1,2.719-1.219,3.136,3.136,0,0,1,2.7,1.176,6.237,6.237,0,0,1,.891,3.629Zm-1.445-1.977a5.3,5.3,0,0,0-.516-2.676,1.775,1.775,0,0,0-1.633-.84,1.751,1.751,0,0,0-1.617.836,5.171,5.171,0,0,0-.523,2.57v2.313a5.381,5.381,0,0,0,.535,2.723,1.771,1.771,0,0,0,1.621.879,1.747,1.747,0,0,0,1.59-.828,5.186,5.186,0,0,0,.543-2.609Zm10.43,1.977a6.61,6.61,0,0,1-.867,3.773,3.6,3.6,0,0,1-5.406.027,6.274,6.274,0,0,1-.906-3.605v-1.93a6.463,6.463,0,0,1,.867-3.727,3.668,3.668,0,0,1,5.422-.043,6.237,6.237,0,0,1,.891,3.629Zm-1.445-1.977a5.3,5.3,0,0,0-.516-2.676,1.775,1.775,0,0,0-1.633-.84,1.751,1.751,0,0,0-1.617.836,5.171,5.171,0,0,0-.523,2.57v2.313a5.381,5.381,0,0,0,.535,2.723,1.771,1.771,0,0,0,1.621.879,1.747,1.747,0,0,0,1.59-.828,5.186,5.186,0,0,0,.543-2.609Zm3.477,6.07a.905.905,0,0,1,.223-.625.848.848,0,0,1,.668-.25.874.874,0,0,1,.676.25.887.887,0,0,1,.23.625.839.839,0,0,1-.23.6.89.89,0,0,1-.676.242.8.8,0,0,1-.891-.844ZM71.9,168.148a6.61,6.61,0,0,1-.867,3.773,3.6,3.6,0,0,1-5.406.027,6.274,6.274,0,0,1-.906-3.605v-1.93a6.463,6.463,0,0,1,.867-3.727,3.668,3.668,0,0,1,5.422-.043,6.237,6.237,0,0,1,.891,3.629Zm-1.445-1.977a5.3,5.3,0,0,0-.516-2.676,1.775,1.775,0,0,0-1.633-.84,1.751,1.751,0,0,0-1.617.836,5.171,5.171,0,0,0-.523,2.57v2.313A5.381,5.381,0,0,0,66.7,171.1a1.771,1.771,0,0,0,1.621.879,1.747,1.747,0,0,0,1.59-.828,5.186,5.186,0,0,0,.543-2.609Zm10.43,1.977a6.61,6.61,0,0,1-.867,3.773,3.6,3.6,0,0,1-5.406.027,6.274,6.274,0,0,1-.906-3.605v-1.93a6.463,6.463,0,0,1,.867-3.727A3.668,3.668,0,0,1,80,162.645a6.237,6.237,0,0,1,.891,3.629Zm-1.445-1.977a5.3,5.3,0,0,0-.516-2.676,1.775,1.775,0,0,0-1.633-.84,1.751,1.751,0,0,0-1.617.836,5.171,5.171,0,0,0-.523,2.57v2.313a5.381,5.381,0,0,0,.535,2.723,1.771,1.771,0,0,0,1.621.879,1.747,1.747,0,0,0,1.59-.828,5.186,5.186,0,0,0,.543-2.609Zm10.43,1.977a6.61,6.61,0,0,1-.867,3.773,3.6,3.6,0,0,1-5.406.027,6.274,6.274,0,0,1-.906-3.605v-1.93a6.463,6.463,0,0,1,.867-3.727,3.668,3.668,0,0,1,5.422-.043,6.237,6.237,0,0,1,.891,3.629Zm-1.445-1.977a5.3,5.3,0,0,0-.516-2.676,1.775,1.775,0,0,0-1.633-.84,1.751,1.751,0,0,0-1.617.836,5.171,5.171,0,0,0-.523,2.57v2.313a5.381,5.381,0,0,0,.535,2.723,1.771,1.771,0,0,0,1.621.879,1.747,1.747,0,0,0,1.59-.828,5.186,5.186,0,0,0,.543-2.609Z" transform="translate(-6004.558 9045.596)" fill="#00223d"/>
  </g>
</svg>
