<svg xmlns="http://www.w3.org/2000/svg" width="610" height="460" viewBox="0 0 610 460">
  <g id="Grupo_1180999" data-name="Grupo 1180999" transform="translate(-180 -2940.109)">
    <path id="Trazado_1054822" data-name="Trazado 1054822" d="M0,0H610V460H0Z" transform="translate(180 2940.109)" fill="#fff"/>
    <path id="Rectángulo_407846_-_Contorno" data-name="Rectángulo 407846 - Contorno" d="M1,1V459H609V1H1M0,0H610V460H0Z" transform="translate(180 2940.109)" fill="#707070"/>
    <path id="Trazado_1054823" data-name="Trazado 1054823" d="M3.924,13.243l4.04-8.2H9.413L4.272,15H3.138L1.121,5.047H2.468Zm8.2,1.894a2.667,2.667,0,0,1-2.16-1.019A3.505,3.505,0,0,1,9.3,11.582l.034-.294a4.921,4.921,0,0,1,.653-2.01A3.8,3.8,0,0,1,11.3,7.908a3.054,3.054,0,0,1,1.668-.441,2.352,2.352,0,0,1,1.791.759,3.121,3.121,0,0,1,.711,1.982,5.793,5.793,0,0,1-.027.889l-.075.567H10.534a2.5,2.5,0,0,0,.332,1.709,1.57,1.57,0,0,0,1.357.731,2.631,2.631,0,0,0,2.023-.984l.711.6a3.253,3.253,0,0,1-1.2,1.049A3.4,3.4,0,0,1,12.12,15.137ZM12.906,8.5a1.807,1.807,0,0,0-1.336.52,3.693,3.693,0,0,0-.906,1.606l3.6.007.027-.109A2.024,2.024,0,0,0,14.01,9.09,1.3,1.3,0,0,0,12.906,8.5Zm5.729-.9-.178.937a2.916,2.916,0,0,1,2.27-1.066,1.835,1.835,0,0,1,1.545.725,2.815,2.815,0,0,1,.369,1.962L21.834,15H20.6l.813-4.862a2.592,2.592,0,0,0,.007-.621,1.022,1.022,0,0,0-1.128-.976,2.329,2.329,0,0,0-1.955,1.188L17.418,15H16.181l1.285-7.4Zm8.374-1.784L26.694,7.6h1.347l-.171.978H26.53l-.772,4.6a1.6,1.6,0,0,0-.007.328.521.521,0,0,0,.581.533,3.544,3.544,0,0,0,.6-.068l-.1,1.032a3.366,3.366,0,0,1-.9.123,1.292,1.292,0,0,1-1.107-.543,2.1,2.1,0,0,1-.287-1.425l.752-4.58H23.987l.171-.978h1.306l.314-1.791ZM32.771,15a1.657,1.657,0,0,1-.048-.39l.021-.39a3.032,3.032,0,0,1-2.16.916,2.21,2.21,0,0,1-1.589-.619A1.872,1.872,0,0,1,28.438,13a2.277,2.277,0,0,1,1.029-1.835,4.38,4.38,0,0,1,2.526-.66l1.292.007.082-.588a1.352,1.352,0,0,0-.256-1.049,1.237,1.237,0,0,0-.974-.4,1.908,1.908,0,0,0-1.125.311,1.324,1.324,0,0,0-.6.858l-1.244.007A1.983,1.983,0,0,1,29.675,8.5a2.943,2.943,0,0,1,1.142-.779,3.688,3.688,0,0,1,1.442-.263,2.452,2.452,0,0,1,1.8.7,2.173,2.173,0,0,1,.54,1.788L34,13.612l-.034.526a2.58,2.58,0,0,0,.082.745L34.029,15Zm-1.941-.957a2.158,2.158,0,0,0,1.125-.284,2.847,2.847,0,0,0,.913-.824l.267-1.524L32.2,11.4a3.547,3.547,0,0,0-1.791.369,1.36,1.36,0,0,0-.7,1.046,1.059,1.059,0,0,0,.243.865A1.156,1.156,0,0,0,30.83,14.043ZM40.284,13q.1-.766-.841-1.08l-1.285-.376q-1.627-.561-1.572-1.859a2.048,2.048,0,0,1,.892-1.6,3.177,3.177,0,0,1,1.986-.612,2.649,2.649,0,0,1,1.822.653,2.068,2.068,0,0,1,.673,1.665l-1.23-.007a1.154,1.154,0,0,0-.349-.9,1.379,1.379,0,0,0-.964-.362,1.8,1.8,0,0,0-1.107.314,1.151,1.151,0,0,0-.5.807q-.089.643.786.937l.622.171a4.005,4.005,0,0,1,1.8.854,1.632,1.632,0,0,1,.492,1.306,2.074,2.074,0,0,1-.451,1.2,2.58,2.58,0,0,1-1.094.783,3.658,3.658,0,0,1-1.456.25,2.885,2.885,0,0,1-1.941-.687,2.124,2.124,0,0,1-.738-1.733l1.237.007a1.311,1.311,0,0,0,.4,1,1.515,1.515,0,0,0,1.087.376,2.132,2.132,0,0,0,1.169-.284A1.091,1.091,0,0,0,40.284,13Zm8.572.137L51.488,7.6h1.367L48.467,16.23a2.656,2.656,0,0,1-2.352,1.777,4.029,4.029,0,0,1-.745-.123l.109-1.025.321.034a1.622,1.622,0,0,0,1.015-.263,2.426,2.426,0,0,0,.755-.94l.444-.848L46.737,7.6h1.292Zm10.4.978a1.877,1.877,0,0,0,1.2-.386,1.837,1.837,0,0,0,.7-1.049l1.169-.007a2.638,2.638,0,0,1-.557,1.271,3.22,3.22,0,0,1-2.56,1.2,2.64,2.64,0,0,1-1.562-.482,2.7,2.7,0,0,1-.94-1.306,4.35,4.35,0,0,1-.205-1.883l.034-.342a4.9,4.9,0,0,1,.622-1.907,3.6,3.6,0,0,1,1.285-1.309,3.192,3.192,0,0,1,1.75-.441,2.5,2.5,0,0,1,1.859.779,2.7,2.7,0,0,1,.7,1.907l-1.155-.007a1.775,1.775,0,0,0-.4-1.172A1.406,1.406,0,0,0,60.129,8.5a1.972,1.972,0,0,0-1.6.718,3.76,3.76,0,0,0-.8,2.064l-.021.178a5.929,5.929,0,0,0-.014.9,2.061,2.061,0,0,0,.451,1.265A1.449,1.449,0,0,0,59.254,14.111Zm8.162-6.645a2.666,2.666,0,0,1,1.593.506A2.875,2.875,0,0,1,69.99,9.33a4.2,4.2,0,0,1,.215,1.89l-.014.15a4.975,4.975,0,0,1-.643,1.952,3.77,3.77,0,0,1-1.326,1.357,3.234,3.234,0,0,1-1.784.458,2.671,2.671,0,0,1-1.589-.506,2.809,2.809,0,0,1-.974-1.34,4.314,4.314,0,0,1-.219-1.866,5.04,5.04,0,0,1,.622-2.064,3.858,3.858,0,0,1,1.336-1.418A3.2,3.2,0,0,1,67.416,7.467ZM64.9,11.432a4.2,4.2,0,0,0,0,.9,2.194,2.194,0,0,0,.482,1.285,1.447,1.447,0,0,0,1.1.5,1.971,1.971,0,0,0,1.135-.3,2.554,2.554,0,0,0,.875-.981,4.131,4.131,0,0,0,.458-1.456,6.557,6.557,0,0,0,.021-1.06A2.277,2.277,0,0,0,68.476,9,1.479,1.479,0,0,0,67.368,8.5a2.016,2.016,0,0,0-1.627.752,3.715,3.715,0,0,0-.827,2.023ZM75.7,13q.1-.766-.841-1.08l-1.285-.376Q71.948,10.98,72,9.682a2.048,2.048,0,0,1,.892-1.6,3.177,3.177,0,0,1,1.986-.612A2.649,2.649,0,0,1,76.7,8.12a2.068,2.068,0,0,1,.673,1.665l-1.23-.007a1.154,1.154,0,0,0-.349-.9,1.379,1.379,0,0,0-.964-.362,1.8,1.8,0,0,0-1.107.314,1.151,1.151,0,0,0-.5.807q-.089.643.786.937l.622.171a4.005,4.005,0,0,1,1.8.854,1.632,1.632,0,0,1,.492,1.306,2.074,2.074,0,0,1-.451,1.2,2.58,2.58,0,0,1-1.094.783,3.658,3.658,0,0,1-1.456.25,2.885,2.885,0,0,1-1.941-.687,2.124,2.124,0,0,1-.738-1.733l1.237.007a1.311,1.311,0,0,0,.4,1,1.515,1.515,0,0,0,1.087.376,2.132,2.132,0,0,0,1.169-.284A1.091,1.091,0,0,0,75.7,13Zm5.756-7.185L81.143,7.6h1.347l-.171.978h-1.34l-.772,4.6a1.6,1.6,0,0,0-.007.328.521.521,0,0,0,.581.533,3.544,3.544,0,0,0,.6-.068l-.1,1.032a3.366,3.366,0,0,1-.9.123,1.292,1.292,0,0,1-1.107-.543,2.1,2.1,0,0,1-.287-1.425l.752-4.58H78.436l.171-.978h1.306l.314-1.791Zm5.209,1.654a2.666,2.666,0,0,1,1.593.506A2.875,2.875,0,0,1,89.24,9.33a4.2,4.2,0,0,1,.215,1.89l-.014.15a4.975,4.975,0,0,1-.643,1.952,3.77,3.77,0,0,1-1.326,1.357,3.234,3.234,0,0,1-1.784.458,2.671,2.671,0,0,1-1.589-.506,2.809,2.809,0,0,1-.974-1.34,4.315,4.315,0,0,1-.219-1.866,5.04,5.04,0,0,1,.622-2.064,3.858,3.858,0,0,1,1.336-1.418A3.2,3.2,0,0,1,86.666,7.467ZM84.15,11.432a4.2,4.2,0,0,0,0,.9,2.194,2.194,0,0,0,.482,1.285,1.447,1.447,0,0,0,1.1.5,1.971,1.971,0,0,0,1.135-.3,2.554,2.554,0,0,0,.875-.981A4.131,4.131,0,0,0,88.2,11.37a6.557,6.557,0,0,0,.021-1.06A2.277,2.277,0,0,0,87.726,9,1.479,1.479,0,0,0,86.618,8.5a2.016,2.016,0,0,0-1.627.752,3.715,3.715,0,0,0-.827,2.023ZM94.951,13q.1-.766-.841-1.08l-1.285-.376Q91.2,10.98,91.253,9.682a2.048,2.048,0,0,1,.892-1.6,3.177,3.177,0,0,1,1.986-.612,2.649,2.649,0,0,1,1.822.653,2.068,2.068,0,0,1,.673,1.665L95.4,9.777a1.154,1.154,0,0,0-.349-.9,1.379,1.379,0,0,0-.964-.362,1.8,1.8,0,0,0-1.107.314,1.151,1.151,0,0,0-.5.807q-.089.643.786.937l.622.171a4.005,4.005,0,0,1,1.8.854,1.632,1.632,0,0,1,.492,1.306,2.074,2.074,0,0,1-.451,1.2,2.58,2.58,0,0,1-1.094.783,3.658,3.658,0,0,1-1.456.25,2.885,2.885,0,0,1-1.941-.687,2.124,2.124,0,0,1-.738-1.733l1.237.007a1.311,1.311,0,0,0,.4,1,1.515,1.515,0,0,0,1.087.376,2.132,2.132,0,0,0,1.169-.284A1.091,1.091,0,0,0,94.951,13Z" transform="translate(239 2970.109)" fill="#12263f"/>
    <path id="Trazado_1054824" data-name="Trazado 1054824" d="M2.365,11.1,1.688,15H.4L2.133,5.047l3.322.007a3.249,3.249,0,0,1,2.372.817,2.57,2.57,0,0,1,.718,2.17A3.1,3.1,0,0,1,7.407,10.29a4.128,4.128,0,0,1-2.676.82ZM2.55,10.03l2.215.007A2.694,2.694,0,0,0,6.48,9.511a2.106,2.106,0,0,0,.786-1.463,1.65,1.65,0,0,0-.349-1.364,1.755,1.755,0,0,0-1.333-.55L3.227,6.127Zm10.9-1.3-.581-.062a2.117,2.117,0,0,0-1.873,1.073L10.083,15H8.846l1.285-7.4,1.2-.007-.185.861a2.211,2.211,0,0,1,1.853-1,2.27,2.27,0,0,1,.588.1Zm4.033-1.265a2.666,2.666,0,0,1,1.593.506,2.874,2.874,0,0,1,.981,1.357,4.2,4.2,0,0,1,.215,1.89l-.014.15a4.975,4.975,0,0,1-.643,1.952,3.77,3.77,0,0,1-1.326,1.357,3.234,3.234,0,0,1-1.784.458,2.671,2.671,0,0,1-1.589-.506,2.809,2.809,0,0,1-.974-1.34,4.314,4.314,0,0,1-.219-1.866,5.04,5.04,0,0,1,.622-2.064,3.858,3.858,0,0,1,1.336-1.418A3.2,3.2,0,0,1,17.479,7.467Zm-2.516,3.965a4.2,4.2,0,0,0,0,.9,2.194,2.194,0,0,0,.482,1.285,1.447,1.447,0,0,0,1.1.5,1.971,1.971,0,0,0,1.135-.3,2.554,2.554,0,0,0,.875-.981,4.131,4.131,0,0,0,.458-1.456,6.557,6.557,0,0,0,.021-1.06A2.277,2.277,0,0,0,18.539,9,1.479,1.479,0,0,0,17.432,8.5a2.016,2.016,0,0,0-1.627.752,3.715,3.715,0,0,0-.827,2.023Zm6.576-.144a5.755,5.755,0,0,1,.622-2.037,3.527,3.527,0,0,1,1.2-1.36,2.736,2.736,0,0,1,1.565-.431,2.31,2.31,0,0,1,1.9.9L27.535,4.5h1.237L26.954,15H25.826l.13-.793a2.727,2.727,0,0,1-2.16.93,2.043,2.043,0,0,1-1.634-.8,3.5,3.5,0,0,1-.656-2.082A6.648,6.648,0,0,1,21.54,11.288Zm1.189.707a2.563,2.563,0,0,0,.349,1.516,1.258,1.258,0,0,0,1.08.553,2.235,2.235,0,0,0,1.907-1.079l.588-3.414a1.535,1.535,0,0,0-1.49-1.038,1.875,1.875,0,0,0-1.289.44,2.849,2.849,0,0,0-.848,1.29A5.322,5.322,0,0,0,22.729,11.995Zm10.876,2.274a2.856,2.856,0,0,1-2.208.868,1.843,1.843,0,0,1-1.569-.759,2.9,2.9,0,0,1-.379-2L30.242,7.6h1.237l-.8,4.8a3.187,3.187,0,0,0-.014.588,1.223,1.223,0,0,0,.294.772,1,1,0,0,0,.725.3,2.219,2.219,0,0,0,2.051-1.073l.93-5.387H35.9L34.617,15H33.448Zm5.981-.157a1.877,1.877,0,0,0,1.2-.386,1.837,1.837,0,0,0,.7-1.049l1.169-.007a2.638,2.638,0,0,1-.557,1.271,3.22,3.22,0,0,1-2.56,1.2,2.64,2.64,0,0,1-1.562-.482,2.7,2.7,0,0,1-.94-1.306,4.35,4.35,0,0,1-.205-1.883l.034-.342a4.9,4.9,0,0,1,.622-1.907,3.6,3.6,0,0,1,1.285-1.309,3.192,3.192,0,0,1,1.75-.441,2.5,2.5,0,0,1,1.859.779,2.7,2.7,0,0,1,.7,1.907l-1.155-.007a1.775,1.775,0,0,0-.4-1.172A1.406,1.406,0,0,0,40.462,8.5a1.972,1.972,0,0,0-1.6.718,3.76,3.76,0,0,0-.8,2.064l-.021.178a5.929,5.929,0,0,0-.014.9,2.061,2.061,0,0,0,.451,1.265A1.449,1.449,0,0,0,39.587,14.111Zm7.178,0a1.877,1.877,0,0,0,1.2-.386,1.837,1.837,0,0,0,.7-1.049l1.169-.007a2.638,2.638,0,0,1-.557,1.271,3.22,3.22,0,0,1-2.56,1.2,2.64,2.64,0,0,1-1.562-.482,2.7,2.7,0,0,1-.94-1.306A4.35,4.35,0,0,1,44,11.466l.034-.342a4.9,4.9,0,0,1,.622-1.907,3.6,3.6,0,0,1,1.285-1.309,3.192,3.192,0,0,1,1.75-.441,2.5,2.5,0,0,1,1.859.779,2.7,2.7,0,0,1,.7,1.907L49.1,10.146a1.775,1.775,0,0,0-.4-1.172A1.406,1.406,0,0,0,47.64,8.5a1.972,1.972,0,0,0-1.6.718,3.76,3.76,0,0,0-.8,2.064l-.021.178a5.929,5.929,0,0,0-.014.9,2.061,2.061,0,0,0,.451,1.265A1.449,1.449,0,0,0,46.765,14.111ZM52.158,15h-1.23l1.285-7.4h1.23ZM53.177,4.9a.677.677,0,0,1,.523.188.7.7,0,0,1,.208.53.73.73,0,0,1-.731.745.682.682,0,0,1-.526-.185.669.669,0,0,1-.2-.52.776.776,0,0,1,.205-.533A.723.723,0,0,1,53.177,4.9ZM58.29,7.467a2.666,2.666,0,0,1,1.593.506,2.874,2.874,0,0,1,.981,1.357,4.2,4.2,0,0,1,.215,1.89l-.014.15a4.975,4.975,0,0,1-.643,1.952A3.77,3.77,0,0,1,59.1,14.679a3.234,3.234,0,0,1-1.784.458,2.671,2.671,0,0,1-1.589-.506,2.809,2.809,0,0,1-.974-1.34,4.314,4.314,0,0,1-.219-1.866,5.04,5.04,0,0,1,.622-2.064,3.858,3.858,0,0,1,1.336-1.418A3.2,3.2,0,0,1,58.29,7.467Zm-2.516,3.965a4.2,4.2,0,0,0,0,.9,2.194,2.194,0,0,0,.482,1.285,1.447,1.447,0,0,0,1.1.5,1.971,1.971,0,0,0,1.135-.3,2.554,2.554,0,0,0,.875-.981,4.131,4.131,0,0,0,.458-1.456,6.558,6.558,0,0,0,.021-1.06A2.277,2.277,0,0,0,59.35,9,1.479,1.479,0,0,0,58.242,8.5a2.016,2.016,0,0,0-1.627.752,3.715,3.715,0,0,0-.827,2.023ZM59.343,4.5h1.579L58.83,6.51l-1.087,0Zm5.106,3.1-.178.937a2.916,2.916,0,0,1,2.27-1.066,1.835,1.835,0,0,1,1.545.725,2.815,2.815,0,0,1,.369,1.962L67.648,15H66.411l.813-4.862a2.592,2.592,0,0,0,.007-.621A1.022,1.022,0,0,0,66.1,8.54a2.329,2.329,0,0,0-1.955,1.188L63.232,15H62L63.28,7.6Z" transform="translate(609 3354.109)" fill="#12263f"/>
    <path id="Trazado_1054825" data-name="Trazado 1054825" d="M6.672,10.4H2.488l-.615,3.527H6.74L6.549,15H.4L2.133,5.047H8.21L8.019,6.12H3.227L2.673,9.326H6.856ZM11.785,7.46a2.313,2.313,0,0,1,1.907.9l.226-.752H15.06l-1.777,10.24h-1.23l.67-3.527a2.8,2.8,0,0,1-2.064.82A2.062,2.062,0,0,1,9,14.351a3.438,3.438,0,0,1-.67-2.085,6.053,6.053,0,0,1,.2-1.788,5.168,5.168,0,0,1,.714-1.641,3.186,3.186,0,0,1,1.125-1.049A2.8,2.8,0,0,1,11.785,7.46ZM9.6,11.432l-.034.574a2.592,2.592,0,0,0,.359,1.542,1.276,1.276,0,0,0,1.09.564,2.249,2.249,0,0,0,1.853-1l.643-3.637A1.579,1.579,0,0,0,12.031,8.5a1.953,1.953,0,0,0-1.579.718A4.253,4.253,0,0,0,9.6,11.432ZM20.48,14.269a2.856,2.856,0,0,1-2.208.868,1.843,1.843,0,0,1-1.569-.759,2.9,2.9,0,0,1-.379-2L17.117,7.6h1.237l-.8,4.8a3.187,3.187,0,0,0-.014.588,1.223,1.223,0,0,0,.294.772,1,1,0,0,0,.725.3A2.219,2.219,0,0,0,20.61,12.99L21.54,7.6h1.237L21.492,15H20.323Zm4.2.731h-1.23l1.285-7.4h1.23ZM25.7,4.9a.677.677,0,0,1,.523.188.7.7,0,0,1,.208.53.73.73,0,0,1-.731.745.682.682,0,0,1-.526-.185.669.669,0,0,1-.2-.52.775.775,0,0,1,.205-.533A.723.723,0,0,1,25.7,4.9ZM28.041,15h-1.23L28.629,4.5h1.237ZM31.4,15h-1.23l1.285-7.4h1.23ZM32.423,4.9a.677.677,0,0,1,.523.188.7.7,0,0,1,.208.53.73.73,0,0,1-.731.745.682.682,0,0,1-.526-.185.669.669,0,0,1-.2-.52.775.775,0,0,1,.205-.533A.723.723,0,0,1,32.423,4.9Zm7.718,6.433a5.763,5.763,0,0,1-.622,2.044,3.484,3.484,0,0,1-1.176,1.347,2.676,2.676,0,0,1-1.531.417,2.284,2.284,0,0,1-1.989-1L34.569,15H33.428L35.253,4.5H36.49l-.745,3.924a2.719,2.719,0,0,1,2.16-.957,2.063,2.063,0,0,1,1.661.786,3.46,3.46,0,0,1,.629,2.092,6.442,6.442,0,0,1-.041.848Zm-1.176-.714A2.633,2.633,0,0,0,38.63,9.1a1.282,1.282,0,0,0-1.087-.556A2.252,2.252,0,0,0,35.588,9.7l-.554,3.216a1.574,1.574,0,0,0,1.538,1.154,1.8,1.8,0,0,0,1.268-.43,2.81,2.81,0,0,0,.824-1.28A5.756,5.756,0,0,0,38.965,10.622Zm6.754-1.891-.581-.062a2.117,2.117,0,0,0-1.873,1.073L42.355,15H41.118L42.4,7.6,43.6,7.6l-.185.861a2.211,2.211,0,0,1,1.853-1,2.27,2.27,0,0,1,.588.1ZM47.12,15H45.89l1.285-7.4h1.23ZM48.139,4.9a.677.677,0,0,1,.523.188.7.7,0,0,1,.208.53.73.73,0,0,1-.731.745.682.682,0,0,1-.526-.185.669.669,0,0,1-.2-.52.776.776,0,0,1,.205-.533A.723.723,0,0,1,48.139,4.9Zm5.113,2.563a2.666,2.666,0,0,1,1.593.506,2.874,2.874,0,0,1,.981,1.357,4.2,4.2,0,0,1,.215,1.89l-.014.15a4.975,4.975,0,0,1-.643,1.952,3.77,3.77,0,0,1-1.326,1.357,3.234,3.234,0,0,1-1.784.458,2.671,2.671,0,0,1-1.589-.506,2.809,2.809,0,0,1-.974-1.34,4.314,4.314,0,0,1-.219-1.866,5.04,5.04,0,0,1,.622-2.064,3.858,3.858,0,0,1,1.336-1.418A3.2,3.2,0,0,1,53.252,7.467Zm-2.516,3.965a4.2,4.2,0,0,0,0,.9,2.194,2.194,0,0,0,.482,1.285,1.447,1.447,0,0,0,1.1.5,1.971,1.971,0,0,0,1.135-.3,2.554,2.554,0,0,0,.875-.981,4.131,4.131,0,0,0,.458-1.456,6.558,6.558,0,0,0,.021-1.06A2.277,2.277,0,0,0,54.312,9,1.479,1.479,0,0,0,53.2,8.5a2.016,2.016,0,0,0-1.627.752,3.715,3.715,0,0,0-.827,2.023Z" transform="translate(404 3141.109)" fill="#12263f"/>
    <g id="Grupo_1180728" data-name="Grupo 1180728" transform="translate(-209.106 48)">
      <path id="Línea_1949" data-name="Línea 1949" d="M1.5,342h-3V0h3Z" transform="translate(495.106 2958.109)" fill="#12263f"/>
      <path id="Línea_1950" data-name="Línea 1950" d="M400,1.5H0v-3H400Z" transform="translate(495.106 3300.109)" fill="#12263f"/>
      <path id="Polígono_1" data-name="Polígono 1" d="M6,0l6,16H0Z" transform="translate(489.106 2944.109)" fill="#12263f"/>
      <path id="Polígono_1_-_Contorno" data-name="Polígono 1 - Contorno" d="M6,2.848,1.443,15h9.114L6,2.848M6,0l6,16H0Z" transform="translate(489.106 2944.109)" fill="#12263f"/>
      <path id="Polígono_2" data-name="Polígono 2" d="M6,0l6,16H0Z" transform="translate(911.207 3294.25) rotate(91)" fill="#12263f"/>
      <path id="Polígono_2_-_Contorno" data-name="Polígono 2 - Contorno" d="M6,2.848,1.443,15h9.114L6,2.848M6,0l6,16H0Z" transform="translate(911.207 3294.25) rotate(91)" fill="#12263f"/>
    </g>
    <path id="Línea_1951" data-name="Línea 1951" d="M.672,323.741l-1.344-1.481,356-323L356.672.741Z" transform="translate(286 3022.109)" fill="#5b39a6"/>
    <path id="Línea_1952" data-name="Línea 1952" d="M356,1H0V-1H356Z" transform="translate(286 3267.109)" fill="#f80b0b"/>
    <path id="Línea_1956" data-name="Línea 1956" d="M.31,116.951l-.62-1.9,356-116,.62,1.9Z" transform="translate(286 3229.109)" fill="#fed401"/>
    <path id="Línea_1957" data-name="Línea 1957" d="M.427,168.9-.427,167.1l356-168L356.427.9Z" transform="translate(286 3097.109)" fill="#5ab4f9"/>
    <path id="Trazado_1053854" data-name="Trazado 1053854" d="M10.071,1H0V-1H10.071Z" transform="translate(465.823 3173.609)" fill="#12263f"/>
    <path id="Trazado_1053855" data-name="Trazado 1053855" d="M10.071,1H0V-1H10.071Z" transform="translate(451.823 3173.609)" fill="#12263f"/>
    <g id="Grupo_1180729" data-name="Grupo 1180729" transform="translate(-209.106 48)">
      <path id="Trazado_1053856" data-name="Trazado 1053856" d="M10.071,1H0V-1H10.071Z" transform="translate(660.929 3125.609)" fill="#12263f"/>
      <path id="Trazado_1053857" data-name="Trazado 1053857" d="M10.071,1H0V-1H10.071Z" transform="translate(646.929 3125.609)" fill="#12263f"/>
      <path id="Trazado_1053858" data-name="Trazado 1053858" d="M10.071,1H0V-1H10.071Z" transform="translate(632.929 3125.609)" fill="#12263f"/>
      <path id="Trazado_1053859" data-name="Trazado 1053859" d="M10.071,1H0V-1H10.071Z" transform="translate(618.929 3125.609)" fill="#12263f"/>
    </g>
    <g id="Grupo_1180730" data-name="Grupo 1180730" transform="translate(-265.106 48)">
      <path id="Trazado_1053856-2" data-name="Trazado 1053856" d="M10.071,1H0V-1H10.071Z" transform="translate(660.929 3125.609)" fill="#12263f"/>
      <path id="Trazado_1053857-2" data-name="Trazado 1053857" d="M10.071,1H0V-1H10.071Z" transform="translate(646.929 3125.609)" fill="#12263f"/>
      <path id="Trazado_1053858-2" data-name="Trazado 1053858" d="M10.071,1H0V-1H10.071Z" transform="translate(632.929 3125.609)" fill="#12263f"/>
      <path id="Trazado_1053859-2" data-name="Trazado 1053859" d="M10.071,1H0V-1H10.071Z" transform="translate(618.929 3125.609)" fill="#12263f"/>
    </g>
    <g id="Grupo_1180731" data-name="Grupo 1180731" transform="translate(-321.106 48)">
      <path id="Trazado_1053856-3" data-name="Trazado 1053856" d="M10.071,1H0V-1H10.071Z" transform="translate(660.929 3125.609)" fill="#12263f"/>
      <path id="Trazado_1053857-3" data-name="Trazado 1053857" d="M10.071,1H0V-1H10.071Z" transform="translate(646.929 3125.609)" fill="#12263f"/>
      <path id="Trazado_1053858-3" data-name="Trazado 1053858" d="M10.071,1H0V-1H10.071Z" transform="translate(632.929 3125.609)" fill="#12263f"/>
      <path id="Trazado_1053859-3" data-name="Trazado 1053859" d="M10.071,1H0V-1H10.071Z" transform="translate(618.929 3125.609)" fill="#12263f"/>
      <path id="Trazado_1053860" data-name="Trazado 1053860" d="M6.512,1H0V-1H6.512Z" transform="translate(608.488 3125.609)" fill="#12263f"/>
    </g>
    <path id="Línea_1958" data-name="Línea 1958" d="M1,9H-1V0H1Z" transform="translate(476 3173.109)" fill="#12263f"/>
    <g id="Grupo_1180732" data-name="Grupo 1180732" transform="translate(-209.106 48)">
      <path id="Línea_1959" data-name="Línea 1959" d="M1,9H-1V0H1Z" transform="translate(685.106 3138.109)" fill="#12263f"/>
      <path id="Línea_1960" data-name="Línea 1960" d="M1,9H-1V0H1Z" transform="translate(685.106 3151.109)" fill="#12263f"/>
      <path id="Línea_1961" data-name="Línea 1961" d="M1,9H-1V0H1Z" transform="translate(685.106 3164.109)" fill="#12263f"/>
    </g>
    <g id="Grupo_1180733" data-name="Grupo 1180733" transform="translate(-209.106 87)">
      <path id="Línea_1959-2" data-name="Línea 1959" d="M1,9H-1V0H1Z" transform="translate(685.106 3138.109)" fill="#12263f"/>
      <path id="Línea_1960-2" data-name="Línea 1960" d="M1,9H-1V0H1Z" transform="translate(685.106 3151.109)" fill="#12263f"/>
      <path id="Línea_1961-2" data-name="Línea 1961" d="M1,9H-1V0H1Z" transform="translate(685.106 3164.109)" fill="#12263f"/>
    </g>
    <g id="Grupo_1180734" data-name="Grupo 1180734" transform="translate(-209.106 127)">
      <path id="Línea_1959-3" data-name="Línea 1959" d="M1,9H-1V0H1Z" transform="translate(685.106 3138.109)" fill="#12263f"/>
      <path id="Línea_1960-3" data-name="Línea 1960" d="M1,9H-1V0H1Z" transform="translate(685.106 3151.109)" fill="#12263f"/>
      <path id="Línea_1961-3" data-name="Línea 1961" d="M1,9H-1V0H1Z" transform="translate(685.106 3164.109)" fill="#12263f"/>
    </g>
    <g id="Grupo_1180735" data-name="Grupo 1180735" transform="translate(-209.106 166)">
      <path id="Línea_1959-4" data-name="Línea 1959" d="M1,9H-1V0H1Z" transform="translate(685.106 3138.109)" fill="#12263f"/>
      <path id="Línea_1960-4" data-name="Línea 1960" d="M1,9H-1V0H1Z" transform="translate(685.106 3151.109)" fill="#12263f"/>
      <path id="Línea_1961-4" data-name="Línea 1961" d="M1,9H-1V0H1Z" transform="translate(685.106 3164.109)" fill="#12263f"/>
      <path id="Línea_1962" data-name="Línea 1962" d="M1,4H-1V0H1Z" transform="translate(685.106 3177.109)" fill="#12263f"/>
    </g>
    <path id="Elipse_13415" data-name="Elipse 13415" d="M14.5,1A13.5,13.5,0,0,0,4.954,24.046,13.5,13.5,0,1,0,24.046,4.954,13.412,13.412,0,0,0,14.5,1m0-1A14.5,14.5,0,1,1,0,14.5,14.5,14.5,0,0,1,14.5,0Z" transform="translate(461 3159.109)" fill="#f70b0b"/>
    <path id="Trazado_1054826" data-name="Trazado 1054826" d="M2,0H53a2,2,0,0,1,2,2V18a2,2,0,0,1-2,2H2a2,2,0,0,1-2-2V2A2,2,0,0,1,2,0Z" transform="translate(620 2998.109)" fill="#cdb9f8"/>
    <path id="Trazado_1054827" data-name="Trazado 1054827" d="M5.644,13.243l4.04-8.2h1.449L5.992,15H4.857L2.841,5.047H4.188Zm8.2,1.894a2.667,2.667,0,0,1-2.16-1.019,3.505,3.505,0,0,1-.656-2.536l.034-.294a4.921,4.921,0,0,1,.653-2.01A3.8,3.8,0,0,1,13.02,7.908a3.054,3.054,0,0,1,1.668-.441,2.352,2.352,0,0,1,1.791.759,3.121,3.121,0,0,1,.711,1.982,5.793,5.793,0,0,1-.027.889l-.075.567H12.254a2.5,2.5,0,0,0,.332,1.709,1.57,1.57,0,0,0,1.357.731,2.631,2.631,0,0,0,2.023-.984l.711.6a3.253,3.253,0,0,1-1.2,1.049A3.4,3.4,0,0,1,13.84,15.137ZM14.626,8.5a1.807,1.807,0,0,0-1.336.52,3.693,3.693,0,0,0-.906,1.606l3.6.007.027-.109A2.024,2.024,0,0,0,15.73,9.09,1.3,1.3,0,0,0,14.626,8.5Zm5.729-.9-.178.937a2.916,2.916,0,0,1,2.27-1.066,1.835,1.835,0,0,1,1.545.725,2.815,2.815,0,0,1,.369,1.962L23.554,15H22.316l.813-4.862a2.592,2.592,0,0,0,.007-.621,1.022,1.022,0,0,0-1.128-.976,2.329,2.329,0,0,0-1.955,1.188L19.138,15H17.9l1.285-7.4Zm8.374-1.784L28.414,7.6h1.347l-.171.978H28.25l-.772,4.6a1.6,1.6,0,0,0-.007.328.521.521,0,0,0,.581.533,3.544,3.544,0,0,0,.6-.068l-.1,1.032a3.366,3.366,0,0,1-.9.123,1.292,1.292,0,0,1-1.107-.543,2.1,2.1,0,0,1-.287-1.425l.752-4.58H25.707l.171-.978h1.306L27.5,5.813ZM34.491,15a1.657,1.657,0,0,1-.048-.39l.021-.39a3.032,3.032,0,0,1-2.16.916,2.21,2.21,0,0,1-1.589-.619A1.872,1.872,0,0,1,30.157,13a2.277,2.277,0,0,1,1.029-1.835,4.38,4.38,0,0,1,2.526-.66L35,10.516l.082-.588a1.352,1.352,0,0,0-.256-1.049,1.237,1.237,0,0,0-.974-.4,1.908,1.908,0,0,0-1.125.311,1.324,1.324,0,0,0-.6.858l-1.244.007A1.983,1.983,0,0,1,31.395,8.5a2.943,2.943,0,0,1,1.142-.779,3.688,3.688,0,0,1,1.442-.263,2.452,2.452,0,0,1,1.8.7,2.173,2.173,0,0,1,.54,1.788l-.6,3.664-.034.526a2.58,2.58,0,0,0,.082.745L35.749,15Zm-1.941-.957a2.158,2.158,0,0,0,1.125-.284,2.847,2.847,0,0,0,.913-.824l.267-1.524-.937-.007a3.547,3.547,0,0,0-1.791.369,1.36,1.36,0,0,0-.7,1.046,1.059,1.059,0,0,0,.243.865A1.156,1.156,0,0,0,32.55,14.043ZM42,13q.1-.766-.841-1.08l-1.285-.376q-1.627-.561-1.572-1.859a2.048,2.048,0,0,1,.892-1.6,3.177,3.177,0,0,1,1.986-.612,2.649,2.649,0,0,1,1.822.653,2.068,2.068,0,0,1,.673,1.665l-1.23-.007a1.154,1.154,0,0,0-.349-.9,1.379,1.379,0,0,0-.964-.362,1.8,1.8,0,0,0-1.107.314,1.151,1.151,0,0,0-.5.807q-.089.643.786.937l.622.171a4.005,4.005,0,0,1,1.8.854,1.632,1.632,0,0,1,.492,1.306,2.074,2.074,0,0,1-.451,1.2,2.58,2.58,0,0,1-1.094.783,3.658,3.658,0,0,1-1.456.25,2.885,2.885,0,0,1-1.941-.687,2.124,2.124,0,0,1-.738-1.733l1.237.007a1.311,1.311,0,0,0,.4,1,1.515,1.515,0,0,0,1.087.376,2.132,2.132,0,0,0,1.169-.284A1.091,1.091,0,0,0,42,13Z" transform="translate(625 3000.109)" fill="#12263f"/>
    <path id="Trazado_1054828" data-name="Trazado 1054828" d="M2,0H95a2,2,0,0,1,2,2V18a2,2,0,0,1-2,2H2a2,2,0,0,1-2-2V2A2,2,0,0,1,2,0Z" transform="translate(626 3074.109)" fill="#bce0fc"/>
    <path id="Trazado_1054829" data-name="Trazado 1054829" d="M7.991,11.828a3.968,3.968,0,0,1-1.4,2.447,3.917,3.917,0,0,1-2.663.861,3.1,3.1,0,0,1-1.613-.455,2.872,2.872,0,0,1-1.073-1.251A4.672,4.672,0,0,1,.82,11.623a5.8,5.8,0,0,1,.048-1.094l.116-.82A6.191,6.191,0,0,1,2.56,6.171,3.976,3.976,0,0,1,5.612,4.91a2.977,2.977,0,0,1,2.222.906A3.6,3.6,0,0,1,8.7,8.253H7.424Q7.335,6.161,5.783,6l-.226-.014a2.642,2.642,0,0,0-2.157.96A5.2,5.2,0,0,0,2.283,9.661l-.15,1.032-.041.6a3.384,3.384,0,0,0,.448,2,1.688,1.688,0,0,0,1.453.769,2.559,2.559,0,0,0,1.719-.5,3.321,3.321,0,0,0,1.036-1.716Zm5.236-4.361a2.666,2.666,0,0,1,1.593.506A2.874,2.874,0,0,1,15.8,9.33a4.2,4.2,0,0,1,.215,1.89L16,11.37a4.975,4.975,0,0,1-.643,1.952,3.77,3.77,0,0,1-1.326,1.357,3.234,3.234,0,0,1-1.784.458,2.671,2.671,0,0,1-1.589-.506,2.809,2.809,0,0,1-.974-1.34,4.314,4.314,0,0,1-.219-1.866A5.04,5.04,0,0,1,10.09,9.36a3.858,3.858,0,0,1,1.336-1.418A3.2,3.2,0,0,1,13.228,7.467Zm-2.516,3.965a4.2,4.2,0,0,0,0,.9,2.194,2.194,0,0,0,.482,1.285,1.447,1.447,0,0,0,1.1.5,1.971,1.971,0,0,0,1.135-.3,2.554,2.554,0,0,0,.875-.981,4.131,4.131,0,0,0,.458-1.456,6.558,6.558,0,0,0,.021-1.06A2.277,2.277,0,0,0,14.287,9,1.479,1.479,0,0,0,13.18,8.5a2.016,2.016,0,0,0-1.627.752,3.715,3.715,0,0,0-.827,2.023ZM21.513,13q.1-.766-.841-1.08l-1.285-.376q-1.627-.561-1.572-1.859a2.048,2.048,0,0,1,.892-1.6,3.177,3.177,0,0,1,1.986-.612,2.649,2.649,0,0,1,1.822.653,2.068,2.068,0,0,1,.673,1.665l-1.23-.007a1.154,1.154,0,0,0-.349-.9,1.379,1.379,0,0,0-.964-.362,1.8,1.8,0,0,0-1.107.314,1.151,1.151,0,0,0-.5.807q-.089.643.786.937l.622.171a4.005,4.005,0,0,1,1.8.854,1.632,1.632,0,0,1,.492,1.306,2.074,2.074,0,0,1-.451,1.2,2.58,2.58,0,0,1-1.094.783,3.658,3.658,0,0,1-1.456.25A2.885,2.885,0,0,1,17.8,14.45a2.124,2.124,0,0,1-.738-1.733l1.237.007a1.311,1.311,0,0,0,.4,1,1.515,1.515,0,0,0,1.087.376,2.132,2.132,0,0,0,1.169-.284A1.091,1.091,0,0,0,21.513,13Zm5.756-7.185L26.954,7.6H28.3l-.171.978H26.79l-.772,4.6a1.6,1.6,0,0,0-.007.328.521.521,0,0,0,.581.533,3.544,3.544,0,0,0,.6-.068l-.1,1.032a3.366,3.366,0,0,1-.9.123,1.292,1.292,0,0,1-1.107-.543,2.1,2.1,0,0,1-.287-1.425l.752-4.58H24.247l.171-.978h1.306l.314-1.791Zm5.209,1.654a2.666,2.666,0,0,1,1.593.506,2.874,2.874,0,0,1,.981,1.357,4.2,4.2,0,0,1,.215,1.89l-.014.15a4.975,4.975,0,0,1-.643,1.952,3.77,3.77,0,0,1-1.326,1.357,3.234,3.234,0,0,1-1.784.458,2.671,2.671,0,0,1-1.589-.506,2.809,2.809,0,0,1-.974-1.34,4.314,4.314,0,0,1-.219-1.866A5.04,5.04,0,0,1,29.34,9.36a3.858,3.858,0,0,1,1.336-1.418A3.2,3.2,0,0,1,32.478,7.467Zm-2.516,3.965a4.2,4.2,0,0,0,0,.9,2.194,2.194,0,0,0,.482,1.285,1.447,1.447,0,0,0,1.1.5,1.971,1.971,0,0,0,1.135-.3,2.554,2.554,0,0,0,.875-.981,4.131,4.131,0,0,0,.458-1.456,6.558,6.558,0,0,0,.021-1.06A2.277,2.277,0,0,0,33.537,9,1.479,1.479,0,0,0,32.43,8.5a2.016,2.016,0,0,0-1.627.752,3.715,3.715,0,0,0-.827,2.023ZM40.763,13q.1-.766-.841-1.08l-1.285-.376q-1.627-.561-1.572-1.859a2.048,2.048,0,0,1,.892-1.6,3.177,3.177,0,0,1,1.986-.612,2.649,2.649,0,0,1,1.822.653,2.068,2.068,0,0,1,.673,1.665l-1.23-.007a1.154,1.154,0,0,0-.349-.9,1.379,1.379,0,0,0-.964-.362,1.8,1.8,0,0,0-1.107.314,1.151,1.151,0,0,0-.5.807q-.089.643.786.937l.622.171a4.005,4.005,0,0,1,1.8.854,1.632,1.632,0,0,1,.492,1.306,2.074,2.074,0,0,1-.451,1.2,2.58,2.58,0,0,1-1.094.783,3.658,3.658,0,0,1-1.456.25,2.885,2.885,0,0,1-1.941-.687,2.124,2.124,0,0,1-.738-1.733l1.237.007a1.311,1.311,0,0,0,.4,1,1.515,1.515,0,0,0,1.087.376,2.132,2.132,0,0,0,1.169-.284A1.091,1.091,0,0,0,40.763,13ZM8.62,24.12h-3.1L3.985,33H2.707l1.538-8.88h-3.1l.191-1.073H8.812Zm3.192,1.347a2.666,2.666,0,0,1,1.593.506,2.874,2.874,0,0,1,.981,1.357,4.2,4.2,0,0,1,.215,1.89l-.014.15a4.975,4.975,0,0,1-.643,1.952,3.77,3.77,0,0,1-1.326,1.357,3.234,3.234,0,0,1-1.784.458,2.671,2.671,0,0,1-1.589-.506,2.809,2.809,0,0,1-.974-1.34,4.314,4.314,0,0,1-.219-1.866,5.04,5.04,0,0,1,.622-2.064,3.858,3.858,0,0,1,1.336-1.418A3.2,3.2,0,0,1,11.813,25.467ZM9.3,29.432a4.2,4.2,0,0,0,0,.9,2.194,2.194,0,0,0,.482,1.285,1.447,1.447,0,0,0,1.1.5,1.971,1.971,0,0,0,1.135-.3,2.554,2.554,0,0,0,.875-.981,4.131,4.131,0,0,0,.458-1.456,6.558,6.558,0,0,0,.021-1.06,2.277,2.277,0,0,0-.5-1.306,1.479,1.479,0,0,0-1.107-.506,2.016,2.016,0,0,0-1.627.752,3.715,3.715,0,0,0-.827,2.023Zm9.488-5.619L18.471,25.6h1.347l-.171.978h-1.34l-.772,4.6a1.6,1.6,0,0,0-.007.328.521.521,0,0,0,.581.533,3.544,3.544,0,0,0,.6-.068l-.1,1.032a3.366,3.366,0,0,1-.9.123,1.292,1.292,0,0,1-1.107-.543,2.1,2.1,0,0,1-.287-1.425l.752-4.58H15.764l.171-.978H17.24l.314-1.791ZM24.548,33a1.657,1.657,0,0,1-.048-.39l.021-.39a3.032,3.032,0,0,1-2.16.916,2.21,2.21,0,0,1-1.589-.619A1.872,1.872,0,0,1,20.214,31a2.277,2.277,0,0,1,1.029-1.835,4.38,4.38,0,0,1,2.526-.66l1.292.007.082-.588a1.352,1.352,0,0,0-.256-1.049,1.237,1.237,0,0,0-.974-.4,1.908,1.908,0,0,0-1.125.311,1.324,1.324,0,0,0-.6.858l-1.244.007a1.983,1.983,0,0,1,.506-1.152,2.943,2.943,0,0,1,1.142-.779,3.688,3.688,0,0,1,1.442-.263,2.452,2.452,0,0,1,1.8.7,2.173,2.173,0,0,1,.54,1.788l-.6,3.664-.034.526a2.58,2.58,0,0,0,.082.745L25.806,33Zm-1.941-.957a2.158,2.158,0,0,0,1.125-.284,2.847,2.847,0,0,0,.913-.824l.267-1.524-.937-.007a3.547,3.547,0,0,0-1.791.369,1.36,1.36,0,0,0-.7,1.046,1.059,1.059,0,0,0,.243.865A1.156,1.156,0,0,0,22.606,32.043ZM28.82,33H27.59l1.818-10.5h1.237Zm5.223.137a2.667,2.667,0,0,1-2.16-1.019,3.505,3.505,0,0,1-.656-2.536l.034-.294a4.921,4.921,0,0,1,.653-2.01,3.8,3.8,0,0,1,1.309-1.371,3.054,3.054,0,0,1,1.668-.441,2.352,2.352,0,0,1,1.791.759,3.121,3.121,0,0,1,.711,1.982,5.793,5.793,0,0,1-.027.889l-.075.567H32.457a2.5,2.5,0,0,0,.332,1.709,1.57,1.57,0,0,0,1.357.731,2.631,2.631,0,0,0,2.023-.984l.711.6a3.253,3.253,0,0,1-1.2,1.049A3.4,3.4,0,0,1,34.043,33.137Zm.786-6.638a1.807,1.807,0,0,0-1.336.52,3.693,3.693,0,0,0-.906,1.606l3.6.007.027-.109a2.024,2.024,0,0,0-.277-1.432A1.3,1.3,0,0,0,34.829,26.5ZM42.684,31q.1-.766-.841-1.08l-1.285-.376q-1.627-.561-1.572-1.859a2.048,2.048,0,0,1,.892-1.6,3.177,3.177,0,0,1,1.986-.612,2.649,2.649,0,0,1,1.822.653,2.068,2.068,0,0,1,.673,1.665l-1.23-.007a1.154,1.154,0,0,0-.349-.9,1.379,1.379,0,0,0-.964-.362,1.8,1.8,0,0,0-1.107.314,1.151,1.151,0,0,0-.5.807q-.089.643.786.937l.622.171a4.005,4.005,0,0,1,1.8.854,1.632,1.632,0,0,1,.492,1.306,2.074,2.074,0,0,1-.451,1.2,2.58,2.58,0,0,1-1.094.783,3.658,3.658,0,0,1-1.456.25,2.885,2.885,0,0,1-1.941-.687,2.124,2.124,0,0,1-.738-1.733l1.237.007a1.311,1.311,0,0,0,.4,1,1.515,1.515,0,0,0,1.087.376,2.132,2.132,0,0,0,1.169-.284A1.091,1.091,0,0,0,42.684,31Z" transform="translate(629 3076.109)" fill="#12263f"/>
    <path id="Trazado_1054830" data-name="Trazado 1054830" d="M2,0H109a2,2,0,0,1,2,2V18a2,2,0,0,1-2,2H2a2,2,0,0,1-2-2V2A2,2,0,0,1,2,0Z" transform="translate(609 3204.109)" fill="#fce055"/>
    <path id="Trazado_1054831" data-name="Trazado 1054831" d="M7.991,11.828a3.968,3.968,0,0,1-1.4,2.447,3.917,3.917,0,0,1-2.663.861,3.1,3.1,0,0,1-1.613-.455,2.872,2.872,0,0,1-1.073-1.251A4.672,4.672,0,0,1,.82,11.623a5.8,5.8,0,0,1,.048-1.094l.116-.82A6.191,6.191,0,0,1,2.56,6.171,3.976,3.976,0,0,1,5.612,4.91a2.977,2.977,0,0,1,2.222.906A3.6,3.6,0,0,1,8.7,8.253H7.424Q7.335,6.161,5.783,6l-.226-.014a2.642,2.642,0,0,0-2.157.96A5.2,5.2,0,0,0,2.283,9.661l-.15,1.032-.041.6a3.384,3.384,0,0,0,.448,2,1.688,1.688,0,0,0,1.453.769,2.559,2.559,0,0,0,1.719-.5,3.321,3.321,0,0,0,1.036-1.716Zm5.236-4.361a2.666,2.666,0,0,1,1.593.506A2.874,2.874,0,0,1,15.8,9.33a4.2,4.2,0,0,1,.215,1.89L16,11.37a4.975,4.975,0,0,1-.643,1.952,3.77,3.77,0,0,1-1.326,1.357,3.234,3.234,0,0,1-1.784.458,2.671,2.671,0,0,1-1.589-.506,2.809,2.809,0,0,1-.974-1.34,4.314,4.314,0,0,1-.219-1.866A5.04,5.04,0,0,1,10.09,9.36a3.858,3.858,0,0,1,1.336-1.418A3.2,3.2,0,0,1,13.228,7.467Zm-2.516,3.965a4.2,4.2,0,0,0,0,.9,2.194,2.194,0,0,0,.482,1.285,1.447,1.447,0,0,0,1.1.5,1.971,1.971,0,0,0,1.135-.3,2.554,2.554,0,0,0,.875-.981,4.131,4.131,0,0,0,.458-1.456,6.558,6.558,0,0,0,.021-1.06A2.277,2.277,0,0,0,14.287,9,1.479,1.479,0,0,0,13.18,8.5a2.016,2.016,0,0,0-1.627.752,3.715,3.715,0,0,0-.827,2.023ZM21.513,13q.1-.766-.841-1.08l-1.285-.376q-1.627-.561-1.572-1.859a2.048,2.048,0,0,1,.892-1.6,3.177,3.177,0,0,1,1.986-.612,2.649,2.649,0,0,1,1.822.653,2.068,2.068,0,0,1,.673,1.665l-1.23-.007a1.154,1.154,0,0,0-.349-.9,1.379,1.379,0,0,0-.964-.362,1.8,1.8,0,0,0-1.107.314,1.151,1.151,0,0,0-.5.807q-.089.643.786.937l.622.171a4.005,4.005,0,0,1,1.8.854,1.632,1.632,0,0,1,.492,1.306,2.074,2.074,0,0,1-.451,1.2,2.58,2.58,0,0,1-1.094.783,3.658,3.658,0,0,1-1.456.25A2.885,2.885,0,0,1,17.8,14.45a2.124,2.124,0,0,1-.738-1.733l1.237.007a1.311,1.311,0,0,0,.4,1,1.515,1.515,0,0,0,1.087.376,2.132,2.132,0,0,0,1.169-.284A1.091,1.091,0,0,0,21.513,13Zm5.756-7.185L26.954,7.6H28.3l-.171.978H26.79l-.772,4.6a1.6,1.6,0,0,0-.007.328.521.521,0,0,0,.581.533,3.544,3.544,0,0,0,.6-.068l-.1,1.032a3.366,3.366,0,0,1-.9.123,1.292,1.292,0,0,1-1.107-.543,2.1,2.1,0,0,1-.287-1.425l.752-4.58H24.247l.171-.978h1.306l.314-1.791Zm5.209,1.654a2.666,2.666,0,0,1,1.593.506,2.874,2.874,0,0,1,.981,1.357,4.2,4.2,0,0,1,.215,1.89l-.014.15a4.975,4.975,0,0,1-.643,1.952,3.77,3.77,0,0,1-1.326,1.357,3.234,3.234,0,0,1-1.784.458,2.671,2.671,0,0,1-1.589-.506,2.809,2.809,0,0,1-.974-1.34,4.314,4.314,0,0,1-.219-1.866A5.04,5.04,0,0,1,29.34,9.36a3.858,3.858,0,0,1,1.336-1.418A3.2,3.2,0,0,1,32.478,7.467Zm-2.516,3.965a4.2,4.2,0,0,0,0,.9,2.194,2.194,0,0,0,.482,1.285,1.447,1.447,0,0,0,1.1.5,1.971,1.971,0,0,0,1.135-.3,2.554,2.554,0,0,0,.875-.981,4.131,4.131,0,0,0,.458-1.456,6.558,6.558,0,0,0,.021-1.06A2.277,2.277,0,0,0,33.537,9,1.479,1.479,0,0,0,32.43,8.5a2.016,2.016,0,0,0-1.627.752,3.715,3.715,0,0,0-.827,2.023ZM40.763,13q.1-.766-.841-1.08l-1.285-.376q-1.627-.561-1.572-1.859a2.048,2.048,0,0,1,.892-1.6,3.177,3.177,0,0,1,1.986-.612,2.649,2.649,0,0,1,1.822.653,2.068,2.068,0,0,1,.673,1.665l-1.23-.007a1.154,1.154,0,0,0-.349-.9,1.379,1.379,0,0,0-.964-.362,1.8,1.8,0,0,0-1.107.314,1.151,1.151,0,0,0-.5.807q-.089.643.786.937l.622.171a4.005,4.005,0,0,1,1.8.854,1.632,1.632,0,0,1,.492,1.306,2.074,2.074,0,0,1-.451,1.2,2.58,2.58,0,0,1-1.094.783,3.658,3.658,0,0,1-1.456.25,2.885,2.885,0,0,1-1.941-.687,2.124,2.124,0,0,1-.738-1.733l1.237.007a1.311,1.311,0,0,0,.4,1,1.515,1.515,0,0,0,1.087.376,2.132,2.132,0,0,0,1.169-.284A1.091,1.091,0,0,0,40.763,13Zm9.632.246,4.04-8.2h1.449L50.743,15H49.608L47.592,5.047h1.347ZM59.6,15a1.657,1.657,0,0,1-.048-.39l.021-.39a3.032,3.032,0,0,1-2.16.916,2.21,2.21,0,0,1-1.589-.619A1.872,1.872,0,0,1,55.269,13,2.277,2.277,0,0,1,56.3,11.168a4.38,4.38,0,0,1,2.526-.66l1.292.007.082-.588a1.352,1.352,0,0,0-.256-1.049,1.237,1.237,0,0,0-.974-.4,1.908,1.908,0,0,0-1.125.311,1.324,1.324,0,0,0-.6.858L56,9.654A1.983,1.983,0,0,1,56.506,8.5a2.943,2.943,0,0,1,1.142-.779A3.688,3.688,0,0,1,59.09,7.46a2.452,2.452,0,0,1,1.8.7,2.173,2.173,0,0,1,.54,1.788l-.6,3.664-.034.526a2.58,2.58,0,0,0,.082.745L60.86,15Zm-1.941-.957a2.158,2.158,0,0,0,1.125-.284,2.847,2.847,0,0,0,.913-.824l.267-1.524-.937-.007a3.547,3.547,0,0,0-1.791.369,1.36,1.36,0,0,0-.7,1.046,1.059,1.059,0,0,0,.243.865A1.156,1.156,0,0,0,57.661,14.043Zm9.475-5.312-.581-.062a2.117,2.117,0,0,0-1.873,1.073L63.772,15H62.535L63.82,7.6l1.2-.007-.185.861a2.211,2.211,0,0,1,1.853-1,2.27,2.27,0,0,1,.588.1ZM68.537,15h-1.23l1.285-7.4h1.23ZM69.556,4.9a.677.677,0,0,1,.523.188.7.7,0,0,1,.208.53.73.73,0,0,1-.731.745.682.682,0,0,1-.526-.185.669.669,0,0,1-.2-.52.775.775,0,0,1,.205-.533A.723.723,0,0,1,69.556,4.9ZM75.086,15a1.657,1.657,0,0,1-.048-.39l.021-.39a3.032,3.032,0,0,1-2.16.916,2.21,2.21,0,0,1-1.589-.619A1.872,1.872,0,0,1,70.752,13a2.277,2.277,0,0,1,1.029-1.835,4.38,4.38,0,0,1,2.526-.66l1.292.007.082-.588a1.352,1.352,0,0,0-.256-1.049,1.237,1.237,0,0,0-.974-.4,1.908,1.908,0,0,0-1.125.311,1.324,1.324,0,0,0-.6.858l-1.244.007A1.983,1.983,0,0,1,71.989,8.5a2.943,2.943,0,0,1,1.142-.779,3.688,3.688,0,0,1,1.442-.263,2.452,2.452,0,0,1,1.8.7,2.173,2.173,0,0,1,.54,1.788l-.6,3.664-.034.526a2.58,2.58,0,0,0,.082.745L76.344,15Zm-1.941-.957a2.158,2.158,0,0,0,1.125-.284,2.847,2.847,0,0,0,.913-.824l.267-1.524-.937-.007a3.547,3.547,0,0,0-1.791.369,1.36,1.36,0,0,0-.7,1.046,1.059,1.059,0,0,0,.243.865A1.156,1.156,0,0,0,73.145,14.043Zm11.587-2.707a5.763,5.763,0,0,1-.622,2.044,3.484,3.484,0,0,1-1.176,1.347,2.676,2.676,0,0,1-1.531.417,2.284,2.284,0,0,1-1.989-1L79.16,15H78.019L79.844,4.5h1.237l-.745,3.924a2.719,2.719,0,0,1,2.16-.957,2.063,2.063,0,0,1,1.661.786,3.46,3.46,0,0,1,.629,2.092,6.443,6.443,0,0,1-.041.848Zm-1.176-.714A2.633,2.633,0,0,0,83.221,9.1a1.282,1.282,0,0,0-1.087-.556A2.252,2.252,0,0,0,80.179,9.7l-.554,3.216a1.574,1.574,0,0,0,1.538,1.154,1.8,1.8,0,0,0,1.268-.43,2.81,2.81,0,0,0,.824-1.28A5.756,5.756,0,0,0,83.556,10.622ZM87.049,15h-1.23L87.637,4.5h1.237Zm5.223.137a2.667,2.667,0,0,1-2.16-1.019,3.505,3.505,0,0,1-.656-2.536l.034-.294a4.921,4.921,0,0,1,.653-2.01,3.8,3.8,0,0,1,1.309-1.371,3.054,3.054,0,0,1,1.668-.441,2.352,2.352,0,0,1,1.791.759,3.121,3.121,0,0,1,.711,1.982,5.793,5.793,0,0,1-.027.889l-.075.567H90.686a2.5,2.5,0,0,0,.332,1.709,1.57,1.57,0,0,0,1.357.731A2.631,2.631,0,0,0,94.4,13.12l.711.6a3.253,3.253,0,0,1-1.2,1.049A3.4,3.4,0,0,1,92.271,15.137ZM93.058,8.5a1.807,1.807,0,0,0-1.336.52,3.693,3.693,0,0,0-.906,1.606l3.6.007.027-.109a2.024,2.024,0,0,0-.277-1.432A1.3,1.3,0,0,0,93.058,8.5Zm7.854,4.5q.1-.766-.841-1.08l-1.285-.376q-1.627-.561-1.572-1.859a2.048,2.048,0,0,1,.892-1.6,3.177,3.177,0,0,1,1.986-.612,2.649,2.649,0,0,1,1.822.653,2.068,2.068,0,0,1,.673,1.665l-1.23-.007a1.154,1.154,0,0,0-.349-.9,1.379,1.379,0,0,0-.964-.362,1.8,1.8,0,0,0-1.107.314,1.151,1.151,0,0,0-.5.807q-.089.643.786.937l.622.171a4.005,4.005,0,0,1,1.8.854,1.632,1.632,0,0,1,.492,1.306,2.074,2.074,0,0,1-.451,1.2,2.58,2.58,0,0,1-1.094.783,3.658,3.658,0,0,1-1.456.25A2.885,2.885,0,0,1,97.2,14.45a2.124,2.124,0,0,1-.738-1.733l1.237.007a1.311,1.311,0,0,0,.4,1,1.515,1.515,0,0,0,1.087.376,2.132,2.132,0,0,0,1.169-.284A1.091,1.091,0,0,0,100.912,13Z" transform="translate(612 3206.109)" fill="#12263f"/>
    <path id="Trazado_1054832" data-name="Trazado 1054832" d="M2,0H81a2,2,0,0,1,2,2V18a2,2,0,0,1-2,2H2a2,2,0,0,1-2-2V2A2,2,0,0,1,2,0Z" transform="translate(648 3254.109)" fill="#fb8686"/>
    <path id="Trazado_1054833" data-name="Trazado 1054833" d="M7.991,11.828a3.968,3.968,0,0,1-1.4,2.447,3.917,3.917,0,0,1-2.663.861,3.1,3.1,0,0,1-1.613-.455,2.872,2.872,0,0,1-1.073-1.251A4.672,4.672,0,0,1,.82,11.623a5.8,5.8,0,0,1,.048-1.094l.116-.82A6.191,6.191,0,0,1,2.56,6.171,3.976,3.976,0,0,1,5.612,4.91a2.977,2.977,0,0,1,2.222.906A3.6,3.6,0,0,1,8.7,8.253H7.424Q7.335,6.161,5.783,6l-.226-.014a2.642,2.642,0,0,0-2.157.96A5.2,5.2,0,0,0,2.283,9.661l-.15,1.032-.041.6a3.384,3.384,0,0,0,.448,2,1.688,1.688,0,0,0,1.453.769,2.559,2.559,0,0,0,1.719-.5,3.321,3.321,0,0,0,1.036-1.716Zm5.236-4.361a2.666,2.666,0,0,1,1.593.506A2.874,2.874,0,0,1,15.8,9.33a4.2,4.2,0,0,1,.215,1.89L16,11.37a4.975,4.975,0,0,1-.643,1.952,3.77,3.77,0,0,1-1.326,1.357,3.234,3.234,0,0,1-1.784.458,2.671,2.671,0,0,1-1.589-.506,2.809,2.809,0,0,1-.974-1.34,4.314,4.314,0,0,1-.219-1.866A5.04,5.04,0,0,1,10.09,9.36a3.858,3.858,0,0,1,1.336-1.418A3.2,3.2,0,0,1,13.228,7.467Zm-2.516,3.965a4.2,4.2,0,0,0,0,.9,2.194,2.194,0,0,0,.482,1.285,1.447,1.447,0,0,0,1.1.5,1.971,1.971,0,0,0,1.135-.3,2.554,2.554,0,0,0,.875-.981,4.131,4.131,0,0,0,.458-1.456,6.558,6.558,0,0,0,.021-1.06A2.277,2.277,0,0,0,14.287,9,1.479,1.479,0,0,0,13.18,8.5a2.016,2.016,0,0,0-1.627.752,3.715,3.715,0,0,0-.827,2.023ZM21.513,13q.1-.766-.841-1.08l-1.285-.376q-1.627-.561-1.572-1.859a2.048,2.048,0,0,1,.892-1.6,3.177,3.177,0,0,1,1.986-.612,2.649,2.649,0,0,1,1.822.653,2.068,2.068,0,0,1,.673,1.665l-1.23-.007a1.154,1.154,0,0,0-.349-.9,1.379,1.379,0,0,0-.964-.362,1.8,1.8,0,0,0-1.107.314,1.151,1.151,0,0,0-.5.807q-.089.643.786.937l.622.171a4.005,4.005,0,0,1,1.8.854,1.632,1.632,0,0,1,.492,1.306,2.074,2.074,0,0,1-.451,1.2,2.58,2.58,0,0,1-1.094.783,3.658,3.658,0,0,1-1.456.25A2.885,2.885,0,0,1,17.8,14.45a2.124,2.124,0,0,1-.738-1.733l1.237.007a1.311,1.311,0,0,0,.4,1,1.515,1.515,0,0,0,1.087.376,2.132,2.132,0,0,0,1.169-.284A1.091,1.091,0,0,0,21.513,13Zm5.756-7.185L26.954,7.6H28.3l-.171.978H26.79l-.772,4.6a1.6,1.6,0,0,0-.007.328.521.521,0,0,0,.581.533,3.544,3.544,0,0,0,.6-.068l-.1,1.032a3.366,3.366,0,0,1-.9.123,1.292,1.292,0,0,1-1.107-.543,2.1,2.1,0,0,1-.287-1.425l.752-4.58H24.247l.171-.978h1.306l.314-1.791Zm5.209,1.654a2.666,2.666,0,0,1,1.593.506,2.874,2.874,0,0,1,.981,1.357,4.2,4.2,0,0,1,.215,1.89l-.014.15a4.975,4.975,0,0,1-.643,1.952,3.77,3.77,0,0,1-1.326,1.357,3.234,3.234,0,0,1-1.784.458,2.671,2.671,0,0,1-1.589-.506,2.809,2.809,0,0,1-.974-1.34,4.314,4.314,0,0,1-.219-1.866A5.04,5.04,0,0,1,29.34,9.36a3.858,3.858,0,0,1,1.336-1.418A3.2,3.2,0,0,1,32.478,7.467Zm-2.516,3.965a4.2,4.2,0,0,0,0,.9,2.194,2.194,0,0,0,.482,1.285,1.447,1.447,0,0,0,1.1.5,1.971,1.971,0,0,0,1.135-.3,2.554,2.554,0,0,0,.875-.981,4.131,4.131,0,0,0,.458-1.456,6.558,6.558,0,0,0,.021-1.06A2.277,2.277,0,0,0,33.537,9,1.479,1.479,0,0,0,32.43,8.5a2.016,2.016,0,0,0-1.627.752,3.715,3.715,0,0,0-.827,2.023ZM40.763,13q.1-.766-.841-1.08l-1.285-.376q-1.627-.561-1.572-1.859a2.048,2.048,0,0,1,.892-1.6,3.177,3.177,0,0,1,1.986-.612,2.649,2.649,0,0,1,1.822.653,2.068,2.068,0,0,1,.673,1.665l-1.23-.007a1.154,1.154,0,0,0-.349-.9,1.379,1.379,0,0,0-.964-.362,1.8,1.8,0,0,0-1.107.314,1.151,1.151,0,0,0-.5.807q-.089.643.786.937l.622.171a4.005,4.005,0,0,1,1.8.854,1.632,1.632,0,0,1,.492,1.306,2.074,2.074,0,0,1-.451,1.2,2.58,2.58,0,0,1-1.094.783,3.658,3.658,0,0,1-1.456.25,2.885,2.885,0,0,1-1.941-.687,2.124,2.124,0,0,1-.738-1.733l1.237.007a1.311,1.311,0,0,0,.4,1,1.515,1.515,0,0,0,1.087.376,2.132,2.132,0,0,0,1.169-.284A1.091,1.091,0,0,0,40.763,13ZM52.972,10.6H48.925L48.159,15H46.874L48.6,5.047h5.988L54.4,6.12H49.7l-.588,3.411h4.054ZM55.6,15h-1.23l1.285-7.4h1.23ZM56.615,4.9a.677.677,0,0,1,.523.188.7.7,0,0,1,.208.53.73.73,0,0,1-.731.745.682.682,0,0,1-.526-.185.669.669,0,0,1-.2-.52.776.776,0,0,1,.205-.533A.723.723,0,0,1,56.615,4.9Zm3.568,2.7-1.4,8.278a2.615,2.615,0,0,1-.7,1.593,1.981,1.981,0,0,1-1.473.533,3.65,3.65,0,0,1-.813-.137l.109-1.012a2.95,2.95,0,0,0,.567.075q.882,0,1.06-1.053L58.946,7.6ZM59.158,5.662a.784.784,0,0,1,.2-.533.719.719,0,0,1,.523-.226.666.666,0,0,1,.523.195.709.709,0,0,1,.208.523.736.736,0,0,1-.212.526.761.761,0,0,1-.526.219.652.652,0,0,1-.513-.191A.7.7,0,0,1,59.158,5.662Zm5.879,1.8a2.666,2.666,0,0,1,1.593.506,2.875,2.875,0,0,1,.981,1.357,4.2,4.2,0,0,1,.215,1.89l-.014.15a4.975,4.975,0,0,1-.643,1.952,3.77,3.77,0,0,1-1.326,1.357,3.234,3.234,0,0,1-1.784.458,2.671,2.671,0,0,1-1.589-.506,2.809,2.809,0,0,1-.974-1.34,4.314,4.314,0,0,1-.219-1.866A5.04,5.04,0,0,1,61.9,9.36a3.858,3.858,0,0,1,1.336-1.418A3.2,3.2,0,0,1,65.037,7.467Zm-2.516,3.965a4.2,4.2,0,0,0,0,.9A2.194,2.194,0,0,0,63,13.612a1.447,1.447,0,0,0,1.1.5,1.971,1.971,0,0,0,1.135-.3,2.554,2.554,0,0,0,.875-.981,4.131,4.131,0,0,0,.458-1.456,6.557,6.557,0,0,0,.021-1.06A2.277,2.277,0,0,0,66.1,9,1.479,1.479,0,0,0,64.989,8.5a2.016,2.016,0,0,0-1.627.752,3.715,3.715,0,0,0-.827,2.023ZM73.322,13q.1-.766-.841-1.08L71.2,11.541q-1.627-.561-1.572-1.859a2.048,2.048,0,0,1,.892-1.6A3.177,3.177,0,0,1,72.5,7.467a2.649,2.649,0,0,1,1.822.653A2.068,2.068,0,0,1,75,9.784l-1.23-.007a1.154,1.154,0,0,0-.349-.9,1.379,1.379,0,0,0-.964-.362,1.8,1.8,0,0,0-1.107.314,1.151,1.151,0,0,0-.5.807q-.089.643.786.937l.622.171a4.005,4.005,0,0,1,1.8.854,1.632,1.632,0,0,1,.492,1.306,2.074,2.074,0,0,1-.451,1.2,2.58,2.58,0,0,1-1.094.783,3.658,3.658,0,0,1-1.456.25,2.885,2.885,0,0,1-1.941-.687,2.124,2.124,0,0,1-.738-1.733l1.237.007a1.311,1.311,0,0,0,.4,1,1.515,1.515,0,0,0,1.087.376,2.132,2.132,0,0,0,1.169-.284A1.091,1.091,0,0,0,73.322,13Z" transform="translate(651 3256.109)" fill="#12263f"/>
    <path id="Trazado_1054834" data-name="Trazado 1054834" d="M2.365,11.1,1.688,15H.4L2.133,5.047l3.322.007a3.249,3.249,0,0,1,2.372.817,2.57,2.57,0,0,1,.718,2.17A3.1,3.1,0,0,1,7.407,10.29a4.128,4.128,0,0,1-2.676.82ZM2.55,10.03l2.215.007A2.694,2.694,0,0,0,6.48,9.511a2.106,2.106,0,0,0,.786-1.463,1.65,1.65,0,0,0-.349-1.364,1.755,1.755,0,0,0-1.333-.55L3.227,6.127Zm9.5,5.106a2.667,2.667,0,0,1-2.16-1.019,3.505,3.505,0,0,1-.656-2.536l.034-.294a4.921,4.921,0,0,1,.653-2.01,3.8,3.8,0,0,1,1.309-1.371,3.054,3.054,0,0,1,1.668-.441,2.352,2.352,0,0,1,1.791.759,3.121,3.121,0,0,1,.711,1.982,5.793,5.793,0,0,1-.027.889l-.075.567H10.459a2.5,2.5,0,0,0,.332,1.709,1.57,1.57,0,0,0,1.357.731,2.631,2.631,0,0,0,2.023-.984l.711.6a3.253,3.253,0,0,1-1.2,1.049A3.4,3.4,0,0,1,12.045,15.137ZM12.831,8.5a1.807,1.807,0,0,0-1.336.52,3.693,3.693,0,0,0-.906,1.606l3.6.007.027-.109a2.024,2.024,0,0,0-.277-1.432A1.3,1.3,0,0,0,12.831,8.5Zm1.114-4h1.579L13.433,6.51l-1.087,0Zm6.761,4.231-.581-.062a2.117,2.117,0,0,0-1.873,1.073L17.343,15H16.105l1.285-7.4,1.2-.007-.185.861a2.211,2.211,0,0,1,1.853-1,2.27,2.27,0,0,1,.588.1Zm.417,2.557a5.755,5.755,0,0,1,.622-2.037,3.527,3.527,0,0,1,1.2-1.36,2.736,2.736,0,0,1,1.565-.431,2.31,2.31,0,0,1,1.9.9L27.118,4.5h1.237L26.537,15H25.409l.13-.793a2.727,2.727,0,0,1-2.16.93,2.043,2.043,0,0,1-1.634-.8,3.5,3.5,0,0,1-.656-2.082A6.648,6.648,0,0,1,21.123,11.288Zm1.189.707a2.563,2.563,0,0,0,.349,1.516,1.258,1.258,0,0,0,1.08.553,2.235,2.235,0,0,0,1.907-1.079l.588-3.414a1.535,1.535,0,0,0-1.49-1.038,1.875,1.875,0,0,0-1.289.44,2.849,2.849,0,0,0-.848,1.29A5.322,5.322,0,0,0,22.313,11.995ZM29.832,15H28.6l1.285-7.4h1.23ZM30.851,4.9a.677.677,0,0,1,.523.188.7.7,0,0,1,.208.53.73.73,0,0,1-.731.745.682.682,0,0,1-.526-.185.669.669,0,0,1-.2-.52.775.775,0,0,1,.205-.533A.723.723,0,0,1,30.851,4.9Zm1.36,6.385a5.755,5.755,0,0,1,.622-2.037,3.527,3.527,0,0,1,1.2-1.36,2.736,2.736,0,0,1,1.565-.431,2.31,2.31,0,0,1,1.9.9L38.206,4.5h1.237L37.625,15H36.5l.13-.793a2.727,2.727,0,0,1-2.16.93,2.043,2.043,0,0,1-1.634-.8,3.5,3.5,0,0,1-.656-2.082A6.648,6.648,0,0,1,32.211,11.288Zm1.189.707a2.563,2.563,0,0,0,.349,1.516,1.258,1.258,0,0,0,1.08.553,2.235,2.235,0,0,0,1.907-1.079l.588-3.414a1.535,1.535,0,0,0-1.49-1.038,1.875,1.875,0,0,0-1.289.44,2.849,2.849,0,0,0-.848,1.29A5.322,5.322,0,0,0,33.4,11.995ZM44.105,15a1.657,1.657,0,0,1-.048-.39l.021-.39a3.032,3.032,0,0,1-2.16.916,2.21,2.21,0,0,1-1.589-.619A1.872,1.872,0,0,1,39.771,13,2.277,2.277,0,0,1,40.8,11.168a4.38,4.38,0,0,1,2.526-.66l1.292.007.082-.588a1.352,1.352,0,0,0-.256-1.049,1.237,1.237,0,0,0-.974-.4,1.908,1.908,0,0,0-1.125.311,1.324,1.324,0,0,0-.6.858L40.5,9.654A1.983,1.983,0,0,1,41.009,8.5a2.943,2.943,0,0,1,1.142-.779,3.688,3.688,0,0,1,1.442-.263,2.452,2.452,0,0,1,1.8.7,2.173,2.173,0,0,1,.54,1.788l-.6,3.664-.034.526a2.58,2.58,0,0,0,.082.745L45.363,15Zm-1.941-.957a2.158,2.158,0,0,0,1.125-.284,2.847,2.847,0,0,0,.913-.824l.267-1.524-.937-.007a3.547,3.547,0,0,0-1.791.369,1.36,1.36,0,0,0-.7,1.046,1.059,1.059,0,0,0,.243.865A1.156,1.156,0,0,0,42.164,14.043Z" transform="matrix(0.799, -0.602, 0.602, 0.799, 292.988, 3296.096)" fill="#12263f"/>
    <path id="Trazado_1054835" data-name="Trazado 1054835" d="M8.969,5.047,7.82,11.78a3.822,3.822,0,0,1-1.34,2.471,3.934,3.934,0,0,1-2.673.892,3.462,3.462,0,0,1-1.7-.441A2.54,2.54,0,0,1,1.046,13.52,3.229,3.229,0,0,1,.82,11.787l1.148-6.74H3.233L2.092,11.8a2.183,2.183,0,0,0,.355,1.645,1.777,1.777,0,0,0,1.429.626,2.461,2.461,0,0,0,1.753-.564,2.734,2.734,0,0,0,.9-1.7L7.677,5.047Zm3.384.766L12.038,7.6h1.347l-.171.978h-1.34l-.772,4.6a1.6,1.6,0,0,0-.007.328.521.521,0,0,0,.581.533,3.544,3.544,0,0,0,.6-.068l-.1,1.032a3.366,3.366,0,0,1-.9.123,1.292,1.292,0,0,1-1.107-.543,2.1,2.1,0,0,1-.287-1.425l.752-4.58H9.331L9.5,7.6h1.306l.314-1.791ZM14.93,15H13.7l1.285-7.4h1.23ZM15.948,4.9a.677.677,0,0,1,.523.188.7.7,0,0,1,.208.53.73.73,0,0,1-.731.745.682.682,0,0,1-.526-.185.669.669,0,0,1-.2-.52.775.775,0,0,1,.205-.533A.723.723,0,0,1,15.948,4.9ZM18.293,15h-1.23L18.881,4.5h1.237Zm3.363,0h-1.23l1.285-7.4h1.23ZM22.675,4.9a.677.677,0,0,1,.523.188.7.7,0,0,1,.208.53.73.73,0,0,1-.731.745.682.682,0,0,1-.526-.185.669.669,0,0,1-.2-.52.775.775,0,0,1,.205-.533A.723.723,0,0,1,22.675,4.9Zm1.36,6.385a5.755,5.755,0,0,1,.622-2.037,3.527,3.527,0,0,1,1.2-1.36,2.736,2.736,0,0,1,1.565-.431,2.31,2.31,0,0,1,1.9.9L30.03,4.5h1.237L29.449,15H28.321l.13-.793a2.727,2.727,0,0,1-2.16.93,2.043,2.043,0,0,1-1.634-.8A3.5,3.5,0,0,1,24,12.252,6.648,6.648,0,0,1,24.035,11.288Zm1.189.707a2.563,2.563,0,0,0,.349,1.516,1.258,1.258,0,0,0,1.08.553,2.235,2.235,0,0,0,1.907-1.079l.588-3.414a1.535,1.535,0,0,0-1.49-1.038,1.875,1.875,0,0,0-1.289.44,2.849,2.849,0,0,0-.848,1.29A5.322,5.322,0,0,0,25.225,11.995ZM35.93,15a1.657,1.657,0,0,1-.048-.39l.021-.39a3.032,3.032,0,0,1-2.16.916,2.21,2.21,0,0,1-1.589-.619A1.872,1.872,0,0,1,31.6,13a2.277,2.277,0,0,1,1.029-1.835,4.38,4.38,0,0,1,2.526-.66l1.292.007.082-.588a1.352,1.352,0,0,0-.256-1.049,1.237,1.237,0,0,0-.974-.4,1.908,1.908,0,0,0-1.125.311,1.324,1.324,0,0,0-.6.858l-1.244.007A1.983,1.983,0,0,1,32.833,8.5a2.943,2.943,0,0,1,1.142-.779,3.688,3.688,0,0,1,1.442-.263,2.452,2.452,0,0,1,1.8.7,2.173,2.173,0,0,1,.54,1.788l-.6,3.664-.034.526a2.58,2.58,0,0,0,.082.745L37.188,15Zm-1.941-.957a2.158,2.158,0,0,0,1.125-.284,2.847,2.847,0,0,0,.913-.824l.267-1.524-.937-.007a3.547,3.547,0,0,0-1.791.369,1.36,1.36,0,0,0-.7,1.046,1.059,1.059,0,0,0,.243.865A1.156,1.156,0,0,0,33.988,14.043Zm5.229-2.755a5.755,5.755,0,0,1,.622-2.037,3.527,3.527,0,0,1,1.2-1.36A2.736,2.736,0,0,1,42.6,7.46a2.31,2.31,0,0,1,1.9.9L45.213,4.5H46.45L44.632,15H43.5l.13-.793a2.727,2.727,0,0,1-2.16.93,2.043,2.043,0,0,1-1.634-.8,3.5,3.5,0,0,1-.656-2.082A6.648,6.648,0,0,1,39.218,11.288Zm1.189.707a2.563,2.563,0,0,0,.349,1.516,1.258,1.258,0,0,0,1.08.553,2.235,2.235,0,0,0,1.907-1.079l.588-3.414a1.535,1.535,0,0,0-1.49-1.038,1.875,1.875,0,0,0-1.289.44,2.849,2.849,0,0,0-.848,1.29A5.322,5.322,0,0,0,40.407,11.995Z" transform="matrix(0.891, -0.454, 0.454, 0.891, 529.062, 3126.162)" fill="#12263f"/>
    <path id="Trazado_1053861" data-name="Trazado 1053861" d="M-1364.606-14782.431h-1v-5.9H-1376v-1h11.394Z" transform="translate(1839.474 17938.109)" fill="#12263f"/>
    <path id="Trazado_1054836" data-name="Trazado 1054836" d="M1.5,0,3,3H0Z" transform="matrix(-1, 0.017, -0.017, -1, 475.894, 3158.057)" fill="#12263f"/>
    <path id="Polígono_3_-_Contorno" data-name="Polígono 3 - Contorno" d="M1.5,0,3,3H0Z" transform="matrix(-1, 0.017, -0.017, -1, 475.894, 3158.057)" fill="#12263f"/>
    <path id="Trazado_1053862" data-name="Trazado 1053862" d="M-1531.342-14654.184a11.446,11.446,0,0,1-1.061-5.112,10.888,10.888,0,0,1,.925-4.007,11.5,11.5,0,0,1,2.384-3.544l.682.73a10.707,10.707,0,0,0-2.166,3.25,9.871,9.871,0,0,0,.147,8.272Z" transform="translate(1841 17937.109)" fill="#12263f"/>
    <path id="Trazado_1054837" data-name="Trazado 1054837" d="M2,0,4,3H0Z" transform="translate(311.895 3268.152) rotate(45)" fill="#12263f"/>
    <path id="Polígono_4_-_Contorno" data-name="Polígono 4 - Contorno" d="M2,0,4,3H0Z" transform="translate(311.895 3268.152) rotate(45)" fill="#12263f"/>
  </g>
</svg>
