<svg xmlns="http://www.w3.org/2000/svg" xmlns:xlink="http://www.w3.org/1999/xlink" width="113" height="113" viewBox="0 0 113 113">
  <defs>
    <filter id="Trazado_896985" x="0" y="0" width="113" height="113" filterUnits="userSpaceOnUse">
      <feOffset dy="3" input="SourceAlpha"/>
      <feGaussianBlur stdDeviation="3" result="blur"/>
      <feFlood flood-opacity="0.161"/>
      <feComposite operator="in" in2="blur"/>
      <feComposite in="SourceGraphic"/>
    </filter>
    <clipPath id="clip-path">
      <rect id="Rectángulo_407901" data-name="Rectángulo 407901" width="58" height="58" transform="translate(0 -0.018)" fill="none"/>
    </clipPath>
  </defs>
  <g id="Grupo_1180217" data-name="Grupo 1180217" transform="translate(9 6)">
    <g id="Grupo_1111319" data-name="Grupo 1111319" transform="translate(0 0)">
      <g id="Grupo_1109827" data-name="Grupo 1109827">
        <g id="Grupo_1098742" data-name="Grupo 1098742">
          <g transform="matrix(1, 0, 0, 1, -9, -6)" filter="url(#Trazado_896985)">
            <g id="Trazado_896985-2" data-name="Trazado 896985" transform="translate(9 6)" fill="#5ab4f9" opacity="0.859">
              <path d="M 47.49993133544922 93.5 C 41.2893180847168 93.5 35.26527786254883 92.28396606445312 29.59514427185059 89.88571929931641 C 24.11767768859863 87.56893920898438 19.19810485839844 84.25196838378906 14.97306442260742 80.02693176269531 C 10.74802494049072 75.80188751220703 7.431051254272461 70.88231658935547 5.114277839660645 65.40484619140625 C 2.71602463722229 59.73471450805664 1.499997973442078 53.71067428588867 1.499997973442078 47.50006103515625 C 1.499997973442078 41.2893180847168 2.71602463722229 35.26527786254883 5.114277839660645 29.59514236450195 C 7.431051254272461 24.11768913269043 10.74802494049072 19.1981029510498 14.97306442260742 14.97306251525879 C 19.19810485839844 10.74802303314209 24.11767768859863 7.431049346923828 29.59514427185059 5.114289283752441 C 35.26527786254883 2.716022968292236 41.2893180847168 1.499996185302734 47.49993133544922 1.499996185302734 C 53.71054458618164 1.499996185302734 59.73458480834961 2.716022968292236 65.40471649169922 5.114289283752441 C 70.88218688964844 7.431049346923828 75.8017578125 10.74802303314209 80.02679443359375 14.97306251525879 C 84.25183868408203 19.1981029510498 87.56880950927734 24.11768913269043 89.88558197021484 29.59514236450195 C 92.28383636474609 35.26527786254883 93.49986267089844 41.2893180847168 93.49986267089844 47.49993133544922 C 93.49986267089844 53.71067428588867 92.28383636474609 59.73471450805664 89.88558197021484 65.40484619140625 C 87.56880950927734 70.88231658935547 84.25183868408203 75.80188751220703 80.02679443359375 80.02693176269531 C 75.8017578125 84.25196838378906 70.88218688964844 87.56893920898438 65.40471649169922 89.88571929931641 C 59.73458480834961 92.28396606445312 53.71054458618164 93.5 47.49993133544922 93.5 Z" stroke="none"/>
              <path d="M 47.49993133544922 2.999992370605469 C 41.49116134643555 2.999992370605469 35.66371536254883 4.1761474609375 30.17946624755859 6.495796203613281 C 24.88080596923828 8.736930847167969 20.12148284912109 11.94596862792969 16.03371429443359 16.03372192382812 C 11.94596099853516 20.12149047851562 8.736930847167969 24.88081359863281 6.495796203613281 30.17947387695312 C 4.1761474609375 35.66371917724609 2.999992370605469 41.49116516113281 2.999992370605469 47.50005722045898 C 2.999992370605469 53.50882720947266 4.1761474609375 59.33627319335938 6.495796203613281 64.82051849365234 C 8.736930847167969 70.11917877197266 11.94596099853516 74.87850189208984 16.03371429443359 78.96627044677734 C 20.12148284912109 83.05402374267578 24.88080596923828 86.2630615234375 30.17946624755859 88.50419616699219 C 35.66371536254883 90.82384490966797 41.49116134643555 92 47.49993133544922 92 C 53.50870132446289 92 59.33614730834961 90.82384490966797 64.82038879394531 88.50419616699219 C 70.11905670166016 86.2630615234375 74.87836456298828 83.05402374267578 78.96613311767578 78.96627044677734 C 83.05390167236328 74.87850189208984 86.26291656494141 70.11917877197266 88.50406646728516 64.82051849365234 C 90.82369995117188 59.33627319335938 91.99985504150391 53.50882720947266 91.99985504150391 47.49993515014648 C 91.99985504150391 41.49116516113281 90.82369995117188 35.66371917724609 88.50406646728516 30.17947387695312 C 86.26291656494141 24.88081359863281 83.05390167236328 20.12149047851562 78.96613311767578 16.03372192382812 C 74.87836456298828 11.94596862792969 70.11905670166016 8.736930847167969 64.82038879394531 6.495796203613281 C 59.33614730834961 4.1761474609375 53.50870132446289 2.999992370605469 47.49993133544922 2.999992370605469 M 47.49993133544922 -7.62939453125e-06 C 73.73342132568359 -7.62939453125e-06 94.99985504150391 21.26644134521484 94.99985504150391 47.49993515014648 L 94.99985504150391 47.50005722045898 C 94.99985504150391 73.73355102539062 73.73342132568359 95 47.49993133544922 95 C 21.26644134521484 95 -7.62939453125e-06 73.73355102539062 -7.62939453125e-06 47.50005722045898 L -7.62939453125e-06 47.49993515014648 C -7.62939453125e-06 21.26644134521484 21.26644134521484 -7.62939453125e-06 47.49993133544922 -7.62939453125e-06 Z" stroke="none" fill="#fff"/>
            </g>
          </g>
          <g id="Rectángulo_400907" data-name="Rectángulo 400907" transform="translate(0)" fill="none" stroke="#fff" stroke-width="3">
            <rect width="95" height="95" rx="47.5" stroke="none"/>
            <rect x="1.5" y="1.5" width="92" height="92" rx="46" fill="none"/>
          </g>
        </g>
      </g>
    </g>
    <g id="Grupo_1180834" data-name="Grupo 1180834" transform="translate(18.728 19.018)">
      <g id="Grupo_1180833" data-name="Grupo 1180833" clip-path="url(#clip-path)">
        <path id="Trazado_1054111" data-name="Trazado 1054111" d="M57.982,57.982h0ZM37.095,56.933H56.95V38.909H51.537V55.124h-1.81v-12.6H44.3v12.6H42.49V46.145h-5.4ZM14.469,20.777c0-2.442.008-4.832-.008-7.221a1.312,1.312,0,0,1,.357-.956c1.737-1.958,3.434-3.952,5.2-5.887a2.719,2.719,0,0,0,.806-2.147C20.746,3.354,20.8,2.134,20.8.926H.9c0,1.5-.013,2.965.013,4.431a1.252,1.252,0,0,0,.282.737c1.9,2.194,3.819,4.365,5.712,6.561a1.419,1.419,0,0,1,.312.844c.026,2.166.014,4.332.014,6.5v.78Zm4.51,19.941H.934V56.932H18.979Zm16-2.259A3.761,3.761,0,0,0,37.531,37a2.808,2.808,0,0,0,.638-3.165,1.3,1.3,0,0,1,.778-1.855,2.73,2.73,0,0,0,1.7-2.027A7.157,7.157,0,0,0,40.7,28.6a2.717,2.717,0,0,0-1.786-2.729,1.311,1.311,0,0,1-.757-1.827,2.783,2.783,0,0,0-.651-3.206c-.157-.163-.315-.324-.479-.48a2.781,2.781,0,0,0-3.207-.642A1.292,1.292,0,0,1,32,18.95a2.717,2.717,0,0,0-2.009-1.719,6.942,6.942,0,0,0-1.348-.059,2.724,2.724,0,0,0-2.767,1.811,1.307,1.307,0,0,1-1.794.742,2.782,2.782,0,0,0-3.249.659c-.162.157-.323.316-.479.48a2.774,2.774,0,0,0-.639,3.159,1.3,1.3,0,0,1-.778,1.855,2.724,2.724,0,0,0-1.7,2.025,7.047,7.047,0,0,0-.05,1.406,2.712,2.712,0,0,0,1.782,2.675,1.307,1.307,0,0,1,.76,1.825,2.779,2.779,0,0,0,.647,3.2q.234.245.48.479a2.781,2.781,0,0,0,3.2.65,1.3,1.3,0,0,1,1.823.76,2.718,2.718,0,0,0,2.008,1.722,7.013,7.013,0,0,0,1.348.06,2.724,2.724,0,0,0,2.769-1.808,1.331,1.331,0,0,1,1.794-.755c.383.14.786.226,1.181.337M47.015,20.79a9.949,9.949,0,1,0-9.934-9.98,9.929,9.929,0,0,0,9.934,9.98m-4.369,7.636,1.524,1.017,1.879-2.8.11.045V40.646h1.8V26.558L49.9,29.448l1.519-1.021-4.39-6.579-4.385,6.578M35.26,9.9H22.972l2.872-1.925L24.822,6.455l-6.579,4.389,6.584,4.385L25.84,13.7,22.9,11.727H35.26ZM9.019,34.913,7.08,32.028,5.56,33.049l4.387,6.579,4.391-6.583L12.813,32.03l-1.886,2.8-.11-.045V22.639h-1.8ZM20.814,49.758H31.306l-2.882,1.935,1.024,1.521,6.583-4.389-6.591-4.39-1.011,1.527,2.8,1.882-.04.1H20.814Z" fill="#fffefe"/>
        <path id="Trazado_1054112" data-name="Trazado 1054112" d="M122.835,146.866V136.078h5.4v8.979h1.81v-12.6h5.427v12.6h1.81V128.842h5.413v18.024Zm16.3-1.815h1.738V130.638h-1.738Zm-7.24,0h1.746v-10.8H131.9Zm-5.494-7.163h-1.739v7.18h1.739Z" transform="translate(-85.74 -89.933)" fill="#040506"/>
        <path id="Trazado_1054113" data-name="Trazado 1054113" d="M16.544,22.917H9.308v-.78c0-2.166.012-4.332-.014-6.5a1.418,1.418,0,0,0-.312-.844c-1.893-2.2-3.815-4.368-5.712-6.561A1.252,1.252,0,0,1,2.989,7.5c-.026-1.466-.013-2.933-.013-4.431h19.9c0,1.208-.055,2.428.018,3.64a2.719,2.719,0,0,1-.806,2.147c-1.762,1.935-3.459,3.929-5.2,5.887a1.312,1.312,0,0,0-.357.956c.017,2.39.008,4.779.008,7.221m3.4-14.432H5.994c.012.058.007.1.026.122,1.473,1.689,2.944,3.38,4.431,5.056a.791.791,0,0,0,.528.213c1.3.018,2.6.02,3.9,0a.856.856,0,0,0,.561-.258c1.489-1.674,2.961-3.364,4.507-5.13M4.809,6.612H21.023V4.87H4.809Zm6.323,14.473H14.7V15.73H11.132Z" transform="translate(-2.075 -2.139)" fill="#060606"/>
        <path id="Trazado_1054114" data-name="Trazado 1054114" d="M21.137,151.048H3.092V134.834H21.137Zm-1.83-1.785V136.649H15.693v5.358H8.476V136.65H4.913v12.612Zm-5.416-12.606H10.327v3.534h3.564Z" transform="translate(-2.158 -94.116)" fill="#040506"/>
        <path id="Trazado_1054115" data-name="Trazado 1054115" d="M74.676,78.144c-.394-.111-.8-.2-1.181-.337a1.331,1.331,0,0,0-1.794.755,2.724,2.724,0,0,1-2.769,1.809,7.036,7.036,0,0,1-1.348-.06,2.718,2.718,0,0,1-2.008-1.722,1.3,1.3,0,0,0-1.823-.76,2.781,2.781,0,0,1-3.205-.65c-.163-.156-.323-.316-.479-.479a2.777,2.777,0,0,1-.647-3.2,1.308,1.308,0,0,0-.76-1.826A2.712,2.712,0,0,1,56.879,69a7.043,7.043,0,0,1,.05-1.406,2.724,2.724,0,0,1,1.7-2.026,1.3,1.3,0,0,0,.777-1.855,2.773,2.773,0,0,1,.639-3.159c.156-.164.317-.323.479-.48a2.781,2.781,0,0,1,3.249-.659,1.307,1.307,0,0,0,1.794-.742,2.724,2.724,0,0,1,2.767-1.811,6.918,6.918,0,0,1,1.348.058,2.717,2.717,0,0,1,2.01,1.719,1.292,1.292,0,0,0,1.819.768,2.78,2.78,0,0,1,3.206.642c.164.156.323.317.479.48a2.783,2.783,0,0,1,.652,3.206,1.31,1.31,0,0,0,.757,1.827,2.718,2.718,0,0,1,1.786,2.73,7.209,7.209,0,0,1-.051,1.35,2.73,2.73,0,0,1-1.7,2.027,1.3,1.3,0,0,0-.778,1.855,2.808,2.808,0,0,1-.638,3.165,3.76,3.76,0,0,1-2.55,1.461m1.576-15.468c-.014-.985-1.315-1.9-2.106-1.533a3.211,3.211,0,0,1-4.117-1.729c-.229-.7-.785-.752-1.405-.756s-1.165.082-1.392.779a3.167,3.167,0,0,1-4.071,1.707c-.677-.334-1.121-.009-1.583.452a1.274,1.274,0,0,0-.422,1.545,3.059,3.059,0,0,1-1.7,4.06c-.673.279-.777.767-.779,1.4,0,.652.1,1.157.8,1.444a3.054,3.054,0,0,1,1.687,4.017,1.277,1.277,0,0,0,.391,1.554c.477.476.935.811,1.631.465a3.161,3.161,0,0,1,4.032,1.685c.231.719.778.807,1.431.81a1.3,1.3,0,0,0,1.426-.829,3.043,3.043,0,0,1,3.978-1.67,1.317,1.317,0,0,0,1.6-.4,1.35,1.35,0,0,0,.445-1.643,3.042,3.042,0,0,1,1.664-3.98,1.3,1.3,0,0,0,.831-1.425c0-.652-.107-1.155-.8-1.442a3.083,3.083,0,0,1-1.7-4.022c.074-.19.124-.39.155-.489" transform="translate(-39.695 -39.685)" fill="#0c0b09"/>
        <path id="Trazado_1054116" data-name="Trazado 1054116" d="M132.725,22.856a9.948,9.948,0,1,1,9.967-9.89,9.925,9.925,0,0,1-9.967,9.89m.024-18.087a8.138,8.138,0,1,0,8.132,8.174,8.175,8.175,0,0,0-8.132-8.174" transform="translate(-85.709 -2.065)" fill="#0b0b0a"/>
        <path id="Trazado_1054117" data-name="Trazado 1054117" d="M141.218,78.927l4.385-6.578,4.39,6.579-1.519,1.021-1.945-2.891V91.147h-1.8V77.19l-.11-.045-1.879,2.8-1.524-1.017" transform="translate(-98.572 -50.5)" fill="#070708"/>
        <path id="Trazado_1054118" data-name="Trazado 1054118" d="M77.424,24.822v1.823H65.067L68,28.623l-1.013,1.525-6.584-4.385,6.579-4.389L68.009,22.9l-2.872,1.925Z" transform="translate(-42.165 -14.919)" fill="#070708"/>
        <path id="Trazado_1054119" data-name="Trazado 1054119" d="M21.871,87.24V74.966h1.8V87.11l.11.045,1.886-2.8,1.524,1.014L22.8,91.954l-4.387-6.579,1.519-1.021,1.94,2.885" transform="translate(-12.852 -52.327)" fill="#070708"/>
        <path id="Trazado_1054120" data-name="Trazado 1054120" d="M68.922,152.463v-1.814H79.294l.04-.1-2.8-1.882,1.011-1.527,6.591,4.39-6.583,4.389L76.532,154.4l2.882-1.935Z" transform="translate(-48.108 -102.705)" fill="#070708"/>
        <rect id="Rectángulo_407895" data-name="Rectángulo 407895" width="1.738" height="14.413" transform="translate(53.399 40.704)" fill="#afc96a"/>
        <rect id="Rectángulo_407896" data-name="Rectángulo 407896" width="1.746" height="10.8" transform="translate(46.159 44.322)" fill="#afc96a"/>
        <rect id="Rectángulo_407897" data-name="Rectángulo 407897" width="1.739" height="7.18" transform="translate(38.926 47.959)" fill="#afc96a"/>
        <path id="Trazado_1054121" data-name="Trazado 1054121" d="M26.93,21.013c-1.546,1.766-3.018,3.456-4.507,5.13a.856.856,0,0,1-.562.258c-1.3.023-2.6.02-3.9,0a.79.79,0,0,1-.528-.213c-1.488-1.676-2.958-3.367-4.431-5.056-.019-.022-.015-.064-.027-.123Z" transform="translate(-9.057 -14.667)" fill="#e9685c"/>
        <rect id="Rectángulo_407898" data-name="Rectángulo 407898" width="16.214" height="1.742" transform="translate(2.734 2.731)" fill="#e75541"/>
        <rect id="Rectángulo_407899" data-name="Rectángulo 407899" width="3.568" height="5.354" transform="translate(9.057 13.591)" fill="#ea695c"/>
        <path id="Trazado_1054122" data-name="Trazado 1054122" d="M23.517,153.458H9.122V140.846h3.562V146.2H19.9v-5.358h3.615Z" transform="translate(-6.367 -98.311)" fill="#cc8e56"/>
        <rect id="Rectángulo_407900" data-name="Rectángulo 407900" width="3.564" height="3.534" transform="translate(8.169 42.541)" fill="#a56534"/>
        <path id="Trazado_1054123" data-name="Trazado 1054123" d="M80.43,66.843c-.031.1-.081.3-.155.489a3.083,3.083,0,0,0,1.7,4.022c.7.287.8.79.8,1.442a1.3,1.3,0,0,1-.831,1.425,3.042,3.042,0,0,0-1.664,3.98,1.35,1.35,0,0,1-.445,1.643,1.316,1.316,0,0,1-1.6.4,3.043,3.043,0,0,0-3.979,1.67,1.3,1.3,0,0,1-1.426.829c-.653,0-1.2-.091-1.431-.81a3.161,3.161,0,0,0-4.032-1.686c-.7.346-1.155.011-1.632-.465a1.277,1.277,0,0,1-.39-1.554,3.054,3.054,0,0,0-1.687-4.017c-.7-.287-.8-.792-.8-1.444,0-.631.107-1.119.779-1.4a3.059,3.059,0,0,0,1.7-4.06,1.274,1.274,0,0,1,.422-1.545c.462-.461.907-.785,1.583-.451A3.168,3.168,0,0,0,71.41,63.6c.226-.7.76-.783,1.391-.779s1.176.051,1.405.756a3.211,3.211,0,0,0,4.117,1.729c.792-.369,2.092.548,2.106,1.533M72.821,79.112a6.331,6.331,0,1,0-6.338-6.354,6.334,6.334,0,0,0,6.338,6.354" transform="translate(-43.873 -43.852)" fill="#ffb715"/>
        <path id="Trazado_1054124" data-name="Trazado 1054124" d="M136.934,8.952a8.138,8.138,0,1,1-8.148,8.1,8.175,8.175,0,0,1,8.148-8.1m.9,12.681a2.727,2.727,0,1,0-.216-5.447c-.509,0-1.018.012-1.526,0a.9.9,0,1,1-.014-1.8c.451-.017.906.021,1.356-.01.692-.048,1.178.178,1.331.882h1.949a11.8,11.8,0,0,0-.76-1.633,2.676,2.676,0,0,0-2.155-1.086V10.785h-1.777v1.76c-.117.012-.19.018-.262.027a2.718,2.718,0,0,0,.331,5.422c.565,0,1.131-.014,1.7.006a.9.9,0,1,1,.016,1.8c-.432.02-.868-.018-1.3.011-.711.047-1.27-.12-1.424-.888h-1.73c-.086,1.386.931,2.436,2.687,2.755v1.711h1.8Z" transform="translate(-89.894 -6.249)" fill="#ffcb59"/>
        <path id="Trazado_1054125" data-name="Trazado 1054125" d="M81.207,87.493a6.331,6.331,0,1,1,6.326-6.309,6.334,6.334,0,0,1-6.326,6.309m-.063-1.81a4.521,4.521,0,1,0-4.464-4.592,4.558,4.558,0,0,0,4.464,4.592" transform="translate(-52.259 -52.234)" fill="#0d0b05"/>
        <path id="Trazado_1054126" data-name="Trazado 1054126" d="M148.278,25.87v1.753h-1.8V25.911c-1.756-.319-2.773-1.369-2.687-2.755h1.73c.154.768.713.935,1.424.888.432-.028.867.01,1.3-.011a.9.9,0,1,0-.016-1.8c-.564-.019-1.13,0-1.7-.006a2.718,2.718,0,0,1-.331-5.422c.072-.009.144-.015.262-.027v-1.76h1.777V16.77a2.676,2.676,0,0,1,2.155,1.086,11.8,11.8,0,0,1,.76,1.633H149.21c-.153-.7-.64-.929-1.331-.882-.45.031-.9-.007-1.356.01a.9.9,0,1,0,.014,1.8c.508.016,1.017,0,1.526,0a2.727,2.727,0,1,1,.216,5.447" transform="translate(-100.339 -10.485)" fill="#0a0a06"/>
        <path id="Trazado_1054127" data-name="Trazado 1054127" d="M85.329,89.867a4.521,4.521,0,1,1,4.579-4.479,4.557,4.557,0,0,1-4.579,4.479m-2.656-4.518A2.713,2.713,0,1,0,85.4,82.634a2.709,2.709,0,0,0-2.724,2.715" transform="translate(-56.444 -56.417)" fill="#ffc958"/>
        <path id="Trazado_1054128" data-name="Trazado 1054128" d="M86.851,89.527a2.713,2.713,0,1,1,2.73,2.711,2.708,2.708,0,0,1-2.73-2.711m3.612.016a.9.9,0,1,0-.918.881.954.954,0,0,0,.918-.881" transform="translate(-60.623 -60.596)" fill="#0c0b08"/>
        <path id="Trazado_1054129" data-name="Trazado 1054129" d="M94.656,93.734a.9.9,0,1,1-.88-.918.955.955,0,0,1,.88.918" transform="translate(-64.816 -64.787)" fill="#f9f9f9"/>
      </g>
    </g>
  </g>
</svg>
