<svg xmlns="http://www.w3.org/2000/svg" xmlns:xlink="http://www.w3.org/1999/xlink" width="113" height="113" viewBox="0 0 113 113">
  <defs>
    <filter id="Trazado_896985" x="0" y="0" width="113" height="113" filterUnits="userSpaceOnUse">
      <feOffset dy="3" input="SourceAlpha"/>
      <feGaussianBlur stdDeviation="3" result="blur"/>
      <feFlood flood-opacity="0.161"/>
      <feComposite operator="in" in2="blur"/>
      <feComposite in="SourceGraphic"/>
    </filter>
  </defs>
  <g id="Grupo_1180220" data-name="Grupo 1180220" transform="translate(9 6)">
    <g id="Grupo_1111319" data-name="Grupo 1111319" transform="translate(0 0)">
      <g id="Grupo_1109827" data-name="Grupo 1109827">
        <g id="Grupo_1098742" data-name="Grupo 1098742">
          <g transform="matrix(1, 0, 0, 1, -9, -6)" filter="url(#Trazado_896985)">
            <g id="Trazado_896985-2" data-name="Trazado 896985" transform="translate(9 6)" fill="#5ab4f9" opacity="0.859">
              <path d="M 47.49993133544922 93.5 C 41.2893180847168 93.5 35.26527786254883 92.28396606445312 29.59514427185059 89.88571929931641 C 24.11767768859863 87.56893920898438 19.19810485839844 84.25196838378906 14.97306442260742 80.02693176269531 C 10.74802494049072 75.80188751220703 7.431051254272461 70.88231658935547 5.114277839660645 65.40484619140625 C 2.71602463722229 59.73471450805664 1.499997973442078 53.71067428588867 1.499997973442078 47.50006103515625 C 1.499997973442078 41.2893180847168 2.71602463722229 35.26527786254883 5.114277839660645 29.59514236450195 C 7.431051254272461 24.11768913269043 10.74802494049072 19.1981029510498 14.97306442260742 14.97306251525879 C 19.19810485839844 10.74802303314209 24.11767768859863 7.431049346923828 29.59514427185059 5.114289283752441 C 35.26527786254883 2.716022968292236 41.2893180847168 1.499996185302734 47.49993133544922 1.499996185302734 C 53.71054458618164 1.499996185302734 59.73458480834961 2.716022968292236 65.40471649169922 5.114289283752441 C 70.88218688964844 7.431049346923828 75.8017578125 10.74802303314209 80.02679443359375 14.97306251525879 C 84.25183868408203 19.1981029510498 87.56880950927734 24.11768913269043 89.88558197021484 29.59514236450195 C 92.28383636474609 35.26527786254883 93.49986267089844 41.2893180847168 93.49986267089844 47.49993133544922 C 93.49986267089844 53.71067428588867 92.28383636474609 59.73471450805664 89.88558197021484 65.40484619140625 C 87.56880950927734 70.88231658935547 84.25183868408203 75.80188751220703 80.02679443359375 80.02693176269531 C 75.8017578125 84.25196838378906 70.88218688964844 87.56893920898438 65.40471649169922 89.88571929931641 C 59.73458480834961 92.28396606445312 53.71054458618164 93.5 47.49993133544922 93.5 Z" stroke="none"/>
              <path d="M 47.49993133544922 2.999992370605469 C 41.49116134643555 2.999992370605469 35.66371536254883 4.1761474609375 30.17946624755859 6.495796203613281 C 24.88080596923828 8.736930847167969 20.12148284912109 11.94596862792969 16.03371429443359 16.03372192382812 C 11.94596099853516 20.12149047851562 8.736930847167969 24.88081359863281 6.495796203613281 30.17947387695312 C 4.1761474609375 35.66371917724609 2.999992370605469 41.49116516113281 2.999992370605469 47.50005722045898 C 2.999992370605469 53.50882720947266 4.1761474609375 59.33627319335938 6.495796203613281 64.82051849365234 C 8.736930847167969 70.11917877197266 11.94596099853516 74.87850189208984 16.03371429443359 78.96627044677734 C 20.12148284912109 83.05402374267578 24.88080596923828 86.2630615234375 30.17946624755859 88.50419616699219 C 35.66371536254883 90.82384490966797 41.49116134643555 92 47.49993133544922 92 C 53.50870132446289 92 59.33614730834961 90.82384490966797 64.82038879394531 88.50419616699219 C 70.11905670166016 86.2630615234375 74.87836456298828 83.05402374267578 78.96613311767578 78.96627044677734 C 83.05390167236328 74.87850189208984 86.26291656494141 70.11917877197266 88.50406646728516 64.82051849365234 C 90.82369995117188 59.33627319335938 91.99985504150391 53.50882720947266 91.99985504150391 47.49993515014648 C 91.99985504150391 41.49116516113281 90.82369995117188 35.66371917724609 88.50406646728516 30.17947387695312 C 86.26291656494141 24.88081359863281 83.05390167236328 20.12149047851562 78.96613311767578 16.03372192382812 C 74.87836456298828 11.94596862792969 70.11905670166016 8.736930847167969 64.82038879394531 6.495796203613281 C 59.33614730834961 4.1761474609375 53.50870132446289 2.999992370605469 47.49993133544922 2.999992370605469 M 47.49993133544922 -7.62939453125e-06 C 73.73342132568359 -7.62939453125e-06 94.99985504150391 21.26644134521484 94.99985504150391 47.49993515014648 L 94.99985504150391 47.50005722045898 C 94.99985504150391 73.73355102539062 73.73342132568359 95 47.49993133544922 95 C 21.26644134521484 95 -7.62939453125e-06 73.73355102539062 -7.62939453125e-06 47.50005722045898 L -7.62939453125e-06 47.49993515014648 C -7.62939453125e-06 21.26644134521484 21.26644134521484 -7.62939453125e-06 47.49993133544922 -7.62939453125e-06 Z" stroke="none" fill="#fff"/>
            </g>
          </g>
          <g id="Rectángulo_400907" data-name="Rectángulo 400907" transform="translate(0)" fill="none" stroke="#fff" stroke-width="3">
            <rect width="95" height="95" rx="47.5" stroke="none"/>
            <rect x="1.5" y="1.5" width="92" height="92" rx="46" fill="none"/>
          </g>
        </g>
      </g>
    </g>
    <g id="Grupo_1180838" data-name="Grupo 1180838" transform="translate(17.713 17.901)">
      <g id="Grupo_1180839" data-name="Grupo 1180839" transform="translate(1.031 0.785)">
        <path id="Trazado_1054168" data-name="Trazado 1054168" d="M57.649,20.885h2.779v5.551H57.713V59.851H5.7V26.466H2.916V20.915H4.711V4.227H14v5.49h3.716V20.854h1.9v-.515c0-2.669-.005-5.338,0-8.006a10.075,10.075,0,0,1,8.7-9.864,22.15,22.15,0,0,1,7.951.227,10.145,10.145,0,0,1,7.38,8.344c.023.172.067.341.113.573.625,0,1.255,0,1.886,0a2.785,2.785,0,0,1-.016,5.569c-.6,0-1.2,0-1.836,0v3.674H50.22V9.794h7.429ZM9.433,54.32V28.369h9.286v9.553a14.736,14.736,0,0,1,7.574-4.607,1.218,1.218,0,0,0,1.1-1.2.6.6,0,0,0-.4-.748,6.08,6.08,0,0,1-1.176-.73,6.46,6.46,0,0,1-2.43-4.123H7.564V58h11.7a10.029,10.029,0,0,1-2.911-3.218.785.785,0,0,0-.8-.477c-2.028.024-4.056.011-6.119.011m46.35,3.688V26.5H39.988a6.585,6.585,0,0,1-3.6,4.867c-.255.127-.585.211-.42.61.178.432-.078,1.068.686,1.224a13,13,0,0,1,5.06,2.2c1.024.739,1.967,1.592,2.957,2.4V28.356h9.251V54.347h-5.5v3.661ZM29.092,15.3c.13-.508.253-.993.378-1.477a2.761,2.761,0,0,1,2.857-2.214q4.149,0,8.3,0H41.8c-.009-.177-.007-.31-.023-.441a8.31,8.31,0,0,0-6.924-6.85,39.234,39.234,0,0,0-5.1-.121A8.185,8.185,0,0,0,22.27,8.99c-1.023,2-.792,4.159-.8,6.313Zm9.077,1.911H25.191c0,2.908-.065,5.786.022,8.659a4.348,4.348,0,0,0,3.808,4.181,28.959,28.959,0,0,0,4.857.092,4.5,4.5,0,0,0,4.274-4.322c.08-2.855.019-5.714.019-8.61M11.285,30.2V52.437h3.879c-.067-1.5-.173-2.975-.191-4.453A14.974,14.974,0,0,1,16.6,41.079a2.06,2.06,0,0,0,.215-.871c.015-3.17.01-6.34.008-9.51,0-.166-.018-.332-.028-.5Zm40.81.017H46.537c0,3.435,0,6.834.008,10.234a1.456,1.456,0,0,0,.194.587,12.226,12.226,0,0,1,1.4,4.37c.165,2.133.174,4.277.249,6.417.007.2,0,.409,0,.6h3.7ZM37.034,35.271c-.2,2.028-.405,4.019-.606,6.005a3.038,3.038,0,0,1,2.7,3.349c-.063,4.252-.022,8.507-.022,12.76V58h1.857V45.079h1.876v3.64h3.651a13.126,13.126,0,0,0-9.459-13.449m-10.711.01A13.059,13.059,0,0,0,16.882,48.72h3.689V45.074h1.768c.055,1.251.048,2.47.179,3.673a5.043,5.043,0,0,0,1.733,3.188v-.682c0-2.4-.006-4.793,0-7.189a2.768,2.768,0,0,1,1.994-2.62c.217-.062.439-.107.653-.158a1.226,1.226,0,0,0,.015-.2c-.195-1.918-.391-3.837-.593-5.8m.3,17.943a4.67,4.67,0,0,1,6.4-2.062,4.436,4.436,0,0,1,2.1,2.451,4.8,4.8,0,0,1-.582,4.393h2.708V56.2q0-5.886,0-11.772c0-.928-.326-1.247-1.259-1.246-.186,0-.373.016-.616.027v3.642H27.948V43.2c-.148-.007-.259-.016-.37-.018-1.2-.02-1.47.25-1.47,1.442,0,2.668.006,5.335-.007,8,0,.369.073.6.523.6m-9.695-2.6a8.178,8.178,0,0,0,6.966,7.267c2.36.2,4.748.136,7.123.123a2.6,2.6,0,0,0,2.405-1.941A2.816,2.816,0,0,0,32.4,52.979a2.716,2.716,0,0,0-3.981.947c-1.1,1.636-1.1,1.648-2.968.932a7.573,7.573,0,0,1-4.367-4.236ZM6.623,20.865h3.71V9.743h1.813V6.074H6.623Zm5.57,0H15.86V11.646H12.192Zm39.931,0H55.79V11.646H52.124ZM4.771,24.577H20.007l-.488-1.79H4.771Zm38.579,0H58.569V22.788H43.846l-.5,1.787M31.037,15.326H45.264a2.04,2.04,0,0,0,.519-.026.92.92,0,0,0-.014-1.809,1.629,1.629,0,0,0-.4-.021q-6.46,0-12.921,0a1.02,1.02,0,0,0-1.2.913c-.078.3-.134.6-.211.943M42.857,58H46.5V50.621H42.857ZM34.04,32.067H29.29c-.086.405-.18.777-.237,1.155a.65.65,0,0,0,.063.473c.84.866,1.7,1.71,2.548,2.552a1.324,1.324,0,0,0,.143-.1,16.392,16.392,0,0,1,1.525-1.5,1.922,1.922,0,0,0,.756-2.515.584.584,0,0,0-.049-.072m-4.172,12.92H33.5V43.2H29.868ZM23.3,20.931a1.825,1.825,0,0,0-1.838,1.829,1.8,1.8,0,0,0,1.838,1.8ZM40.055,24.6a1.893,1.893,0,0,0,1.836-1.97,1.808,1.808,0,0,0-1.836-1.688ZM28.242,35.651c.137,1.358.276,2.73.427,4.223l1.688-2.109-2.115-2.114m6.449,4.224c.152-1.51.29-2.887.422-4.191l-2.094,2.1,1.672,2.087m-3.01-.773-1.747,2.185h3.493L31.681,39.1M21.517,17.209v2.227l1.765-.49V17.209Zm18.547,1.725,1.83.523V17.225h-1.83Z" transform="translate(-2.916 -2.221)" fill="#060606"/>
        <path id="Trazado_1054169" data-name="Trazado 1054169" d="M17.521,96.6c2.063,0,4.091.013,6.119-.011a.785.785,0,0,1,.8.477,10.029,10.029,0,0,0,2.911,3.218h-11.7V68.788H31.471a6.46,6.46,0,0,0,2.43,4.123,6.092,6.092,0,0,0,1.176.73.6.6,0,0,1,.4.748,1.219,1.219,0,0,1-1.1,1.2A14.735,14.735,0,0,0,26.807,80.2V70.644H17.521Z" transform="translate(-11.004 -44.496)" fill="#c58c62"/>
        <path id="Trazado_1054170" data-name="Trazado 1054170" d="M113.235,100.262h-7.359V96.6h5.5V70.61H102.13v9.444c-.99-.811-1.933-1.663-2.957-2.4a13,13,0,0,0-5.06-2.2c-.765-.156-.509-.792-.686-1.224-.165-.4.165-.482.42-.61a6.585,6.585,0,0,0,3.6-4.867h15.795Z" transform="translate(-60.368 -44.475)" fill="#c58c62"/>
        <path id="Trazado_1054171" data-name="Trazado 1054171" d="M61.355,18.7H53.737c0-2.154-.227-4.309.8-6.313a8.184,8.184,0,0,1,7.485-4.79,39.164,39.164,0,0,1,5.1.121,8.31,8.31,0,0,1,6.924,6.85c.016.131.015.264.024.44H72.887q-4.149,0-8.3,0a2.76,2.76,0,0,0-2.857,2.213c-.124.485-.248.97-.378,1.477" transform="translate(-35.179 -5.615)" fill="#ffe395"/>
        <path id="Trazado_1054172" data-name="Trazado 1054172" d="M76.893,43.308c0,2.9.061,5.755-.019,8.609A4.5,4.5,0,0,1,72.6,56.24a28.956,28.956,0,0,1-4.856-.092,4.348,4.348,0,0,1-3.808-4.181c-.087-2.873-.022-5.751-.022-8.659Zm-3.654,7.424c-.391,1.439-.908,1.828-2.43,1.828H67.654v1.853c1.349,0,2.664.041,3.974-.009a3.649,3.649,0,0,0,3.389-3.673H73.239m-5.621-4.647a.93.93,0,1,0-.926.906.924.924,0,0,0,.926-.906m6.545-.953a.931.931,0,1,0,.884.946.921.921,0,0,0-.884-.946" transform="translate(-41.639 -28.314)" fill="#efc4a4"/>
        <path id="Trazado_1054173" data-name="Trazado 1054173" d="M25.85,78.887h5.507c.01.167.028.333.028.5,0,3.17.007,6.34-.008,9.51a2.055,2.055,0,0,1-.215.872,14.971,14.971,0,0,0-1.624,6.905c.018,1.478.124,2.955.191,4.453H25.85Z" transform="translate(-17.481 -50.91)" fill="#5fc1e5"/>
        <path id="Trazado_1054174" data-name="Trazado 1054174" d="M128.008,78.934v22.211h-3.7c0-.194.007-.4,0-.6-.074-2.14-.084-4.284-.249-6.417a12.209,12.209,0,0,0-1.4-4.37,1.45,1.45,0,0,1-.194-.588c-.012-3.4-.009-6.8-.009-10.234Z" transform="translate(-78.829 -50.939)" fill="#60c1e5"/>
        <path id="Trazado_1054175" data-name="Trazado 1054175" d="M95.355,92.786a13.127,13.127,0,0,1,9.459,13.449h-3.651v-3.64H99.286v12.917H97.429V114.9c0-4.254-.042-8.508.021-12.76a3.038,3.038,0,0,0-2.7-3.349c.2-1.987.4-3.978.606-6.005" transform="translate(-61.237 -59.736)" fill="#afc86a"/>
        <path id="Trazado_1054176" data-name="Trazado 1054176" d="M50.554,92.814c.2,1.967.4,3.886.593,5.8a1.23,1.23,0,0,1-.015.2c-.215.051-.436.1-.653.158a2.768,2.768,0,0,0-1.994,2.62c-.009,2.4,0,4.793,0,7.189v.682a5.043,5.043,0,0,1-1.733-3.187c-.131-1.2-.124-2.422-.179-3.673H44.8v3.645H41.113a13.059,13.059,0,0,1,9.441-13.438" transform="translate(-27.147 -59.754)" fill="#aec86a"/>
        <path id="Trazado_1054177" data-name="Trazado 1054177" d="M66.972,124.5c-.449,0-.524-.231-.523-.6.013-2.667.007-5.335.007-8,0-1.192.275-1.462,1.47-1.442.111,0,.223.011.37.018v3.652h7.427v-3.642c.243-.011.43-.027.616-.027.933,0,1.259.319,1.259,1.246q0,5.886,0,11.772v1.808H74.891a4.8,4.8,0,0,0,.582-4.393,4.438,4.438,0,0,0-2.1-2.451,4.67,4.67,0,0,0-6.4,2.062" transform="translate(-43.264 -73.498)" fill="#cb8d56"/>
        <path id="Trazado_1054178" data-name="Trazado 1054178" d="M41.314,134.854h4.16a7.572,7.572,0,0,0,4.367,4.236c1.864.716,1.87.7,2.968-.932a2.716,2.716,0,0,1,3.981-.948,2.816,2.816,0,0,1,1.019,3.093,2.6,2.6,0,0,1-2.406,1.94c-2.375.014-4.762.082-7.123-.123a8.179,8.179,0,0,1-6.966-7.267" transform="translate(-27.302 -86.453)" fill="#edc3a3"/>
        <path id="Trazado_1054179" data-name="Trazado 1054179" d="M13.074,27.57V12.78H18.6v3.669H16.784V27.57Z" transform="translate(-9.367 -8.927)" fill="#c1c8d1"/>
        <rect id="Rectángulo_407903" data-name="Rectángulo 407903" width="3.668" height="9.217" transform="translate(9.276 9.425)" fill="#e0e4e9"/>
        <rect id="Rectángulo_407904" data-name="Rectángulo 407904" width="3.666" height="9.216" transform="translate(49.208 9.425)" fill="#c1c8d1"/>
        <path id="Trazado_1054180" data-name="Trazado 1054180" d="M8,60.367v-1.79H22.745l.489,1.79Z" transform="translate(-6.143 -38.011)" fill="#cc8e56"/>
        <path id="Trazado_1054181" data-name="Trazado 1054181" d="M113.715,60.368l.5-1.787h14.723v1.787Z" transform="translate(-73.282 -38.014)" fill="#cc8e56"/>
        <path id="Trazado_1054182" data-name="Trazado 1054182" d="M79.976,34.9c.077-.346.133-.647.211-.943a1.02,1.02,0,0,1,1.2-.913q6.461,0,12.922,0a1.627,1.627,0,0,1,.4.021.92.92,0,0,1,.014,1.808,2.039,2.039,0,0,1-.519.026H79.976" transform="translate(-51.855 -21.793)" fill="#ffcc59"/>
        <rect id="Rectángulo_407905" data-name="Rectángulo 407905" width="3.646" height="7.377" transform="translate(39.941 48.4)" fill="#efc5a4"/>
        <path id="Trazado_1054183" data-name="Trazado 1054183" d="M79.5,84.006a.644.644,0,0,1,.049.072,1.922,1.922,0,0,1-.757,2.515,16.527,16.527,0,0,0-1.525,1.5,1.2,1.2,0,0,1-.143.1c-.847-.842-1.709-1.686-2.548-2.553a.647.647,0,0,1-.063-.473c.057-.378.151-.75.237-1.155Z" transform="translate(-48.377 -54.161)" fill="#eec4a3"/>
        <rect id="Rectángulo_407906" data-name="Rectángulo 407906" width="3.633" height="1.782" transform="translate(26.952 40.983)" fill="#a56534"/>
        <path id="Trazado_1054184" data-name="Trazado 1054184" d="M55.584,53.492v3.629a1.805,1.805,0,0,1-1.839-1.8,1.825,1.825,0,0,1,1.839-1.829" transform="translate(-35.196 -34.782)" fill="#ebc1a1"/>
        <path id="Trazado_1054185" data-name="Trazado 1054185" d="M104.686,57.185V53.527a1.808,1.808,0,0,1,1.836,1.688,1.893,1.893,0,0,1-1.836,1.97" transform="translate(-67.547 -34.804)" fill="#ebc1a1"/>
        <path id="Trazado_1054186" data-name="Trazado 1054186" d="M72.317,93.828l2.115,2.114-1.689,2.109c-.151-1.493-.29-2.865-.427-4.223" transform="translate(-46.991 -60.398)" fill="#99bb52"/>
        <path id="Trazado_1054187" data-name="Trazado 1054187" d="M87.077,98.11,85.4,96.022l2.094-2.1c-.131,1.3-.27,2.68-.422,4.191" transform="translate(-55.303 -60.456)" fill="#98bb52"/>
        <path id="Trazado_1054188" data-name="Trazado 1054188" d="M78.7,103.285l1.746,2.185H76.953l1.747-2.185" transform="translate(-49.935 -66.404)" fill="#abc567"/>
        <path id="Trazado_1054189" data-name="Trazado 1054189" d="M53.89,43.292h1.765v1.737l-1.765.49Z" transform="translate(-35.288 -28.304)" fill="#525b66"/>
        <path id="Trazado_1054190" data-name="Trazado 1054190" d="M104.713,45.045V43.336h1.83v2.231l-1.83-.523" transform="translate(-67.565 -28.332)" fill="#525b66"/>
        <path id="Trazado_1054191" data-name="Trazado 1054191" d="M79.788,63.648h1.778a3.649,3.649,0,0,1-3.389,3.673c-1.31.05-2.625.009-3.974.009V65.476h3.156c1.522,0,2.039-.389,2.43-1.829" transform="translate(-48.188 -41.231)" fill="#090808"/>
        <path id="Trazado_1054192" data-name="Trazado 1054192" d="M70.868,49.256a.93.93,0,1,1-.877-.953.924.924,0,0,1,.877.953" transform="translate(-44.89 -31.486)" fill="#12100d"/>
        <path id="Trazado_1054193" data-name="Trazado 1054193" d="M90.342,48.3a.931.931,0,1,1-.975.912.924.924,0,0,1,.975-.912" transform="translate(-57.818 -31.486)" fill="#12100d"/>
      </g>
    </g>
  </g>
</svg>
