<svg xmlns="http://www.w3.org/2000/svg" xmlns:xlink="http://www.w3.org/1999/xlink" width="113" height="113" viewBox="0 0 113 113">
  <defs>
    <filter id="Trazado_896985" x="0" y="0" width="113" height="113" filterUnits="userSpaceOnUse">
      <feOffset dy="3" input="SourceAlpha"/>
      <feGaussianBlur stdDeviation="3" result="blur"/>
      <feFlood flood-opacity="0.161"/>
      <feComposite operator="in" in2="blur"/>
      <feComposite in="SourceGraphic"/>
    </filter>
  </defs>
  <g id="Grupo_1180219" data-name="Grupo 1180219" transform="translate(9 6)">
    <g id="Grupo_1111319" data-name="Grupo 1111319" transform="translate(0 0)">
      <g id="Grupo_1109827" data-name="Grupo 1109827">
        <g id="Grupo_1098742" data-name="Grupo 1098742">
          <g transform="matrix(1, 0, 0, 1, -9, -6)" filter="url(#Trazado_896985)">
            <g id="Trazado_896985-2" data-name="Trazado 896985" transform="translate(9 6)" fill="#5ab4f9" opacity="0.859">
              <path d="M 47.49993133544922 93.5 C 41.2893180847168 93.5 35.26527786254883 92.28396606445312 29.59514427185059 89.88571929931641 C 24.11767768859863 87.56893920898438 19.19810485839844 84.25196838378906 14.97306442260742 80.02693176269531 C 10.74802494049072 75.80188751220703 7.431051254272461 70.88231658935547 5.114277839660645 65.40484619140625 C 2.71602463722229 59.73471450805664 1.499997973442078 53.71067428588867 1.499997973442078 47.50006103515625 C 1.499997973442078 41.2893180847168 2.71602463722229 35.26527786254883 5.114277839660645 29.59514236450195 C 7.431051254272461 24.11768913269043 10.74802494049072 19.1981029510498 14.97306442260742 14.97306251525879 C 19.19810485839844 10.74802303314209 24.11767768859863 7.431049346923828 29.59514427185059 5.114289283752441 C 35.26527786254883 2.716022968292236 41.2893180847168 1.499996185302734 47.49993133544922 1.499996185302734 C 53.71054458618164 1.499996185302734 59.73458480834961 2.716022968292236 65.40471649169922 5.114289283752441 C 70.88218688964844 7.431049346923828 75.8017578125 10.74802303314209 80.02679443359375 14.97306251525879 C 84.25183868408203 19.1981029510498 87.56880950927734 24.11768913269043 89.88558197021484 29.59514236450195 C 92.28383636474609 35.26527786254883 93.49986267089844 41.2893180847168 93.49986267089844 47.49993133544922 C 93.49986267089844 53.71067428588867 92.28383636474609 59.73471450805664 89.88558197021484 65.40484619140625 C 87.56880950927734 70.88231658935547 84.25183868408203 75.80188751220703 80.02679443359375 80.02693176269531 C 75.8017578125 84.25196838378906 70.88218688964844 87.56893920898438 65.40471649169922 89.88571929931641 C 59.73458480834961 92.28396606445312 53.71054458618164 93.5 47.49993133544922 93.5 Z" stroke="none"/>
              <path d="M 47.49993133544922 2.999992370605469 C 41.49116134643555 2.999992370605469 35.66371536254883 4.1761474609375 30.17946624755859 6.495796203613281 C 24.88080596923828 8.736930847167969 20.12148284912109 11.94596862792969 16.03371429443359 16.03372192382812 C 11.94596099853516 20.12149047851562 8.736930847167969 24.88081359863281 6.495796203613281 30.17947387695312 C 4.1761474609375 35.66371917724609 2.999992370605469 41.49116516113281 2.999992370605469 47.50005722045898 C 2.999992370605469 53.50882720947266 4.1761474609375 59.33627319335938 6.495796203613281 64.82051849365234 C 8.736930847167969 70.11917877197266 11.94596099853516 74.87850189208984 16.03371429443359 78.96627044677734 C 20.12148284912109 83.05402374267578 24.88080596923828 86.2630615234375 30.17946624755859 88.50419616699219 C 35.66371536254883 90.82384490966797 41.49116134643555 92 47.49993133544922 92 C 53.50870132446289 92 59.33614730834961 90.82384490966797 64.82038879394531 88.50419616699219 C 70.11905670166016 86.2630615234375 74.87836456298828 83.05402374267578 78.96613311767578 78.96627044677734 C 83.05390167236328 74.87850189208984 86.26291656494141 70.11917877197266 88.50406646728516 64.82051849365234 C 90.82369995117188 59.33627319335938 91.99985504150391 53.50882720947266 91.99985504150391 47.49993515014648 C 91.99985504150391 41.49116516113281 90.82369995117188 35.66371917724609 88.50406646728516 30.17947387695312 C 86.26291656494141 24.88081359863281 83.05390167236328 20.12149047851562 78.96613311767578 16.03372192382812 C 74.87836456298828 11.94596862792969 70.11905670166016 8.736930847167969 64.82038879394531 6.495796203613281 C 59.33614730834961 4.1761474609375 53.50870132446289 2.999992370605469 47.49993133544922 2.999992370605469 M 47.49993133544922 -7.62939453125e-06 C 73.73342132568359 -7.62939453125e-06 94.99985504150391 21.26644134521484 94.99985504150391 47.49993515014648 L 94.99985504150391 47.50005722045898 C 94.99985504150391 73.73355102539062 73.73342132568359 95 47.49993133544922 95 C 21.26644134521484 95 -7.62939453125e-06 73.73355102539062 -7.62939453125e-06 47.50005722045898 L -7.62939453125e-06 47.49993515014648 C -7.62939453125e-06 21.26644134521484 21.26644134521484 -7.62939453125e-06 47.49993133544922 -7.62939453125e-06 Z" stroke="none" fill="#fff"/>
            </g>
          </g>
          <g id="Rectángulo_400907" data-name="Rectángulo 400907" transform="translate(0)" fill="none" stroke="#fff" stroke-width="3">
            <rect width="95" height="95" rx="47.5" stroke="none"/>
            <rect x="1.5" y="1.5" width="92" height="92" rx="46" fill="none"/>
          </g>
        </g>
      </g>
    </g>
    <g id="Grupo_1180841" data-name="Grupo 1180841" transform="translate(16.957 16.957)">
      <g id="Grupo_1180842" data-name="Grupo 1180842">
        <path id="Trazado_1054195" data-name="Trazado 1054195" d="M62.561,53.019v1.9h-.639q-15.894,0-31.787.011a4.2,4.2,0,0,0-1.314.253c-1.49.506-2.955,1.088-4.457,1.555a7.9,7.9,0,0,1-1.8.12,4.992,4.992,0,0,1-1.9,4.74,4.575,4.575,0,0,1-3.352.927A4.685,4.685,0,0,1,13.961,60.6a5.16,5.16,0,0,1-.887-3.787c-1.6.15-2.952-.174-3.626-1.758a2.786,2.786,0,0,1,.483-2.978,2.912,2.912,0,0,1,0-3.82,2.888,2.888,0,0,1-.014-3.791,2.935,2.935,0,0,1,1.63-4.79,7.866,7.866,0,0,1-.377-1.643,7.634,7.634,0,0,1,.318-1.643,31.324,31.324,0,0,1-2.819-1.964A13.808,13.808,0,0,1,3.628,21.808a14,14,0,0,1,5.239-9.463,1.1,1.1,0,0,0,.353-.726,8.707,8.707,0,0,1,7.1-8.028A8.615,8.615,0,0,1,26.188,10.2a2.923,2.923,0,0,1,.157.931c-.1.788.349,1.186.881,1.645A14.212,14.212,0,0,1,30.7,29.651c-.066.138-.121.281-.2.47H35.9V13.033H56.857V30.12a5.768,5.768,0,0,1,4.314,9.543h1.39c0,.667,0,1.294,0,1.921h-25.4a7.681,7.681,0,0,1,.013,11.436ZM54.911,30.134V14.945H51.136v5.643H41.589V14.946h-3.74V30.134ZM24.178,17.8a8.6,8.6,0,0,1-12.733.014A8.541,8.541,0,0,0,23.61,29.781,8.5,8.5,0,0,0,24.178,17.8m.3-5.705a6.668,6.668,0,1,0-6.7,6.625,6.716,6.716,0,0,0,6.7-6.625M9.518,14.363A12.249,12.249,0,0,0,6.239,27.876a12.376,12.376,0,0,0,23.687-1.828c1.058-4.905-1.215-9.659-3.848-11.641L25.355,16.2a10.486,10.486,0,1,1-15.1-.006l-.737-1.831m18.767,39c0-4.057,0-8.022-.013-11.988a.812.812,0,0,0-.306-.515c-.776-.647-1.581-1.26-2.36-1.9a5.048,5.048,0,0,0-3.337-1.183c-2.9.007-5.791,0-8.687,0-.172,0-.343.015-.515.023A1.889,1.889,0,0,0,15,39.677a31.64,31.64,0,0,0,3.449-.02,3.03,3.03,0,0,1,2.868,1.193,4.77,4.77,0,0,0,4.072,1.69c.327-.013.654,0,.966,0v1.994l-3.743-.345V54.969a8.288,8.288,0,0,0,1.692-.176c1.333-.425,2.637-.941,3.981-1.431m1.921-.355c.763,0,1.475.03,2.185,0a5.693,5.693,0,0,0,4.863-8.1c-1.39-2.881-3.945-3.612-7.048-3.244ZM24.654,36.18a21.308,21.308,0,0,1,1.9,1.11c.918.656,1.766,1.409,2.67,2.085a1.545,1.545,0,0,0,.846.292c1.746.026,3.491.014,5.237.012.163,0,.326-.021.547-.036A4.8,4.8,0,0,1,34,35.866a4.884,4.884,0,0,1,1.877-3.806c-1.836,0-3.561.051-5.282-.02a2.069,2.069,0,0,0-2.187.984,1.8,1.8,0,0,1-.445.477c-1.13.922-2.267,1.835-3.314,2.68m-9.67,20.662a3.164,3.164,0,0,0,1.234,3.292,2.667,2.667,0,0,0,2.923.151,2.768,2.768,0,0,0,1.518-2.575c.01-4.44-.033-8.881.031-13.32a2.793,2.793,0,0,0-1.06-2.5.937.937,0,0,0-1.009-.231,2.907,2.907,0,0,1-.572,2.79,2.9,2.9,0,0,1,.008,3.819,2.883,2.883,0,0,1,0,3.79c1.746,2.226,0,5.3-3.078,4.786M49.162,39.653a4.843,4.843,0,0,1-.019-7.56H41.709a4.844,4.844,0,0,1,.009,7.56Zm5.857.028c.628,0,1.193,0,1.759,0a3.841,3.841,0,0,0,3.885-3.512,3.758,3.758,0,0,0-3.178-4.022,14.743,14.743,0,0,0-2.393-.021,4.847,4.847,0,0,1-.072,7.556m-13.4-3.821A2.857,2.857,0,1,0,38.8,38.727a2.9,2.9,0,0,0,2.818-2.868m10.5-2.846a2.857,2.857,0,1,0,2.841,2.9,2.895,2.895,0,0,0-2.841-2.9M43.553,18.689h1.894V16.848h1.9v1.828h1.863V14.953H43.553Zm-29.614,24.8c.614,0,1.228.01,1.842,0a.956.956,0,1,0,0-1.9q-1.783-.017-3.566,0a.956.956,0,1,0,0,1.9c.574.012,1.149,0,1.724,0M13.95,47.3c.594,0,1.189.007,1.783,0,.689-.01,1.127-.394,1.117-.964a.975.975,0,0,0-1.084-.936c-1.189-.01-2.377-.012-3.566,0a.964.964,0,0,0-1.057.962.978.978,0,0,0,1.083.937c.574.011,1.149,0,1.724,0m.043,3.81c.595,0,1.189.009,1.783,0a.956.956,0,1,0,.005-1.9q-1.783-.017-3.566,0a.956.956,0,1,0-.005,1.9c.594.012,1.189,0,1.783,0m.034,1.905c-.614,0-1.229-.012-1.842,0a.953.953,0,1,0,0,1.9q1.812.021,3.625,0a.953.953,0,1,0,0-1.9c-.594-.014-1.189,0-1.783,0" transform="translate(-2.447 -2.411)" fill="#080808"/>
        <path id="Trazado_1054196" data-name="Trazado 1054196" d="M138.947,139.574h-25.39a7.681,7.681,0,0,0-.013-11.436h25.4v11.436" transform="translate(-78.833 -88.965)" fill="#ffcc59"/>
        <path id="Trazado_1054197" data-name="Trazado 1054197" d="M132.867,56.19H115.8V41h3.74v5.642h9.547V41h3.775Z" transform="translate(-80.402 -28.467)" fill="#cc8e56"/>
        <path id="Trazado_1054198" data-name="Trazado 1054198" d="M37.138,50.351a8.546,8.546,0,1,1-12.733.014,8.6,8.6,0,0,0,12.733-.014M24.126,56.96h1.851V55.105H24.126Zm3.806-.017h1.838V55.126H27.933Zm5.653-1.821H31.76v1.846h1.825Zm3.806,0H35.575v1.838h1.817Z" transform="translate(-15.407 -34.958)" fill="#5fc0e4"/>
        <path id="Trazado_1054199" data-name="Trazado 1054199" d="M41.771,16.449a6.668,6.668,0,1,1-6.61-6.71,6.722,6.722,0,0,1,6.61,6.71m-3.58-3.588-5.1,5.116L32.082,16.7l-1.394,1.3,2.51,2.5,6.309-6.329-1.316-1.309" transform="translate(-19.743 -6.762)" fill="#e9685b"/>
        <path id="Trazado_1054200" data-name="Trazado 1054200" d="M13.841,39.1l.737,1.831a10.489,10.489,0,1,0,15.1.006l.724-1.793c2.632,1.982,4.906,6.736,3.848,11.641a12.376,12.376,0,0,1-23.687,1.828A12.249,12.249,0,0,1,13.841,39.1" transform="translate(-6.77 -27.145)" fill="#dde1e6"/>
        <path id="Trazado_1054201" data-name="Trazado 1054201" d="M49.956,131.264c-1.344.49-2.648,1.006-3.981,1.431a8.289,8.289,0,0,1-1.692.176V122.088l3.743.345V120.44c-.312,0-.64-.011-.966,0a4.77,4.77,0,0,1-4.072-1.69,3.03,3.03,0,0,0-2.868-1.193,31.72,31.72,0,0,1-3.449.02,1.89,1.89,0,0,1-1.934-1.877c.173-.008.344-.023.515-.023,2.9,0,5.791,0,8.687,0a5.05,5.05,0,0,1,3.338,1.183c.779.643,1.584,1.256,2.36,1.9a.813.813,0,0,1,.306.515c.017,3.965.013,7.931.013,11.988" transform="translate(-24.118 -80.312)" fill="#efc4a4"/>
        <path id="Trazado_1054202" data-name="Trazado 1054202" d="M90.805,139.525V128.174c3.1-.368,5.658.363,7.048,3.244a5.693,5.693,0,0,1-4.863,8.1c-.709.035-1.422,0-2.185,0m5.7-5.709a.953.953,0,1,0-.981.957.947.947,0,0,0,.981-.957" transform="translate(-63.045 -88.929)" fill="#ffe395"/>
        <path id="Trazado_1054203" data-name="Trazado 1054203" d="M72.643,101.047c1.047-.845,2.184-1.758,3.314-2.68a1.794,1.794,0,0,0,.445-.477,2.069,2.069,0,0,1,2.187-.983c1.721.071,3.446.02,5.282.02a4.884,4.884,0,0,0-1.878,3.806,4.8,4.8,0,0,0,1.854,3.776c-.222.016-.384.036-.547.037-1.746,0-3.492.015-5.237-.012a1.545,1.545,0,0,1-.846-.292c-.9-.676-1.753-1.429-2.671-2.085a21.264,21.264,0,0,0-1.9-1.11" transform="translate(-50.436 -67.278)" fill="#c0c7d1"/>
        <path id="Trazado_1054204" data-name="Trazado 1054204" d="M40.918,143.416c3.076.513,4.823-2.56,3.078-4.786a2.884,2.884,0,0,0,0-3.79,2.9,2.9,0,0,0-.008-3.819,2.907,2.907,0,0,0,.572-2.79.937.937,0,0,1,1.009.231,2.793,2.793,0,0,1,1.06,2.5c-.064,4.439-.021,8.88-.031,13.32a2.768,2.768,0,0,1-1.518,2.575,2.666,2.666,0,0,1-2.923-.151,3.164,3.164,0,0,1-1.234-3.292" transform="translate(-28.38 -88.986)" fill="#828d99"/>
        <path id="Trazado_1054205" data-name="Trazado 1054205" d="M135.883,104.652h-7.444a4.844,4.844,0,0,0-.009-7.56h7.434a4.843,4.843,0,0,0,.019,7.56" transform="translate(-89.168 -67.41)" fill="#bfc7d0"/>
        <path id="Trazado_1054206" data-name="Trazado 1054206" d="M171.968,104.657a4.847,4.847,0,0,0,.072-7.556,14.744,14.744,0,0,1,2.393.021,3.758,3.758,0,0,1,3.178,4.022,3.841,3.841,0,0,1-3.885,3.512c-.566.005-1.132,0-1.759,0" transform="translate(-119.396 -67.387)" fill="#bfc6cf"/>
        <path id="Trazado_1054207" data-name="Trazado 1054207" d="M115.166,102.951a2.857,2.857,0,1,1-2.838-2.846,2.9,2.9,0,0,1,2.838,2.846m-1.9,0a.953.953,0,1,0-.976.961.944.944,0,0,0,.976-.961" transform="translate(-75.992 -69.502)" fill="#828d99"/>
        <path id="Trazado_1054208" data-name="Trazado 1054208" d="M155.949,100.1a2.857,2.857,0,1,1-2.873,2.809,2.9,2.9,0,0,1,2.873-2.809m0,3.81a.953.953,0,1,0-.971-.906.948.948,0,0,0,.971.906" transform="translate(-106.279 -69.502)" fill="#828d99"/>
        <path id="Trazado_1054209" data-name="Trazado 1054209" d="M134.463,44.764V41.028h5.655V44.75h-1.863V42.923h-1.9v1.841Z" transform="translate(-93.357 -28.486)" fill="#a56534"/>
        <path id="Trazado_1054210" data-name="Trazado 1054210" d="M31.243,130.04c-.574,0-1.149.009-1.724,0a.956.956,0,1,1,0-1.9q1.783-.017,3.566,0a.956.956,0,1,1,0,1.9c-.614.013-1.228,0-1.842,0" transform="translate(-19.751 -88.96)" fill="#edc3a3"/>
        <path id="Trazado_1054211" data-name="Trazado 1054211" d="M31.254,142.5c-.574,0-1.149.009-1.724,0a.979.979,0,0,1-1.083-.938A.964.964,0,0,1,29.5,140.6q1.783-.018,3.566,0a.975.975,0,0,1,1.084.936c.009.57-.428.954-1.117.964-.594.009-1.189,0-1.783,0" transform="translate(-19.751 -97.613)" fill="#edc3a3"/>
        <path id="Trazado_1054212" data-name="Trazado 1054212" d="M31.3,154.968c-.594,0-1.189.01-1.783,0a.956.956,0,1,1,.005-1.9q1.783-.017,3.566,0a.956.956,0,1,1-.005,1.9c-.594.012-1.189,0-1.783,0" transform="translate(-19.752 -106.267)" fill="#edc3a3"/>
        <path id="Trazado_1054213" data-name="Trazado 1054213" d="M31.331,165.529c.594,0,1.189-.011,1.783,0a.953.953,0,1,1,0,1.9q-1.812.021-3.625,0a.953.953,0,1,1,0-1.9c.614-.015,1.228,0,1.842,0" transform="translate(-19.75 -114.923)" fill="#edc3a3"/>
        <rect id="Rectángulo_407907" data-name="Rectángulo 407907" width="1.851" height="1.855" transform="translate(8.719 20.147)" fill="#040506"/>
        <rect id="Rectángulo_407908" data-name="Rectángulo 407908" width="1.838" height="1.817" transform="translate(12.526 20.167)" fill="#040506"/>
        <rect id="Rectángulo_407909" data-name="Rectángulo 407909" width="1.825" height="1.846" transform="translate(16.353 20.163)" fill="#040506"/>
        <rect id="Rectángulo_407910" data-name="Rectángulo 407910" width="1.817" height="1.838" transform="translate(20.167 20.167)" fill="#040506"/>
        <path id="Trazado_1054214" data-name="Trazado 1054214" d="M43.306,19.951l1.316,1.309-6.309,6.329-2.51-2.5,1.394-1.3L38.2,25.067l5.1-5.116" transform="translate(-24.858 -13.852)" fill="#100806"/>
        <path id="Trazado_1054215" data-name="Trazado 1054215" d="M105.121,144.672a.953.953,0,1,1-.927-.95.95.95,0,0,1,.927.95" transform="translate(-71.661 -99.784)" fill="#13120c"/>
        <path id="Trazado_1054216" data-name="Trazado 1054216" d="M117.586,107.277a.953.953,0,1,1-.931-.945.947.947,0,0,1,.931.945" transform="translate(-80.316 -73.826)" fill="#0b0c0d"/>
        <path id="Trazado_1054217" data-name="Trazado 1054217" d="M160.273,108.238a.953.953,0,1,1,.935-1,.946.946,0,0,1-.935,1" transform="translate(-110.602 -73.826)" fill="#0b0c0d"/>
      </g>
    </g>
  </g>
</svg>
