<svg xmlns="http://www.w3.org/2000/svg" xmlns:xlink="http://www.w3.org/1999/xlink" width="113" height="113" viewBox="0 0 113 113">
  <defs>
    <filter id="Trazado_896985" x="0" y="0" width="113" height="113" filterUnits="userSpaceOnUse">
      <feOffset dy="3" input="SourceAlpha"/>
      <feGaussianBlur stdDeviation="3" result="blur"/>
      <feFlood flood-opacity="0.161"/>
      <feComposite operator="in" in2="blur"/>
      <feComposite in="SourceGraphic"/>
    </filter>
  </defs>
  <g id="Grupo_1180220" data-name="Grupo 1180220" transform="translate(9 6)">
    <g id="Grupo_1111319" data-name="Grupo 1111319" transform="translate(0 0)">
      <g id="Grupo_1109827" data-name="Grupo 1109827">
        <g id="Grupo_1098742" data-name="Grupo 1098742">
          <g transform="matrix(1, 0, 0, 1, -9, -6)" filter="url(#Trazado_896985)">
            <g id="Trazado_896985-2" data-name="Trazado 896985" transform="translate(9 6)" fill="#5ab4f9" opacity="0.859">
              <path d="M 47.49993133544922 93.5 C 41.2893180847168 93.5 35.26527786254883 92.28396606445312 29.59514427185059 89.88571929931641 C 24.11767768859863 87.56893920898438 19.19810485839844 84.25196838378906 14.97306442260742 80.02693176269531 C 10.74802494049072 75.80188751220703 7.431051254272461 70.88231658935547 5.114277839660645 65.40484619140625 C 2.71602463722229 59.73471450805664 1.499997973442078 53.71067428588867 1.499997973442078 47.50006103515625 C 1.499997973442078 41.2893180847168 2.71602463722229 35.26527786254883 5.114277839660645 29.59514236450195 C 7.431051254272461 24.11768913269043 10.74802494049072 19.1981029510498 14.97306442260742 14.97306251525879 C 19.19810485839844 10.74802303314209 24.11767768859863 7.431049346923828 29.59514427185059 5.114289283752441 C 35.26527786254883 2.716022968292236 41.2893180847168 1.499996185302734 47.49993133544922 1.499996185302734 C 53.71054458618164 1.499996185302734 59.73458480834961 2.716022968292236 65.40471649169922 5.114289283752441 C 70.88218688964844 7.431049346923828 75.8017578125 10.74802303314209 80.02679443359375 14.97306251525879 C 84.25183868408203 19.1981029510498 87.56880950927734 24.11768913269043 89.88558197021484 29.59514236450195 C 92.28383636474609 35.26527786254883 93.49986267089844 41.2893180847168 93.49986267089844 47.49993133544922 C 93.49986267089844 53.71067428588867 92.28383636474609 59.73471450805664 89.88558197021484 65.40484619140625 C 87.56880950927734 70.88231658935547 84.25183868408203 75.80188751220703 80.02679443359375 80.02693176269531 C 75.8017578125 84.25196838378906 70.88218688964844 87.56893920898438 65.40471649169922 89.88571929931641 C 59.73458480834961 92.28396606445312 53.71054458618164 93.5 47.49993133544922 93.5 Z" stroke="none"/>
              <path d="M 47.49993133544922 2.999992370605469 C 41.49116134643555 2.999992370605469 35.66371536254883 4.1761474609375 30.17946624755859 6.495796203613281 C 24.88080596923828 8.736930847167969 20.12148284912109 11.94596862792969 16.03371429443359 16.03372192382812 C 11.94596099853516 20.12149047851562 8.736930847167969 24.88081359863281 6.495796203613281 30.17947387695312 C 4.1761474609375 35.66371917724609 2.999992370605469 41.49116516113281 2.999992370605469 47.50005722045898 C 2.999992370605469 53.50882720947266 4.1761474609375 59.33627319335938 6.495796203613281 64.82051849365234 C 8.736930847167969 70.11917877197266 11.94596099853516 74.87850189208984 16.03371429443359 78.96627044677734 C 20.12148284912109 83.05402374267578 24.88080596923828 86.2630615234375 30.17946624755859 88.50419616699219 C 35.66371536254883 90.82384490966797 41.49116134643555 92 47.49993133544922 92 C 53.50870132446289 92 59.33614730834961 90.82384490966797 64.82038879394531 88.50419616699219 C 70.11905670166016 86.2630615234375 74.87836456298828 83.05402374267578 78.96613311767578 78.96627044677734 C 83.05390167236328 74.87850189208984 86.26291656494141 70.11917877197266 88.50406646728516 64.82051849365234 C 90.82369995117188 59.33627319335938 91.99985504150391 53.50882720947266 91.99985504150391 47.49993515014648 C 91.99985504150391 41.49116516113281 90.82369995117188 35.66371917724609 88.50406646728516 30.17947387695312 C 86.26291656494141 24.88081359863281 83.05390167236328 20.12149047851562 78.96613311767578 16.03372192382812 C 74.87836456298828 11.94596862792969 70.11905670166016 8.736930847167969 64.82038879394531 6.495796203613281 C 59.33614730834961 4.1761474609375 53.50870132446289 2.999992370605469 47.49993133544922 2.999992370605469 M 47.49993133544922 -7.62939453125e-06 C 73.73342132568359 -7.62939453125e-06 94.99985504150391 21.26644134521484 94.99985504150391 47.49993515014648 L 94.99985504150391 47.50005722045898 C 94.99985504150391 73.73355102539062 73.73342132568359 95 47.49993133544922 95 C 21.26644134521484 95 -7.62939453125e-06 73.73355102539062 -7.62939453125e-06 47.50005722045898 L -7.62939453125e-06 47.49993515014648 C -7.62939453125e-06 21.26644134521484 21.26644134521484 -7.62939453125e-06 47.49993133544922 -7.62939453125e-06 Z" stroke="none" fill="#fff"/>
            </g>
          </g>
          <g id="Rectángulo_400907" data-name="Rectángulo 400907" transform="translate(0)" fill="none" stroke="#fff" stroke-width="3">
            <rect width="95" height="95" rx="47.5" stroke="none"/>
            <rect x="1.5" y="1.5" width="92" height="92" rx="46" fill="none"/>
          </g>
        </g>
      </g>
    </g>
    <g id="Grupo_1180849" data-name="Grupo 1180849" transform="translate(12.604 16.201)">
      <g id="Grupo_1180850" data-name="Grupo 1180850">
        <path id="Trazado_1054277" data-name="Trazado 1054277" d="M0,66.027V0M29.665,24.827c-.143-.2-.278-.4-.412-.591A15.543,15.543,0,0,0,12.748,18.1a15.465,15.465,0,0,0,2.663,30.4,15.156,15.156,0,0,0,13.947-6.746.887.887,0,0,1,.824-.441c4.054.018,8.108.011,12.162.013.157,0,.314.021.47.033l.094.154-2.252,2.184L42,45.088l4.722-4.747L42,35.607l-1.471,1.408,2.323,2.222H30.79A15.506,15.506,0,0,0,30.8,26.95h12.01l.127.177L40.7,29.253,42,30.637l4.773-4.787-4.7-4.715L40.5,22.654l2.378,2.173Zm.348-7.241h16.4V1.2h-16.4Zm34.969-1.978H48.558v16.4H64.982Zm0,18.536H48.56v16.4H64.983Zm-18.546,14.4H30.015V64.972H46.437ZM24.364,8.366c-2.007,0-3.908-.009-5.808,0a2.987,2.987,0,0,0-2.949,2.614c-.1,1.51-.022,3.03-.022,4.564h2.048c0-1.245,0-2.462,0-3.679,0-1.105.344-1.44,1.469-1.442q1.351,0,2.7,0h2.467l.077.158-2.276,2.2L23.4,14.144,28.16,9.383,23.454,4.671,21.992,6.06l2.372,2.306m-2.3,51.646,1.414,1.5,4.766-4.773-4.692-4.713-1.58,1.506,2.38,2.2c-1.924,0-3.743.011-5.562-.005a1.07,1.07,0,0,1-1.151-1.174c-.013-.428,0-.858,0-1.286V50.626h-2.06c0,1.33,0,2.615,0,3.9a3.062,3.062,0,0,0,3.236,3.264c1.815,0,3.63,0,5.534,0L22.06,60.012" fill="#fff"/>
        <path id="Trazado_1054278" data-name="Trazado 1054278" d="M31.629,54.966H44.845l-2.378-2.173,1.566-1.519,4.7,4.715-4.773,4.787-1.295-1.384,2.238-2.125-.127-.177H32.768a15.505,15.505,0,0,1-.015,12.287H44.812l-2.323-2.222,1.471-1.408,4.725,4.735-4.722,4.746-1.342-1.4,2.252-2.184-.094-.154c-.157-.011-.314-.033-.47-.033-4.054,0-8.108.005-12.162-.013a.887.887,0,0,0-.824.44,15.157,15.157,0,0,1-13.947,6.746A15.46,15.46,0,1,1,31.217,54.375c.134.194.269.387.412.592M5.182,63.2A13.385,13.385,0,1,0,18.565,49.832,13.437,13.437,0,0,0,5.182,63.2" transform="translate(-1.964 -30.139)" fill="#0b0a09"/>
        <path id="Trazado_1054279" data-name="Trazado 1054279" d="M81.363,3.266h16.4V19.648h-16.4Zm12.308,2.04v4.04H85.433V5.319H83.444V17.584H95.722V5.306Zm-2.052.028H87.563V7.289h4.056Z" transform="translate(-51.35 -2.061)" fill="#040506"/>
        <path id="Trazado_1054280" data-name="Trazado 1054280" d="M148.062,58.718H131.639v-16.4h16.423Zm-2.088-2.05V44.389h-2.04v4.028H135.7v-4.05h-2v12.3Zm-4.11-12.291h-4.037V46.37h4.037Z" transform="translate(-83.081 -26.705)" fill="#040506"/>
        <path id="Trazado_1054281" data-name="Trazado 1054281" d="M148.067,108.965H131.644v-16.4h16.423Zm-2.089-2.048V94.637h-2.039v4.029H135.7V94.638h-2v12.278Zm-4.129-12.295h-4.022v2h4.022Z" transform="translate(-83.084 -58.419)" fill="#040506"/>
        <path id="Trazado_1054282" data-name="Trazado 1054282" d="M97.792,148.036H81.37V131.614H97.792Zm-4.116-14.362v4.052H85.438V133.7h-2v12.265H95.715V133.675Zm-6.1,2H91.6v-2H87.574Z" transform="translate(-51.355 -83.065)" fill="#040506"/>
        <path id="Trazado_1054283" data-name="Trazado 1054283" d="M50.983,16.357l-2.372-2.306,1.462-1.389,4.705,4.712-4.757,4.761-1.329-1.356,2.276-2.2-.077-.158H48.424q-1.351,0-2.7,0c-1.125,0-1.468.336-1.469,1.442,0,1.217,0,2.434,0,3.679H42.2c0-1.533-.075-3.054.022-4.564a2.987,2.987,0,0,1,2.949-2.614c1.9-.012,3.8,0,5.808,0" transform="translate(-26.619 -7.991)" fill="#08080a"/>
        <path id="Trazado_1054284" data-name="Trazado 1054284" d="M48.7,146.63l2.283-2.221c-1.9,0-3.718,0-5.534,0a3.062,3.062,0,0,1-3.236-3.264c0-1.286,0-2.571,0-3.9h2.06v2.638c0,.429-.01.858,0,1.286a1.07,1.07,0,0,0,1.151,1.174c1.819.016,3.638.005,5.562.005l-2.38-2.2,1.58-1.506,4.692,4.713-4.766,4.773-1.414-1.5" transform="translate(-26.644 -86.618)" fill="#08080a"/>
        <path id="Trazado_1054285" data-name="Trazado 1054285" d="M8.725,66.756a13.385,13.385,0,1,1,13.355,13.4,13.433,13.433,0,0,1-13.355-13.4m2.059-.033A11.327,11.327,0,1,0,22.2,55.444a11.323,11.323,0,0,0-11.42,11.279" transform="translate(-5.507 -33.693)" fill="#ffb715"/>
        <path id="Trazado_1054286" data-name="Trazado 1054286" d="M97.232,8.8h2.051V21.075H87.005V8.81h1.989v4.027h8.238Z" transform="translate(-54.911 -5.552)" fill="#cc8e56"/>
        <rect id="Rectángulo_407917" data-name="Rectángulo 407917" width="4.056" height="1.954" transform="translate(36.213 3.273)" fill="#a56534"/>
        <path id="Trazado_1054287" data-name="Trazado 1054287" d="M149.5,60.182H137.219v-12.3h2v4.05h8.238V47.9h2.04Z" transform="translate(-86.602 -30.219)" fill="#cc8e56"/>
        <rect id="Rectángulo_407918" data-name="Rectángulo 407918" width="4.037" height="1.992" transform="translate(54.748 17.672)" fill="#a56534"/>
        <path id="Trazado_1054288" data-name="Trazado 1054288" d="M149.5,110.463H137.218V98.184h2v4.027h8.238V98.183H149.5Z" transform="translate(-86.602 -61.966)" fill="#cc8e56"/>
        <rect id="Rectángulo_407919" data-name="Rectángulo 407919" width="4.022" height="2" transform="translate(54.744 36.202)" fill="#a56534"/>
        <path id="Trazado_1054289" data-name="Trazado 1054289" d="M97.213,137.2h2.039v12.29H86.973V137.224h2v4.028h8.238Z" transform="translate(-54.891 -86.59)" fill="#cc8e56"/>
        <rect id="Rectángulo_407920" data-name="Rectángulo 407920" width="4.025" height="2" transform="translate(36.22 50.608)" fill="#a56534"/>
        <path id="Trazado_1054290" data-name="Trazado 1054290" d="M14.306,70.246A11.327,11.327,0,1,1,25.57,81.62,11.317,11.317,0,0,1,14.306,70.246m11.3-9.219A9.266,9.266,0,1,0,34.9,70.3a9.3,9.3,0,0,0-9.3-9.268" transform="translate(-9.029 -37.215)" fill="#0d0b05"/>
        <path id="Trazado_1054291" data-name="Trazado 1054291" d="M29.128,64.552a9.266,9.266,0,1,1-9.237,9.262,9.306,9.306,0,0,1,9.237-9.262m-.995,4.09a3.107,3.107,0,1,0,.222,6.206c.579,0,1.159-.012,1.737,0a1.031,1.031,0,1,1-.019,2.052c-.514.014-1.029,0-1.544,0-.944,0-1.124-.125-1.481-1h-2.2a13.083,13.083,0,0,0,.851,1.852A3.037,3.037,0,0,0,28.155,79v1.975H30.2V78.987c.13-.011.233-.014.333-.029a3.094,3.094,0,0,0-.416-6.169c-.644,0-1.287.014-1.93-.006a1.027,1.027,0,1,1,.021-2.049c.493-.017.988.023,1.48-.01.8-.052,1.4.166,1.563.994h2.009c-.038-1.687-1.144-2.8-3.082-3.1V66.645H28.133Z" transform="translate(-12.554 -40.74)" fill="#ffcb59"/>
        <path id="Trazado_1054292" data-name="Trazado 1054292" d="M36.619,72.223v-2h2.045v1.968c1.939.3,3.044,1.418,3.082,3.1H39.738c-.167-.828-.766-1.047-1.563-.994-.491.032-.987-.007-1.48.01a1.027,1.027,0,1,0-.021,2.049c.643.021,1.287,0,1.93.006a3.094,3.094,0,0,1,.416,6.169c-.1.015-.2.018-.333.029v1.993H36.641V82.585a3.037,3.037,0,0,1-2.453-1.247,13.083,13.083,0,0,1-.851-1.852h2.2c.357.876.538,1,1.481,1,.515,0,1.03.011,1.544,0a1.031,1.031,0,1,0,.019-2.052c-.578-.016-1.158,0-1.737,0a3.107,3.107,0,1,1-.222-6.206" transform="translate(-21.04 -44.321)" fill="#0a0906"/>
      </g>
    </g>
  </g>
</svg>
