<svg xmlns="http://www.w3.org/2000/svg" xmlns:xlink="http://www.w3.org/1999/xlink" width="113" height="113" viewBox="0 0 113 113">
  <defs>
    <filter id="Trazado_896985" x="0" y="0" width="113" height="113" filterUnits="userSpaceOnUse">
      <feOffset dy="3" input="SourceAlpha"/>
      <feGaussianBlur stdDeviation="3" result="blur"/>
      <feFlood flood-opacity="0.161"/>
      <feComposite operator="in" in2="blur"/>
      <feComposite in="SourceGraphic"/>
    </filter>
    <clipPath id="clip-path">
      <rect id="Rectángulo_407930" data-name="Rectángulo 407930" width="55.984" height="55.984" fill="none"/>
    </clipPath>
  </defs>
  <g id="Grupo_1180219" data-name="Grupo 1180219" transform="translate(9 6)">
    <g id="Grupo_1111319" data-name="Grupo 1111319" transform="translate(0 0)">
      <g id="Grupo_1109827" data-name="Grupo 1109827">
        <g id="Grupo_1098742" data-name="Grupo 1098742">
          <g transform="matrix(1, 0, 0, 1, -9, -6)" filter="url(#Trazado_896985)">
            <g id="Trazado_896985-2" data-name="Trazado 896985" transform="translate(9 6)" fill="#5ab4f9" opacity="0.859">
              <path d="M 47.49993133544922 93.5 C 41.2893180847168 93.5 35.26527786254883 92.28396606445312 29.59514427185059 89.88571929931641 C 24.11767768859863 87.56893920898438 19.19810485839844 84.25196838378906 14.97306442260742 80.02693176269531 C 10.74802494049072 75.80188751220703 7.431051254272461 70.88231658935547 5.114277839660645 65.40484619140625 C 2.71602463722229 59.73471450805664 1.499997973442078 53.71067428588867 1.499997973442078 47.50006103515625 C 1.499997973442078 41.2893180847168 2.71602463722229 35.26527786254883 5.114277839660645 29.59514236450195 C 7.431051254272461 24.11768913269043 10.74802494049072 19.1981029510498 14.97306442260742 14.97306251525879 C 19.19810485839844 10.74802303314209 24.11767768859863 7.431049346923828 29.59514427185059 5.114289283752441 C 35.26527786254883 2.716022968292236 41.2893180847168 1.499996185302734 47.49993133544922 1.499996185302734 C 53.71054458618164 1.499996185302734 59.73458480834961 2.716022968292236 65.40471649169922 5.114289283752441 C 70.88218688964844 7.431049346923828 75.8017578125 10.74802303314209 80.02679443359375 14.97306251525879 C 84.25183868408203 19.1981029510498 87.56880950927734 24.11768913269043 89.88558197021484 29.59514236450195 C 92.28383636474609 35.26527786254883 93.49986267089844 41.2893180847168 93.49986267089844 47.49993133544922 C 93.49986267089844 53.71067428588867 92.28383636474609 59.73471450805664 89.88558197021484 65.40484619140625 C 87.56880950927734 70.88231658935547 84.25183868408203 75.80188751220703 80.02679443359375 80.02693176269531 C 75.8017578125 84.25196838378906 70.88218688964844 87.56893920898438 65.40471649169922 89.88571929931641 C 59.73458480834961 92.28396606445312 53.71054458618164 93.5 47.49993133544922 93.5 Z" stroke="none"/>
              <path d="M 47.49993133544922 2.999992370605469 C 41.49116134643555 2.999992370605469 35.66371536254883 4.1761474609375 30.17946624755859 6.495796203613281 C 24.88080596923828 8.736930847167969 20.12148284912109 11.94596862792969 16.03371429443359 16.03372192382812 C 11.94596099853516 20.12149047851562 8.736930847167969 24.88081359863281 6.495796203613281 30.17947387695312 C 4.1761474609375 35.66371917724609 2.999992370605469 41.49116516113281 2.999992370605469 47.50005722045898 C 2.999992370605469 53.50882720947266 4.1761474609375 59.33627319335938 6.495796203613281 64.82051849365234 C 8.736930847167969 70.11917877197266 11.94596099853516 74.87850189208984 16.03371429443359 78.96627044677734 C 20.12148284912109 83.05402374267578 24.88080596923828 86.2630615234375 30.17946624755859 88.50419616699219 C 35.66371536254883 90.82384490966797 41.49116134643555 92 47.49993133544922 92 C 53.50870132446289 92 59.33614730834961 90.82384490966797 64.82038879394531 88.50419616699219 C 70.11905670166016 86.2630615234375 74.87836456298828 83.05402374267578 78.96613311767578 78.96627044677734 C 83.05390167236328 74.87850189208984 86.26291656494141 70.11917877197266 88.50406646728516 64.82051849365234 C 90.82369995117188 59.33627319335938 91.99985504150391 53.50882720947266 91.99985504150391 47.49993515014648 C 91.99985504150391 41.49116516113281 90.82369995117188 35.66371917724609 88.50406646728516 30.17947387695312 C 86.26291656494141 24.88081359863281 83.05390167236328 20.12149047851562 78.96613311767578 16.03372192382812 C 74.87836456298828 11.94596862792969 70.11905670166016 8.736930847167969 64.82038879394531 6.495796203613281 C 59.33614730834961 4.1761474609375 53.50870132446289 2.999992370605469 47.49993133544922 2.999992370605469 M 47.49993133544922 -7.62939453125e-06 C 73.73342132568359 -7.62939453125e-06 94.99985504150391 21.26644134521484 94.99985504150391 47.49993515014648 L 94.99985504150391 47.50005722045898 C 94.99985504150391 73.73355102539062 73.73342132568359 95 47.49993133544922 95 C 21.26644134521484 95 -7.62939453125e-06 73.73355102539062 -7.62939453125e-06 47.50005722045898 L -7.62939453125e-06 47.49993515014648 C -7.62939453125e-06 21.26644134521484 21.26644134521484 -7.62939453125e-06 47.49993133544922 -7.62939453125e-06 Z" stroke="none" fill="#fff"/>
            </g>
          </g>
          <g id="Rectángulo_400907" data-name="Rectángulo 400907" transform="translate(0)" fill="none" stroke="#fff" stroke-width="3">
            <rect width="95" height="95" rx="47.5" stroke="none"/>
            <rect x="1.5" y="1.5" width="92" height="92" rx="46" fill="none"/>
          </g>
        </g>
      </g>
    </g>
    <g id="Grupo_1180852" data-name="Grupo 1180852" transform="translate(19.508 19.508)">
      <g id="Grupo_1180851" data-name="Grupo 1180851" clip-path="url(#clip-path)">
        <path id="Trazado_1054294" data-name="Trazado 1054294" d="M7.625,21.029a9.626,9.626,0,1,1,11.215.026H35.8a2.594,2.594,0,0,1,2.773,2.8c0,2.543,0,5.086,0,7.682h.559c3.293,0,6.586-.006,9.878.012a1.028,1.028,0,0,1,.693.278q3.1,3.488,6.143,7.018a1.045,1.045,0,0,1,.184.637c.011,3.146.008,6.292.008,9.263a8.658,8.658,0,0,1,1.436,1.032c.5.553.449,3.117,0,3.719a1.682,1.682,0,0,1-1.435.747c-.655-.01-1.311-.025-1.964.013a.759.759,0,0,0-.526.314,5.975,5.975,0,0,1-5.413,3.155,5.889,5.889,0,0,1-5.273-3.1.662.662,0,0,0-.665-.4q-3.629.023-7.258,0a.665.665,0,0,0-.663.4A6.108,6.108,0,0,1,23.642,54.6a.608.608,0,0,0-.626-.367c-.691.022-1.383.025-2.074,0a.61.61,0,0,0-.62.38,5.9,5.9,0,0,1-5.373,3.112,5.887,5.887,0,0,1-5.295-3.151.575.575,0,0,0-.588-.339c-1.2.015-2.4.009-3.6.006a1.713,1.713,0,0,1-1.819-1.8c0-.527,0-1.055,0-1.582a1.761,1.761,0,0,1,1.746-1.881v-.582q0-12.2,0-24.391a2.618,2.618,0,0,1,2.087-2.9,1.146,1.146,0,0,0,.147-.074M35.091,36.771V48.963h1.721c.008-.1.018-.174.018-.244q0-12.441,0-24.881c0-.73-.35-1.035-1.152-1.035H8.281c-.835,0-1.142.312-1.142,1.155q0,12.277,0,24.554c0,.156.018.312.026.443H8.905V36.764h6.109V24.586H28.971V36.771ZM13.276,5.338a7.858,7.858,0,1,0,7.835,7.91,7.893,7.893,0,0,0-7.835-7.91M27.187,36.75V26.338H25.457v3.416H18.47V26.319h-1.7V36.75Zm13.128-1.724c2.322,0,4.574.01,6.826-.009a1.1,1.1,0,0,1,.965.442c1.38,1.689,2.791,3.352,4.172,5.04a1.256,1.256,0,0,1,.262.725c.023,1.6.038,3.2,0,4.8a2.488,2.488,0,0,0,.665,2.127,1.152,1.152,0,0,1,.29.457c.14.39.4.469.8.335,0-.165,0-.344,0-.522,0-2.728.011-5.455-.015-8.183a1.531,1.531,0,0,0-.349-.907q-2.468-2.875-5-5.7a1.09,1.09,0,0,0-.716-.336c-3.055-.022-6.111-.015-9.166-.013-.155,0-.31.018-.452.027v15.66h1.713ZM22.883,49.157c.313-.2.605-.29.718-.482A6.1,6.1,0,0,1,33,47.023c.089.073.187.135.3.214V38.563H31.569v3.414H24.581V38.546h-1.7Zm-1.8-.024V38.556H19.338v3.428h-6.97V38.558h-1.69v8.7c.091-.067.137-.1.179-.132a6.094,6.094,0,0,1,9.519,1.564c.112.186.407.263.705.444M42.1,42.02v6.937c.391.115.585-.016.789-.358a5.842,5.842,0,0,1,5.337-3.074,16.9,16.9,0,0,1,2.54.4V42.02ZM15.017,47.251a4.365,4.365,0,1,0,4.347,4.4,4.4,4.4,0,0,0-4.347-4.4m18.32,4.374a4.366,4.366,0,1,0-4.389,4.356,4.4,4.4,0,0,0,4.389-4.356m10.481,0a4.366,4.366,0,1,0,4.369-4.375,4.4,4.4,0,0,0-4.369,4.375m5.976-11.382c-.964-1.155-1.857-2.23-2.758-3.3a.474.474,0,0,0-.309-.166c-1.54-.011-3.08-.007-4.626-.007v3.471ZM35.065,52.46h7.017V50.774H35.065ZM5.431,52.451H8.9V50.768H5.431Zm18.276-26.11H20.272V28h3.435ZM17.591,38.559h-3.42v1.676h3.42Zm12.224-.008H26.389v1.692h3.426ZM22.877,50.766H21.092v1.7h1.785Zm33.152.007H54.28v1.686h1.748Z" transform="translate(-2.664 -2.618)" fill="#070707"/>
        <path id="Trazado_1054295" data-name="Trazado 1054295" d="M139.282,15.034l2-1.932h-19.72V11.347h19.661l-2.04-1.881,1.331-1.3,3.985,4.018-4.044,4.062-1.169-1.213" transform="translate(-89.104 -5.986)" fill="#070708"/>
        <path id="Trazado_1054296" data-name="Trazado 1054296" d="M124.816,40.63l-1.907-1.848,1.21-1.2,4.014,4.032-4.038,4.07-1.139-1.2,1.9-1.831-.086-.136H105.2V40.768h19.552l.068-.137" transform="translate(-77.111 -27.551)" fill="#070708"/>
        <rect id="Rectángulo_407921" data-name="Rectángulo 407921" width="1.683" height="1.702" transform="translate(28.959 5.352)" fill="#040506"/>
        <rect id="Rectángulo_407922" data-name="Rectángulo 407922" width="1.684" height="1.703" transform="translate(24.601 13.22)" fill="#040506"/>
        <path id="Trazado_1054297" data-name="Trazado 1054297" d="M44.712,89.571h-6.12V77.385H24.635V89.563H18.526v12.19H16.787c-.008-.131-.026-.287-.026-.443q0-12.277,0-24.554c0-.843.307-1.155,1.142-1.155H45.3c.8,0,1.152.3,1.152,1.035q0,12.441,0,24.881c0,.07-.01.141-.018.244H44.712Z" transform="translate(-12.285 -55.418)" fill="#ea695c"/>
        <path id="Trazado_1054298" data-name="Trazado 1054298" d="M18.1,10.19A7.858,7.858,0,1,1,10.217,18,7.892,7.892,0,0,1,18.1,10.19m-.895,3.471a2.633,2.633,0,1,0,.192,5.26c.473,0,.946-.007,1.419,0a.9.9,0,0,1,1,.854c.012.522-.393.878-1.023.888-.418.007-.837,0-1.255,0-.794,0-.95-.108-1.256-.848H14.423a11.132,11.132,0,0,0,.725,1.571,2.573,2.573,0,0,0,2.081,1.055v1.675h1.735V22.431c.111-.009.2-.012.284-.025a2.624,2.624,0,0,0-.358-5.231c-.509,0-1.019.005-1.528,0-.632-.009-1.035-.361-1.027-.884s.408-.852,1.051-.86c.382-.005.765.021,1.146-.006.676-.047,1.183.144,1.323.842h1.7c-.036-1.431-.965-2.368-2.616-2.634V11.966H17.206Z" transform="translate(-7.489 -7.469)" fill="#ffcb59"/>
        <path id="Trazado_1054299" data-name="Trazado 1054299" d="M63.263,99.208H52.85V88.777h1.7v3.435h6.987V88.8h1.729Z" transform="translate(-38.74 -65.076)" fill="#cc8e56"/>
        <path id="Trazado_1054300" data-name="Trazado 1054300" d="M136.323,116.592v13.942H134.61v-15.66c.142-.009.3-.027.452-.027,3.055,0,6.111-.009,9.166.013a1.091,1.091,0,0,1,.716.336q2.524,2.826,5,5.7a1.531,1.531,0,0,1,.349.907c.027,2.727.015,5.455.015,8.183v.522c-.4.135-.662.055-.8-.335a1.151,1.151,0,0,0-.29-.457,2.487,2.487,0,0,1-.665-2.127c.037-1.6.022-3.2,0-4.8a1.256,1.256,0,0,0-.262-.725c-1.381-1.688-2.792-3.351-4.172-5.04a1.1,1.1,0,0,0-.965-.442c-2.252.019-4.5.009-6.826.009" transform="translate(-98.672 -84.184)" fill="#ea685c"/>
        <path id="Trazado_1054301" data-name="Trazado 1054301" d="M75.731,145.183V134.572h1.7V138h6.988v-3.414h1.731v8.675c-.111-.079-.209-.141-.3-.214a6.1,6.1,0,0,0-9.4,1.651c-.113.192-.4.278-.718.482" transform="translate(-55.513 -98.644)" fill="#cb8d56"/>
        <path id="Trazado_1054302" data-name="Trazado 1054302" d="M40.418,145.186c-.3-.181-.594-.257-.705-.444a6.093,6.093,0,0,0-9.519-1.564c-.041.035-.087.065-.179.132v-8.7H31.7v3.425h6.97v-3.428h1.743Z" transform="translate(-22.002 -98.672)" fill="#cb8d56"/>
        <path id="Trazado_1054303" data-name="Trazado 1054303" d="M147.7,147.587h8.666v3.907a16.906,16.906,0,0,0-2.54-.4,5.843,5.843,0,0,0-5.337,3.074c-.2.342-.4.474-.789.358Z" transform="translate(-108.266 -108.185)" fill="#e75541"/>
        <path id="Trazado_1054304" data-name="Trazado 1054304" d="M34.229,167.18a4.365,4.365,0,1,1-4.385,4.359,4.4,4.4,0,0,1,4.385-4.359m2.6,4.381a2.62,2.62,0,1,0-2.65,2.6,2.615,2.615,0,0,0,2.65-2.6" transform="translate(-21.876 -122.547)" fill="#818c98"/>
        <path id="Trazado_1054305" data-name="Trazado 1054305" d="M90.914,171.554a4.366,4.366,0,1,1-4.371-4.374,4.4,4.4,0,0,1,4.371,4.374m-1.747.031a2.62,2.62,0,1,0-2.674,2.579,2.615,2.615,0,0,0,2.674-2.579" transform="translate(-60.241 -122.547)" fill="#818c98"/>
        <path id="Trazado_1054306" data-name="Trazado 1054306" d="M154.146,171.554a4.366,4.366,0,1,1,4.389,4.356,4.4,4.4,0,0,1-4.389-4.356m6.985.033a2.62,2.62,0,1,0-2.677,2.576,2.616,2.616,0,0,0,2.677-2.576" transform="translate(-112.993 -122.546)" fill="#818c98"/>
        <path id="Trazado_1054307" data-name="Trazado 1054307" d="M155.405,131.4h-7.693v-3.471c1.547,0,3.087,0,4.626.007a.473.473,0,0,1,.309.166c.9,1.068,1.795,2.142,2.758,3.3" transform="translate(-108.276 -93.776)" fill="#60c1e5"/>
        <rect id="Rectángulo_407923" data-name="Rectángulo 407923" width="7.017" height="1.686" transform="translate(32.401 48.156)" fill="#c0c8d1"/>
        <rect id="Rectángulo_407924" data-name="Rectángulo 407924" width="3.472" height="1.683" transform="translate(2.767 48.15)" fill="#c0c8d1"/>
        <rect id="Rectángulo_407925" data-name="Rectángulo 407925" width="3.435" height="1.662" transform="translate(17.608 23.723)" fill="#a56534"/>
        <rect id="Rectángulo_407926" data-name="Rectángulo 407926" width="3.42" height="1.676" transform="translate(11.507 35.941)" fill="#a56534"/>
        <rect id="Rectángulo_407927" data-name="Rectángulo 407927" width="3.426" height="1.692" transform="translate(23.725 35.933)" fill="#a56534"/>
        <rect id="Rectángulo_407928" data-name="Rectángulo 407928" width="1.785" height="1.701" transform="translate(18.428 48.148)" fill="#bfc6d0"/>
        <rect id="Rectángulo_407929" data-name="Rectángulo 407929" width="1.748" height="1.686" transform="translate(51.616 48.155)" fill="#c0c7d1"/>
        <path id="Trazado_1054308" data-name="Trazado 1054308" d="M28.754,18.539V16.844h1.735v1.665c1.651.266,2.581,1.2,2.616,2.634H31.4c-.14-.7-.647-.888-1.323-.842-.38.026-.764,0-1.146.006-.643.008-1.042.339-1.051.86s.395.874,1.027.884c.509.007,1.019,0,1.528,0a2.624,2.624,0,0,1,.358,5.231c-.086.013-.173.015-.284.025V29H28.776V27.323A2.573,2.573,0,0,1,26.7,26.268a11.132,11.132,0,0,1-.725-1.571h1.862c.306.741.462.847,1.256.848.418,0,.837.006,1.255,0,.63-.011,1.034-.367,1.023-.888a.9.9,0,0,0-1-.854c-.473-.009-.946,0-1.419,0a2.633,2.633,0,1,1-.192-5.26" transform="translate(-19.037 -12.347)" fill="#0a0906"/>
        <path id="Trazado_1054309" data-name="Trazado 1054309" d="M41.625,176.356a2.62,2.62,0,1,1-2.617-2.635,2.619,2.619,0,0,1,2.617,2.635m-2.6.856a.872.872,0,1,0-.888-.842.894.894,0,0,0,.888.842" transform="translate(-26.672 -127.342)" fill="#070808"/>
        <path id="Trazado_1054310" data-name="Trazado 1054310" d="M93.963,176.381a2.62,2.62,0,1,1-2.592-2.659,2.621,2.621,0,0,1,2.592,2.659m-2.627-.913a.872.872,0,1,0,.879.851.891.891,0,0,0-.879-.851" transform="translate(-65.037 -127.342)" fill="#070808"/>
        <path id="Trazado_1054311" data-name="Trazado 1054311" d="M165.927,176.383a2.62,2.62,0,1,1-2.59-2.662,2.621,2.621,0,0,1,2.59,2.662m-2.635.829a.873.873,0,1,0-.856-.874.894.894,0,0,0,.856.874" transform="translate(-117.788 -127.341)" fill="#070808"/>
        <path id="Trazado_1054312" data-name="Trazado 1054312" d="M43.819,182.007a.872.872,0,1,1,.856-.875.893.893,0,0,1-.856.875" transform="translate(-31.469 -132.137)" fill="#b6bdc6"/>
        <path id="Trazado_1054313" data-name="Trazado 1054313" d="M96.133,180.263a.872.872,0,1,1-.864.866.893.893,0,0,1,.864-.866" transform="translate(-69.834 -132.137)" fill="#b6bdc6"/>
        <path id="Trazado_1054314" data-name="Trazado 1054314" d="M168.089,182a.873.873,0,1,1,.887-.843.892.892,0,0,1-.887.843" transform="translate(-122.586 -132.134)" fill="#b6bdc6"/>
      </g>
    </g>
  </g>
</svg>
