<svg xmlns="http://www.w3.org/2000/svg" xmlns:xlink="http://www.w3.org/1999/xlink" width="113" height="113" viewBox="0 0 113 113">
  <defs>
    <filter id="Trazado_896985" x="0" y="0" width="113" height="113" filterUnits="userSpaceOnUse">
      <feOffset dy="3" input="SourceAlpha"/>
      <feGaussianBlur stdDeviation="3" result="blur"/>
      <feFlood flood-opacity="0.161"/>
      <feComposite operator="in" in2="blur"/>
      <feComposite in="SourceGraphic"/>
    </filter>
  </defs>
  <g id="Grupo_1111349" data-name="Grupo 1111349" transform="translate(-325.891 -3846)">
    <g id="Grupo_1111318" data-name="Grupo 1111318" transform="translate(-5.891)">
      <g id="Grupo_1109826" data-name="Grupo 1109826" transform="translate(340.781 3852)">
        <g id="Grupo_1098742" data-name="Grupo 1098742">
          <g transform="matrix(1, 0, 0, 1, -9, -6)" filter="url(#Trazado_896985)">
            <g id="Trazado_896985-2" data-name="Trazado 896985" transform="translate(9 6)" fill="#fd9826" opacity="0.859">
              <path d="M 47.49993515014648 93.5 C 41.28932189941406 93.5 35.26528167724609 92.28397369384766 29.59514808654785 89.88571929931641 C 24.1176815032959 87.56894683837891 19.1981086730957 84.25197601318359 14.97306823730469 80.02693176269531 C 10.74802875518799 75.80189514160156 7.431055068969727 70.88231658935547 5.11428165435791 65.40485382080078 C 2.716028451919556 59.73471832275391 1.500001788139343 53.71067810058594 1.500001788139343 47.50006484985352 C 1.500001788139343 41.28932189941406 2.716028451919556 35.26528167724609 5.11428165435791 29.59514617919922 C 7.431055068969727 24.11767959594727 10.74802875518799 19.19810676574707 14.97306823730469 14.97306632995605 C 19.1981086730957 10.74802684783936 24.1176815032959 7.431053161621094 29.59514808654785 5.114280223846436 C 35.26528167724609 2.716026782989502 41.28932189941406 1.5 47.49993515014648 1.5 C 53.71054840087891 1.5 59.73458862304688 2.716026782989502 65.40472412109375 5.114280223846436 C 70.88218688964844 7.431053161621094 75.80176544189453 10.74802684783936 80.02680206298828 14.97306632995605 C 84.25183868408203 19.19810676574707 87.56881713867188 24.11767959594727 89.88558959960938 29.59514617919922 C 92.28384399414062 35.26528167724609 93.49987030029297 41.28932189941406 93.49987030029297 47.49993515014648 C 93.49987030029297 53.71067810058594 92.28384399414062 59.73471832275391 89.88558959960938 65.40485382080078 C 87.56881713867188 70.88231658935547 84.25183868408203 75.80189514160156 80.02680206298828 80.02693176269531 C 75.80176544189453 84.25197601318359 70.88218688964844 87.56894683837891 65.40472412109375 89.88571929931641 C 59.73458862304688 92.28397369384766 53.71054840087891 93.5 47.49993515014648 93.5 Z" stroke="none"/>
              <path d="M 47.49993515014648 3 C 41.49116516113281 3 35.66371917724609 4.176155090332031 30.17947387695312 6.495796203613281 C 24.88081359863281 8.7369384765625 20.12149047851562 11.94596862792969 16.03372192382812 16.03372192382812 C 11.94596862792969 20.12149047851562 8.7369384765625 24.88081359863281 6.495796203613281 30.17947387695312 C 4.1761474609375 35.66372299194336 3 41.49116897583008 3 47.50006103515625 C 3 53.50883102416992 4.1761474609375 59.33627700805664 6.495796203613281 64.82052612304688 C 8.7369384765625 70.11918640136719 11.94596862792969 74.87850952148438 16.03372192382812 78.96627807617188 C 20.12149047851562 83.05403137207031 24.88081359863281 86.2630615234375 30.17947387695312 88.50419616699219 C 35.66371917724609 90.82384490966797 41.49116516113281 92 47.49993515014648 92 C 53.50870513916016 92 59.33615112304688 90.82384490966797 64.82039642333984 88.50419616699219 C 70.11905670166016 86.2630615234375 74.87837982177734 83.05403137207031 78.96614837646484 78.96627807617188 C 83.05390167236328 74.87850952148438 86.26293182373047 70.11918640136719 88.50407409667969 64.82052612304688 C 90.82372283935547 59.33627700805664 91.99987030029297 53.50883102416992 91.99987030029297 47.49993896484375 C 91.99987030029297 41.49116897583008 90.82372283935547 35.66372299194336 88.50407409667969 30.17947387695312 C 86.26293182373047 24.88081359863281 83.05390167236328 20.12149047851562 78.96614837646484 16.03372192382812 C 74.87837982177734 11.94596862792969 70.11905670166016 8.7369384765625 64.82039642333984 6.495796203613281 C 59.33615112304688 4.176155090332031 53.50870513916016 3 47.49993515014648 3 M 47.49993515014648 0 C 73.73342895507812 0 94.99987030029297 21.26644897460938 94.99987030029297 47.49993896484375 L 94.99987030029297 47.50006103515625 C 94.99987030029297 73.73355102539062 73.73342895507812 95 47.49993515014648 95 C 21.26644134521484 95 0 73.73355102539062 0 47.50006103515625 L 0 47.49993896484375 C 0 21.26644897460938 21.26644134521484 0 47.49993515014648 0 Z" stroke="none" fill="#fff"/>
            </g>
          </g>
          <g id="Rectángulo_400907" data-name="Rectángulo 400907" transform="translate(0 0)" fill="none" stroke="#fff" stroke-width="3">
            <rect width="95" height="95" rx="47.5" stroke="none"/>
            <rect x="1.5" y="1.5" width="92" height="92" rx="46" fill="none"/>
          </g>
        </g>
      </g>
    </g>
    <g id="Grupo_1180312" data-name="Grupo 1180312" transform="translate(352.242 3868.366)">
      <g id="Grupo_1180313" data-name="Grupo 1180313">
        <path id="Trazado_1052843" data-name="Trazado 1052843" d="M0,62.267V0M58.978,8.745c.137-.114.363-.209.394-.348a2.368,2.368,0,0,0-.008-.838,1.279,1.279,0,0,0-.228-.4,1.7,1.7,0,0,0-.2.434c-.048.344-.054.694-.077,1.041l-.685-.268c.117.2.232.411.351.615a.236.236,0,0,0,.087.082c.237.135.476.266.716.4q-.177-.359-.352-.718m-5.43-5.127c.55-.091,1.157.142,1.658-.33a4.946,4.946,0,0,0-1.068-.155c-.412-.054-.556.14-.57.506l-.44-.148a1.174,1.174,0,0,0,.126.437,5.019,5.019,0,0,0,.693.663c.064.052.21,0,.32,0-.007-.106.026-.249-.029-.31-.215-.235-.458-.443-.69-.66m4.82,18.33c.117-.137.232-.275.35-.412A6.363,6.363,0,0,0,56.06,11.349c-.506-.18-1.043-.272-1.593-.411,0-1.1.017-2.186-.007-3.276a5.58,5.58,0,0,0-.173-1.372,3.6,3.6,0,0,0-3.561-2.64q-5.7-.022-11.4-.024a21.8,21.8,0,0,0-6.558-1.173,46.927,46.927,0,0,0-5.915.251,33.113,33.113,0,0,0-4.038.92c-3.721.007-7.443.071-11.163,0A3.814,3.814,0,0,0,7.608,7.65c.084,2.261.01,4.528.006,6.792a25.913,25.913,0,0,0-3.708,7.034,29.637,29.637,0,0,0-1.633,7.952,27.776,27.776,0,0,0,.4,6.785c.224,1.264.577,2.506.872,3.758-.063.125-.118.254-.188.374a9.345,9.345,0,0,0,5.8,13.75,10.446,10.446,0,0,0,4.558.035,1.52,1.52,0,0,0,.232.274A29.245,29.245,0,0,0,20.21,57.9a27.49,27.49,0,0,0,8.108,1.963,30.513,30.513,0,0,0,7.937-.314,26.488,26.488,0,0,0,7.207-2.352c1.429-.722,2.75-1.652,4.12-2.489.847-.026,1.7-.012,2.541-.085a9.617,9.617,0,0,0,4.843-1.543,2.531,2.531,0,0,0,1.2-2.363c-.024-.34,0-.683,0-1.032.5-.186.985-.33,1.435-.546a8.166,8.166,0,0,0,1.294-.771,2.428,2.428,0,0,0,1.066-2.185c-.036-.787-.019-1.577,0-2.364a2.189,2.189,0,0,0-.711-1.737c-.35-.327-.759-.593-1.141-.886a1.129,1.129,0,0,1,.037-.239,28.467,28.467,0,0,0,1.655-7.877,27.061,27.061,0,0,0-.538-7.622c-.256-1.177-.6-2.335-.9-3.5m-7.118,37.4a4.374,4.374,0,0,0,.594-.479c.079-.091.071-.26.1-.393-.123.01-.277-.024-.363.037-.441.313-.871.643-1.29.984a.239.239,0,0,0,.176.443c.459-.029.92-.075,1.375-.142.085-.013.15-.154.225-.236-.082-.071-.153-.179-.247-.2a2.679,2.679,0,0,0-.571-.01M6.547,4.76a3.915,3.915,0,0,0-.462.508c-.055.089-.012.238-.013.36.106-.011.244.016.314-.042a2.951,2.951,0,0,0,.551-.558.428.428,0,0,0,0-.4,5.435,5.435,0,0,0-.717-.734c-.076-.065-.237-.03-.358-.041.019.125-.006.291.065.369a6.23,6.23,0,0,0,.622.54M57.858,54.17c-.23-.031-.411-.114-.5-.055-.463.316-.909.659-1.343,1.015-.075.061-.061.23-.089.348.12,0,.277.058.356,0,.444-.309.871-.643,1.3-.977a2.631,2.631,0,0,0,.274-.332m-4.032,5.447c.609-.059,1.053-.085,1.49-.156.121-.019.221-.172.332-.265-.125-.066-.253-.194-.374-.189a9.754,9.754,0,0,0-1.324.129,1.913,1.913,0,0,0-.523.281l.4.2m-.7-1.809a1.6,1.6,0,0,0,.262-.111c.465-.352.934-.7,1.385-1.072.063-.051.035-.209.049-.317-.107-.008-.249-.065-.315-.018-.475.34-.937.7-1.393,1.063a.378.378,0,0,0-.067.267.5.5,0,0,0,.078.188m4.5,1.429c.44-.043.882-.073,1.317-.141.106-.017.194-.155.289-.238-.079-.075-.164-.218-.236-.213-.6.047-1.2.115-1.794.195-.065.008-.174.161-.158.2a.4.4,0,0,0,.224.206,1.2,1.2,0,0,0,.358-.007m2.091-2.654a7.01,7.01,0,0,0-.012-.842c-.011-.1-.155-.182-.239-.271-.071.084-.2.166-.2.253-.019.563-.024,1.126,0,1.687,0,.093.162.179.249.268.07-.1.186-.2.2-.313a6.8,6.8,0,0,0,.01-.783m-.465-3.169a.5.5,0,0,0,0,.2c.067.164.158.317.238.476a3.144,3.144,0,0,0,.22-.476.952.952,0,0,0,0-.416c-.038-.218-.108-.429-.165-.643a4.948,4.948,0,0,0-.6.34c-.1.07-.131.219-.194.332l.5.186M56.04,6.183l.061-.194-1.174-.938c-.043.123-.158.311-.115.358a7.8,7.8,0,0,0,.867.824c.064.053.238-.03.361-.051m3.2-3.15a4.115,4.115,0,0,0-.641.01,1.087,1.087,0,0,0-.333.194c.088.09.168.188.263.269s.22.149.315.239a3.147,3.147,0,0,1,.263.313,1.293,1.293,0,0,0,.194-.392,3.207,3.207,0,0,0-.061-.633M57.439,7.97l.188-.059c.01-.125.077-.3.019-.368a8.266,8.266,0,0,0-.877-.827c-.035-.029-.214.117-.327.182Zm2.032-2.358-.4-.794a3.415,3.415,0,0,0-.176.855,2.587,2.587,0,0,0,.266.742c.093-.238.185-.476.311-.8M56.659,3.539V3.526a4.056,4.056,0,0,0,.6-.01c.1-.014.179-.123.268-.189-.089-.089-.171-.241-.269-.254a2.727,2.727,0,0,0-.785.012,2.388,2.388,0,0,0-.539.237c.179.072.357.149.539.214a.609.609,0,0,0,.182,0M7.865,57.166l-.221-.321a1.235,1.235,0,0,0-.255.315,2.324,2.324,0,0,0-.12.641.98.98,0,0,0,.12.345c.1-.071.253-.121.29-.216a5.472,5.472,0,0,0,.186-.764M5.153,54.634c-.381-.358-1.231-.285-1.352.047-.024.069.156.3.206.291.369-.084.73-.209,1.146-.338m.494-51.18c-.073-.164-.083-.232-.124-.267-.265-.227-.534-.449-.813-.659a.956.956,0,0,0-.183.172,7.259,7.259,0,0,0,.689.795c.063.059.256-.02.431-.041M6.85,54.97a4.194,4.194,0,0,0-.625-.406,2.129,2.129,0,0,0-.616-.112.619.619,0,0,0-.06.244c.343.184.692.356,1.049.509.034.014.129-.117.253-.235m1.029,1.4c-.269-.342-.5-.636-.732-.93-.066.083-.206.2-.186.243.174.34.378.665.572,1l.346-.309m-3.869,2.8c-.336-.281-.634-.536-.944-.774a1.8,1.8,0,0,0-.224.212c.3.267.6.536.918.793a2.542,2.542,0,0,0,.25-.23m3.343-.375a2.55,2.55,0,0,0-.324-.283q-.485.359-.944.752a1.233,1.233,0,0,0,.142.2c.356-.2.7-.416,1.126-.672M2.8,56.381c.251-.434.453-.784.657-1.134a1.418,1.418,0,0,0-.278-.133,10.229,10.229,0,0,0-.627.925c-.02.034.112.159.248.343m-.5.637a1.364,1.364,0,0,0,.019.321c.111.228.231.452.348.677.043-.221.09-.441.126-.664a.453.453,0,0,0-.014-.238c-.064-.146-.153-.28-.231-.42l-.248.324M4.518,6.6c.011-.059.023-.118.034-.177l-.878-.759c-.064.108-.2.281-.177.315a4.779,4.779,0,0,0,.672.678c.06.049.23-.035.349-.058m.386.482c.348-.368.611-.636.854-.922C5.786,6.132,5.7,6,5.67,5.918c-.222.138-.452.265-.663.419a.716.716,0,0,0-.26.32c-.028.083.069.207.156.431M2.849,4.246c-.195.245-.462.474-.423.552a2.615,2.615,0,0,0,.562.647c.011.011.247-.147.236-.184-.091-.307-.216-.6-.374-1.015M5.064,59.356c-.011-.031-.022-.063-.034-.1l-.678.281a7.537,7.537,0,0,0,.77.277.781.781,0,0,0,.408-.067.227.227,0,0,0,.121-.183.307.307,0,0,0-.167-.2,1.8,1.8,0,0,0-.42-.01m-.6-56.03c-.225-.1-.387-.213-.425-.18a8.023,8.023,0,0,0-.752.748c-.016.017.126.174.195.267l.981-.835" fill="#fdfdfd"/>
        <path id="Trazado_1052844" data-name="Trazado 1052844" d="M13.357,53.52A10.464,10.464,0,0,1,8.8,53.485,9.345,9.345,0,0,1,3,39.735c.069-.121.125-.25.188-.375a9.5,9.5,0,0,1,3.567-3.2.851.851,0,0,0,.536-.924q-.022-10.25-.011-20.5c0-.3-.014-.606-.022-.908,0-2.265.078-4.533-.006-6.794A3.813,3.813,0,0,1,11.3,3.015c3.72.069,7.442,0,11.163,0,1.673.007,3.346.023,5.019.022q5.746,0,11.491-.02,5.7.011,11.4.024a3.6,3.6,0,0,1,3.561,2.64,5.58,5.58,0,0,1,.173,1.372c.024,1.09.007,2.18.007,3.276.551.14,1.087.232,1.592.411a6.364,6.364,0,0,1,2.659,10.189c-.118.136-.233.274-.35.412A6.79,6.79,0,0,1,54.1,23.082V39.366l3.66,1.212c.384.293.791.559,1.142.886a2.191,2.191,0,0,1,.711,1.737c-.023.789-.04,1.579,0,2.366a2.425,2.425,0,0,1-1.066,2.184,8.173,8.173,0,0,1-1.294.772c-.45.216-.934.36-1.435.546,0,.348-.02.69,0,1.031a2.535,2.535,0,0,1-1.2,2.363,9.6,9.6,0,0,1-4.844,1.543c-.842.075-1.693.06-2.54.085-.2-.026-.4-.058-.594-.081a9.746,9.746,0,0,1-4.826-1.593,2.518,2.518,0,0,1-1.142-2.272c.044-.94.008-1.886.008-2.849-6.845,0-13.615,0-20.384.017a.69.69,0,0,0-.471.4,9.757,9.757,0,0,1-2.428,3.577,10.358,10.358,0,0,1-4.035,2.234M48.307,17.965c.351.736.648,1.506,1.069,2.2.358.592.406.7-.13,1.153-.281.241-.559.483-.888.768a31.52,31.52,0,0,0,6.848-.14,5.46,5.46,0,1,0-6.9-3.983M18.369,40.281c-.072-.142-.133-.292-.219-.427A8.408,8.408,0,0,0,2.76,45.648a1.026,1.026,0,0,0,0,.121A8.421,8.421,0,0,0,17.868,49.4a8.324,8.324,0,0,0,.5-9.117M8.37,5.818a1.1,1.1,0,0,0-.114.333c-.007,1.852,0,3.7,0,5.6.177.008.373.025.569.025H34.9c.856,0,.912-.06.919-.948a1.49,1.49,0,0,1,1.708-1.705c2.162,0,4.326.011,6.488-.01a2.118,2.118,0,0,1,1.537.583c.64.589,1.3,1.159,1.945,1.737a1.9,1.9,0,0,0,2.155.218,9.042,9.042,0,0,1,3.524-1.282c0-1.022.014-2.01-.007-2.995-.011-.48-.089-.957-.137-1.435a2.626,2.626,0,0,0-2.839-1.953q-19.508,0-39.017,0c-.2,0-.405,0-.606.018a2.569,2.569,0,0,0-2.2,1.815M19.7,40.777a9.884,9.884,0,0,1,.533,5.528c.087.043.1.06.123.06q10.217.005,20.436,0a.7.7,0,0,0,.461-.2,4.948,4.948,0,0,1,2.469-1.459c.669-.168.825-.491.746-1.088a2.749,2.749,0,0,1,1.6-2.867,9.123,9.123,0,0,1,3.717-1.185c1.115-.124,2.24-.144,3.37-.21v-3.2q.011-6.431.019-12.861a1.1,1.1,0,0,0-.057-.214h-.592c-1.335,0-2.67,0-4,0a1,1,0,0,1-.664-1.794c.238-.207.477-.411.7-.6a6.539,6.539,0,0,1,.084-8.042,2.272,2.272,0,0,1-2.147-.884c-.5-.469-1.009-.938-1.551-1.358a1.541,1.541,0,0,0-.849-.342c-2.2-.028-4.408,0-6.612-.023-.545,0-.812.2-.762.746.12,1.3-.54,1.923-1.988,1.918-8.6-.031-17.19-.016-25.787-.016H8.2V35.5c.212-.048.386-.083.559-.126a9.211,9.211,0,0,1,6.373.651A9.6,9.6,0,0,1,19.7,40.777m32.919,4.856a23.638,23.638,0,0,0,3.074-.526A8.427,8.427,0,0,0,58.2,43.852a1.064,1.064,0,0,0,.008-1.81,5,5,0,0,0-1.483-.907,13.21,13.21,0,0,0-9.465.035,4.789,4.789,0,0,0-1.5.987.984.984,0,0,0,0,1.591,5.974,5.974,0,0,0,1.553,1.015,13.6,13.6,0,0,0,5.3.869m6.007-.753a13.858,13.858,0,0,1-13.177,0,1.968,1.968,0,0,0,1.162,2.527,7.662,7.662,0,0,0,1.216.535,13.681,13.681,0,0,0,5.809.559,9.415,9.415,0,0,0,3.821-1.08,2.006,2.006,0,0,0,1.17-2.545m-3.774,4.59a13.907,13.907,0,0,1-13.217,0c-.172,1.49.081,2.112,1.5,2.681a14.29,14.29,0,0,0,3.547.926,11.959,11.959,0,0,0,6.7-.913c1.369-.652,1.646-1.206,1.472-2.694m-2.536.085a14.552,14.552,0,0,1-5.455-1.016c-1.345-.6-2.5-1.379-2.41-3.243a20.1,20.1,0,0,0-2.011,1.037c-1.138.756-1.123,1.657,0,2.445a6.234,6.234,0,0,0,1.171.621,12.015,12.015,0,0,0,4.806.8,10.9,10.9,0,0,0,3.9-.641" transform="translate(0.352 0.611)" fill="#070808"/>
        <path id="Trazado_1052845" data-name="Trazado 1052845" d="M11.4,46.059a10.358,10.358,0,0,0,4.035-2.234,9.757,9.757,0,0,0,2.428-3.577.693.693,0,0,1,.471-.4c6.77-.019,13.539-.017,20.386-.017,0,.963.035,1.909-.01,2.849a2.521,2.521,0,0,0,1.144,2.272,9.755,9.755,0,0,0,4.825,1.595c.2.023.4.053.594.079-1.37.837-2.691,1.769-4.12,2.489a26.449,26.449,0,0,1-7.207,2.354,30.513,30.513,0,0,1-7.937.314A27.49,27.49,0,0,1,17.9,49.824a29.2,29.2,0,0,1-6.268-3.492,1.471,1.471,0,0,1-.232-.273" transform="translate(2.31 8.072)" fill="#c4effb"/>
        <path id="Trazado_1052846" data-name="Trazado 1052846" d="M7.24,12.009c.007.3.022.6.022.908q0,10.25.011,20.5a.85.85,0,0,1-.535.924,9.486,9.486,0,0,0-3.567,3.2c-.3-1.253-.648-2.494-.873-3.758a27.72,27.72,0,0,1-.4-6.785,29.625,29.625,0,0,1,1.632-7.952A25.9,25.9,0,0,1,7.24,12.009" transform="translate(0.373 2.433)" fill="#c4eefa"/>
        <path id="Trazado_1052847" data-name="Trazado 1052847" d="M48.938,37.492l-3.66-1.213V19.995a6.782,6.782,0,0,0,3.915-1.744c.3,1.167.643,2.325.9,3.5a27.061,27.061,0,0,1,.539,7.622,28.513,28.513,0,0,1-1.656,7.877,1.307,1.307,0,0,0-.037.239" transform="translate(9.174 3.698)" fill="#c2edf8"/>
        <path id="Trazado_1052848" data-name="Trazado 1052848" d="M35.482,3.213q-5.746.011-11.491.02c-1.673,0-3.347-.014-5.02-.022a33.587,33.587,0,0,1,4.04-.92,46.908,46.908,0,0,1,5.913-.251,21.8,21.8,0,0,1,6.558,1.173" transform="translate(3.844 0.412)" fill="#c4effb"/>
        <path id="Trazado_1052849" data-name="Trazado 1052849" d="M42.8,49.5a2.789,2.789,0,0,1,.571.008c.094.026.165.135.247.206-.075.082-.14.222-.225.236-.455.067-.915.113-1.375.142a.239.239,0,0,1-.176-.443c.42-.34.849-.671,1.29-.984.087-.061.241-.028.363-.037-.031.133-.023.3-.1.393a4.477,4.477,0,0,1-.6.479" transform="translate(8.453 9.853)" fill="#151515"/>
        <path id="Trazado_1052850" data-name="Trazado 1052850" d="M5.56,4.111a6.25,6.25,0,0,1-.623-.54c-.071-.078-.046-.244-.064-.369.121.011.283-.024.358.042a5.427,5.427,0,0,1,.717.732.428.428,0,0,1,0,.4,2.951,2.951,0,0,1-.551.558c-.07.058-.207.031-.314.042,0-.121-.041-.271.013-.36a4.028,4.028,0,0,1,.463-.508" transform="translate(0.987 0.649)" fill="#181818"/>
        <path id="Trazado_1052851" data-name="Trazado 1052851" d="M48.434,45.055a2.774,2.774,0,0,1-.274.333c-.427.332-.854.666-1.3.977-.079.055-.235,0-.356,0,.028-.119.016-.286.09-.348.433-.356.879-.7,1.342-1.016.084-.058.266.025.5.055" transform="translate(9.423 9.114)" fill="#181818"/>
        <path id="Trazado_1052852" data-name="Trazado 1052852" d="M44.823,49.675l-.4-.2a1.9,1.9,0,0,1,.523-.281,9.584,9.584,0,0,1,1.324-.129c.123,0,.249.123.374.189-.109.091-.209.245-.331.265-.438.071-.883.1-1.491.156" transform="translate(9.001 9.942)" fill="#181818"/>
        <path id="Trazado_1052853" data-name="Trazado 1052853" d="M44.191,48.327a.531.531,0,0,1-.078-.189.375.375,0,0,1,.067-.266c.456-.366.919-.723,1.393-1.063.066-.048.208.01.315.018-.014.108.013.267-.049.317-.451.369-.92.719-1.385,1.072a1.717,1.717,0,0,1-.262.111" transform="translate(8.938 9.481)" fill="#111"/>
        <path id="Trazado_1052854" data-name="Trazado 1052854" d="M48.015,49.355a1.162,1.162,0,0,1-.358.007.4.4,0,0,1-.224-.2c-.018-.038.093-.19.158-.2.6-.079,1.194-.148,1.793-.194.073-.006.158.138.237.213-.1.082-.183.221-.289.237-.435.067-.878.1-1.317.141" transform="translate(9.611 9.881)" fill="#111"/>
        <path id="Trazado_1052855" data-name="Trazado 1052855" d="M49.736,47.236a6.8,6.8,0,0,1-.01.783c-.013.109-.13.208-.2.313-.087-.089-.245-.176-.249-.268-.022-.562-.017-1.124,0-1.687,0-.087.133-.168.206-.253.083.089.227.172.239.271a7.269,7.269,0,0,1,.011.842" transform="translate(9.982 9.346)" fill="#111"/>
        <path id="Trazado_1052856" data-name="Trazado 1052856" d="M49.353,44.559l-.5-.186c.063-.113.1-.262.194-.332a4.948,4.948,0,0,1,.6-.34c.057.214.125.426.165.643a.97.97,0,0,1,0,.416,2.981,2.981,0,0,1-.22.476c-.081-.159-.171-.313-.237-.476a.5.5,0,0,1,0-.2" transform="translate(9.899 8.855)" fill="#111"/>
        <path id="Trazado_1052857" data-name="Trazado 1052857" d="M44.546,3.114c.014-.367.158-.559.57-.506a5.089,5.089,0,0,1,1.067.155c-.5.471-1.108.238-1.657.33l.02.022" transform="translate(9.022 0.527)" fill="#181818"/>
        <path id="Trazado_1052858" data-name="Trazado 1052858" d="M48.945,7.431c.023-.348.03-.7.078-1.041a1.624,1.624,0,0,1,.2-.434,1.266,1.266,0,0,1,.227.4,2.361,2.361,0,0,1,.008.837c-.03.138-.256.233-.394.349h.02L48.94,7.4Z" transform="translate(9.916 1.207)" fill="#070808"/>
        <path id="Trazado_1052859" data-name="Trazado 1052859" d="M46.807,5.33c-.124.02-.3.1-.361.052a7.714,7.714,0,0,1-.868-.825c-.042-.047.073-.235.115-.357l1.174.937-.06.194" transform="translate(9.233 0.851)" fill="#181818"/>
        <path id="Trazado_1052860" data-name="Trazado 1052860" d="M49.426,2.523a3.2,3.2,0,0,1,.061.631,1.28,1.28,0,0,1-.194.392,3.642,3.642,0,0,0-.262-.313c-.1-.09-.216-.153-.316-.239s-.176-.178-.263-.269a1.127,1.127,0,0,1,.333-.194,4.127,4.127,0,0,1,.641-.008" transform="translate(9.818 0.51)" fill="#181818"/>
        <path id="Trazado_1052861" data-name="Trazado 1052861" d="M49.175,7.336c.118.239.235.479.352.717q-.359-.2-.716-.4a.246.246,0,0,1-.087-.082c-.119-.2-.235-.41-.351-.616l.685.268,0-.025.141.137Z" transform="translate(9.802 1.41)" fill="#111"/>
        <path id="Trazado_1052862" data-name="Trazado 1052862" d="M47.929,6.838l-1-1.072c.113-.065.291-.212.327-.183a8.517,8.517,0,0,1,.877.829c.058.064-.01.242-.019.367l-.188.059" transform="translate(9.51 1.131)" fill="#111"/>
        <path id="Trazado_1052863" data-name="Trazado 1052863" d="M49.549,4.8c-.127.327-.219.565-.311.8a2.6,2.6,0,0,1-.267-.743,3.409,3.409,0,0,1,.177-.854c.133.265.268.529.4.793" transform="translate(9.922 0.812)" fill="#181818"/>
        <path id="Trazado_1052864" data-name="Trazado 1052864" d="M47.233,3.025a.6.6,0,0,1-.18,0c-.183-.065-.361-.142-.54-.214a2.373,2.373,0,0,1,.54-.237,2.718,2.718,0,0,1,.784-.012c.1.013.18.165.271.254-.09.066-.172.174-.269.189a4.054,4.054,0,0,1-.6.01v.013" transform="translate(9.425 0.514)" fill="#181818"/>
        <path id="Trazado_1052865" data-name="Trazado 1052865" d="M6.641,47.588a5.515,5.515,0,0,1-.186.764c-.037.1-.19.146-.29.216a.988.988,0,0,1-.12-.345,2.324,2.324,0,0,1,.12-.641c.042-.12.167-.21.255-.315l.221.321" transform="translate(1.225 9.577)" fill="#181818"/>
        <path id="Trazado_1052866" data-name="Trazado 1052866" d="M44.617,3.052,44.6,3.03c.232.218.475.426.689.66.057.061.022.2.029.31-.108,0-.255.054-.32,0a5.006,5.006,0,0,1-.692-.663,1.174,1.174,0,0,1-.126-.437l.44.148" transform="translate(8.951 0.588)" fill="#090a0a"/>
        <path id="Trazado_1052867" data-name="Trazado 1052867" d="M4.513,45.469c-.416.129-.777.254-1.147.337-.048.012-.23-.222-.2-.29.12-.332.971-.405,1.352-.047" transform="translate(0.64 9.165)" fill="#181818"/>
        <path id="Trazado_1052868" data-name="Trazado 1052868" d="M4.885,3.028c-.174.02-.368.1-.431.041a7.259,7.259,0,0,1-.689-.795A.956.956,0,0,1,3.948,2.1c.279.21.548.432.813.659.041.035.051.1.124.267" transform="translate(0.763 0.426)" fill="#181818"/>
        <path id="Trazado_1052869" data-name="Trazado 1052869" d="M5.915,45.794c-.123.118-.219.249-.251.235-.357-.153-.707-.325-1.049-.509a.618.618,0,0,1,.059-.244,2.145,2.145,0,0,1,.617.112,4.287,4.287,0,0,1,.624.406" transform="translate(0.934 9.174)" fill="#181818"/>
        <path id="Trazado_1052870" data-name="Trazado 1052870" d="M6.706,47.028l-.345.309c-.195-.33-.4-.655-.572-1-.02-.038.12-.16.186-.243.231.295.463.588.731.93" transform="translate(1.172 9.341)" fill="#151515"/>
        <path id="Trazado_1052871" data-name="Trazado 1052871" d="M3.532,49.329a2.542,2.542,0,0,1-.25.23c-.313-.256-.615-.524-.918-.793a1.76,1.76,0,0,1,.224-.21c.31.237.609.492.944.773" transform="translate(0.479 9.839)" fill="#111"/>
        <path id="Trazado_1052872" data-name="Trazado 1052872" d="M6.329,48.935c-.422.257-.77.47-1.126.672a1.311,1.311,0,0,1-.142-.2c.307-.261.621-.512.944-.75a2.378,2.378,0,0,1,.324.281" transform="translate(1.025 9.858)" fill="#181818"/>
        <path id="Trazado_1052873" data-name="Trazado 1052873" d="M2.37,47.095c-.136-.183-.268-.309-.248-.343a10.23,10.23,0,0,1,.627-.925,1.5,1.5,0,0,1,.278.133c-.2.35-.405.7-.657,1.134" transform="translate(0.43 9.285)" fill="#151515"/>
        <path id="Trazado_1052874" data-name="Trazado 1052874" d="M1.913,47.466l.248-.324c.078.139.167.274.231.42a.453.453,0,0,1,.014.238c-.036.222-.083.443-.126.664-.117-.225-.237-.449-.348-.677a1.364,1.364,0,0,1-.019-.321" transform="translate(0.388 9.552)" fill="#181818"/>
        <path id="Trazado_1052875" data-name="Trazado 1052875" d="M3.93,5.65c-.119.023-.287.107-.349.058a4.843,4.843,0,0,1-.672-.678c-.028-.034.113-.207.177-.315l.878.759c-.011.059-.023.118-.034.177" transform="translate(0.589 0.955)" fill="#090a0a"/>
        <path id="Trazado_1052876" data-name="Trazado 1052876" d="M4.1,6.09c-.088-.225-.183-.348-.156-.431a.716.716,0,0,1,.26-.32c.21-.154.441-.28.663-.419.032.084.117.213.088.247-.243.285-.506.553-.854.922" transform="translate(0.799 0.997)" fill="#111"/>
        <path id="Trazado_1052877" data-name="Trazado 1052877" d="M2.441,3.531c.158.411.283.708.374,1.015.011.036-.225.195-.236.183a2.59,2.59,0,0,1-.563-.646c-.038-.078.23-.307.425-.552" transform="translate(0.408 0.715)" fill="#111"/>
        <path id="Trazado_1052878" data-name="Trazado 1052878" d="M4.331,49.371a1.8,1.8,0,0,1,.419.01.3.3,0,0,1,.167.2c.013.051-.063.161-.12.183a.784.784,0,0,1-.408.067,7.537,7.537,0,0,1-.77-.277l.678-.281c.011.032.023.064.034.1" transform="translate(0.733 9.985)" fill="#151515"/>
        <path id="Trazado_1052879" data-name="Trazado 1052879" d="M3.908,2.8l-.981.835c-.069-.093-.21-.25-.195-.267a8.023,8.023,0,0,1,.752-.748c.037-.032.2.082.425.18" transform="translate(0.553 0.529)" fill="#090a0a"/>
        <path id="Trazado_1052880" data-name="Trazado 1052880" d="M18.608,39.592a9.6,9.6,0,0,0-4.563-4.753,9.2,9.2,0,0,0-6.373-.651c-.173.043-.348.078-.559.126V11.507h.743c8.6,0,17.19-.016,25.785.014,1.449,0,2.108-.619,1.989-1.918-.051-.541.216-.749.761-.746,2.2.019,4.409,0,6.613.023a1.553,1.553,0,0,1,.849.342c.541.42,1.047.89,1.55,1.358a2.276,2.276,0,0,0,2.147.885,6.537,6.537,0,0,0-.084,8.04c-.226.2-.465.4-.7.606a1,1,0,0,0,.664,1.8c1.335,0,2.67,0,4,0h.592a1.028,1.028,0,0,1,.057.213q-.007,6.429-.019,12.862c-.337.161-.675.32-1.009.488q-2.165,1.086-4.328,2.176c.047-.443-.164-.63-.6-.625-.688.007-1.377-.024-2.063.01a1.416,1.416,0,0,1-1.335-.66,14.612,14.612,0,0,0-1.049-1.334.709.709,0,0,1-.1-.906,12.951,12.951,0,0,0-.514-12.47,35.011,35.011,0,0,0-2.374-3.229,21.63,21.63,0,0,1,1.377-1.717,1.8,1.8,0,0,1,1.022-.5,17.347,17.347,0,0,1,2.123-.019c.348,0,.712-.025.7-.459s-.385-.435-.728-.431c-.687.011-1.376.029-2.062,0a2.045,2.045,0,0,0-1.862.921c-.426.581-.885,1.138-1.3,1.667-6.184-4.124-12.061-3.785-17.738.925-.449-.568-.913-1.151-1.371-1.74a1.869,1.869,0,0,0-1.519-.753c-.789-.01-1.579-.034-2.366.017-.216.014-.563.243-.6.421-.07.378.259.482.6.482.77,0,1.539-.028,2.305.014a1.255,1.255,0,0,1,.8.325c.55.612,1.032,1.287,1.553,1.952-.182.231-.348.432-.5.64a12.979,12.979,0,0,0-1.711,13.544,13.159,13.159,0,0,0,6.415,6.677c-.577-.046-1.161-.051-1.731-.144-1.167-.194-2.326-.435-3.489-.657M15.325,19.324a2.107,2.107,0,0,0,.706-.017,2.146,2.146,0,0,0,.524-.444,2.166,2.166,0,0,0-.528-.445,1.451,1.451,0,0,0-.653-.014c-.387.035-.989-.179-1.008.434-.02.682.617.423.958.486m27.468-1.942a1.68,1.68,0,0,0-.6.016,2.189,2.189,0,0,0-.5.419c.155.156.3.417.47.443a4.787,4.787,0,0,0,1.324,0c.161-.023.292-.268.438-.414-.156-.153-.287-.366-.475-.443a1.9,1.9,0,0,0-.659-.018m2.813,18.449a1.568,1.568,0,0,0,.6-.016,2.4,2.4,0,0,0,.529-.45c-.166-.142-.316-.376-.5-.405a3.629,3.629,0,0,0-1.2,0c-.192.034-.348.287-.518.439a2.859,2.859,0,0,0,.554.421,1.454,1.454,0,0,0,.538.011" transform="translate(1.441 1.795)" fill="#fdfdfd"/>
        <path id="Trazado_1052881" data-name="Trazado 1052881" d="M51.931,5.466c.048.477.127.955.137,1.435.022.985.007,1.972.007,2.995a9.042,9.042,0,0,0-3.524,1.282A1.9,1.9,0,0,1,46.4,10.96c-.649-.578-1.3-1.147-1.945-1.737a2.118,2.118,0,0,0-1.537-.583c-2.162.019-4.326,0-6.488.01a1.489,1.489,0,0,0-1.708,1.705c-.006.888-.063.948-.919.948H7.723c-.2,0-.392-.017-.569-.025,0-1.9,0-3.747,0-5.6a1.1,1.1,0,0,1,.114-.333c1.369.315,2.729.673,4.108.931,1.259.236,2.539.362,3.81.536-.533.663-.522,1.33.035,1.714a.963.963,0,0,0,1.223-.011,1.093,1.093,0,0,0,.279-1.452l2.327.1a2.814,2.814,0,0,0,.01.922.935.935,0,0,0,1.105.624c.6-.094.849-.5.863-1.306,1.485.082,2.969.227,4.456.231,3.025.007,6.053,0,9.075-.12,2.928-.118,5.856-.338,8.773-.609,1.793-.167,3.573-.491,5.353-.785,1.087-.179,2.161-.437,3.241-.659M11.651,6.626A1.055,1.055,0,1,0,12.726,7.65a1.085,1.085,0,0,0-1.075-1.025" transform="translate(1.45 1.083)" fill="#0054c8"/>
        <path id="Trazado_1052882" data-name="Trazado 1052882" d="M19.034,7.477l-2.326-.1a1.182,1.182,0,0,0-1.538-.251c-1.27-.174-2.55-.3-3.809-.536-1.379-.257-2.74-.616-4.109-.931a2.57,2.57,0,0,1,2.2-1.815c.2-.018.4-.018.606-.018q19.51,0,39.018,0A2.624,2.624,0,0,1,51.91,5.775c-1.08.222-2.154.48-3.241.659-1.779.295-3.559.618-5.352.785-2.919.271-5.845.491-8.773.609-3.022.121-6.05.127-9.076.12-1.485,0-2.97-.149-4.456-.231-.514-.965-1.233-1.052-1.978-.241" transform="translate(1.469 0.774)" fill="#0065ec"/>
        <path id="Trazado_1052883" data-name="Trazado 1052883" d="M44.787,33.245q2.165-1.088,4.328-2.177c.334-.167.672-.326,1.009-.489v3.2c-1.129.066-2.255.088-3.369.21a9.129,9.129,0,0,0-3.719,1.185,2.749,2.749,0,0,0-1.6,2.867c.081.6-.077.92-.744,1.088a4.965,4.965,0,0,0-2.47,1.459.691.691,0,0,1-.461.2q-10.217.011-20.435,0c-.018,0-.036-.017-.124-.059a9.9,9.9,0,0,0-.532-5.53c1.163.222,2.322.464,3.49.657.569.1,1.152.1,1.731.144a1.751,1.751,0,0,1,.23.072,12.177,12.177,0,0,0,7.172,1.072,38.564,38.564,0,0,0,3.883-1.027,4.427,4.427,0,0,0,.842.043,44.821,44.821,0,0,0,9.073-2.19,4.637,4.637,0,0,0,.744-.438l.951-.279" transform="translate(3.378 6.196)" fill="#e9eef0"/>
        <path id="Trazado_1052884" data-name="Trazado 1052884" d="M18.2,34a8.322,8.322,0,0,1-.5,9.117A8.42,8.42,0,0,1,2.588,39.49a.8.8,0,0,1,0-.12l2.417.214c.023.076.044.154.07.23a5.878,5.878,0,0,0,5.272,4.341A5.759,5.759,0,0,0,16.167,41.1a6.063,6.063,0,0,0,.394-5.2L18.2,34" transform="translate(0.524 6.89)" fill="#e7ab55"/>
        <path id="Trazado_1052885" data-name="Trazado 1052885" d="M45.267,39.355a13.576,13.576,0,0,1-5.3-.869,5.974,5.974,0,0,1-1.553-1.015.984.984,0,0,1,0-1.591,4.829,4.829,0,0,1,1.5-.987,13.21,13.21,0,0,1,9.465-.035,5.02,5.02,0,0,1,1.483.908,1.064,1.064,0,0,1-.008,1.81A8.476,8.476,0,0,1,48.34,38.83a23.348,23.348,0,0,1-3.073.524" transform="translate(7.701 6.889)" fill="#f8c26c"/>
        <path id="Trazado_1052886" data-name="Trazado 1052886" d="M40.494,16.573A5.414,5.414,0,0,1,50.72,13.136a4.648,4.648,0,0,1-2.481,3.252,20.645,20.645,0,0,1-2.15.915H43.07l-2.576-.731m5.352-1.7c-.766,0-1.533-.034-2.3.02-.235.017-.452.273-.678.42.21.166.417.47.631.476,1.55.041,3.1.038,4.653,0a.762.762,0,0,0,.581-.434c.072-.38-.257-.483-.6-.483q-1.147,0-2.3,0m.007-2.331c-.807,0-1.616-.026-2.421.02-.184.011-.352.275-.528.422.18.144.358.408.541.411,1.574.032,3.148.035,4.723,0,.2,0,.4-.28.594-.429-.2-.142-.4-.391-.609-.4-.765-.049-1.533-.02-2.3-.019" transform="translate(8.164 2.003)" fill="#00c23a"/>
        <path id="Trazado_1052887" data-name="Trazado 1052887" d="M18.22,34.725l-1.636,1.9c-.1-.177-.192-.35-.284-.529A6.059,6.059,0,0,0,5.029,40.306l-2.417-.214A8.408,8.408,0,0,1,18,34.3a4.749,4.749,0,0,1,.219.427" transform="translate(0.501 6.167)" fill="#f7c26b"/>
        <path id="Trazado_1052888" data-name="Trazado 1052888" d="M46.056,16.755a20.756,20.756,0,0,0,2.15-.915,4.647,4.647,0,0,0,2.48-3.252,5.427,5.427,0,0,1-3.325,7.421,31.522,31.522,0,0,1-6.848.138c.328-.285.606-.528.888-.767.536-.459.488-.563.13-1.155-.421-.7-.718-1.464-1.069-2.2l2.576.731c-.283.61-.164.832.47.842q1.03.016,2.061,0c.634-.008.75-.22.487-.843" transform="translate(8.198 2.551)" fill="#00b027"/>
        <path id="Trazado_1052889" data-name="Trazado 1052889" d="M51.273,37.827A2,2,0,0,1,50.1,40.371a9.367,9.367,0,0,1-3.82,1.08,13.681,13.681,0,0,1-5.809-.558,7.62,7.62,0,0,1-1.216-.536A1.965,1.965,0,0,1,38.1,37.831a13.858,13.858,0,0,0,13.177,0" transform="translate(7.703 7.665)" fill="#e7ab54"/>
        <path id="Trazado_1052890" data-name="Trazado 1052890" d="M48.136,41.643c.174,1.488-.1,2.042-1.472,2.694a11.959,11.959,0,0,1-6.7.913,14.276,14.276,0,0,1-3.547-.926c-1.423-.569-1.675-1.189-1.5-2.681a13.907,13.907,0,0,0,13.217,0" transform="translate(7.066 8.438)" fill="#e7ab54"/>
        <path id="Trazado_1052891" data-name="Trazado 1052891" d="M45.6,42.432a10.9,10.9,0,0,1-3.9.641,12.015,12.015,0,0,1-4.806-.8,6.234,6.234,0,0,1-1.171-.621c-1.126-.788-1.14-1.688,0-2.445a20.1,20.1,0,0,1,2.011-1.037c-.091,1.864,1.066,2.645,2.41,3.243A14.552,14.552,0,0,0,45.6,42.432" transform="translate(7.067 7.735)" fill="#f5c06a"/>
        <path id="Trazado_1052892" data-name="Trazado 1052892" d="M49.081,7.3,48.94,7.16l.141.137" transform="translate(9.916 1.451)" fill="#fdfdfd"/>
        <path id="Trazado_1052893" data-name="Trazado 1052893" d="M45.5,36.608l-.952.28c-.6-.007-1.212-.044-1.816-.014a2.061,2.061,0,0,1-1.907-.945c-.367-.512-.773-1-1.162-1.492-.41.535-.765,1.027-1.15,1.492a14.284,14.284,0,0,1-4.623,3.544A39.055,39.055,0,0,1,30.01,40.5a12.21,12.21,0,0,1-7.174-1.07,1.825,1.825,0,0,0-.23-.073,13.156,13.156,0,0,1-6.415-6.676A12.979,12.979,0,0,1,17.9,19.135c.155-.208.321-.409.5-.641-.521-.665-1-1.339-1.553-1.952a1.255,1.255,0,0,0-.8-.325c-.766-.042-1.537-.018-2.305-.014-.34,0-.669-.1-.6-.483.032-.178.379-.405.6-.419.787-.052,1.577-.028,2.366-.017a1.865,1.865,0,0,1,1.519.753c.458.588.922,1.171,1.371,1.739,5.676-4.709,11.554-5.047,17.738-.925.416-.529.876-1.086,1.3-1.666a2.048,2.048,0,0,1,1.862-.922c.687.032,1.376.014,2.063,0,.343-.006.716,0,.728.429s-.352.464-.7.458a17.346,17.346,0,0,0-2.123.022,1.794,1.794,0,0,0-1.022.5c-.529.554-.966,1.194-1.377,1.719a34.864,34.864,0,0,1,2.374,3.23,12.951,12.951,0,0,1,.514,12.47.707.707,0,0,0,.1.9,14.8,14.8,0,0,1,1.049,1.335,1.415,1.415,0,0,0,1.334.66c.687-.034,1.376,0,2.064-.01.433,0,.643.183.6.625m-13.656-2.8A7.376,7.376,0,1,1,27.627,19.96V15.013c-4.218-.291-9.278,3.5-10.956,8.171a12.448,12.448,0,0,0,4.517,14.263,12.205,12.205,0,0,0,13.418.516c-.914-1.376-1.827-2.753-2.758-4.154m-3.518-.061a6.425,6.425,0,1,0-6.379-6.541,6.446,6.446,0,0,0,6.379,6.541m12.4-6.919A12.288,12.288,0,0,0,28.6,14.962v4.975c4.148.511,6.5,2.83,7.146,6.892ZM35.392,37.475A11.975,11.975,0,0,0,40.72,27.8H35.7a7.522,7.522,0,0,1-3.073,5.506l2.76,4.169" transform="translate(2.663 2.834)" fill="#070606"/>
        <path id="Trazado_1052894" data-name="Trazado 1052894" d="M14.1,17.72c-.342-.061-.979.2-.957-.486.018-.611.619-.4,1.007-.434a1.467,1.467,0,0,1,.653.016,2.165,2.165,0,0,1,.528.444,2.1,2.1,0,0,1-.524.444,2.107,2.107,0,0,1-.706.017" transform="translate(2.663 3.398)" fill="#111"/>
        <path id="Trazado_1052895" data-name="Trazado 1052895" d="M36.967,15.951a1.876,1.876,0,0,1,.659.018c.188.075.319.289.475.443-.146.143-.277.39-.438.411a4.787,4.787,0,0,1-1.324,0c-.174-.025-.315-.289-.47-.443a2.083,2.083,0,0,1,.5-.42,1.681,1.681,0,0,1,.6-.014" transform="translate(7.268 3.228)" fill="#070808"/>
        <path id="Trazado_1052896" data-name="Trazado 1052896" d="M39.3,31.443a1.427,1.427,0,0,1-.538-.013,2.846,2.846,0,0,1-.554-.419c.171-.154.326-.405.518-.44a3.662,3.662,0,0,1,1.2,0c.183.029.333.265.5.406a2.4,2.4,0,0,1-.529.45,1.593,1.593,0,0,1-.6.016" transform="translate(7.743 6.184)" fill="#070606"/>
        <path id="Trazado_1052897" data-name="Trazado 1052897" d="M11.07,6.41a1.055,1.055,0,1,1-1.049,1.051A1.086,1.086,0,0,1,11.07,6.41" transform="translate(2.03 1.299)" fill="#000306"/>
        <path id="Trazado_1052898" data-name="Trazado 1052898" d="M17.055,6.954c.746-.812,1.465-.724,1.978.241C19.019,8,18.768,8.407,18.17,8.5a.936.936,0,0,1-1.105-.623,2.856,2.856,0,0,1-.01-.924" transform="translate(3.448 1.297)" fill="#000306"/>
        <path id="Trazado_1052899" data-name="Trazado 1052899" d="M13.9,6.595a1.183,1.183,0,0,1,1.537.251A1.1,1.1,0,0,1,15.161,8.3a.964.964,0,0,1-1.223.01c-.557-.382-.568-1.051-.035-1.714" transform="translate(2.738 1.3)" fill="#000306"/>
        <path id="Trazado_1052900" data-name="Trazado 1052900" d="M30.4,36.025a14.284,14.284,0,0,0,4.623-3.543c.385-.467.74-.957,1.151-1.492.387.5.794.98,1.162,1.491a2.066,2.066,0,0,0,1.906.948c.6-.032,1.211.006,1.817.012a4.637,4.637,0,0,1-.744.438,44.9,44.9,0,0,1-9.073,2.19,4.427,4.427,0,0,1-.842-.043" transform="translate(6.159 6.279)" fill="#fbfbfb"/>
        <path id="Trazado_1052901" data-name="Trazado 1052901" d="M4.624,39.906A6.059,6.059,0,0,1,15.9,35.7c.091.178.189.352.284.529a6.06,6.06,0,0,1-.394,5.2,5.758,5.758,0,0,1-5.818,3.052,5.88,5.88,0,0,1-5.274-4.341c-.025-.076-.047-.154-.07-.23M15.373,36.86a5.033,5.033,0,0,0-4.759-3.532,5.149,5.149,0,1,0,4.759,3.532" transform="translate(0.905 6.568)" fill="#090807"/>
        <path id="Trazado_1052902" data-name="Trazado 1052902" d="M45.411,14.038q1.149,0,2.3,0c.338,0,.666.1.594.483a.762.762,0,0,1-.581.434c-1.55.036-3.1.04-4.652,0-.215,0-.422-.309-.633-.475.226-.147.444-.4.679-.42.761-.054,1.529-.02,2.295-.02" transform="translate(8.599 2.842)" fill="#000e04"/>
        <path id="Trazado_1052903" data-name="Trazado 1052903" d="M45.413,12.1c.767,0,1.536-.03,2.3.019.21.013.406.262.609.4-.2.15-.393.426-.594.431q-2.361.054-4.723,0c-.183,0-.361-.267-.541-.41.176-.148.344-.412.528-.423.8-.047,1.614-.02,2.421-.02" transform="translate(8.604 2.45)" fill="#000100"/>
        <path id="Trazado_1052904" data-name="Trazado 1052904" d="M45.646,16.053c.263.623.147.835-.487.843q-1.03.016-2.061,0c-.634-.01-.753-.232-.47-.842h3.019" transform="translate(8.608 3.253)" fill="#000100"/>
        <path id="Trazado_1052905" data-name="Trazado 1052905" d="M31.373,33.637c.93,1.4,1.844,2.778,2.756,4.154a12.2,12.2,0,0,1-13.416-.515,12.452,12.452,0,0,1-4.518-14.264c1.679-4.673,6.738-8.46,10.956-8.171v4.946a7.376,7.376,0,1,0,4.222,13.849" transform="translate(3.137 3.004)" fill="#fc6b54"/>
        <path id="Trazado_1052906" data-name="Trazado 1052906" d="M26.846,32.583a6.425,6.425,0,1,1,6.453-6.1,6.408,6.408,0,0,1-6.453,6.1" transform="translate(4.147 3.999)" fill="#fdfdfd"/>
        <path id="Trazado_1052907" data-name="Trazado 1052907" d="M38.124,26.664H33.138c-.647-4.061-3-6.38-7.145-6.891V14.8A12.287,12.287,0,0,1,38.124,26.664" transform="translate(5.267 2.998)" fill="#f7c26b"/>
        <path id="Trazado_1052908" data-name="Trazado 1052908" d="M32.108,35.147l-2.76-4.169a7.522,7.522,0,0,0,3.073-5.506h5.015a11.975,11.975,0,0,1-5.328,9.675" transform="translate(5.947 5.161)" fill="#00c33a"/>
        <path id="Trazado_1052909" data-name="Trazado 1052909" d="M5.5,39.886a5.1,5.1,0,0,1,4.961-6.713,5.033,5.033,0,0,1,4.759,3.532,9.14,9.14,0,0,1-3.212,1.866c-.339-.171-.687-.325-1.011-.517a.6.6,0,0,1-.295-.358c-.04-.391-.014-.789-.014-1.229a4.273,4.273,0,0,0,.848.166,1.53,1.53,0,0,0,.526-.225c-.1-.17-.165-.426-.313-.491a5.582,5.582,0,0,0-1.016-.253.652.652,0,0,0-.048-.21c-.093-.154-.2-.3-.305-.443-.111.137-.212.283-.333.408a1.428,1.428,0,0,1-.433.363A1.52,1.52,0,0,0,8.5,37.2a1.267,1.267,0,0,0,1.047,1.3c.438.139.611.333.463.773l-4.505.6" transform="translate(1.054 6.721)" fill="#fbfbfb"/>
        <path id="Trazado_1052910" data-name="Trazado 1052910" d="M11.96,37.976a9.116,9.116,0,0,0,3.212-1.865,5.113,5.113,0,1,1-9.72,3.18l4.505-.6v.861a5.335,5.335,0,0,0-.931-.247,1.833,1.833,0,0,0-.6.172c.106.184.17.462.327.533a6.48,6.48,0,0,0,1.033.313l.538.7c.156-.218.314-.434.517-.716,1.32-.3,1.757-1.139,1.123-2.322" transform="translate(1.105 7.317)" fill="#e7ecee"/>
        <path id="Trazado_1052911" data-name="Trazado 1052911" d="M11.46,38.262c.634,1.182.2,2.02-1.123,2.322-.2.28-.361.5-.517.716-.152-.195-.3-.39-.538-.7a6.48,6.48,0,0,1-1.033-.313c-.158-.072-.221-.349-.328-.533a1.819,1.819,0,0,1,.606-.172,5.363,5.363,0,0,1,.931.247v-.861c.149-.441-.024-.635-.463-.773a1.269,1.269,0,0,1-1.047-1.3,1.521,1.521,0,0,1,1.117-1.422A1.384,1.384,0,0,0,9.5,35.11c.123-.125.222-.271.333-.408.1.147.214.29.305.443a.659.659,0,0,1,.048.21,5.722,5.722,0,0,1,1.017.253c.147.066.21.321.311.491a1.512,1.512,0,0,1-.524.225,4.283,4.283,0,0,1-.849-.166c0,.441-.024.838.014,1.229a.607.607,0,0,0,.295.358c.326.192.672.348,1.011.517m-1.988-1.98-.158-.109c-.178.218-.5.443-.493.653.01.243.314.474.491.711l.16-.1Zm.693,3.51c.4-.089.8-.2.711-.654-.046-.237-.379-.419-.583-.625l-.127.123Z" transform="translate(1.605 7.031)" fill="#090a0a"/>
        <path id="Trazado_1052912" data-name="Trazado 1052912" d="M9.321,36.034v1.15l-.16.1c-.177-.237-.481-.468-.491-.712-.01-.209.315-.434.493-.652l.158.109" transform="translate(1.757 7.279)" fill="#e7ecee"/>
        <path id="Trazado_1052913" data-name="Trazado 1052913" d="M9.787,39.151V37.994l.127-.123c.2.207.538.388.583.625.087.451-.311.565-.711.654" transform="translate(1.983 7.674)" fill="#e7ecee"/>
      </g>
    </g>
  </g>
</svg>
