<svg xmlns="http://www.w3.org/2000/svg" width="400" height="69" viewBox="0 0 400 69">
  <g id="Grupo_1181039" data-name="Grupo 1181039" transform="translate(-810 -35242.398)">
    <path id="Trazado_1053282" data-name="Trazado 1053282" d="M0,0H400V69H0Z" transform="translate(810 35242.398)" fill="#f2ecfd"/>
    <path id="Trazado_1055957" data-name="Trazado 1055957" d="M22.249,13.375a4.535,4.535,0,0,1-1.6,2.8,4.476,4.476,0,0,1-3.043.984,3.544,3.544,0,0,1-1.844-.52,3.283,3.283,0,0,1-1.227-1.43,5.34,5.34,0,0,1-.484-2.066,6.623,6.623,0,0,1,.055-1.25l.133-.937a7.076,7.076,0,0,1,1.8-4.043A4.544,4.544,0,0,1,19.53,5.469,3.4,3.4,0,0,1,22.069,6.5a4.117,4.117,0,0,1,.992,2.785H21.6Q21.5,6.9,19.725,6.711L19.468,6.7A3.019,3.019,0,0,0,17,7.793,5.942,5.942,0,0,0,15.725,10.9l-.172,1.18-.047.688a3.867,3.867,0,0,0,.512,2.285,1.929,1.929,0,0,0,1.66.879,2.924,2.924,0,0,0,1.965-.57A3.8,3.8,0,0,0,20.827,13.4Zm2.328,1.984a.846.846,0,0,1,.633.234.807.807,0,0,1,.242.625.844.844,0,0,1-.258.621.929.929,0,0,1-.625.254.788.788,0,0,1-.859-.828.874.874,0,0,1,.867-.906ZM29.491,17H28.03L30.007,5.625h1.461Zm3.547-1.641a.846.846,0,0,1,.633.234.807.807,0,0,1,.242.625.844.844,0,0,1-.258.621.929.929,0,0,1-.625.254.788.788,0,0,1-.859-.828.874.874,0,0,1,.867-.906Zm5.586-2.812L37.85,17H36.382L38.358,5.625l3.8.008a3.713,3.713,0,0,1,2.711.934,2.937,2.937,0,0,1,.82,2.48,3.541,3.541,0,0,1-1.3,2.57,4.718,4.718,0,0,1-3.059.938Zm.211-1.227,2.531.008a3.079,3.079,0,0,0,1.961-.6,2.407,2.407,0,0,0,.9-1.672,1.886,1.886,0,0,0-.4-1.559A2.005,2.005,0,0,0,42.3,6.867l-2.7-.008Zm18.641-.68H51.147l.219-1.258H57.7Zm-.562,3.242H50.585l.219-1.25h6.336Z" transform="translate(831.92 35265.273)" fill="#12263f"/>
    <path id="Trazado_1055958" data-name="Trazado 1055958" d="M7.766,10.641H1.438l.219-1.258H7.992ZM7.2,13.883H.875l.219-1.25H7.43Zm11.57.133a1.492,1.492,0,0,0-.336-1.172,3.358,3.358,0,0,0-1.4-.879,5.768,5.768,0,0,1-1.574-.855,2.767,2.767,0,0,1-1.047-2.477,3.194,3.194,0,0,1,.926-2.121,3.714,3.714,0,0,1,2.223-1.02l.3-1.711h1.141L18.7,5.516a2.462,2.462,0,0,1,1.723,1.168,4.053,4.053,0,0,1,.449,2.441h-1.4a2.932,2.932,0,0,0-.34-1.767,1.378,1.378,0,0,0-1.184-.639,2.048,2.048,0,0,0-1.457.5A2.074,2.074,0,0,0,15.82,8.6a1.587,1.587,0,0,0,.293,1.158,3.328,3.328,0,0,0,1.434.912,6.052,6.052,0,0,1,1.625.891,2.817,2.817,0,0,1,.809,1.066A2.96,2.96,0,0,1,20.18,14a3.128,3.128,0,0,1-1,2.156,4.027,4.027,0,0,1-2.371.977l-.266,1.492H15.414l.273-1.508a2.754,2.754,0,0,1-1.937-1.1,3.586,3.586,0,0,1-.57-2.367h1.414a2.319,2.319,0,0,0,.371,1.633,1.651,1.651,0,0,0,1.379.625A2.554,2.554,0,0,0,18,15.4,1.977,1.977,0,0,0,18.773,14.016Zm5.789-3.406.938.008a2.769,2.769,0,0,0,1.738-.543A2.058,2.058,0,0,0,28.047,8.6a1.814,1.814,0,0,0-.336-1.426,1.613,1.613,0,0,0-1.273-.535,2.175,2.175,0,0,0-1.512.52A2.294,2.294,0,0,0,24.164,8.6l-1.4.008a3.241,3.241,0,0,1,1.2-2.285,3.8,3.8,0,0,1,2.543-.863,3.04,3.04,0,0,1,2.246.895,2.838,2.838,0,0,1,.707,2.277,2.631,2.631,0,0,1-.617,1.469,4.111,4.111,0,0,1-1.516,1.1,2.248,2.248,0,0,1,1.156.988,2.757,2.757,0,0,1,.32,1.582,3.491,3.491,0,0,1-1.223,2.477,3.844,3.844,0,0,1-2.668.906,3.234,3.234,0,0,1-2.328-.906,2.874,2.874,0,0,1-.8-2.258L23.2,14a1.9,1.9,0,0,0,.422,1.41,1.8,1.8,0,0,0,1.359.566,2.273,2.273,0,0,0,1.664-.57A2.38,2.38,0,0,0,27.4,13.8a1.741,1.741,0,0,0-.422-1.449,2.127,2.127,0,0,0-1.516-.551l-1.086-.008Zm6.828,4.75a.846.846,0,0,1,.633.234.807.807,0,0,1,.242.625.844.844,0,0,1-.258.621.929.929,0,0,1-.625.254.788.788,0,0,1-.859-.828.874.874,0,0,1,.867-.906Zm6.57,1.8a2.567,2.567,0,0,1-2.156-1.02,4.526,4.526,0,0,1-.656-2.848q.016-.578.086-1.141l.281-1.9a7.043,7.043,0,0,1,1.43-3.625,3.418,3.418,0,0,1,2.781-1.156,2.6,2.6,0,0,1,2.168,1,4.426,4.426,0,0,1,.66,2.8q-.023.586-.094,1.148l-.273,1.836a7.463,7.463,0,0,1-1.461,3.758A3.4,3.4,0,0,1,37.961,17.156Zm3.133-7a12.092,12.092,0,0,0,.1-1.469Q41.156,6.7,39.656,6.648a2.053,2.053,0,0,0-1.77.809,5.606,5.606,0,0,0-.941,2.66l-.336,2.266a11.525,11.525,0,0,0-.1,1.477q.039,2.07,1.531,2.125a2.007,2.007,0,0,0,1.715-.766,5.429,5.429,0,0,0,.965-2.578Zm10.93-3.641L45.844,17H44.3L50.445,6.813H44.508L44.7,5.625h7.469Zm7.3-.906L59.2,6.836H58.93a4.137,4.137,0,0,0-2.672.969,6,6,0,0,0-1.719,2.766,3.294,3.294,0,0,1,2.484-1.031,2.57,2.57,0,0,1,1.539.5,2.765,2.765,0,0,1,.941,1.328,4.353,4.353,0,0,1,.207,1.871,4.554,4.554,0,0,1-1.238,2.848,3.4,3.4,0,0,1-2.66,1.074,2.775,2.775,0,0,1-2.078-.93,3.927,3.927,0,0,1-.93-2.406A9.107,9.107,0,0,1,53,11.6a8.049,8.049,0,0,1,2.129-4.453,5.574,5.574,0,0,1,4.043-1.539Zm-2.609,5.125a2.386,2.386,0,0,0-1.422.438,3.076,3.076,0,0,0-1.023,1.156l-.055.523-.016.633a4,4,0,0,0,.2,1.242,1.9,1.9,0,0,0,.578.914,1.413,1.413,0,0,0,.9.32,2,2,0,0,0,1.621-.7A3.357,3.357,0,0,0,58.3,13.3a3.372,3.372,0,0,0-.086-1.289,1.894,1.894,0,0,0-.543-.926A1.441,1.441,0,0,0,56.719,10.734Zm3.875,8.539-.812-.586a5.16,5.16,0,0,0,1.125-2.219l.2-1.18h1.383l-.164,1.055A4.521,4.521,0,0,1,60.594,19.273ZM70.219,12a4.055,4.055,0,0,1-1.227.91A2.873,2.873,0,0,1,67.7,13.2a2.51,2.51,0,0,1-1.535-.508,2.8,2.8,0,0,1-.93-1.352,4.479,4.479,0,0,1-.2-1.875A5.054,5.054,0,0,1,65.672,7.4a3.87,3.87,0,0,1,1.387-1.449,3.4,3.4,0,0,1,1.887-.48,2.682,2.682,0,0,1,2.133.984,4.206,4.206,0,0,1,.836,2.555,10.638,10.638,0,0,1-.2,2.078,7.885,7.885,0,0,1-2.035,4.4,5.523,5.523,0,0,1-3.9,1.527H65.43l.125-1.227h.289A4.246,4.246,0,0,0,68.6,14.85,5.616,5.616,0,0,0,70.219,12ZM68,12a2.257,2.257,0,0,0,1.367-.4,3.4,3.4,0,0,0,1.078-1.168l.063-.57.023-.633a3.661,3.661,0,0,0-.449-1.867,1.412,1.412,0,0,0-1.2-.687,2,2,0,0,0-1.652.746,3.381,3.381,0,0,0-.793,1.965,3.778,3.778,0,0,0,.016.969,2.464,2.464,0,0,0,.281.867A1.412,1.412,0,0,0,68,12Zm12.008,5H72.766l.172-1.1,4.2-4.078.766-.758a4.483,4.483,0,0,0,1.461-2.437,1.807,1.807,0,0,0-.336-1.4,1.58,1.58,0,0,0-1.234-.574,2.328,2.328,0,0,0-1.711.6,2.745,2.745,0,0,0-.836,1.723l-1.4.008a3.956,3.956,0,0,1,.645-1.855,3.59,3.59,0,0,1,1.43-1.242,4.108,4.108,0,0,1,1.926-.41,3.156,3.156,0,0,1,2.246.855A2.535,2.535,0,0,1,80.8,8.461a5.445,5.445,0,0,1-1.727,3.156l-.719.727L74.7,15.82H80.2Z" transform="translate(1098.949 35264.469)" fill="#12263f"/>
    <path id="Trazado_1055959" data-name="Trazado 1055959" d="M20.648,14.016a1.492,1.492,0,0,0-.336-1.172,3.358,3.358,0,0,0-1.4-.879,5.768,5.768,0,0,1-1.574-.855,2.767,2.767,0,0,1-1.047-2.477,3.194,3.194,0,0,1,.926-2.121,3.714,3.714,0,0,1,2.223-1.02l.3-1.711h1.141L20.57,5.516a2.462,2.462,0,0,1,1.723,1.168,4.053,4.053,0,0,1,.449,2.441h-1.4A2.932,2.932,0,0,0,21,7.358a1.378,1.378,0,0,0-1.184-.639,2.048,2.048,0,0,0-1.457.5A2.074,2.074,0,0,0,17.7,8.6a1.587,1.587,0,0,0,.293,1.158,3.328,3.328,0,0,0,1.434.912,6.052,6.052,0,0,1,1.625.891,2.817,2.817,0,0,1,.809,1.066,2.96,2.96,0,0,1,.2,1.375,3.128,3.128,0,0,1-1,2.156,4.027,4.027,0,0,1-2.371.977l-.266,1.492H17.289l.273-1.508a2.754,2.754,0,0,1-1.937-1.1,3.586,3.586,0,0,1-.57-2.367h1.414a2.319,2.319,0,0,0,.371,1.633,1.651,1.651,0,0,0,1.379.625,2.554,2.554,0,0,0,1.66-.5A1.977,1.977,0,0,0,20.648,14.016Zm9.234-.836h1.531l-.211,1.18H29.68L29.219,17H27.8l.461-2.641H23.227l.164-.93,6.25-7.8h1.547Zm-4.8,0h3.375l1.016-5.594-.227.328Zm10.586,3.977a2.567,2.567,0,0,1-2.156-1.02,4.526,4.526,0,0,1-.656-2.848q.016-.578.086-1.141l.281-1.9a7.043,7.043,0,0,1,1.43-3.625,3.418,3.418,0,0,1,2.781-1.156,2.6,2.6,0,0,1,2.168,1,4.426,4.426,0,0,1,.66,2.8q-.023.586-.094,1.148L39.9,12.25a7.463,7.463,0,0,1-1.461,3.758A3.4,3.4,0,0,1,35.672,17.156Zm3.133-7a12.092,12.092,0,0,0,.1-1.469Q38.867,6.7,37.367,6.648a2.053,2.053,0,0,0-1.77.809,5.606,5.606,0,0,0-.941,2.66l-.336,2.266a11.525,11.525,0,0,0-.1,1.477q.039,2.07,1.531,2.125a2.007,2.007,0,0,0,1.715-.766,5.429,5.429,0,0,0,.965-2.578Zm3.258,5.2a.846.846,0,0,1,.633.234.807.807,0,0,1,.242.625.844.844,0,0,1-.258.621.929.929,0,0,1-.625.254.788.788,0,0,1-.859-.828.874.874,0,0,1,.867-.906Zm6.57,1.8a2.567,2.567,0,0,1-2.156-1.02,4.526,4.526,0,0,1-.656-2.848q.016-.578.086-1.141l.281-1.9a7.043,7.043,0,0,1,1.43-3.625A3.418,3.418,0,0,1,50.4,5.469a2.6,2.6,0,0,1,2.168,1,4.426,4.426,0,0,1,.66,2.8q-.023.586-.094,1.148l-.273,1.836A7.463,7.463,0,0,1,51.4,16.008,3.4,3.4,0,0,1,48.633,17.156Zm3.133-7a12.092,12.092,0,0,0,.1-1.469Q51.828,6.7,50.328,6.648a2.053,2.053,0,0,0-1.77.809,5.606,5.606,0,0,0-.941,2.66l-.336,2.266a11.525,11.525,0,0,0-.1,1.477q.039,2.07,1.531,2.125a2.007,2.007,0,0,0,1.715-.766,5.429,5.429,0,0,0,.965-2.578Zm5.664,7a2.567,2.567,0,0,1-2.156-1.02,4.526,4.526,0,0,1-.656-2.848q.016-.578.086-1.141l.281-1.9a7.043,7.043,0,0,1,1.43-3.625A3.418,3.418,0,0,1,59.2,5.469a2.6,2.6,0,0,1,2.168,1,4.426,4.426,0,0,1,.66,2.8q-.023.586-.094,1.148l-.273,1.836A7.463,7.463,0,0,1,60.2,16.008,3.4,3.4,0,0,1,57.43,17.156Zm3.133-7a12.092,12.092,0,0,0,.1-1.469Q60.625,6.7,59.125,6.648a2.053,2.053,0,0,0-1.77.809,5.606,5.606,0,0,0-.941,2.66l-.336,2.266a11.525,11.525,0,0,0-.1,1.477q.039,2.07,1.531,2.125a2.007,2.007,0,0,0,1.715-.766,5.429,5.429,0,0,0,.965-2.578Zm5.664,7a2.567,2.567,0,0,1-2.156-1.02,4.526,4.526,0,0,1-.656-2.848q.016-.578.086-1.141l.281-1.9a7.043,7.043,0,0,1,1.43-3.625,3.418,3.418,0,0,1,2.781-1.156,2.6,2.6,0,0,1,2.168,1,4.426,4.426,0,0,1,.66,2.8q-.023.586-.094,1.148l-.273,1.836a7.463,7.463,0,0,1-1.461,3.758A3.4,3.4,0,0,1,66.227,17.156Zm3.133-7a12.092,12.092,0,0,0,.1-1.469Q69.422,6.7,67.922,6.648a2.053,2.053,0,0,0-1.77.809,5.606,5.606,0,0,0-.941,2.66l-.336,2.266a11.525,11.525,0,0,0-.1,1.477q.039,2.07,1.531,2.125a2.007,2.007,0,0,0,1.715-.766,5.429,5.429,0,0,0,.965-2.578Zm3.258,5.2a.846.846,0,0,1,.633.234.807.807,0,0,1,.242.625.844.844,0,0,1-.258.621.929.929,0,0,1-.625.254.788.788,0,0,1-.859-.828.874.874,0,0,1,.867-.906Zm6.57,1.8a2.567,2.567,0,0,1-2.156-1.02,4.526,4.526,0,0,1-.656-2.848q.016-.578.086-1.141l.281-1.9a7.043,7.043,0,0,1,1.43-3.625,3.418,3.418,0,0,1,2.781-1.156,2.6,2.6,0,0,1,2.168,1,4.426,4.426,0,0,1,.66,2.8q-.023.586-.094,1.148l-.273,1.836a7.463,7.463,0,0,1-1.461,3.758A3.4,3.4,0,0,1,79.188,17.156Zm3.133-7a12.092,12.092,0,0,0,.1-1.469Q82.383,6.7,80.883,6.648a2.053,2.053,0,0,0-1.77.809,5.606,5.606,0,0,0-.941,2.66l-.336,2.266a11.525,11.525,0,0,0-.1,1.477q.039,2.07,1.531,2.125a2.007,2.007,0,0,0,1.715-.766,5.429,5.429,0,0,0,.965-2.578Zm5.664,7a2.567,2.567,0,0,1-2.156-1.02,4.526,4.526,0,0,1-.656-2.848q.016-.578.086-1.141l.281-1.9a7.043,7.043,0,0,1,1.43-3.625A3.418,3.418,0,0,1,89.75,5.469a2.6,2.6,0,0,1,2.168,1,4.426,4.426,0,0,1,.66,2.8q-.023.586-.094,1.148l-.273,1.836a7.463,7.463,0,0,1-1.461,3.758A3.4,3.4,0,0,1,87.984,17.156Zm3.133-7a12.092,12.092,0,0,0,.1-1.469Q91.18,6.7,89.68,6.648a2.053,2.053,0,0,0-1.77.809,5.606,5.606,0,0,0-.941,2.66l-.336,2.266a11.525,11.525,0,0,0-.1,1.477q.039,2.07,1.531,2.125a2.007,2.007,0,0,0,1.715-.766,5.429,5.429,0,0,0,.965-2.578Zm5.664,7a2.567,2.567,0,0,1-2.156-1.02,4.526,4.526,0,0,1-.656-2.848q.016-.578.086-1.141l.281-1.9a7.043,7.043,0,0,1,1.43-3.625,3.418,3.418,0,0,1,2.781-1.156,2.6,2.6,0,0,1,2.168,1,4.426,4.426,0,0,1,.66,2.8q-.023.586-.094,1.148l-.273,1.836a7.463,7.463,0,0,1-1.461,3.758A3.4,3.4,0,0,1,96.781,17.156Zm3.133-7a12.092,12.092,0,0,0,.1-1.469Q99.977,6.7,98.477,6.648a2.053,2.053,0,0,0-1.77.809,5.606,5.606,0,0,0-.941,2.66l-.336,2.266a11.525,11.525,0,0,0-.1,1.477q.039,2.07,1.531,2.125a2.007,2.007,0,0,0,1.715-.766,5.429,5.429,0,0,0,.965-2.578Zm1.906,9.117-.812-.586a5.16,5.16,0,0,0,1.125-2.219l.2-1.18h1.383l-.164,1.055A4.521,4.521,0,0,1,101.82,19.273Zm6.883-2.117a2.567,2.567,0,0,1-2.156-1.02,4.526,4.526,0,0,1-.656-2.848q.016-.578.086-1.141l.281-1.9a7.043,7.043,0,0,1,1.43-3.625,3.418,3.418,0,0,1,2.781-1.156,2.6,2.6,0,0,1,2.168,1,4.426,4.426,0,0,1,.66,2.8q-.023.586-.094,1.148l-.273,1.836a7.463,7.463,0,0,1-1.461,3.758A3.4,3.4,0,0,1,108.7,17.156Zm3.133-7a12.092,12.092,0,0,0,.1-1.469Q111.9,6.7,110.4,6.648a2.053,2.053,0,0,0-1.77.809,5.606,5.606,0,0,0-.941,2.66l-.336,2.266a11.525,11.525,0,0,0-.1,1.477q.039,2.07,1.531,2.125a2.007,2.007,0,0,0,1.715-.766,5.429,5.429,0,0,0,.965-2.578Zm5.664,7a2.567,2.567,0,0,1-2.156-1.02,4.526,4.526,0,0,1-.656-2.848q.016-.578.086-1.141l.281-1.9a7.043,7.043,0,0,1,1.43-3.625,3.418,3.418,0,0,1,2.781-1.156,2.6,2.6,0,0,1,2.168,1,4.426,4.426,0,0,1,.66,2.8q-.023.586-.094,1.148l-.273,1.836a7.463,7.463,0,0,1-1.461,3.758A3.4,3.4,0,0,1,117.5,17.156Zm3.133-7a12.092,12.092,0,0,0,.1-1.469Q120.7,6.7,119.2,6.648a2.053,2.053,0,0,0-1.77.809,5.606,5.606,0,0,0-.941,2.66l-.336,2.266a11.525,11.525,0,0,0-.1,1.477q.039,2.07,1.531,2.125a2.007,2.007,0,0,0,1.715-.766,5.429,5.429,0,0,0,.965-2.578Z" transform="translate(926 35251.398)" fill="#12263f"/>
    <path id="Trazado_1055960" data-name="Trazado 1055960" d="M69.645,17H68.223l1.672-9.594L66.871,8.469l.242-1.375L71.332,5.57h.25Zm7.328-6.391.938.008a2.769,2.769,0,0,0,1.738-.543A2.058,2.058,0,0,0,80.457,8.6a1.814,1.814,0,0,0-.336-1.426,1.613,1.613,0,0,0-1.273-.535,2.175,2.175,0,0,0-1.512.52A2.294,2.294,0,0,0,76.574,8.6l-1.4.008a3.241,3.241,0,0,1,1.2-2.285,3.8,3.8,0,0,1,2.543-.863,3.04,3.04,0,0,1,2.246.895,2.838,2.838,0,0,1,.707,2.277,2.631,2.631,0,0,1-.617,1.469,4.111,4.111,0,0,1-1.516,1.1,2.248,2.248,0,0,1,1.156.988,2.757,2.757,0,0,1,.32,1.582,3.491,3.491,0,0,1-1.223,2.477,3.844,3.844,0,0,1-2.668.906A3.234,3.234,0,0,1,75,16.25a2.874,2.874,0,0,1-.8-2.258L75.605,14a1.9,1.9,0,0,0,.422,1.41,1.8,1.8,0,0,0,1.359.566,2.273,2.273,0,0,0,1.664-.57,2.38,2.38,0,0,0,.758-1.609,1.741,1.741,0,0,0-.422-1.449,2.127,2.127,0,0,0-1.516-.551l-1.086-.008Zm6.828,4.75a.846.846,0,0,1,.633.234.807.807,0,0,1,.242.625.844.844,0,0,1-.258.621.929.929,0,0,1-.625.254.788.788,0,0,1-.859-.828.874.874,0,0,1,.867-.906Zm6.57,1.8a2.567,2.567,0,0,1-2.156-1.02,4.526,4.526,0,0,1-.656-2.848q.016-.578.086-1.141l.281-1.9a7.043,7.043,0,0,1,1.43-3.625,3.418,3.418,0,0,1,2.781-1.156,2.6,2.6,0,0,1,2.168,1,4.426,4.426,0,0,1,.66,2.8q-.023.586-.094,1.148L94.6,12.25a7.463,7.463,0,0,1-1.461,3.758A3.4,3.4,0,0,1,90.371,17.156Zm3.133-7a12.092,12.092,0,0,0,.1-1.469Q93.566,6.7,92.066,6.648a2.053,2.053,0,0,0-1.77.809,5.606,5.606,0,0,0-.941,2.66l-.336,2.266a11.525,11.525,0,0,0-.1,1.477q.039,2.07,1.531,2.125a2.007,2.007,0,0,0,1.715-.766,5.429,5.429,0,0,0,.965-2.578Zm5.664,7a2.567,2.567,0,0,1-2.156-1.02,4.526,4.526,0,0,1-.656-2.848q.016-.578.086-1.141l.281-1.9a7.043,7.043,0,0,1,1.43-3.625,3.418,3.418,0,0,1,2.781-1.156,2.6,2.6,0,0,1,2.168,1,4.426,4.426,0,0,1,.66,2.8q-.023.586-.094,1.148l-.273,1.836a7.463,7.463,0,0,1-1.461,3.758A3.4,3.4,0,0,1,99.168,17.156Zm3.133-7a12.092,12.092,0,0,0,.1-1.469q-.039-1.984-1.539-2.039a2.053,2.053,0,0,0-1.77.809,5.606,5.606,0,0,0-.941,2.66l-.336,2.266a11.525,11.525,0,0,0-.1,1.477q.039,2.07,1.531,2.125a2.007,2.007,0,0,0,1.715-.766,5.429,5.429,0,0,0,.965-2.578Zm5.664,7a2.567,2.567,0,0,1-2.156-1.02,4.526,4.526,0,0,1-.656-2.848q.016-.578.086-1.141l.281-1.9a7.043,7.043,0,0,1,1.43-3.625,3.418,3.418,0,0,1,2.781-1.156,2.6,2.6,0,0,1,2.168,1,4.426,4.426,0,0,1,.66,2.8q-.023.586-.094,1.148l-.273,1.836a7.463,7.463,0,0,1-1.461,3.758A3.4,3.4,0,0,1,107.965,17.156Zm3.133-7a12.092,12.092,0,0,0,.1-1.469Q111.16,6.7,109.66,6.648a2.053,2.053,0,0,0-1.77.809,5.606,5.606,0,0,0-.941,2.66l-.336,2.266a11.525,11.525,0,0,0-.1,1.477q.039,2.07,1.531,2.125a2.007,2.007,0,0,0,1.715-.766,5.429,5.429,0,0,0,.965-2.578Z" transform="translate(906 35278.398)" fill="#12263f"/>
    <path id="Trazado_1053281" data-name="Trazado 1053281" d="M-20.551.572H162.112" transform="translate(923.396 35274.398)" fill="none" stroke="#707070" stroke-width="1"/>
  </g>
</svg>
