<svg xmlns="http://www.w3.org/2000/svg" xmlns:xlink="http://www.w3.org/1999/xlink" width="123" height="123" viewBox="0 0 123 123">
  <defs>
    <filter id="Trazado_1053279" x="0" y="0" width="123" height="123" filterUnits="userSpaceOnUse">
      <feOffset dy="1" input="SourceAlpha"/>
      <feGaussianBlur stdDeviation="3" result="blur"/>
      <feFlood flood-opacity="0.161"/>
      <feComposite operator="in" in2="blur"/>
    </filter>
    <filter id="Trazado_1053279-2" x="0" y="0" width="123" height="123" filterUnits="userSpaceOnUse">
      <feOffset dy="3" input="SourceAlpha"/>
      <feGaussianBlur stdDeviation="3" result="blur-2"/>
      <feFlood flood-opacity="0.161" result="color"/>
      <feComposite operator="out" in="SourceGraphic" in2="blur-2"/>
      <feComposite operator="in" in="color"/>
      <feComposite operator="in" in2="SourceGraphic"/>
    </filter>
    <clipPath id="clip-path">
      <rect id="Rectángulo_407832" data-name="Rectángulo 407832" width="78.114" height="77.371" fill="none"/>
    </clipPath>
    <clipPath id="clip-path-3">
      <rect id="Rectángulo_407828" data-name="Rectángulo 407828" width="77.296" height="76.553" fill="none"/>
    </clipPath>
    <clipPath id="clip-path-4">
      <rect id="Rectángulo_407830" data-name="Rectángulo 407830" width="28.678" height="42.69" fill="none"/>
    </clipPath>
  </defs>
  <g id="Grupo_1180578" data-name="Grupo 1180578" transform="translate(-248.051 -34963)">
    <g data-type="innerShadowGroup">
      <g transform="matrix(1, 0, 0, 1, 248.05, 34963)" filter="url(#Trazado_1053279)">
        <g id="Trazado_1053279-3" data-name="Trazado 1053279" transform="translate(9 8)" fill="#fd9826">
          <path d="M 52.5 103.5 C 45.61438751220703 103.5 38.93552780151367 102.1517715454102 32.64895629882812 99.49278259277344 C 26.57609939575195 96.92418670654297 21.12178611755371 93.24668884277344 16.43755722045898 88.56244659423828 C 11.75331401824951 83.87821197509766 8.075828552246094 78.42391204833984 5.507214069366455 72.35104370117188 C 2.848228454589844 66.06446838378906 1.5 59.38561248779297 1.5 52.5 C 1.5 45.61438751220703 2.848228454589844 38.93552780151367 5.507214069366455 32.64895629882812 C 8.075828552246094 26.57609939575195 11.75331401824951 21.12178611755371 16.43755722045898 16.43755722045898 C 21.12178611755371 11.75331401824951 26.57609939575195 8.075828552246094 32.64895629882812 5.507214069366455 C 38.93552780151367 2.848228454589844 45.61438751220703 1.5 52.5 1.5 C 59.38561248779297 1.5 66.06446838378906 2.848228454589844 72.35104370117188 5.507214069366455 C 78.42391204833984 8.075828552246094 83.87821197509766 11.75331401824951 88.56244659423828 16.43755722045898 C 93.24668884277344 21.12178611755371 96.92418670654297 26.57609939575195 99.49278259277344 32.64895629882812 C 102.1517715454102 38.93552780151367 103.5 45.61438751220703 103.5 52.5 C 103.5 59.38561248779297 102.1517715454102 66.06446838378906 99.49278259277344 72.35104370117188 C 96.92418670654297 78.42391204833984 93.24668884277344 83.87821197509766 88.56244659423828 88.56244659423828 C 83.87821197509766 93.24668884277344 78.42391204833984 96.92418670654297 72.35104370117188 99.49278259277344 C 66.06446838378906 102.1517715454102 59.38561248779297 103.5 52.5 103.5 Z" stroke="none"/>
          <path d="M 52.5 3 C 45.81621551513672 3 39.33396911621094 4.308349609375 33.23328399658203 6.888717651367188 C 27.33921813964844 9.381698608398438 22.04518127441406 12.95124816894531 17.49821472167969 17.49821472167969 C 12.95124816894531 22.04518127441406 9.381698608398438 27.33921813964844 6.888717651367188 33.23328399658203 C 4.308349609375 39.33396911621094 3 45.81621551513672 3 52.5 C 3 59.18378448486328 4.308349609375 65.66603088378906 6.888717651367188 71.76671600341797 C 9.381698608398438 77.66078186035156 12.95124816894531 82.95481872558594 17.49821472167969 87.50178527832031 C 22.04518127441406 92.04875183105469 27.33921813964844 95.61830139160156 33.23328399658203 98.11128234863281 C 39.33396911621094 100.691650390625 45.81621551513672 102 52.5 102 C 59.18378448486328 102 65.66603088378906 100.691650390625 71.76671600341797 98.11128234863281 C 77.66078186035156 95.61830139160156 82.95481872558594 92.04875183105469 87.50178527832031 87.50178527832031 C 92.04875183105469 82.95481872558594 95.61830139160156 77.66078186035156 98.11128234863281 71.76671600341797 C 100.691650390625 65.66603088378906 102 59.18378448486328 102 52.5 C 102 45.81621551513672 100.691650390625 39.33396911621094 98.11128234863281 33.23328399658203 C 95.61830139160156 27.33921813964844 92.04875183105469 22.04518127441406 87.50178527832031 17.49821472167969 C 82.95481872558594 12.95124816894531 77.66078186035156 9.381698608398438 71.76671600341797 6.888717651367188 C 65.66603088378906 4.308349609375 59.18378448486328 3 52.5 3 M 52.5 0 C 81.49494934082031 0 105 23.50505065917969 105 52.5 C 105 81.49494934082031 81.49494934082031 105 52.5 105 C 23.50505065917969 105 0 81.49494934082031 0 52.5 C 0 23.50505065917969 23.50505065917969 0 52.5 0 Z" stroke="none" fill="#fff"/>
        </g>
      </g>
      <g id="Trazado_1053279-4" data-name="Trazado 1053279" transform="translate(257.051 34971)" fill="#fd9826">
        <path d="M 52.5 103.5 C 45.61438751220703 103.5 38.93552780151367 102.1517715454102 32.64895629882812 99.49278259277344 C 26.57609939575195 96.92418670654297 21.12178611755371 93.24668884277344 16.43755722045898 88.56244659423828 C 11.75331401824951 83.87821197509766 8.075828552246094 78.42391204833984 5.507214069366455 72.35104370117188 C 2.848228454589844 66.06446838378906 1.5 59.38561248779297 1.5 52.5 C 1.5 45.61438751220703 2.848228454589844 38.93552780151367 5.507214069366455 32.64895629882812 C 8.075828552246094 26.57609939575195 11.75331401824951 21.12178611755371 16.43755722045898 16.43755722045898 C 21.12178611755371 11.75331401824951 26.57609939575195 8.075828552246094 32.64895629882812 5.507214069366455 C 38.93552780151367 2.848228454589844 45.61438751220703 1.5 52.5 1.5 C 59.38561248779297 1.5 66.06446838378906 2.848228454589844 72.35104370117188 5.507214069366455 C 78.42391204833984 8.075828552246094 83.87821197509766 11.75331401824951 88.56244659423828 16.43755722045898 C 93.24668884277344 21.12178611755371 96.92418670654297 26.57609939575195 99.49278259277344 32.64895629882812 C 102.1517715454102 38.93552780151367 103.5 45.61438751220703 103.5 52.5 C 103.5 59.38561248779297 102.1517715454102 66.06446838378906 99.49278259277344 72.35104370117188 C 96.92418670654297 78.42391204833984 93.24668884277344 83.87821197509766 88.56244659423828 88.56244659423828 C 83.87821197509766 93.24668884277344 78.42391204833984 96.92418670654297 72.35104370117188 99.49278259277344 C 66.06446838378906 102.1517715454102 59.38561248779297 103.5 52.5 103.5 Z" stroke="none"/>
        <path d="M 52.5 3 C 45.81621551513672 3 39.33396911621094 4.308349609375 33.23328399658203 6.888717651367188 C 27.33921813964844 9.381698608398438 22.04518127441406 12.95124816894531 17.49821472167969 17.49821472167969 C 12.95124816894531 22.04518127441406 9.381698608398438 27.33921813964844 6.888717651367188 33.23328399658203 C 4.308349609375 39.33396911621094 3 45.81621551513672 3 52.5 C 3 59.18378448486328 4.308349609375 65.66603088378906 6.888717651367188 71.76671600341797 C 9.381698608398438 77.66078186035156 12.95124816894531 82.95481872558594 17.49821472167969 87.50178527832031 C 22.04518127441406 92.04875183105469 27.33921813964844 95.61830139160156 33.23328399658203 98.11128234863281 C 39.33396911621094 100.691650390625 45.81621551513672 102 52.5 102 C 59.18378448486328 102 65.66603088378906 100.691650390625 71.76671600341797 98.11128234863281 C 77.66078186035156 95.61830139160156 82.95481872558594 92.04875183105469 87.50178527832031 87.50178527832031 C 92.04875183105469 82.95481872558594 95.61830139160156 77.66078186035156 98.11128234863281 71.76671600341797 C 100.691650390625 65.66603088378906 102 59.18378448486328 102 52.5 C 102 45.81621551513672 100.691650390625 39.33396911621094 98.11128234863281 33.23328399658203 C 95.61830139160156 27.33921813964844 92.04875183105469 22.04518127441406 87.50178527832031 17.49821472167969 C 82.95481872558594 12.95124816894531 77.66078186035156 9.381698608398438 71.76671600341797 6.888717651367188 C 65.66603088378906 4.308349609375 59.18378448486328 3 52.5 3 M 52.5 0 C 81.49494934082031 0 105 23.50505065917969 105 52.5 C 105 81.49494934082031 81.49494934082031 105 52.5 105 C 23.50505065917969 105 0 81.49494934082031 0 52.5 C 0 23.50505065917969 23.50505065917969 0 52.5 0 Z" stroke="none"/>
      </g>
      <g transform="matrix(1, 0, 0, 1, 248.05, 34963)" filter="url(#Trazado_1053279-2)">
        <g id="Trazado_1053279-5" data-name="Trazado 1053279" transform="translate(9 8)" fill="#fff">
          <path d="M 52.5 103.5 C 45.61438751220703 103.5 38.93552780151367 102.1517715454102 32.64895629882812 99.49278259277344 C 26.57609939575195 96.92418670654297 21.12178611755371 93.24668884277344 16.43755722045898 88.56244659423828 C 11.75331401824951 83.87821197509766 8.075828552246094 78.42391204833984 5.507214069366455 72.35104370117188 C 2.848228454589844 66.06446838378906 1.5 59.38561248779297 1.5 52.5 C 1.5 45.61438751220703 2.848228454589844 38.93552780151367 5.507214069366455 32.64895629882812 C 8.075828552246094 26.57609939575195 11.75331401824951 21.12178611755371 16.43755722045898 16.43755722045898 C 21.12178611755371 11.75331401824951 26.57609939575195 8.075828552246094 32.64895629882812 5.507214069366455 C 38.93552780151367 2.848228454589844 45.61438751220703 1.5 52.5 1.5 C 59.38561248779297 1.5 66.06446838378906 2.848228454589844 72.35104370117188 5.507214069366455 C 78.42391204833984 8.075828552246094 83.87821197509766 11.75331401824951 88.56244659423828 16.43755722045898 C 93.24668884277344 21.12178611755371 96.92418670654297 26.57609939575195 99.49278259277344 32.64895629882812 C 102.1517715454102 38.93552780151367 103.5 45.61438751220703 103.5 52.5 C 103.5 59.38561248779297 102.1517715454102 66.06446838378906 99.49278259277344 72.35104370117188 C 96.92418670654297 78.42391204833984 93.24668884277344 83.87821197509766 88.56244659423828 88.56244659423828 C 83.87821197509766 93.24668884277344 78.42391204833984 96.92418670654297 72.35104370117188 99.49278259277344 C 66.06446838378906 102.1517715454102 59.38561248779297 103.5 52.5 103.5 Z" stroke="none"/>
          <path d="M 52.5 3 C 45.81621551513672 3 39.33396911621094 4.308349609375 33.23328399658203 6.888717651367188 C 27.33921813964844 9.381698608398438 22.04518127441406 12.95124816894531 17.49821472167969 17.49821472167969 C 12.95124816894531 22.04518127441406 9.381698608398438 27.33921813964844 6.888717651367188 33.23328399658203 C 4.308349609375 39.33396911621094 3 45.81621551513672 3 52.5 C 3 59.18378448486328 4.308349609375 65.66603088378906 6.888717651367188 71.76671600341797 C 9.381698608398438 77.66078186035156 12.95124816894531 82.95481872558594 17.49821472167969 87.50178527832031 C 22.04518127441406 92.04875183105469 27.33921813964844 95.61830139160156 33.23328399658203 98.11128234863281 C 39.33396911621094 100.691650390625 45.81621551513672 102 52.5 102 C 59.18378448486328 102 65.66603088378906 100.691650390625 71.76671600341797 98.11128234863281 C 77.66078186035156 95.61830139160156 82.95481872558594 92.04875183105469 87.50178527832031 87.50178527832031 C 92.04875183105469 82.95481872558594 95.61830139160156 77.66078186035156 98.11128234863281 71.76671600341797 C 100.691650390625 65.66603088378906 102 59.18378448486328 102 52.5 C 102 45.81621551513672 100.691650390625 39.33396911621094 98.11128234863281 33.23328399658203 C 95.61830139160156 27.33921813964844 92.04875183105469 22.04518127441406 87.50178527832031 17.49821472167969 C 82.95481872558594 12.95124816894531 77.66078186035156 9.381698608398438 71.76671600341797 6.888717651367188 C 65.66603088378906 4.308349609375 59.18378448486328 3 52.5 3 M 52.5 0 C 81.49494934082031 0 105 23.50505065917969 105 52.5 C 105 81.49494934082031 81.49494934082031 105 52.5 105 C 23.50505065917969 105 0 81.49494934082031 0 52.5 C 0 23.50505065917969 23.50505065917969 0 52.5 0 Z" stroke="none"/>
        </g>
      </g>
      <g id="Trazado_1053279-6" data-name="Trazado 1053279" transform="translate(257.051 34971)" fill="none">
        <path d="M 52.5 103.5 C 45.61438751220703 103.5 38.93552780151367 102.1517715454102 32.64895629882812 99.49278259277344 C 26.57609939575195 96.92418670654297 21.12178611755371 93.24668884277344 16.43755722045898 88.56244659423828 C 11.75331401824951 83.87821197509766 8.075828552246094 78.42391204833984 5.507214069366455 72.35104370117188 C 2.848228454589844 66.06446838378906 1.5 59.38561248779297 1.5 52.5 C 1.5 45.61438751220703 2.848228454589844 38.93552780151367 5.507214069366455 32.64895629882812 C 8.075828552246094 26.57609939575195 11.75331401824951 21.12178611755371 16.43755722045898 16.43755722045898 C 21.12178611755371 11.75331401824951 26.57609939575195 8.075828552246094 32.64895629882812 5.507214069366455 C 38.93552780151367 2.848228454589844 45.61438751220703 1.5 52.5 1.5 C 59.38561248779297 1.5 66.06446838378906 2.848228454589844 72.35104370117188 5.507214069366455 C 78.42391204833984 8.075828552246094 83.87821197509766 11.75331401824951 88.56244659423828 16.43755722045898 C 93.24668884277344 21.12178611755371 96.92418670654297 26.57609939575195 99.49278259277344 32.64895629882812 C 102.1517715454102 38.93552780151367 103.5 45.61438751220703 103.5 52.5 C 103.5 59.38561248779297 102.1517715454102 66.06446838378906 99.49278259277344 72.35104370117188 C 96.92418670654297 78.42391204833984 93.24668884277344 83.87821197509766 88.56244659423828 88.56244659423828 C 83.87821197509766 93.24668884277344 78.42391204833984 96.92418670654297 72.35104370117188 99.49278259277344 C 66.06446838378906 102.1517715454102 59.38561248779297 103.5 52.5 103.5 Z" stroke="none"/>
        <path d="M 52.5 3 C 45.81621551513672 3 39.33396911621094 4.308349609375 33.23328399658203 6.888717651367188 C 27.33921813964844 9.381698608398438 22.04518127441406 12.95124816894531 17.49821472167969 17.49821472167969 C 12.95124816894531 22.04518127441406 9.381698608398438 27.33921813964844 6.888717651367188 33.23328399658203 C 4.308349609375 39.33396911621094 3 45.81621551513672 3 52.5 C 3 59.18378448486328 4.308349609375 65.66603088378906 6.888717651367188 71.76671600341797 C 9.381698608398438 77.66078186035156 12.95124816894531 82.95481872558594 17.49821472167969 87.50178527832031 C 22.04518127441406 92.04875183105469 27.33921813964844 95.61830139160156 33.23328399658203 98.11128234863281 C 39.33396911621094 100.691650390625 45.81621551513672 102 52.5 102 C 59.18378448486328 102 65.66603088378906 100.691650390625 71.76671600341797 98.11128234863281 C 77.66078186035156 95.61830139160156 82.95481872558594 92.04875183105469 87.50178527832031 87.50178527832031 C 92.04875183105469 82.95481872558594 95.61830139160156 77.66078186035156 98.11128234863281 71.76671600341797 C 100.691650390625 65.66603088378906 102 59.18378448486328 102 52.5 C 102 45.81621551513672 100.691650390625 39.33396911621094 98.11128234863281 33.23328399658203 C 95.61830139160156 27.33921813964844 92.04875183105469 22.04518127441406 87.50178527832031 17.49821472167969 C 82.95481872558594 12.95124816894531 77.66078186035156 9.381698608398438 71.76671600341797 6.888717651367188 C 65.66603088378906 4.308349609375 59.18378448486328 3 52.5 3 M 52.5 0 C 81.49494934082031 0 105 23.50505065917969 105 52.5 C 105 81.49494934082031 81.49494934082031 105 52.5 105 C 23.50505065917969 105 0 81.49494934082031 0 52.5 C 0 23.50505065917969 23.50505065917969 0 52.5 0 Z" stroke="none" fill="#fff"/>
      </g>
    </g>
    <g id="Grupo_1180698" data-name="Grupo 1180698" transform="translate(270.494 34984.813)">
      <g id="Grupo_1180697" data-name="Grupo 1180697" clip-path="url(#clip-path)">
        <g id="Grupo_1180696" data-name="Grupo 1180696" transform="translate(0 0)">
          <g id="Grupo_1180695" data-name="Grupo 1180695" clip-path="url(#clip-path)">
            <g id="Grupo_1180691" data-name="Grupo 1180691" transform="translate(0.818 0.817)" opacity="0.7" style="mix-blend-mode: multiply;isolation: isolate">
              <g id="Grupo_1180690" data-name="Grupo 1180690">
                <g id="Grupo_1180689" data-name="Grupo 1180689" clip-path="url(#clip-path-3)">
                  <path id="Trazado_1053615" data-name="Trazado 1053615" d="M71.091.526H48.347a6.738,6.738,0,0,0-6.731,6.731V13.52a7.163,7.163,0,0,0-1.745-.222l-2.711,0c-.031,0-.061,0-.092,0l-24.192.04a7.039,7.039,0,0,0-4.886,1.954,6.678,6.678,0,0,0-2.1,4.88l.022,14.614a6.381,6.381,0,0,0-3.7,5.309,6.583,6.583,0,0,0,.406,2.859,6.218,6.218,0,0,0-1.2,7.861,6.444,6.444,0,0,0,.563,7.046A6.118,6.118,0,0,0,3.62,59.307c-.014.109-.033.218-.04.328A6.346,6.346,0,0,0,5.01,64.247a5.738,5.738,0,0,0,.947.88l.008,5.136a6.925,6.925,0,0,0,7,6.816h.009l2.707,0c.03,0,.058,0,.087,0h.009l24.2-.039a7.052,7.052,0,0,0,4.886-1.957,6.834,6.834,0,0,0,1.457-2.025c.193.009.381.016.558.016.21,0,.408-.006.593-.017a26.708,26.708,0,0,0,6.363-1.887l2.638.232a3.261,3.261,0,0,0,2.971,3.081l7.5.644c.093.008.187.012.28.012A3.271,3.271,0,0,0,70.486,72l.968-24.654a3.273,3.273,0,0,0-3.221-3.4l-7.771-.115a3.265,3.265,0,0,0-2.92,1.815l-.865-.062-.521-2.221a3.344,3.344,0,0,0-.3-.793c-.173-.322-4.214-7.886-4.817-8.98a3.24,3.24,0,0,0-.356-.509,5.986,5.986,0,0,0,1.641.261,3.855,3.855,0,0,0,2.005-.532l6.006-3.573,2.22-1.319,1.9-1.126h6.64a6.741,6.741,0,0,0,6.731-6.735V7.257A6.738,6.738,0,0,0,71.091.526M47.3,29.378a3.58,3.58,0,0,0,.621,1.991l-1.02-.516-.006-4.231a6.679,6.679,0,0,0,1.036.154l-.078.23-.33.985a4.254,4.254,0,0,0-.187.834l-.016.089c-.006.064,0,.128-.008.191-.006.089-.014.177-.012.266v.008" transform="translate(-0.526 -0.526)" fill="gray"/>
                </g>
              </g>
            </g>
            <path id="Trazado_1053616" data-name="Trazado 1053616" d="M70.565,0H47.821a6.738,6.738,0,0,0-6.731,6.731v6.264a7.163,7.163,0,0,0-1.745-.222l-2.711,0c-.031,0-.061,0-.092,0l-24.192.04a7.039,7.039,0,0,0-4.886,1.954,6.678,6.678,0,0,0-2.1,4.88l.022,14.614a6.381,6.381,0,0,0-3.7,5.309A6.583,6.583,0,0,0,2.1,42.427a6.218,6.218,0,0,0-1.2,7.861,6.444,6.444,0,0,0,.563,7.046,6.118,6.118,0,0,0,1.639,1.447c-.014.109-.033.218-.04.328a6.351,6.351,0,0,0,1.431,4.612,5.738,5.738,0,0,0,.947.88l.008,5.136a6.924,6.924,0,0,0,7,6.816h.009l2.707,0c.03,0,.058,0,.087,0h.009l24.2-.039a7.052,7.052,0,0,0,4.886-1.957,6.807,6.807,0,0,0,1.457-2.025c.193.009.381.016.558.016.21,0,.408-.006.593-.017a26.708,26.708,0,0,0,6.363-1.887l2.638.232a3.263,3.263,0,0,0,2.971,3.081l7.5.644c.093.008.187.012.28.012a3.271,3.271,0,0,0,3.27-3.144l.967-24.654a3.273,3.273,0,0,0-3.221-3.4L59.935,43.3a3.265,3.265,0,0,0-2.92,1.815l-.865-.062-.521-2.221a3.344,3.344,0,0,0-.3-.793c-.173-.322-4.214-7.886-4.817-8.98a3.24,3.24,0,0,0-.356-.509,5.986,5.986,0,0,0,1.641.261,3.855,3.855,0,0,0,2.005-.532l6.006-3.573,2.22-1.319,1.9-1.126h6.639A6.741,6.741,0,0,0,77.3,19.527V6.731A6.738,6.738,0,0,0,70.565,0M46.773,28.852a3.58,3.58,0,0,0,.621,1.991l-1.02-.516L46.367,26.1a6.679,6.679,0,0,0,1.036.154l-.078.232-.33.983a4.254,4.254,0,0,0-.187.834c0,.03-.011.059-.014.089-.008.064-.006.128-.009.191,0,.089-.014.177-.012.266v.008" transform="translate(0 0)" fill="#fff"/>
            <path id="Trazado_1053617" data-name="Trazado 1053617" d="M19.69,31.316a2.9,2.9,0,0,0,2.955-2.8,2.886,2.886,0,0,0-2.459-3.245L6.142,23.814a2.888,2.888,0,0,0-2.955,2.8,2.886,2.886,0,0,0,2.458,3.248Z" transform="translate(1.763 13.223)" fill="#eac3a4"/>
            <path id="Trazado_1053618" data-name="Trazado 1053618" d="M19.722,35.891a3.036,3.036,0,1,0,.5-6.049L5.459,28.333a3.036,3.036,0,1,0-.5,6.051Z" transform="translate(1.168 15.732)" fill="#eac3a4"/>
            <path id="Trazado_1053619" data-name="Trazado 1053619" d="M18.959,39.865a3.044,3.044,0,0,0,.5-6.049L5.231,32.35a3.044,3.044,0,0,0-.5,6.051Z" transform="translate(1.204 17.964)" fill="#eac3a4"/>
            <path id="Trazado_1053620" data-name="Trazado 1053620" d="M19.515,43.494a2.61,2.61,0,0,0,2.556-2.612,2.609,2.609,0,0,0-2.1-2.991L6.617,36.5a2.606,2.606,0,0,0-2.554,2.61A2.6,2.6,0,0,0,6.157,42.1Z" transform="translate(2.251 20.269)" fill="#eac3a4"/>
            <path id="Trazado_1053621" data-name="Trazado 1053621" d="M50.719,52.972l-9.235-.806s-4.469,1.854-6.054,1.947c-3.652.215-14.355-2.8-14.355-2.8l-.7-24.032,23.3,5.819,6.693.487Z" transform="translate(11.32 15.152)" fill="#eac3a4"/>
            <path id="Trazado_1053622" data-name="Trazado 1053622" d="M39,13.865a3.658,3.658,0,0,0-3.735-3.55l-12.092.019-12.1.02a3.655,3.655,0,0,0-3.724,3.559L7.43,64a3.654,3.654,0,0,0,3.735,3.55l12.092-.019,12.1-.02a3.652,3.652,0,0,0,3.719-3.56Z" transform="translate(4.083 5.729)" fill="#4270a3"/>
            <path id="Trazado_1053623" data-name="Trazado 1053623" d="M37.2,13.865a3.658,3.658,0,0,0-3.735-3.55l-12.092.019-12.1.02a3.653,3.653,0,0,0-3.721,3.559L5.627,64a3.657,3.657,0,0,0,3.735,3.55l12.094-.019,12.1-.02a3.653,3.653,0,0,0,3.721-3.56Z" transform="translate(3.083 5.729)" fill="#5794d9"/>
            <path id="Trazado_1053624" data-name="Trazado 1053624" d="M35.177,15.394a1.464,1.464,0,0,0-1.492-1.423l-12.837.022L8,14.011a1.463,1.463,0,0,0-1.485,1.426l.062,39.818a1.461,1.461,0,0,0,1.489,1.419l12.845-.02,12.842-.02a1.46,1.46,0,0,0,1.49-1.423Z" transform="translate(3.618 7.76)" fill="#fff"/>
            <rect id="Rectángulo_407829" data-name="Rectángulo 407829" width="26.549" height="14.25" transform="translate(11.134 24.66)" fill="#e1e1e1"/>
            <path id="Trazado_1053625" data-name="Trazado 1053625" d="M11.792,17.067a3.216,3.216,0,0,1,1.457.221v.834a7.741,7.741,0,0,0-1.126-.095c-.464,0-.656-.022-.656,1.106,0,.905.1,1.093.663,1.093.579,0,1.12-.051,1.12-.051v.834a3.208,3.208,0,0,1-1.457.177c-1.02-.017-1.4-.708-1.4-2.066,0-1.291.3-2.053,1.4-2.053" transform="translate(5.774 9.48)" fill="#153152"/>
            <path id="Trazado_1053626" data-name="Trazado 1053626" d="M12.457,17.1h1.07V18.7h.94V17.1h1.072v4.041H14.466V19.663h-.94v1.473h-1.07Z" transform="translate(6.919 9.495)" fill="#153152"/>
            <path id="Trazado_1053627" data-name="Trazado 1053627" d="M14.7,18.033c0-.832.636-.938,1.027-.938a17.792,17.792,0,0,1,1.806.089v.9H16.054c-.288,0-.288.16-.288.31v.243l1.485.061v.89l-1.485.05v.243c0,.292.184.286.344.286h1.419v.9c-.569.076-1.75.093-1.75.093-.358.011-1.083-.061-1.083-.905Z" transform="translate(8.163 9.495)" fill="#153152"/>
            <path id="Trazado_1053628" data-name="Trazado 1053628" d="M18.073,17.067a3.216,3.216,0,0,1,1.457.221v.834a7.8,7.8,0,0,0-1.126-.095c-.464,0-.656-.022-.656,1.106,0,.905.1,1.093.661,1.093.58,0,1.121-.051,1.121-.051v.834a3.212,3.212,0,0,1-1.457.177c-1.022-.017-1.4-.708-1.4-2.066,0-1.291.3-2.053,1.4-2.053" transform="translate(9.263 9.48)" fill="#153152"/>
            <path id="Trazado_1053629" data-name="Trazado 1053629" d="M18.738,17.1h1.016v1.59h.221L20.8,17.1h1.232l-1.111,2.031,1.111,2.01H20.8l-.823-1.546H19.76v1.546H18.738Z" transform="translate(10.408 9.495)" fill="#153152"/>
            <path id="Trazado_1053630" data-name="Trazado 1053630" d="M8.062,21.354H9.818c.86,0,1.213.42,1.213,1.1,0,.342-.193.806-.59.838a.85.85,0,0,1,.691.862c0,.905-.437,1.237-1.288,1.237H8.062Zm1.674,1.5a.25.25,0,0,0,.247-.282c0-.243-.128-.314-.247-.314h-.6v.6ZM9.79,24.49c.21,0,.271-.143.271-.387,0-.2-.056-.4-.271-.4H9.132v.784Z" transform="translate(4.478 11.861)" fill="#153152"/>
            <path id="Trazado_1053631" data-name="Trazado 1053631" d="M11.318,21.354h1.263L13.806,25.4h-1.1l-.238-.706H11.383l-.232.706h-1.1Zm.938,2.423L11.963,22.7l-.336,1.081Z" transform="translate(5.584 11.861)" fill="#153152"/>
            <path id="Trazado_1053632" data-name="Trazado 1053632" d="M12.647,21.354h1.072v2.794c0,.292.182.288.342.288H15.2v.96H13.563a.808.808,0,0,1-.916-.86Z" transform="translate(7.025 11.861)" fill="#153152"/>
            <path id="Trazado_1053633" data-name="Trazado 1053633" d="M15.708,21.354h1.263L18.2,25.4H17.1l-.238-.706H15.773l-.232.706h-1.1Zm.938,2.423L16.353,22.7l-.338,1.081Z" transform="translate(8.023 11.861)" fill="#153152"/>
            <path id="Trazado_1053634" data-name="Trazado 1053634" d="M17.037,21.354h1.083l1.153,2.066V21.354h1.072v4.041H19.272l-1.159-2.01v2.01H17.037Z" transform="translate(9.463 11.861)" fill="#153152"/>
            <path id="Trazado_1053635" data-name="Trazado 1053635" d="M20.787,21.326a3.216,3.216,0,0,1,1.457.221v.834a7.8,7.8,0,0,0-1.126-.095c-.465,0-.656-.022-.656,1.106,0,.905.1,1.092.661,1.092.58,0,1.121-.05,1.121-.05v.834a3.212,3.212,0,0,1-1.457.177c-1.022-.017-1.4-.708-1.4-2.066,0-1.291.3-2.053,1.4-2.053" transform="translate(10.771 11.845)" fill="#153152"/>
            <path id="Trazado_1053636" data-name="Trazado 1053636" d="M21.434,22.292c0-.832.635-.938,1.027-.938a17.751,17.751,0,0,1,1.8.089v.9H22.79c-.286,0-.286.16-.286.31v.243l1.484.061v.888l-1.484.051v.243c0,.292.184.286.342.286h1.419v.9c-.568.076-1.751.093-1.751.093-.356.011-1.079-.061-1.079-.905Z" transform="translate(11.906 11.861)" fill="#153152"/>
            <path id="Trazado_1053637" data-name="Trazado 1053637" d="M20.339,43.568a2.149,2.149,0,0,0-1.493-.588l-1.717,0H15.412a2.189,2.189,0,0,0-.8.152A2.015,2.015,0,0,0,13.3,45.005a2.073,2.073,0,0,0,2.12,2.013l1.714,0,1.716,0a2.134,2.134,0,0,0,.8-.152,2.009,2.009,0,0,0,1.308-1.868,1.948,1.948,0,0,0-.622-1.423" transform="translate(7.388 23.874)" fill="#153152"/>
            <path id="Trazado_1053638" data-name="Trazado 1053638" d="M20.79,11.854l-3.52.006-3.525,0a.792.792,0,1,0,0,1.582l3.522-.006,3.522,0a.793.793,0,1,0,0-1.583" transform="translate(7.177 6.584)" fill="#e1e1e1"/>
            <path id="Trazado_1053639" data-name="Trazado 1053639" d="M46.518,30.056,38.8,29.941l-.361,11.727-.3,9.737-.082,2.661,7.494.646Z" transform="translate(21.139 16.631)" fill="#e87152"/>
            <path id="Trazado_1053640" data-name="Trazado 1053640" d="M23.965,12.627a.73.73,0,1,0-.728.731.731.731,0,0,0,.728-.731" transform="translate(12.501 6.606)" fill="#e1e1e1"/>
            <path id="Trazado_1053641" data-name="Trazado 1053641" d="M33.475,2.1a3.47,3.47,0,0,0-3.458,3.459v12.8a3.471,3.471,0,0,0,3.458,3.462H37.6L35.75,27.333c-.18.54.072.745.563.453l7.371-4.377V2.1Z" transform="translate(16.674 1.168)" fill="#e1e1e1"/>
            <path id="Trazado_1053642" data-name="Trazado 1053642" d="M42.431,14.3v2.339l-8.224,4.894c-.49.292-1.938-.4-1.938-.4Z" transform="translate(17.924 7.941)" fill="#f59407"/>
            <path id="Trazado_1053643" data-name="Trazado 1053643" d="M49.011,2.1H38.8V23.408l2.346-1.394a1.019,1.019,0,0,0,.24-.191h7.622a3.47,3.47,0,0,0,3.459-3.462V5.562A3.468,3.468,0,0,0,49.011,2.1" transform="translate(21.554 1.168)" fill="#f59407"/>
            <path id="Trazado_1053644" data-name="Trazado 1053644" d="M31.979,2.1a3.47,3.47,0,0,0-3.458,3.459v12.8a3.471,3.471,0,0,0,3.458,3.462h4.127l-1.849,5.509c-.18.54.072.745.563.453l7.371-4.377V2.1Z" transform="translate(15.843 1.168)" fill="#ffce3b"/>
            <path id="Trazado_1053645" data-name="Trazado 1053645" d="M40.161,14.3v2.339l-7.37,4.379c-.492.292-.744.086-.563-.456l.652-1.94Z" transform="translate(17.869 7.941)" fill="#ffce3b"/>
            <path id="Trazado_1053646" data-name="Trazado 1053646" d="M47.517,2.1H37.308V23.408l2.346-1.394a.988.988,0,0,0,.24-.191h7.623a3.472,3.472,0,0,0,3.459-3.462V5.562A3.47,3.47,0,0,0,47.517,2.1" transform="translate(20.723 1.168)" fill="#ffce3b"/>
            <path id="Trazado_1053647" data-name="Trazado 1053647" d="M30.791,12.818h3.257c.758,0,.8-.44.8-.75v-.6c0-.392-.095-.751-.7-.751H33.3a.557.557,0,0,0-.636.622H30.8L31.066,5.9h5.382V7.668H32.955L32.885,9.3a1.659,1.659,0,0,1,.8-.266,8.591,8.591,0,0,1,1.123,0,2,2,0,0,1,1.986,2.243V12.45a2.115,2.115,0,0,1-2.3,2.2,17.651,17.651,0,0,1-3.7-.283Z" transform="translate(17.103 3.274)" fill="#153152"/>
            <path id="Trazado_1053648" data-name="Trazado 1053648" d="M35.3,8.18A2.059,2.059,0,0,1,37.543,5.9h1.949A1.934,1.934,0,0,1,41.64,8.09v4.32A1.973,1.973,0,0,1,39.486,14.6H37.534A2,2,0,0,1,35.3,12.409Zm2.75,4.651h.863c.484,0,.775-.137.775-.779v-3.6c0-.548-.243-.779-.7-.779h-.992a.689.689,0,0,0-.74.779v3.595a.7.7,0,0,0,.8.789" transform="translate(19.608 3.274)" fill="#153152"/>
            <path id="Trazado_1053649" data-name="Trazado 1053649" d="M40.09,8.18A2.059,2.059,0,0,1,42.33,5.9H44.28A1.934,1.934,0,0,1,46.427,8.09v4.32A1.973,1.973,0,0,1,44.271,14.6H42.322a2,2,0,0,1-2.232-2.193Zm2.749,4.651H43.7c.482,0,.775-.137.775-.779v-3.6c0-.548-.243-.779-.7-.779h-1a.688.688,0,0,0-.737.779v3.595a.7.7,0,0,0,.8.789" transform="translate(22.269 3.274)" fill="#153152"/>
            <path id="Trazado_1053650" data-name="Trazado 1053650" d="M10.066,36.679a9.79,9.79,0,0,0,9.79,9.79V26.889a9.788,9.788,0,0,0-9.79,9.79" transform="translate(5.591 14.936)" fill="#eda73f"/>
            <path id="Trazado_1053651" data-name="Trazado 1053651" d="M26.147,36.679a9.791,9.791,0,0,1-7.936,9.614,9.957,9.957,0,0,1-1.851.176V26.889c.219,0,.44.011.66.023a9.786,9.786,0,0,1,9.127,9.767" transform="translate(9.087 14.936)" fill="#eda73f"/>
            <path id="Trazado_1053652" data-name="Trazado 1053652" d="M18.634,26.889a9.79,9.79,0,1,0,9.789,9.79,9.789,9.789,0,0,0-9.789-9.79" transform="translate(4.913 14.936)" fill="#ffce3b"/>
            <path id="Trazado_1053653" data-name="Trazado 1053653" d="M9.9,36.091a8.144,8.144,0,0,0,8.143,8.143V27.948A8.145,8.145,0,0,0,9.9,36.091" transform="translate(5.501 15.524)" fill="#eda73f"/>
            <path id="Trazado_1053654" data-name="Trazado 1053654" d="M15.138,27.948V44.232a8.142,8.142,0,1,0,0-16.284" transform="translate(8.409 15.524)" fill="#f59407"/>
            <path id="Trazado_1053655" data-name="Trazado 1053655" d="M17.605,42.558a6.908,6.908,0,1,1,6.908-6.908,6.916,6.916,0,0,1-6.908,6.908m0-13.509a6.6,6.6,0,1,0,6.6,6.6,6.606,6.606,0,0,0-6.6-6.6" transform="translate(5.941 15.965)" fill="#ffce3b"/>
            <path id="Trazado_1053656" data-name="Trazado 1053656" d="M13.215,32.99c.014-1.739,1.089-2.3,2.423-2.33l0-1.044,1.157.006,0,1.053a8.125,8.125,0,0,1,2.106.373L18.894,32.6c-.731-.068-2.036-.129-2.637-.131-.7-.012-1.05.042-1.053.712l0,.3c0,.526.216.737.857.737l.975.006A2.157,2.157,0,0,1,19.2,36.686l0,.509c-.009,2.064-1.24,2.529-2.447,2.521l-.006,1-1.159,0L15.6,39.7a6.272,6.272,0,0,1-2.133-.381l.008-1.54c.487.039,1.68.126,2.811.131.515,0,.927-.115.93-.639l0-.353c0-.437-.132-.7-.73-.7l-.941,0a2.2,2.2,0,0,1-2.33-2.465Z" transform="translate(7.339 16.45)" fill="#ffce3b"/>
            <g id="Grupo_1180694" data-name="Grupo 1180694" transform="translate(10.143 21.744)" opacity="0.4" style="mix-blend-mode: screen;isolation: isolate">
              <g id="Grupo_1180693" data-name="Grupo 1180693">
                <g id="Grupo_1180692" data-name="Grupo 1180692" clip-path="url(#clip-path-4)">
                  <path id="Trazado_1053657" data-name="Trazado 1053657" d="M20.843,13.987l-5.912.008-8.41,8.414.016,10.347L25.309,13.979Z" transform="translate(-6.521 -13.98)" fill="#fefefe"/>
                  <path id="Trazado_1053658" data-name="Trazado 1053658" d="M35.162,15.677,6.543,44.3l.016,10.013a1.461,1.461,0,0,0,1.489,1.419l2.164,0L35.185,30.748Z" transform="translate(-6.508 -13.037)" fill="#fefefe"/>
                </g>
              </g>
            </g>
            <path id="Trazado_1053659" data-name="Trazado 1053659" d="M35.318,24.378,24.524,18.913s-1.56-1.061-2.094.121a5.342,5.342,0,0,0,2.982,6.395c1.157.607,4.67,2.915,4.67,2.915s.151,7,2.12,10.476l9.062-.6-1.151-4.9s-4.2-7.854-4.8-8.941" transform="translate(12.332 10.262)" fill="#eac3a4"/>
          </g>
        </g>
      </g>
    </g>
  </g>
</svg>
