<svg xmlns="http://www.w3.org/2000/svg" width="400" height="69" viewBox="0 0 400 69">
  <g id="Grupo_1181043" data-name="Grupo 1181043" transform="translate(7086.102 -20601.281)">
    <path id="Trazado_1053282" data-name="Trazado 1053282" d="M0,0H400V69H0Z" transform="translate(-7086.102 20601.281)" fill="#f2ecfd"/>
    <path id="Trazado_1055973" data-name="Trazado 1055973" d="M9.133,13.375a4.535,4.535,0,0,1-1.6,2.8,4.476,4.476,0,0,1-3.043.984,3.544,3.544,0,0,1-1.844-.52,3.283,3.283,0,0,1-1.227-1.43,5.34,5.34,0,0,1-.484-2.066,6.623,6.623,0,0,1,.055-1.25l.133-.937a7.076,7.076,0,0,1,1.8-4.043A4.544,4.544,0,0,1,6.414,5.469,3.4,3.4,0,0,1,8.953,6.5a4.117,4.117,0,0,1,.992,2.785H8.484Q8.383,6.9,6.609,6.711L6.352,6.7a3.019,3.019,0,0,0-2.465,1.1A5.942,5.942,0,0,0,2.609,10.9l-.172,1.18-.047.688A3.867,3.867,0,0,0,2.9,15.051a1.929,1.929,0,0,0,1.66.879,2.924,2.924,0,0,0,1.965-.57A3.8,3.8,0,0,0,7.711,13.4ZM12.211,17H10.75L12.727,5.625h1.461ZM22.688,5.625l1.992,9.266L29.9,5.625h1.93L29.852,17H28.391l.781-4.5.93-4.578L24.945,17H23.82L21.789,7.742l-.7,4.906L20.328,17H18.859L20.836,5.625ZM36.656,17.156a3.642,3.642,0,0,1-1.887-.523,3.391,3.391,0,0,1-1.262-1.473A5.548,5.548,0,0,1,33,12.977a10.371,10.371,0,0,1,.211-2.336A8.01,8.01,0,0,1,34.1,8.133a5.651,5.651,0,0,1,1.539-1.789,4.43,4.43,0,0,1,2.8-.875,3.365,3.365,0,0,1,2.625,1.152,4.792,4.792,0,0,1,1.031,3.035,11.175,11.175,0,0,1-.168,2.086,8.636,8.636,0,0,1-.711,2.352,5.869,5.869,0,0,1-1.3,1.82A4.474,4.474,0,0,1,36.656,17.156Zm3.992-7.141a3.942,3.942,0,0,0-.539-2.387,2.052,2.052,0,0,0-1.742-.879,2.963,2.963,0,0,0-1.871.563A4.258,4.258,0,0,0,35.145,9.09a9.158,9.158,0,0,0-.668,3l-.023.508a3.976,3.976,0,0,0,.547,2.4,2.035,2.035,0,0,0,1.727.9,3.009,3.009,0,0,0,2.449-1.066,6.057,6.057,0,0,0,1.293-3.105A13.992,13.992,0,0,0,40.648,10.016Zm11.258,3.359a4.535,4.535,0,0,1-1.6,2.8,4.476,4.476,0,0,1-3.043.984,3.544,3.544,0,0,1-1.844-.52,3.283,3.283,0,0,1-1.227-1.43,5.34,5.34,0,0,1-.484-2.066,6.623,6.623,0,0,1,.055-1.25l.133-.937A7.076,7.076,0,0,1,45.7,6.91a4.544,4.544,0,0,1,3.488-1.441A3.4,3.4,0,0,1,51.727,6.5a4.117,4.117,0,0,1,.992,2.785H51.258q-.1-2.391-1.875-2.578L49.125,6.7a3.019,3.019,0,0,0-2.465,1.1A5.942,5.942,0,0,0,45.383,10.9l-.172,1.18-.047.688a3.867,3.867,0,0,0,.512,2.285,1.929,1.929,0,0,0,1.66.879,2.924,2.924,0,0,0,1.965-.57A3.8,3.8,0,0,0,50.484,13.4Zm12.734-2.734H58.313l.219-1.258h6.336Zm-.562,3.242H57.75l.219-1.25H64.3Z" transform="translate(-7039.131 20628.656)" fill="#12263f"/>
    <path id="Trazado_1055976" data-name="Trazado 1055976" d="M7.766,10.641H1.438l.219-1.258H7.992ZM7.2,13.883H.875l.219-1.25H7.43Zm11.57.133a1.492,1.492,0,0,0-.336-1.172,3.358,3.358,0,0,0-1.4-.879,5.768,5.768,0,0,1-1.574-.855,2.767,2.767,0,0,1-1.047-2.477,3.194,3.194,0,0,1,.926-2.121,3.714,3.714,0,0,1,2.223-1.02l.3-1.711h1.141L18.7,5.516a2.462,2.462,0,0,1,1.723,1.168,4.053,4.053,0,0,1,.449,2.441h-1.4a2.932,2.932,0,0,0-.34-1.767,1.378,1.378,0,0,0-1.184-.639,2.048,2.048,0,0,0-1.457.5A2.074,2.074,0,0,0,15.82,8.6a1.587,1.587,0,0,0,.293,1.158,3.328,3.328,0,0,0,1.434.912,6.052,6.052,0,0,1,1.625.891,2.817,2.817,0,0,1,.809,1.066A2.96,2.96,0,0,1,20.18,14a3.128,3.128,0,0,1-1,2.156,4.027,4.027,0,0,1-2.371.977l-.266,1.492H15.414l.273-1.508a2.754,2.754,0,0,1-1.937-1.1,3.586,3.586,0,0,1-.57-2.367h1.414a2.319,2.319,0,0,0,.371,1.633,1.651,1.651,0,0,0,1.379.625A2.554,2.554,0,0,0,18,15.4,1.977,1.977,0,0,0,18.773,14.016ZM26.031,17H24.609l1.672-9.594L23.258,8.469,23.5,7.094,27.719,5.57h.25Zm4.008,2.273-.812-.586a5.16,5.16,0,0,0,1.125-2.219l.2-1.18h1.383l-.164,1.055A4.521,4.521,0,0,1,30.039,19.273ZM42.188,6.516,36.008,17H34.461L40.609,6.813H34.672l.188-1.187h7.469Zm7.3-.906-.125,1.227h-.273a4.137,4.137,0,0,0-2.672.969A6,6,0,0,0,44.7,10.57a3.294,3.294,0,0,1,2.484-1.031,2.57,2.57,0,0,1,1.539.5,2.765,2.765,0,0,1,.941,1.328,4.353,4.353,0,0,1,.207,1.871,4.554,4.554,0,0,1-1.238,2.848,3.4,3.4,0,0,1-2.66,1.074,2.775,2.775,0,0,1-2.078-.93,3.927,3.927,0,0,1-.93-2.406,9.107,9.107,0,0,1,.2-2.219,8.049,8.049,0,0,1,2.129-4.453,5.574,5.574,0,0,1,4.043-1.539Zm-2.609,5.125a2.386,2.386,0,0,0-1.422.438,3.076,3.076,0,0,0-1.023,1.156l-.055.523-.016.633a4,4,0,0,0,.2,1.242,1.9,1.9,0,0,0,.578.914,1.413,1.413,0,0,0,.9.32,2,2,0,0,0,1.621-.7,3.357,3.357,0,0,0,.809-1.953,3.372,3.372,0,0,0-.086-1.289,1.894,1.894,0,0,0-.543-.926A1.441,1.441,0,0,0,46.883,10.734ZM57.258,12a4.055,4.055,0,0,1-1.227.91,2.873,2.873,0,0,1-1.289.285,2.51,2.51,0,0,1-1.535-.508,2.8,2.8,0,0,1-.93-1.352,4.479,4.479,0,0,1-.2-1.875A5.054,5.054,0,0,1,52.711,7.4,3.87,3.87,0,0,1,54.1,5.949a3.4,3.4,0,0,1,1.887-.48,2.682,2.682,0,0,1,2.133.984,4.206,4.206,0,0,1,.836,2.555,10.639,10.639,0,0,1-.2,2.078,7.885,7.885,0,0,1-2.035,4.4,5.523,5.523,0,0,1-3.9,1.527h-.352l.125-1.227h.289a4.246,4.246,0,0,0,2.754-.939A5.616,5.616,0,0,0,57.258,12Zm-2.219,0a2.257,2.257,0,0,0,1.367-.4,3.4,3.4,0,0,0,1.078-1.168l.063-.57.023-.633a3.661,3.661,0,0,0-.449-1.867,1.412,1.412,0,0,0-1.2-.687,2,2,0,0,0-1.652.746,3.381,3.381,0,0,0-.793,1.965,3.778,3.778,0,0,0,.016.969,2.464,2.464,0,0,0,.281.867A1.412,1.412,0,0,0,55.039,12Zm11.016,0a4.055,4.055,0,0,1-1.227.91,2.873,2.873,0,0,1-1.289.285A2.51,2.51,0,0,1,62,12.688a2.8,2.8,0,0,1-.93-1.352,4.479,4.479,0,0,1-.2-1.875A5.054,5.054,0,0,1,61.508,7.4a3.87,3.87,0,0,1,1.387-1.449,3.4,3.4,0,0,1,1.887-.48,2.682,2.682,0,0,1,2.133.984,4.206,4.206,0,0,1,.836,2.555,10.638,10.638,0,0,1-.2,2.078,7.885,7.885,0,0,1-2.035,4.4,5.523,5.523,0,0,1-3.9,1.527h-.352l.125-1.227h.289a4.246,4.246,0,0,0,2.754-.939A5.616,5.616,0,0,0,66.055,12Zm-2.219,0a2.257,2.257,0,0,0,1.367-.4,3.4,3.4,0,0,0,1.078-1.168l.063-.57.023-.633a3.661,3.661,0,0,0-.449-1.867,1.412,1.412,0,0,0-1.2-.687,2,2,0,0,0-1.652.746,3.381,3.381,0,0,0-.793,1.965,3.778,3.778,0,0,0,.016.969,2.464,2.464,0,0,0,.281.867A1.412,1.412,0,0,0,63.836,12Z" transform="translate(-6772.102 20627.852)" fill="#12263f"/>
    <path id="Trazado_1055974" data-name="Trazado 1055974" d="M20.648,14.016a1.492,1.492,0,0,0-.336-1.172,3.358,3.358,0,0,0-1.4-.879,5.768,5.768,0,0,1-1.574-.855,2.767,2.767,0,0,1-1.047-2.477,3.194,3.194,0,0,1,.926-2.121,3.714,3.714,0,0,1,2.223-1.02l.3-1.711h1.141L20.57,5.516a2.462,2.462,0,0,1,1.723,1.168,4.053,4.053,0,0,1,.449,2.441h-1.4A2.932,2.932,0,0,0,21,7.358a1.378,1.378,0,0,0-1.184-.639,2.048,2.048,0,0,0-1.457.5A2.074,2.074,0,0,0,17.7,8.6a1.587,1.587,0,0,0,.293,1.158,3.328,3.328,0,0,0,1.434.912,6.052,6.052,0,0,1,1.625.891,2.817,2.817,0,0,1,.809,1.066,2.96,2.96,0,0,1,.2,1.375,3.128,3.128,0,0,1-1,2.156,4.027,4.027,0,0,1-2.371.977l-.266,1.492H17.289l.273-1.508a2.754,2.754,0,0,1-1.937-1.1,3.586,3.586,0,0,1-.57-2.367h1.414a2.319,2.319,0,0,0,.371,1.633,1.651,1.651,0,0,0,1.379.625,2.554,2.554,0,0,0,1.66-.5A1.977,1.977,0,0,0,20.648,14.016Zm9.234-.836h1.531l-.211,1.18H29.68L29.219,17H27.8l.461-2.641H23.227l.164-.93,6.25-7.8h1.547Zm-4.8,0h3.375l1.016-5.594-.227.328Zm10.586,3.977a2.567,2.567,0,0,1-2.156-1.02,4.526,4.526,0,0,1-.656-2.848q.016-.578.086-1.141l.281-1.9a7.043,7.043,0,0,1,1.43-3.625,3.418,3.418,0,0,1,2.781-1.156,2.6,2.6,0,0,1,2.168,1,4.426,4.426,0,0,1,.66,2.8q-.023.586-.094,1.148L39.9,12.25a7.463,7.463,0,0,1-1.461,3.758A3.4,3.4,0,0,1,35.672,17.156Zm3.133-7a12.092,12.092,0,0,0,.1-1.469Q38.867,6.7,37.367,6.648a2.053,2.053,0,0,0-1.77.809,5.606,5.606,0,0,0-.941,2.66l-.336,2.266a11.525,11.525,0,0,0-.1,1.477q.039,2.07,1.531,2.125a2.007,2.007,0,0,0,1.715-.766,5.429,5.429,0,0,0,.965-2.578Zm3.258,5.2a.846.846,0,0,1,.633.234.807.807,0,0,1,.242.625.844.844,0,0,1-.258.621.929.929,0,0,1-.625.254.788.788,0,0,1-.859-.828.874.874,0,0,1,.867-.906Zm6.57,1.8a2.567,2.567,0,0,1-2.156-1.02,4.526,4.526,0,0,1-.656-2.848q.016-.578.086-1.141l.281-1.9a7.043,7.043,0,0,1,1.43-3.625A3.418,3.418,0,0,1,50.4,5.469a2.6,2.6,0,0,1,2.168,1,4.426,4.426,0,0,1,.66,2.8q-.023.586-.094,1.148l-.273,1.836A7.463,7.463,0,0,1,51.4,16.008,3.4,3.4,0,0,1,48.633,17.156Zm3.133-7a12.092,12.092,0,0,0,.1-1.469Q51.828,6.7,50.328,6.648a2.053,2.053,0,0,0-1.77.809,5.606,5.606,0,0,0-.941,2.66l-.336,2.266a11.525,11.525,0,0,0-.1,1.477q.039,2.07,1.531,2.125a2.007,2.007,0,0,0,1.715-.766,5.429,5.429,0,0,0,.965-2.578Zm5.664,7a2.567,2.567,0,0,1-2.156-1.02,4.526,4.526,0,0,1-.656-2.848q.016-.578.086-1.141l.281-1.9a7.043,7.043,0,0,1,1.43-3.625A3.418,3.418,0,0,1,59.2,5.469a2.6,2.6,0,0,1,2.168,1,4.426,4.426,0,0,1,.66,2.8q-.023.586-.094,1.148l-.273,1.836A7.463,7.463,0,0,1,60.2,16.008,3.4,3.4,0,0,1,57.43,17.156Zm3.133-7a12.092,12.092,0,0,0,.1-1.469Q60.625,6.7,59.125,6.648a2.053,2.053,0,0,0-1.77.809,5.606,5.606,0,0,0-.941,2.66l-.336,2.266a11.525,11.525,0,0,0-.1,1.477q.039,2.07,1.531,2.125a2.007,2.007,0,0,0,1.715-.766,5.429,5.429,0,0,0,.965-2.578Zm5.664,7a2.567,2.567,0,0,1-2.156-1.02,4.526,4.526,0,0,1-.656-2.848q.016-.578.086-1.141l.281-1.9a7.043,7.043,0,0,1,1.43-3.625,3.418,3.418,0,0,1,2.781-1.156,2.6,2.6,0,0,1,2.168,1,4.426,4.426,0,0,1,.66,2.8q-.023.586-.094,1.148l-.273,1.836a7.463,7.463,0,0,1-1.461,3.758A3.4,3.4,0,0,1,66.227,17.156Zm3.133-7a12.092,12.092,0,0,0,.1-1.469Q69.422,6.7,67.922,6.648a2.053,2.053,0,0,0-1.77.809,5.606,5.606,0,0,0-.941,2.66l-.336,2.266a11.525,11.525,0,0,0-.1,1.477q.039,2.07,1.531,2.125a2.007,2.007,0,0,0,1.715-.766,5.429,5.429,0,0,0,.965-2.578Zm3.258,5.2a.846.846,0,0,1,.633.234.807.807,0,0,1,.242.625.844.844,0,0,1-.258.621.929.929,0,0,1-.625.254.788.788,0,0,1-.859-.828.874.874,0,0,1,.867-.906Zm6.57,1.8a2.567,2.567,0,0,1-2.156-1.02,4.526,4.526,0,0,1-.656-2.848q.016-.578.086-1.141l.281-1.9a7.043,7.043,0,0,1,1.43-3.625,3.418,3.418,0,0,1,2.781-1.156,2.6,2.6,0,0,1,2.168,1,4.426,4.426,0,0,1,.66,2.8q-.023.586-.094,1.148l-.273,1.836a7.463,7.463,0,0,1-1.461,3.758A3.4,3.4,0,0,1,79.188,17.156Zm3.133-7a12.092,12.092,0,0,0,.1-1.469Q82.383,6.7,80.883,6.648a2.053,2.053,0,0,0-1.77.809,5.606,5.606,0,0,0-.941,2.66l-.336,2.266a11.525,11.525,0,0,0-.1,1.477q.039,2.07,1.531,2.125a2.007,2.007,0,0,0,1.715-.766,5.429,5.429,0,0,0,.965-2.578Zm5.664,7a2.567,2.567,0,0,1-2.156-1.02,4.526,4.526,0,0,1-.656-2.848q.016-.578.086-1.141l.281-1.9a7.043,7.043,0,0,1,1.43-3.625A3.418,3.418,0,0,1,89.75,5.469a2.6,2.6,0,0,1,2.168,1,4.426,4.426,0,0,1,.66,2.8q-.023.586-.094,1.148l-.273,1.836a7.463,7.463,0,0,1-1.461,3.758A3.4,3.4,0,0,1,87.984,17.156Zm3.133-7a12.092,12.092,0,0,0,.1-1.469Q91.18,6.7,89.68,6.648a2.053,2.053,0,0,0-1.77.809,5.606,5.606,0,0,0-.941,2.66l-.336,2.266a11.525,11.525,0,0,0-.1,1.477q.039,2.07,1.531,2.125a2.007,2.007,0,0,0,1.715-.766,5.429,5.429,0,0,0,.965-2.578Zm5.664,7a2.567,2.567,0,0,1-2.156-1.02,4.526,4.526,0,0,1-.656-2.848q.016-.578.086-1.141l.281-1.9a7.043,7.043,0,0,1,1.43-3.625,3.418,3.418,0,0,1,2.781-1.156,2.6,2.6,0,0,1,2.168,1,4.426,4.426,0,0,1,.66,2.8q-.023.586-.094,1.148l-.273,1.836a7.463,7.463,0,0,1-1.461,3.758A3.4,3.4,0,0,1,96.781,17.156Zm3.133-7a12.092,12.092,0,0,0,.1-1.469Q99.977,6.7,98.477,6.648a2.053,2.053,0,0,0-1.77.809,5.606,5.606,0,0,0-.941,2.66l-.336,2.266a11.525,11.525,0,0,0-.1,1.477q.039,2.07,1.531,2.125a2.007,2.007,0,0,0,1.715-.766,5.429,5.429,0,0,0,.965-2.578Zm1.906,9.117-.812-.586a5.16,5.16,0,0,0,1.125-2.219l.2-1.18h1.383l-.164,1.055A4.521,4.521,0,0,1,101.82,19.273Zm6.883-2.117a2.567,2.567,0,0,1-2.156-1.02,4.526,4.526,0,0,1-.656-2.848q.016-.578.086-1.141l.281-1.9a7.043,7.043,0,0,1,1.43-3.625,3.418,3.418,0,0,1,2.781-1.156,2.6,2.6,0,0,1,2.168,1,4.426,4.426,0,0,1,.66,2.8q-.023.586-.094,1.148l-.273,1.836a7.463,7.463,0,0,1-1.461,3.758A3.4,3.4,0,0,1,108.7,17.156Zm3.133-7a12.092,12.092,0,0,0,.1-1.469Q111.9,6.7,110.4,6.648a2.053,2.053,0,0,0-1.77.809,5.606,5.606,0,0,0-.941,2.66l-.336,2.266a11.525,11.525,0,0,0-.1,1.477q.039,2.07,1.531,2.125a2.007,2.007,0,0,0,1.715-.766,5.429,5.429,0,0,0,.965-2.578Zm5.664,7a2.567,2.567,0,0,1-2.156-1.02,4.526,4.526,0,0,1-.656-2.848q.016-.578.086-1.141l.281-1.9a7.043,7.043,0,0,1,1.43-3.625,3.418,3.418,0,0,1,2.781-1.156,2.6,2.6,0,0,1,2.168,1,4.426,4.426,0,0,1,.66,2.8q-.023.586-.094,1.148l-.273,1.836a7.463,7.463,0,0,1-1.461,3.758A3.4,3.4,0,0,1,117.5,17.156Zm3.133-7a12.092,12.092,0,0,0,.1-1.469Q120.7,6.7,119.2,6.648a2.053,2.053,0,0,0-1.77.809,5.606,5.606,0,0,0-.941,2.66l-.336,2.266a11.525,11.525,0,0,0-.1,1.477q.039,2.07,1.531,2.125a2.007,2.007,0,0,0,1.715-.766,5.429,5.429,0,0,0,.965-2.578Z" transform="translate(-6945.051 20614.781)" fill="#12263f"/>
    <path id="Trazado_1055975" data-name="Trazado 1055975" d="M57.07,17H49.828L50,15.9l4.2-4.078.766-.758a4.483,4.483,0,0,0,1.461-2.437,1.807,1.807,0,0,0-.336-1.4,1.58,1.58,0,0,0-1.234-.574,2.328,2.328,0,0,0-1.711.6A2.745,2.745,0,0,0,52.3,8.969l-1.4.008a3.956,3.956,0,0,1,.645-1.855,3.59,3.59,0,0,1,1.43-1.242,4.108,4.108,0,0,1,1.926-.41,3.156,3.156,0,0,1,2.246.855,2.535,2.535,0,0,1,.715,2.137,5.445,5.445,0,0,1-1.727,3.156l-.719.727L51.766,15.82h5.492Zm8.8,0H58.625l.172-1.1,4.2-4.078.766-.758a4.483,4.483,0,0,0,1.461-2.437,1.807,1.807,0,0,0-.336-1.4,1.58,1.58,0,0,0-1.234-.574,2.328,2.328,0,0,0-1.711.6A2.745,2.745,0,0,0,61.1,8.969l-1.4.008a3.956,3.956,0,0,1,.645-1.855,3.59,3.59,0,0,1,1.43-1.242,4.108,4.108,0,0,1,1.926-.41,3.156,3.156,0,0,1,2.246.855,2.535,2.535,0,0,1,.715,2.137,5.445,5.445,0,0,1-1.727,3.156l-.719.727L60.563,15.82h5.492Zm2.656-1.641a.846.846,0,0,1,.633.234.807.807,0,0,1,.242.625.844.844,0,0,1-.258.621.929.929,0,0,1-.625.254.788.788,0,0,1-.859-.828.874.874,0,0,1,.867-.906Zm10.344-9.75-.125,1.227h-.273A4.137,4.137,0,0,0,75.8,7.8a6,6,0,0,0-1.719,2.766,3.294,3.294,0,0,1,2.484-1.031,2.57,2.57,0,0,1,1.539.5,2.765,2.765,0,0,1,.941,1.328,4.353,4.353,0,0,1,.207,1.871,4.554,4.554,0,0,1-1.238,2.848,3.4,3.4,0,0,1-2.66,1.074,2.775,2.775,0,0,1-2.078-.93,3.927,3.927,0,0,1-.93-2.406,9.107,9.107,0,0,1,.2-2.219,8.049,8.049,0,0,1,2.129-4.453,5.575,5.575,0,0,1,4.043-1.539Zm-2.609,5.125a2.386,2.386,0,0,0-1.422.438,3.076,3.076,0,0,0-1.023,1.156l-.055.523-.016.633a4,4,0,0,0,.2,1.242,1.9,1.9,0,0,0,.578.914,1.413,1.413,0,0,0,.9.32,2,2,0,0,0,1.621-.7,3.357,3.357,0,0,0,.809-1.953,3.372,3.372,0,0,0-.086-1.289,1.894,1.894,0,0,0-.543-.926A1.441,1.441,0,0,0,76.258,10.734Zm7.633,6.422a2.567,2.567,0,0,1-2.156-1.02,4.526,4.526,0,0,1-.656-2.848q.016-.578.086-1.141l.281-1.9a7.043,7.043,0,0,1,1.43-3.625,3.418,3.418,0,0,1,2.781-1.156,2.6,2.6,0,0,1,2.168,1,4.426,4.426,0,0,1,.66,2.8q-.023.586-.094,1.148l-.273,1.836a7.463,7.463,0,0,1-1.461,3.758A3.4,3.4,0,0,1,83.891,17.156Zm3.133-7a12.092,12.092,0,0,0,.1-1.469Q87.086,6.7,85.586,6.648a2.053,2.053,0,0,0-1.77.809,5.606,5.606,0,0,0-.941,2.66l-.336,2.266a11.525,11.525,0,0,0-.1,1.477q.039,2.07,1.531,2.125a2.007,2.007,0,0,0,1.715-.766,5.429,5.429,0,0,0,.965-2.578Zm5.664,7a2.567,2.567,0,0,1-2.156-1.02,4.526,4.526,0,0,1-.656-2.848q.016-.578.086-1.141l.281-1.9a7.043,7.043,0,0,1,1.43-3.625,3.418,3.418,0,0,1,2.781-1.156,2.6,2.6,0,0,1,2.168,1,4.426,4.426,0,0,1,.66,2.8q-.023.586-.094,1.148l-.273,1.836a7.463,7.463,0,0,1-1.461,3.758A3.4,3.4,0,0,1,92.688,17.156Zm3.133-7a12.092,12.092,0,0,0,.1-1.469Q95.883,6.7,94.383,6.648a2.053,2.053,0,0,0-1.77.809,5.606,5.606,0,0,0-.941,2.66l-.336,2.266a11.525,11.525,0,0,0-.1,1.477q.039,2.07,1.531,2.125a2.007,2.007,0,0,0,1.715-.766,5.429,5.429,0,0,0,.965-2.578Zm3.258,5.2a.846.846,0,0,1,.633.234.807.807,0,0,1,.242.625.844.844,0,0,1-.258.621.929.929,0,0,1-.625.254.788.788,0,0,1-.859-.828.874.874,0,0,1,.867-.906Zm6.57,1.8a2.567,2.567,0,0,1-2.156-1.02,4.526,4.526,0,0,1-.656-2.848q.016-.578.086-1.141l.281-1.9a7.043,7.043,0,0,1,1.43-3.625,3.418,3.418,0,0,1,2.781-1.156,2.6,2.6,0,0,1,2.168,1,4.426,4.426,0,0,1,.66,2.8q-.023.586-.094,1.148l-.273,1.836a7.463,7.463,0,0,1-1.461,3.758A3.4,3.4,0,0,1,105.648,17.156Zm3.133-7a12.092,12.092,0,0,0,.1-1.469q-.039-1.984-1.539-2.039a2.053,2.053,0,0,0-1.77.809,5.606,5.606,0,0,0-.941,2.66l-.336,2.266a11.525,11.525,0,0,0-.1,1.477q.039,2.07,1.531,2.125a2.007,2.007,0,0,0,1.715-.766,5.429,5.429,0,0,0,.965-2.578Zm5.664,7a2.567,2.567,0,0,1-2.156-1.02,4.526,4.526,0,0,1-.656-2.848q.016-.578.086-1.141l.281-1.9a7.043,7.043,0,0,1,1.43-3.625,3.418,3.418,0,0,1,2.781-1.156,2.6,2.6,0,0,1,2.168,1,4.426,4.426,0,0,1,.66,2.8q-.023.586-.094,1.148l-.273,1.836a7.463,7.463,0,0,1-1.461,3.758A3.4,3.4,0,0,1,114.445,17.156Zm3.133-7a12.092,12.092,0,0,0,.1-1.469q-.039-1.984-1.539-2.039a2.053,2.053,0,0,0-1.77.809,5.606,5.606,0,0,0-.941,2.66l-.336,2.266a11.525,11.525,0,0,0-.1,1.477q.039,2.07,1.531,2.125a2.007,2.007,0,0,0,1.715-.766,5.429,5.429,0,0,0,.965-2.578Zm5.664,7a2.567,2.567,0,0,1-2.156-1.02,4.526,4.526,0,0,1-.656-2.848q.016-.578.086-1.141l.281-1.9a7.043,7.043,0,0,1,1.43-3.625,3.418,3.418,0,0,1,2.781-1.156,2.6,2.6,0,0,1,2.168,1,4.426,4.426,0,0,1,.66,2.8q-.023.586-.094,1.148l-.273,1.836a7.463,7.463,0,0,1-1.461,3.758A3.4,3.4,0,0,1,123.242,17.156Zm3.133-7a12.092,12.092,0,0,0,.1-1.469q-.039-1.984-1.539-2.039a2.053,2.053,0,0,0-1.77.809,5.606,5.606,0,0,0-.941,2.66l-.336,2.266a11.525,11.525,0,0,0-.1,1.477q.039,2.07,1.531,2.125a2.007,2.007,0,0,0,1.715-.766A5.429,5.429,0,0,0,126,12.641Z" transform="translate(-6965.051 20641.781)" fill="#12263f"/>
    <path id="Trazado_1053281" data-name="Trazado 1053281" d="M-20.551.572H162.112" transform="translate(-6947.655 20637.781)" fill="none" stroke="#707070" stroke-width="1"/>
  </g>
</svg>
