<svg id="Grupo_1111425" data-name="Grupo 1111425" xmlns="http://www.w3.org/2000/svg" width="50" height="50" viewBox="0 0 50 50">
  <g id="Grupo_20664" data-name="Grupo 20664">
    <path id="Trazado_99075" data-name="Trazado 99075" d="M25,0A25,25,0,1,1,0,25,25,25,0,0,1,25,0Z" fill="#fd9826"/>
    <path id="Trazado_1054847" data-name="Trazado 1054847" d="M15.094,19.223a6.231,6.231,0,0,1-.961,3.146,5.8,5.8,0,0,1-2.467,2.115,8.4,8.4,0,0,1-3.627.75,6.7,6.7,0,0,1-5.3-2.191A9.048,9.048,0,0,1,.809,16.855v-.844a10.328,10.328,0,0,1,.873-4.389A6.615,6.615,0,0,1,4.2,8.717a7.013,7.013,0,0,1,3.8-1.025,7.354,7.354,0,0,1,4.992,1.635,6.459,6.459,0,0,1,2.145,4.506h-4.1a3.056,3.056,0,0,0-.785-2.238,3.229,3.229,0,0,0-2.25-.68,2.457,2.457,0,0,0-2.25,1.148,7.381,7.381,0,0,0-.75,3.668v1.207a8.167,8.167,0,0,0,.686,3.9,2.509,2.509,0,0,0,2.361,1.172,3.159,3.159,0,0,0,2.168-.668,2.835,2.835,0,0,0,.8-2.121Z" transform="translate(18.051 10)" fill="#12263f"/>
  </g>
</svg>
