<svg xmlns="http://www.w3.org/2000/svg" width="400" height="69" viewBox="0 0 400 69">
  <g id="Grupo_1181002" data-name="Grupo 1181002" transform="translate(6640.051 -19971.266)">
    <path id="Trazado_1053282" data-name="Trazado 1053282" d="M0,0H400V69H0Z" transform="translate(-6640.051 19971.266)" fill="#edf7fe"/>
    <path id="Trazado_1054723" data-name="Trazado 1054723" d="M9.133,13.375a4.535,4.535,0,0,1-1.6,2.8,4.476,4.476,0,0,1-3.043.984,3.544,3.544,0,0,1-1.844-.52,3.283,3.283,0,0,1-1.227-1.43,5.34,5.34,0,0,1-.484-2.066,6.623,6.623,0,0,1,.055-1.25l.133-.937a7.076,7.076,0,0,1,1.8-4.043A4.544,4.544,0,0,1,6.414,5.469,3.4,3.4,0,0,1,8.953,6.5a4.117,4.117,0,0,1,.992,2.785H8.484Q8.383,6.9,6.609,6.711L6.352,6.7a3.019,3.019,0,0,0-2.465,1.1A5.942,5.942,0,0,0,2.609,10.9l-.172,1.18-.047.688A3.867,3.867,0,0,0,2.9,15.051a1.929,1.929,0,0,0,1.66.879,2.924,2.924,0,0,0,1.965-.57A3.8,3.8,0,0,0,7.711,13.4ZM19.8,6.852H16.266L14.508,17H13.047L14.8,6.852H11.266l.219-1.227h8.539ZM28.242,17H26.773l.914-5.258H22.133L21.219,17H19.75L21.727,5.625H23.2l-.852,4.891h5.547l.852-4.891h1.477ZM34.719,5.625l1.992,9.266L41.93,5.625h1.93L41.883,17H40.422l.781-4.5.93-4.578L36.977,17H35.852L33.82,7.742l-.7,4.906L32.359,17H30.891L32.867,5.625Zm21.023,5.016H49.414l.219-1.258h6.336Zm-.562,3.242H48.852l.219-1.25h6.336Z" transform="translate(-6603.131 19995.266)" fill="#12263f"/>
    <path id="Trazado_1054726" data-name="Trazado 1054726" d="M7.766,10.641H1.438l.219-1.258H7.992ZM7.2,13.883H.875l.219-1.25H7.43Zm11.57.133a1.492,1.492,0,0,0-.336-1.172,3.358,3.358,0,0,0-1.4-.879,5.768,5.768,0,0,1-1.574-.855,2.767,2.767,0,0,1-1.047-2.477,3.194,3.194,0,0,1,.926-2.121,3.714,3.714,0,0,1,2.223-1.02l.3-1.711h1.141L18.7,5.516a2.462,2.462,0,0,1,1.723,1.168,4.053,4.053,0,0,1,.449,2.441h-1.4a2.932,2.932,0,0,0-.34-1.767,1.378,1.378,0,0,0-1.184-.639,2.048,2.048,0,0,0-1.457.5A2.074,2.074,0,0,0,15.82,8.6a1.587,1.587,0,0,0,.293,1.158,3.328,3.328,0,0,0,1.434.912,6.052,6.052,0,0,1,1.625.891,2.817,2.817,0,0,1,.809,1.066A2.96,2.96,0,0,1,20.18,14a3.128,3.128,0,0,1-1,2.156,4.027,4.027,0,0,1-2.371.977l-.266,1.492H15.414l.273-1.508a2.754,2.754,0,0,1-1.937-1.1,3.586,3.586,0,0,1-.57-2.367h1.414a2.319,2.319,0,0,0,.371,1.633,1.651,1.651,0,0,0,1.379.625A2.554,2.554,0,0,0,18,15.4,1.977,1.977,0,0,0,18.773,14.016Zm5.789-3.406.938.008a2.769,2.769,0,0,0,1.738-.543A2.058,2.058,0,0,0,28.047,8.6a1.814,1.814,0,0,0-.336-1.426,1.613,1.613,0,0,0-1.273-.535,2.175,2.175,0,0,0-1.512.52A2.294,2.294,0,0,0,24.164,8.6l-1.4.008a3.241,3.241,0,0,1,1.2-2.285,3.8,3.8,0,0,1,2.543-.863,3.04,3.04,0,0,1,2.246.895,2.838,2.838,0,0,1,.707,2.277,2.631,2.631,0,0,1-.617,1.469,4.111,4.111,0,0,1-1.516,1.1,2.248,2.248,0,0,1,1.156.988,2.757,2.757,0,0,1,.32,1.582,3.491,3.491,0,0,1-1.223,2.477,3.844,3.844,0,0,1-2.668.906,3.234,3.234,0,0,1-2.328-.906,2.874,2.874,0,0,1-.8-2.258L23.2,14a1.9,1.9,0,0,0,.422,1.41,1.8,1.8,0,0,0,1.359.566,2.273,2.273,0,0,0,1.664-.57A2.38,2.38,0,0,0,27.4,13.8a1.741,1.741,0,0,0-.422-1.449,2.127,2.127,0,0,0-1.516-.551l-1.086-.008Zm6.828,4.75a.846.846,0,0,1,.633.234.807.807,0,0,1,.242.625.844.844,0,0,1-.258.621.929.929,0,0,1-.625.254.788.788,0,0,1-.859-.828.874.874,0,0,1,.867-.906Zm11.2-6.836a2.818,2.818,0,0,1-.605,1.535,4.041,4.041,0,0,1-1.457,1.129,2.674,2.674,0,0,1,1.09,1.129,2.891,2.891,0,0,1,.293,1.543,3.315,3.315,0,0,1-1.234,2.418,4,4,0,0,1-2.7.879,3.21,3.21,0,0,1-2.336-.914,2.733,2.733,0,0,1-.742-2.25,3.041,3.041,0,0,1,.688-1.707A4.306,4.306,0,0,1,37.227,11.1a2.586,2.586,0,0,1-.9-1.062,2.7,2.7,0,0,1-.23-1.375,3.3,3.3,0,0,1,1.133-2.336,3.577,3.577,0,0,1,2.516-.859,2.908,2.908,0,0,1,2.156.883A2.7,2.7,0,0,1,42.586,8.523Zm-2.078,5.3a1.943,1.943,0,0,0-.375-1.473,1.716,1.716,0,0,0-1.359-.621,2.309,2.309,0,0,0-1.656.613,2.486,2.486,0,0,0-.8,1.621,1.838,1.838,0,0,0,.379,1.453,1.719,1.719,0,0,0,1.34.563,2.323,2.323,0,0,0,1.672-.574A2.381,2.381,0,0,0,40.508,13.828Zm.656-5.281a1.791,1.791,0,0,0-.324-1.328,1.462,1.462,0,0,0-1.168-.57,2,2,0,0,0-1.477.559,2.334,2.334,0,0,0-.7,1.48,1.76,1.76,0,0,0,.332,1.336A1.46,1.46,0,0,0,39,10.563a2,2,0,0,0,1.457-.551A2.285,2.285,0,0,0,41.164,8.547Zm5.594,8.609a2.567,2.567,0,0,1-2.156-1.02,4.526,4.526,0,0,1-.656-2.848q.016-.578.086-1.141l.281-1.9a7.043,7.043,0,0,1,1.43-3.625,3.418,3.418,0,0,1,2.781-1.156,2.6,2.6,0,0,1,2.168,1,4.426,4.426,0,0,1,.66,2.8q-.023.586-.094,1.148l-.273,1.836a7.463,7.463,0,0,1-1.461,3.758A3.4,3.4,0,0,1,46.758,17.156Zm3.133-7a12.092,12.092,0,0,0,.1-1.469Q49.953,6.7,48.453,6.648a2.053,2.053,0,0,0-1.77.809,5.606,5.606,0,0,0-.941,2.66l-.336,2.266a11.525,11.525,0,0,0-.1,1.477q.039,2.07,1.531,2.125a2.007,2.007,0,0,0,1.715-.766,5.429,5.429,0,0,0,.965-2.578ZM58.3,12a4.055,4.055,0,0,1-1.227.91,2.873,2.873,0,0,1-1.289.285,2.51,2.51,0,0,1-1.535-.508,2.8,2.8,0,0,1-.93-1.352,4.479,4.479,0,0,1-.2-1.875A5.054,5.054,0,0,1,53.75,7.4a3.87,3.87,0,0,1,1.387-1.449,3.4,3.4,0,0,1,1.887-.48,2.682,2.682,0,0,1,2.133.984,4.206,4.206,0,0,1,.836,2.555,10.639,10.639,0,0,1-.2,2.078,7.885,7.885,0,0,1-2.035,4.4,5.523,5.523,0,0,1-3.9,1.527h-.352l.125-1.227h.289a4.246,4.246,0,0,0,2.754-.939A5.616,5.616,0,0,0,58.3,12Zm-2.219,0a2.257,2.257,0,0,0,1.367-.4,3.4,3.4,0,0,0,1.078-1.168l.063-.57.023-.633a3.661,3.661,0,0,0-.449-1.867,1.412,1.412,0,0,0-1.2-.687,2,2,0,0,0-1.652.746,3.381,3.381,0,0,0-.793,1.965,3.778,3.778,0,0,0,.016.969,2.464,2.464,0,0,0,.281.867A1.412,1.412,0,0,0,56.078,12Zm4.516,7.273-.812-.586a5.16,5.16,0,0,0,1.125-2.219l.2-1.18h1.383l-.164,1.055A4.521,4.521,0,0,1,60.594,19.273Zm4.906-8,1.445-5.648h5.672l-.211,1.336H67.953l-.875,3.109a3.481,3.481,0,0,1,1.859-.492,2.553,2.553,0,0,1,2.172,1.066,3.864,3.864,0,0,1,.617,2.676,4.274,4.274,0,0,1-1.242,2.813,3.651,3.651,0,0,1-2.727,1.031,2.975,2.975,0,0,1-2.2-.875A3.307,3.307,0,0,1,64.68,14H66a2.266,2.266,0,0,0,.531,1.453,1.718,1.718,0,0,0,1.289.531,2.1,2.1,0,0,0,1.684-.711,3.282,3.282,0,0,0,.809-1.945,2.5,2.5,0,0,0-.367-1.738,1.671,1.671,0,0,0-1.4-.715,2.4,2.4,0,0,0-1.012.172,3.758,3.758,0,0,0-.879.539ZM80.008,17H72.766l.172-1.1,4.2-4.078.766-.758a4.483,4.483,0,0,0,1.461-2.437,1.807,1.807,0,0,0-.336-1.4,1.58,1.58,0,0,0-1.234-.574,2.328,2.328,0,0,0-1.711.6,2.745,2.745,0,0,0-.836,1.723l-1.4.008a3.956,3.956,0,0,1,.645-1.855,3.59,3.59,0,0,1,1.43-1.242,4.108,4.108,0,0,1,1.926-.41,3.156,3.156,0,0,1,2.246.855A2.535,2.535,0,0,1,80.8,8.461a5.445,5.445,0,0,1-1.727,3.156l-.719.727L74.7,15.82H80.2Z" transform="translate(-6336.102 19994.461)" fill="#12263f"/>
    <path id="Trazado_1054724" data-name="Trazado 1054724" d="M20.648,14.016a1.492,1.492,0,0,0-.336-1.172,3.358,3.358,0,0,0-1.4-.879,5.768,5.768,0,0,1-1.574-.855,2.767,2.767,0,0,1-1.047-2.477,3.194,3.194,0,0,1,.926-2.121,3.714,3.714,0,0,1,2.223-1.02l.3-1.711h1.141L20.57,5.516a2.462,2.462,0,0,1,1.723,1.168,4.053,4.053,0,0,1,.449,2.441h-1.4A2.932,2.932,0,0,0,21,7.358a1.378,1.378,0,0,0-1.184-.639,2.048,2.048,0,0,0-1.457.5A2.074,2.074,0,0,0,17.7,8.6a1.587,1.587,0,0,0,.293,1.158,3.328,3.328,0,0,0,1.434.912,6.052,6.052,0,0,1,1.625.891,2.817,2.817,0,0,1,.809,1.066,2.96,2.96,0,0,1,.2,1.375,3.128,3.128,0,0,1-1,2.156,4.027,4.027,0,0,1-2.371.977l-.266,1.492H17.289l.273-1.508a2.754,2.754,0,0,1-1.937-1.1,3.586,3.586,0,0,1-.57-2.367h1.414a2.319,2.319,0,0,0,.371,1.633,1.651,1.651,0,0,0,1.379.625,2.554,2.554,0,0,0,1.66-.5A1.977,1.977,0,0,0,20.648,14.016Zm9.234-.836h1.531l-.211,1.18H29.68L29.219,17H27.8l.461-2.641H23.227l.164-.93,6.25-7.8h1.547Zm-4.8,0h3.375l1.016-5.594-.227.328Zm10.586,3.977a2.567,2.567,0,0,1-2.156-1.02,4.526,4.526,0,0,1-.656-2.848q.016-.578.086-1.141l.281-1.9a7.043,7.043,0,0,1,1.43-3.625,3.418,3.418,0,0,1,2.781-1.156,2.6,2.6,0,0,1,2.168,1,4.426,4.426,0,0,1,.66,2.8q-.023.586-.094,1.148L39.9,12.25a7.463,7.463,0,0,1-1.461,3.758A3.4,3.4,0,0,1,35.672,17.156Zm3.133-7a12.092,12.092,0,0,0,.1-1.469Q38.867,6.7,37.367,6.648a2.053,2.053,0,0,0-1.77.809,5.606,5.606,0,0,0-.941,2.66l-.336,2.266a11.525,11.525,0,0,0-.1,1.477q.039,2.07,1.531,2.125a2.007,2.007,0,0,0,1.715-.766,5.429,5.429,0,0,0,.965-2.578Zm3.258,5.2a.846.846,0,0,1,.633.234.807.807,0,0,1,.242.625.844.844,0,0,1-.258.621.929.929,0,0,1-.625.254.788.788,0,0,1-.859-.828.874.874,0,0,1,.867-.906Zm6.57,1.8a2.567,2.567,0,0,1-2.156-1.02,4.526,4.526,0,0,1-.656-2.848q.016-.578.086-1.141l.281-1.9a7.043,7.043,0,0,1,1.43-3.625A3.418,3.418,0,0,1,50.4,5.469a2.6,2.6,0,0,1,2.168,1,4.426,4.426,0,0,1,.66,2.8q-.023.586-.094,1.148l-.273,1.836A7.463,7.463,0,0,1,51.4,16.008,3.4,3.4,0,0,1,48.633,17.156Zm3.133-7a12.092,12.092,0,0,0,.1-1.469Q51.828,6.7,50.328,6.648a2.053,2.053,0,0,0-1.77.809,5.606,5.606,0,0,0-.941,2.66l-.336,2.266a11.525,11.525,0,0,0-.1,1.477q.039,2.07,1.531,2.125a2.007,2.007,0,0,0,1.715-.766,5.429,5.429,0,0,0,.965-2.578Zm5.664,7a2.567,2.567,0,0,1-2.156-1.02,4.526,4.526,0,0,1-.656-2.848q.016-.578.086-1.141l.281-1.9a7.043,7.043,0,0,1,1.43-3.625A3.418,3.418,0,0,1,59.2,5.469a2.6,2.6,0,0,1,2.168,1,4.426,4.426,0,0,1,.66,2.8q-.023.586-.094,1.148l-.273,1.836A7.463,7.463,0,0,1,60.2,16.008,3.4,3.4,0,0,1,57.43,17.156Zm3.133-7a12.092,12.092,0,0,0,.1-1.469Q60.625,6.7,59.125,6.648a2.053,2.053,0,0,0-1.77.809,5.606,5.606,0,0,0-.941,2.66l-.336,2.266a11.525,11.525,0,0,0-.1,1.477q.039,2.07,1.531,2.125a2.007,2.007,0,0,0,1.715-.766,5.429,5.429,0,0,0,.965-2.578Zm5.664,7a2.567,2.567,0,0,1-2.156-1.02,4.526,4.526,0,0,1-.656-2.848q.016-.578.086-1.141l.281-1.9a7.043,7.043,0,0,1,1.43-3.625,3.418,3.418,0,0,1,2.781-1.156,2.6,2.6,0,0,1,2.168,1,4.426,4.426,0,0,1,.66,2.8q-.023.586-.094,1.148l-.273,1.836a7.463,7.463,0,0,1-1.461,3.758A3.4,3.4,0,0,1,66.227,17.156Zm3.133-7a12.092,12.092,0,0,0,.1-1.469Q69.422,6.7,67.922,6.648a2.053,2.053,0,0,0-1.77.809,5.606,5.606,0,0,0-.941,2.66l-.336,2.266a11.525,11.525,0,0,0-.1,1.477q.039,2.07,1.531,2.125a2.007,2.007,0,0,0,1.715-.766,5.429,5.429,0,0,0,.965-2.578Zm3.258,5.2a.846.846,0,0,1,.633.234.807.807,0,0,1,.242.625.844.844,0,0,1-.258.621.929.929,0,0,1-.625.254.788.788,0,0,1-.859-.828.874.874,0,0,1,.867-.906Zm6.57,1.8a2.567,2.567,0,0,1-2.156-1.02,4.526,4.526,0,0,1-.656-2.848q.016-.578.086-1.141l.281-1.9a7.043,7.043,0,0,1,1.43-3.625,3.418,3.418,0,0,1,2.781-1.156,2.6,2.6,0,0,1,2.168,1,4.426,4.426,0,0,1,.66,2.8q-.023.586-.094,1.148l-.273,1.836a7.463,7.463,0,0,1-1.461,3.758A3.4,3.4,0,0,1,79.188,17.156Zm3.133-7a12.092,12.092,0,0,0,.1-1.469Q82.383,6.7,80.883,6.648a2.053,2.053,0,0,0-1.77.809,5.606,5.606,0,0,0-.941,2.66l-.336,2.266a11.525,11.525,0,0,0-.1,1.477q.039,2.07,1.531,2.125a2.007,2.007,0,0,0,1.715-.766,5.429,5.429,0,0,0,.965-2.578Zm5.664,7a2.567,2.567,0,0,1-2.156-1.02,4.526,4.526,0,0,1-.656-2.848q.016-.578.086-1.141l.281-1.9a7.043,7.043,0,0,1,1.43-3.625A3.418,3.418,0,0,1,89.75,5.469a2.6,2.6,0,0,1,2.168,1,4.426,4.426,0,0,1,.66,2.8q-.023.586-.094,1.148l-.273,1.836a7.463,7.463,0,0,1-1.461,3.758A3.4,3.4,0,0,1,87.984,17.156Zm3.133-7a12.092,12.092,0,0,0,.1-1.469Q91.18,6.7,89.68,6.648a2.053,2.053,0,0,0-1.77.809,5.606,5.606,0,0,0-.941,2.66l-.336,2.266a11.525,11.525,0,0,0-.1,1.477q.039,2.07,1.531,2.125a2.007,2.007,0,0,0,1.715-.766,5.429,5.429,0,0,0,.965-2.578Zm5.664,7a2.567,2.567,0,0,1-2.156-1.02,4.526,4.526,0,0,1-.656-2.848q.016-.578.086-1.141l.281-1.9a7.043,7.043,0,0,1,1.43-3.625,3.418,3.418,0,0,1,2.781-1.156,2.6,2.6,0,0,1,2.168,1,4.426,4.426,0,0,1,.66,2.8q-.023.586-.094,1.148l-.273,1.836a7.463,7.463,0,0,1-1.461,3.758A3.4,3.4,0,0,1,96.781,17.156Zm3.133-7a12.092,12.092,0,0,0,.1-1.469Q99.977,6.7,98.477,6.648a2.053,2.053,0,0,0-1.77.809,5.606,5.606,0,0,0-.941,2.66l-.336,2.266a11.525,11.525,0,0,0-.1,1.477q.039,2.07,1.531,2.125a2.007,2.007,0,0,0,1.715-.766,5.429,5.429,0,0,0,.965-2.578Zm1.906,9.117-.812-.586a5.16,5.16,0,0,0,1.125-2.219l.2-1.18h1.383l-.164,1.055A4.521,4.521,0,0,1,101.82,19.273Zm6.883-2.117a2.567,2.567,0,0,1-2.156-1.02,4.526,4.526,0,0,1-.656-2.848q.016-.578.086-1.141l.281-1.9a7.043,7.043,0,0,1,1.43-3.625,3.418,3.418,0,0,1,2.781-1.156,2.6,2.6,0,0,1,2.168,1,4.426,4.426,0,0,1,.66,2.8q-.023.586-.094,1.148l-.273,1.836a7.463,7.463,0,0,1-1.461,3.758A3.4,3.4,0,0,1,108.7,17.156Zm3.133-7a12.092,12.092,0,0,0,.1-1.469Q111.9,6.7,110.4,6.648a2.053,2.053,0,0,0-1.77.809,5.606,5.606,0,0,0-.941,2.66l-.336,2.266a11.525,11.525,0,0,0-.1,1.477q.039,2.07,1.531,2.125a2.007,2.007,0,0,0,1.715-.766,5.429,5.429,0,0,0,.965-2.578Zm5.664,7a2.567,2.567,0,0,1-2.156-1.02,4.526,4.526,0,0,1-.656-2.848q.016-.578.086-1.141l.281-1.9a7.043,7.043,0,0,1,1.43-3.625,3.418,3.418,0,0,1,2.781-1.156,2.6,2.6,0,0,1,2.168,1,4.426,4.426,0,0,1,.66,2.8q-.023.586-.094,1.148l-.273,1.836a7.463,7.463,0,0,1-1.461,3.758A3.4,3.4,0,0,1,117.5,17.156Zm3.133-7a12.092,12.092,0,0,0,.1-1.469Q120.7,6.7,119.2,6.648a2.053,2.053,0,0,0-1.77.809,5.606,5.606,0,0,0-.941,2.66l-.336,2.266a11.525,11.525,0,0,0-.1,1.477q.039,2.07,1.531,2.125a2.007,2.007,0,0,0,1.715-.766,5.429,5.429,0,0,0,.965-2.578Z" transform="translate(-6509.051 19981.391)" fill="#12263f"/>
    <path id="Trazado_1054725" data-name="Trazado 1054725" d="M69.645,17H68.223l1.672-9.594L66.871,8.469l.242-1.375L71.332,5.57h.25Zm7.766.156a2.567,2.567,0,0,1-2.156-1.02,4.526,4.526,0,0,1-.656-2.848q.016-.578.086-1.141l.281-1.9a7.043,7.043,0,0,1,1.43-3.625,3.418,3.418,0,0,1,2.781-1.156,2.6,2.6,0,0,1,2.168,1,4.426,4.426,0,0,1,.66,2.8q-.023.586-.094,1.148l-.273,1.836a7.463,7.463,0,0,1-1.461,3.758A3.4,3.4,0,0,1,77.41,17.156Zm3.133-7a12.092,12.092,0,0,0,.1-1.469Q80.605,6.7,79.105,6.648a2.053,2.053,0,0,0-1.77.809,5.606,5.606,0,0,0-.941,2.66l-.336,2.266a11.525,11.525,0,0,0-.1,1.477q.039,2.07,1.531,2.125a2.007,2.007,0,0,0,1.715-.766,5.429,5.429,0,0,0,.965-2.578Zm3.258,5.2a.846.846,0,0,1,.633.234.807.807,0,0,1,.242.625.844.844,0,0,1-.258.621.929.929,0,0,1-.625.254.788.788,0,0,1-.859-.828.874.874,0,0,1,.867-.906Zm4.594-4.086L89.84,5.625h5.672L95.3,6.961H90.848l-.875,3.109a3.481,3.481,0,0,1,1.859-.492A2.553,2.553,0,0,1,94,10.645a3.864,3.864,0,0,1,.617,2.676,4.274,4.274,0,0,1-1.242,2.813,3.651,3.651,0,0,1-2.727,1.031,2.975,2.975,0,0,1-2.2-.875A3.307,3.307,0,0,1,87.574,14h1.32a2.266,2.266,0,0,0,.531,1.453,1.718,1.718,0,0,0,1.289.531,2.1,2.1,0,0,0,1.684-.711,3.282,3.282,0,0,0,.809-1.945,2.5,2.5,0,0,0-.367-1.738,1.671,1.671,0,0,0-1.4-.715,2.4,2.4,0,0,0-1.012.172,3.758,3.758,0,0,0-.879.539Zm10.773,5.883a2.567,2.567,0,0,1-2.156-1.02,4.526,4.526,0,0,1-.656-2.848q.016-.578.086-1.141l.281-1.9a7.043,7.043,0,0,1,1.43-3.625,3.418,3.418,0,0,1,2.781-1.156,2.6,2.6,0,0,1,2.168,1,4.426,4.426,0,0,1,.66,2.8q-.023.586-.094,1.148l-.273,1.836a7.463,7.463,0,0,1-1.461,3.758A3.4,3.4,0,0,1,99.168,17.156Zm3.133-7a12.092,12.092,0,0,0,.1-1.469q-.039-1.984-1.539-2.039a2.053,2.053,0,0,0-1.77.809,5.606,5.606,0,0,0-.941,2.66l-.336,2.266a11.525,11.525,0,0,0-.1,1.477q.039,2.07,1.531,2.125a2.007,2.007,0,0,0,1.715-.766,5.429,5.429,0,0,0,.965-2.578Zm5.664,7a2.567,2.567,0,0,1-2.156-1.02,4.526,4.526,0,0,1-.656-2.848q.016-.578.086-1.141l.281-1.9a7.043,7.043,0,0,1,1.43-3.625,3.418,3.418,0,0,1,2.781-1.156,2.6,2.6,0,0,1,2.168,1,4.426,4.426,0,0,1,.66,2.8q-.023.586-.094,1.148l-.273,1.836a7.463,7.463,0,0,1-1.461,3.758A3.4,3.4,0,0,1,107.965,17.156Zm3.133-7a12.092,12.092,0,0,0,.1-1.469Q111.16,6.7,109.66,6.648a2.053,2.053,0,0,0-1.77.809,5.606,5.606,0,0,0-.941,2.66l-.336,2.266a11.525,11.525,0,0,0-.1,1.477q.039,2.07,1.531,2.125a2.007,2.007,0,0,0,1.715-.766,5.429,5.429,0,0,0,.965-2.578Z" transform="translate(-6529.051 20008.391)" fill="#12263f"/>
    <path id="Trazado_1053281" data-name="Trazado 1053281" d="M-20.551.572H162.112" transform="translate(-6511.655 20004.391)" fill="none" stroke="#707070" stroke-width="1"/>
  </g>
</svg>
